%TF.GenerationSoftware,KiCad,Pcbnew,10.0.5*%
%TF.CreationDate,2026-07-25T17:15:33+02:00*%
%TF.ProjectId,learsim pcbs,6c656172-7369-46d2-9070-6362732e6b69,rev?*%
%TF.SameCoordinates,Original*%
%TF.FileFunction,Legend,Bot*%
%TF.FilePolarity,Positive*%
%FSLAX46Y46*%
G04 Gerber Fmt 4.6, Leading zero omitted, Abs format (unit mm)*
G04 Created by KiCad (PCBNEW 10.0.5) date 2026-07-25 17:15:33*
%MOMM*%
%LPD*%
G01*
G04 APERTURE LIST*
%ADD10C,0.150000*%
%ADD11C,0.550000*%
%ADD12C,0.120000*%
G04 APERTURE END LIST*
D10*
X73224819Y-90688095D02*
X74034342Y-90688095D01*
X74034342Y-90688095D02*
X74129580Y-90735714D01*
X74129580Y-90735714D02*
X74177200Y-90783333D01*
X74177200Y-90783333D02*
X74224819Y-90878571D01*
X74224819Y-90878571D02*
X74224819Y-91069047D01*
X74224819Y-91069047D02*
X74177200Y-91164285D01*
X74177200Y-91164285D02*
X74129580Y-91211904D01*
X74129580Y-91211904D02*
X74034342Y-91259523D01*
X74034342Y-91259523D02*
X73224819Y-91259523D01*
X74224819Y-92259523D02*
X74224819Y-91688095D01*
X74224819Y-91973809D02*
X73224819Y-91973809D01*
X73224819Y-91973809D02*
X73367676Y-91878571D01*
X73367676Y-91878571D02*
X73462914Y-91783333D01*
X73462914Y-91783333D02*
X73510533Y-91688095D01*
X51488094Y-71854819D02*
X51488094Y-70854819D01*
X51488094Y-70854819D02*
X51249999Y-70854819D01*
X51249999Y-70854819D02*
X51107142Y-70902438D01*
X51107142Y-70902438D02*
X51011904Y-70997676D01*
X51011904Y-70997676D02*
X50964285Y-71092914D01*
X50964285Y-71092914D02*
X50916666Y-71283390D01*
X50916666Y-71283390D02*
X50916666Y-71426247D01*
X50916666Y-71426247D02*
X50964285Y-71616723D01*
X50964285Y-71616723D02*
X51011904Y-71711961D01*
X51011904Y-71711961D02*
X51107142Y-71807200D01*
X51107142Y-71807200D02*
X51249999Y-71854819D01*
X51249999Y-71854819D02*
X51488094Y-71854819D01*
X50011904Y-70854819D02*
X50488094Y-70854819D01*
X50488094Y-70854819D02*
X50535713Y-71331009D01*
X50535713Y-71331009D02*
X50488094Y-71283390D01*
X50488094Y-71283390D02*
X50392856Y-71235771D01*
X50392856Y-71235771D02*
X50154761Y-71235771D01*
X50154761Y-71235771D02*
X50059523Y-71283390D01*
X50059523Y-71283390D02*
X50011904Y-71331009D01*
X50011904Y-71331009D02*
X49964285Y-71426247D01*
X49964285Y-71426247D02*
X49964285Y-71664342D01*
X49964285Y-71664342D02*
X50011904Y-71759580D01*
X50011904Y-71759580D02*
X50059523Y-71807200D01*
X50059523Y-71807200D02*
X50154761Y-71854819D01*
X50154761Y-71854819D02*
X50392856Y-71854819D01*
X50392856Y-71854819D02*
X50488094Y-71807200D01*
X50488094Y-71807200D02*
X50535713Y-71759580D01*
X31761905Y-122645180D02*
X31761905Y-123645180D01*
X31761905Y-123645180D02*
X32000000Y-123645180D01*
X32000000Y-123645180D02*
X32142857Y-123597561D01*
X32142857Y-123597561D02*
X32238095Y-123502323D01*
X32238095Y-123502323D02*
X32285714Y-123407085D01*
X32285714Y-123407085D02*
X32333333Y-123216609D01*
X32333333Y-123216609D02*
X32333333Y-123073752D01*
X32333333Y-123073752D02*
X32285714Y-122883276D01*
X32285714Y-122883276D02*
X32238095Y-122788038D01*
X32238095Y-122788038D02*
X32142857Y-122692800D01*
X32142857Y-122692800D02*
X32000000Y-122645180D01*
X32000000Y-122645180D02*
X31761905Y-122645180D01*
X33285714Y-122645180D02*
X32714286Y-122645180D01*
X33000000Y-122645180D02*
X33000000Y-123645180D01*
X33000000Y-123645180D02*
X32904762Y-123502323D01*
X32904762Y-123502323D02*
X32809524Y-123407085D01*
X32809524Y-123407085D02*
X32714286Y-123359466D01*
X56261905Y-122545180D02*
X56261905Y-123545180D01*
X56261905Y-123545180D02*
X56500000Y-123545180D01*
X56500000Y-123545180D02*
X56642857Y-123497561D01*
X56642857Y-123497561D02*
X56738095Y-123402323D01*
X56738095Y-123402323D02*
X56785714Y-123307085D01*
X56785714Y-123307085D02*
X56833333Y-123116609D01*
X56833333Y-123116609D02*
X56833333Y-122973752D01*
X56833333Y-122973752D02*
X56785714Y-122783276D01*
X56785714Y-122783276D02*
X56738095Y-122688038D01*
X56738095Y-122688038D02*
X56642857Y-122592800D01*
X56642857Y-122592800D02*
X56500000Y-122545180D01*
X56500000Y-122545180D02*
X56261905Y-122545180D01*
X57214286Y-123449942D02*
X57261905Y-123497561D01*
X57261905Y-123497561D02*
X57357143Y-123545180D01*
X57357143Y-123545180D02*
X57595238Y-123545180D01*
X57595238Y-123545180D02*
X57690476Y-123497561D01*
X57690476Y-123497561D02*
X57738095Y-123449942D01*
X57738095Y-123449942D02*
X57785714Y-123354704D01*
X57785714Y-123354704D02*
X57785714Y-123259466D01*
X57785714Y-123259466D02*
X57738095Y-123116609D01*
X57738095Y-123116609D02*
X57166667Y-122545180D01*
X57166667Y-122545180D02*
X57785714Y-122545180D01*
X52392857Y-100824819D02*
X52726190Y-100348628D01*
X52964285Y-100824819D02*
X52964285Y-99824819D01*
X52964285Y-99824819D02*
X52583333Y-99824819D01*
X52583333Y-99824819D02*
X52488095Y-99872438D01*
X52488095Y-99872438D02*
X52440476Y-99920057D01*
X52440476Y-99920057D02*
X52392857Y-100015295D01*
X52392857Y-100015295D02*
X52392857Y-100158152D01*
X52392857Y-100158152D02*
X52440476Y-100253390D01*
X52440476Y-100253390D02*
X52488095Y-100301009D01*
X52488095Y-100301009D02*
X52583333Y-100348628D01*
X52583333Y-100348628D02*
X52964285Y-100348628D01*
X51440476Y-100824819D02*
X52011904Y-100824819D01*
X51726190Y-100824819D02*
X51726190Y-99824819D01*
X51726190Y-99824819D02*
X51821428Y-99967676D01*
X51821428Y-99967676D02*
X51916666Y-100062914D01*
X51916666Y-100062914D02*
X52011904Y-100110533D01*
X50535714Y-99824819D02*
X51011904Y-99824819D01*
X51011904Y-99824819D02*
X51059523Y-100301009D01*
X51059523Y-100301009D02*
X51011904Y-100253390D01*
X51011904Y-100253390D02*
X50916666Y-100205771D01*
X50916666Y-100205771D02*
X50678571Y-100205771D01*
X50678571Y-100205771D02*
X50583333Y-100253390D01*
X50583333Y-100253390D02*
X50535714Y-100301009D01*
X50535714Y-100301009D02*
X50488095Y-100396247D01*
X50488095Y-100396247D02*
X50488095Y-100634342D01*
X50488095Y-100634342D02*
X50535714Y-100729580D01*
X50535714Y-100729580D02*
X50583333Y-100777200D01*
X50583333Y-100777200D02*
X50678571Y-100824819D01*
X50678571Y-100824819D02*
X50916666Y-100824819D01*
X50916666Y-100824819D02*
X51011904Y-100777200D01*
X51011904Y-100777200D02*
X51059523Y-100729580D01*
X38392857Y-96334819D02*
X38726190Y-95858628D01*
X38964285Y-96334819D02*
X38964285Y-95334819D01*
X38964285Y-95334819D02*
X38583333Y-95334819D01*
X38583333Y-95334819D02*
X38488095Y-95382438D01*
X38488095Y-95382438D02*
X38440476Y-95430057D01*
X38440476Y-95430057D02*
X38392857Y-95525295D01*
X38392857Y-95525295D02*
X38392857Y-95668152D01*
X38392857Y-95668152D02*
X38440476Y-95763390D01*
X38440476Y-95763390D02*
X38488095Y-95811009D01*
X38488095Y-95811009D02*
X38583333Y-95858628D01*
X38583333Y-95858628D02*
X38964285Y-95858628D01*
X37440476Y-96334819D02*
X38011904Y-96334819D01*
X37726190Y-96334819D02*
X37726190Y-95334819D01*
X37726190Y-95334819D02*
X37821428Y-95477676D01*
X37821428Y-95477676D02*
X37916666Y-95572914D01*
X37916666Y-95572914D02*
X38011904Y-95620533D01*
X36583333Y-95334819D02*
X36773809Y-95334819D01*
X36773809Y-95334819D02*
X36869047Y-95382438D01*
X36869047Y-95382438D02*
X36916666Y-95430057D01*
X36916666Y-95430057D02*
X37011904Y-95572914D01*
X37011904Y-95572914D02*
X37059523Y-95763390D01*
X37059523Y-95763390D02*
X37059523Y-96144342D01*
X37059523Y-96144342D02*
X37011904Y-96239580D01*
X37011904Y-96239580D02*
X36964285Y-96287200D01*
X36964285Y-96287200D02*
X36869047Y-96334819D01*
X36869047Y-96334819D02*
X36678571Y-96334819D01*
X36678571Y-96334819D02*
X36583333Y-96287200D01*
X36583333Y-96287200D02*
X36535714Y-96239580D01*
X36535714Y-96239580D02*
X36488095Y-96144342D01*
X36488095Y-96144342D02*
X36488095Y-95906247D01*
X36488095Y-95906247D02*
X36535714Y-95811009D01*
X36535714Y-95811009D02*
X36583333Y-95763390D01*
X36583333Y-95763390D02*
X36678571Y-95715771D01*
X36678571Y-95715771D02*
X36869047Y-95715771D01*
X36869047Y-95715771D02*
X36964285Y-95763390D01*
X36964285Y-95763390D02*
X37011904Y-95811009D01*
X37011904Y-95811009D02*
X37059523Y-95906247D01*
X82666666Y-40759580D02*
X82714285Y-40807200D01*
X82714285Y-40807200D02*
X82857142Y-40854819D01*
X82857142Y-40854819D02*
X82952380Y-40854819D01*
X82952380Y-40854819D02*
X83095237Y-40807200D01*
X83095237Y-40807200D02*
X83190475Y-40711961D01*
X83190475Y-40711961D02*
X83238094Y-40616723D01*
X83238094Y-40616723D02*
X83285713Y-40426247D01*
X83285713Y-40426247D02*
X83285713Y-40283390D01*
X83285713Y-40283390D02*
X83238094Y-40092914D01*
X83238094Y-40092914D02*
X83190475Y-39997676D01*
X83190475Y-39997676D02*
X83095237Y-39902438D01*
X83095237Y-39902438D02*
X82952380Y-39854819D01*
X82952380Y-39854819D02*
X82857142Y-39854819D01*
X82857142Y-39854819D02*
X82714285Y-39902438D01*
X82714285Y-39902438D02*
X82666666Y-39950057D01*
X81809523Y-39854819D02*
X81999999Y-39854819D01*
X81999999Y-39854819D02*
X82095237Y-39902438D01*
X82095237Y-39902438D02*
X82142856Y-39950057D01*
X82142856Y-39950057D02*
X82238094Y-40092914D01*
X82238094Y-40092914D02*
X82285713Y-40283390D01*
X82285713Y-40283390D02*
X82285713Y-40664342D01*
X82285713Y-40664342D02*
X82238094Y-40759580D01*
X82238094Y-40759580D02*
X82190475Y-40807200D01*
X82190475Y-40807200D02*
X82095237Y-40854819D01*
X82095237Y-40854819D02*
X81904761Y-40854819D01*
X81904761Y-40854819D02*
X81809523Y-40807200D01*
X81809523Y-40807200D02*
X81761904Y-40759580D01*
X81761904Y-40759580D02*
X81714285Y-40664342D01*
X81714285Y-40664342D02*
X81714285Y-40426247D01*
X81714285Y-40426247D02*
X81761904Y-40331009D01*
X81761904Y-40331009D02*
X81809523Y-40283390D01*
X81809523Y-40283390D02*
X81904761Y-40235771D01*
X81904761Y-40235771D02*
X82095237Y-40235771D01*
X82095237Y-40235771D02*
X82190475Y-40283390D01*
X82190475Y-40283390D02*
X82238094Y-40331009D01*
X82238094Y-40331009D02*
X82285713Y-40426247D01*
X130761905Y-122495180D02*
X130761905Y-123495180D01*
X130761905Y-123495180D02*
X131000000Y-123495180D01*
X131000000Y-123495180D02*
X131142857Y-123447561D01*
X131142857Y-123447561D02*
X131238095Y-123352323D01*
X131238095Y-123352323D02*
X131285714Y-123257085D01*
X131285714Y-123257085D02*
X131333333Y-123066609D01*
X131333333Y-123066609D02*
X131333333Y-122923752D01*
X131333333Y-122923752D02*
X131285714Y-122733276D01*
X131285714Y-122733276D02*
X131238095Y-122638038D01*
X131238095Y-122638038D02*
X131142857Y-122542800D01*
X131142857Y-122542800D02*
X131000000Y-122495180D01*
X131000000Y-122495180D02*
X130761905Y-122495180D01*
X132190476Y-123495180D02*
X132000000Y-123495180D01*
X132000000Y-123495180D02*
X131904762Y-123447561D01*
X131904762Y-123447561D02*
X131857143Y-123399942D01*
X131857143Y-123399942D02*
X131761905Y-123257085D01*
X131761905Y-123257085D02*
X131714286Y-123066609D01*
X131714286Y-123066609D02*
X131714286Y-122685657D01*
X131714286Y-122685657D02*
X131761905Y-122590419D01*
X131761905Y-122590419D02*
X131809524Y-122542800D01*
X131809524Y-122542800D02*
X131904762Y-122495180D01*
X131904762Y-122495180D02*
X132095238Y-122495180D01*
X132095238Y-122495180D02*
X132190476Y-122542800D01*
X132190476Y-122542800D02*
X132238095Y-122590419D01*
X132238095Y-122590419D02*
X132285714Y-122685657D01*
X132285714Y-122685657D02*
X132285714Y-122923752D01*
X132285714Y-122923752D02*
X132238095Y-123018990D01*
X132238095Y-123018990D02*
X132190476Y-123066609D01*
X132190476Y-123066609D02*
X132095238Y-123114228D01*
X132095238Y-123114228D02*
X131904762Y-123114228D01*
X131904762Y-123114228D02*
X131809524Y-123066609D01*
X131809524Y-123066609D02*
X131761905Y-123018990D01*
X131761905Y-123018990D02*
X131714286Y-122923752D01*
X116166666Y-62074819D02*
X116499999Y-61598628D01*
X116738094Y-62074819D02*
X116738094Y-61074819D01*
X116738094Y-61074819D02*
X116357142Y-61074819D01*
X116357142Y-61074819D02*
X116261904Y-61122438D01*
X116261904Y-61122438D02*
X116214285Y-61170057D01*
X116214285Y-61170057D02*
X116166666Y-61265295D01*
X116166666Y-61265295D02*
X116166666Y-61408152D01*
X116166666Y-61408152D02*
X116214285Y-61503390D01*
X116214285Y-61503390D02*
X116261904Y-61551009D01*
X116261904Y-61551009D02*
X116357142Y-61598628D01*
X116357142Y-61598628D02*
X116738094Y-61598628D01*
X115214285Y-62074819D02*
X115785713Y-62074819D01*
X115499999Y-62074819D02*
X115499999Y-61074819D01*
X115499999Y-61074819D02*
X115595237Y-61217676D01*
X115595237Y-61217676D02*
X115690475Y-61312914D01*
X115690475Y-61312914D02*
X115785713Y-61360533D01*
X123142857Y-128859580D02*
X123190476Y-128907200D01*
X123190476Y-128907200D02*
X123333333Y-128954819D01*
X123333333Y-128954819D02*
X123428571Y-128954819D01*
X123428571Y-128954819D02*
X123571428Y-128907200D01*
X123571428Y-128907200D02*
X123666666Y-128811961D01*
X123666666Y-128811961D02*
X123714285Y-128716723D01*
X123714285Y-128716723D02*
X123761904Y-128526247D01*
X123761904Y-128526247D02*
X123761904Y-128383390D01*
X123761904Y-128383390D02*
X123714285Y-128192914D01*
X123714285Y-128192914D02*
X123666666Y-128097676D01*
X123666666Y-128097676D02*
X123571428Y-128002438D01*
X123571428Y-128002438D02*
X123428571Y-127954819D01*
X123428571Y-127954819D02*
X123333333Y-127954819D01*
X123333333Y-127954819D02*
X123190476Y-128002438D01*
X123190476Y-128002438D02*
X123142857Y-128050057D01*
X122190476Y-128954819D02*
X122761904Y-128954819D01*
X122476190Y-128954819D02*
X122476190Y-127954819D01*
X122476190Y-127954819D02*
X122571428Y-128097676D01*
X122571428Y-128097676D02*
X122666666Y-128192914D01*
X122666666Y-128192914D02*
X122761904Y-128240533D01*
X121809523Y-128050057D02*
X121761904Y-128002438D01*
X121761904Y-128002438D02*
X121666666Y-127954819D01*
X121666666Y-127954819D02*
X121428571Y-127954819D01*
X121428571Y-127954819D02*
X121333333Y-128002438D01*
X121333333Y-128002438D02*
X121285714Y-128050057D01*
X121285714Y-128050057D02*
X121238095Y-128145295D01*
X121238095Y-128145295D02*
X121238095Y-128240533D01*
X121238095Y-128240533D02*
X121285714Y-128383390D01*
X121285714Y-128383390D02*
X121857142Y-128954819D01*
X121857142Y-128954819D02*
X121238095Y-128954819D01*
X27416666Y-51859580D02*
X27464285Y-51907200D01*
X27464285Y-51907200D02*
X27607142Y-51954819D01*
X27607142Y-51954819D02*
X27702380Y-51954819D01*
X27702380Y-51954819D02*
X27845237Y-51907200D01*
X27845237Y-51907200D02*
X27940475Y-51811961D01*
X27940475Y-51811961D02*
X27988094Y-51716723D01*
X27988094Y-51716723D02*
X28035713Y-51526247D01*
X28035713Y-51526247D02*
X28035713Y-51383390D01*
X28035713Y-51383390D02*
X27988094Y-51192914D01*
X27988094Y-51192914D02*
X27940475Y-51097676D01*
X27940475Y-51097676D02*
X27845237Y-51002438D01*
X27845237Y-51002438D02*
X27702380Y-50954819D01*
X27702380Y-50954819D02*
X27607142Y-50954819D01*
X27607142Y-50954819D02*
X27464285Y-51002438D01*
X27464285Y-51002438D02*
X27416666Y-51050057D01*
X27083332Y-50954819D02*
X26416666Y-50954819D01*
X26416666Y-50954819D02*
X26845237Y-51954819D01*
X82166666Y-76824819D02*
X82499999Y-76348628D01*
X82738094Y-76824819D02*
X82738094Y-75824819D01*
X82738094Y-75824819D02*
X82357142Y-75824819D01*
X82357142Y-75824819D02*
X82261904Y-75872438D01*
X82261904Y-75872438D02*
X82214285Y-75920057D01*
X82214285Y-75920057D02*
X82166666Y-76015295D01*
X82166666Y-76015295D02*
X82166666Y-76158152D01*
X82166666Y-76158152D02*
X82214285Y-76253390D01*
X82214285Y-76253390D02*
X82261904Y-76301009D01*
X82261904Y-76301009D02*
X82357142Y-76348628D01*
X82357142Y-76348628D02*
X82738094Y-76348628D01*
X81690475Y-76824819D02*
X81499999Y-76824819D01*
X81499999Y-76824819D02*
X81404761Y-76777200D01*
X81404761Y-76777200D02*
X81357142Y-76729580D01*
X81357142Y-76729580D02*
X81261904Y-76586723D01*
X81261904Y-76586723D02*
X81214285Y-76396247D01*
X81214285Y-76396247D02*
X81214285Y-76015295D01*
X81214285Y-76015295D02*
X81261904Y-75920057D01*
X81261904Y-75920057D02*
X81309523Y-75872438D01*
X81309523Y-75872438D02*
X81404761Y-75824819D01*
X81404761Y-75824819D02*
X81595237Y-75824819D01*
X81595237Y-75824819D02*
X81690475Y-75872438D01*
X81690475Y-75872438D02*
X81738094Y-75920057D01*
X81738094Y-75920057D02*
X81785713Y-76015295D01*
X81785713Y-76015295D02*
X81785713Y-76253390D01*
X81785713Y-76253390D02*
X81738094Y-76348628D01*
X81738094Y-76348628D02*
X81690475Y-76396247D01*
X81690475Y-76396247D02*
X81595237Y-76443866D01*
X81595237Y-76443866D02*
X81404761Y-76443866D01*
X81404761Y-76443866D02*
X81309523Y-76396247D01*
X81309523Y-76396247D02*
X81261904Y-76348628D01*
X81261904Y-76348628D02*
X81214285Y-76253390D01*
X83892857Y-67859580D02*
X83940476Y-67907200D01*
X83940476Y-67907200D02*
X84083333Y-67954819D01*
X84083333Y-67954819D02*
X84178571Y-67954819D01*
X84178571Y-67954819D02*
X84321428Y-67907200D01*
X84321428Y-67907200D02*
X84416666Y-67811961D01*
X84416666Y-67811961D02*
X84464285Y-67716723D01*
X84464285Y-67716723D02*
X84511904Y-67526247D01*
X84511904Y-67526247D02*
X84511904Y-67383390D01*
X84511904Y-67383390D02*
X84464285Y-67192914D01*
X84464285Y-67192914D02*
X84416666Y-67097676D01*
X84416666Y-67097676D02*
X84321428Y-67002438D01*
X84321428Y-67002438D02*
X84178571Y-66954819D01*
X84178571Y-66954819D02*
X84083333Y-66954819D01*
X84083333Y-66954819D02*
X83940476Y-67002438D01*
X83940476Y-67002438D02*
X83892857Y-67050057D01*
X82940476Y-67954819D02*
X83511904Y-67954819D01*
X83226190Y-67954819D02*
X83226190Y-66954819D01*
X83226190Y-66954819D02*
X83321428Y-67097676D01*
X83321428Y-67097676D02*
X83416666Y-67192914D01*
X83416666Y-67192914D02*
X83511904Y-67240533D01*
X82607142Y-66954819D02*
X81988095Y-66954819D01*
X81988095Y-66954819D02*
X82321428Y-67335771D01*
X82321428Y-67335771D02*
X82178571Y-67335771D01*
X82178571Y-67335771D02*
X82083333Y-67383390D01*
X82083333Y-67383390D02*
X82035714Y-67431009D01*
X82035714Y-67431009D02*
X81988095Y-67526247D01*
X81988095Y-67526247D02*
X81988095Y-67764342D01*
X81988095Y-67764342D02*
X82035714Y-67859580D01*
X82035714Y-67859580D02*
X82083333Y-67907200D01*
X82083333Y-67907200D02*
X82178571Y-67954819D01*
X82178571Y-67954819D02*
X82464285Y-67954819D01*
X82464285Y-67954819D02*
X82559523Y-67907200D01*
X82559523Y-67907200D02*
X82607142Y-67859580D01*
X82642857Y-68324819D02*
X82976190Y-67848628D01*
X83214285Y-68324819D02*
X83214285Y-67324819D01*
X83214285Y-67324819D02*
X82833333Y-67324819D01*
X82833333Y-67324819D02*
X82738095Y-67372438D01*
X82738095Y-67372438D02*
X82690476Y-67420057D01*
X82690476Y-67420057D02*
X82642857Y-67515295D01*
X82642857Y-67515295D02*
X82642857Y-67658152D01*
X82642857Y-67658152D02*
X82690476Y-67753390D01*
X82690476Y-67753390D02*
X82738095Y-67801009D01*
X82738095Y-67801009D02*
X82833333Y-67848628D01*
X82833333Y-67848628D02*
X83214285Y-67848628D01*
X81690476Y-68324819D02*
X82261904Y-68324819D01*
X81976190Y-68324819D02*
X81976190Y-67324819D01*
X81976190Y-67324819D02*
X82071428Y-67467676D01*
X82071428Y-67467676D02*
X82166666Y-67562914D01*
X82166666Y-67562914D02*
X82261904Y-67610533D01*
X81071428Y-67324819D02*
X80976190Y-67324819D01*
X80976190Y-67324819D02*
X80880952Y-67372438D01*
X80880952Y-67372438D02*
X80833333Y-67420057D01*
X80833333Y-67420057D02*
X80785714Y-67515295D01*
X80785714Y-67515295D02*
X80738095Y-67705771D01*
X80738095Y-67705771D02*
X80738095Y-67943866D01*
X80738095Y-67943866D02*
X80785714Y-68134342D01*
X80785714Y-68134342D02*
X80833333Y-68229580D01*
X80833333Y-68229580D02*
X80880952Y-68277200D01*
X80880952Y-68277200D02*
X80976190Y-68324819D01*
X80976190Y-68324819D02*
X81071428Y-68324819D01*
X81071428Y-68324819D02*
X81166666Y-68277200D01*
X81166666Y-68277200D02*
X81214285Y-68229580D01*
X81214285Y-68229580D02*
X81261904Y-68134342D01*
X81261904Y-68134342D02*
X81309523Y-67943866D01*
X81309523Y-67943866D02*
X81309523Y-67705771D01*
X81309523Y-67705771D02*
X81261904Y-67515295D01*
X81261904Y-67515295D02*
X81214285Y-67420057D01*
X81214285Y-67420057D02*
X81166666Y-67372438D01*
X81166666Y-67372438D02*
X81071428Y-67324819D01*
X41666666Y-129574819D02*
X41999999Y-129098628D01*
X42238094Y-129574819D02*
X42238094Y-128574819D01*
X42238094Y-128574819D02*
X41857142Y-128574819D01*
X41857142Y-128574819D02*
X41761904Y-128622438D01*
X41761904Y-128622438D02*
X41714285Y-128670057D01*
X41714285Y-128670057D02*
X41666666Y-128765295D01*
X41666666Y-128765295D02*
X41666666Y-128908152D01*
X41666666Y-128908152D02*
X41714285Y-129003390D01*
X41714285Y-129003390D02*
X41761904Y-129051009D01*
X41761904Y-129051009D02*
X41857142Y-129098628D01*
X41857142Y-129098628D02*
X42238094Y-129098628D01*
X41333332Y-128574819D02*
X40714285Y-128574819D01*
X40714285Y-128574819D02*
X41047618Y-128955771D01*
X41047618Y-128955771D02*
X40904761Y-128955771D01*
X40904761Y-128955771D02*
X40809523Y-129003390D01*
X40809523Y-129003390D02*
X40761904Y-129051009D01*
X40761904Y-129051009D02*
X40714285Y-129146247D01*
X40714285Y-129146247D02*
X40714285Y-129384342D01*
X40714285Y-129384342D02*
X40761904Y-129479580D01*
X40761904Y-129479580D02*
X40809523Y-129527200D01*
X40809523Y-129527200D02*
X40904761Y-129574819D01*
X40904761Y-129574819D02*
X41190475Y-129574819D01*
X41190475Y-129574819D02*
X41285713Y-129527200D01*
X41285713Y-129527200D02*
X41333332Y-129479580D01*
X115392857Y-61859580D02*
X115440476Y-61907200D01*
X115440476Y-61907200D02*
X115583333Y-61954819D01*
X115583333Y-61954819D02*
X115678571Y-61954819D01*
X115678571Y-61954819D02*
X115821428Y-61907200D01*
X115821428Y-61907200D02*
X115916666Y-61811961D01*
X115916666Y-61811961D02*
X115964285Y-61716723D01*
X115964285Y-61716723D02*
X116011904Y-61526247D01*
X116011904Y-61526247D02*
X116011904Y-61383390D01*
X116011904Y-61383390D02*
X115964285Y-61192914D01*
X115964285Y-61192914D02*
X115916666Y-61097676D01*
X115916666Y-61097676D02*
X115821428Y-61002438D01*
X115821428Y-61002438D02*
X115678571Y-60954819D01*
X115678571Y-60954819D02*
X115583333Y-60954819D01*
X115583333Y-60954819D02*
X115440476Y-61002438D01*
X115440476Y-61002438D02*
X115392857Y-61050057D01*
X114440476Y-61954819D02*
X115011904Y-61954819D01*
X114726190Y-61954819D02*
X114726190Y-60954819D01*
X114726190Y-60954819D02*
X114821428Y-61097676D01*
X114821428Y-61097676D02*
X114916666Y-61192914D01*
X114916666Y-61192914D02*
X115011904Y-61240533D01*
X114107142Y-60954819D02*
X113440476Y-60954819D01*
X113440476Y-60954819D02*
X113869047Y-61954819D01*
X81261905Y-122545180D02*
X81261905Y-123545180D01*
X81261905Y-123545180D02*
X81500000Y-123545180D01*
X81500000Y-123545180D02*
X81642857Y-123497561D01*
X81642857Y-123497561D02*
X81738095Y-123402323D01*
X81738095Y-123402323D02*
X81785714Y-123307085D01*
X81785714Y-123307085D02*
X81833333Y-123116609D01*
X81833333Y-123116609D02*
X81833333Y-122973752D01*
X81833333Y-122973752D02*
X81785714Y-122783276D01*
X81785714Y-122783276D02*
X81738095Y-122688038D01*
X81738095Y-122688038D02*
X81642857Y-122592800D01*
X81642857Y-122592800D02*
X81500000Y-122545180D01*
X81500000Y-122545180D02*
X81261905Y-122545180D01*
X82166667Y-123545180D02*
X82785714Y-123545180D01*
X82785714Y-123545180D02*
X82452381Y-123164228D01*
X82452381Y-123164228D02*
X82595238Y-123164228D01*
X82595238Y-123164228D02*
X82690476Y-123116609D01*
X82690476Y-123116609D02*
X82738095Y-123068990D01*
X82738095Y-123068990D02*
X82785714Y-122973752D01*
X82785714Y-122973752D02*
X82785714Y-122735657D01*
X82785714Y-122735657D02*
X82738095Y-122640419D01*
X82738095Y-122640419D02*
X82690476Y-122592800D01*
X82690476Y-122592800D02*
X82595238Y-122545180D01*
X82595238Y-122545180D02*
X82309524Y-122545180D01*
X82309524Y-122545180D02*
X82214286Y-122592800D01*
X82214286Y-122592800D02*
X82166667Y-122640419D01*
X58666666Y-78084819D02*
X58999999Y-77608628D01*
X59238094Y-78084819D02*
X59238094Y-77084819D01*
X59238094Y-77084819D02*
X58857142Y-77084819D01*
X58857142Y-77084819D02*
X58761904Y-77132438D01*
X58761904Y-77132438D02*
X58714285Y-77180057D01*
X58714285Y-77180057D02*
X58666666Y-77275295D01*
X58666666Y-77275295D02*
X58666666Y-77418152D01*
X58666666Y-77418152D02*
X58714285Y-77513390D01*
X58714285Y-77513390D02*
X58761904Y-77561009D01*
X58761904Y-77561009D02*
X58857142Y-77608628D01*
X58857142Y-77608628D02*
X59238094Y-77608628D01*
X58095237Y-77513390D02*
X58190475Y-77465771D01*
X58190475Y-77465771D02*
X58238094Y-77418152D01*
X58238094Y-77418152D02*
X58285713Y-77322914D01*
X58285713Y-77322914D02*
X58285713Y-77275295D01*
X58285713Y-77275295D02*
X58238094Y-77180057D01*
X58238094Y-77180057D02*
X58190475Y-77132438D01*
X58190475Y-77132438D02*
X58095237Y-77084819D01*
X58095237Y-77084819D02*
X57904761Y-77084819D01*
X57904761Y-77084819D02*
X57809523Y-77132438D01*
X57809523Y-77132438D02*
X57761904Y-77180057D01*
X57761904Y-77180057D02*
X57714285Y-77275295D01*
X57714285Y-77275295D02*
X57714285Y-77322914D01*
X57714285Y-77322914D02*
X57761904Y-77418152D01*
X57761904Y-77418152D02*
X57809523Y-77465771D01*
X57809523Y-77465771D02*
X57904761Y-77513390D01*
X57904761Y-77513390D02*
X58095237Y-77513390D01*
X58095237Y-77513390D02*
X58190475Y-77561009D01*
X58190475Y-77561009D02*
X58238094Y-77608628D01*
X58238094Y-77608628D02*
X58285713Y-77703866D01*
X58285713Y-77703866D02*
X58285713Y-77894342D01*
X58285713Y-77894342D02*
X58238094Y-77989580D01*
X58238094Y-77989580D02*
X58190475Y-78037200D01*
X58190475Y-78037200D02*
X58095237Y-78084819D01*
X58095237Y-78084819D02*
X57904761Y-78084819D01*
X57904761Y-78084819D02*
X57809523Y-78037200D01*
X57809523Y-78037200D02*
X57761904Y-77989580D01*
X57761904Y-77989580D02*
X57714285Y-77894342D01*
X57714285Y-77894342D02*
X57714285Y-77703866D01*
X57714285Y-77703866D02*
X57761904Y-77608628D01*
X57761904Y-77608628D02*
X57809523Y-77561009D01*
X57809523Y-77561009D02*
X57904761Y-77513390D01*
X115392857Y-78574819D02*
X115726190Y-78098628D01*
X115964285Y-78574819D02*
X115964285Y-77574819D01*
X115964285Y-77574819D02*
X115583333Y-77574819D01*
X115583333Y-77574819D02*
X115488095Y-77622438D01*
X115488095Y-77622438D02*
X115440476Y-77670057D01*
X115440476Y-77670057D02*
X115392857Y-77765295D01*
X115392857Y-77765295D02*
X115392857Y-77908152D01*
X115392857Y-77908152D02*
X115440476Y-78003390D01*
X115440476Y-78003390D02*
X115488095Y-78051009D01*
X115488095Y-78051009D02*
X115583333Y-78098628D01*
X115583333Y-78098628D02*
X115964285Y-78098628D01*
X114440476Y-78574819D02*
X115011904Y-78574819D01*
X114726190Y-78574819D02*
X114726190Y-77574819D01*
X114726190Y-77574819D02*
X114821428Y-77717676D01*
X114821428Y-77717676D02*
X114916666Y-77812914D01*
X114916666Y-77812914D02*
X115011904Y-77860533D01*
X114059523Y-77670057D02*
X114011904Y-77622438D01*
X114011904Y-77622438D02*
X113916666Y-77574819D01*
X113916666Y-77574819D02*
X113678571Y-77574819D01*
X113678571Y-77574819D02*
X113583333Y-77622438D01*
X113583333Y-77622438D02*
X113535714Y-77670057D01*
X113535714Y-77670057D02*
X113488095Y-77765295D01*
X113488095Y-77765295D02*
X113488095Y-77860533D01*
X113488095Y-77860533D02*
X113535714Y-78003390D01*
X113535714Y-78003390D02*
X114107142Y-78574819D01*
X114107142Y-78574819D02*
X113488095Y-78574819D01*
X83582857Y-58074819D02*
X83916190Y-57598628D01*
X84154285Y-58074819D02*
X84154285Y-57074819D01*
X84154285Y-57074819D02*
X83773333Y-57074819D01*
X83773333Y-57074819D02*
X83678095Y-57122438D01*
X83678095Y-57122438D02*
X83630476Y-57170057D01*
X83630476Y-57170057D02*
X83582857Y-57265295D01*
X83582857Y-57265295D02*
X83582857Y-57408152D01*
X83582857Y-57408152D02*
X83630476Y-57503390D01*
X83630476Y-57503390D02*
X83678095Y-57551009D01*
X83678095Y-57551009D02*
X83773333Y-57598628D01*
X83773333Y-57598628D02*
X84154285Y-57598628D01*
X82630476Y-58074819D02*
X83201904Y-58074819D01*
X82916190Y-58074819D02*
X82916190Y-57074819D01*
X82916190Y-57074819D02*
X83011428Y-57217676D01*
X83011428Y-57217676D02*
X83106666Y-57312914D01*
X83106666Y-57312914D02*
X83201904Y-57360533D01*
X81678095Y-58074819D02*
X82249523Y-58074819D01*
X81963809Y-58074819D02*
X81963809Y-57074819D01*
X81963809Y-57074819D02*
X82059047Y-57217676D01*
X82059047Y-57217676D02*
X82154285Y-57312914D01*
X82154285Y-57312914D02*
X82249523Y-57360533D01*
X101392857Y-128859580D02*
X101440476Y-128907200D01*
X101440476Y-128907200D02*
X101583333Y-128954819D01*
X101583333Y-128954819D02*
X101678571Y-128954819D01*
X101678571Y-128954819D02*
X101821428Y-128907200D01*
X101821428Y-128907200D02*
X101916666Y-128811961D01*
X101916666Y-128811961D02*
X101964285Y-128716723D01*
X101964285Y-128716723D02*
X102011904Y-128526247D01*
X102011904Y-128526247D02*
X102011904Y-128383390D01*
X102011904Y-128383390D02*
X101964285Y-128192914D01*
X101964285Y-128192914D02*
X101916666Y-128097676D01*
X101916666Y-128097676D02*
X101821428Y-128002438D01*
X101821428Y-128002438D02*
X101678571Y-127954819D01*
X101678571Y-127954819D02*
X101583333Y-127954819D01*
X101583333Y-127954819D02*
X101440476Y-128002438D01*
X101440476Y-128002438D02*
X101392857Y-128050057D01*
X100440476Y-128954819D02*
X101011904Y-128954819D01*
X100726190Y-128954819D02*
X100726190Y-127954819D01*
X100726190Y-127954819D02*
X100821428Y-128097676D01*
X100821428Y-128097676D02*
X100916666Y-128192914D01*
X100916666Y-128192914D02*
X101011904Y-128240533D01*
X99821428Y-127954819D02*
X99726190Y-127954819D01*
X99726190Y-127954819D02*
X99630952Y-128002438D01*
X99630952Y-128002438D02*
X99583333Y-128050057D01*
X99583333Y-128050057D02*
X99535714Y-128145295D01*
X99535714Y-128145295D02*
X99488095Y-128335771D01*
X99488095Y-128335771D02*
X99488095Y-128573866D01*
X99488095Y-128573866D02*
X99535714Y-128764342D01*
X99535714Y-128764342D02*
X99583333Y-128859580D01*
X99583333Y-128859580D02*
X99630952Y-128907200D01*
X99630952Y-128907200D02*
X99726190Y-128954819D01*
X99726190Y-128954819D02*
X99821428Y-128954819D01*
X99821428Y-128954819D02*
X99916666Y-128907200D01*
X99916666Y-128907200D02*
X99964285Y-128859580D01*
X99964285Y-128859580D02*
X100011904Y-128764342D01*
X100011904Y-128764342D02*
X100059523Y-128573866D01*
X100059523Y-128573866D02*
X100059523Y-128335771D01*
X100059523Y-128335771D02*
X100011904Y-128145295D01*
X100011904Y-128145295D02*
X99964285Y-128050057D01*
X99964285Y-128050057D02*
X99916666Y-128002438D01*
X99916666Y-128002438D02*
X99821428Y-127954819D01*
X140359580Y-101083333D02*
X140407200Y-101035714D01*
X140407200Y-101035714D02*
X140454819Y-100892857D01*
X140454819Y-100892857D02*
X140454819Y-100797619D01*
X140454819Y-100797619D02*
X140407200Y-100654762D01*
X140407200Y-100654762D02*
X140311961Y-100559524D01*
X140311961Y-100559524D02*
X140216723Y-100511905D01*
X140216723Y-100511905D02*
X140026247Y-100464286D01*
X140026247Y-100464286D02*
X139883390Y-100464286D01*
X139883390Y-100464286D02*
X139692914Y-100511905D01*
X139692914Y-100511905D02*
X139597676Y-100559524D01*
X139597676Y-100559524D02*
X139502438Y-100654762D01*
X139502438Y-100654762D02*
X139454819Y-100797619D01*
X139454819Y-100797619D02*
X139454819Y-100892857D01*
X139454819Y-100892857D02*
X139502438Y-101035714D01*
X139502438Y-101035714D02*
X139550057Y-101083333D01*
X139788152Y-101940476D02*
X140454819Y-101940476D01*
X139407200Y-101702381D02*
X140121485Y-101464286D01*
X140121485Y-101464286D02*
X140121485Y-102083333D01*
X93166666Y-52109580D02*
X93214285Y-52157200D01*
X93214285Y-52157200D02*
X93357142Y-52204819D01*
X93357142Y-52204819D02*
X93452380Y-52204819D01*
X93452380Y-52204819D02*
X93595237Y-52157200D01*
X93595237Y-52157200D02*
X93690475Y-52061961D01*
X93690475Y-52061961D02*
X93738094Y-51966723D01*
X93738094Y-51966723D02*
X93785713Y-51776247D01*
X93785713Y-51776247D02*
X93785713Y-51633390D01*
X93785713Y-51633390D02*
X93738094Y-51442914D01*
X93738094Y-51442914D02*
X93690475Y-51347676D01*
X93690475Y-51347676D02*
X93595237Y-51252438D01*
X93595237Y-51252438D02*
X93452380Y-51204819D01*
X93452380Y-51204819D02*
X93357142Y-51204819D01*
X93357142Y-51204819D02*
X93214285Y-51252438D01*
X93214285Y-51252438D02*
X93166666Y-51300057D01*
X92214285Y-52204819D02*
X92785713Y-52204819D01*
X92499999Y-52204819D02*
X92499999Y-51204819D01*
X92499999Y-51204819D02*
X92595237Y-51347676D01*
X92595237Y-51347676D02*
X92690475Y-51442914D01*
X92690475Y-51442914D02*
X92785713Y-51490533D01*
X115392857Y-70109580D02*
X115440476Y-70157200D01*
X115440476Y-70157200D02*
X115583333Y-70204819D01*
X115583333Y-70204819D02*
X115678571Y-70204819D01*
X115678571Y-70204819D02*
X115821428Y-70157200D01*
X115821428Y-70157200D02*
X115916666Y-70061961D01*
X115916666Y-70061961D02*
X115964285Y-69966723D01*
X115964285Y-69966723D02*
X116011904Y-69776247D01*
X116011904Y-69776247D02*
X116011904Y-69633390D01*
X116011904Y-69633390D02*
X115964285Y-69442914D01*
X115964285Y-69442914D02*
X115916666Y-69347676D01*
X115916666Y-69347676D02*
X115821428Y-69252438D01*
X115821428Y-69252438D02*
X115678571Y-69204819D01*
X115678571Y-69204819D02*
X115583333Y-69204819D01*
X115583333Y-69204819D02*
X115440476Y-69252438D01*
X115440476Y-69252438D02*
X115392857Y-69300057D01*
X114440476Y-70204819D02*
X115011904Y-70204819D01*
X114726190Y-70204819D02*
X114726190Y-69204819D01*
X114726190Y-69204819D02*
X114821428Y-69347676D01*
X114821428Y-69347676D02*
X114916666Y-69442914D01*
X114916666Y-69442914D02*
X115011904Y-69490533D01*
X113583333Y-69204819D02*
X113773809Y-69204819D01*
X113773809Y-69204819D02*
X113869047Y-69252438D01*
X113869047Y-69252438D02*
X113916666Y-69300057D01*
X113916666Y-69300057D02*
X114011904Y-69442914D01*
X114011904Y-69442914D02*
X114059523Y-69633390D01*
X114059523Y-69633390D02*
X114059523Y-70014342D01*
X114059523Y-70014342D02*
X114011904Y-70109580D01*
X114011904Y-70109580D02*
X113964285Y-70157200D01*
X113964285Y-70157200D02*
X113869047Y-70204819D01*
X113869047Y-70204819D02*
X113678571Y-70204819D01*
X113678571Y-70204819D02*
X113583333Y-70157200D01*
X113583333Y-70157200D02*
X113535714Y-70109580D01*
X113535714Y-70109580D02*
X113488095Y-70014342D01*
X113488095Y-70014342D02*
X113488095Y-69776247D01*
X113488095Y-69776247D02*
X113535714Y-69681009D01*
X113535714Y-69681009D02*
X113583333Y-69633390D01*
X113583333Y-69633390D02*
X113678571Y-69585771D01*
X113678571Y-69585771D02*
X113869047Y-69585771D01*
X113869047Y-69585771D02*
X113964285Y-69633390D01*
X113964285Y-69633390D02*
X114011904Y-69681009D01*
X114011904Y-69681009D02*
X114059523Y-69776247D01*
X110606666Y-128824819D02*
X110939999Y-128348628D01*
X111178094Y-128824819D02*
X111178094Y-127824819D01*
X111178094Y-127824819D02*
X110797142Y-127824819D01*
X110797142Y-127824819D02*
X110701904Y-127872438D01*
X110701904Y-127872438D02*
X110654285Y-127920057D01*
X110654285Y-127920057D02*
X110606666Y-128015295D01*
X110606666Y-128015295D02*
X110606666Y-128158152D01*
X110606666Y-128158152D02*
X110654285Y-128253390D01*
X110654285Y-128253390D02*
X110701904Y-128301009D01*
X110701904Y-128301009D02*
X110797142Y-128348628D01*
X110797142Y-128348628D02*
X111178094Y-128348628D01*
X109749523Y-127824819D02*
X109939999Y-127824819D01*
X109939999Y-127824819D02*
X110035237Y-127872438D01*
X110035237Y-127872438D02*
X110082856Y-127920057D01*
X110082856Y-127920057D02*
X110178094Y-128062914D01*
X110178094Y-128062914D02*
X110225713Y-128253390D01*
X110225713Y-128253390D02*
X110225713Y-128634342D01*
X110225713Y-128634342D02*
X110178094Y-128729580D01*
X110178094Y-128729580D02*
X110130475Y-128777200D01*
X110130475Y-128777200D02*
X110035237Y-128824819D01*
X110035237Y-128824819D02*
X109844761Y-128824819D01*
X109844761Y-128824819D02*
X109749523Y-128777200D01*
X109749523Y-128777200D02*
X109701904Y-128729580D01*
X109701904Y-128729580D02*
X109654285Y-128634342D01*
X109654285Y-128634342D02*
X109654285Y-128396247D01*
X109654285Y-128396247D02*
X109701904Y-128301009D01*
X109701904Y-128301009D02*
X109749523Y-128253390D01*
X109749523Y-128253390D02*
X109844761Y-128205771D01*
X109844761Y-128205771D02*
X110035237Y-128205771D01*
X110035237Y-128205771D02*
X110130475Y-128253390D01*
X110130475Y-128253390D02*
X110178094Y-128301009D01*
X110178094Y-128301009D02*
X110225713Y-128396247D01*
X117584819Y-116583333D02*
X117108628Y-116250000D01*
X117584819Y-116011905D02*
X116584819Y-116011905D01*
X116584819Y-116011905D02*
X116584819Y-116392857D01*
X116584819Y-116392857D02*
X116632438Y-116488095D01*
X116632438Y-116488095D02*
X116680057Y-116535714D01*
X116680057Y-116535714D02*
X116775295Y-116583333D01*
X116775295Y-116583333D02*
X116918152Y-116583333D01*
X116918152Y-116583333D02*
X117013390Y-116535714D01*
X117013390Y-116535714D02*
X117061009Y-116488095D01*
X117061009Y-116488095D02*
X117108628Y-116392857D01*
X117108628Y-116392857D02*
X117108628Y-116011905D01*
X116584819Y-116916667D02*
X116584819Y-117583333D01*
X116584819Y-117583333D02*
X117584819Y-117154762D01*
X63356666Y-129324819D02*
X63689999Y-128848628D01*
X63928094Y-129324819D02*
X63928094Y-128324819D01*
X63928094Y-128324819D02*
X63547142Y-128324819D01*
X63547142Y-128324819D02*
X63451904Y-128372438D01*
X63451904Y-128372438D02*
X63404285Y-128420057D01*
X63404285Y-128420057D02*
X63356666Y-128515295D01*
X63356666Y-128515295D02*
X63356666Y-128658152D01*
X63356666Y-128658152D02*
X63404285Y-128753390D01*
X63404285Y-128753390D02*
X63451904Y-128801009D01*
X63451904Y-128801009D02*
X63547142Y-128848628D01*
X63547142Y-128848628D02*
X63928094Y-128848628D01*
X62499523Y-128658152D02*
X62499523Y-129324819D01*
X62737618Y-128277200D02*
X62975713Y-128991485D01*
X62975713Y-128991485D02*
X62356666Y-128991485D01*
X114642857Y-70574819D02*
X114976190Y-70098628D01*
X115214285Y-70574819D02*
X115214285Y-69574819D01*
X115214285Y-69574819D02*
X114833333Y-69574819D01*
X114833333Y-69574819D02*
X114738095Y-69622438D01*
X114738095Y-69622438D02*
X114690476Y-69670057D01*
X114690476Y-69670057D02*
X114642857Y-69765295D01*
X114642857Y-69765295D02*
X114642857Y-69908152D01*
X114642857Y-69908152D02*
X114690476Y-70003390D01*
X114690476Y-70003390D02*
X114738095Y-70051009D01*
X114738095Y-70051009D02*
X114833333Y-70098628D01*
X114833333Y-70098628D02*
X115214285Y-70098628D01*
X113690476Y-70574819D02*
X114261904Y-70574819D01*
X113976190Y-70574819D02*
X113976190Y-69574819D01*
X113976190Y-69574819D02*
X114071428Y-69717676D01*
X114071428Y-69717676D02*
X114166666Y-69812914D01*
X114166666Y-69812914D02*
X114261904Y-69860533D01*
X113357142Y-69574819D02*
X112738095Y-69574819D01*
X112738095Y-69574819D02*
X113071428Y-69955771D01*
X113071428Y-69955771D02*
X112928571Y-69955771D01*
X112928571Y-69955771D02*
X112833333Y-70003390D01*
X112833333Y-70003390D02*
X112785714Y-70051009D01*
X112785714Y-70051009D02*
X112738095Y-70146247D01*
X112738095Y-70146247D02*
X112738095Y-70384342D01*
X112738095Y-70384342D02*
X112785714Y-70479580D01*
X112785714Y-70479580D02*
X112833333Y-70527200D01*
X112833333Y-70527200D02*
X112928571Y-70574819D01*
X112928571Y-70574819D02*
X113214285Y-70574819D01*
X113214285Y-70574819D02*
X113309523Y-70527200D01*
X113309523Y-70527200D02*
X113357142Y-70479580D01*
X110609580Y-61357142D02*
X110657200Y-61309523D01*
X110657200Y-61309523D02*
X110704819Y-61166666D01*
X110704819Y-61166666D02*
X110704819Y-61071428D01*
X110704819Y-61071428D02*
X110657200Y-60928571D01*
X110657200Y-60928571D02*
X110561961Y-60833333D01*
X110561961Y-60833333D02*
X110466723Y-60785714D01*
X110466723Y-60785714D02*
X110276247Y-60738095D01*
X110276247Y-60738095D02*
X110133390Y-60738095D01*
X110133390Y-60738095D02*
X109942914Y-60785714D01*
X109942914Y-60785714D02*
X109847676Y-60833333D01*
X109847676Y-60833333D02*
X109752438Y-60928571D01*
X109752438Y-60928571D02*
X109704819Y-61071428D01*
X109704819Y-61071428D02*
X109704819Y-61166666D01*
X109704819Y-61166666D02*
X109752438Y-61309523D01*
X109752438Y-61309523D02*
X109800057Y-61357142D01*
X110704819Y-62309523D02*
X110704819Y-61738095D01*
X110704819Y-62023809D02*
X109704819Y-62023809D01*
X109704819Y-62023809D02*
X109847676Y-61928571D01*
X109847676Y-61928571D02*
X109942914Y-61833333D01*
X109942914Y-61833333D02*
X109990533Y-61738095D01*
X109704819Y-63214285D02*
X109704819Y-62738095D01*
X109704819Y-62738095D02*
X110181009Y-62690476D01*
X110181009Y-62690476D02*
X110133390Y-62738095D01*
X110133390Y-62738095D02*
X110085771Y-62833333D01*
X110085771Y-62833333D02*
X110085771Y-63071428D01*
X110085771Y-63071428D02*
X110133390Y-63166666D01*
X110133390Y-63166666D02*
X110181009Y-63214285D01*
X110181009Y-63214285D02*
X110276247Y-63261904D01*
X110276247Y-63261904D02*
X110514342Y-63261904D01*
X110514342Y-63261904D02*
X110609580Y-63214285D01*
X110609580Y-63214285D02*
X110657200Y-63166666D01*
X110657200Y-63166666D02*
X110704819Y-63071428D01*
X110704819Y-63071428D02*
X110704819Y-62833333D01*
X110704819Y-62833333D02*
X110657200Y-62738095D01*
X110657200Y-62738095D02*
X110609580Y-62690476D01*
X92666666Y-56609580D02*
X92714285Y-56657200D01*
X92714285Y-56657200D02*
X92857142Y-56704819D01*
X92857142Y-56704819D02*
X92952380Y-56704819D01*
X92952380Y-56704819D02*
X93095237Y-56657200D01*
X93095237Y-56657200D02*
X93190475Y-56561961D01*
X93190475Y-56561961D02*
X93238094Y-56466723D01*
X93238094Y-56466723D02*
X93285713Y-56276247D01*
X93285713Y-56276247D02*
X93285713Y-56133390D01*
X93285713Y-56133390D02*
X93238094Y-55942914D01*
X93238094Y-55942914D02*
X93190475Y-55847676D01*
X93190475Y-55847676D02*
X93095237Y-55752438D01*
X93095237Y-55752438D02*
X92952380Y-55704819D01*
X92952380Y-55704819D02*
X92857142Y-55704819D01*
X92857142Y-55704819D02*
X92714285Y-55752438D01*
X92714285Y-55752438D02*
X92666666Y-55800057D01*
X91761904Y-55704819D02*
X92238094Y-55704819D01*
X92238094Y-55704819D02*
X92285713Y-56181009D01*
X92285713Y-56181009D02*
X92238094Y-56133390D01*
X92238094Y-56133390D02*
X92142856Y-56085771D01*
X92142856Y-56085771D02*
X91904761Y-56085771D01*
X91904761Y-56085771D02*
X91809523Y-56133390D01*
X91809523Y-56133390D02*
X91761904Y-56181009D01*
X91761904Y-56181009D02*
X91714285Y-56276247D01*
X91714285Y-56276247D02*
X91714285Y-56514342D01*
X91714285Y-56514342D02*
X91761904Y-56609580D01*
X91761904Y-56609580D02*
X91809523Y-56657200D01*
X91809523Y-56657200D02*
X91904761Y-56704819D01*
X91904761Y-56704819D02*
X92142856Y-56704819D01*
X92142856Y-56704819D02*
X92238094Y-56657200D01*
X92238094Y-56657200D02*
X92285713Y-56609580D01*
X139859580Y-55107142D02*
X139907200Y-55059523D01*
X139907200Y-55059523D02*
X139954819Y-54916666D01*
X139954819Y-54916666D02*
X139954819Y-54821428D01*
X139954819Y-54821428D02*
X139907200Y-54678571D01*
X139907200Y-54678571D02*
X139811961Y-54583333D01*
X139811961Y-54583333D02*
X139716723Y-54535714D01*
X139716723Y-54535714D02*
X139526247Y-54488095D01*
X139526247Y-54488095D02*
X139383390Y-54488095D01*
X139383390Y-54488095D02*
X139192914Y-54535714D01*
X139192914Y-54535714D02*
X139097676Y-54583333D01*
X139097676Y-54583333D02*
X139002438Y-54678571D01*
X139002438Y-54678571D02*
X138954819Y-54821428D01*
X138954819Y-54821428D02*
X138954819Y-54916666D01*
X138954819Y-54916666D02*
X139002438Y-55059523D01*
X139002438Y-55059523D02*
X139050057Y-55107142D01*
X139954819Y-56059523D02*
X139954819Y-55488095D01*
X139954819Y-55773809D02*
X138954819Y-55773809D01*
X138954819Y-55773809D02*
X139097676Y-55678571D01*
X139097676Y-55678571D02*
X139192914Y-55583333D01*
X139192914Y-55583333D02*
X139240533Y-55488095D01*
X139383390Y-56630952D02*
X139335771Y-56535714D01*
X139335771Y-56535714D02*
X139288152Y-56488095D01*
X139288152Y-56488095D02*
X139192914Y-56440476D01*
X139192914Y-56440476D02*
X139145295Y-56440476D01*
X139145295Y-56440476D02*
X139050057Y-56488095D01*
X139050057Y-56488095D02*
X139002438Y-56535714D01*
X139002438Y-56535714D02*
X138954819Y-56630952D01*
X138954819Y-56630952D02*
X138954819Y-56821428D01*
X138954819Y-56821428D02*
X139002438Y-56916666D01*
X139002438Y-56916666D02*
X139050057Y-56964285D01*
X139050057Y-56964285D02*
X139145295Y-57011904D01*
X139145295Y-57011904D02*
X139192914Y-57011904D01*
X139192914Y-57011904D02*
X139288152Y-56964285D01*
X139288152Y-56964285D02*
X139335771Y-56916666D01*
X139335771Y-56916666D02*
X139383390Y-56821428D01*
X139383390Y-56821428D02*
X139383390Y-56630952D01*
X139383390Y-56630952D02*
X139431009Y-56535714D01*
X139431009Y-56535714D02*
X139478628Y-56488095D01*
X139478628Y-56488095D02*
X139573866Y-56440476D01*
X139573866Y-56440476D02*
X139764342Y-56440476D01*
X139764342Y-56440476D02*
X139859580Y-56488095D01*
X139859580Y-56488095D02*
X139907200Y-56535714D01*
X139907200Y-56535714D02*
X139954819Y-56630952D01*
X139954819Y-56630952D02*
X139954819Y-56821428D01*
X139954819Y-56821428D02*
X139907200Y-56916666D01*
X139907200Y-56916666D02*
X139859580Y-56964285D01*
X139859580Y-56964285D02*
X139764342Y-57011904D01*
X139764342Y-57011904D02*
X139573866Y-57011904D01*
X139573866Y-57011904D02*
X139478628Y-56964285D01*
X139478628Y-56964285D02*
X139431009Y-56916666D01*
X139431009Y-56916666D02*
X139383390Y-56821428D01*
X64834819Y-51333333D02*
X64358628Y-51000000D01*
X64834819Y-50761905D02*
X63834819Y-50761905D01*
X63834819Y-50761905D02*
X63834819Y-51142857D01*
X63834819Y-51142857D02*
X63882438Y-51238095D01*
X63882438Y-51238095D02*
X63930057Y-51285714D01*
X63930057Y-51285714D02*
X64025295Y-51333333D01*
X64025295Y-51333333D02*
X64168152Y-51333333D01*
X64168152Y-51333333D02*
X64263390Y-51285714D01*
X64263390Y-51285714D02*
X64311009Y-51238095D01*
X64311009Y-51238095D02*
X64358628Y-51142857D01*
X64358628Y-51142857D02*
X64358628Y-50761905D01*
X63930057Y-51714286D02*
X63882438Y-51761905D01*
X63882438Y-51761905D02*
X63834819Y-51857143D01*
X63834819Y-51857143D02*
X63834819Y-52095238D01*
X63834819Y-52095238D02*
X63882438Y-52190476D01*
X63882438Y-52190476D02*
X63930057Y-52238095D01*
X63930057Y-52238095D02*
X64025295Y-52285714D01*
X64025295Y-52285714D02*
X64120533Y-52285714D01*
X64120533Y-52285714D02*
X64263390Y-52238095D01*
X64263390Y-52238095D02*
X64834819Y-51666667D01*
X64834819Y-51666667D02*
X64834819Y-52285714D01*
X86666666Y-129324819D02*
X86999999Y-128848628D01*
X87238094Y-129324819D02*
X87238094Y-128324819D01*
X87238094Y-128324819D02*
X86857142Y-128324819D01*
X86857142Y-128324819D02*
X86761904Y-128372438D01*
X86761904Y-128372438D02*
X86714285Y-128420057D01*
X86714285Y-128420057D02*
X86666666Y-128515295D01*
X86666666Y-128515295D02*
X86666666Y-128658152D01*
X86666666Y-128658152D02*
X86714285Y-128753390D01*
X86714285Y-128753390D02*
X86761904Y-128801009D01*
X86761904Y-128801009D02*
X86857142Y-128848628D01*
X86857142Y-128848628D02*
X87238094Y-128848628D01*
X85761904Y-128324819D02*
X86238094Y-128324819D01*
X86238094Y-128324819D02*
X86285713Y-128801009D01*
X86285713Y-128801009D02*
X86238094Y-128753390D01*
X86238094Y-128753390D02*
X86142856Y-128705771D01*
X86142856Y-128705771D02*
X85904761Y-128705771D01*
X85904761Y-128705771D02*
X85809523Y-128753390D01*
X85809523Y-128753390D02*
X85761904Y-128801009D01*
X85761904Y-128801009D02*
X85714285Y-128896247D01*
X85714285Y-128896247D02*
X85714285Y-129134342D01*
X85714285Y-129134342D02*
X85761904Y-129229580D01*
X85761904Y-129229580D02*
X85809523Y-129277200D01*
X85809523Y-129277200D02*
X85904761Y-129324819D01*
X85904761Y-129324819D02*
X86142856Y-129324819D01*
X86142856Y-129324819D02*
X86238094Y-129277200D01*
X86238094Y-129277200D02*
X86285713Y-129229580D01*
X130334819Y-51667142D02*
X129858628Y-51333809D01*
X130334819Y-51095714D02*
X129334819Y-51095714D01*
X129334819Y-51095714D02*
X129334819Y-51476666D01*
X129334819Y-51476666D02*
X129382438Y-51571904D01*
X129382438Y-51571904D02*
X129430057Y-51619523D01*
X129430057Y-51619523D02*
X129525295Y-51667142D01*
X129525295Y-51667142D02*
X129668152Y-51667142D01*
X129668152Y-51667142D02*
X129763390Y-51619523D01*
X129763390Y-51619523D02*
X129811009Y-51571904D01*
X129811009Y-51571904D02*
X129858628Y-51476666D01*
X129858628Y-51476666D02*
X129858628Y-51095714D01*
X130334819Y-52619523D02*
X130334819Y-52048095D01*
X130334819Y-52333809D02*
X129334819Y-52333809D01*
X129334819Y-52333809D02*
X129477676Y-52238571D01*
X129477676Y-52238571D02*
X129572914Y-52143333D01*
X129572914Y-52143333D02*
X129620533Y-52048095D01*
X129668152Y-53476666D02*
X130334819Y-53476666D01*
X129287200Y-53238571D02*
X130001485Y-53000476D01*
X130001485Y-53000476D02*
X130001485Y-53619523D01*
X45916666Y-82859580D02*
X45964285Y-82907200D01*
X45964285Y-82907200D02*
X46107142Y-82954819D01*
X46107142Y-82954819D02*
X46202380Y-82954819D01*
X46202380Y-82954819D02*
X46345237Y-82907200D01*
X46345237Y-82907200D02*
X46440475Y-82811961D01*
X46440475Y-82811961D02*
X46488094Y-82716723D01*
X46488094Y-82716723D02*
X46535713Y-82526247D01*
X46535713Y-82526247D02*
X46535713Y-82383390D01*
X46535713Y-82383390D02*
X46488094Y-82192914D01*
X46488094Y-82192914D02*
X46440475Y-82097676D01*
X46440475Y-82097676D02*
X46345237Y-82002438D01*
X46345237Y-82002438D02*
X46202380Y-81954819D01*
X46202380Y-81954819D02*
X46107142Y-81954819D01*
X46107142Y-81954819D02*
X45964285Y-82002438D01*
X45964285Y-82002438D02*
X45916666Y-82050057D01*
X45345237Y-82383390D02*
X45440475Y-82335771D01*
X45440475Y-82335771D02*
X45488094Y-82288152D01*
X45488094Y-82288152D02*
X45535713Y-82192914D01*
X45535713Y-82192914D02*
X45535713Y-82145295D01*
X45535713Y-82145295D02*
X45488094Y-82050057D01*
X45488094Y-82050057D02*
X45440475Y-82002438D01*
X45440475Y-82002438D02*
X45345237Y-81954819D01*
X45345237Y-81954819D02*
X45154761Y-81954819D01*
X45154761Y-81954819D02*
X45059523Y-82002438D01*
X45059523Y-82002438D02*
X45011904Y-82050057D01*
X45011904Y-82050057D02*
X44964285Y-82145295D01*
X44964285Y-82145295D02*
X44964285Y-82192914D01*
X44964285Y-82192914D02*
X45011904Y-82288152D01*
X45011904Y-82288152D02*
X45059523Y-82335771D01*
X45059523Y-82335771D02*
X45154761Y-82383390D01*
X45154761Y-82383390D02*
X45345237Y-82383390D01*
X45345237Y-82383390D02*
X45440475Y-82431009D01*
X45440475Y-82431009D02*
X45488094Y-82478628D01*
X45488094Y-82478628D02*
X45535713Y-82573866D01*
X45535713Y-82573866D02*
X45535713Y-82764342D01*
X45535713Y-82764342D02*
X45488094Y-82859580D01*
X45488094Y-82859580D02*
X45440475Y-82907200D01*
X45440475Y-82907200D02*
X45345237Y-82954819D01*
X45345237Y-82954819D02*
X45154761Y-82954819D01*
X45154761Y-82954819D02*
X45059523Y-82907200D01*
X45059523Y-82907200D02*
X45011904Y-82859580D01*
X45011904Y-82859580D02*
X44964285Y-82764342D01*
X44964285Y-82764342D02*
X44964285Y-82573866D01*
X44964285Y-82573866D02*
X45011904Y-82478628D01*
X45011904Y-82478628D02*
X45059523Y-82431009D01*
X45059523Y-82431009D02*
X45154761Y-82383390D01*
X26642857Y-129359580D02*
X26690476Y-129407200D01*
X26690476Y-129407200D02*
X26833333Y-129454819D01*
X26833333Y-129454819D02*
X26928571Y-129454819D01*
X26928571Y-129454819D02*
X27071428Y-129407200D01*
X27071428Y-129407200D02*
X27166666Y-129311961D01*
X27166666Y-129311961D02*
X27214285Y-129216723D01*
X27214285Y-129216723D02*
X27261904Y-129026247D01*
X27261904Y-129026247D02*
X27261904Y-128883390D01*
X27261904Y-128883390D02*
X27214285Y-128692914D01*
X27214285Y-128692914D02*
X27166666Y-128597676D01*
X27166666Y-128597676D02*
X27071428Y-128502438D01*
X27071428Y-128502438D02*
X26928571Y-128454819D01*
X26928571Y-128454819D02*
X26833333Y-128454819D01*
X26833333Y-128454819D02*
X26690476Y-128502438D01*
X26690476Y-128502438D02*
X26642857Y-128550057D01*
X25690476Y-129454819D02*
X26261904Y-129454819D01*
X25976190Y-129454819D02*
X25976190Y-128454819D01*
X25976190Y-128454819D02*
X26071428Y-128597676D01*
X26071428Y-128597676D02*
X26166666Y-128692914D01*
X26166666Y-128692914D02*
X26261904Y-128740533D01*
X24738095Y-129454819D02*
X25309523Y-129454819D01*
X25023809Y-129454819D02*
X25023809Y-128454819D01*
X25023809Y-128454819D02*
X25119047Y-128597676D01*
X25119047Y-128597676D02*
X25214285Y-128692914D01*
X25214285Y-128692914D02*
X25309523Y-128740533D01*
X106536905Y-122395180D02*
X106536905Y-123395180D01*
X106536905Y-123395180D02*
X106775000Y-123395180D01*
X106775000Y-123395180D02*
X106917857Y-123347561D01*
X106917857Y-123347561D02*
X107013095Y-123252323D01*
X107013095Y-123252323D02*
X107060714Y-123157085D01*
X107060714Y-123157085D02*
X107108333Y-122966609D01*
X107108333Y-122966609D02*
X107108333Y-122823752D01*
X107108333Y-122823752D02*
X107060714Y-122633276D01*
X107060714Y-122633276D02*
X107013095Y-122538038D01*
X107013095Y-122538038D02*
X106917857Y-122442800D01*
X106917857Y-122442800D02*
X106775000Y-122395180D01*
X106775000Y-122395180D02*
X106536905Y-122395180D01*
X107965476Y-123061847D02*
X107965476Y-122395180D01*
X107727381Y-123442800D02*
X107489286Y-122728514D01*
X107489286Y-122728514D02*
X108108333Y-122728514D01*
X75416666Y-129359580D02*
X75464285Y-129407200D01*
X75464285Y-129407200D02*
X75607142Y-129454819D01*
X75607142Y-129454819D02*
X75702380Y-129454819D01*
X75702380Y-129454819D02*
X75845237Y-129407200D01*
X75845237Y-129407200D02*
X75940475Y-129311961D01*
X75940475Y-129311961D02*
X75988094Y-129216723D01*
X75988094Y-129216723D02*
X76035713Y-129026247D01*
X76035713Y-129026247D02*
X76035713Y-128883390D01*
X76035713Y-128883390D02*
X75988094Y-128692914D01*
X75988094Y-128692914D02*
X75940475Y-128597676D01*
X75940475Y-128597676D02*
X75845237Y-128502438D01*
X75845237Y-128502438D02*
X75702380Y-128454819D01*
X75702380Y-128454819D02*
X75607142Y-128454819D01*
X75607142Y-128454819D02*
X75464285Y-128502438D01*
X75464285Y-128502438D02*
X75416666Y-128550057D01*
X74940475Y-129454819D02*
X74749999Y-129454819D01*
X74749999Y-129454819D02*
X74654761Y-129407200D01*
X74654761Y-129407200D02*
X74607142Y-129359580D01*
X74607142Y-129359580D02*
X74511904Y-129216723D01*
X74511904Y-129216723D02*
X74464285Y-129026247D01*
X74464285Y-129026247D02*
X74464285Y-128645295D01*
X74464285Y-128645295D02*
X74511904Y-128550057D01*
X74511904Y-128550057D02*
X74559523Y-128502438D01*
X74559523Y-128502438D02*
X74654761Y-128454819D01*
X74654761Y-128454819D02*
X74845237Y-128454819D01*
X74845237Y-128454819D02*
X74940475Y-128502438D01*
X74940475Y-128502438D02*
X74988094Y-128550057D01*
X74988094Y-128550057D02*
X75035713Y-128645295D01*
X75035713Y-128645295D02*
X75035713Y-128883390D01*
X75035713Y-128883390D02*
X74988094Y-128978628D01*
X74988094Y-128978628D02*
X74940475Y-129026247D01*
X74940475Y-129026247D02*
X74845237Y-129073866D01*
X74845237Y-129073866D02*
X74654761Y-129073866D01*
X74654761Y-129073866D02*
X74559523Y-129026247D01*
X74559523Y-129026247D02*
X74511904Y-128978628D01*
X74511904Y-128978628D02*
X74464285Y-128883390D01*
X83892857Y-58109580D02*
X83940476Y-58157200D01*
X83940476Y-58157200D02*
X84083333Y-58204819D01*
X84083333Y-58204819D02*
X84178571Y-58204819D01*
X84178571Y-58204819D02*
X84321428Y-58157200D01*
X84321428Y-58157200D02*
X84416666Y-58061961D01*
X84416666Y-58061961D02*
X84464285Y-57966723D01*
X84464285Y-57966723D02*
X84511904Y-57776247D01*
X84511904Y-57776247D02*
X84511904Y-57633390D01*
X84511904Y-57633390D02*
X84464285Y-57442914D01*
X84464285Y-57442914D02*
X84416666Y-57347676D01*
X84416666Y-57347676D02*
X84321428Y-57252438D01*
X84321428Y-57252438D02*
X84178571Y-57204819D01*
X84178571Y-57204819D02*
X84083333Y-57204819D01*
X84083333Y-57204819D02*
X83940476Y-57252438D01*
X83940476Y-57252438D02*
X83892857Y-57300057D01*
X82940476Y-58204819D02*
X83511904Y-58204819D01*
X83226190Y-58204819D02*
X83226190Y-57204819D01*
X83226190Y-57204819D02*
X83321428Y-57347676D01*
X83321428Y-57347676D02*
X83416666Y-57442914D01*
X83416666Y-57442914D02*
X83511904Y-57490533D01*
X82083333Y-57538152D02*
X82083333Y-58204819D01*
X82321428Y-57157200D02*
X82559523Y-57871485D01*
X82559523Y-57871485D02*
X81940476Y-57871485D01*
X27711554Y-59609580D02*
X27759173Y-59657200D01*
X27759173Y-59657200D02*
X27902030Y-59704819D01*
X27902030Y-59704819D02*
X27997268Y-59704819D01*
X27997268Y-59704819D02*
X28140125Y-59657200D01*
X28140125Y-59657200D02*
X28235363Y-59561961D01*
X28235363Y-59561961D02*
X28282982Y-59466723D01*
X28282982Y-59466723D02*
X28330601Y-59276247D01*
X28330601Y-59276247D02*
X28330601Y-59133390D01*
X28330601Y-59133390D02*
X28282982Y-58942914D01*
X28282982Y-58942914D02*
X28235363Y-58847676D01*
X28235363Y-58847676D02*
X28140125Y-58752438D01*
X28140125Y-58752438D02*
X27997268Y-58704819D01*
X27997268Y-58704819D02*
X27902030Y-58704819D01*
X27902030Y-58704819D02*
X27759173Y-58752438D01*
X27759173Y-58752438D02*
X27711554Y-58800057D01*
X27378220Y-58704819D02*
X26759173Y-58704819D01*
X26759173Y-58704819D02*
X27092506Y-59085771D01*
X27092506Y-59085771D02*
X26949649Y-59085771D01*
X26949649Y-59085771D02*
X26854411Y-59133390D01*
X26854411Y-59133390D02*
X26806792Y-59181009D01*
X26806792Y-59181009D02*
X26759173Y-59276247D01*
X26759173Y-59276247D02*
X26759173Y-59514342D01*
X26759173Y-59514342D02*
X26806792Y-59609580D01*
X26806792Y-59609580D02*
X26854411Y-59657200D01*
X26854411Y-59657200D02*
X26949649Y-59704819D01*
X26949649Y-59704819D02*
X27235363Y-59704819D01*
X27235363Y-59704819D02*
X27330601Y-59657200D01*
X27330601Y-59657200D02*
X27378220Y-59609580D01*
X53416666Y-129359580D02*
X53464285Y-129407200D01*
X53464285Y-129407200D02*
X53607142Y-129454819D01*
X53607142Y-129454819D02*
X53702380Y-129454819D01*
X53702380Y-129454819D02*
X53845237Y-129407200D01*
X53845237Y-129407200D02*
X53940475Y-129311961D01*
X53940475Y-129311961D02*
X53988094Y-129216723D01*
X53988094Y-129216723D02*
X54035713Y-129026247D01*
X54035713Y-129026247D02*
X54035713Y-128883390D01*
X54035713Y-128883390D02*
X53988094Y-128692914D01*
X53988094Y-128692914D02*
X53940475Y-128597676D01*
X53940475Y-128597676D02*
X53845237Y-128502438D01*
X53845237Y-128502438D02*
X53702380Y-128454819D01*
X53702380Y-128454819D02*
X53607142Y-128454819D01*
X53607142Y-128454819D02*
X53464285Y-128502438D01*
X53464285Y-128502438D02*
X53416666Y-128550057D01*
X53035713Y-128550057D02*
X52988094Y-128502438D01*
X52988094Y-128502438D02*
X52892856Y-128454819D01*
X52892856Y-128454819D02*
X52654761Y-128454819D01*
X52654761Y-128454819D02*
X52559523Y-128502438D01*
X52559523Y-128502438D02*
X52511904Y-128550057D01*
X52511904Y-128550057D02*
X52464285Y-128645295D01*
X52464285Y-128645295D02*
X52464285Y-128740533D01*
X52464285Y-128740533D02*
X52511904Y-128883390D01*
X52511904Y-128883390D02*
X53083332Y-129454819D01*
X53083332Y-129454819D02*
X52464285Y-129454819D01*
%TO.C,U1*%
D11*
X129675000Y-79050000D02*
G75*
G02*
X129125000Y-79050000I-275000J0D01*
G01*
X129125000Y-79050000D02*
G75*
G02*
X129675000Y-79050000I275000J0D01*
G01*
D10*
X134120000Y-80750000D02*
X134120000Y-102150000D01*
X76420000Y-80750000D02*
X76420000Y-102150000D01*
D12*
%TO.C,D5*%
X53475000Y-75450000D02*
X53325000Y-75650000D01*
X53625000Y-75650000D01*
X53475000Y-75450000D01*
G36*
X53625000Y-75650000D02*
G01*
X53325000Y-75650000D01*
X53475000Y-75450000D01*
X53625000Y-75650000D01*
G37*
X47100000Y-75875000D02*
X53675000Y-75875000D01*
X47100000Y-72125000D02*
X47100000Y-75875000D01*
X54400000Y-75150000D02*
X53675000Y-75875000D01*
X54400000Y-75150000D02*
X54400000Y-72125000D01*
X54400000Y-72125000D02*
X47100000Y-72125000D01*
%TO.C,D1*%
X29775000Y-119050000D02*
X29925000Y-118850000D01*
X29625000Y-118850000D01*
X29775000Y-119050000D01*
G36*
X29775000Y-119050000D02*
G01*
X29625000Y-118850000D01*
X29925000Y-118850000D01*
X29775000Y-119050000D01*
G37*
X28850000Y-119350000D02*
X28850000Y-122375000D01*
X28850000Y-119350000D02*
X29575000Y-118625000D01*
X28850000Y-122375000D02*
X36150000Y-122375000D01*
X36150000Y-118625000D02*
X29575000Y-118625000D01*
X36150000Y-122375000D02*
X36150000Y-118625000D01*
%TO.C,D2*%
X54275000Y-118950000D02*
X54425000Y-118750000D01*
X54125000Y-118750000D01*
X54275000Y-118950000D01*
G36*
X54275000Y-118950000D02*
G01*
X54125000Y-118750000D01*
X54425000Y-118750000D01*
X54275000Y-118950000D01*
G37*
X53350000Y-119250000D02*
X53350000Y-122275000D01*
X53350000Y-119250000D02*
X54075000Y-118525000D01*
X53350000Y-122275000D02*
X60650000Y-122275000D01*
X60650000Y-118525000D02*
X54075000Y-118525000D01*
X60650000Y-122275000D02*
X60650000Y-118525000D01*
%TO.C,R15*%
X55020000Y-96630000D02*
X55020000Y-96960000D01*
X55020000Y-99370000D02*
X55020000Y-99040000D01*
X48480000Y-96630000D02*
X55020000Y-96630000D01*
X48480000Y-96960000D02*
X48480000Y-96630000D01*
X48480000Y-99040000D02*
X48480000Y-99370000D01*
X48480000Y-99370000D02*
X55020000Y-99370000D01*
%TO.C,R16*%
X41020000Y-96880000D02*
X34480000Y-96880000D01*
X41020000Y-97210000D02*
X41020000Y-96880000D01*
X41020000Y-99290000D02*
X41020000Y-99620000D01*
X41020000Y-99620000D02*
X34480000Y-99620000D01*
X34480000Y-96880000D02*
X34480000Y-97210000D01*
X34480000Y-99620000D02*
X34480000Y-99290000D01*
%TO.C,C6*%
X78999759Y-37839000D02*
X79629759Y-37839000D01*
X79314759Y-38154000D02*
X79314759Y-37524000D01*
X82500000Y-39230000D02*
X82500000Y-32770000D01*
X82540000Y-39230000D02*
X82540000Y-32770000D01*
X82580000Y-39229000D02*
X82580000Y-32771000D01*
X82620000Y-39228000D02*
X82620000Y-32772000D01*
X82660000Y-39226000D02*
X82660000Y-32774000D01*
X82700000Y-39224000D02*
X82700000Y-32776000D01*
X82740000Y-39221000D02*
X82740000Y-37040000D01*
X82740000Y-34960000D02*
X82740000Y-32779000D01*
X82780000Y-39218000D02*
X82780000Y-37040000D01*
X82780000Y-34960000D02*
X82780000Y-32782000D01*
X82820000Y-39214000D02*
X82820000Y-37040000D01*
X82820000Y-34960000D02*
X82820000Y-32786000D01*
X82860000Y-39210000D02*
X82860000Y-37040000D01*
X82860000Y-34960000D02*
X82860000Y-32790000D01*
X82900000Y-39205000D02*
X82900000Y-37040000D01*
X82900000Y-34960000D02*
X82900000Y-32795000D01*
X82940000Y-39200000D02*
X82940000Y-37040000D01*
X82940000Y-34960000D02*
X82940000Y-32800000D01*
X82980000Y-39195000D02*
X82980000Y-37040000D01*
X82980000Y-34960000D02*
X82980000Y-32805000D01*
X83020000Y-39188000D02*
X83020000Y-37040000D01*
X83020000Y-34960000D02*
X83020000Y-32812000D01*
X83060000Y-39182000D02*
X83060000Y-37040000D01*
X83060000Y-34960000D02*
X83060000Y-32818000D01*
X83100000Y-39174000D02*
X83100000Y-37040000D01*
X83100000Y-34960000D02*
X83100000Y-32826000D01*
X83140000Y-39167000D02*
X83140000Y-37040000D01*
X83140000Y-34960000D02*
X83140000Y-32833000D01*
X83180000Y-39159000D02*
X83180000Y-37040000D01*
X83180000Y-34960000D02*
X83180000Y-32841000D01*
X83220000Y-39150000D02*
X83220000Y-37040000D01*
X83220000Y-34960000D02*
X83220000Y-32850000D01*
X83260000Y-39140000D02*
X83260000Y-37040000D01*
X83260000Y-34960000D02*
X83260000Y-32860000D01*
X83300000Y-39131000D02*
X83300000Y-37040000D01*
X83300000Y-34960000D02*
X83300000Y-32869000D01*
X83340000Y-39120000D02*
X83340000Y-37040000D01*
X83340000Y-34960000D02*
X83340000Y-32880000D01*
X83380000Y-39109000D02*
X83380000Y-37040000D01*
X83380000Y-34960000D02*
X83380000Y-32891000D01*
X83420000Y-39098000D02*
X83420000Y-37040000D01*
X83420000Y-34960000D02*
X83420000Y-32902000D01*
X83460000Y-39086000D02*
X83460000Y-37040000D01*
X83460000Y-34960000D02*
X83460000Y-32914000D01*
X83500000Y-39073000D02*
X83500000Y-37040000D01*
X83500000Y-34960000D02*
X83500000Y-32927000D01*
X83540000Y-39060000D02*
X83540000Y-37040000D01*
X83540000Y-34960000D02*
X83540000Y-32940000D01*
X83580000Y-39047000D02*
X83580000Y-37040000D01*
X83580000Y-34960000D02*
X83580000Y-32953000D01*
X83620000Y-39032000D02*
X83620000Y-37040000D01*
X83620000Y-34960000D02*
X83620000Y-32968000D01*
X83660000Y-39017000D02*
X83660000Y-37040000D01*
X83660000Y-34960000D02*
X83660000Y-32983000D01*
X83700000Y-39002000D02*
X83700000Y-37040000D01*
X83700000Y-34960000D02*
X83700000Y-32998000D01*
X83740000Y-38986000D02*
X83740000Y-37040000D01*
X83740000Y-34960000D02*
X83740000Y-33014000D01*
X83780000Y-38969000D02*
X83780000Y-37040000D01*
X83780000Y-34960000D02*
X83780000Y-33031000D01*
X83820000Y-38952000D02*
X83820000Y-37040000D01*
X83820000Y-34960000D02*
X83820000Y-33048000D01*
X83860000Y-38934000D02*
X83860000Y-37040000D01*
X83860000Y-34960000D02*
X83860000Y-33066000D01*
X83900000Y-38915000D02*
X83900000Y-37040000D01*
X83900000Y-34960000D02*
X83900000Y-33085000D01*
X83940000Y-38896000D02*
X83940000Y-37040000D01*
X83940000Y-34960000D02*
X83940000Y-33104000D01*
X83980000Y-38876000D02*
X83980000Y-37040000D01*
X83980000Y-34960000D02*
X83980000Y-33124000D01*
X84020000Y-38855000D02*
X84020000Y-37040000D01*
X84020000Y-34960000D02*
X84020000Y-33145000D01*
X84060000Y-38834000D02*
X84060000Y-37040000D01*
X84060000Y-34960000D02*
X84060000Y-33166000D01*
X84100000Y-38812000D02*
X84100000Y-37040000D01*
X84100000Y-34960000D02*
X84100000Y-33188000D01*
X84140000Y-38789000D02*
X84140000Y-37040000D01*
X84140000Y-34960000D02*
X84140000Y-33211000D01*
X84180000Y-38765000D02*
X84180000Y-37040000D01*
X84180000Y-34960000D02*
X84180000Y-33235000D01*
X84220000Y-38741000D02*
X84220000Y-37040000D01*
X84220000Y-34960000D02*
X84220000Y-33259000D01*
X84260000Y-38716000D02*
X84260000Y-37040000D01*
X84260000Y-34960000D02*
X84260000Y-33284000D01*
X84300000Y-38690000D02*
X84300000Y-37040000D01*
X84300000Y-34960000D02*
X84300000Y-33310000D01*
X84340000Y-38663000D02*
X84340000Y-37040000D01*
X84340000Y-34960000D02*
X84340000Y-33337000D01*
X84380000Y-38636000D02*
X84380000Y-37040000D01*
X84380000Y-34960000D02*
X84380000Y-33364000D01*
X84420000Y-38607000D02*
X84420000Y-37040000D01*
X84420000Y-34960000D02*
X84420000Y-33393000D01*
X84460000Y-38577000D02*
X84460000Y-37040000D01*
X84460000Y-34960000D02*
X84460000Y-33423000D01*
X84500000Y-38547000D02*
X84500000Y-37040000D01*
X84500000Y-34960000D02*
X84500000Y-33453000D01*
X84540000Y-38516000D02*
X84540000Y-37040000D01*
X84540000Y-34960000D02*
X84540000Y-33484000D01*
X84580000Y-38483000D02*
X84580000Y-37040000D01*
X84580000Y-34960000D02*
X84580000Y-33517000D01*
X84620000Y-38450000D02*
X84620000Y-37040000D01*
X84620000Y-34960000D02*
X84620000Y-33550000D01*
X84660000Y-38415000D02*
X84660000Y-37040000D01*
X84660000Y-34960000D02*
X84660000Y-33585000D01*
X84700000Y-38379000D02*
X84700000Y-37040000D01*
X84700000Y-34960000D02*
X84700000Y-33621000D01*
X84740000Y-38342000D02*
X84740000Y-37040000D01*
X84740000Y-34960000D02*
X84740000Y-33658000D01*
X84780000Y-38304000D02*
X84780000Y-37040000D01*
X84780000Y-34960000D02*
X84780000Y-33696000D01*
X84820000Y-38264000D02*
X84820000Y-33736000D01*
X84860000Y-38223000D02*
X84860000Y-33777000D01*
X84900000Y-38181000D02*
X84900000Y-33819000D01*
X84940000Y-38137000D02*
X84940000Y-33863000D01*
X84980000Y-38091000D02*
X84980000Y-33909000D01*
X85020000Y-38044000D02*
X85020000Y-33956000D01*
X85060000Y-37995000D02*
X85060000Y-34005000D01*
X85100000Y-37943000D02*
X85100000Y-34057000D01*
X85140000Y-37890000D02*
X85140000Y-34110000D01*
X85180000Y-37834000D02*
X85180000Y-34166000D01*
X85220000Y-37775000D02*
X85220000Y-34225000D01*
X85260000Y-37714000D02*
X85260000Y-34286000D01*
X85300000Y-37649000D02*
X85300000Y-34351000D01*
X85340000Y-37581000D02*
X85340000Y-34419000D01*
X85380000Y-37509000D02*
X85380000Y-34491000D01*
X85420000Y-37432000D02*
X85420000Y-34568000D01*
X85460000Y-37350000D02*
X85460000Y-34650000D01*
X85500000Y-37261000D02*
X85500000Y-34739000D01*
X85540000Y-37165000D02*
X85540000Y-34835000D01*
X85580000Y-37058000D02*
X85580000Y-34942000D01*
X85620000Y-36939000D02*
X85620000Y-35061000D01*
X85660000Y-36801000D02*
X85660000Y-35199000D01*
X85700000Y-36633000D02*
X85700000Y-35367000D01*
X85740000Y-36402000D02*
X85740000Y-35598000D01*
X85770000Y-36000000D02*
G75*
G02*
X79230000Y-36000000I-3270000J0D01*
G01*
X79230000Y-36000000D02*
G75*
G02*
X85770000Y-36000000I3270000J0D01*
G01*
%TO.C,D6*%
X135150000Y-122225000D02*
X135150000Y-118475000D01*
X135150000Y-118475000D02*
X128575000Y-118475000D01*
X127850000Y-122225000D02*
X135150000Y-122225000D01*
X127850000Y-119200000D02*
X128575000Y-118475000D01*
X127850000Y-119200000D02*
X127850000Y-122225000D01*
X128775000Y-118900000D02*
X128925000Y-118700000D01*
X128625000Y-118700000D01*
X128775000Y-118900000D01*
G36*
X128775000Y-118900000D02*
G01*
X128625000Y-118700000D01*
X128925000Y-118700000D01*
X128775000Y-118900000D01*
G37*
%TO.C,R1*%
X119270000Y-57880000D02*
X119270000Y-58210000D01*
X112730000Y-57880000D02*
X119270000Y-57880000D01*
X112730000Y-58210000D02*
X112730000Y-57880000D01*
X112730000Y-60290000D02*
X112730000Y-60620000D01*
X119270000Y-60620000D02*
X119270000Y-60290000D01*
X112730000Y-60620000D02*
X119270000Y-60620000D01*
%TO.C,C12*%
X119880000Y-124630000D02*
X119880000Y-124967000D01*
X119880000Y-127033000D02*
X119880000Y-127370000D01*
X119880000Y-127370000D02*
X125120000Y-127370000D01*
X125120000Y-124630000D02*
X119880000Y-124630000D01*
X125120000Y-124967000D02*
X125120000Y-124630000D01*
X125120000Y-127370000D02*
X125120000Y-127033000D01*
%TO.C,C7*%
X24630000Y-47630000D02*
X24630000Y-47967000D01*
X24630000Y-50033000D02*
X24630000Y-50370000D01*
X24630000Y-50370000D02*
X29870000Y-50370000D01*
X29870000Y-47630000D02*
X24630000Y-47630000D01*
X29870000Y-47967000D02*
X29870000Y-47630000D01*
X29870000Y-50370000D02*
X29870000Y-50033000D01*
%TO.C,R9*%
X78730000Y-72630000D02*
X85270000Y-72630000D01*
X78730000Y-72960000D02*
X78730000Y-72630000D01*
X78730000Y-75040000D02*
X78730000Y-75370000D01*
X78730000Y-75370000D02*
X85270000Y-75370000D01*
X85270000Y-72630000D02*
X85270000Y-72960000D01*
X85270000Y-75370000D02*
X85270000Y-75040000D01*
%TO.C,C13*%
X80630000Y-68630000D02*
X80630000Y-68967000D01*
X80630000Y-71033000D02*
X80630000Y-71370000D01*
X80630000Y-71370000D02*
X85870000Y-71370000D01*
X85870000Y-68630000D02*
X80630000Y-68630000D01*
X85870000Y-68967000D02*
X85870000Y-68630000D01*
X85870000Y-71370000D02*
X85870000Y-71033000D01*
%TO.C,R10*%
X78730000Y-64130000D02*
X85270000Y-64130000D01*
X78730000Y-64460000D02*
X78730000Y-64130000D01*
X78730000Y-66540000D02*
X78730000Y-66870000D01*
X78730000Y-66870000D02*
X85270000Y-66870000D01*
X85270000Y-64130000D02*
X85270000Y-64460000D01*
X85270000Y-66870000D02*
X85270000Y-66540000D01*
%TO.C,R3*%
X38230000Y-125380000D02*
X44770000Y-125380000D01*
X38230000Y-125710000D02*
X38230000Y-125380000D01*
X38230000Y-127790000D02*
X38230000Y-128120000D01*
X38230000Y-128120000D02*
X44770000Y-128120000D01*
X44770000Y-125380000D02*
X44770000Y-125710000D01*
X44770000Y-128120000D02*
X44770000Y-127790000D01*
%TO.C,C17*%
X112130000Y-62630000D02*
X112130000Y-62967000D01*
X112130000Y-65033000D02*
X112130000Y-65370000D01*
X112130000Y-65370000D02*
X117370000Y-65370000D01*
X117370000Y-62630000D02*
X112130000Y-62630000D01*
X117370000Y-62967000D02*
X117370000Y-62630000D01*
X117370000Y-65370000D02*
X117370000Y-65033000D01*
%TO.C,D3*%
X85650000Y-122275000D02*
X85650000Y-118525000D01*
X85650000Y-118525000D02*
X79075000Y-118525000D01*
X78350000Y-122275000D02*
X85650000Y-122275000D01*
X78350000Y-119250000D02*
X79075000Y-118525000D01*
X78350000Y-119250000D02*
X78350000Y-122275000D01*
X79275000Y-118950000D02*
X79425000Y-118750000D01*
X79125000Y-118750000D01*
X79275000Y-118950000D01*
G36*
X79275000Y-118950000D02*
G01*
X79125000Y-118750000D01*
X79425000Y-118750000D01*
X79275000Y-118950000D01*
G37*
%TO.C,R8*%
X55230000Y-78630000D02*
X55230000Y-78960000D01*
X55230000Y-81370000D02*
X55230000Y-81040000D01*
X61770000Y-78630000D02*
X55230000Y-78630000D01*
X61770000Y-78960000D02*
X61770000Y-78630000D01*
X61770000Y-81040000D02*
X61770000Y-81370000D01*
X61770000Y-81370000D02*
X55230000Y-81370000D01*
%TO.C,R12*%
X111480000Y-74380000D02*
X118020000Y-74380000D01*
X111480000Y-74710000D02*
X111480000Y-74380000D01*
X111480000Y-76790000D02*
X111480000Y-77120000D01*
X111480000Y-77120000D02*
X118020000Y-77120000D01*
X118020000Y-74380000D02*
X118020000Y-74710000D01*
X118020000Y-77120000D02*
X118020000Y-76790000D01*
%TO.C,R11*%
X79670000Y-53880000D02*
X86210000Y-53880000D01*
X79670000Y-54210000D02*
X79670000Y-53880000D01*
X79670000Y-56290000D02*
X79670000Y-56620000D01*
X79670000Y-56620000D02*
X86210000Y-56620000D01*
X86210000Y-53880000D02*
X86210000Y-54210000D01*
X86210000Y-56620000D02*
X86210000Y-56290000D01*
%TO.C,C10*%
X98130000Y-124630000D02*
X98130000Y-124967000D01*
X98130000Y-127033000D02*
X98130000Y-127370000D01*
X98130000Y-127370000D02*
X103370000Y-127370000D01*
X103370000Y-124630000D02*
X98130000Y-124630000D01*
X103370000Y-124967000D02*
X103370000Y-124630000D01*
X103370000Y-127370000D02*
X103370000Y-127033000D01*
%TO.C,C4*%
X136130000Y-98630000D02*
X136130000Y-103870000D01*
X136130000Y-103870000D02*
X136467000Y-103870000D01*
X136467000Y-98630000D02*
X136130000Y-98630000D01*
X138533000Y-103870000D02*
X138870000Y-103870000D01*
X138870000Y-98630000D02*
X138533000Y-98630000D01*
X138870000Y-103870000D02*
X138870000Y-98630000D01*
%TO.C,C1*%
X90195225Y-49475000D02*
X90695225Y-49475000D01*
X90445225Y-49725000D02*
X90445225Y-49225000D01*
X93000000Y-50580000D02*
X93000000Y-45420000D01*
X93040000Y-50580000D02*
X93040000Y-45420000D01*
X93080000Y-50579000D02*
X93080000Y-45421000D01*
X93120000Y-50577000D02*
X93120000Y-45423000D01*
X93160000Y-50575000D02*
X93160000Y-45425000D01*
X93200000Y-50572000D02*
X93200000Y-45428000D01*
X93240000Y-46960000D02*
X93240000Y-45431000D01*
X93240000Y-50569000D02*
X93240000Y-49040000D01*
X93280000Y-46960000D02*
X93280000Y-45435000D01*
X93280000Y-50565000D02*
X93280000Y-49040000D01*
X93320000Y-46960000D02*
X93320000Y-45440000D01*
X93320000Y-50560000D02*
X93320000Y-49040000D01*
X93360000Y-46960000D02*
X93360000Y-45445000D01*
X93360000Y-50555000D02*
X93360000Y-49040000D01*
X93400000Y-46960000D02*
X93400000Y-45451000D01*
X93400000Y-50549000D02*
X93400000Y-49040000D01*
X93440000Y-46960000D02*
X93440000Y-45457000D01*
X93440000Y-50543000D02*
X93440000Y-49040000D01*
X93480000Y-46960000D02*
X93480000Y-45464000D01*
X93480000Y-50536000D02*
X93480000Y-49040000D01*
X93520000Y-46960000D02*
X93520000Y-45472000D01*
X93520000Y-50528000D02*
X93520000Y-49040000D01*
X93560000Y-46960000D02*
X93560000Y-45481000D01*
X93560000Y-50519000D02*
X93560000Y-49040000D01*
X93600000Y-46960000D02*
X93600000Y-45490000D01*
X93600000Y-50510000D02*
X93600000Y-49040000D01*
X93640000Y-46960000D02*
X93640000Y-45499000D01*
X93640000Y-50501000D02*
X93640000Y-49040000D01*
X93680000Y-46960000D02*
X93680000Y-45510000D01*
X93680000Y-50490000D02*
X93680000Y-49040000D01*
X93720000Y-46960000D02*
X93720000Y-45521000D01*
X93720000Y-50479000D02*
X93720000Y-49040000D01*
X93760000Y-46960000D02*
X93760000Y-45533000D01*
X93760000Y-50467000D02*
X93760000Y-49040000D01*
X93800000Y-46960000D02*
X93800000Y-45545000D01*
X93800000Y-50455000D02*
X93800000Y-49040000D01*
X93840000Y-46960000D02*
X93840000Y-45558000D01*
X93840000Y-50442000D02*
X93840000Y-49040000D01*
X93880000Y-46960000D02*
X93880000Y-45572000D01*
X93880000Y-50428000D02*
X93880000Y-49040000D01*
X93920000Y-46960000D02*
X93920000Y-45587000D01*
X93920000Y-50413000D02*
X93920000Y-49040000D01*
X93960000Y-46960000D02*
X93960000Y-45602000D01*
X93960000Y-50398000D02*
X93960000Y-49040000D01*
X94000000Y-46960000D02*
X94000000Y-45618000D01*
X94000000Y-50382000D02*
X94000000Y-49040000D01*
X94040000Y-46960000D02*
X94040000Y-45635000D01*
X94040000Y-50365000D02*
X94040000Y-49040000D01*
X94080000Y-46960000D02*
X94080000Y-45653000D01*
X94080000Y-50347000D02*
X94080000Y-49040000D01*
X94120000Y-46960000D02*
X94120000Y-45671000D01*
X94120000Y-50329000D02*
X94120000Y-49040000D01*
X94160000Y-46960000D02*
X94160000Y-45691000D01*
X94160000Y-50309000D02*
X94160000Y-49040000D01*
X94200000Y-46960000D02*
X94200000Y-45711000D01*
X94200000Y-50289000D02*
X94200000Y-49040000D01*
X94240000Y-46960000D02*
X94240000Y-45732000D01*
X94240000Y-50268000D02*
X94240000Y-49040000D01*
X94280000Y-46960000D02*
X94280000Y-45754000D01*
X94280000Y-50246000D02*
X94280000Y-49040000D01*
X94320000Y-46960000D02*
X94320000Y-45777000D01*
X94320000Y-50223000D02*
X94320000Y-49040000D01*
X94360000Y-46960000D02*
X94360000Y-45801000D01*
X94360000Y-50199000D02*
X94360000Y-49040000D01*
X94400000Y-46960000D02*
X94400000Y-45825000D01*
X94400000Y-50175000D02*
X94400000Y-49040000D01*
X94440000Y-46960000D02*
X94440000Y-45851000D01*
X94440000Y-50149000D02*
X94440000Y-49040000D01*
X94480000Y-46960000D02*
X94480000Y-45878000D01*
X94480000Y-50122000D02*
X94480000Y-49040000D01*
X94520000Y-46960000D02*
X94520000Y-45906000D01*
X94520000Y-50094000D02*
X94520000Y-49040000D01*
X94560000Y-46960000D02*
X94560000Y-45935000D01*
X94560000Y-50065000D02*
X94560000Y-49040000D01*
X94600000Y-46960000D02*
X94600000Y-45965000D01*
X94600000Y-50035000D02*
X94600000Y-49040000D01*
X94640000Y-46960000D02*
X94640000Y-45997000D01*
X94640000Y-50003000D02*
X94640000Y-49040000D01*
X94680000Y-46960000D02*
X94680000Y-46030000D01*
X94680000Y-49970000D02*
X94680000Y-49040000D01*
X94720000Y-46960000D02*
X94720000Y-46064000D01*
X94720000Y-49936000D02*
X94720000Y-49040000D01*
X94760000Y-46960000D02*
X94760000Y-46099000D01*
X94760000Y-49901000D02*
X94760000Y-49040000D01*
X94800000Y-46960000D02*
X94800000Y-46136000D01*
X94800000Y-49864000D02*
X94800000Y-49040000D01*
X94840000Y-46960000D02*
X94840000Y-46175000D01*
X94840000Y-49825000D02*
X94840000Y-49040000D01*
X94880000Y-46960000D02*
X94880000Y-46215000D01*
X94880000Y-49785000D02*
X94880000Y-49040000D01*
X94920000Y-46960000D02*
X94920000Y-46257000D01*
X94920000Y-49743000D02*
X94920000Y-49040000D01*
X94960000Y-46960000D02*
X94960000Y-46301000D01*
X94960000Y-49699000D02*
X94960000Y-49040000D01*
X95000000Y-46960000D02*
X95000000Y-46348000D01*
X95000000Y-49652000D02*
X95000000Y-49040000D01*
X95040000Y-46960000D02*
X95040000Y-46396000D01*
X95040000Y-49604000D02*
X95040000Y-49040000D01*
X95080000Y-46960000D02*
X95080000Y-46447000D01*
X95080000Y-49553000D02*
X95080000Y-49040000D01*
X95120000Y-46960000D02*
X95120000Y-46501000D01*
X95120000Y-49499000D02*
X95120000Y-49040000D01*
X95160000Y-46960000D02*
X95160000Y-46557000D01*
X95160000Y-49443000D02*
X95160000Y-49040000D01*
X95200000Y-46960000D02*
X95200000Y-46617000D01*
X95200000Y-49383000D02*
X95200000Y-49040000D01*
X95240000Y-46960000D02*
X95240000Y-46681000D01*
X95240000Y-49319000D02*
X95240000Y-49040000D01*
X95280000Y-46960000D02*
X95280000Y-46749000D01*
X95280000Y-49251000D02*
X95280000Y-49040000D01*
X95320000Y-49177000D02*
X95320000Y-46823000D01*
X95360000Y-49098000D02*
X95360000Y-46902000D01*
X95400000Y-49011000D02*
X95400000Y-46989000D01*
X95440000Y-48914000D02*
X95440000Y-47086000D01*
X95480000Y-48805000D02*
X95480000Y-47195000D01*
X95520000Y-48677000D02*
X95520000Y-47323000D01*
X95560000Y-48517000D02*
X95560000Y-47483000D01*
X95600000Y-48283000D02*
X95600000Y-47717000D01*
X95620000Y-48000000D02*
G75*
G02*
X90380000Y-48000000I-2620000J0D01*
G01*
X90380000Y-48000000D02*
G75*
G02*
X95620000Y-48000000I2620000J0D01*
G01*
%TO.C,C16*%
X112130000Y-70880000D02*
X112130000Y-71217000D01*
X112130000Y-73283000D02*
X112130000Y-73620000D01*
X112130000Y-73620000D02*
X117370000Y-73620000D01*
X117370000Y-70880000D02*
X112130000Y-70880000D01*
X117370000Y-71217000D02*
X117370000Y-70880000D01*
X117370000Y-73620000D02*
X117370000Y-73283000D01*
%TO.C,R6*%
X107170000Y-124630000D02*
X113710000Y-124630000D01*
X107170000Y-124960000D02*
X107170000Y-124630000D01*
X107170000Y-127040000D02*
X107170000Y-127370000D01*
X107170000Y-127370000D02*
X113710000Y-127370000D01*
X113710000Y-124630000D02*
X113710000Y-124960000D01*
X113710000Y-127370000D02*
X113710000Y-127040000D01*
%TO.C,R7*%
X118130000Y-113480000D02*
X118130000Y-120020000D01*
X118130000Y-120020000D02*
X118460000Y-120020000D01*
X118460000Y-113480000D02*
X118130000Y-113480000D01*
X120540000Y-113480000D02*
X120870000Y-113480000D01*
X120870000Y-113480000D02*
X120870000Y-120020000D01*
X120870000Y-120020000D02*
X120540000Y-120020000D01*
%TO.C,R4*%
X59920000Y-125130000D02*
X66460000Y-125130000D01*
X59920000Y-125460000D02*
X59920000Y-125130000D01*
X59920000Y-127540000D02*
X59920000Y-127870000D01*
X59920000Y-127870000D02*
X66460000Y-127870000D01*
X66460000Y-125130000D02*
X66460000Y-125460000D01*
X66460000Y-127870000D02*
X66460000Y-127540000D01*
%TO.C,R13*%
X110730000Y-66380000D02*
X117270000Y-66380000D01*
X110730000Y-66710000D02*
X110730000Y-66380000D01*
X110730000Y-68790000D02*
X110730000Y-69120000D01*
X110730000Y-69120000D02*
X117270000Y-69120000D01*
X117270000Y-66380000D02*
X117270000Y-66710000D01*
X117270000Y-69120000D02*
X117270000Y-68790000D01*
%TO.C,C15*%
X106380000Y-59380000D02*
X106380000Y-64620000D01*
X106380000Y-64620000D02*
X106717000Y-64620000D01*
X106717000Y-59380000D02*
X106380000Y-59380000D01*
X108783000Y-64620000D02*
X109120000Y-64620000D01*
X109120000Y-59380000D02*
X108783000Y-59380000D01*
X109120000Y-64620000D02*
X109120000Y-59380000D01*
%TO.C,C5*%
X89880000Y-52380000D02*
X89880000Y-52717000D01*
X89880000Y-54783000D02*
X89880000Y-55120000D01*
X89880000Y-55120000D02*
X95120000Y-55120000D01*
X95120000Y-52380000D02*
X89880000Y-52380000D01*
X95120000Y-52717000D02*
X95120000Y-52380000D01*
X95120000Y-55120000D02*
X95120000Y-54783000D01*
%TO.C,C18*%
X135630000Y-53130000D02*
X135630000Y-58370000D01*
X135630000Y-58370000D02*
X135967000Y-58370000D01*
X135967000Y-53130000D02*
X135630000Y-53130000D01*
X138033000Y-58370000D02*
X138370000Y-58370000D01*
X138370000Y-53130000D02*
X138033000Y-53130000D01*
X138370000Y-58370000D02*
X138370000Y-53130000D01*
%TO.C,R2*%
X68120000Y-48230000D02*
X68120000Y-54770000D01*
X67790000Y-48230000D02*
X68120000Y-48230000D01*
X65710000Y-48230000D02*
X65380000Y-48230000D01*
X65380000Y-48230000D02*
X65380000Y-54770000D01*
X68120000Y-54770000D02*
X67790000Y-54770000D01*
X65380000Y-54770000D02*
X65710000Y-54770000D01*
%TO.C,R5*%
X83230000Y-125130000D02*
X89770000Y-125130000D01*
X83230000Y-125460000D02*
X83230000Y-125130000D01*
X83230000Y-127540000D02*
X83230000Y-127870000D01*
X83230000Y-127870000D02*
X89770000Y-127870000D01*
X89770000Y-125130000D02*
X89770000Y-125460000D01*
X89770000Y-127870000D02*
X89770000Y-127540000D01*
%TO.C,R14*%
X130880000Y-49040000D02*
X130880000Y-55580000D01*
X130880000Y-55580000D02*
X131210000Y-55580000D01*
X131210000Y-49040000D02*
X130880000Y-49040000D01*
X133290000Y-49040000D02*
X133620000Y-49040000D01*
X133620000Y-49040000D02*
X133620000Y-55580000D01*
X133620000Y-55580000D02*
X133290000Y-55580000D01*
%TO.C,C8*%
X43130000Y-78630000D02*
X43130000Y-78967000D01*
X43130000Y-81033000D02*
X43130000Y-81370000D01*
X43130000Y-81370000D02*
X48370000Y-81370000D01*
X48370000Y-78630000D02*
X43130000Y-78630000D01*
X48370000Y-78967000D02*
X48370000Y-78630000D01*
X48370000Y-81370000D02*
X48370000Y-81033000D01*
%TO.C,C11*%
X23380000Y-125130000D02*
X23380000Y-125467000D01*
X23380000Y-127533000D02*
X23380000Y-127870000D01*
X23380000Y-127870000D02*
X28620000Y-127870000D01*
X28620000Y-125130000D02*
X23380000Y-125130000D01*
X28620000Y-125467000D02*
X28620000Y-125130000D01*
X28620000Y-127870000D02*
X28620000Y-127533000D01*
%TO.C,D4*%
X110925000Y-122125000D02*
X110925000Y-118375000D01*
X110925000Y-118375000D02*
X104350000Y-118375000D01*
X103625000Y-122125000D02*
X110925000Y-122125000D01*
X103625000Y-119100000D02*
X104350000Y-118375000D01*
X103625000Y-119100000D02*
X103625000Y-122125000D01*
X104550000Y-118800000D02*
X104700000Y-118600000D01*
X104400000Y-118600000D01*
X104550000Y-118800000D01*
G36*
X104550000Y-118800000D02*
G01*
X104400000Y-118600000D01*
X104700000Y-118600000D01*
X104550000Y-118800000D01*
G37*
%TO.C,C9*%
X72630000Y-125130000D02*
X72630000Y-125467000D01*
X72630000Y-127533000D02*
X72630000Y-127870000D01*
X72630000Y-127870000D02*
X77870000Y-127870000D01*
X77870000Y-125130000D02*
X72630000Y-125130000D01*
X77870000Y-125467000D02*
X77870000Y-125130000D01*
X77870000Y-127870000D02*
X77870000Y-127533000D01*
%TO.C,C14*%
X80630000Y-58880000D02*
X80630000Y-59217000D01*
X80630000Y-61283000D02*
X80630000Y-61620000D01*
X80630000Y-61620000D02*
X85870000Y-61620000D01*
X85870000Y-58880000D02*
X80630000Y-58880000D01*
X85870000Y-59217000D02*
X85870000Y-58880000D01*
X85870000Y-61620000D02*
X85870000Y-61283000D01*
%TO.C,C3*%
X24740113Y-56975000D02*
X25240113Y-56975000D01*
X24990113Y-57225000D02*
X24990113Y-56725000D01*
X27544888Y-58080000D02*
X27544888Y-52920000D01*
X27584888Y-58080000D02*
X27584888Y-52920000D01*
X27624888Y-58079000D02*
X27624888Y-52921000D01*
X27664888Y-58077000D02*
X27664888Y-52923000D01*
X27704888Y-58075000D02*
X27704888Y-52925000D01*
X27744888Y-58072000D02*
X27744888Y-52928000D01*
X27784888Y-54460000D02*
X27784888Y-52931000D01*
X27784888Y-58069000D02*
X27784888Y-56540000D01*
X27824888Y-54460000D02*
X27824888Y-52935000D01*
X27824888Y-58065000D02*
X27824888Y-56540000D01*
X27864888Y-54460000D02*
X27864888Y-52940000D01*
X27864888Y-58060000D02*
X27864888Y-56540000D01*
X27904888Y-54460000D02*
X27904888Y-52945000D01*
X27904888Y-58055000D02*
X27904888Y-56540000D01*
X27944888Y-54460000D02*
X27944888Y-52951000D01*
X27944888Y-58049000D02*
X27944888Y-56540000D01*
X27984888Y-54460000D02*
X27984888Y-52957000D01*
X27984888Y-58043000D02*
X27984888Y-56540000D01*
X28024888Y-54460000D02*
X28024888Y-52964000D01*
X28024888Y-58036000D02*
X28024888Y-56540000D01*
X28064888Y-54460000D02*
X28064888Y-52972000D01*
X28064888Y-58028000D02*
X28064888Y-56540000D01*
X28104888Y-54460000D02*
X28104888Y-52981000D01*
X28104888Y-58019000D02*
X28104888Y-56540000D01*
X28144888Y-54460000D02*
X28144888Y-52990000D01*
X28144888Y-58010000D02*
X28144888Y-56540000D01*
X28184888Y-54460000D02*
X28184888Y-52999000D01*
X28184888Y-58001000D02*
X28184888Y-56540000D01*
X28224888Y-54460000D02*
X28224888Y-53010000D01*
X28224888Y-57990000D02*
X28224888Y-56540000D01*
X28264888Y-54460000D02*
X28264888Y-53021000D01*
X28264888Y-57979000D02*
X28264888Y-56540000D01*
X28304888Y-54460000D02*
X28304888Y-53033000D01*
X28304888Y-57967000D02*
X28304888Y-56540000D01*
X28344888Y-54460000D02*
X28344888Y-53045000D01*
X28344888Y-57955000D02*
X28344888Y-56540000D01*
X28384888Y-54460000D02*
X28384888Y-53058000D01*
X28384888Y-57942000D02*
X28384888Y-56540000D01*
X28424888Y-54460000D02*
X28424888Y-53072000D01*
X28424888Y-57928000D02*
X28424888Y-56540000D01*
X28464888Y-54460000D02*
X28464888Y-53087000D01*
X28464888Y-57913000D02*
X28464888Y-56540000D01*
X28504888Y-54460000D02*
X28504888Y-53102000D01*
X28504888Y-57898000D02*
X28504888Y-56540000D01*
X28544888Y-54460000D02*
X28544888Y-53118000D01*
X28544888Y-57882000D02*
X28544888Y-56540000D01*
X28584888Y-54460000D02*
X28584888Y-53135000D01*
X28584888Y-57865000D02*
X28584888Y-56540000D01*
X28624888Y-54460000D02*
X28624888Y-53153000D01*
X28624888Y-57847000D02*
X28624888Y-56540000D01*
X28664888Y-54460000D02*
X28664888Y-53171000D01*
X28664888Y-57829000D02*
X28664888Y-56540000D01*
X28704888Y-54460000D02*
X28704888Y-53191000D01*
X28704888Y-57809000D02*
X28704888Y-56540000D01*
X28744888Y-54460000D02*
X28744888Y-53211000D01*
X28744888Y-57789000D02*
X28744888Y-56540000D01*
X28784888Y-54460000D02*
X28784888Y-53232000D01*
X28784888Y-57768000D02*
X28784888Y-56540000D01*
X28824888Y-54460000D02*
X28824888Y-53254000D01*
X28824888Y-57746000D02*
X28824888Y-56540000D01*
X28864888Y-54460000D02*
X28864888Y-53277000D01*
X28864888Y-57723000D02*
X28864888Y-56540000D01*
X28904888Y-54460000D02*
X28904888Y-53301000D01*
X28904888Y-57699000D02*
X28904888Y-56540000D01*
X28944888Y-54460000D02*
X28944888Y-53325000D01*
X28944888Y-57675000D02*
X28944888Y-56540000D01*
X28984888Y-54460000D02*
X28984888Y-53351000D01*
X28984888Y-57649000D02*
X28984888Y-56540000D01*
X29024888Y-54460000D02*
X29024888Y-53378000D01*
X29024888Y-57622000D02*
X29024888Y-56540000D01*
X29064888Y-54460000D02*
X29064888Y-53406000D01*
X29064888Y-57594000D02*
X29064888Y-56540000D01*
X29104888Y-54460000D02*
X29104888Y-53435000D01*
X29104888Y-57565000D02*
X29104888Y-56540000D01*
X29144888Y-54460000D02*
X29144888Y-53465000D01*
X29144888Y-57535000D02*
X29144888Y-56540000D01*
X29184888Y-54460000D02*
X29184888Y-53497000D01*
X29184888Y-57503000D02*
X29184888Y-56540000D01*
X29224888Y-54460000D02*
X29224888Y-53530000D01*
X29224888Y-57470000D02*
X29224888Y-56540000D01*
X29264888Y-54460000D02*
X29264888Y-53564000D01*
X29264888Y-57436000D02*
X29264888Y-56540000D01*
X29304888Y-54460000D02*
X29304888Y-53599000D01*
X29304888Y-57401000D02*
X29304888Y-56540000D01*
X29344888Y-54460000D02*
X29344888Y-53636000D01*
X29344888Y-57364000D02*
X29344888Y-56540000D01*
X29384888Y-54460000D02*
X29384888Y-53675000D01*
X29384888Y-57325000D02*
X29384888Y-56540000D01*
X29424888Y-54460000D02*
X29424888Y-53715000D01*
X29424888Y-57285000D02*
X29424888Y-56540000D01*
X29464888Y-54460000D02*
X29464888Y-53757000D01*
X29464888Y-57243000D02*
X29464888Y-56540000D01*
X29504888Y-54460000D02*
X29504888Y-53801000D01*
X29504888Y-57199000D02*
X29504888Y-56540000D01*
X29544888Y-54460000D02*
X29544888Y-53848000D01*
X29544888Y-57152000D02*
X29544888Y-56540000D01*
X29584888Y-54460000D02*
X29584888Y-53896000D01*
X29584888Y-57104000D02*
X29584888Y-56540000D01*
X29624888Y-54460000D02*
X29624888Y-53947000D01*
X29624888Y-57053000D02*
X29624888Y-56540000D01*
X29664888Y-54460000D02*
X29664888Y-54001000D01*
X29664888Y-56999000D02*
X29664888Y-56540000D01*
X29704888Y-54460000D02*
X29704888Y-54057000D01*
X29704888Y-56943000D02*
X29704888Y-56540000D01*
X29744888Y-54460000D02*
X29744888Y-54117000D01*
X29744888Y-56883000D02*
X29744888Y-56540000D01*
X29784888Y-54460000D02*
X29784888Y-54181000D01*
X29784888Y-56819000D02*
X29784888Y-56540000D01*
X29824888Y-54460000D02*
X29824888Y-54249000D01*
X29824888Y-56751000D02*
X29824888Y-56540000D01*
X29864888Y-56677000D02*
X29864888Y-54323000D01*
X29904888Y-56598000D02*
X29904888Y-54402000D01*
X29944888Y-56511000D02*
X29944888Y-54489000D01*
X29984888Y-56414000D02*
X29984888Y-54586000D01*
X30024888Y-56305000D02*
X30024888Y-54695000D01*
X30064888Y-56177000D02*
X30064888Y-54823000D01*
X30104888Y-56017000D02*
X30104888Y-54983000D01*
X30144888Y-55783000D02*
X30144888Y-55217000D01*
X30164888Y-55500000D02*
G75*
G02*
X24924888Y-55500000I-2620000J0D01*
G01*
X24924888Y-55500000D02*
G75*
G02*
X30164888Y-55500000I2620000J0D01*
G01*
%TO.C,C2*%
X50630000Y-125130000D02*
X50630000Y-125467000D01*
X50630000Y-127533000D02*
X50630000Y-127870000D01*
X50630000Y-127870000D02*
X55870000Y-127870000D01*
X55870000Y-125130000D02*
X50630000Y-125130000D01*
X55870000Y-125467000D02*
X55870000Y-125130000D01*
X55870000Y-127870000D02*
X55870000Y-127533000D01*
%TD*%
M02*
