%TF.GenerationSoftware,KiCad,Pcbnew,10.0.5*%
%TF.CreationDate,2026-07-26T23:00:53+02:00*%
%TF.ProjectId,learsim pcbs,6c656172-7369-46d2-9070-6362732e6b69,rev?*%
%TF.SameCoordinates,Original*%
%TF.FileFunction,Paste,Bot*%
%TF.FilePolarity,Positive*%
%FSLAX46Y46*%
G04 Gerber Fmt 4.6, Leading zero omitted, Abs format (unit mm)*
G04 Created by KiCad (PCBNEW 10.0.5) date 2026-07-26 23:00:53*
%MOMM*%
%LPD*%
G01*
G04 APERTURE LIST*
G04 Aperture macros list*
%AMRoundRect*
0 Rectangle with rounded corners*
0 $1 Rounding radius*
0 $2 $3 $4 $5 $6 $7 $8 $9 X,Y pos of 4 corners*
0 Add a 4 corners polygon primitive as box body*
4,1,4,$2,$3,$4,$5,$6,$7,$8,$9,$2,$3,0*
0 Add four circle primitives for the rounded corners*
1,1,$1+$1,$2,$3*
1,1,$1+$1,$4,$5*
1,1,$1+$1,$6,$7*
1,1,$1+$1,$8,$9*
0 Add four rect primitives between the rounded corners*
20,1,$1+$1,$2,$3,$4,$5,0*
20,1,$1+$1,$4,$5,$6,$7,0*
20,1,$1+$1,$6,$7,$8,$9,0*
20,1,$1+$1,$8,$9,$2,$3,0*%
G04 Aperture macros list end*
%ADD10RoundRect,0.205000X-0.470000X-0.205000X0.470000X-0.205000X0.470000X0.205000X-0.470000X0.205000X0*%
%ADD11RoundRect,0.205000X0.470000X0.205000X-0.470000X0.205000X-0.470000X-0.205000X0.470000X-0.205000X0*%
%ADD12R,1.600000X3.400000*%
G04 APERTURE END LIST*
D10*
%TO.C,D6*%
X128775000Y-119600000D03*
X128775000Y-121100000D03*
X134225000Y-121100000D03*
X134225000Y-119600000D03*
%TD*%
D11*
%TO.C,D5*%
X53475000Y-74750000D03*
X53475000Y-73250000D03*
X48025000Y-73250000D03*
X48025000Y-74750000D03*
%TD*%
D10*
%TO.C,D1*%
X29775000Y-119750000D03*
X29775000Y-121250000D03*
X35225000Y-121250000D03*
X35225000Y-119750000D03*
%TD*%
%TO.C,D3*%
X79275000Y-119650000D03*
X79275000Y-121150000D03*
X84725000Y-121150000D03*
X84725000Y-119650000D03*
%TD*%
%TO.C,D2*%
X54275000Y-119650000D03*
X54275000Y-121150000D03*
X59725000Y-121150000D03*
X59725000Y-119650000D03*
%TD*%
D12*
%TO.C,U1*%
X129455000Y-82275000D03*
X126915000Y-82275000D03*
X124375000Y-82275000D03*
X121835000Y-82275000D03*
X119295000Y-82275000D03*
X116755000Y-82275000D03*
X114215000Y-82275000D03*
X111675000Y-82275000D03*
X109135000Y-82275000D03*
X106595000Y-82275000D03*
X104055000Y-82275000D03*
X101515000Y-82275000D03*
X98975000Y-82275000D03*
X96435000Y-82275000D03*
X93895000Y-82275000D03*
X91355000Y-82275000D03*
X88815000Y-82275000D03*
X86275000Y-82275000D03*
X83735000Y-82275000D03*
X81195000Y-82275000D03*
X129455000Y-99675000D03*
X126915000Y-99675000D03*
X124375000Y-99675000D03*
X121835000Y-99675000D03*
X119295000Y-99675000D03*
X116755000Y-99675000D03*
X114215000Y-99675000D03*
X111675000Y-99675000D03*
X109135000Y-99675000D03*
X106595000Y-99675000D03*
X104055000Y-99675000D03*
X101515000Y-99675000D03*
X98975000Y-99675000D03*
X96435000Y-99675000D03*
X93895000Y-99675000D03*
X91355000Y-99675000D03*
X88815000Y-99675000D03*
X86275000Y-99675000D03*
X83735000Y-99675000D03*
X81195000Y-99675000D03*
%TD*%
D10*
%TO.C,D4*%
X104550000Y-119500000D03*
X104550000Y-121000000D03*
X110000000Y-121000000D03*
X110000000Y-119500000D03*
%TD*%
M02*
