%TF.GenerationSoftware,KiCad,Pcbnew,10.0.5*%
%TF.CreationDate,2026-07-27T22:38:38+02:00*%
%TF.ProjectId,learsim pcbs,6c656172-7369-46d2-9070-6362732e6b69,rev?*%
%TF.SameCoordinates,Original*%
%TF.FileFunction,Legend,Top*%
%TF.FilePolarity,Positive*%
%FSLAX46Y46*%
G04 Gerber Fmt 4.6, Leading zero omitted, Abs format (unit mm)*
G04 Created by KiCad (PCBNEW 10.0.5) date 2026-07-27 22:38:38*
%MOMM*%
%LPD*%
G01*
G04 APERTURE LIST*
%ADD10C,0.100000*%
%ADD11C,0.150000*%
%ADD12C,0.120000*%
%ADD13C,0.450000*%
%ADD14C,0.250000*%
%ADD15C,0.060000*%
G04 APERTURE END LIST*
D10*
X22845752Y-76961353D02*
X23512419Y-76723258D01*
X23512419Y-76723258D02*
X22845752Y-76485163D01*
X23512419Y-75580401D02*
X23512419Y-76151829D01*
X23512419Y-75866115D02*
X22512419Y-75866115D01*
X22512419Y-75866115D02*
X22655276Y-75961353D01*
X22655276Y-75961353D02*
X22750514Y-76056591D01*
X22750514Y-76056591D02*
X22798133Y-76151829D01*
X23417180Y-75151829D02*
X23464800Y-75104210D01*
X23464800Y-75104210D02*
X23512419Y-75151829D01*
X23512419Y-75151829D02*
X23464800Y-75199448D01*
X23464800Y-75199448D02*
X23417180Y-75151829D01*
X23417180Y-75151829D02*
X23512419Y-75151829D01*
X22512419Y-74485163D02*
X22512419Y-74389925D01*
X22512419Y-74389925D02*
X22560038Y-74294687D01*
X22560038Y-74294687D02*
X22607657Y-74247068D01*
X22607657Y-74247068D02*
X22702895Y-74199449D01*
X22702895Y-74199449D02*
X22893371Y-74151830D01*
X22893371Y-74151830D02*
X23131466Y-74151830D01*
X23131466Y-74151830D02*
X23321942Y-74199449D01*
X23321942Y-74199449D02*
X23417180Y-74247068D01*
X23417180Y-74247068D02*
X23464800Y-74294687D01*
X23464800Y-74294687D02*
X23512419Y-74389925D01*
X23512419Y-74389925D02*
X23512419Y-74485163D01*
X23512419Y-74485163D02*
X23464800Y-74580401D01*
X23464800Y-74580401D02*
X23417180Y-74628020D01*
X23417180Y-74628020D02*
X23321942Y-74675639D01*
X23321942Y-74675639D02*
X23131466Y-74723258D01*
X23131466Y-74723258D02*
X22893371Y-74723258D01*
X22893371Y-74723258D02*
X22702895Y-74675639D01*
X22702895Y-74675639D02*
X22607657Y-74628020D01*
X22607657Y-74628020D02*
X22560038Y-74580401D01*
X22560038Y-74580401D02*
X22512419Y-74485163D01*
X25082419Y-79999925D02*
X25082419Y-80476115D01*
X25082419Y-80476115D02*
X24082419Y-80476115D01*
X25034800Y-79285639D02*
X25082419Y-79380877D01*
X25082419Y-79380877D02*
X25082419Y-79571353D01*
X25082419Y-79571353D02*
X25034800Y-79666591D01*
X25034800Y-79666591D02*
X24939561Y-79714210D01*
X24939561Y-79714210D02*
X24558609Y-79714210D01*
X24558609Y-79714210D02*
X24463371Y-79666591D01*
X24463371Y-79666591D02*
X24415752Y-79571353D01*
X24415752Y-79571353D02*
X24415752Y-79380877D01*
X24415752Y-79380877D02*
X24463371Y-79285639D01*
X24463371Y-79285639D02*
X24558609Y-79238020D01*
X24558609Y-79238020D02*
X24653847Y-79238020D01*
X24653847Y-79238020D02*
X24749085Y-79714210D01*
X25082419Y-78380877D02*
X24558609Y-78380877D01*
X24558609Y-78380877D02*
X24463371Y-78428496D01*
X24463371Y-78428496D02*
X24415752Y-78523734D01*
X24415752Y-78523734D02*
X24415752Y-78714210D01*
X24415752Y-78714210D02*
X24463371Y-78809448D01*
X25034800Y-78380877D02*
X25082419Y-78476115D01*
X25082419Y-78476115D02*
X25082419Y-78714210D01*
X25082419Y-78714210D02*
X25034800Y-78809448D01*
X25034800Y-78809448D02*
X24939561Y-78857067D01*
X24939561Y-78857067D02*
X24844323Y-78857067D01*
X24844323Y-78857067D02*
X24749085Y-78809448D01*
X24749085Y-78809448D02*
X24701466Y-78714210D01*
X24701466Y-78714210D02*
X24701466Y-78476115D01*
X24701466Y-78476115D02*
X24653847Y-78380877D01*
X25082419Y-77904686D02*
X24415752Y-77904686D01*
X24606228Y-77904686D02*
X24510990Y-77857067D01*
X24510990Y-77857067D02*
X24463371Y-77809448D01*
X24463371Y-77809448D02*
X24415752Y-77714210D01*
X24415752Y-77714210D02*
X24415752Y-77618972D01*
X25034800Y-77333257D02*
X25082419Y-77238019D01*
X25082419Y-77238019D02*
X25082419Y-77047543D01*
X25082419Y-77047543D02*
X25034800Y-76952305D01*
X25034800Y-76952305D02*
X24939561Y-76904686D01*
X24939561Y-76904686D02*
X24891942Y-76904686D01*
X24891942Y-76904686D02*
X24796704Y-76952305D01*
X24796704Y-76952305D02*
X24749085Y-77047543D01*
X24749085Y-77047543D02*
X24749085Y-77190400D01*
X24749085Y-77190400D02*
X24701466Y-77285638D01*
X24701466Y-77285638D02*
X24606228Y-77333257D01*
X24606228Y-77333257D02*
X24558609Y-77333257D01*
X24558609Y-77333257D02*
X24463371Y-77285638D01*
X24463371Y-77285638D02*
X24415752Y-77190400D01*
X24415752Y-77190400D02*
X24415752Y-77047543D01*
X24415752Y-77047543D02*
X24463371Y-76952305D01*
X25082419Y-76476114D02*
X24415752Y-76476114D01*
X24082419Y-76476114D02*
X24130038Y-76523733D01*
X24130038Y-76523733D02*
X24177657Y-76476114D01*
X24177657Y-76476114D02*
X24130038Y-76428495D01*
X24130038Y-76428495D02*
X24082419Y-76476114D01*
X24082419Y-76476114D02*
X24177657Y-76476114D01*
X25082419Y-75999924D02*
X24415752Y-75999924D01*
X24510990Y-75999924D02*
X24463371Y-75952305D01*
X24463371Y-75952305D02*
X24415752Y-75857067D01*
X24415752Y-75857067D02*
X24415752Y-75714210D01*
X24415752Y-75714210D02*
X24463371Y-75618972D01*
X24463371Y-75618972D02*
X24558609Y-75571353D01*
X24558609Y-75571353D02*
X25082419Y-75571353D01*
X24558609Y-75571353D02*
X24463371Y-75523734D01*
X24463371Y-75523734D02*
X24415752Y-75428496D01*
X24415752Y-75428496D02*
X24415752Y-75285639D01*
X24415752Y-75285639D02*
X24463371Y-75190400D01*
X24463371Y-75190400D02*
X24558609Y-75142781D01*
X24558609Y-75142781D02*
X25082419Y-75142781D01*
X24177657Y-73952305D02*
X24130038Y-73904686D01*
X24130038Y-73904686D02*
X24082419Y-73809448D01*
X24082419Y-73809448D02*
X24082419Y-73571353D01*
X24082419Y-73571353D02*
X24130038Y-73476115D01*
X24130038Y-73476115D02*
X24177657Y-73428496D01*
X24177657Y-73428496D02*
X24272895Y-73380877D01*
X24272895Y-73380877D02*
X24368133Y-73380877D01*
X24368133Y-73380877D02*
X24510990Y-73428496D01*
X24510990Y-73428496D02*
X25082419Y-73999924D01*
X25082419Y-73999924D02*
X25082419Y-73380877D01*
X24082419Y-72761829D02*
X24082419Y-72666591D01*
X24082419Y-72666591D02*
X24130038Y-72571353D01*
X24130038Y-72571353D02*
X24177657Y-72523734D01*
X24177657Y-72523734D02*
X24272895Y-72476115D01*
X24272895Y-72476115D02*
X24463371Y-72428496D01*
X24463371Y-72428496D02*
X24701466Y-72428496D01*
X24701466Y-72428496D02*
X24891942Y-72476115D01*
X24891942Y-72476115D02*
X24987180Y-72523734D01*
X24987180Y-72523734D02*
X25034800Y-72571353D01*
X25034800Y-72571353D02*
X25082419Y-72666591D01*
X25082419Y-72666591D02*
X25082419Y-72761829D01*
X25082419Y-72761829D02*
X25034800Y-72857067D01*
X25034800Y-72857067D02*
X24987180Y-72904686D01*
X24987180Y-72904686D02*
X24891942Y-72952305D01*
X24891942Y-72952305D02*
X24701466Y-72999924D01*
X24701466Y-72999924D02*
X24463371Y-72999924D01*
X24463371Y-72999924D02*
X24272895Y-72952305D01*
X24272895Y-72952305D02*
X24177657Y-72904686D01*
X24177657Y-72904686D02*
X24130038Y-72857067D01*
X24130038Y-72857067D02*
X24082419Y-72761829D01*
X24177657Y-72047543D02*
X24130038Y-71999924D01*
X24130038Y-71999924D02*
X24082419Y-71904686D01*
X24082419Y-71904686D02*
X24082419Y-71666591D01*
X24082419Y-71666591D02*
X24130038Y-71571353D01*
X24130038Y-71571353D02*
X24177657Y-71523734D01*
X24177657Y-71523734D02*
X24272895Y-71476115D01*
X24272895Y-71476115D02*
X24368133Y-71476115D01*
X24368133Y-71476115D02*
X24510990Y-71523734D01*
X24510990Y-71523734D02*
X25082419Y-72095162D01*
X25082419Y-72095162D02*
X25082419Y-71476115D01*
X24082419Y-70618972D02*
X24082419Y-70809448D01*
X24082419Y-70809448D02*
X24130038Y-70904686D01*
X24130038Y-70904686D02*
X24177657Y-70952305D01*
X24177657Y-70952305D02*
X24320514Y-71047543D01*
X24320514Y-71047543D02*
X24510990Y-71095162D01*
X24510990Y-71095162D02*
X24891942Y-71095162D01*
X24891942Y-71095162D02*
X24987180Y-71047543D01*
X24987180Y-71047543D02*
X25034800Y-70999924D01*
X25034800Y-70999924D02*
X25082419Y-70904686D01*
X25082419Y-70904686D02*
X25082419Y-70714210D01*
X25082419Y-70714210D02*
X25034800Y-70618972D01*
X25034800Y-70618972D02*
X24987180Y-70571353D01*
X24987180Y-70571353D02*
X24891942Y-70523734D01*
X24891942Y-70523734D02*
X24653847Y-70523734D01*
X24653847Y-70523734D02*
X24558609Y-70571353D01*
X24558609Y-70571353D02*
X24510990Y-70618972D01*
X24510990Y-70618972D02*
X24463371Y-70714210D01*
X24463371Y-70714210D02*
X24463371Y-70904686D01*
X24463371Y-70904686D02*
X24510990Y-70999924D01*
X24510990Y-70999924D02*
X24558609Y-71047543D01*
X24558609Y-71047543D02*
X24653847Y-71095162D01*
X26832419Y-79904687D02*
X26356228Y-80238020D01*
X26832419Y-80476115D02*
X25832419Y-80476115D01*
X25832419Y-80476115D02*
X25832419Y-80095163D01*
X25832419Y-80095163D02*
X25880038Y-79999925D01*
X25880038Y-79999925D02*
X25927657Y-79952306D01*
X25927657Y-79952306D02*
X26022895Y-79904687D01*
X26022895Y-79904687D02*
X26165752Y-79904687D01*
X26165752Y-79904687D02*
X26260990Y-79952306D01*
X26260990Y-79952306D02*
X26308609Y-79999925D01*
X26308609Y-79999925D02*
X26356228Y-80095163D01*
X26356228Y-80095163D02*
X26356228Y-80476115D01*
X26832419Y-79047544D02*
X26308609Y-79047544D01*
X26308609Y-79047544D02*
X26213371Y-79095163D01*
X26213371Y-79095163D02*
X26165752Y-79190401D01*
X26165752Y-79190401D02*
X26165752Y-79380877D01*
X26165752Y-79380877D02*
X26213371Y-79476115D01*
X26784800Y-79047544D02*
X26832419Y-79142782D01*
X26832419Y-79142782D02*
X26832419Y-79380877D01*
X26832419Y-79380877D02*
X26784800Y-79476115D01*
X26784800Y-79476115D02*
X26689561Y-79523734D01*
X26689561Y-79523734D02*
X26594323Y-79523734D01*
X26594323Y-79523734D02*
X26499085Y-79476115D01*
X26499085Y-79476115D02*
X26451466Y-79380877D01*
X26451466Y-79380877D02*
X26451466Y-79142782D01*
X26451466Y-79142782D02*
X26403847Y-79047544D01*
X26832419Y-78142782D02*
X25832419Y-78142782D01*
X26784800Y-78142782D02*
X26832419Y-78238020D01*
X26832419Y-78238020D02*
X26832419Y-78428496D01*
X26832419Y-78428496D02*
X26784800Y-78523734D01*
X26784800Y-78523734D02*
X26737180Y-78571353D01*
X26737180Y-78571353D02*
X26641942Y-78618972D01*
X26641942Y-78618972D02*
X26356228Y-78618972D01*
X26356228Y-78618972D02*
X26260990Y-78571353D01*
X26260990Y-78571353D02*
X26213371Y-78523734D01*
X26213371Y-78523734D02*
X26165752Y-78428496D01*
X26165752Y-78428496D02*
X26165752Y-78238020D01*
X26165752Y-78238020D02*
X26213371Y-78142782D01*
X26832419Y-77666591D02*
X26165752Y-77666591D01*
X25832419Y-77666591D02*
X25880038Y-77714210D01*
X25880038Y-77714210D02*
X25927657Y-77666591D01*
X25927657Y-77666591D02*
X25880038Y-77618972D01*
X25880038Y-77618972D02*
X25832419Y-77666591D01*
X25832419Y-77666591D02*
X25927657Y-77666591D01*
X26832419Y-77047544D02*
X26784800Y-77142782D01*
X26784800Y-77142782D02*
X26737180Y-77190401D01*
X26737180Y-77190401D02*
X26641942Y-77238020D01*
X26641942Y-77238020D02*
X26356228Y-77238020D01*
X26356228Y-77238020D02*
X26260990Y-77190401D01*
X26260990Y-77190401D02*
X26213371Y-77142782D01*
X26213371Y-77142782D02*
X26165752Y-77047544D01*
X26165752Y-77047544D02*
X26165752Y-76904687D01*
X26165752Y-76904687D02*
X26213371Y-76809449D01*
X26213371Y-76809449D02*
X26260990Y-76761830D01*
X26260990Y-76761830D02*
X26356228Y-76714211D01*
X26356228Y-76714211D02*
X26641942Y-76714211D01*
X26641942Y-76714211D02*
X26737180Y-76761830D01*
X26737180Y-76761830D02*
X26784800Y-76809449D01*
X26784800Y-76809449D02*
X26832419Y-76904687D01*
X26832419Y-76904687D02*
X26832419Y-77047544D01*
X26832419Y-75523734D02*
X25832419Y-75523734D01*
X25832419Y-75523734D02*
X25832419Y-75142782D01*
X25832419Y-75142782D02*
X25880038Y-75047544D01*
X25880038Y-75047544D02*
X25927657Y-74999925D01*
X25927657Y-74999925D02*
X26022895Y-74952306D01*
X26022895Y-74952306D02*
X26165752Y-74952306D01*
X26165752Y-74952306D02*
X26260990Y-74999925D01*
X26260990Y-74999925D02*
X26308609Y-75047544D01*
X26308609Y-75047544D02*
X26356228Y-75142782D01*
X26356228Y-75142782D02*
X26356228Y-75523734D01*
X26832419Y-74095163D02*
X26308609Y-74095163D01*
X26308609Y-74095163D02*
X26213371Y-74142782D01*
X26213371Y-74142782D02*
X26165752Y-74238020D01*
X26165752Y-74238020D02*
X26165752Y-74428496D01*
X26165752Y-74428496D02*
X26213371Y-74523734D01*
X26784800Y-74095163D02*
X26832419Y-74190401D01*
X26832419Y-74190401D02*
X26832419Y-74428496D01*
X26832419Y-74428496D02*
X26784800Y-74523734D01*
X26784800Y-74523734D02*
X26689561Y-74571353D01*
X26689561Y-74571353D02*
X26594323Y-74571353D01*
X26594323Y-74571353D02*
X26499085Y-74523734D01*
X26499085Y-74523734D02*
X26451466Y-74428496D01*
X26451466Y-74428496D02*
X26451466Y-74190401D01*
X26451466Y-74190401D02*
X26403847Y-74095163D01*
X26165752Y-73618972D02*
X26832419Y-73618972D01*
X26260990Y-73618972D02*
X26213371Y-73571353D01*
X26213371Y-73571353D02*
X26165752Y-73476115D01*
X26165752Y-73476115D02*
X26165752Y-73333258D01*
X26165752Y-73333258D02*
X26213371Y-73238020D01*
X26213371Y-73238020D02*
X26308609Y-73190401D01*
X26308609Y-73190401D02*
X26832419Y-73190401D01*
X26784800Y-72333258D02*
X26832419Y-72428496D01*
X26832419Y-72428496D02*
X26832419Y-72618972D01*
X26832419Y-72618972D02*
X26784800Y-72714210D01*
X26784800Y-72714210D02*
X26689561Y-72761829D01*
X26689561Y-72761829D02*
X26308609Y-72761829D01*
X26308609Y-72761829D02*
X26213371Y-72714210D01*
X26213371Y-72714210D02*
X26165752Y-72618972D01*
X26165752Y-72618972D02*
X26165752Y-72428496D01*
X26165752Y-72428496D02*
X26213371Y-72333258D01*
X26213371Y-72333258D02*
X26308609Y-72285639D01*
X26308609Y-72285639D02*
X26403847Y-72285639D01*
X26403847Y-72285639D02*
X26499085Y-72761829D01*
X26832419Y-71714210D02*
X26784800Y-71809448D01*
X26784800Y-71809448D02*
X26689561Y-71857067D01*
X26689561Y-71857067D02*
X25832419Y-71857067D01*
X28296704Y-80273734D02*
X28296704Y-79797544D01*
X28582419Y-80368972D02*
X27582419Y-80035639D01*
X27582419Y-80035639D02*
X28582419Y-79702306D01*
X28582419Y-79464210D02*
X27915752Y-78940401D01*
X27915752Y-79464210D02*
X28582419Y-78940401D01*
X28534800Y-78178496D02*
X28582419Y-78273734D01*
X28582419Y-78273734D02*
X28582419Y-78464210D01*
X28582419Y-78464210D02*
X28534800Y-78559448D01*
X28534800Y-78559448D02*
X28439561Y-78607067D01*
X28439561Y-78607067D02*
X28058609Y-78607067D01*
X28058609Y-78607067D02*
X27963371Y-78559448D01*
X27963371Y-78559448D02*
X27915752Y-78464210D01*
X27915752Y-78464210D02*
X27915752Y-78273734D01*
X27915752Y-78273734D02*
X27963371Y-78178496D01*
X27963371Y-78178496D02*
X28058609Y-78130877D01*
X28058609Y-78130877D02*
X28153847Y-78130877D01*
X28153847Y-78130877D02*
X28249085Y-78607067D01*
X28582419Y-77559448D02*
X28534800Y-77654686D01*
X28534800Y-77654686D02*
X28439561Y-77702305D01*
X28439561Y-77702305D02*
X27582419Y-77702305D01*
X28582419Y-76416590D02*
X27582419Y-76416590D01*
X27582419Y-76416590D02*
X27582419Y-76178495D01*
X27582419Y-76178495D02*
X27630038Y-76035638D01*
X27630038Y-76035638D02*
X27725276Y-75940400D01*
X27725276Y-75940400D02*
X27820514Y-75892781D01*
X27820514Y-75892781D02*
X28010990Y-75845162D01*
X28010990Y-75845162D02*
X28153847Y-75845162D01*
X28153847Y-75845162D02*
X28344323Y-75892781D01*
X28344323Y-75892781D02*
X28439561Y-75940400D01*
X28439561Y-75940400D02*
X28534800Y-76035638D01*
X28534800Y-76035638D02*
X28582419Y-76178495D01*
X28582419Y-76178495D02*
X28582419Y-76416590D01*
X28582419Y-75416590D02*
X27915752Y-75416590D01*
X28106228Y-75416590D02*
X28010990Y-75368971D01*
X28010990Y-75368971D02*
X27963371Y-75321352D01*
X27963371Y-75321352D02*
X27915752Y-75226114D01*
X27915752Y-75226114D02*
X27915752Y-75130876D01*
X28582419Y-74368971D02*
X28058609Y-74368971D01*
X28058609Y-74368971D02*
X27963371Y-74416590D01*
X27963371Y-74416590D02*
X27915752Y-74511828D01*
X27915752Y-74511828D02*
X27915752Y-74702304D01*
X27915752Y-74702304D02*
X27963371Y-74797542D01*
X28534800Y-74368971D02*
X28582419Y-74464209D01*
X28582419Y-74464209D02*
X28582419Y-74702304D01*
X28582419Y-74702304D02*
X28534800Y-74797542D01*
X28534800Y-74797542D02*
X28439561Y-74845161D01*
X28439561Y-74845161D02*
X28344323Y-74845161D01*
X28344323Y-74845161D02*
X28249085Y-74797542D01*
X28249085Y-74797542D02*
X28201466Y-74702304D01*
X28201466Y-74702304D02*
X28201466Y-74464209D01*
X28201466Y-74464209D02*
X28153847Y-74368971D01*
X27915752Y-73988018D02*
X28582419Y-73797542D01*
X28582419Y-73797542D02*
X28106228Y-73607066D01*
X28106228Y-73607066D02*
X28582419Y-73416590D01*
X28582419Y-73416590D02*
X27915752Y-73226114D01*
X28534800Y-72892780D02*
X28582419Y-72797542D01*
X28582419Y-72797542D02*
X28582419Y-72607066D01*
X28582419Y-72607066D02*
X28534800Y-72511828D01*
X28534800Y-72511828D02*
X28439561Y-72464209D01*
X28439561Y-72464209D02*
X28391942Y-72464209D01*
X28391942Y-72464209D02*
X28296704Y-72511828D01*
X28296704Y-72511828D02*
X28249085Y-72607066D01*
X28249085Y-72607066D02*
X28249085Y-72749923D01*
X28249085Y-72749923D02*
X28201466Y-72845161D01*
X28201466Y-72845161D02*
X28106228Y-72892780D01*
X28106228Y-72892780D02*
X28058609Y-72892780D01*
X28058609Y-72892780D02*
X27963371Y-72845161D01*
X27963371Y-72845161D02*
X27915752Y-72749923D01*
X27915752Y-72749923D02*
X27915752Y-72607066D01*
X27915752Y-72607066D02*
X27963371Y-72511828D01*
D11*
X105530952Y-107594819D02*
X105530952Y-106594819D01*
X105530952Y-106594819D02*
X106102380Y-107594819D01*
X106102380Y-107594819D02*
X106102380Y-106594819D01*
X106530952Y-107309104D02*
X107007142Y-107309104D01*
X106435714Y-107594819D02*
X106769047Y-106594819D01*
X106769047Y-106594819D02*
X107102380Y-107594819D01*
X107292857Y-106594819D02*
X107626190Y-107594819D01*
X107626190Y-107594819D02*
X107959523Y-106594819D01*
X108245238Y-106690057D02*
X108292857Y-106642438D01*
X108292857Y-106642438D02*
X108388095Y-106594819D01*
X108388095Y-106594819D02*
X108626190Y-106594819D01*
X108626190Y-106594819D02*
X108721428Y-106642438D01*
X108721428Y-106642438D02*
X108769047Y-106690057D01*
X108769047Y-106690057D02*
X108816666Y-106785295D01*
X108816666Y-106785295D02*
X108816666Y-106880533D01*
X108816666Y-106880533D02*
X108769047Y-107023390D01*
X108769047Y-107023390D02*
X108197619Y-107594819D01*
X108197619Y-107594819D02*
X108816666Y-107594819D01*
X48129524Y-61217200D02*
X48272381Y-61264819D01*
X48272381Y-61264819D02*
X48510476Y-61264819D01*
X48510476Y-61264819D02*
X48605714Y-61217200D01*
X48605714Y-61217200D02*
X48653333Y-61169580D01*
X48653333Y-61169580D02*
X48700952Y-61074342D01*
X48700952Y-61074342D02*
X48700952Y-60979104D01*
X48700952Y-60979104D02*
X48653333Y-60883866D01*
X48653333Y-60883866D02*
X48605714Y-60836247D01*
X48605714Y-60836247D02*
X48510476Y-60788628D01*
X48510476Y-60788628D02*
X48320000Y-60741009D01*
X48320000Y-60741009D02*
X48224762Y-60693390D01*
X48224762Y-60693390D02*
X48177143Y-60645771D01*
X48177143Y-60645771D02*
X48129524Y-60550533D01*
X48129524Y-60550533D02*
X48129524Y-60455295D01*
X48129524Y-60455295D02*
X48177143Y-60360057D01*
X48177143Y-60360057D02*
X48224762Y-60312438D01*
X48224762Y-60312438D02*
X48320000Y-60264819D01*
X48320000Y-60264819D02*
X48558095Y-60264819D01*
X48558095Y-60264819D02*
X48700952Y-60312438D01*
X49034286Y-60598152D02*
X49224762Y-61264819D01*
X49224762Y-61264819D02*
X49415238Y-60788628D01*
X49415238Y-60788628D02*
X49605714Y-61264819D01*
X49605714Y-61264819D02*
X49796190Y-60598152D01*
X50177143Y-61264819D02*
X50177143Y-60598152D01*
X50177143Y-60264819D02*
X50129524Y-60312438D01*
X50129524Y-60312438D02*
X50177143Y-60360057D01*
X50177143Y-60360057D02*
X50224762Y-60312438D01*
X50224762Y-60312438D02*
X50177143Y-60264819D01*
X50177143Y-60264819D02*
X50177143Y-60360057D01*
X50510476Y-60598152D02*
X50891428Y-60598152D01*
X50653333Y-60264819D02*
X50653333Y-61121961D01*
X50653333Y-61121961D02*
X50700952Y-61217200D01*
X50700952Y-61217200D02*
X50796190Y-61264819D01*
X50796190Y-61264819D02*
X50891428Y-61264819D01*
X51653333Y-61217200D02*
X51558095Y-61264819D01*
X51558095Y-61264819D02*
X51367619Y-61264819D01*
X51367619Y-61264819D02*
X51272381Y-61217200D01*
X51272381Y-61217200D02*
X51224762Y-61169580D01*
X51224762Y-61169580D02*
X51177143Y-61074342D01*
X51177143Y-61074342D02*
X51177143Y-60788628D01*
X51177143Y-60788628D02*
X51224762Y-60693390D01*
X51224762Y-60693390D02*
X51272381Y-60645771D01*
X51272381Y-60645771D02*
X51367619Y-60598152D01*
X51367619Y-60598152D02*
X51558095Y-60598152D01*
X51558095Y-60598152D02*
X51653333Y-60645771D01*
X52081905Y-61264819D02*
X52081905Y-60264819D01*
X52510476Y-61264819D02*
X52510476Y-60741009D01*
X52510476Y-60741009D02*
X52462857Y-60645771D01*
X52462857Y-60645771D02*
X52367619Y-60598152D01*
X52367619Y-60598152D02*
X52224762Y-60598152D01*
X52224762Y-60598152D02*
X52129524Y-60645771D01*
X52129524Y-60645771D02*
X52081905Y-60693390D01*
X53510476Y-61264819D02*
X52939048Y-61264819D01*
X53224762Y-61264819D02*
X53224762Y-60264819D01*
X53224762Y-60264819D02*
X53129524Y-60407676D01*
X53129524Y-60407676D02*
X53034286Y-60502914D01*
X53034286Y-60502914D02*
X52939048Y-60550533D01*
X31304819Y-52256904D02*
X32114342Y-52256904D01*
X32114342Y-52256904D02*
X32209580Y-52209285D01*
X32209580Y-52209285D02*
X32257200Y-52161666D01*
X32257200Y-52161666D02*
X32304819Y-52066428D01*
X32304819Y-52066428D02*
X32304819Y-51875952D01*
X32304819Y-51875952D02*
X32257200Y-51780714D01*
X32257200Y-51780714D02*
X32209580Y-51733095D01*
X32209580Y-51733095D02*
X32114342Y-51685476D01*
X32114342Y-51685476D02*
X31304819Y-51685476D01*
X31304819Y-51304523D02*
X31304819Y-50685476D01*
X31304819Y-50685476D02*
X31685771Y-51018809D01*
X31685771Y-51018809D02*
X31685771Y-50875952D01*
X31685771Y-50875952D02*
X31733390Y-50780714D01*
X31733390Y-50780714D02*
X31781009Y-50733095D01*
X31781009Y-50733095D02*
X31876247Y-50685476D01*
X31876247Y-50685476D02*
X32114342Y-50685476D01*
X32114342Y-50685476D02*
X32209580Y-50733095D01*
X32209580Y-50733095D02*
X32257200Y-50780714D01*
X32257200Y-50780714D02*
X32304819Y-50875952D01*
X32304819Y-50875952D02*
X32304819Y-51161666D01*
X32304819Y-51161666D02*
X32257200Y-51256904D01*
X32257200Y-51256904D02*
X32209580Y-51304523D01*
X49405714Y-28344819D02*
X49405714Y-27344819D01*
X49405714Y-27344819D02*
X49643809Y-27344819D01*
X49643809Y-27344819D02*
X49786666Y-27392438D01*
X49786666Y-27392438D02*
X49881904Y-27487676D01*
X49881904Y-27487676D02*
X49929523Y-27582914D01*
X49929523Y-27582914D02*
X49977142Y-27773390D01*
X49977142Y-27773390D02*
X49977142Y-27916247D01*
X49977142Y-27916247D02*
X49929523Y-28106723D01*
X49929523Y-28106723D02*
X49881904Y-28201961D01*
X49881904Y-28201961D02*
X49786666Y-28297200D01*
X49786666Y-28297200D02*
X49643809Y-28344819D01*
X49643809Y-28344819D02*
X49405714Y-28344819D01*
X50358095Y-28297200D02*
X50500952Y-28344819D01*
X50500952Y-28344819D02*
X50739047Y-28344819D01*
X50739047Y-28344819D02*
X50834285Y-28297200D01*
X50834285Y-28297200D02*
X50881904Y-28249580D01*
X50881904Y-28249580D02*
X50929523Y-28154342D01*
X50929523Y-28154342D02*
X50929523Y-28059104D01*
X50929523Y-28059104D02*
X50881904Y-27963866D01*
X50881904Y-27963866D02*
X50834285Y-27916247D01*
X50834285Y-27916247D02*
X50739047Y-27868628D01*
X50739047Y-27868628D02*
X50548571Y-27821009D01*
X50548571Y-27821009D02*
X50453333Y-27773390D01*
X50453333Y-27773390D02*
X50405714Y-27725771D01*
X50405714Y-27725771D02*
X50358095Y-27630533D01*
X50358095Y-27630533D02*
X50358095Y-27535295D01*
X50358095Y-27535295D02*
X50405714Y-27440057D01*
X50405714Y-27440057D02*
X50453333Y-27392438D01*
X50453333Y-27392438D02*
X50548571Y-27344819D01*
X50548571Y-27344819D02*
X50786666Y-27344819D01*
X50786666Y-27344819D02*
X50929523Y-27392438D01*
X51881904Y-28344819D02*
X51310476Y-28344819D01*
X51596190Y-28344819D02*
X51596190Y-27344819D01*
X51596190Y-27344819D02*
X51500952Y-27487676D01*
X51500952Y-27487676D02*
X51405714Y-27582914D01*
X51405714Y-27582914D02*
X51310476Y-27630533D01*
X38767200Y-93333332D02*
X38814819Y-93190475D01*
X38814819Y-93190475D02*
X38814819Y-92952380D01*
X38814819Y-92952380D02*
X38767200Y-92857142D01*
X38767200Y-92857142D02*
X38719580Y-92809523D01*
X38719580Y-92809523D02*
X38624342Y-92761904D01*
X38624342Y-92761904D02*
X38529104Y-92761904D01*
X38529104Y-92761904D02*
X38433866Y-92809523D01*
X38433866Y-92809523D02*
X38386247Y-92857142D01*
X38386247Y-92857142D02*
X38338628Y-92952380D01*
X38338628Y-92952380D02*
X38291009Y-93142856D01*
X38291009Y-93142856D02*
X38243390Y-93238094D01*
X38243390Y-93238094D02*
X38195771Y-93285713D01*
X38195771Y-93285713D02*
X38100533Y-93333332D01*
X38100533Y-93333332D02*
X38005295Y-93333332D01*
X38005295Y-93333332D02*
X37910057Y-93285713D01*
X37910057Y-93285713D02*
X37862438Y-93238094D01*
X37862438Y-93238094D02*
X37814819Y-93142856D01*
X37814819Y-93142856D02*
X37814819Y-92904761D01*
X37814819Y-92904761D02*
X37862438Y-92761904D01*
X37814819Y-92428570D02*
X38814819Y-92190475D01*
X38814819Y-92190475D02*
X38100533Y-91999999D01*
X38100533Y-91999999D02*
X38814819Y-91809523D01*
X38814819Y-91809523D02*
X37814819Y-91571428D01*
X37814819Y-91285713D02*
X37814819Y-90666666D01*
X37814819Y-90666666D02*
X38195771Y-90999999D01*
X38195771Y-90999999D02*
X38195771Y-90857142D01*
X38195771Y-90857142D02*
X38243390Y-90761904D01*
X38243390Y-90761904D02*
X38291009Y-90714285D01*
X38291009Y-90714285D02*
X38386247Y-90666666D01*
X38386247Y-90666666D02*
X38624342Y-90666666D01*
X38624342Y-90666666D02*
X38719580Y-90714285D01*
X38719580Y-90714285D02*
X38767200Y-90761904D01*
X38767200Y-90761904D02*
X38814819Y-90857142D01*
X38814819Y-90857142D02*
X38814819Y-91142856D01*
X38814819Y-91142856D02*
X38767200Y-91238094D01*
X38767200Y-91238094D02*
X38719580Y-91285713D01*
X96714819Y-52571904D02*
X97524342Y-52571904D01*
X97524342Y-52571904D02*
X97619580Y-52524285D01*
X97619580Y-52524285D02*
X97667200Y-52476666D01*
X97667200Y-52476666D02*
X97714819Y-52381428D01*
X97714819Y-52381428D02*
X97714819Y-52190952D01*
X97714819Y-52190952D02*
X97667200Y-52095714D01*
X97667200Y-52095714D02*
X97619580Y-52048095D01*
X97619580Y-52048095D02*
X97524342Y-52000476D01*
X97524342Y-52000476D02*
X96714819Y-52000476D01*
X96810057Y-51571904D02*
X96762438Y-51524285D01*
X96762438Y-51524285D02*
X96714819Y-51429047D01*
X96714819Y-51429047D02*
X96714819Y-51190952D01*
X96714819Y-51190952D02*
X96762438Y-51095714D01*
X96762438Y-51095714D02*
X96810057Y-51048095D01*
X96810057Y-51048095D02*
X96905295Y-51000476D01*
X96905295Y-51000476D02*
X97000533Y-51000476D01*
X97000533Y-51000476D02*
X97143390Y-51048095D01*
X97143390Y-51048095D02*
X97714819Y-51619523D01*
X97714819Y-51619523D02*
X97714819Y-51000476D01*
X80390952Y-107634819D02*
X80390952Y-106634819D01*
X80390952Y-106634819D02*
X80962380Y-107634819D01*
X80962380Y-107634819D02*
X80962380Y-106634819D01*
X81390952Y-107349104D02*
X81867142Y-107349104D01*
X81295714Y-107634819D02*
X81629047Y-106634819D01*
X81629047Y-106634819D02*
X81962380Y-107634819D01*
X82152857Y-106634819D02*
X82486190Y-107634819D01*
X82486190Y-107634819D02*
X82819523Y-106634819D01*
X83676666Y-107634819D02*
X83105238Y-107634819D01*
X83390952Y-107634819D02*
X83390952Y-106634819D01*
X83390952Y-106634819D02*
X83295714Y-106777676D01*
X83295714Y-106777676D02*
X83200476Y-106872914D01*
X83200476Y-106872914D02*
X83105238Y-106920533D01*
X62911905Y-89484819D02*
X62911905Y-88484819D01*
X62911905Y-88484819D02*
X63150000Y-88484819D01*
X63150000Y-88484819D02*
X63292857Y-88532438D01*
X63292857Y-88532438D02*
X63388095Y-88627676D01*
X63388095Y-88627676D02*
X63435714Y-88722914D01*
X63435714Y-88722914D02*
X63483333Y-88913390D01*
X63483333Y-88913390D02*
X63483333Y-89056247D01*
X63483333Y-89056247D02*
X63435714Y-89246723D01*
X63435714Y-89246723D02*
X63388095Y-89341961D01*
X63388095Y-89341961D02*
X63292857Y-89437200D01*
X63292857Y-89437200D02*
X63150000Y-89484819D01*
X63150000Y-89484819D02*
X62911905Y-89484819D01*
X64054762Y-88913390D02*
X63959524Y-88865771D01*
X63959524Y-88865771D02*
X63911905Y-88818152D01*
X63911905Y-88818152D02*
X63864286Y-88722914D01*
X63864286Y-88722914D02*
X63864286Y-88675295D01*
X63864286Y-88675295D02*
X63911905Y-88580057D01*
X63911905Y-88580057D02*
X63959524Y-88532438D01*
X63959524Y-88532438D02*
X64054762Y-88484819D01*
X64054762Y-88484819D02*
X64245238Y-88484819D01*
X64245238Y-88484819D02*
X64340476Y-88532438D01*
X64340476Y-88532438D02*
X64388095Y-88580057D01*
X64388095Y-88580057D02*
X64435714Y-88675295D01*
X64435714Y-88675295D02*
X64435714Y-88722914D01*
X64435714Y-88722914D02*
X64388095Y-88818152D01*
X64388095Y-88818152D02*
X64340476Y-88865771D01*
X64340476Y-88865771D02*
X64245238Y-88913390D01*
X64245238Y-88913390D02*
X64054762Y-88913390D01*
X64054762Y-88913390D02*
X63959524Y-88961009D01*
X63959524Y-88961009D02*
X63911905Y-89008628D01*
X63911905Y-89008628D02*
X63864286Y-89103866D01*
X63864286Y-89103866D02*
X63864286Y-89294342D01*
X63864286Y-89294342D02*
X63911905Y-89389580D01*
X63911905Y-89389580D02*
X63959524Y-89437200D01*
X63959524Y-89437200D02*
X64054762Y-89484819D01*
X64054762Y-89484819D02*
X64245238Y-89484819D01*
X64245238Y-89484819D02*
X64340476Y-89437200D01*
X64340476Y-89437200D02*
X64388095Y-89389580D01*
X64388095Y-89389580D02*
X64435714Y-89294342D01*
X64435714Y-89294342D02*
X64435714Y-89103866D01*
X64435714Y-89103866D02*
X64388095Y-89008628D01*
X64388095Y-89008628D02*
X64340476Y-88961009D01*
X64340476Y-88961009D02*
X64245238Y-88913390D01*
X129927143Y-107289104D02*
X130403333Y-107289104D01*
X129831905Y-107574819D02*
X130165238Y-106574819D01*
X130165238Y-106574819D02*
X130498571Y-107574819D01*
X130831905Y-107574819D02*
X130831905Y-106574819D01*
X130831905Y-106574819D02*
X131070000Y-106574819D01*
X131070000Y-106574819D02*
X131212857Y-106622438D01*
X131212857Y-106622438D02*
X131308095Y-106717676D01*
X131308095Y-106717676D02*
X131355714Y-106812914D01*
X131355714Y-106812914D02*
X131403333Y-107003390D01*
X131403333Y-107003390D02*
X131403333Y-107146247D01*
X131403333Y-107146247D02*
X131355714Y-107336723D01*
X131355714Y-107336723D02*
X131308095Y-107431961D01*
X131308095Y-107431961D02*
X131212857Y-107527200D01*
X131212857Y-107527200D02*
X131070000Y-107574819D01*
X131070000Y-107574819D02*
X130831905Y-107574819D01*
X132165238Y-107051009D02*
X131831905Y-107051009D01*
X131831905Y-107574819D02*
X131831905Y-106574819D01*
X131831905Y-106574819D02*
X132308095Y-106574819D01*
X133212857Y-107574819D02*
X132641429Y-107574819D01*
X132927143Y-107574819D02*
X132927143Y-106574819D01*
X132927143Y-106574819D02*
X132831905Y-106717676D01*
X132831905Y-106717676D02*
X132736667Y-106812914D01*
X132736667Y-106812914D02*
X132641429Y-106860533D01*
X112195714Y-28334819D02*
X112195714Y-27334819D01*
X112195714Y-27334819D02*
X112433809Y-27334819D01*
X112433809Y-27334819D02*
X112576666Y-27382438D01*
X112576666Y-27382438D02*
X112671904Y-27477676D01*
X112671904Y-27477676D02*
X112719523Y-27572914D01*
X112719523Y-27572914D02*
X112767142Y-27763390D01*
X112767142Y-27763390D02*
X112767142Y-27906247D01*
X112767142Y-27906247D02*
X112719523Y-28096723D01*
X112719523Y-28096723D02*
X112671904Y-28191961D01*
X112671904Y-28191961D02*
X112576666Y-28287200D01*
X112576666Y-28287200D02*
X112433809Y-28334819D01*
X112433809Y-28334819D02*
X112195714Y-28334819D01*
X113148095Y-28287200D02*
X113290952Y-28334819D01*
X113290952Y-28334819D02*
X113529047Y-28334819D01*
X113529047Y-28334819D02*
X113624285Y-28287200D01*
X113624285Y-28287200D02*
X113671904Y-28239580D01*
X113671904Y-28239580D02*
X113719523Y-28144342D01*
X113719523Y-28144342D02*
X113719523Y-28049104D01*
X113719523Y-28049104D02*
X113671904Y-27953866D01*
X113671904Y-27953866D02*
X113624285Y-27906247D01*
X113624285Y-27906247D02*
X113529047Y-27858628D01*
X113529047Y-27858628D02*
X113338571Y-27811009D01*
X113338571Y-27811009D02*
X113243333Y-27763390D01*
X113243333Y-27763390D02*
X113195714Y-27715771D01*
X113195714Y-27715771D02*
X113148095Y-27620533D01*
X113148095Y-27620533D02*
X113148095Y-27525295D01*
X113148095Y-27525295D02*
X113195714Y-27430057D01*
X113195714Y-27430057D02*
X113243333Y-27382438D01*
X113243333Y-27382438D02*
X113338571Y-27334819D01*
X113338571Y-27334819D02*
X113576666Y-27334819D01*
X113576666Y-27334819D02*
X113719523Y-27382438D01*
X114100476Y-27430057D02*
X114148095Y-27382438D01*
X114148095Y-27382438D02*
X114243333Y-27334819D01*
X114243333Y-27334819D02*
X114481428Y-27334819D01*
X114481428Y-27334819D02*
X114576666Y-27382438D01*
X114576666Y-27382438D02*
X114624285Y-27430057D01*
X114624285Y-27430057D02*
X114671904Y-27525295D01*
X114671904Y-27525295D02*
X114671904Y-27620533D01*
X114671904Y-27620533D02*
X114624285Y-27763390D01*
X114624285Y-27763390D02*
X114052857Y-28334819D01*
X114052857Y-28334819D02*
X114671904Y-28334819D01*
X96384167Y-65154700D02*
X96527024Y-65202319D01*
X96527024Y-65202319D02*
X96765119Y-65202319D01*
X96765119Y-65202319D02*
X96860357Y-65154700D01*
X96860357Y-65154700D02*
X96907976Y-65107080D01*
X96907976Y-65107080D02*
X96955595Y-65011842D01*
X96955595Y-65011842D02*
X96955595Y-64916604D01*
X96955595Y-64916604D02*
X96907976Y-64821366D01*
X96907976Y-64821366D02*
X96860357Y-64773747D01*
X96860357Y-64773747D02*
X96765119Y-64726128D01*
X96765119Y-64726128D02*
X96574643Y-64678509D01*
X96574643Y-64678509D02*
X96479405Y-64630890D01*
X96479405Y-64630890D02*
X96431786Y-64583271D01*
X96431786Y-64583271D02*
X96384167Y-64488033D01*
X96384167Y-64488033D02*
X96384167Y-64392795D01*
X96384167Y-64392795D02*
X96431786Y-64297557D01*
X96431786Y-64297557D02*
X96479405Y-64249938D01*
X96479405Y-64249938D02*
X96574643Y-64202319D01*
X96574643Y-64202319D02*
X96812738Y-64202319D01*
X96812738Y-64202319D02*
X96955595Y-64249938D01*
X97288929Y-64202319D02*
X97527024Y-65202319D01*
X97527024Y-65202319D02*
X97717500Y-64488033D01*
X97717500Y-64488033D02*
X97907976Y-65202319D01*
X97907976Y-65202319D02*
X98146072Y-64202319D01*
X99050833Y-65202319D02*
X98479405Y-65202319D01*
X98765119Y-65202319D02*
X98765119Y-64202319D01*
X98765119Y-64202319D02*
X98669881Y-64345176D01*
X98669881Y-64345176D02*
X98574643Y-64440414D01*
X98574643Y-64440414D02*
X98479405Y-64488033D01*
X26111905Y-89424819D02*
X26111905Y-88424819D01*
X26111905Y-88424819D02*
X26350000Y-88424819D01*
X26350000Y-88424819D02*
X26492857Y-88472438D01*
X26492857Y-88472438D02*
X26588095Y-88567676D01*
X26588095Y-88567676D02*
X26635714Y-88662914D01*
X26635714Y-88662914D02*
X26683333Y-88853390D01*
X26683333Y-88853390D02*
X26683333Y-88996247D01*
X26683333Y-88996247D02*
X26635714Y-89186723D01*
X26635714Y-89186723D02*
X26588095Y-89281961D01*
X26588095Y-89281961D02*
X26492857Y-89377200D01*
X26492857Y-89377200D02*
X26350000Y-89424819D01*
X26350000Y-89424819D02*
X26111905Y-89424819D01*
X27016667Y-88424819D02*
X27683333Y-88424819D01*
X27683333Y-88424819D02*
X27254762Y-89424819D01*
X55658095Y-107509580D02*
X55610476Y-107557200D01*
X55610476Y-107557200D02*
X55467619Y-107604819D01*
X55467619Y-107604819D02*
X55372381Y-107604819D01*
X55372381Y-107604819D02*
X55229524Y-107557200D01*
X55229524Y-107557200D02*
X55134286Y-107461961D01*
X55134286Y-107461961D02*
X55086667Y-107366723D01*
X55086667Y-107366723D02*
X55039048Y-107176247D01*
X55039048Y-107176247D02*
X55039048Y-107033390D01*
X55039048Y-107033390D02*
X55086667Y-106842914D01*
X55086667Y-106842914D02*
X55134286Y-106747676D01*
X55134286Y-106747676D02*
X55229524Y-106652438D01*
X55229524Y-106652438D02*
X55372381Y-106604819D01*
X55372381Y-106604819D02*
X55467619Y-106604819D01*
X55467619Y-106604819D02*
X55610476Y-106652438D01*
X55610476Y-106652438D02*
X55658095Y-106700057D01*
X56277143Y-106604819D02*
X56467619Y-106604819D01*
X56467619Y-106604819D02*
X56562857Y-106652438D01*
X56562857Y-106652438D02*
X56658095Y-106747676D01*
X56658095Y-106747676D02*
X56705714Y-106938152D01*
X56705714Y-106938152D02*
X56705714Y-107271485D01*
X56705714Y-107271485D02*
X56658095Y-107461961D01*
X56658095Y-107461961D02*
X56562857Y-107557200D01*
X56562857Y-107557200D02*
X56467619Y-107604819D01*
X56467619Y-107604819D02*
X56277143Y-107604819D01*
X56277143Y-107604819D02*
X56181905Y-107557200D01*
X56181905Y-107557200D02*
X56086667Y-107461961D01*
X56086667Y-107461961D02*
X56039048Y-107271485D01*
X56039048Y-107271485D02*
X56039048Y-106938152D01*
X56039048Y-106938152D02*
X56086667Y-106747676D01*
X56086667Y-106747676D02*
X56181905Y-106652438D01*
X56181905Y-106652438D02*
X56277143Y-106604819D01*
X57134286Y-107604819D02*
X57134286Y-106604819D01*
X57134286Y-106604819D02*
X57467619Y-107319104D01*
X57467619Y-107319104D02*
X57800952Y-106604819D01*
X57800952Y-106604819D02*
X57800952Y-107604819D01*
X58229524Y-106700057D02*
X58277143Y-106652438D01*
X58277143Y-106652438D02*
X58372381Y-106604819D01*
X58372381Y-106604819D02*
X58610476Y-106604819D01*
X58610476Y-106604819D02*
X58705714Y-106652438D01*
X58705714Y-106652438D02*
X58753333Y-106700057D01*
X58753333Y-106700057D02*
X58800952Y-106795295D01*
X58800952Y-106795295D02*
X58800952Y-106890533D01*
X58800952Y-106890533D02*
X58753333Y-107033390D01*
X58753333Y-107033390D02*
X58181905Y-107604819D01*
X58181905Y-107604819D02*
X58800952Y-107604819D01*
X31248095Y-107549580D02*
X31200476Y-107597200D01*
X31200476Y-107597200D02*
X31057619Y-107644819D01*
X31057619Y-107644819D02*
X30962381Y-107644819D01*
X30962381Y-107644819D02*
X30819524Y-107597200D01*
X30819524Y-107597200D02*
X30724286Y-107501961D01*
X30724286Y-107501961D02*
X30676667Y-107406723D01*
X30676667Y-107406723D02*
X30629048Y-107216247D01*
X30629048Y-107216247D02*
X30629048Y-107073390D01*
X30629048Y-107073390D02*
X30676667Y-106882914D01*
X30676667Y-106882914D02*
X30724286Y-106787676D01*
X30724286Y-106787676D02*
X30819524Y-106692438D01*
X30819524Y-106692438D02*
X30962381Y-106644819D01*
X30962381Y-106644819D02*
X31057619Y-106644819D01*
X31057619Y-106644819D02*
X31200476Y-106692438D01*
X31200476Y-106692438D02*
X31248095Y-106740057D01*
X31867143Y-106644819D02*
X32057619Y-106644819D01*
X32057619Y-106644819D02*
X32152857Y-106692438D01*
X32152857Y-106692438D02*
X32248095Y-106787676D01*
X32248095Y-106787676D02*
X32295714Y-106978152D01*
X32295714Y-106978152D02*
X32295714Y-107311485D01*
X32295714Y-107311485D02*
X32248095Y-107501961D01*
X32248095Y-107501961D02*
X32152857Y-107597200D01*
X32152857Y-107597200D02*
X32057619Y-107644819D01*
X32057619Y-107644819D02*
X31867143Y-107644819D01*
X31867143Y-107644819D02*
X31771905Y-107597200D01*
X31771905Y-107597200D02*
X31676667Y-107501961D01*
X31676667Y-107501961D02*
X31629048Y-107311485D01*
X31629048Y-107311485D02*
X31629048Y-106978152D01*
X31629048Y-106978152D02*
X31676667Y-106787676D01*
X31676667Y-106787676D02*
X31771905Y-106692438D01*
X31771905Y-106692438D02*
X31867143Y-106644819D01*
X32724286Y-107644819D02*
X32724286Y-106644819D01*
X32724286Y-106644819D02*
X33057619Y-107359104D01*
X33057619Y-107359104D02*
X33390952Y-106644819D01*
X33390952Y-106644819D02*
X33390952Y-107644819D01*
X34390952Y-107644819D02*
X33819524Y-107644819D01*
X34105238Y-107644819D02*
X34105238Y-106644819D01*
X34105238Y-106644819D02*
X34010000Y-106787676D01*
X34010000Y-106787676D02*
X33914762Y-106882914D01*
X33914762Y-106882914D02*
X33819524Y-106930533D01*
X127866667Y-65207200D02*
X128009524Y-65254819D01*
X128009524Y-65254819D02*
X128247619Y-65254819D01*
X128247619Y-65254819D02*
X128342857Y-65207200D01*
X128342857Y-65207200D02*
X128390476Y-65159580D01*
X128390476Y-65159580D02*
X128438095Y-65064342D01*
X128438095Y-65064342D02*
X128438095Y-64969104D01*
X128438095Y-64969104D02*
X128390476Y-64873866D01*
X128390476Y-64873866D02*
X128342857Y-64826247D01*
X128342857Y-64826247D02*
X128247619Y-64778628D01*
X128247619Y-64778628D02*
X128057143Y-64731009D01*
X128057143Y-64731009D02*
X127961905Y-64683390D01*
X127961905Y-64683390D02*
X127914286Y-64635771D01*
X127914286Y-64635771D02*
X127866667Y-64540533D01*
X127866667Y-64540533D02*
X127866667Y-64445295D01*
X127866667Y-64445295D02*
X127914286Y-64350057D01*
X127914286Y-64350057D02*
X127961905Y-64302438D01*
X127961905Y-64302438D02*
X128057143Y-64254819D01*
X128057143Y-64254819D02*
X128295238Y-64254819D01*
X128295238Y-64254819D02*
X128438095Y-64302438D01*
X128771429Y-64254819D02*
X129009524Y-65254819D01*
X129009524Y-65254819D02*
X129200000Y-64540533D01*
X129200000Y-64540533D02*
X129390476Y-65254819D01*
X129390476Y-65254819D02*
X129628572Y-64254819D01*
X129961905Y-64350057D02*
X130009524Y-64302438D01*
X130009524Y-64302438D02*
X130104762Y-64254819D01*
X130104762Y-64254819D02*
X130342857Y-64254819D01*
X130342857Y-64254819D02*
X130438095Y-64302438D01*
X130438095Y-64302438D02*
X130485714Y-64350057D01*
X130485714Y-64350057D02*
X130533333Y-64445295D01*
X130533333Y-64445295D02*
X130533333Y-64540533D01*
X130533333Y-64540533D02*
X130485714Y-64683390D01*
X130485714Y-64683390D02*
X129914286Y-65254819D01*
X129914286Y-65254819D02*
X130533333Y-65254819D01*
%TO.C,NAV2*%
D12*
X100050000Y-108040000D02*
X100050000Y-122240000D01*
X100050000Y-122240000D02*
X114250000Y-122240000D01*
X114250000Y-108040000D02*
X100050000Y-108040000D01*
X114250000Y-122240000D02*
X114250000Y-108040000D01*
%TO.C,Switch1*%
X43720000Y-61710000D02*
X43720000Y-75910000D01*
X43720000Y-75910000D02*
X57920000Y-75910000D01*
X57920000Y-61710000D02*
X43720000Y-61710000D01*
X57920000Y-75910000D02*
X57920000Y-61710000D01*
%TO.C,U3*%
X32850000Y-48845000D02*
X32850000Y-50495000D01*
X32850000Y-52495000D02*
X32850000Y-54145000D01*
X32850000Y-54145000D02*
X63450000Y-54145000D01*
X63450000Y-48845000D02*
X32850000Y-48845000D01*
X63450000Y-54145000D02*
X63450000Y-48845000D01*
X32850000Y-50495000D02*
G75*
G02*
X32850000Y-52495000I0J-1000000D01*
G01*
%TO.C,DS1*%
X27920000Y-29290000D02*
X73320000Y-29290000D01*
X73320000Y-43690000D01*
X27920000Y-43690000D01*
X27920000Y-29290000D01*
D13*
X41325000Y-31410000D02*
G75*
G02*
X40875000Y-31410000I-225000J0D01*
G01*
X40875000Y-31410000D02*
G75*
G02*
X41325000Y-31410000I225000J0D01*
G01*
%TO.C,SW3*%
D14*
X40800000Y-87400000D02*
X49000000Y-87400000D01*
X40800000Y-96600000D02*
X40800000Y-87400000D01*
X40800000Y-96600000D02*
X49000000Y-96600000D01*
X49000000Y-96600000D02*
X49000000Y-87400000D01*
X44080000Y-93360000D02*
G75*
G02*
X44142660Y-90604136I820000J1360000D01*
G01*
X44090000Y-93940000D02*
G75*
G02*
X44012251Y-90094324I809999J1940000D01*
G01*
X44290000Y-92910000D02*
G75*
G02*
X44265456Y-91106941I610000J910000D01*
G01*
X45480000Y-91070000D02*
G75*
G02*
X45537874Y-92891301I-580001J-930000D01*
G01*
X45730000Y-89990000D02*
G75*
G02*
X45661661Y-94036878I-830000J-2010000D01*
G01*
X45750000Y-90660000D02*
G75*
G02*
X45661847Y-93392009I-850000J-1340000D01*
G01*
D15*
X49160000Y-96730000D02*
G75*
G02*
X49100000Y-96730000I-30000J0D01*
G01*
X49100000Y-96730000D02*
G75*
G02*
X49160000Y-96730000I30000J0D01*
G01*
%TO.C,U2*%
D12*
X98260000Y-49160000D02*
X98260000Y-50810000D01*
X98260000Y-52810000D02*
X98260000Y-54460000D01*
X98260000Y-54460000D02*
X128860000Y-54460000D01*
X128860000Y-49160000D02*
X98260000Y-49160000D01*
X128860000Y-54460000D02*
X128860000Y-49160000D01*
X98260000Y-50810000D02*
G75*
G02*
X98260000Y-52810000I0J-1000000D01*
G01*
%TO.C,NAV1*%
X74910000Y-108080000D02*
X74910000Y-122280000D01*
X74910000Y-122280000D02*
X89110000Y-122280000D01*
X89110000Y-108080000D02*
X74910000Y-108080000D01*
X89110000Y-122280000D02*
X89110000Y-108080000D01*
%TO.C,D8*%
X62090000Y-90754000D02*
X62090000Y-90910000D01*
X62090000Y-93070000D02*
X62090000Y-93226000D01*
X62090000Y-90754484D02*
G75*
G02*
X65321437Y-90910000I1560000J-1235516D01*
G01*
X62609039Y-90910000D02*
G75*
G02*
X64690961Y-90910000I1040961J-1080000D01*
G01*
X64690961Y-93070000D02*
G75*
G02*
X62609039Y-93070000I-1040961J1080000D01*
G01*
X65321437Y-93070000D02*
G75*
G02*
X62090000Y-93225516I-1671437J1080000D01*
G01*
%TO.C,ADF1*%
X124470000Y-108020000D02*
X124470000Y-122220000D01*
X124470000Y-122220000D02*
X138670000Y-122220000D01*
X138670000Y-108020000D02*
X124470000Y-108020000D01*
X138670000Y-122220000D02*
X138670000Y-108020000D01*
%TO.C,DS2*%
X90710000Y-29280000D02*
X136110000Y-29280000D01*
X136110000Y-43680000D01*
X90710000Y-43680000D01*
X90710000Y-29280000D01*
D13*
X104115000Y-31400000D02*
G75*
G02*
X103665000Y-31400000I-225000J0D01*
G01*
X103665000Y-31400000D02*
G75*
G02*
X104115000Y-31400000I225000J0D01*
G01*
%TO.C,SW1*%
D14*
X91117500Y-62147500D02*
X91117500Y-67057500D01*
X91117500Y-62147500D02*
X104317500Y-62147500D01*
X91117500Y-70437500D02*
X91117500Y-75347500D01*
X94497500Y-75347500D02*
X91117500Y-75347500D01*
X95467500Y-67747500D02*
X99967500Y-67747500D01*
X95967500Y-66997500D02*
X99467500Y-66997500D01*
X97037500Y-75347500D02*
X95857500Y-75347500D01*
X99577500Y-75347500D02*
X98397500Y-75347500D01*
X104317500Y-62147500D02*
X104317500Y-67057500D01*
X104317500Y-70437500D02*
X104317500Y-75347500D01*
X104317500Y-75347500D02*
X100937500Y-75347500D01*
X95966472Y-66998692D02*
G75*
G02*
X99467500Y-66997500I1751028J-1508806D01*
G01*
X99968299Y-67749248D02*
G75*
G02*
X95467500Y-67747500I-2250799J-1028252D01*
G01*
D15*
X90497500Y-77147500D02*
G75*
G02*
X90437500Y-77147500I-30000J0D01*
G01*
X90437500Y-77147500D02*
G75*
G02*
X90497500Y-77147500I30000J0D01*
G01*
D14*
X94517500Y-63647500D02*
G75*
G02*
X92717500Y-63647500I-900000J0D01*
G01*
X92717500Y-63647500D02*
G75*
G02*
X94517500Y-63647500I900000J0D01*
G01*
X94517500Y-73847500D02*
G75*
G02*
X92717500Y-73847500I-900000J0D01*
G01*
X92717500Y-73847500D02*
G75*
G02*
X94517500Y-73847500I900000J0D01*
G01*
X102717500Y-63647500D02*
G75*
G02*
X100917500Y-63647500I-900000J0D01*
G01*
X100917500Y-63647500D02*
G75*
G02*
X102717500Y-63647500I900000J0D01*
G01*
X102717500Y-73847500D02*
G75*
G02*
X100917500Y-73847500I-900000J0D01*
G01*
X100917500Y-73847500D02*
G75*
G02*
X102717500Y-73847500I900000J0D01*
G01*
%TO.C,D7*%
D12*
X25290000Y-90694000D02*
X25290000Y-90850000D01*
X25290000Y-93010000D02*
X25290000Y-93166000D01*
X25290000Y-90694484D02*
G75*
G02*
X28521437Y-90850000I1560000J-1235516D01*
G01*
X25809039Y-90850000D02*
G75*
G02*
X27890961Y-90850000I1040961J-1080000D01*
G01*
X27890961Y-93010000D02*
G75*
G02*
X25809039Y-93010000I-1040961J1080000D01*
G01*
X28521437Y-93010000D02*
G75*
G02*
X25290000Y-93165516I-1671437J1080000D01*
G01*
%TO.C,COM2*%
X49820000Y-108050000D02*
X49820000Y-122250000D01*
X49820000Y-122250000D02*
X64020000Y-122250000D01*
X64020000Y-108050000D02*
X49820000Y-108050000D01*
X64020000Y-122250000D02*
X64020000Y-108050000D01*
%TO.C,COM1*%
X25410000Y-108090000D02*
X25410000Y-122290000D01*
X25410000Y-122290000D02*
X39610000Y-122290000D01*
X39610000Y-108090000D02*
X25410000Y-108090000D01*
X39610000Y-122290000D02*
X39610000Y-108090000D01*
%TO.C,SW2*%
D14*
X122600000Y-62200000D02*
X122600000Y-67110000D01*
X122600000Y-62200000D02*
X135800000Y-62200000D01*
X122600000Y-70490000D02*
X122600000Y-75400000D01*
X125980000Y-75400000D02*
X122600000Y-75400000D01*
X126950000Y-67800000D02*
X131450000Y-67800000D01*
X127450000Y-67050000D02*
X130950000Y-67050000D01*
X128520000Y-75400000D02*
X127340000Y-75400000D01*
X131060000Y-75400000D02*
X129880000Y-75400000D01*
X135800000Y-62200000D02*
X135800000Y-67110000D01*
X135800000Y-70490000D02*
X135800000Y-75400000D01*
X135800000Y-75400000D02*
X132420000Y-75400000D01*
X127448972Y-67051192D02*
G75*
G02*
X130950000Y-67050000I1751028J-1508806D01*
G01*
X131450799Y-67801748D02*
G75*
G02*
X126950000Y-67800000I-2250799J-1028252D01*
G01*
D15*
X121980000Y-77200000D02*
G75*
G02*
X121920000Y-77200000I-30000J0D01*
G01*
X121920000Y-77200000D02*
G75*
G02*
X121980000Y-77200000I30000J0D01*
G01*
D14*
X126000000Y-63700000D02*
G75*
G02*
X124200000Y-63700000I-900000J0D01*
G01*
X124200000Y-63700000D02*
G75*
G02*
X126000000Y-63700000I900000J0D01*
G01*
X126000000Y-73900000D02*
G75*
G02*
X124200000Y-73900000I-900000J0D01*
G01*
X124200000Y-73900000D02*
G75*
G02*
X126000000Y-73900000I900000J0D01*
G01*
X134200000Y-63700000D02*
G75*
G02*
X132400000Y-63700000I-900000J0D01*
G01*
X132400000Y-63700000D02*
G75*
G02*
X134200000Y-63700000I900000J0D01*
G01*
X134200000Y-73900000D02*
G75*
G02*
X132400000Y-73900000I-900000J0D01*
G01*
X132400000Y-73900000D02*
G75*
G02*
X134200000Y-73900000I900000J0D01*
G01*
%TD*%
M02*
