M48
; DRILL file KiCad 10.0.5 date 2026-07-25T17:15:31
; FORMAT={-:-/ absolute / metric / decimal}
; #@! TF.CreationDate,2026-07-25T17:15:31+02:00
; #@! TF.GenerationSoftware,Kicad,Pcbnew,10.0.5
; #@! TF.FileFunction,Plated,1,2,PTH
FMAT,2
METRIC
; #@! TA.AperFunction,Plated,PTH,ViaDrill
T1C0.300
; #@! TA.AperFunction,Plated,PTH,ComponentDrill
T2C0.700
; #@! TA.AperFunction,Plated,PTH,ComponentDrill
T3C0.800
; #@! TA.AperFunction,Plated,PTH,ComponentDrill
T4C1.200
; #@! TA.AperFunction,Plated,PTH,ComponentDrill
T5C1.500
; #@! TA.AperFunction,Plated,PTH,ComponentDrill
T6C2.300
%
G90
G05
T1
X28.0Y-119.75
X29.75Y-122.75
X40.875Y-116.125
X41.8Y-58.45
X44.25Y-121.0
X47.75Y-76.75
X48.375Y-110.875
X52.1Y-119.65
X54.5Y-58.25
X56.5Y-73.25
X62.25Y-44.25
X66.25Y-118.25
X70.75Y-51.25
X72.0Y-84.5
X74.0Y-80.0
X77.35Y-119.65
X94.5Y-105.5
X95.5Y-104.25
X100.25Y-131.75
X102.75Y-119.5
X105.25Y-85.25
X112.25Y-119.5
X122.0Y-92.5
X125.375Y-120.625
X126.6Y-119.6
T3
X23.5Y-126.5
X24.75Y-49.0
X26.295Y-55.5
X28.5Y-126.5
X28.795Y-55.5
X29.75Y-49.0
X33.94Y-98.25
X34.18Y-47.685
X34.18Y-55.305
X36.72Y-47.685
X36.72Y-55.305
X37.69Y-126.75
X39.26Y-47.685
X39.26Y-55.305
X41.56Y-98.25
X41.8Y-47.685
X41.8Y-55.305
X43.0Y-31.41
X43.0Y-41.57
X43.25Y-80.0
X44.34Y-47.685
X44.34Y-55.305
X45.31Y-126.75
X45.54Y-31.41
X45.54Y-41.57
X46.88Y-47.685
X46.88Y-55.305
X47.94Y-98.0
X48.08Y-31.41
X48.08Y-41.57
X48.25Y-80.0
X49.42Y-47.685
X49.42Y-55.305
X50.62Y-31.41
X50.62Y-41.57
X50.75Y-126.5
X51.96Y-47.685
X51.96Y-55.305
X53.16Y-31.41
X53.16Y-41.57
X54.5Y-47.685
X54.5Y-55.305
X54.69Y-80.0
X55.56Y-98.0
X55.7Y-31.41
X55.7Y-41.57
X55.75Y-126.5
X57.04Y-47.685
X57.04Y-55.305
X58.24Y-31.41
X58.24Y-41.57
X59.38Y-126.5
X59.58Y-47.685
X59.58Y-55.305
X62.12Y-47.685
X62.12Y-55.305
X62.31Y-80.0
X66.75Y-47.69
X66.75Y-55.31
X67.0Y-126.5
X72.75Y-126.5
X77.75Y-126.5
X78.19Y-65.5
X78.19Y-74.0
X79.13Y-55.25
X80.75Y-60.25
X80.75Y-70.0
X81.25Y-36.0
X82.69Y-126.5
X83.75Y-36.0
X85.75Y-60.25
X85.75Y-70.0
X85.81Y-65.5
X85.81Y-74.0
X86.75Y-55.25
X90.0Y-53.75
X90.31Y-126.5
X91.75Y-48.0
X94.25Y-48.0
X95.0Y-53.75
X98.25Y-126.0
X99.59Y-48.0
X99.59Y-55.62
X102.13Y-48.0
X102.13Y-55.62
X103.25Y-126.0
X104.67Y-48.0
X104.67Y-55.62
X105.79Y-31.4
X105.79Y-41.56
X106.63Y-126.0
X107.21Y-48.0
X107.21Y-55.62
X107.75Y-59.5
X107.75Y-64.5
X108.33Y-31.4
X108.33Y-41.56
X109.75Y-48.0
X109.75Y-55.62
X110.19Y-67.75
X110.87Y-31.4
X110.87Y-41.56
X110.94Y-75.75
X112.19Y-59.25
X112.25Y-64.0
X112.25Y-72.25
X112.29Y-48.0
X112.29Y-55.62
X113.41Y-31.4
X113.41Y-41.56
X114.25Y-126.0
X114.83Y-48.0
X114.83Y-55.62
X115.95Y-31.4
X115.95Y-41.56
X117.25Y-64.0
X117.25Y-72.25
X117.37Y-48.0
X117.37Y-55.62
X117.81Y-67.75
X118.49Y-31.4
X118.49Y-41.56
X118.56Y-75.75
X119.5Y-112.94
X119.5Y-120.56
X119.81Y-59.25
X119.91Y-48.0
X119.91Y-55.62
X120.0Y-126.0
X121.03Y-31.4
X121.03Y-41.56
X122.45Y-48.0
X122.45Y-55.62
X124.99Y-48.0
X124.99Y-55.62
X125.0Y-126.0
X127.53Y-48.0
X127.53Y-55.62
X132.25Y-48.5
X132.25Y-56.12
X137.0Y-53.25
X137.0Y-58.25
X137.5Y-98.75
X137.5Y-103.75
T4
X95.177Y-76.248
X97.718Y-76.248
X100.257Y-76.248
X126.66Y-76.3
X129.2Y-76.3
X131.74Y-76.3
T5
X28.7Y-112.65
X35.05Y-110.11
X47.01Y-66.27
X53.11Y-112.61
X53.36Y-63.73
X59.46Y-110.07
X78.2Y-112.64
X84.55Y-110.1
X103.34Y-112.6
X109.69Y-110.06
X127.76Y-112.58
X134.11Y-110.04
T2
G00X42.42Y-92.455
M15
G01X42.42Y-91.455
M16
G05
G00X44.96Y-92.455
M15
G01X44.96Y-91.455
M16
G05
G00X47.5Y-92.455
M15
G01X47.5Y-91.455
M16
G05
T6
G00X92.117Y-68.847
M15
G01X92.117Y-68.648
M16
G05
G00X103.317Y-68.847
M15
G01X103.317Y-68.648
M16
G05
G00X123.6Y-68.9
M15
G01X123.6Y-68.7
M16
G05
G00X134.8Y-68.9
M15
G01X134.8Y-68.7
M16
G05
M30
