%TF.GenerationSoftware,KiCad,Pcbnew,10.0.5*%
%TF.CreationDate,2026-07-23T00:51:16+02:00*%
%TF.ProjectId,learsim pcbs,6c656172-7369-46d2-9070-6362732e6b69,rev?*%
%TF.SameCoordinates,Original*%
%TF.FileFunction,Copper,L1,Top*%
%TF.FilePolarity,Positive*%
%FSLAX46Y46*%
G04 Gerber Fmt 4.6, Leading zero omitted, Abs format (unit mm)*
G04 Created by KiCad (PCBNEW 10.0.5) date 2026-07-23 00:51:16*
%MOMM*%
%LPD*%
G01*
G04 APERTURE LIST*
G04 Aperture macros list*
%AMRoundRect*
0 Rectangle with rounded corners*
0 $1 Rounding radius*
0 $2 $3 $4 $5 $6 $7 $8 $9 X,Y pos of 4 corners*
0 Add a 4 corners polygon primitive as box body*
4,1,4,$2,$3,$4,$5,$6,$7,$8,$9,$2,$3,0*
0 Add four circle primitives for the rounded corners*
1,1,$1+$1,$2,$3*
1,1,$1+$1,$4,$5*
1,1,$1+$1,$6,$7*
1,1,$1+$1,$8,$9*
0 Add four rect primitives between the rounded corners*
20,1,$1+$1,$2,$3,$4,$5,0*
20,1,$1+$1,$4,$5,$6,$7,0*
20,1,$1+$1,$6,$7,$8,$9,0*
20,1,$1+$1,$8,$9,$2,$3,0*%
G04 Aperture macros list end*
%TA.AperFunction,NonConductor*%
%ADD10C,0.200000*%
%TD*%
%TA.AperFunction,ComponentPad*%
%ADD11C,2.500000*%
%TD*%
%TA.AperFunction,ComponentPad*%
%ADD12RoundRect,0.250000X-0.550000X-0.550000X0.550000X-0.550000X0.550000X0.550000X-0.550000X0.550000X0*%
%TD*%
%TA.AperFunction,ComponentPad*%
%ADD13C,1.600000*%
%TD*%
%TA.AperFunction,SMDPad,CuDef*%
%ADD14R,3.400000X1.600000*%
%TD*%
G04 APERTURE END LIST*
D10*
X21000000Y-25000000D02*
X141000000Y-25000000D01*
X141000000Y-135000000D01*
X21000000Y-135000000D01*
X21000000Y-25000000D01*
D11*
%TO.P,NAV1,2,2_2*%
%TO.N,Net-(U1-GPIO2)*%
X113000000Y-105000000D03*
%TO.P,NAV1,1,1_1*%
%TO.N,GND*%
X106650000Y-107540000D03*
%TD*%
D12*
%TO.P,U3,1,DIN_1*%
%TO.N,unconnected-(U3-DIN-Pad1)*%
X114880000Y-40340000D03*
D13*
%TO.P,U3,2,DIG_0_2*%
%TO.N,unconnected-(U3-DIG_0-Pad2)*%
X114880000Y-42880000D03*
%TO.P,U3,3,DIG_4_3*%
%TO.N,unconnected-(U3-DIG_4-Pad3)*%
X114880000Y-45420000D03*
%TO.P,U3,4,GND_4*%
%TO.N,Net-(U3-GND-Pad4)*%
X114880000Y-47960000D03*
%TO.P,U3,5,DIG_6_5*%
%TO.N,unconnected-(U3-DIG_6-Pad5)*%
X114880000Y-50500000D03*
%TO.P,U3,6,DIG_2_6*%
%TO.N,unconnected-(U3-DIG_2-Pad6)*%
X114880000Y-53040000D03*
%TO.P,U3,7,DIG_3_7*%
%TO.N,unconnected-(U3-DIG_3-Pad7)*%
X114880000Y-55580000D03*
%TO.P,U3,8,DIG_7_8*%
%TO.N,unconnected-(U3-DIG_7-Pad8)*%
X114880000Y-58120000D03*
%TO.P,U3,9,GND_9*%
%TO.N,Net-(U3-GND-Pad4)*%
X114880000Y-60660000D03*
%TO.P,U3,10,DIG_5_10*%
%TO.N,unconnected-(U3-DIG_5-Pad10)*%
X114880000Y-63200000D03*
%TO.P,U3,11,DIG_1_11*%
%TO.N,unconnected-(U3-DIG_1-Pad11)*%
X114880000Y-65740000D03*
%TO.P,U3,12,LOAD_12*%
%TO.N,unconnected-(U3-LOAD-Pad12)*%
X114880000Y-68280000D03*
%TO.P,U3,13,CLK_13*%
%TO.N,unconnected-(U3-CLK-Pad13)*%
X122500000Y-68280000D03*
%TO.P,U3,14,SEG_A_14*%
%TO.N,unconnected-(U3-SEG_A-Pad14)*%
X122500000Y-65740000D03*
%TO.P,U3,15,SEG_F_15*%
%TO.N,unconnected-(U3-SEG_F-Pad15)*%
X122500000Y-63200000D03*
%TO.P,U3,16,SEG_B_16*%
%TO.N,unconnected-(U3-SEG_B-Pad16)*%
X122500000Y-60660000D03*
%TO.P,U3,17,SEG_G_17*%
%TO.N,unconnected-(U3-SEG_G-Pad17)*%
X122500000Y-58120000D03*
%TO.P,U3,18,ISET_18*%
%TO.N,unconnected-(U3-ISET-Pad18)*%
X122500000Y-55580000D03*
%TO.P,U3,19,V+_19*%
%TO.N,unconnected-(U3-V+-Pad19)*%
X122500000Y-53040000D03*
%TO.P,U3,20,SEG_C_20*%
%TO.N,unconnected-(U3-SEG_C-Pad20)*%
X122500000Y-50500000D03*
%TO.P,U3,21,SEG_E_21*%
%TO.N,unconnected-(U3-SEG_E-Pad21)*%
X122500000Y-47960000D03*
%TO.P,U3,22,SEG_DP_22*%
%TO.N,unconnected-(U3-SEG_DP-Pad22)*%
X122500000Y-45420000D03*
%TO.P,U3,23,SEG_D_23*%
%TO.N,unconnected-(U3-SEG_D-Pad23)*%
X122500000Y-42880000D03*
%TO.P,U3,24,DOUT_24*%
%TO.N,unconnected-(U3-DOUT-Pad24)*%
X122500000Y-40340000D03*
%TD*%
D12*
%TO.P,U2,1,DIN_1*%
%TO.N,unconnected-(U2-DIN-Pad1)*%
X39880000Y-53920000D03*
D13*
%TO.P,U2,2,DIG_0_2*%
%TO.N,unconnected-(U2-DIG_0-Pad2)*%
X39880000Y-56460000D03*
%TO.P,U2,3,DIG_4_3*%
%TO.N,unconnected-(U2-DIG_4-Pad3)*%
X39880000Y-59000000D03*
%TO.P,U2,4,GND_4*%
%TO.N,Net-(U2-GND-Pad4)*%
X39880000Y-61540000D03*
%TO.P,U2,5,DIG_6_5*%
%TO.N,unconnected-(U2-DIG_6-Pad5)*%
X39880000Y-64080000D03*
%TO.P,U2,6,DIG_2_6*%
%TO.N,unconnected-(U2-DIG_2-Pad6)*%
X39880000Y-66620000D03*
%TO.P,U2,7,DIG_3_7*%
%TO.N,unconnected-(U2-DIG_3-Pad7)*%
X39880000Y-69160000D03*
%TO.P,U2,8,DIG_7_8*%
%TO.N,unconnected-(U2-DIG_7-Pad8)*%
X39880000Y-71700000D03*
%TO.P,U2,9,GND_9*%
%TO.N,Net-(U2-GND-Pad4)*%
X39880000Y-74240000D03*
%TO.P,U2,10,DIG_5_10*%
%TO.N,unconnected-(U2-DIG_5-Pad10)*%
X39880000Y-76780000D03*
%TO.P,U2,11,DIG_1_11*%
%TO.N,unconnected-(U2-DIG_1-Pad11)*%
X39880000Y-79320000D03*
%TO.P,U2,12,LOAD_12*%
%TO.N,unconnected-(U2-LOAD-Pad12)*%
X39880000Y-81860000D03*
%TO.P,U2,13,CLK_13*%
%TO.N,unconnected-(U2-CLK-Pad13)*%
X47500000Y-81860000D03*
%TO.P,U2,14,SEG_A_14*%
%TO.N,unconnected-(U2-SEG_A-Pad14)*%
X47500000Y-79320000D03*
%TO.P,U2,15,SEG_F_15*%
%TO.N,unconnected-(U2-SEG_F-Pad15)*%
X47500000Y-76780000D03*
%TO.P,U2,16,SEG_B_16*%
%TO.N,unconnected-(U2-SEG_B-Pad16)*%
X47500000Y-74240000D03*
%TO.P,U2,17,SEG_G_17*%
%TO.N,unconnected-(U2-SEG_G-Pad17)*%
X47500000Y-71700000D03*
%TO.P,U2,18,ISET_18*%
%TO.N,unconnected-(U2-ISET-Pad18)*%
X47500000Y-69160000D03*
%TO.P,U2,19,V+_19*%
%TO.N,unconnected-(U2-V+-Pad19)*%
X47500000Y-66620000D03*
%TO.P,U2,20,SEG_C_20*%
%TO.N,unconnected-(U2-SEG_C-Pad20)*%
X47500000Y-64080000D03*
%TO.P,U2,21,SEG_E_21*%
%TO.N,unconnected-(U2-SEG_E-Pad21)*%
X47500000Y-61540000D03*
%TO.P,U2,22,SEG_DP_22*%
%TO.N,unconnected-(U2-SEG_DP-Pad22)*%
X47500000Y-59000000D03*
%TO.P,U2,23,SEG_D_23*%
%TO.N,unconnected-(U2-SEG_D-Pad23)*%
X47500000Y-56460000D03*
%TO.P,U2,24,DOUT_24*%
%TO.N,unconnected-(U2-DOUT-Pad24)*%
X47500000Y-53920000D03*
%TD*%
D11*
%TO.P,Switch1,1,1_1*%
%TO.N,GND*%
X124150000Y-106540000D03*
%TO.P,Switch1,2,2_2*%
%TO.N,Net-(U1-GPIO4)*%
X130500000Y-104000000D03*
%TD*%
%TO.P,NAV2,1,1_1*%
%TO.N,GND*%
X113650000Y-81040000D03*
%TO.P,NAV2,2,2_2*%
%TO.N,Net-(U1-GPIO3)*%
X120000000Y-78500000D03*
%TD*%
%TO.P,COM2,1,1_1*%
%TO.N,GND*%
X58190000Y-106960000D03*
%TO.P,COM2,2,2_2*%
%TO.N,Net-(U1-GPIO1)*%
X64540000Y-104420000D03*
%TD*%
%TO.P,COM1,1,1_1*%
%TO.N,GND*%
X81150000Y-107040000D03*
%TO.P,COM1,2,2_2*%
%TO.N,Net-(U1-GPIO0)*%
X87500000Y-104500000D03*
%TD*%
%TO.P,ADF1,1,1_1*%
%TO.N,GND*%
X31650000Y-110040000D03*
%TO.P,ADF1,2,2_2*%
%TO.N,Net-(U1-GPIO5)*%
X38000000Y-107500000D03*
%TD*%
D14*
%TO.P,U1,1,3V3_1*%
%TO.N,unconnected-(U1-3V3-Pad1)*%
X68900000Y-38500000D03*
%TO.P,U1,2,~{RST}_2*%
%TO.N,unconnected-(U1-~{RST}-Pad2)*%
X68900000Y-41040000D03*
%TO.P,U1,3,GPIO4_3*%
%TO.N,Net-(U1-GPIO4)*%
X68900000Y-43580000D03*
%TO.P,U1,4,GPIO5_4*%
%TO.N,Net-(U1-GPIO5)*%
X68900000Y-46120000D03*
%TO.P,U1,5,GPIO6_5*%
%TO.N,unconnected-(U1-GPIO6-Pad5)*%
X68900000Y-48660000D03*
%TO.P,U1,6,GPIO7_6*%
%TO.N,unconnected-(U1-GPIO7-Pad6)*%
X68900000Y-51200000D03*
%TO.P,U1,7,GPIO0_7*%
%TO.N,Net-(U1-GPIO0)*%
X68900000Y-53740000D03*
%TO.P,U1,8,GPIO1_8*%
%TO.N,Net-(U1-GPIO1)*%
X68900000Y-56280000D03*
%TO.P,U1,9,GPIO8_STRAP_RGB_9*%
%TO.N,unconnected-(U1-GPIO8_STRAP_RGB-Pad9)*%
X68900000Y-58820000D03*
%TO.P,U1,10,GPIO10_10*%
%TO.N,unconnected-(U1-GPIO10-Pad10)*%
X68900000Y-61360000D03*
%TO.P,U1,11,GPIO11_11*%
%TO.N,unconnected-(U1-GPIO11-Pad11)*%
X68900000Y-63900000D03*
%TO.P,U1,12,GPIO2_12*%
%TO.N,Net-(U1-GPIO2)*%
X68900000Y-66440000D03*
%TO.P,U1,13,GPIO3_13*%
%TO.N,Net-(U1-GPIO3)*%
X68900000Y-68980000D03*
%TO.P,U1,14,+5V_14*%
%TO.N,unconnected-(U1-+5V-Pad14)*%
X68900000Y-71520000D03*
%TO.P,U1,15,GND_15*%
%TO.N,unconnected-(U1-GND-Pad15)*%
X68900000Y-74060000D03*
%TO.P,U1,16,NC_16*%
%TO.N,unconnected-(U1-NC-Pad16)*%
X68900000Y-76600000D03*
%TO.P,U1,17,GND_17*%
%TO.N,GND*%
X94000000Y-38500000D03*
%TO.P,U1,18,GPIO16_U0TXD_18*%
%TO.N,unconnected-(U1-GPIO16_U0TXD-Pad18)*%
X94000000Y-41040000D03*
%TO.P,U1,19,GPIO17_U0RXD_19*%
%TO.N,unconnected-(U1-GPIO17_U0RXD-Pad19)*%
X94000000Y-43580000D03*
%TO.P,U1,20,GPIO15_STRAP_20*%
%TO.N,unconnected-(U1-GPIO15_STRAP-Pad20)*%
X94000000Y-46120000D03*
%TO.P,U1,21,GPIO23_21*%
%TO.N,unconnected-(U1-GPIO23-Pad21)*%
X94000000Y-48660000D03*
%TO.P,U1,22,GPIO22_22*%
%TO.N,unconnected-(U1-GPIO22-Pad22)*%
X94000000Y-51200000D03*
%TO.P,U1,23,GPIO21_23*%
%TO.N,unconnected-(U1-GPIO21-Pad23)*%
X94000000Y-53740000D03*
%TO.P,U1,24,GPIO20_24*%
%TO.N,unconnected-(U1-GPIO20-Pad24)*%
X94000000Y-56280000D03*
%TO.P,U1,25,GPIO19_25*%
%TO.N,unconnected-(U1-GPIO19-Pad25)*%
X94000000Y-58820000D03*
%TO.P,U1,26,GPIO18_26*%
%TO.N,unconnected-(U1-GPIO18-Pad26)*%
X94000000Y-61360000D03*
%TO.P,U1,27,GPIO9_STRAP_BOOT_27*%
%TO.N,unconnected-(U1-GPIO9_STRAP_BOOT-Pad27)*%
X94000000Y-63900000D03*
%TO.P,U1,28,GND_28*%
%TO.N,unconnected-(U1-GND-Pad28)*%
X94000000Y-66440000D03*
%TO.P,U1,29,GPIO13_USB_D+_29*%
%TO.N,unconnected-(U1-GPIO13_USB_D+-Pad29)*%
X94000000Y-68980000D03*
%TO.P,U1,30,GPIO12_USB_D-_30*%
%TO.N,unconnected-(U1-GPIO12_USB_D--Pad30)*%
X94000000Y-71520000D03*
%TO.P,U1,31,GND_31*%
%TO.N,unconnected-(U1-GND-Pad31)*%
X94000000Y-74060000D03*
%TO.P,U1,32,NC_32*%
%TO.N,unconnected-(U1-NC-Pad32)*%
X94000000Y-76600000D03*
%TD*%
M02*
