M48
; DRILL file KiCad 10.0.5 date 2026-07-23T00:51:14
; FORMAT={-:-/ absolute / metric / decimal}
; #@! TF.CreationDate,2026-07-23T00:51:14+02:00
; #@! TF.GenerationSoftware,Kicad,Pcbnew,10.0.5
; #@! TF.FileFunction,Plated,1,2,PTH
FMAT,2
METRIC
; #@! TA.AperFunction,Plated,PTH,ComponentDrill
T1C0.800
; #@! TA.AperFunction,Plated,PTH,ComponentDrill
T2C1.500
%
G90
G05
T1
X39.88Y-53.92
X39.88Y-56.46
X39.88Y-59.0
X39.88Y-61.54
X39.88Y-64.08
X39.88Y-66.62
X39.88Y-69.16
X39.88Y-71.7
X39.88Y-74.24
X39.88Y-76.78
X39.88Y-79.32
X39.88Y-81.86
X47.5Y-53.92
X47.5Y-56.46
X47.5Y-59.0
X47.5Y-61.54
X47.5Y-64.08
X47.5Y-66.62
X47.5Y-69.16
X47.5Y-71.7
X47.5Y-74.24
X47.5Y-76.78
X47.5Y-79.32
X47.5Y-81.86
X114.88Y-40.34
X114.88Y-42.88
X114.88Y-45.42
X114.88Y-47.96
X114.88Y-50.5
X114.88Y-53.04
X114.88Y-55.58
X114.88Y-58.12
X114.88Y-60.66
X114.88Y-63.2
X114.88Y-65.74
X114.88Y-68.28
X122.5Y-40.34
X122.5Y-42.88
X122.5Y-45.42
X122.5Y-47.96
X122.5Y-50.5
X122.5Y-53.04
X122.5Y-55.58
X122.5Y-58.12
X122.5Y-60.66
X122.5Y-63.2
X122.5Y-65.74
X122.5Y-68.28
T2
X31.65Y-110.04
X38.0Y-107.5
X58.19Y-106.96
X64.54Y-104.42
X81.15Y-107.04
X87.5Y-104.5
X106.65Y-107.54
X113.0Y-105.0
X113.65Y-81.04
X120.0Y-78.5
X124.15Y-106.54
X130.5Y-104.0
M30
