%TF.GenerationSoftware,KiCad,Pcbnew,10.0.5*%
%TF.CreationDate,2026-07-26T23:00:53+02:00*%
%TF.ProjectId,learsim pcbs,6c656172-7369-46d2-9070-6362732e6b69,rev?*%
%TF.SameCoordinates,Original*%
%TF.FileFunction,Profile,NP*%
%FSLAX46Y46*%
G04 Gerber Fmt 4.6, Leading zero omitted, Abs format (unit mm)*
G04 Created by KiCad (PCBNEW 10.0.5) date 2026-07-26 23:00:53*
%MOMM*%
%LPD*%
G01*
G04 APERTURE LIST*
%TA.AperFunction,Profile*%
%ADD10C,0.200000*%
%TD*%
%TA.AperFunction,Profile*%
%ADD11C,0.050000*%
%TD*%
%TA.AperFunction,Profile*%
%ADD12C,0.120000*%
%TD*%
G04 APERTURE END LIST*
D10*
X21000000Y-27000000D02*
X21000000Y-27000000D01*
G75*
G02*
X23000000Y-25000000I2000000J0D01*
G01*
X139000000Y-25000000D01*
G75*
G02*
X141000000Y-27000000I0J-2000000D01*
G01*
X141000000Y-133000000D01*
G75*
G02*
X139000000Y-135000000I-2000000J0D01*
G01*
X23000000Y-135000000D01*
G75*
G02*
X21000000Y-133000000I0J2000000D01*
G01*
X21000000Y-27000000D01*
D11*
X34202939Y-130500000D02*
G75*
G02*
X30797061Y-130500000I-1702939J0D01*
G01*
X30797061Y-130500000D02*
G75*
G02*
X34202939Y-130500000I1702939J0D01*
G01*
X35227882Y-68800000D02*
G75*
G02*
X31972118Y-68800000I-1627882J0D01*
G01*
X31972118Y-68800000D02*
G75*
G02*
X35227882Y-68800000I1627882J0D01*
G01*
X69412452Y-68800000D02*
G75*
G02*
X66187548Y-68800000I-1612452J0D01*
G01*
X66187548Y-68800000D02*
G75*
G02*
X69412452Y-68800000I1612452J0D01*
G01*
X133202939Y-130400000D02*
G75*
G02*
X129797061Y-130400000I-1702939J0D01*
G01*
X129797061Y-130400000D02*
G75*
G02*
X133202939Y-130400000I1702939J0D01*
G01*
%TO.C,D6*%
D12*
X129800000Y-120350000D02*
X129800000Y-119649647D01*
X129800000Y-120350000D02*
X129800000Y-121050353D01*
X131500000Y-118850000D02*
X130599647Y-118850000D01*
X131500000Y-118850000D02*
X132400353Y-118850000D01*
X131500000Y-121850000D02*
X130599647Y-121850000D01*
X131500000Y-121850000D02*
X132400353Y-121850000D01*
X133200000Y-120350000D02*
X133200000Y-119649647D01*
X133200000Y-120350000D02*
X133200000Y-121050353D01*
X129756066Y-119493345D02*
G75*
G02*
X129800000Y-119649647I-256058J-156299D01*
G01*
X129756066Y-119493345D02*
G75*
G02*
X130443345Y-118806066I426776J260503D01*
G01*
X129800000Y-121050353D02*
G75*
G02*
X129756066Y-121206655I-299992J-3D01*
G01*
X130443345Y-121893934D02*
G75*
G02*
X129756066Y-121206655I-260503J426776D01*
G01*
X130443345Y-121893934D02*
G75*
G02*
X130599647Y-121850000I156299J-256058D01*
G01*
X130599647Y-118850000D02*
G75*
G02*
X130443345Y-118806066I-3J299992D01*
G01*
X132400353Y-121850000D02*
G75*
G02*
X132556656Y-121893933I-3J-300020D01*
G01*
X132556655Y-118806066D02*
G75*
G02*
X132400353Y-118849976I-156255J256066D01*
G01*
X132556655Y-118806066D02*
G75*
G02*
X133243934Y-119493345I260505J-426774D01*
G01*
X133200000Y-119649647D02*
G75*
G02*
X133243935Y-119493346I299680J87D01*
G01*
X133243934Y-121206655D02*
G75*
G02*
X132556655Y-121893934I-426774J-260505D01*
G01*
X133243934Y-121206655D02*
G75*
G02*
X133200024Y-121050353I256066J156255D01*
G01*
%TO.C,D5*%
X49050000Y-74000000D02*
X49050000Y-73299647D01*
X49050000Y-74000000D02*
X49050000Y-74700353D01*
X50750000Y-72500000D02*
X49849647Y-72500000D01*
X50750000Y-72500000D02*
X51650353Y-72500000D01*
X50750000Y-75500000D02*
X49849647Y-75500000D01*
X50750000Y-75500000D02*
X51650353Y-75500000D01*
X52450000Y-74000000D02*
X52450000Y-73299647D01*
X52450000Y-74000000D02*
X52450000Y-74700353D01*
X49006066Y-73143345D02*
G75*
G02*
X49049976Y-73299647I-256066J-156255D01*
G01*
X49006066Y-73143345D02*
G75*
G02*
X49693345Y-72456066I426774J260505D01*
G01*
X49050000Y-74700353D02*
G75*
G02*
X49006065Y-74856654I-299680J-87D01*
G01*
X49693345Y-75543934D02*
G75*
G02*
X49006066Y-74856655I-260505J426774D01*
G01*
X49693345Y-75543934D02*
G75*
G02*
X49849647Y-75500024I156255J-256066D01*
G01*
X49849647Y-72500000D02*
G75*
G02*
X49693344Y-72456067I3J300020D01*
G01*
X51650353Y-75500000D02*
G75*
G02*
X51806655Y-75543934I3J-299992D01*
G01*
X51806655Y-72456066D02*
G75*
G02*
X51650353Y-72500000I-156299J256058D01*
G01*
X51806655Y-72456066D02*
G75*
G02*
X52493934Y-73143345I260503J-426776D01*
G01*
X52450000Y-73299647D02*
G75*
G02*
X52493934Y-73143345I299992J3D01*
G01*
X52493934Y-74856655D02*
G75*
G02*
X51806655Y-75543934I-426776J-260503D01*
G01*
X52493934Y-74856655D02*
G75*
G02*
X52450000Y-74700353I256058J156299D01*
G01*
%TO.C,D1*%
X30800000Y-120500000D02*
X30800000Y-119799647D01*
X30800000Y-120500000D02*
X30800000Y-121200353D01*
X32500000Y-119000000D02*
X31599647Y-119000000D01*
X32500000Y-119000000D02*
X33400353Y-119000000D01*
X32500000Y-122000000D02*
X31599647Y-122000000D01*
X32500000Y-122000000D02*
X33400353Y-122000000D01*
X34200000Y-120500000D02*
X34200000Y-119799647D01*
X34200000Y-120500000D02*
X34200000Y-121200353D01*
X30756066Y-119643345D02*
G75*
G02*
X30800000Y-119799647I-256058J-156299D01*
G01*
X30756066Y-119643345D02*
G75*
G02*
X31443345Y-118956066I426776J260503D01*
G01*
X30800000Y-121200353D02*
G75*
G02*
X30756066Y-121356655I-299992J-3D01*
G01*
X31443345Y-122043934D02*
G75*
G02*
X30756066Y-121356655I-260503J426776D01*
G01*
X31443345Y-122043934D02*
G75*
G02*
X31599647Y-122000000I156299J-256058D01*
G01*
X31599647Y-119000000D02*
G75*
G02*
X31443345Y-118956066I-3J299992D01*
G01*
X33400353Y-122000000D02*
G75*
G02*
X33556656Y-122043933I-3J-300020D01*
G01*
X33556655Y-118956066D02*
G75*
G02*
X33400353Y-118999976I-156255J256066D01*
G01*
X33556655Y-118956066D02*
G75*
G02*
X34243934Y-119643345I260505J-426774D01*
G01*
X34200000Y-119799647D02*
G75*
G02*
X34243935Y-119643346I299680J87D01*
G01*
X34243934Y-121356655D02*
G75*
G02*
X33556655Y-122043934I-426774J-260505D01*
G01*
X34243934Y-121356655D02*
G75*
G02*
X34200024Y-121200353I256066J156255D01*
G01*
%TO.C,D3*%
X80300000Y-120400000D02*
X80300000Y-119699647D01*
X80300000Y-120400000D02*
X80300000Y-121100353D01*
X82000000Y-118900000D02*
X81099647Y-118900000D01*
X82000000Y-118900000D02*
X82900353Y-118900000D01*
X82000000Y-121900000D02*
X81099647Y-121900000D01*
X82000000Y-121900000D02*
X82900353Y-121900000D01*
X83700000Y-120400000D02*
X83700000Y-119699647D01*
X83700000Y-120400000D02*
X83700000Y-121100353D01*
X80256066Y-119543345D02*
G75*
G02*
X80300000Y-119699647I-256058J-156299D01*
G01*
X80256066Y-119543345D02*
G75*
G02*
X80943345Y-118856066I426776J260503D01*
G01*
X80300000Y-121100353D02*
G75*
G02*
X80256066Y-121256655I-299992J-3D01*
G01*
X80943345Y-121943934D02*
G75*
G02*
X80256066Y-121256655I-260503J426776D01*
G01*
X80943345Y-121943934D02*
G75*
G02*
X81099647Y-121900000I156299J-256058D01*
G01*
X81099647Y-118900000D02*
G75*
G02*
X80943345Y-118856066I-3J299992D01*
G01*
X82900353Y-121900000D02*
G75*
G02*
X83056656Y-121943933I-3J-300020D01*
G01*
X83056655Y-118856066D02*
G75*
G02*
X82900353Y-118899976I-156255J256066D01*
G01*
X83056655Y-118856066D02*
G75*
G02*
X83743934Y-119543345I260505J-426774D01*
G01*
X83700000Y-119699647D02*
G75*
G02*
X83743935Y-119543346I299680J87D01*
G01*
X83743934Y-121256655D02*
G75*
G02*
X83056655Y-121943934I-426774J-260505D01*
G01*
X83743934Y-121256655D02*
G75*
G02*
X83700024Y-121100353I256066J156255D01*
G01*
%TO.C,D2*%
X55300000Y-120400000D02*
X55300000Y-119699647D01*
X55300000Y-120400000D02*
X55300000Y-121100353D01*
X57000000Y-118900000D02*
X56099647Y-118900000D01*
X57000000Y-118900000D02*
X57900353Y-118900000D01*
X57000000Y-121900000D02*
X56099647Y-121900000D01*
X57000000Y-121900000D02*
X57900353Y-121900000D01*
X58700000Y-120400000D02*
X58700000Y-119699647D01*
X58700000Y-120400000D02*
X58700000Y-121100353D01*
X55256066Y-119543345D02*
G75*
G02*
X55300000Y-119699647I-256058J-156299D01*
G01*
X55256066Y-119543345D02*
G75*
G02*
X55943345Y-118856066I426776J260503D01*
G01*
X55300000Y-121100353D02*
G75*
G02*
X55256066Y-121256655I-299992J-3D01*
G01*
X55943345Y-121943934D02*
G75*
G02*
X55256066Y-121256655I-260503J426776D01*
G01*
X55943345Y-121943934D02*
G75*
G02*
X56099647Y-121900000I156299J-256058D01*
G01*
X56099647Y-118900000D02*
G75*
G02*
X55943345Y-118856066I-3J299992D01*
G01*
X57900353Y-121900000D02*
G75*
G02*
X58056656Y-121943933I-3J-300020D01*
G01*
X58056655Y-118856066D02*
G75*
G02*
X57900353Y-118899976I-156255J256066D01*
G01*
X58056655Y-118856066D02*
G75*
G02*
X58743934Y-119543345I260505J-426774D01*
G01*
X58700000Y-119699647D02*
G75*
G02*
X58743935Y-119543346I299680J87D01*
G01*
X58743934Y-121256655D02*
G75*
G02*
X58056655Y-121943934I-426774J-260505D01*
G01*
X58743934Y-121256655D02*
G75*
G02*
X58700024Y-121100353I256066J156255D01*
G01*
%TO.C,D4*%
X105575000Y-120250000D02*
X105575000Y-119549647D01*
X105575000Y-120250000D02*
X105575000Y-120950353D01*
X107275000Y-118750000D02*
X106374647Y-118750000D01*
X107275000Y-118750000D02*
X108175353Y-118750000D01*
X107275000Y-121750000D02*
X106374647Y-121750000D01*
X107275000Y-121750000D02*
X108175353Y-121750000D01*
X108975000Y-120250000D02*
X108975000Y-119549647D01*
X108975000Y-120250000D02*
X108975000Y-120950353D01*
X105531066Y-119393345D02*
G75*
G02*
X105575000Y-119549647I-256058J-156299D01*
G01*
X105531066Y-119393345D02*
G75*
G02*
X106218345Y-118706066I426776J260503D01*
G01*
X105575000Y-120950353D02*
G75*
G02*
X105531066Y-121106655I-299992J-3D01*
G01*
X106218345Y-121793934D02*
G75*
G02*
X105531066Y-121106655I-260503J426776D01*
G01*
X106218345Y-121793934D02*
G75*
G02*
X106374647Y-121750000I156299J-256058D01*
G01*
X106374647Y-118750000D02*
G75*
G02*
X106218345Y-118706066I-3J299992D01*
G01*
X108175353Y-121750000D02*
G75*
G02*
X108331656Y-121793933I-3J-300020D01*
G01*
X108331655Y-118706066D02*
G75*
G02*
X108175353Y-118749976I-156255J256066D01*
G01*
X108331655Y-118706066D02*
G75*
G02*
X109018934Y-119393345I260505J-426774D01*
G01*
X108975000Y-119549647D02*
G75*
G02*
X109018935Y-119393346I299680J87D01*
G01*
X109018934Y-121106655D02*
G75*
G02*
X108331655Y-121793934I-426774J-260505D01*
G01*
X109018934Y-121106655D02*
G75*
G02*
X108975024Y-120950353I256066J156255D01*
G01*
%TD*%
M02*
