%TF.GenerationSoftware,KiCad,Pcbnew,10.0.5*%
%TF.CreationDate,2026-07-23T00:51:16+02:00*%
%TF.ProjectId,learsim pcbs,6c656172-7369-46d2-9070-6362732e6b69,rev?*%
%TF.SameCoordinates,Original*%
%TF.FileFunction,Soldermask,Bot*%
%TF.FilePolarity,Negative*%
%FSLAX46Y46*%
G04 Gerber Fmt 4.6, Leading zero omitted, Abs format (unit mm)*
G04 Created by KiCad (PCBNEW 10.0.5) date 2026-07-23 00:51:16*
%MOMM*%
%LPD*%
G01*
G04 APERTURE LIST*
G04 Aperture macros list*
%AMRoundRect*
0 Rectangle with rounded corners*
0 $1 Rounding radius*
0 $2 $3 $4 $5 $6 $7 $8 $9 X,Y pos of 4 corners*
0 Add a 4 corners polygon primitive as box body*
4,1,4,$2,$3,$4,$5,$6,$7,$8,$9,$2,$3,0*
0 Add four circle primitives for the rounded corners*
1,1,$1+$1,$2,$3*
1,1,$1+$1,$4,$5*
1,1,$1+$1,$6,$7*
1,1,$1+$1,$8,$9*
0 Add four rect primitives between the rounded corners*
20,1,$1+$1,$2,$3,$4,$5,0*
20,1,$1+$1,$4,$5,$6,$7,0*
20,1,$1+$1,$6,$7,$8,$9,0*
20,1,$1+$1,$8,$9,$2,$3,0*%
G04 Aperture macros list end*
%ADD10C,1.750000*%
%ADD11C,4.000000*%
%ADD12C,2.500000*%
%ADD13RoundRect,0.250000X-0.550000X-0.550000X0.550000X-0.550000X0.550000X0.550000X-0.550000X0.550000X0*%
%ADD14C,1.600000*%
G04 APERTURE END LIST*
D10*
%TO.C,NAV1*%
X115540000Y-110080000D03*
X105380000Y-110080000D03*
D11*
X110460000Y-110080000D03*
D12*
X113000000Y-105000000D03*
X106650000Y-107540000D03*
%TD*%
D13*
%TO.C,U3*%
X114880000Y-40340000D03*
D14*
X114880000Y-42880000D03*
X114880000Y-45420000D03*
X114880000Y-47960000D03*
X114880000Y-50500000D03*
X114880000Y-53040000D03*
X114880000Y-55580000D03*
X114880000Y-58120000D03*
X114880000Y-60660000D03*
X114880000Y-63200000D03*
X114880000Y-65740000D03*
X114880000Y-68280000D03*
X122500000Y-68280000D03*
X122500000Y-65740000D03*
X122500000Y-63200000D03*
X122500000Y-60660000D03*
X122500000Y-58120000D03*
X122500000Y-55580000D03*
X122500000Y-53040000D03*
X122500000Y-50500000D03*
X122500000Y-47960000D03*
X122500000Y-45420000D03*
X122500000Y-42880000D03*
X122500000Y-40340000D03*
%TD*%
D13*
%TO.C,U2*%
X39880000Y-53920000D03*
D14*
X39880000Y-56460000D03*
X39880000Y-59000000D03*
X39880000Y-61540000D03*
X39880000Y-64080000D03*
X39880000Y-66620000D03*
X39880000Y-69160000D03*
X39880000Y-71700000D03*
X39880000Y-74240000D03*
X39880000Y-76780000D03*
X39880000Y-79320000D03*
X39880000Y-81860000D03*
X47500000Y-81860000D03*
X47500000Y-79320000D03*
X47500000Y-76780000D03*
X47500000Y-74240000D03*
X47500000Y-71700000D03*
X47500000Y-69160000D03*
X47500000Y-66620000D03*
X47500000Y-64080000D03*
X47500000Y-61540000D03*
X47500000Y-59000000D03*
X47500000Y-56460000D03*
X47500000Y-53920000D03*
%TD*%
D12*
%TO.C,Switch1*%
X124150000Y-106540000D03*
X130500000Y-104000000D03*
D11*
X127960000Y-109080000D03*
D10*
X122880000Y-109080000D03*
X133040000Y-109080000D03*
%TD*%
D12*
%TO.C,NAV2*%
X113650000Y-81040000D03*
X120000000Y-78500000D03*
D11*
X117460000Y-83580000D03*
D10*
X112380000Y-83580000D03*
X122540000Y-83580000D03*
%TD*%
D12*
%TO.C,COM2*%
X58190000Y-106960000D03*
X64540000Y-104420000D03*
D11*
X62000000Y-109500000D03*
D10*
X56920000Y-109500000D03*
X67080000Y-109500000D03*
%TD*%
D12*
%TO.C,COM1*%
X81150000Y-107040000D03*
X87500000Y-104500000D03*
D11*
X84960000Y-109580000D03*
D10*
X79880000Y-109580000D03*
X90040000Y-109580000D03*
%TD*%
D12*
%TO.C,ADF1*%
X31650000Y-110040000D03*
X38000000Y-107500000D03*
D11*
X35460000Y-112580000D03*
D10*
X30380000Y-112580000D03*
X40540000Y-112580000D03*
%TD*%
M02*
