%TF.GenerationSoftware,KiCad,Pcbnew,10.0.5*%
%TF.CreationDate,2026-07-26T23:00:52+02:00*%
%TF.ProjectId,learsim pcbs,6c656172-7369-46d2-9070-6362732e6b69,rev?*%
%TF.SameCoordinates,Original*%
%TF.FileFunction,Copper,L2,Bot*%
%TF.FilePolarity,Positive*%
%FSLAX46Y46*%
G04 Gerber Fmt 4.6, Leading zero omitted, Abs format (unit mm)*
G04 Created by KiCad (PCBNEW 10.0.5) date 2026-07-26 23:00:52*
%MOMM*%
%LPD*%
G01*
G04 APERTURE LIST*
G04 Aperture macros list*
%AMRoundRect*
0 Rectangle with rounded corners*
0 $1 Rounding radius*
0 $2 $3 $4 $5 $6 $7 $8 $9 X,Y pos of 4 corners*
0 Add a 4 corners polygon primitive as box body*
4,1,4,$2,$3,$4,$5,$6,$7,$8,$9,$2,$3,0*
0 Add four circle primitives for the rounded corners*
1,1,$1+$1,$2,$3*
1,1,$1+$1,$4,$5*
1,1,$1+$1,$6,$7*
1,1,$1+$1,$8,$9*
0 Add four rect primitives between the rounded corners*
20,1,$1+$1,$2,$3,$4,$5,0*
20,1,$1+$1,$4,$5,$6,$7,0*
20,1,$1+$1,$6,$7,$8,$9,0*
20,1,$1+$1,$8,$9,$2,$3,0*%
G04 Aperture macros list end*
%TA.AperFunction,ComponentPad*%
%ADD10C,1.800000*%
%TD*%
%TA.AperFunction,ComponentPad*%
%ADD11R,1.800000X1.800000*%
%TD*%
%TA.AperFunction,ComponentPad*%
%ADD12C,1.600000*%
%TD*%
%TA.AperFunction,ComponentPad*%
%ADD13C,2.500000*%
%TD*%
%TA.AperFunction,ComponentPad*%
%ADD14RoundRect,0.250000X0.550000X-0.550000X0.550000X0.550000X-0.550000X0.550000X-0.550000X-0.550000X0*%
%TD*%
%TA.AperFunction,ComponentPad*%
%ADD15R,1.600000X1.600000*%
%TD*%
%TA.AperFunction,ComponentPad*%
%ADD16O,1.200000X2.200000*%
%TD*%
%TA.AperFunction,ComponentPad*%
%ADD17O,3.300000X3.500000*%
%TD*%
%TA.AperFunction,SMDPad,CuDef*%
%ADD18RoundRect,0.205000X-0.470000X-0.205000X0.470000X-0.205000X0.470000X0.205000X-0.470000X0.205000X0*%
%TD*%
%TA.AperFunction,SMDPad,CuDef*%
%ADD19RoundRect,0.205000X0.470000X0.205000X-0.470000X0.205000X-0.470000X-0.205000X0.470000X-0.205000X0*%
%TD*%
%TA.AperFunction,ComponentPad*%
%ADD20RoundRect,0.250000X-0.550000X-0.550000X0.550000X-0.550000X0.550000X0.550000X-0.550000X0.550000X0*%
%TD*%
%TA.AperFunction,SMDPad,CuDef*%
%ADD21R,1.600000X3.400000*%
%TD*%
%TA.AperFunction,ViaPad*%
%ADD22C,0.600000*%
%TD*%
%TA.AperFunction,Conductor*%
%ADD23C,0.200000*%
%TD*%
G04 APERTURE END LIST*
D10*
%TO.P,D8,2,A_2*%
%TO.N,Net-(D8-A)*%
X64920000Y-91990000D03*
D11*
%TO.P,D8,1,K_1*%
%TO.N,GND*%
X62380000Y-91990000D03*
%TD*%
D12*
%TO.P,R17,2,~_2*%
%TO.N,COM1_LED*%
X34230000Y-84270000D03*
%TO.P,R17,1,~_1*%
%TO.N,Net-(D7-A)*%
X26610000Y-84270000D03*
%TD*%
%TO.P,R18,1,~_1*%
%TO.N,Net-(D8-A)*%
X64990000Y-97500000D03*
%TO.P,R18,2,~_2*%
%TO.N,COM2_LED*%
X72610000Y-97500000D03*
%TD*%
D13*
%TO.P,NAV2,1,1_1*%
%TO.N,GND*%
X103340000Y-112600000D03*
%TO.P,NAV2,2,2_2*%
%TO.N,BTN_NAV2*%
X109690000Y-110060000D03*
%TD*%
%TO.P,Switch1,1,1_1*%
%TO.N,GND*%
X47010000Y-66270000D03*
%TO.P,Switch1,2,2_2*%
%TO.N,BTN_Switch1*%
X53360000Y-63730000D03*
%TD*%
D14*
%TO.P,U3,1,DIN_1*%
%TO.N,MAX_CHAIN*%
X34180000Y-55305000D03*
D12*
%TO.P,U3,2,DIG_0_2*%
%TO.N,U3_DIG0*%
X36720000Y-55305000D03*
%TO.P,U3,3,DIG_4_3*%
%TO.N,U3_DIG4*%
X39260000Y-55305000D03*
%TO.P,U3,4,GND_4*%
%TO.N,GND*%
X41800000Y-55305000D03*
%TO.P,U3,5,DIG_6_5*%
%TO.N,unconnected-(U3-DIG_6-Pad5)*%
X44340000Y-55305000D03*
%TO.P,U3,6,DIG_2_6*%
%TO.N,U3_DIG2*%
X46880000Y-55305000D03*
%TO.P,U3,7,DIG_3_7*%
%TO.N,U3_DIG3*%
X49420000Y-55305000D03*
%TO.P,U3,8,DIG_7_8*%
%TO.N,unconnected-(U3-DIG_7-Pad8)*%
X51960000Y-55305000D03*
%TO.P,U3,9,GND_9*%
%TO.N,GND*%
X54500000Y-55305000D03*
%TO.P,U3,10,DIG_5_10*%
%TO.N,U3_DIG5*%
X57040000Y-55305000D03*
%TO.P,U3,11,DIG_1_11*%
%TO.N,U3_DIG1*%
X59580000Y-55305000D03*
%TO.P,U3,12,LOAD_12*%
%TO.N,SPI_LOAD*%
X62120000Y-55305000D03*
%TO.P,U3,13,CLK_13*%
%TO.N,SPI_CLK*%
X62120000Y-47685000D03*
%TO.P,U3,14,SEG_A_14*%
%TO.N,U3_SEG_A*%
X59580000Y-47685000D03*
%TO.P,U3,15,SEG_F_15*%
%TO.N,U3_SEG_F*%
X57040000Y-47685000D03*
%TO.P,U3,16,SEG_B_16*%
%TO.N,U3_SEG_B*%
X54500000Y-47685000D03*
%TO.P,U3,17,SEG_G_17*%
%TO.N,U3_SEG_G*%
X51960000Y-47685000D03*
%TO.P,U3,18,ISET_18*%
%TO.N,U3_ISET*%
X49420000Y-47685000D03*
%TO.P,U3,19,V+_19*%
%TO.N,+5V*%
X46880000Y-47685000D03*
%TO.P,U3,20,SEG_C_20*%
%TO.N,U3_SEG_C*%
X44340000Y-47685000D03*
%TO.P,U3,21,SEG_E_21*%
%TO.N,U3_SEG_E*%
X41800000Y-47685000D03*
%TO.P,U3,22,SEG_DP_22*%
%TO.N,U3_SEG_DP*%
X39260000Y-47685000D03*
%TO.P,U3,23,SEG_D_23*%
%TO.N,U3_SEG_D*%
X36720000Y-47685000D03*
%TO.P,U3,24,DOUT_24*%
%TO.N,unconnected-(U3-DOUT-Pad24)*%
X34180000Y-47685000D03*
%TD*%
D15*
%TO.P,DS1,1,D_1*%
%TO.N,U3_SEG_D*%
X43000000Y-31410000D03*
D12*
%TO.P,DS1,2,DP_2*%
%TO.N,U3_SEG_DP*%
X45540000Y-31410000D03*
%TO.P,DS1,3,E_3*%
%TO.N,U3_SEG_E*%
X48080000Y-31410000D03*
%TO.P,DS1,4,C_4*%
%TO.N,U3_SEG_C*%
X50620000Y-31410000D03*
%TO.P,DS1,5,DIG6_5*%
%TO.N,U3_DIG5*%
X53160000Y-31410000D03*
%TO.P,DS1,6,G_6*%
%TO.N,U3_SEG_G*%
X55700000Y-31410000D03*
%TO.P,DS1,7,B_7*%
%TO.N,U3_SEG_B*%
X58240000Y-31410000D03*
%TO.P,DS1,8,DIG5_8*%
%TO.N,U3_DIG4*%
X58240000Y-41570000D03*
%TO.P,DS1,9,DIG4_9*%
%TO.N,U3_DIG3*%
X55700000Y-41570000D03*
%TO.P,DS1,10,F_10*%
%TO.N,U3_SEG_F*%
X53160000Y-41570000D03*
%TO.P,DS1,11,A_11*%
%TO.N,U3_SEG_A*%
X50620000Y-41570000D03*
%TO.P,DS1,12,DIG3_12*%
%TO.N,U3_DIG2*%
X48080000Y-41570000D03*
%TO.P,DS1,13,DIG2_13*%
%TO.N,U3_DIG1*%
X45540000Y-41570000D03*
%TO.P,DS1,14,DIG1_14*%
%TO.N,U3_DIG0*%
X43000000Y-41570000D03*
%TD*%
D16*
%TO.P,SW3,1,1_1*%
%TO.N,SW3_A*%
X47440000Y-94540000D03*
%TO.P,SW3,2,2_2*%
%TO.N,GND*%
X44900000Y-94540000D03*
%TO.P,SW3,3,3_3*%
%TO.N,SW3_B*%
X42360000Y-94540000D03*
%TO.P,SW3,4,4_4*%
%TO.N,unconnected-(SW3-Pad4)*%
X47440000Y-89460000D03*
%TO.P,SW3,5,5_5*%
%TO.N,unconnected-(SW3-Pad5)*%
X44900000Y-89460000D03*
%TO.P,SW3,6,6_6*%
%TO.N,unconnected-(SW3-Pad6)*%
X42360000Y-89460000D03*
%TD*%
D14*
%TO.P,U2,1,DIN_1*%
%TO.N,SPI_DIN*%
X99590000Y-55620000D03*
D12*
%TO.P,U2,2,DIG_0_2*%
%TO.N,U2_DIG0*%
X102130000Y-55620000D03*
%TO.P,U2,3,DIG_4_3*%
%TO.N,U2_DIG4*%
X104670000Y-55620000D03*
%TO.P,U2,4,GND_4*%
%TO.N,GND*%
X107210000Y-55620000D03*
%TO.P,U2,5,DIG_6_5*%
%TO.N,unconnected-(U2-DIG_6-Pad5)*%
X109750000Y-55620000D03*
%TO.P,U2,6,DIG_2_6*%
%TO.N,U2_DIG2*%
X112290000Y-55620000D03*
%TO.P,U2,7,DIG_3_7*%
%TO.N,U2_DIG3*%
X114830000Y-55620000D03*
%TO.P,U2,8,DIG_7_8*%
%TO.N,unconnected-(U2-DIG_7-Pad8)*%
X117370000Y-55620000D03*
%TO.P,U2,9,GND_9*%
%TO.N,GND*%
X119910000Y-55620000D03*
%TO.P,U2,10,DIG_5_10*%
%TO.N,U2_DIG5*%
X122450000Y-55620000D03*
%TO.P,U2,11,DIG_1_11*%
%TO.N,U2_DIG1*%
X124990000Y-55620000D03*
%TO.P,U2,12,LOAD_12*%
%TO.N,SPI_LOAD*%
X127530000Y-55620000D03*
%TO.P,U2,13,CLK_13*%
%TO.N,SPI_CLK*%
X127530000Y-48000000D03*
%TO.P,U2,14,SEG_A_14*%
%TO.N,U2_SEG_A*%
X124990000Y-48000000D03*
%TO.P,U2,15,SEG_F_15*%
%TO.N,U2_SEG_F*%
X122450000Y-48000000D03*
%TO.P,U2,16,SEG_B_16*%
%TO.N,U2_SEG_B*%
X119910000Y-48000000D03*
%TO.P,U2,17,SEG_G_17*%
%TO.N,U2_SEG_G*%
X117370000Y-48000000D03*
%TO.P,U2,18,ISET_18*%
%TO.N,U2_ISET*%
X114830000Y-48000000D03*
%TO.P,U2,19,V+_19*%
%TO.N,+5V*%
X112290000Y-48000000D03*
%TO.P,U2,20,SEG_C_20*%
%TO.N,U2_SEG_C*%
X109750000Y-48000000D03*
%TO.P,U2,21,SEG_E_21*%
%TO.N,U2_SEG_E*%
X107210000Y-48000000D03*
%TO.P,U2,22,SEG_DP_22*%
%TO.N,U2_SEG_DP*%
X104670000Y-48000000D03*
%TO.P,U2,23,SEG_D_23*%
%TO.N,U2_SEG_D*%
X102130000Y-48000000D03*
%TO.P,U2,24,DOUT_24*%
%TO.N,MAX_CHAIN*%
X99590000Y-48000000D03*
%TD*%
D13*
%TO.P,NAV1,1,1_1*%
%TO.N,GND*%
X78200000Y-112640000D03*
%TO.P,NAV1,2,2_2*%
%TO.N,BTN_NAV1*%
X84550000Y-110100000D03*
%TD*%
%TO.P,ADF1,1,1_1*%
%TO.N,GND*%
X127760000Y-112580000D03*
%TO.P,ADF1,2,2_2*%
%TO.N,BTN_ADF1*%
X134110000Y-110040000D03*
%TD*%
D15*
%TO.P,DS2,1,D_1*%
%TO.N,U2_SEG_D*%
X105790000Y-31400000D03*
D12*
%TO.P,DS2,2,DP_2*%
%TO.N,U2_SEG_DP*%
X108330000Y-31400000D03*
%TO.P,DS2,3,E_3*%
%TO.N,U2_SEG_E*%
X110870000Y-31400000D03*
%TO.P,DS2,4,C_4*%
%TO.N,U2_SEG_C*%
X113410000Y-31400000D03*
%TO.P,DS2,5,DIG6_5*%
%TO.N,U2_DIG5*%
X115950000Y-31400000D03*
%TO.P,DS2,6,G_6*%
%TO.N,U2_SEG_G*%
X118490000Y-31400000D03*
%TO.P,DS2,7,B_7*%
%TO.N,U2_SEG_B*%
X121030000Y-31400000D03*
%TO.P,DS2,8,DIG5_8*%
%TO.N,U2_DIG4*%
X121030000Y-41560000D03*
%TO.P,DS2,9,DIG4_9*%
%TO.N,U2_DIG3*%
X118490000Y-41560000D03*
%TO.P,DS2,10,F_10*%
%TO.N,U2_SEG_F*%
X115950000Y-41560000D03*
%TO.P,DS2,11,A_11*%
%TO.N,U2_SEG_A*%
X113410000Y-41560000D03*
%TO.P,DS2,12,DIG3_12*%
%TO.N,U2_DIG2*%
X110870000Y-41560000D03*
%TO.P,DS2,13,DIG2_13*%
%TO.N,U2_DIG1*%
X108330000Y-41560000D03*
%TO.P,DS2,14,DIG1_14*%
%TO.N,U2_DIG0*%
X105790000Y-41560000D03*
%TD*%
D10*
%TO.P,SW1,A,A_A*%
%TO.N,ENC1_A*%
X95177500Y-76247500D03*
%TO.P,SW1,B,B_B*%
%TO.N,ENC1_B*%
X100257500Y-76247500D03*
%TO.P,SW1,C,C_C*%
%TO.N,GND*%
X97717500Y-76247500D03*
D17*
%TO.P,SW1,D,D_D*%
%TO.N,ENC1_SW*%
X103317500Y-68747500D03*
%TO.P,SW1,E,E_E*%
%TO.N,GND*%
X92117500Y-68747500D03*
%TD*%
D11*
%TO.P,D7,1,K_1*%
%TO.N,GND*%
X25580000Y-91930000D03*
D10*
%TO.P,D7,2,A_2*%
%TO.N,Net-(D7-A)*%
X28120000Y-91930000D03*
%TD*%
D13*
%TO.P,COM2,1,1_1*%
%TO.N,GND*%
X53110000Y-112610000D03*
%TO.P,COM2,2,2_2*%
%TO.N,BTN_COM2*%
X59460000Y-110070000D03*
%TD*%
%TO.P,COM1,1,1_1*%
%TO.N,GND*%
X28700000Y-112650000D03*
%TO.P,COM1,2,2_2*%
%TO.N,BTN_COM1*%
X35050000Y-110110000D03*
%TD*%
D10*
%TO.P,SW2,A,A_A*%
%TO.N,ENC2_A*%
X126660000Y-76300000D03*
%TO.P,SW2,B,B_B*%
%TO.N,ENC2_B*%
X131740000Y-76300000D03*
%TO.P,SW2,C,C_C*%
%TO.N,GND*%
X129200000Y-76300000D03*
D17*
%TO.P,SW2,D,D_D*%
%TO.N,ENC2_SW*%
X134800000Y-68800000D03*
%TO.P,SW2,E,E_E*%
%TO.N,GND*%
X123600000Y-68800000D03*
%TD*%
D18*
%TO.P,D6,1,VSS_1*%
%TO.N,GND*%
X128775000Y-119600000D03*
%TO.P,D6,2,DIN_2*%
%TO.N,LED_56*%
X128775000Y-121100000D03*
%TO.P,D6,3,VDD_3*%
%TO.N,+5V*%
X134225000Y-121100000D03*
%TO.P,D6,4,DOUT_4*%
%TO.N,unconnected-(D6-DOUT-Pad4)*%
X134225000Y-119600000D03*
%TD*%
D12*
%TO.P,R1,1,~_1*%
%TO.N,U2_ISET*%
X112190000Y-59250000D03*
%TO.P,R1,2,~_2*%
%TO.N,+5V*%
X119810000Y-59250000D03*
%TD*%
%TO.P,C12,1,~_1*%
%TO.N,+5V*%
X120000000Y-126000000D03*
%TO.P,C12,2,~_2*%
%TO.N,GND*%
X125000000Y-126000000D03*
%TD*%
%TO.P,C7,1,~_1*%
%TO.N,+5V*%
X24750000Y-49000000D03*
%TO.P,C7,2,~_2*%
%TO.N,GND*%
X29750000Y-49000000D03*
%TD*%
%TO.P,R9,1,~_1*%
%TO.N,+3V3*%
X78190000Y-74000000D03*
%TO.P,R9,2,~_2*%
%TO.N,ENC1_A*%
X85810000Y-74000000D03*
%TD*%
D19*
%TO.P,D5,1,VSS_1*%
%TO.N,GND*%
X53475000Y-74750000D03*
%TO.P,D5,2,DIN_2*%
%TO.N,LED_DIN*%
X53475000Y-73250000D03*
%TO.P,D5,3,VDD_3*%
%TO.N,+5V*%
X48025000Y-73250000D03*
%TO.P,D5,4,DOUT_4*%
%TO.N,LED_12*%
X48025000Y-74750000D03*
%TD*%
D12*
%TO.P,C13,1,~_1*%
%TO.N,ENC1_A*%
X85750000Y-70000000D03*
%TO.P,C13,2,~_2*%
%TO.N,GND*%
X80750000Y-70000000D03*
%TD*%
%TO.P,R10,1,~_1*%
%TO.N,+3V3*%
X78190000Y-65500000D03*
%TO.P,R10,2,~_2*%
%TO.N,ENC1_B*%
X85810000Y-65500000D03*
%TD*%
%TO.P,R3,1,~_1*%
%TO.N,+3V3*%
X37690000Y-126750000D03*
%TO.P,R3,2,~_2*%
%TO.N,BTN_COM1*%
X45310000Y-126750000D03*
%TD*%
D18*
%TO.P,D1,1,VSS_1*%
%TO.N,GND*%
X29775000Y-119750000D03*
%TO.P,D1,2,DIN_2*%
%TO.N,LED_12*%
X29775000Y-121250000D03*
%TO.P,D1,3,VDD_3*%
%TO.N,+5V*%
X35225000Y-121250000D03*
%TO.P,D1,4,DOUT_4*%
%TO.N,LED_23*%
X35225000Y-119750000D03*
%TD*%
D12*
%TO.P,C17,1,~_1*%
%TO.N,ENC2_B*%
X117250000Y-64000000D03*
%TO.P,C17,2,~_2*%
%TO.N,GND*%
X112250000Y-64000000D03*
%TD*%
D18*
%TO.P,D3,1,VSS_1*%
%TO.N,GND*%
X79275000Y-119650000D03*
%TO.P,D3,2,DIN_2*%
%TO.N,LED_34*%
X79275000Y-121150000D03*
%TO.P,D3,3,VDD_3*%
%TO.N,+5V*%
X84725000Y-121150000D03*
%TO.P,D3,4,DOUT_4*%
%TO.N,LED_45*%
X84725000Y-119650000D03*
%TD*%
D12*
%TO.P,R8,1,~_1*%
%TO.N,+3V3*%
X62310000Y-80000000D03*
%TO.P,R8,2,~_2*%
%TO.N,BTN_Switch1*%
X54690000Y-80000000D03*
%TD*%
%TO.P,R12,1,~_1*%
%TO.N,+3V3*%
X110940000Y-75750000D03*
%TO.P,R12,2,~_2*%
%TO.N,ENC2_A*%
X118560000Y-75750000D03*
%TD*%
%TO.P,R11,1,~_1*%
%TO.N,+3V3*%
X79130000Y-55250000D03*
%TO.P,R11,2,~_2*%
%TO.N,ENC1_SW*%
X86750000Y-55250000D03*
%TD*%
%TO.P,C10,1,~_1*%
%TO.N,+5V*%
X98250000Y-126000000D03*
%TO.P,C10,2,~_2*%
%TO.N,GND*%
X103250000Y-126000000D03*
%TD*%
%TO.P,C4,1,~_1*%
%TO.N,+5V*%
X137500000Y-103750000D03*
%TO.P,C4,2,~_2*%
%TO.N,GND*%
X137500000Y-98750000D03*
%TD*%
D18*
%TO.P,D2,1,VSS_1*%
%TO.N,GND*%
X54275000Y-119650000D03*
%TO.P,D2,2,DIN_2*%
%TO.N,LED_23*%
X54275000Y-121150000D03*
%TO.P,D2,3,VDD_3*%
%TO.N,+5V*%
X59725000Y-121150000D03*
%TO.P,D2,4,DOUT_4*%
%TO.N,LED_34*%
X59725000Y-119650000D03*
%TD*%
D20*
%TO.P,C1,1,~_1*%
%TO.N,+5V*%
X91750000Y-48000000D03*
D12*
%TO.P,C1,2,~_2*%
%TO.N,GND*%
X94250000Y-48000000D03*
%TD*%
%TO.P,R15,1,~_1*%
%TO.N,SW3_A*%
X47940000Y-98000000D03*
%TO.P,R15,2,~_2*%
%TO.N,+3V3*%
X55560000Y-98000000D03*
%TD*%
%TO.P,C16,1,~_1*%
%TO.N,ENC2_A*%
X117250000Y-72250000D03*
%TO.P,C16,2,~_2*%
%TO.N,GND*%
X112250000Y-72250000D03*
%TD*%
%TO.P,R6,1,~_1*%
%TO.N,+3V3*%
X106630000Y-126000000D03*
%TO.P,R6,2,~_2*%
%TO.N,BTN_NAV2*%
X114250000Y-126000000D03*
%TD*%
D20*
%TO.P,C6,1,~_1*%
%TO.N,+5V*%
X81250000Y-36000000D03*
D12*
%TO.P,C6,2,~_2*%
%TO.N,GND*%
X83750000Y-36000000D03*
%TD*%
%TO.P,R7,1,~_1*%
%TO.N,+3V3*%
X119500000Y-112940000D03*
%TO.P,R7,2,~_2*%
%TO.N,BTN_ADF1*%
X119500000Y-120560000D03*
%TD*%
%TO.P,R4,1,~_1*%
%TO.N,+3V3*%
X59380000Y-126500000D03*
%TO.P,R4,2,~_2*%
%TO.N,BTN_COM2*%
X67000000Y-126500000D03*
%TD*%
%TO.P,R13,1,~_1*%
%TO.N,+3V3*%
X110190000Y-67750000D03*
%TO.P,R13,2,~_2*%
%TO.N,ENC2_B*%
X117810000Y-67750000D03*
%TD*%
D21*
%TO.P,U1,1,TX_1*%
%TO.N,ENC1_B*%
X129455000Y-82275000D03*
%TO.P,U1,2,RX_2*%
%TO.N,COM2_LED*%
X126915000Y-82275000D03*
%TO.P,U1,3,GND_3*%
%TO.N,GND*%
X124375000Y-82275000D03*
%TO.P,U1,4,GPIO4_4*%
%TO.N,SPI_LOAD*%
X121835000Y-82275000D03*
%TO.P,U1,5,GPIO5_5*%
%TO.N,ENC1_SW*%
X119295000Y-82275000D03*
%TO.P,U1,6,GPIO6_6*%
%TO.N,SPI_DIN*%
X116755000Y-82275000D03*
%TO.P,U1,7,GPIO7_7*%
%TO.N,SPI_CLK*%
X114215000Y-82275000D03*
%TO.P,U1,8,GND_8*%
%TO.N,GND*%
X111675000Y-82275000D03*
%TO.P,U1,9,GPIO14_9*%
%TO.N,BTN_Switch1*%
X109135000Y-82275000D03*
%TO.P,U1,10,GPIO15_10*%
%TO.N,ENC1_A*%
X106595000Y-82275000D03*
%TO.P,U1,11,GPIO8_11*%
%TO.N,SW3_A*%
X104055000Y-82275000D03*
%TO.P,U1,12,GPIO9_12*%
%TO.N,SW3_B*%
X101515000Y-82275000D03*
%TO.P,U1,13,GND_13*%
%TO.N,GND*%
X98975000Y-82275000D03*
%TO.P,U1,14,GPIO18_14*%
%TO.N,ENC2_A*%
X96435000Y-82275000D03*
%TO.P,U1,15,GPIO19_15*%
%TO.N,ENC2_B*%
X93895000Y-82275000D03*
%TO.P,U1,16,GPIO20_16*%
%TO.N,ENC2_SW*%
X91355000Y-82275000D03*
%TO.P,U1,17,GPIO21_17*%
%TO.N,LED_DIN*%
X88815000Y-82275000D03*
%TO.P,U1,18,GND_18*%
%TO.N,GND*%
X86275000Y-82275000D03*
%TO.P,U1,19,EXIO6_19*%
%TO.N,unconnected-(U1-EXIO6-Pad19)*%
X83735000Y-82275000D03*
%TO.P,U1,20,EXIO7_20*%
%TO.N,unconnected-(U1-EXIO7-Pad20)*%
X81195000Y-82275000D03*
%TO.P,U1,21,Vbus_21*%
%TO.N,+5V*%
X129455000Y-99675000D03*
%TO.P,U1,22,Vsys_22*%
X126915000Y-99675000D03*
%TO.P,U1,23,GND_23*%
%TO.N,GND*%
X124375000Y-99675000D03*
%TO.P,U1,24,3V3_EN_24*%
%TO.N,unconnected-(U1-3V3_EN-Pad24)*%
X121835000Y-99675000D03*
%TO.P,U1,25,3V3_25*%
%TO.N,+3V3*%
X119295000Y-99675000D03*
%TO.P,U1,26,GPIO0_26*%
%TO.N,BTN_COM2*%
X116755000Y-99675000D03*
%TO.P,U1,27,GPIO1_27*%
%TO.N,BTN_NAV1*%
X114215000Y-99675000D03*
%TO.P,U1,28,GND_28*%
%TO.N,GND*%
X111675000Y-99675000D03*
%TO.P,U1,29,GPIO2_29*%
%TO.N,BTN_COM1*%
X109135000Y-99675000D03*
%TO.P,U1,30,GPIO3_30*%
%TO.N,COM1_LED*%
X106595000Y-99675000D03*
%TO.P,U1,31,RUN_31*%
%TO.N,unconnected-(U1-RUN-Pad31)*%
X104055000Y-99675000D03*
%TO.P,U1,32,EXIO1_32*%
%TO.N,unconnected-(U1-EXIO1-Pad32)*%
X101515000Y-99675000D03*
%TO.P,U1,33,GND_33*%
%TO.N,GND*%
X98975000Y-99675000D03*
%TO.P,U1,34,GPIO23_34*%
%TO.N,BTN_NAV2*%
X96435000Y-99675000D03*
%TO.P,U1,35,GPIO22_35*%
%TO.N,BTN_ADF1*%
X93895000Y-99675000D03*
%TO.P,U1,36,EXIO2_36*%
%TO.N,unconnected-(U1-EXIO2-Pad36)*%
X91355000Y-99675000D03*
%TO.P,U1,37,EXIO3_37*%
%TO.N,unconnected-(U1-EXIO3-Pad37)*%
X88815000Y-99675000D03*
%TO.P,U1,38,GND_38*%
%TO.N,GND*%
X86275000Y-99675000D03*
%TO.P,U1,39,EXIO4_39*%
%TO.N,unconnected-(U1-EXIO4-Pad39)*%
X83735000Y-99675000D03*
%TO.P,U1,40,EXIO5_40*%
%TO.N,unconnected-(U1-EXIO5-Pad40)*%
X81195000Y-99675000D03*
%TD*%
D12*
%TO.P,C15,1,~_1*%
%TO.N,ENC1_SW*%
X107750000Y-64500000D03*
%TO.P,C15,2,~_2*%
%TO.N,GND*%
X107750000Y-59500000D03*
%TD*%
%TO.P,C5,1,~_1*%
%TO.N,+3V3*%
X90000000Y-53750000D03*
%TO.P,C5,2,~_2*%
%TO.N,GND*%
X95000000Y-53750000D03*
%TD*%
%TO.P,C18,1,~_1*%
%TO.N,ENC2_SW*%
X137000000Y-58250000D03*
%TO.P,C18,2,~_2*%
%TO.N,GND*%
X137000000Y-53250000D03*
%TD*%
%TO.P,R2,1,~_1*%
%TO.N,U3_ISET*%
X66750000Y-47690000D03*
%TO.P,R2,2,~_2*%
%TO.N,+5V*%
X66750000Y-55310000D03*
%TD*%
%TO.P,R5,1,~_1*%
%TO.N,+3V3*%
X82690000Y-126500000D03*
%TO.P,R5,2,~_2*%
%TO.N,BTN_NAV1*%
X90310000Y-126500000D03*
%TD*%
%TO.P,R14,1,~_1*%
%TO.N,+3V3*%
X132250000Y-48500000D03*
%TO.P,R14,2,~_2*%
%TO.N,ENC2_SW*%
X132250000Y-56120000D03*
%TD*%
%TO.P,C8,1,~_1*%
%TO.N,+5V*%
X43250000Y-80000000D03*
%TO.P,C8,2,~_2*%
%TO.N,GND*%
X48250000Y-80000000D03*
%TD*%
%TO.P,C11,1,~_1*%
%TO.N,+5V*%
X23500000Y-126500000D03*
%TO.P,C11,2,~_2*%
%TO.N,GND*%
X28500000Y-126500000D03*
%TD*%
%TO.P,R16,1,~_1*%
%TO.N,SW3_B*%
X41560000Y-98250000D03*
%TO.P,R16,2,~_2*%
%TO.N,+3V3*%
X33940000Y-98250000D03*
%TD*%
D18*
%TO.P,D4,1,VSS_1*%
%TO.N,GND*%
X104550000Y-119500000D03*
%TO.P,D4,2,DIN_2*%
%TO.N,LED_45*%
X104550000Y-121000000D03*
%TO.P,D4,3,VDD_3*%
%TO.N,+5V*%
X110000000Y-121000000D03*
%TO.P,D4,4,DOUT_4*%
%TO.N,LED_56*%
X110000000Y-119500000D03*
%TD*%
D12*
%TO.P,C9,1,~_1*%
%TO.N,+5V*%
X72750000Y-126500000D03*
%TO.P,C9,2,~_2*%
%TO.N,GND*%
X77750000Y-126500000D03*
%TD*%
%TO.P,C14,1,~_1*%
%TO.N,ENC1_B*%
X85750000Y-60250000D03*
%TO.P,C14,2,~_2*%
%TO.N,GND*%
X80750000Y-60250000D03*
%TD*%
D20*
%TO.P,C3,1,~_1*%
%TO.N,+5V*%
X26294888Y-55500000D03*
D12*
%TO.P,C3,2,~_2*%
%TO.N,GND*%
X28794888Y-55500000D03*
%TD*%
%TO.P,C2,1,~_1*%
%TO.N,+5V*%
X50750000Y-126500000D03*
%TO.P,C2,2,~_2*%
%TO.N,GND*%
X55750000Y-126500000D03*
%TD*%
D22*
%TO.N,GND*%
X104560000Y-73860000D03*
X102140000Y-75370000D03*
X95110000Y-73370000D03*
%TO.N,COM2_LED*%
X122750000Y-92450000D03*
X112330000Y-94530000D03*
X109160000Y-85140000D03*
X105060000Y-79350000D03*
X101550000Y-78390000D03*
%TO.N,COM1_LED*%
X103760000Y-102960000D03*
X59140000Y-90580000D03*
X53930000Y-89450000D03*
X46470000Y-85540000D03*
%TO.N,GND*%
X90300000Y-96000000D03*
X52100000Y-119650000D03*
X111100000Y-90700000D03*
X41800000Y-58450000D03*
X54500000Y-58250000D03*
X126600000Y-119600000D03*
X28000000Y-119750000D03*
X77350000Y-119650000D03*
X111700000Y-79700000D03*
X90400000Y-86600000D03*
X97700000Y-80200000D03*
X99000000Y-96800000D03*
X111700000Y-97000000D03*
X102750000Y-119500000D03*
X124400000Y-96800000D03*
X55500000Y-74750000D03*
%TO.N,BTN_NAV2*%
X95500000Y-104250000D03*
%TO.N,U3_DIG4*%
X62250000Y-44250000D03*
%TO.N,U3_DIG5*%
X60000000Y-52250000D03*
X61750000Y-41250000D03*
%TO.N,SPI_LOAD*%
X118500000Y-61750000D03*
%TO.N,SPI_CLK*%
X114215000Y-78985000D03*
X115300000Y-63500000D03*
%TO.N,+5V*%
X126900000Y-96300000D03*
X123000000Y-86100000D03*
X124500000Y-89500000D03*
X109700000Y-58200000D03*
X120600000Y-77800000D03*
X120300000Y-65000000D03*
%TO.N,SW3_B*%
X101500000Y-84900000D03*
X87500000Y-77250000D03*
%TO.N,SPI_DIN*%
X116750000Y-84500000D03*
%TO.N,BTN_NAV1*%
X113300000Y-102500000D03*
X114300000Y-106500000D03*
%TO.N,BTN_ADF1*%
X94500000Y-105500000D03*
%TO.N,ENC1_A*%
X105900000Y-73000000D03*
X106500000Y-77900000D03*
X101750000Y-74250000D03*
%TO.N,ENC1_B*%
X99750000Y-72750000D03*
%TO.N,BTN_COM2*%
X66250000Y-118250000D03*
%TO.N,BTN_COM1*%
X44250000Y-121000000D03*
X40875000Y-116125000D03*
X48375000Y-110875000D03*
%TO.N,ENC2_A*%
X97300000Y-85200000D03*
%TO.N,ENC2_B*%
X125130000Y-75070000D03*
X95000000Y-85600000D03*
X120500000Y-79700000D03*
%TO.N,ENC2_SW*%
X101380000Y-88200000D03*
%TO.N,LED_56*%
X112250000Y-119500000D03*
X125375000Y-120625000D03*
%TO.N,+3V3*%
X69500000Y-80000000D03*
X100250000Y-131750000D03*
%TO.N,LED_DIN*%
X56500000Y-73250000D03*
X69750000Y-82250000D03*
%TO.N,LED_12*%
X29750000Y-122750000D03*
X47750000Y-76750000D03*
%TD*%
%TO.N,+5V*%
D23*
X81250000Y-40750000D02*
X81250000Y-40810000D01*
X81250000Y-40810000D02*
X66750000Y-55310000D01*
%TO.N,SW3_A*%
X47440000Y-94540000D02*
X49315000Y-94540000D01*
X90100000Y-79400000D02*
X101740000Y-79400000D01*
X51900000Y-91955000D02*
X59405000Y-91955000D01*
X49315000Y-94540000D02*
X51900000Y-91955000D01*
X59405000Y-91955000D02*
X61740000Y-89620000D01*
X61740000Y-89620000D02*
X65130000Y-89620000D01*
X65130000Y-89620000D02*
X75250000Y-79500000D01*
X75250000Y-79500000D02*
X87750000Y-79500000D01*
X87665686Y-85000000D02*
X90100000Y-85000000D01*
X90100000Y-85000000D02*
X90100000Y-79400000D01*
X87500000Y-79750000D02*
X87500000Y-84834314D01*
X87750000Y-79500000D02*
X87500000Y-79750000D01*
X87500000Y-84834314D02*
X87665686Y-85000000D01*
X101740000Y-79400000D02*
X104055000Y-81715000D01*
X104055000Y-81715000D02*
X104055000Y-82275000D01*
%TO.N,GND*%
X102140000Y-75370000D02*
X102549314Y-75370000D01*
X102549314Y-75370000D02*
X104059314Y-73860000D01*
X104059314Y-73860000D02*
X104560000Y-73860000D01*
X95110000Y-73640000D02*
X95110000Y-73370000D01*
X97717500Y-76247500D02*
X95110000Y-73640000D01*
%TO.N,Net-(D8-A)*%
X64920000Y-91990000D02*
X64920000Y-97430000D01*
X64920000Y-97430000D02*
X64990000Y-97500000D01*
%TO.N,COM2_LED*%
X133460000Y-79800000D02*
X132680000Y-79020000D01*
X133460000Y-82700000D02*
X133460000Y-79800000D01*
X132870000Y-83290000D02*
X133460000Y-82700000D01*
X124000000Y-92450000D02*
X132870000Y-83580000D01*
X132870000Y-83580000D02*
X132870000Y-83290000D01*
X122750000Y-92450000D02*
X124000000Y-92450000D01*
X132680000Y-79020000D02*
X129270000Y-79020000D01*
X129270000Y-79020000D02*
X126915000Y-81375000D01*
X126915000Y-81375000D02*
X126915000Y-82275000D01*
X109160000Y-91360000D02*
X112330000Y-94530000D01*
X109160000Y-85140000D02*
X109160000Y-91360000D01*
%TO.N,ENC2_SW*%
X101380000Y-88200000D02*
X96380000Y-88200000D01*
X96380000Y-88200000D02*
X91355000Y-83175000D01*
X91355000Y-83175000D02*
X91355000Y-82275000D01*
%TO.N,COM2_LED*%
X102510000Y-79350000D02*
X105060000Y-79350000D01*
X101550000Y-78390000D02*
X102510000Y-79350000D01*
%TO.N,Net-(D8-A)*%
X64920000Y-97050000D02*
X64450000Y-97520000D01*
%TO.N,BTN_COM1*%
X109135000Y-99675000D02*
X109135000Y-100575000D01*
X109135000Y-100575000D02*
X103610000Y-106100000D01*
X103610000Y-106100000D02*
X93100000Y-106100000D01*
X93100000Y-106100000D02*
X92750000Y-105750000D01*
X92750000Y-105750000D02*
X73750000Y-105750000D01*
X73750000Y-105750000D02*
X69250000Y-101250000D01*
X69250000Y-101250000D02*
X58000000Y-101250000D01*
X58000000Y-101250000D02*
X48375000Y-110875000D01*
%TO.N,BTN_COM2*%
X59460000Y-110070000D02*
X59460000Y-104540000D01*
X59460000Y-104540000D02*
X61760000Y-102240000D01*
X61760000Y-102240000D02*
X67500000Y-102240000D01*
X67500000Y-102240000D02*
X67500000Y-102250000D01*
X67500000Y-102250000D02*
X71750000Y-106500000D01*
X71750000Y-106500000D02*
X92200000Y-106500000D01*
X92200000Y-106500000D02*
X92800000Y-107100000D01*
X92800000Y-107100000D02*
X109890000Y-107100000D01*
X109890000Y-107100000D02*
X116755000Y-100235000D01*
X116755000Y-100235000D02*
X116755000Y-99675000D01*
%TO.N,COM1_LED*%
X103760000Y-102960000D02*
X105440000Y-102960000D01*
X105440000Y-102960000D02*
X106595000Y-101805000D01*
X106595000Y-101805000D02*
X106595000Y-99675000D01*
X58010000Y-89450000D02*
X59140000Y-90580000D01*
X53930000Y-89450000D02*
X58010000Y-89450000D01*
X45200000Y-84270000D02*
X46470000Y-85540000D01*
X34230000Y-84270000D02*
X45200000Y-84270000D01*
%TO.N,GND*%
X124375000Y-96825000D02*
X124400000Y-96800000D01*
X98975000Y-81475000D02*
X97700000Y-80200000D01*
X111675000Y-82275000D02*
X112200000Y-82800000D01*
X86275000Y-84175000D02*
X88700000Y-86600000D01*
X111700000Y-79700000D02*
X111675000Y-79725000D01*
X29775000Y-119750000D02*
X28000000Y-119750000D01*
X98975000Y-99675000D02*
X98975000Y-96825000D01*
X86275000Y-99675000D02*
X86275000Y-98775000D01*
X54500000Y-55305000D02*
X54500000Y-58250000D01*
X111675000Y-99675000D02*
X111675000Y-97025000D01*
X88700000Y-86600000D02*
X90400000Y-86600000D01*
X86275000Y-82275000D02*
X86275000Y-84175000D01*
X79275000Y-119650000D02*
X77350000Y-119650000D01*
X111675000Y-97025000D02*
X111700000Y-97000000D01*
X77350000Y-119650000D02*
X77250000Y-119750000D01*
X86275000Y-98775000D02*
X89050000Y-96000000D01*
X104550000Y-119500000D02*
X102750000Y-119500000D01*
X111675000Y-79725000D02*
X111675000Y-82275000D01*
X124320000Y-81450000D02*
X124320000Y-80550000D01*
X112200000Y-82800000D02*
X112200000Y-89600000D01*
X98975000Y-82275000D02*
X98975000Y-81475000D01*
X53475000Y-74750000D02*
X55500000Y-74750000D01*
X111620000Y-81450000D02*
X111620000Y-82350000D01*
X124375000Y-99675000D02*
X124375000Y-96825000D01*
X89050000Y-96000000D02*
X90300000Y-96000000D01*
X54275000Y-119650000D02*
X52100000Y-119650000D01*
X98920000Y-82350000D02*
X98920000Y-81450000D01*
X41800000Y-55305000D02*
X41800000Y-58450000D01*
X124320000Y-80550000D02*
X128570000Y-76300000D01*
X112200000Y-89600000D02*
X111100000Y-90700000D01*
X128775000Y-119600000D02*
X126600000Y-119600000D01*
X128570000Y-76300000D02*
X129200000Y-76300000D01*
%TO.N,BTN_NAV2*%
X114250000Y-126000000D02*
X114250000Y-114620000D01*
X114250000Y-114620000D02*
X109690000Y-110060000D01*
X96435000Y-103315000D02*
X96435000Y-99675000D01*
X95500000Y-104250000D02*
X96435000Y-103315000D01*
%TO.N,BTN_Switch1*%
X58500000Y-66750000D02*
X58500000Y-76190000D01*
X72000000Y-77000000D02*
X72750000Y-76250000D01*
X87350000Y-76250000D02*
X89950000Y-78850000D01*
X72000000Y-78900000D02*
X72000000Y-77000000D01*
X53360000Y-63730000D02*
X55480000Y-63730000D01*
X58500000Y-76190000D02*
X54690000Y-80000000D01*
X72750000Y-76250000D02*
X87350000Y-76250000D01*
X55480000Y-63730000D02*
X58500000Y-66750000D01*
X54690000Y-80000000D02*
X55790000Y-78900000D01*
X55790000Y-78900000D02*
X72000000Y-78900000D01*
%TO.N,U3_DIG4*%
X59570000Y-41570000D02*
X62250000Y-44250000D01*
X58240000Y-41570000D02*
X59570000Y-41570000D01*
%TO.N,U3_DIG5*%
X60000000Y-52250000D02*
X60000000Y-52345000D01*
X55070000Y-29500000D02*
X62750000Y-29500000D01*
X62750000Y-29500000D02*
X62750000Y-40250000D01*
X62750000Y-40250000D02*
X61750000Y-41250000D01*
X60000000Y-52345000D02*
X57040000Y-55305000D01*
X53160000Y-31410000D02*
X55070000Y-29500000D01*
%TO.N,SPI_LOAD*%
X68565000Y-61750000D02*
X118500000Y-61750000D01*
X127530000Y-73732943D02*
X127530000Y-55620000D01*
X121780000Y-81450000D02*
X121780000Y-79482943D01*
X121780000Y-79482943D02*
X127530000Y-73732943D01*
X62120000Y-55305000D02*
X68565000Y-61750000D01*
%TO.N,SPI_CLK*%
X114160000Y-81450000D02*
X114160000Y-82758529D01*
X126430000Y-56819999D02*
X126430000Y-49100000D01*
X114215000Y-82275000D02*
X114215000Y-78985000D01*
X114215000Y-78985000D02*
X114300000Y-78900000D01*
X127530000Y-48000000D02*
X127530000Y-28280000D01*
X120330001Y-62900000D02*
X120340000Y-62909999D01*
X127530000Y-28280000D02*
X126000000Y-26750000D01*
X120340000Y-62909999D02*
X126430000Y-56819999D01*
X126000000Y-26750000D02*
X83055000Y-26750000D01*
X126430000Y-49100000D02*
X127530000Y-48000000D01*
X83055000Y-26750000D02*
X62120000Y-47685000D01*
X115900000Y-62900000D02*
X120330001Y-62900000D01*
X115300000Y-63500000D02*
X115900000Y-62900000D01*
%TO.N,U3_ISET*%
X64440000Y-50000000D02*
X66750000Y-47690000D01*
X49420000Y-47685000D02*
X51735000Y-50000000D01*
X51735000Y-50000000D02*
X64440000Y-50000000D01*
%TO.N,+5V*%
X91750000Y-47200000D02*
X91750000Y-48000000D01*
X93000000Y-129750000D02*
X96750000Y-126000000D01*
X124500000Y-89500000D02*
X124500000Y-87600000D01*
X101250000Y-123000000D02*
X110250000Y-123000000D01*
X129455000Y-99675000D02*
X129455000Y-101505000D01*
X137500000Y-103750000D02*
X131700000Y-103750000D01*
X46880000Y-47685000D02*
X45780000Y-48785000D01*
X59725000Y-122975000D02*
X59750000Y-123000000D01*
X135200000Y-113300000D02*
X135200000Y-114837588D01*
X124500000Y-87600000D02*
X123000000Y-86100000D01*
X54250000Y-123000000D02*
X50750000Y-126500000D01*
X135200000Y-120125000D02*
X135200000Y-114837588D01*
X69750000Y-129500000D02*
X72750000Y-126500000D01*
X137500000Y-112250000D02*
X137500000Y-103750000D01*
X135200000Y-120125000D02*
X134225000Y-121100000D01*
X81250000Y-36000000D02*
X81250000Y-40750000D01*
X96750000Y-126000000D02*
X98250000Y-126000000D01*
X33009888Y-48785000D02*
X26294888Y-55500000D01*
X135500000Y-106750000D02*
X136250000Y-107500000D01*
X120600000Y-65300000D02*
X120300000Y-65000000D01*
X35225000Y-125225000D02*
X35250000Y-125250000D01*
X76000000Y-129750000D02*
X93000000Y-129750000D01*
X59725000Y-121150000D02*
X59725000Y-122975000D01*
X134250000Y-122750000D02*
X134225000Y-122725000D01*
X112290000Y-48000000D02*
X118470000Y-54180000D01*
X120000000Y-126000000D02*
X123250000Y-122750000D01*
X91750000Y-48000000D02*
X88500000Y-48000000D01*
X27750000Y-125250000D02*
X26500000Y-126500000D01*
X110250000Y-123000000D02*
X110250000Y-122500000D01*
X44000000Y-133250000D02*
X50750000Y-126500000D01*
X96905635Y-49100000D02*
X94620891Y-46815256D01*
X53750000Y-129500000D02*
X69750000Y-129500000D01*
X135200000Y-114050000D02*
X136500000Y-112750000D01*
X111190000Y-49100000D02*
X96905635Y-49100000D01*
X25500000Y-133250000D02*
X44000000Y-133250000D01*
X48075000Y-73250000D02*
X43250000Y-78075000D01*
X109990000Y-57910000D02*
X118470000Y-57910000D01*
X84725000Y-122725000D02*
X84750000Y-122750000D01*
X76500000Y-122750000D02*
X72750000Y-126500000D01*
X109700000Y-58200000D02*
X109990000Y-57910000D01*
X62690000Y-51250000D02*
X66750000Y-55310000D01*
X84750000Y-122750000D02*
X76500000Y-122750000D01*
X137000000Y-112750000D02*
X137500000Y-112250000D01*
X135200000Y-114800000D02*
X135200000Y-120125000D01*
X126915000Y-99675000D02*
X129455000Y-99675000D01*
X136250000Y-112250000D02*
X135200000Y-113300000D01*
X46880000Y-47685000D02*
X50445000Y-51250000D01*
X35250000Y-125250000D02*
X27750000Y-125250000D01*
X88500000Y-48000000D02*
X81250000Y-40750000D01*
X23500000Y-131250000D02*
X25500000Y-133250000D01*
X129455000Y-101505000D02*
X131700000Y-103750000D01*
X23500000Y-126500000D02*
X23500000Y-131250000D01*
X98250000Y-126000000D02*
X101250000Y-123000000D01*
X134225000Y-122725000D02*
X134225000Y-121100000D01*
X112290000Y-48000000D02*
X111190000Y-49100000D01*
X118470000Y-57910000D02*
X119810000Y-59250000D01*
X35225000Y-121250000D02*
X35225000Y-125225000D01*
X118470000Y-54180000D02*
X118470000Y-57910000D01*
X84725000Y-121150000D02*
X84725000Y-122725000D01*
X50445000Y-51250000D02*
X62690000Y-51250000D01*
X136250000Y-107500000D02*
X136250000Y-112250000D01*
X72750000Y-126500000D02*
X76000000Y-129750000D01*
X26500000Y-126500000D02*
X23500000Y-126500000D01*
X48025000Y-73250000D02*
X44044888Y-73250000D01*
X110250000Y-122500000D02*
X110000000Y-122250000D01*
X59750000Y-123000000D02*
X54250000Y-123000000D01*
X44044888Y-73250000D02*
X26294888Y-55500000D01*
X43250000Y-78075000D02*
X43250000Y-80000000D01*
X126915000Y-99675000D02*
X126915000Y-96315000D01*
X110000000Y-122250000D02*
X110000000Y-121000000D01*
X94620891Y-46815256D02*
X92134744Y-46815256D01*
X126915000Y-99915000D02*
X133750000Y-106750000D01*
X135200000Y-114837588D02*
X135200000Y-114050000D01*
X45780000Y-48785000D02*
X33009888Y-48785000D01*
X126915000Y-99675000D02*
X126915000Y-99915000D01*
X123250000Y-122750000D02*
X134250000Y-122750000D01*
X92134744Y-46815256D02*
X91750000Y-47200000D01*
X120600000Y-77800000D02*
X120600000Y-65300000D01*
X133750000Y-106750000D02*
X135500000Y-106750000D01*
X136500000Y-112750000D02*
X137000000Y-112750000D01*
X50750000Y-126500000D02*
X53750000Y-129500000D01*
%TO.N,U3_SEG_C*%
X44340000Y-37690000D02*
X50620000Y-31410000D01*
X44340000Y-47685000D02*
X44340000Y-37690000D01*
%TO.N,U3_SEG_E*%
X41800000Y-47685000D02*
X41800000Y-37690000D01*
X41800000Y-37690000D02*
X48080000Y-31410000D01*
%TO.N,U3_SEG_DP*%
X39260000Y-37690000D02*
X45540000Y-31410000D01*
X39260000Y-47685000D02*
X39260000Y-37690000D01*
%TO.N,U3_SEG_D*%
X36720000Y-47685000D02*
X36720000Y-37690000D01*
X36720000Y-37690000D02*
X43000000Y-31410000D01*
%TO.N,SW3_A*%
X47440000Y-94540000D02*
X47440000Y-97500000D01*
X104000000Y-81450000D02*
X104000000Y-84000000D01*
X47440000Y-97500000D02*
X47940000Y-98000000D01*
%TO.N,SW3_B*%
X73500000Y-78250000D02*
X73500000Y-77250000D01*
X46175000Y-90025000D02*
X42360000Y-93840000D01*
X101515000Y-82275000D02*
X101515000Y-84885000D01*
X72250000Y-79500000D02*
X73500000Y-78250000D01*
X46175000Y-88075000D02*
X46175000Y-90025000D01*
X42360000Y-93840000D02*
X42360000Y-94540000D01*
X52800000Y-81450000D02*
X70000000Y-81450000D01*
X71750000Y-79500000D02*
X72250000Y-79500000D01*
X70000000Y-81450000D02*
X70000000Y-81250000D01*
X73500000Y-77250000D02*
X87500000Y-77250000D01*
X46175000Y-88075000D02*
X52800000Y-81450000D01*
X70000000Y-81250000D02*
X71750000Y-79500000D01*
%TO.N,SPI_DIN*%
X116750000Y-84500000D02*
X116700000Y-84450000D01*
X116700000Y-84450000D02*
X116700000Y-81450000D01*
%TO.N,U2_DIG5*%
X114850000Y-42704365D02*
X118810000Y-46664365D01*
X118810000Y-46664365D02*
X118810000Y-50848630D01*
X115950000Y-31400000D02*
X114850000Y-32500000D01*
X114850000Y-32500000D02*
X114850000Y-42704365D01*
X122450000Y-54488630D02*
X122450000Y-55620000D01*
X118810000Y-50848630D02*
X122450000Y-54488630D01*
%TO.N,U2_SEG_B*%
X121030000Y-31400000D02*
X119910000Y-32520000D01*
X119910000Y-32520000D02*
X119910000Y-48000000D01*
%TO.N,U2_SEG_G*%
X117390000Y-30300000D02*
X115494365Y-30300000D01*
X114850000Y-31855635D02*
X113865635Y-32840000D01*
X113865635Y-32840000D02*
X113865635Y-39548730D01*
X118490000Y-31400000D02*
X117390000Y-30300000D01*
X112310000Y-42940000D02*
X117370000Y-48000000D01*
X112310000Y-41104365D02*
X112310000Y-42940000D01*
X113865635Y-39548730D02*
X112310000Y-41104365D01*
X114850000Y-30944365D02*
X114850000Y-31855635D01*
X115494365Y-30300000D02*
X114850000Y-30944365D01*
%TO.N,U2_ISET*%
X120265635Y-60350000D02*
X113290000Y-60350000D01*
X113290000Y-60350000D02*
X112190000Y-59250000D01*
X121010000Y-59605635D02*
X120265635Y-60350000D01*
X114830000Y-48000000D02*
X121010000Y-54180000D01*
X121010000Y-54180000D02*
X121010000Y-59605635D01*
%TO.N,U2_SEG_C*%
X109750000Y-48000000D02*
X109750000Y-40000000D01*
X113410000Y-36340000D02*
X113410000Y-31400000D01*
X109750000Y-40000000D02*
X113410000Y-36340000D01*
%TO.N,U2_SEG_E*%
X110870000Y-36130000D02*
X110870000Y-31400000D01*
X107210000Y-39790000D02*
X110870000Y-36130000D01*
X107210000Y-48000000D02*
X107210000Y-39790000D01*
%TO.N,U2_SEG_DP*%
X104670000Y-40830000D02*
X108330000Y-37170000D01*
X104670000Y-48000000D02*
X104670000Y-40830000D01*
X108330000Y-37170000D02*
X108330000Y-31400000D01*
%TO.N,U2_SEG_D*%
X102130000Y-35060000D02*
X105790000Y-31400000D01*
X102130000Y-48000000D02*
X102130000Y-35060000D01*
%TO.N,BTN_NAV1*%
X113300000Y-102500000D02*
X114215000Y-101585000D01*
X97600000Y-107900000D02*
X112900000Y-107900000D01*
X114215000Y-101585000D02*
X114215000Y-99675000D01*
X95400000Y-110100000D02*
X97600000Y-107900000D01*
X112900000Y-107900000D02*
X114300000Y-106500000D01*
X84550000Y-110100000D02*
X95400000Y-110100000D01*
%TO.N,BTN_ADF1*%
X133302412Y-110040000D02*
X134110000Y-110040000D01*
X93900000Y-104900000D02*
X94500000Y-105500000D01*
X119500000Y-120560000D02*
X122782412Y-120560000D01*
X93900000Y-104900000D02*
X93895000Y-104895000D01*
X122782412Y-120560000D02*
X133302412Y-110040000D01*
%TO.N,ENC1_A*%
X106500000Y-77900000D02*
X106595000Y-77995000D01*
X106595000Y-77995000D02*
X106595000Y-82275000D01*
X101750000Y-74250000D02*
X102780000Y-74250000D01*
X104030000Y-73000000D02*
X105900000Y-73000000D01*
X105900000Y-73000000D02*
X106000000Y-73000000D01*
X102780000Y-74250000D02*
X104030000Y-73000000D01*
%TO.N,ENC1_B*%
X111395635Y-74650000D02*
X103835000Y-74650000D01*
X100257500Y-73257500D02*
X100257500Y-76247500D01*
X126790000Y-85500000D02*
X116540000Y-85500000D01*
X99750000Y-72750000D02*
X100257500Y-73257500D01*
X102237500Y-76247500D02*
X100257500Y-76247500D01*
X103835000Y-74650000D02*
X102237500Y-76247500D01*
X115315000Y-84275000D02*
X115315000Y-78569365D01*
X129455000Y-82835000D02*
X126790000Y-85500000D01*
X129455000Y-82275000D02*
X129455000Y-82835000D01*
X115315000Y-78569365D02*
X111395635Y-74650000D01*
X116540000Y-85500000D02*
X115315000Y-84275000D01*
%TO.N,ENC1_SW*%
X107097500Y-68747500D02*
X103317500Y-68747500D01*
X119240000Y-80890000D02*
X107097500Y-68747500D01*
X119240000Y-81450000D02*
X119240000Y-80890000D01*
%TO.N,BTN_COM2*%
X66250000Y-116860000D02*
X66250000Y-118250000D01*
X59460000Y-110070000D02*
X66250000Y-116860000D01*
%TO.N,BTN_COM1*%
X40875000Y-115935000D02*
X35050000Y-110110000D01*
X40875000Y-116125000D02*
X40875000Y-115935000D01*
X48375000Y-110875000D02*
X48250000Y-111000000D01*
X45310000Y-122060000D02*
X44250000Y-121000000D01*
X45310000Y-126750000D02*
X45310000Y-122060000D01*
%TO.N,ENC2_A*%
X96435000Y-84335000D02*
X97300000Y-85200000D01*
X96435000Y-82275000D02*
X96435000Y-84335000D01*
%TO.N,ENC2_B*%
X93895000Y-84495000D02*
X95000000Y-85600000D01*
X120500000Y-79700000D02*
X125130000Y-75070000D01*
X93895000Y-82275000D02*
X93895000Y-84495000D01*
%TO.N,ENC2_SW*%
X137000000Y-66600000D02*
X134800000Y-68800000D01*
X137000000Y-58250000D02*
X137000000Y-66600000D01*
X132250000Y-56120000D02*
X134870000Y-56120000D01*
X134870000Y-56120000D02*
X137000000Y-58250000D01*
%TO.N,LED_56*%
X125375000Y-120625000D02*
X125250000Y-120500000D01*
X112250000Y-119500000D02*
X110000000Y-119500000D01*
X125850000Y-121100000D02*
X125375000Y-120625000D01*
X128775000Y-121100000D02*
X125850000Y-121100000D01*
%TO.N,+3V3*%
X78190000Y-74000000D02*
X78190000Y-65500000D01*
X112775000Y-77585000D02*
X112775000Y-92255000D01*
X118400000Y-114040000D02*
X119500000Y-112940000D01*
X106630000Y-126000000D02*
X107730000Y-127100000D01*
X139250000Y-48250000D02*
X139250000Y-91750000D01*
X118400000Y-123405635D02*
X118400000Y-114040000D01*
X114705635Y-127100000D02*
X118400000Y-123405635D01*
X132250000Y-48500000D02*
X139000000Y-48500000D01*
X107730000Y-127100000D02*
X114705635Y-127100000D01*
X100880000Y-131750000D02*
X106630000Y-126000000D01*
X100250000Y-131750000D02*
X100880000Y-131750000D01*
X122820000Y-95250000D02*
X135750000Y-95250000D01*
X119295000Y-99675000D02*
X119295000Y-112735000D01*
X139000000Y-48500000D02*
X139250000Y-48250000D01*
X119295000Y-99675000D02*
X119295000Y-98775000D01*
X62310000Y-80000000D02*
X69500000Y-80000000D01*
X139250000Y-91750000D02*
X135750000Y-95250000D01*
X119295000Y-98775000D02*
X122820000Y-95250000D01*
X110940000Y-75750000D02*
X112775000Y-77585000D01*
X119295000Y-112735000D02*
X119500000Y-112940000D01*
X112775000Y-92255000D02*
X119295000Y-98775000D01*
%TO.N,LED_DIN*%
X88815000Y-79565000D02*
X88815000Y-82275000D01*
X88000000Y-78750000D02*
X88815000Y-79565000D01*
X56500000Y-73250000D02*
X53475000Y-73250000D01*
X70750000Y-82250000D02*
X74250000Y-78750000D01*
X74250000Y-78750000D02*
X88000000Y-78750000D01*
X69750000Y-82250000D02*
X70750000Y-82250000D01*
%TO.N,LED_12*%
X48025000Y-76475000D02*
X47750000Y-76750000D01*
X29750000Y-122750000D02*
X29750000Y-121275000D01*
X48025000Y-74750000D02*
X48025000Y-76475000D01*
X29750000Y-121275000D02*
X29775000Y-121250000D01*
%TO.N,LED_23*%
X35225000Y-119750000D02*
X44500000Y-119750000D01*
X44500000Y-119750000D02*
X45900000Y-121150000D01*
X45900000Y-121150000D02*
X54275000Y-121150000D01*
%TO.N,LED_34*%
X67900000Y-119650000D02*
X69400000Y-121150000D01*
X59725000Y-119650000D02*
X67900000Y-119650000D01*
X69400000Y-121150000D02*
X79275000Y-121150000D01*
%TO.N,LED_45*%
X94000000Y-121000000D02*
X104550000Y-121000000D01*
X84725000Y-119650000D02*
X92650000Y-119650000D01*
X92650000Y-119650000D02*
X94000000Y-121000000D01*
%TO.N,BTN_Switch1*%
X109135000Y-82275000D02*
X109135000Y-79686471D01*
X106748529Y-77300000D02*
X100902057Y-77300000D01*
X99352057Y-78850000D02*
X89950000Y-78850000D01*
X109135000Y-79686471D02*
X106748529Y-77300000D01*
X100902057Y-77300000D02*
X99352057Y-78850000D01*
%TO.N,BTN_ADF1*%
X93895000Y-104895000D02*
X93895000Y-99675000D01*
%TD*%
M02*
