%TF.GenerationSoftware,KiCad,Pcbnew,10.0.5*%
%TF.CreationDate,2026-07-27T22:38:38+02:00*%
%TF.ProjectId,learsim pcbs,6c656172-7369-46d2-9070-6362732e6b69,rev?*%
%TF.SameCoordinates,Original*%
%TF.FileFunction,Soldermask,Top*%
%TF.FilePolarity,Negative*%
%FSLAX46Y46*%
G04 Gerber Fmt 4.6, Leading zero omitted, Abs format (unit mm)*
G04 Created by KiCad (PCBNEW 10.0.5) date 2026-07-27 22:38:38*
%MOMM*%
%LPD*%
G01*
G04 APERTURE LIST*
G04 Aperture macros list*
%AMRoundRect*
0 Rectangle with rounded corners*
0 $1 Rounding radius*
0 $2 $3 $4 $5 $6 $7 $8 $9 X,Y pos of 4 corners*
0 Add a 4 corners polygon primitive as box body*
4,1,4,$2,$3,$4,$5,$6,$7,$8,$9,$2,$3,0*
0 Add four circle primitives for the rounded corners*
1,1,$1+$1,$2,$3*
1,1,$1+$1,$4,$5*
1,1,$1+$1,$6,$7*
1,1,$1+$1,$8,$9*
0 Add four rect primitives between the rounded corners*
20,1,$1+$1,$2,$3,$4,$5,0*
20,1,$1+$1,$4,$5,$6,$7,0*
20,1,$1+$1,$6,$7,$8,$9,0*
20,1,$1+$1,$8,$9,$2,$3,0*%
G04 Aperture macros list end*
%ADD10C,1.750000*%
%ADD11C,4.000000*%
%ADD12C,2.500000*%
%ADD13RoundRect,0.250000X0.550000X-0.550000X0.550000X0.550000X-0.550000X0.550000X-0.550000X-0.550000X0*%
%ADD14C,1.600000*%
%ADD15R,1.600000X1.600000*%
%ADD16O,1.200000X2.200000*%
%ADD17R,1.800000X1.800000*%
%ADD18C,1.800000*%
%ADD19O,3.300000X3.500000*%
%ADD20RoundRect,0.250000X-0.550000X-0.550000X0.550000X-0.550000X0.550000X0.550000X-0.550000X0.550000X0*%
%ADD21C,2.100000*%
G04 APERTURE END LIST*
D10*
%TO.C,NAV2*%
X102070000Y-115140000D03*
D11*
X107150000Y-115140000D03*
D10*
X112230000Y-115140000D03*
D12*
X103340000Y-112600000D03*
X109690000Y-110060000D03*
%TD*%
D10*
%TO.C,Switch1*%
X45740000Y-68810000D03*
D11*
X50820000Y-68810000D03*
D10*
X55900000Y-68810000D03*
D12*
X47010000Y-66270000D03*
X53360000Y-63730000D03*
%TD*%
D13*
%TO.C,U3*%
X34180000Y-55305000D03*
D14*
X36720000Y-55305000D03*
X39260000Y-55305000D03*
X41800000Y-55305000D03*
X44340000Y-55305000D03*
X46880000Y-55305000D03*
X49420000Y-55305000D03*
X51960000Y-55305000D03*
X54500000Y-55305000D03*
X57040000Y-55305000D03*
X59580000Y-55305000D03*
X62120000Y-55305000D03*
X62120000Y-47685000D03*
X59580000Y-47685000D03*
X57040000Y-47685000D03*
X54500000Y-47685000D03*
X51960000Y-47685000D03*
X49420000Y-47685000D03*
X46880000Y-47685000D03*
X44340000Y-47685000D03*
X41800000Y-47685000D03*
X39260000Y-47685000D03*
X36720000Y-47685000D03*
X34180000Y-47685000D03*
%TD*%
D15*
%TO.C,DS1*%
X43000000Y-31410000D03*
D14*
X45540000Y-31410000D03*
X48080000Y-31410000D03*
X50620000Y-31410000D03*
X53160000Y-31410000D03*
X55700000Y-31410000D03*
X58240000Y-31410000D03*
X58240000Y-41570000D03*
X55700000Y-41570000D03*
X53160000Y-41570000D03*
X50620000Y-41570000D03*
X48080000Y-41570000D03*
X45540000Y-41570000D03*
X43000000Y-41570000D03*
%TD*%
D16*
%TO.C,SW3*%
X47440000Y-94540000D03*
X44900000Y-94540000D03*
X42360000Y-94540000D03*
X47440000Y-89460000D03*
X44900000Y-89460000D03*
X42360000Y-89460000D03*
%TD*%
D13*
%TO.C,U2*%
X99590000Y-55620000D03*
D14*
X102130000Y-55620000D03*
X104670000Y-55620000D03*
X107210000Y-55620000D03*
X109750000Y-55620000D03*
X112290000Y-55620000D03*
X114830000Y-55620000D03*
X117370000Y-55620000D03*
X119910000Y-55620000D03*
X122450000Y-55620000D03*
X124990000Y-55620000D03*
X127530000Y-55620000D03*
X127530000Y-48000000D03*
X124990000Y-48000000D03*
X122450000Y-48000000D03*
X119910000Y-48000000D03*
X117370000Y-48000000D03*
X114830000Y-48000000D03*
X112290000Y-48000000D03*
X109750000Y-48000000D03*
X107210000Y-48000000D03*
X104670000Y-48000000D03*
X102130000Y-48000000D03*
X99590000Y-48000000D03*
%TD*%
D10*
%TO.C,NAV1*%
X76930000Y-115180000D03*
D11*
X82010000Y-115180000D03*
D10*
X87090000Y-115180000D03*
D12*
X78200000Y-112640000D03*
X84550000Y-110100000D03*
%TD*%
D17*
%TO.C,D8*%
X62380000Y-91990000D03*
D18*
X64920000Y-91990000D03*
%TD*%
D10*
%TO.C,ADF1*%
X126490000Y-115120000D03*
D11*
X131570000Y-115120000D03*
D10*
X136650000Y-115120000D03*
D12*
X127760000Y-112580000D03*
X134110000Y-110040000D03*
%TD*%
D15*
%TO.C,DS2*%
X105790000Y-31400000D03*
D14*
X108330000Y-31400000D03*
X110870000Y-31400000D03*
X113410000Y-31400000D03*
X115950000Y-31400000D03*
X118490000Y-31400000D03*
X121030000Y-31400000D03*
X121030000Y-41560000D03*
X118490000Y-41560000D03*
X115950000Y-41560000D03*
X113410000Y-41560000D03*
X110870000Y-41560000D03*
X108330000Y-41560000D03*
X105790000Y-41560000D03*
%TD*%
D18*
%TO.C,SW1*%
X95177500Y-76247500D03*
X100257500Y-76247500D03*
X97717500Y-76247500D03*
D19*
X103317500Y-68747500D03*
X92117500Y-68747500D03*
%TD*%
D17*
%TO.C,D7*%
X25580000Y-91930000D03*
D18*
X28120000Y-91930000D03*
%TD*%
D10*
%TO.C,COM2*%
X51840000Y-115150000D03*
D11*
X56920000Y-115150000D03*
D10*
X62000000Y-115150000D03*
D12*
X53110000Y-112610000D03*
X59460000Y-110070000D03*
%TD*%
D10*
%TO.C,COM1*%
X27430000Y-115190000D03*
D11*
X32510000Y-115190000D03*
D10*
X37590000Y-115190000D03*
D12*
X28700000Y-112650000D03*
X35050000Y-110110000D03*
%TD*%
D18*
%TO.C,SW2*%
X126660000Y-76300000D03*
X131740000Y-76300000D03*
X129200000Y-76300000D03*
D19*
X134800000Y-68800000D03*
X123600000Y-68800000D03*
%TD*%
D14*
%TO.C,R1*%
X112190000Y-59250000D03*
X119810000Y-59250000D03*
%TD*%
%TO.C,C12*%
X120000000Y-126000000D03*
X125000000Y-126000000D03*
%TD*%
%TO.C,C7*%
X24750000Y-49000000D03*
X29750000Y-49000000D03*
%TD*%
%TO.C,R9*%
X78190000Y-74000000D03*
X85810000Y-74000000D03*
%TD*%
%TO.C,C13*%
X85750000Y-70000000D03*
X80750000Y-70000000D03*
%TD*%
%TO.C,R10*%
X78190000Y-65500000D03*
X85810000Y-65500000D03*
%TD*%
%TO.C,R3*%
X37690000Y-126750000D03*
X45310000Y-126750000D03*
%TD*%
%TO.C,C17*%
X117250000Y-64000000D03*
X112250000Y-64000000D03*
%TD*%
%TO.C,R8*%
X62310000Y-80000000D03*
X54690000Y-80000000D03*
%TD*%
%TO.C,R12*%
X110940000Y-75750000D03*
X118560000Y-75750000D03*
%TD*%
%TO.C,R11*%
X79130000Y-55250000D03*
X86750000Y-55250000D03*
%TD*%
%TO.C,R17*%
X26610000Y-84270000D03*
X34230000Y-84270000D03*
%TD*%
%TO.C,C10*%
X98250000Y-126000000D03*
X103250000Y-126000000D03*
%TD*%
%TO.C,C4*%
X137500000Y-103750000D03*
X137500000Y-98750000D03*
%TD*%
D20*
%TO.C,C1*%
X91750000Y-48000000D03*
D14*
X94250000Y-48000000D03*
%TD*%
%TO.C,R15*%
X47940000Y-98000000D03*
X55560000Y-98000000D03*
%TD*%
%TO.C,C16*%
X117250000Y-72250000D03*
X112250000Y-72250000D03*
%TD*%
%TO.C,R6*%
X106630000Y-126000000D03*
X114250000Y-126000000D03*
%TD*%
D20*
%TO.C,C6*%
X81250000Y-36000000D03*
D14*
X83750000Y-36000000D03*
%TD*%
%TO.C,R7*%
X119500000Y-112940000D03*
X119500000Y-120560000D03*
%TD*%
%TO.C,R4*%
X59380000Y-126500000D03*
X67000000Y-126500000D03*
%TD*%
%TO.C,R18*%
X64990000Y-97500000D03*
X72610000Y-97500000D03*
%TD*%
%TO.C,R13*%
X110190000Y-67750000D03*
X117810000Y-67750000D03*
%TD*%
D21*
%TO.C,U1*%
X131625000Y-82085000D03*
X79025000Y-82085000D03*
X131625000Y-99865000D03*
X79025000Y-99865000D03*
%TD*%
D14*
%TO.C,C15*%
X107750000Y-64500000D03*
X107750000Y-59500000D03*
%TD*%
%TO.C,C5*%
X90000000Y-53750000D03*
X95000000Y-53750000D03*
%TD*%
%TO.C,C18*%
X137000000Y-58250000D03*
X137000000Y-53250000D03*
%TD*%
%TO.C,R2*%
X66750000Y-47690000D03*
X66750000Y-55310000D03*
%TD*%
%TO.C,R5*%
X82690000Y-126500000D03*
X90310000Y-126500000D03*
%TD*%
%TO.C,R14*%
X132250000Y-48500000D03*
X132250000Y-56120000D03*
%TD*%
%TO.C,C8*%
X43250000Y-80000000D03*
X48250000Y-80000000D03*
%TD*%
%TO.C,C11*%
X23500000Y-126500000D03*
X28500000Y-126500000D03*
%TD*%
%TO.C,R16*%
X41560000Y-98250000D03*
X33940000Y-98250000D03*
%TD*%
%TO.C,C9*%
X72750000Y-126500000D03*
X77750000Y-126500000D03*
%TD*%
%TO.C,C14*%
X85750000Y-60250000D03*
X80750000Y-60250000D03*
%TD*%
D20*
%TO.C,C3*%
X26294888Y-55500000D03*
D14*
X28794888Y-55500000D03*
%TD*%
%TO.C,C2*%
X50750000Y-126500000D03*
X55750000Y-126500000D03*
%TD*%
M02*
