%TF.GenerationSoftware,KiCad,Pcbnew,10.0.5*%
%TF.CreationDate,2026-07-26T21:45:00+02:00*%
%TF.ProjectId,learsim pcbs,6c656172-7369-46d2-9070-6362732e6b69,rev?*%
%TF.SameCoordinates,Original*%
%TF.FileFunction,Legend,Top*%
%TF.FilePolarity,Positive*%
%FSLAX46Y46*%
G04 Gerber Fmt 4.6, Leading zero omitted, Abs format (unit mm)*
G04 Created by KiCad (PCBNEW 10.0.5) date 2026-07-26 21:45:00*
%MOMM*%
%LPD*%
G01*
G04 APERTURE LIST*
%ADD10C,0.100000*%
%ADD11C,0.150000*%
%ADD12C,0.120000*%
%ADD13C,0.450000*%
%ADD14C,0.250000*%
%ADD15C,0.060000*%
G04 APERTURE END LIST*
D10*
X24372419Y-84469925D02*
X24372419Y-84946115D01*
X24372419Y-84946115D02*
X23372419Y-84946115D01*
X24324800Y-83755639D02*
X24372419Y-83850877D01*
X24372419Y-83850877D02*
X24372419Y-84041353D01*
X24372419Y-84041353D02*
X24324800Y-84136591D01*
X24324800Y-84136591D02*
X24229561Y-84184210D01*
X24229561Y-84184210D02*
X23848609Y-84184210D01*
X23848609Y-84184210D02*
X23753371Y-84136591D01*
X23753371Y-84136591D02*
X23705752Y-84041353D01*
X23705752Y-84041353D02*
X23705752Y-83850877D01*
X23705752Y-83850877D02*
X23753371Y-83755639D01*
X23753371Y-83755639D02*
X23848609Y-83708020D01*
X23848609Y-83708020D02*
X23943847Y-83708020D01*
X23943847Y-83708020D02*
X24039085Y-84184210D01*
X24372419Y-82850877D02*
X23848609Y-82850877D01*
X23848609Y-82850877D02*
X23753371Y-82898496D01*
X23753371Y-82898496D02*
X23705752Y-82993734D01*
X23705752Y-82993734D02*
X23705752Y-83184210D01*
X23705752Y-83184210D02*
X23753371Y-83279448D01*
X24324800Y-82850877D02*
X24372419Y-82946115D01*
X24372419Y-82946115D02*
X24372419Y-83184210D01*
X24372419Y-83184210D02*
X24324800Y-83279448D01*
X24324800Y-83279448D02*
X24229561Y-83327067D01*
X24229561Y-83327067D02*
X24134323Y-83327067D01*
X24134323Y-83327067D02*
X24039085Y-83279448D01*
X24039085Y-83279448D02*
X23991466Y-83184210D01*
X23991466Y-83184210D02*
X23991466Y-82946115D01*
X23991466Y-82946115D02*
X23943847Y-82850877D01*
X24372419Y-82374686D02*
X23705752Y-82374686D01*
X23896228Y-82374686D02*
X23800990Y-82327067D01*
X23800990Y-82327067D02*
X23753371Y-82279448D01*
X23753371Y-82279448D02*
X23705752Y-82184210D01*
X23705752Y-82184210D02*
X23705752Y-82088972D01*
X24324800Y-81803257D02*
X24372419Y-81708019D01*
X24372419Y-81708019D02*
X24372419Y-81517543D01*
X24372419Y-81517543D02*
X24324800Y-81422305D01*
X24324800Y-81422305D02*
X24229561Y-81374686D01*
X24229561Y-81374686D02*
X24181942Y-81374686D01*
X24181942Y-81374686D02*
X24086704Y-81422305D01*
X24086704Y-81422305D02*
X24039085Y-81517543D01*
X24039085Y-81517543D02*
X24039085Y-81660400D01*
X24039085Y-81660400D02*
X23991466Y-81755638D01*
X23991466Y-81755638D02*
X23896228Y-81803257D01*
X23896228Y-81803257D02*
X23848609Y-81803257D01*
X23848609Y-81803257D02*
X23753371Y-81755638D01*
X23753371Y-81755638D02*
X23705752Y-81660400D01*
X23705752Y-81660400D02*
X23705752Y-81517543D01*
X23705752Y-81517543D02*
X23753371Y-81422305D01*
X24372419Y-80946114D02*
X23705752Y-80946114D01*
X23372419Y-80946114D02*
X23420038Y-80993733D01*
X23420038Y-80993733D02*
X23467657Y-80946114D01*
X23467657Y-80946114D02*
X23420038Y-80898495D01*
X23420038Y-80898495D02*
X23372419Y-80946114D01*
X23372419Y-80946114D02*
X23467657Y-80946114D01*
X24372419Y-80469924D02*
X23705752Y-80469924D01*
X23800990Y-80469924D02*
X23753371Y-80422305D01*
X23753371Y-80422305D02*
X23705752Y-80327067D01*
X23705752Y-80327067D02*
X23705752Y-80184210D01*
X23705752Y-80184210D02*
X23753371Y-80088972D01*
X23753371Y-80088972D02*
X23848609Y-80041353D01*
X23848609Y-80041353D02*
X24372419Y-80041353D01*
X23848609Y-80041353D02*
X23753371Y-79993734D01*
X23753371Y-79993734D02*
X23705752Y-79898496D01*
X23705752Y-79898496D02*
X23705752Y-79755639D01*
X23705752Y-79755639D02*
X23753371Y-79660400D01*
X23753371Y-79660400D02*
X23848609Y-79612781D01*
X23848609Y-79612781D02*
X24372419Y-79612781D01*
X23467657Y-78422305D02*
X23420038Y-78374686D01*
X23420038Y-78374686D02*
X23372419Y-78279448D01*
X23372419Y-78279448D02*
X23372419Y-78041353D01*
X23372419Y-78041353D02*
X23420038Y-77946115D01*
X23420038Y-77946115D02*
X23467657Y-77898496D01*
X23467657Y-77898496D02*
X23562895Y-77850877D01*
X23562895Y-77850877D02*
X23658133Y-77850877D01*
X23658133Y-77850877D02*
X23800990Y-77898496D01*
X23800990Y-77898496D02*
X24372419Y-78469924D01*
X24372419Y-78469924D02*
X24372419Y-77850877D01*
X23372419Y-77231829D02*
X23372419Y-77136591D01*
X23372419Y-77136591D02*
X23420038Y-77041353D01*
X23420038Y-77041353D02*
X23467657Y-76993734D01*
X23467657Y-76993734D02*
X23562895Y-76946115D01*
X23562895Y-76946115D02*
X23753371Y-76898496D01*
X23753371Y-76898496D02*
X23991466Y-76898496D01*
X23991466Y-76898496D02*
X24181942Y-76946115D01*
X24181942Y-76946115D02*
X24277180Y-76993734D01*
X24277180Y-76993734D02*
X24324800Y-77041353D01*
X24324800Y-77041353D02*
X24372419Y-77136591D01*
X24372419Y-77136591D02*
X24372419Y-77231829D01*
X24372419Y-77231829D02*
X24324800Y-77327067D01*
X24324800Y-77327067D02*
X24277180Y-77374686D01*
X24277180Y-77374686D02*
X24181942Y-77422305D01*
X24181942Y-77422305D02*
X23991466Y-77469924D01*
X23991466Y-77469924D02*
X23753371Y-77469924D01*
X23753371Y-77469924D02*
X23562895Y-77422305D01*
X23562895Y-77422305D02*
X23467657Y-77374686D01*
X23467657Y-77374686D02*
X23420038Y-77327067D01*
X23420038Y-77327067D02*
X23372419Y-77231829D01*
X23467657Y-76517543D02*
X23420038Y-76469924D01*
X23420038Y-76469924D02*
X23372419Y-76374686D01*
X23372419Y-76374686D02*
X23372419Y-76136591D01*
X23372419Y-76136591D02*
X23420038Y-76041353D01*
X23420038Y-76041353D02*
X23467657Y-75993734D01*
X23467657Y-75993734D02*
X23562895Y-75946115D01*
X23562895Y-75946115D02*
X23658133Y-75946115D01*
X23658133Y-75946115D02*
X23800990Y-75993734D01*
X23800990Y-75993734D02*
X24372419Y-76565162D01*
X24372419Y-76565162D02*
X24372419Y-75946115D01*
X23372419Y-75088972D02*
X23372419Y-75279448D01*
X23372419Y-75279448D02*
X23420038Y-75374686D01*
X23420038Y-75374686D02*
X23467657Y-75422305D01*
X23467657Y-75422305D02*
X23610514Y-75517543D01*
X23610514Y-75517543D02*
X23800990Y-75565162D01*
X23800990Y-75565162D02*
X24181942Y-75565162D01*
X24181942Y-75565162D02*
X24277180Y-75517543D01*
X24277180Y-75517543D02*
X24324800Y-75469924D01*
X24324800Y-75469924D02*
X24372419Y-75374686D01*
X24372419Y-75374686D02*
X24372419Y-75184210D01*
X24372419Y-75184210D02*
X24324800Y-75088972D01*
X24324800Y-75088972D02*
X24277180Y-75041353D01*
X24277180Y-75041353D02*
X24181942Y-74993734D01*
X24181942Y-74993734D02*
X23943847Y-74993734D01*
X23943847Y-74993734D02*
X23848609Y-75041353D01*
X23848609Y-75041353D02*
X23800990Y-75088972D01*
X23800990Y-75088972D02*
X23753371Y-75184210D01*
X23753371Y-75184210D02*
X23753371Y-75374686D01*
X23753371Y-75374686D02*
X23800990Y-75469924D01*
X23800990Y-75469924D02*
X23848609Y-75517543D01*
X23848609Y-75517543D02*
X23943847Y-75565162D01*
X26122419Y-84374687D02*
X25646228Y-84708020D01*
X26122419Y-84946115D02*
X25122419Y-84946115D01*
X25122419Y-84946115D02*
X25122419Y-84565163D01*
X25122419Y-84565163D02*
X25170038Y-84469925D01*
X25170038Y-84469925D02*
X25217657Y-84422306D01*
X25217657Y-84422306D02*
X25312895Y-84374687D01*
X25312895Y-84374687D02*
X25455752Y-84374687D01*
X25455752Y-84374687D02*
X25550990Y-84422306D01*
X25550990Y-84422306D02*
X25598609Y-84469925D01*
X25598609Y-84469925D02*
X25646228Y-84565163D01*
X25646228Y-84565163D02*
X25646228Y-84946115D01*
X26122419Y-83517544D02*
X25598609Y-83517544D01*
X25598609Y-83517544D02*
X25503371Y-83565163D01*
X25503371Y-83565163D02*
X25455752Y-83660401D01*
X25455752Y-83660401D02*
X25455752Y-83850877D01*
X25455752Y-83850877D02*
X25503371Y-83946115D01*
X26074800Y-83517544D02*
X26122419Y-83612782D01*
X26122419Y-83612782D02*
X26122419Y-83850877D01*
X26122419Y-83850877D02*
X26074800Y-83946115D01*
X26074800Y-83946115D02*
X25979561Y-83993734D01*
X25979561Y-83993734D02*
X25884323Y-83993734D01*
X25884323Y-83993734D02*
X25789085Y-83946115D01*
X25789085Y-83946115D02*
X25741466Y-83850877D01*
X25741466Y-83850877D02*
X25741466Y-83612782D01*
X25741466Y-83612782D02*
X25693847Y-83517544D01*
X26122419Y-82612782D02*
X25122419Y-82612782D01*
X26074800Y-82612782D02*
X26122419Y-82708020D01*
X26122419Y-82708020D02*
X26122419Y-82898496D01*
X26122419Y-82898496D02*
X26074800Y-82993734D01*
X26074800Y-82993734D02*
X26027180Y-83041353D01*
X26027180Y-83041353D02*
X25931942Y-83088972D01*
X25931942Y-83088972D02*
X25646228Y-83088972D01*
X25646228Y-83088972D02*
X25550990Y-83041353D01*
X25550990Y-83041353D02*
X25503371Y-82993734D01*
X25503371Y-82993734D02*
X25455752Y-82898496D01*
X25455752Y-82898496D02*
X25455752Y-82708020D01*
X25455752Y-82708020D02*
X25503371Y-82612782D01*
X26122419Y-82136591D02*
X25455752Y-82136591D01*
X25122419Y-82136591D02*
X25170038Y-82184210D01*
X25170038Y-82184210D02*
X25217657Y-82136591D01*
X25217657Y-82136591D02*
X25170038Y-82088972D01*
X25170038Y-82088972D02*
X25122419Y-82136591D01*
X25122419Y-82136591D02*
X25217657Y-82136591D01*
X26122419Y-81517544D02*
X26074800Y-81612782D01*
X26074800Y-81612782D02*
X26027180Y-81660401D01*
X26027180Y-81660401D02*
X25931942Y-81708020D01*
X25931942Y-81708020D02*
X25646228Y-81708020D01*
X25646228Y-81708020D02*
X25550990Y-81660401D01*
X25550990Y-81660401D02*
X25503371Y-81612782D01*
X25503371Y-81612782D02*
X25455752Y-81517544D01*
X25455752Y-81517544D02*
X25455752Y-81374687D01*
X25455752Y-81374687D02*
X25503371Y-81279449D01*
X25503371Y-81279449D02*
X25550990Y-81231830D01*
X25550990Y-81231830D02*
X25646228Y-81184211D01*
X25646228Y-81184211D02*
X25931942Y-81184211D01*
X25931942Y-81184211D02*
X26027180Y-81231830D01*
X26027180Y-81231830D02*
X26074800Y-81279449D01*
X26074800Y-81279449D02*
X26122419Y-81374687D01*
X26122419Y-81374687D02*
X26122419Y-81517544D01*
X26122419Y-79993734D02*
X25122419Y-79993734D01*
X25122419Y-79993734D02*
X25122419Y-79612782D01*
X25122419Y-79612782D02*
X25170038Y-79517544D01*
X25170038Y-79517544D02*
X25217657Y-79469925D01*
X25217657Y-79469925D02*
X25312895Y-79422306D01*
X25312895Y-79422306D02*
X25455752Y-79422306D01*
X25455752Y-79422306D02*
X25550990Y-79469925D01*
X25550990Y-79469925D02*
X25598609Y-79517544D01*
X25598609Y-79517544D02*
X25646228Y-79612782D01*
X25646228Y-79612782D02*
X25646228Y-79993734D01*
X26122419Y-78565163D02*
X25598609Y-78565163D01*
X25598609Y-78565163D02*
X25503371Y-78612782D01*
X25503371Y-78612782D02*
X25455752Y-78708020D01*
X25455752Y-78708020D02*
X25455752Y-78898496D01*
X25455752Y-78898496D02*
X25503371Y-78993734D01*
X26074800Y-78565163D02*
X26122419Y-78660401D01*
X26122419Y-78660401D02*
X26122419Y-78898496D01*
X26122419Y-78898496D02*
X26074800Y-78993734D01*
X26074800Y-78993734D02*
X25979561Y-79041353D01*
X25979561Y-79041353D02*
X25884323Y-79041353D01*
X25884323Y-79041353D02*
X25789085Y-78993734D01*
X25789085Y-78993734D02*
X25741466Y-78898496D01*
X25741466Y-78898496D02*
X25741466Y-78660401D01*
X25741466Y-78660401D02*
X25693847Y-78565163D01*
X25455752Y-78088972D02*
X26122419Y-78088972D01*
X25550990Y-78088972D02*
X25503371Y-78041353D01*
X25503371Y-78041353D02*
X25455752Y-77946115D01*
X25455752Y-77946115D02*
X25455752Y-77803258D01*
X25455752Y-77803258D02*
X25503371Y-77708020D01*
X25503371Y-77708020D02*
X25598609Y-77660401D01*
X25598609Y-77660401D02*
X26122419Y-77660401D01*
X26074800Y-76803258D02*
X26122419Y-76898496D01*
X26122419Y-76898496D02*
X26122419Y-77088972D01*
X26122419Y-77088972D02*
X26074800Y-77184210D01*
X26074800Y-77184210D02*
X25979561Y-77231829D01*
X25979561Y-77231829D02*
X25598609Y-77231829D01*
X25598609Y-77231829D02*
X25503371Y-77184210D01*
X25503371Y-77184210D02*
X25455752Y-77088972D01*
X25455752Y-77088972D02*
X25455752Y-76898496D01*
X25455752Y-76898496D02*
X25503371Y-76803258D01*
X25503371Y-76803258D02*
X25598609Y-76755639D01*
X25598609Y-76755639D02*
X25693847Y-76755639D01*
X25693847Y-76755639D02*
X25789085Y-77231829D01*
X26122419Y-76184210D02*
X26074800Y-76279448D01*
X26074800Y-76279448D02*
X25979561Y-76327067D01*
X25979561Y-76327067D02*
X25122419Y-76327067D01*
X27586704Y-84743734D02*
X27586704Y-84267544D01*
X27872419Y-84838972D02*
X26872419Y-84505639D01*
X26872419Y-84505639D02*
X27872419Y-84172306D01*
X27872419Y-83934210D02*
X27205752Y-83410401D01*
X27205752Y-83934210D02*
X27872419Y-83410401D01*
X27824800Y-82648496D02*
X27872419Y-82743734D01*
X27872419Y-82743734D02*
X27872419Y-82934210D01*
X27872419Y-82934210D02*
X27824800Y-83029448D01*
X27824800Y-83029448D02*
X27729561Y-83077067D01*
X27729561Y-83077067D02*
X27348609Y-83077067D01*
X27348609Y-83077067D02*
X27253371Y-83029448D01*
X27253371Y-83029448D02*
X27205752Y-82934210D01*
X27205752Y-82934210D02*
X27205752Y-82743734D01*
X27205752Y-82743734D02*
X27253371Y-82648496D01*
X27253371Y-82648496D02*
X27348609Y-82600877D01*
X27348609Y-82600877D02*
X27443847Y-82600877D01*
X27443847Y-82600877D02*
X27539085Y-83077067D01*
X27872419Y-82029448D02*
X27824800Y-82124686D01*
X27824800Y-82124686D02*
X27729561Y-82172305D01*
X27729561Y-82172305D02*
X26872419Y-82172305D01*
X27872419Y-80886590D02*
X26872419Y-80886590D01*
X26872419Y-80886590D02*
X26872419Y-80648495D01*
X26872419Y-80648495D02*
X26920038Y-80505638D01*
X26920038Y-80505638D02*
X27015276Y-80410400D01*
X27015276Y-80410400D02*
X27110514Y-80362781D01*
X27110514Y-80362781D02*
X27300990Y-80315162D01*
X27300990Y-80315162D02*
X27443847Y-80315162D01*
X27443847Y-80315162D02*
X27634323Y-80362781D01*
X27634323Y-80362781D02*
X27729561Y-80410400D01*
X27729561Y-80410400D02*
X27824800Y-80505638D01*
X27824800Y-80505638D02*
X27872419Y-80648495D01*
X27872419Y-80648495D02*
X27872419Y-80886590D01*
X27872419Y-79886590D02*
X27205752Y-79886590D01*
X27396228Y-79886590D02*
X27300990Y-79838971D01*
X27300990Y-79838971D02*
X27253371Y-79791352D01*
X27253371Y-79791352D02*
X27205752Y-79696114D01*
X27205752Y-79696114D02*
X27205752Y-79600876D01*
X27872419Y-78838971D02*
X27348609Y-78838971D01*
X27348609Y-78838971D02*
X27253371Y-78886590D01*
X27253371Y-78886590D02*
X27205752Y-78981828D01*
X27205752Y-78981828D02*
X27205752Y-79172304D01*
X27205752Y-79172304D02*
X27253371Y-79267542D01*
X27824800Y-78838971D02*
X27872419Y-78934209D01*
X27872419Y-78934209D02*
X27872419Y-79172304D01*
X27872419Y-79172304D02*
X27824800Y-79267542D01*
X27824800Y-79267542D02*
X27729561Y-79315161D01*
X27729561Y-79315161D02*
X27634323Y-79315161D01*
X27634323Y-79315161D02*
X27539085Y-79267542D01*
X27539085Y-79267542D02*
X27491466Y-79172304D01*
X27491466Y-79172304D02*
X27491466Y-78934209D01*
X27491466Y-78934209D02*
X27443847Y-78838971D01*
X27205752Y-78458018D02*
X27872419Y-78267542D01*
X27872419Y-78267542D02*
X27396228Y-78077066D01*
X27396228Y-78077066D02*
X27872419Y-77886590D01*
X27872419Y-77886590D02*
X27205752Y-77696114D01*
X27824800Y-77362780D02*
X27872419Y-77267542D01*
X27872419Y-77267542D02*
X27872419Y-77077066D01*
X27872419Y-77077066D02*
X27824800Y-76981828D01*
X27824800Y-76981828D02*
X27729561Y-76934209D01*
X27729561Y-76934209D02*
X27681942Y-76934209D01*
X27681942Y-76934209D02*
X27586704Y-76981828D01*
X27586704Y-76981828D02*
X27539085Y-77077066D01*
X27539085Y-77077066D02*
X27539085Y-77219923D01*
X27539085Y-77219923D02*
X27491466Y-77315161D01*
X27491466Y-77315161D02*
X27396228Y-77362780D01*
X27396228Y-77362780D02*
X27348609Y-77362780D01*
X27348609Y-77362780D02*
X27253371Y-77315161D01*
X27253371Y-77315161D02*
X27205752Y-77219923D01*
X27205752Y-77219923D02*
X27205752Y-77077066D01*
X27205752Y-77077066D02*
X27253371Y-76981828D01*
D11*
X105530952Y-107594819D02*
X105530952Y-106594819D01*
X105530952Y-106594819D02*
X106102380Y-107594819D01*
X106102380Y-107594819D02*
X106102380Y-106594819D01*
X106530952Y-107309104D02*
X107007142Y-107309104D01*
X106435714Y-107594819D02*
X106769047Y-106594819D01*
X106769047Y-106594819D02*
X107102380Y-107594819D01*
X107292857Y-106594819D02*
X107626190Y-107594819D01*
X107626190Y-107594819D02*
X107959523Y-106594819D01*
X108245238Y-106690057D02*
X108292857Y-106642438D01*
X108292857Y-106642438D02*
X108388095Y-106594819D01*
X108388095Y-106594819D02*
X108626190Y-106594819D01*
X108626190Y-106594819D02*
X108721428Y-106642438D01*
X108721428Y-106642438D02*
X108769047Y-106690057D01*
X108769047Y-106690057D02*
X108816666Y-106785295D01*
X108816666Y-106785295D02*
X108816666Y-106880533D01*
X108816666Y-106880533D02*
X108769047Y-107023390D01*
X108769047Y-107023390D02*
X108197619Y-107594819D01*
X108197619Y-107594819D02*
X108816666Y-107594819D01*
X48129524Y-61217200D02*
X48272381Y-61264819D01*
X48272381Y-61264819D02*
X48510476Y-61264819D01*
X48510476Y-61264819D02*
X48605714Y-61217200D01*
X48605714Y-61217200D02*
X48653333Y-61169580D01*
X48653333Y-61169580D02*
X48700952Y-61074342D01*
X48700952Y-61074342D02*
X48700952Y-60979104D01*
X48700952Y-60979104D02*
X48653333Y-60883866D01*
X48653333Y-60883866D02*
X48605714Y-60836247D01*
X48605714Y-60836247D02*
X48510476Y-60788628D01*
X48510476Y-60788628D02*
X48320000Y-60741009D01*
X48320000Y-60741009D02*
X48224762Y-60693390D01*
X48224762Y-60693390D02*
X48177143Y-60645771D01*
X48177143Y-60645771D02*
X48129524Y-60550533D01*
X48129524Y-60550533D02*
X48129524Y-60455295D01*
X48129524Y-60455295D02*
X48177143Y-60360057D01*
X48177143Y-60360057D02*
X48224762Y-60312438D01*
X48224762Y-60312438D02*
X48320000Y-60264819D01*
X48320000Y-60264819D02*
X48558095Y-60264819D01*
X48558095Y-60264819D02*
X48700952Y-60312438D01*
X49034286Y-60598152D02*
X49224762Y-61264819D01*
X49224762Y-61264819D02*
X49415238Y-60788628D01*
X49415238Y-60788628D02*
X49605714Y-61264819D01*
X49605714Y-61264819D02*
X49796190Y-60598152D01*
X50177143Y-61264819D02*
X50177143Y-60598152D01*
X50177143Y-60264819D02*
X50129524Y-60312438D01*
X50129524Y-60312438D02*
X50177143Y-60360057D01*
X50177143Y-60360057D02*
X50224762Y-60312438D01*
X50224762Y-60312438D02*
X50177143Y-60264819D01*
X50177143Y-60264819D02*
X50177143Y-60360057D01*
X50510476Y-60598152D02*
X50891428Y-60598152D01*
X50653333Y-60264819D02*
X50653333Y-61121961D01*
X50653333Y-61121961D02*
X50700952Y-61217200D01*
X50700952Y-61217200D02*
X50796190Y-61264819D01*
X50796190Y-61264819D02*
X50891428Y-61264819D01*
X51653333Y-61217200D02*
X51558095Y-61264819D01*
X51558095Y-61264819D02*
X51367619Y-61264819D01*
X51367619Y-61264819D02*
X51272381Y-61217200D01*
X51272381Y-61217200D02*
X51224762Y-61169580D01*
X51224762Y-61169580D02*
X51177143Y-61074342D01*
X51177143Y-61074342D02*
X51177143Y-60788628D01*
X51177143Y-60788628D02*
X51224762Y-60693390D01*
X51224762Y-60693390D02*
X51272381Y-60645771D01*
X51272381Y-60645771D02*
X51367619Y-60598152D01*
X51367619Y-60598152D02*
X51558095Y-60598152D01*
X51558095Y-60598152D02*
X51653333Y-60645771D01*
X52081905Y-61264819D02*
X52081905Y-60264819D01*
X52510476Y-61264819D02*
X52510476Y-60741009D01*
X52510476Y-60741009D02*
X52462857Y-60645771D01*
X52462857Y-60645771D02*
X52367619Y-60598152D01*
X52367619Y-60598152D02*
X52224762Y-60598152D01*
X52224762Y-60598152D02*
X52129524Y-60645771D01*
X52129524Y-60645771D02*
X52081905Y-60693390D01*
X53510476Y-61264819D02*
X52939048Y-61264819D01*
X53224762Y-61264819D02*
X53224762Y-60264819D01*
X53224762Y-60264819D02*
X53129524Y-60407676D01*
X53129524Y-60407676D02*
X53034286Y-60502914D01*
X53034286Y-60502914D02*
X52939048Y-60550533D01*
X31304819Y-52256904D02*
X32114342Y-52256904D01*
X32114342Y-52256904D02*
X32209580Y-52209285D01*
X32209580Y-52209285D02*
X32257200Y-52161666D01*
X32257200Y-52161666D02*
X32304819Y-52066428D01*
X32304819Y-52066428D02*
X32304819Y-51875952D01*
X32304819Y-51875952D02*
X32257200Y-51780714D01*
X32257200Y-51780714D02*
X32209580Y-51733095D01*
X32209580Y-51733095D02*
X32114342Y-51685476D01*
X32114342Y-51685476D02*
X31304819Y-51685476D01*
X31304819Y-51304523D02*
X31304819Y-50685476D01*
X31304819Y-50685476D02*
X31685771Y-51018809D01*
X31685771Y-51018809D02*
X31685771Y-50875952D01*
X31685771Y-50875952D02*
X31733390Y-50780714D01*
X31733390Y-50780714D02*
X31781009Y-50733095D01*
X31781009Y-50733095D02*
X31876247Y-50685476D01*
X31876247Y-50685476D02*
X32114342Y-50685476D01*
X32114342Y-50685476D02*
X32209580Y-50733095D01*
X32209580Y-50733095D02*
X32257200Y-50780714D01*
X32257200Y-50780714D02*
X32304819Y-50875952D01*
X32304819Y-50875952D02*
X32304819Y-51161666D01*
X32304819Y-51161666D02*
X32257200Y-51256904D01*
X32257200Y-51256904D02*
X32209580Y-51304523D01*
X49405714Y-28344819D02*
X49405714Y-27344819D01*
X49405714Y-27344819D02*
X49643809Y-27344819D01*
X49643809Y-27344819D02*
X49786666Y-27392438D01*
X49786666Y-27392438D02*
X49881904Y-27487676D01*
X49881904Y-27487676D02*
X49929523Y-27582914D01*
X49929523Y-27582914D02*
X49977142Y-27773390D01*
X49977142Y-27773390D02*
X49977142Y-27916247D01*
X49977142Y-27916247D02*
X49929523Y-28106723D01*
X49929523Y-28106723D02*
X49881904Y-28201961D01*
X49881904Y-28201961D02*
X49786666Y-28297200D01*
X49786666Y-28297200D02*
X49643809Y-28344819D01*
X49643809Y-28344819D02*
X49405714Y-28344819D01*
X50358095Y-28297200D02*
X50500952Y-28344819D01*
X50500952Y-28344819D02*
X50739047Y-28344819D01*
X50739047Y-28344819D02*
X50834285Y-28297200D01*
X50834285Y-28297200D02*
X50881904Y-28249580D01*
X50881904Y-28249580D02*
X50929523Y-28154342D01*
X50929523Y-28154342D02*
X50929523Y-28059104D01*
X50929523Y-28059104D02*
X50881904Y-27963866D01*
X50881904Y-27963866D02*
X50834285Y-27916247D01*
X50834285Y-27916247D02*
X50739047Y-27868628D01*
X50739047Y-27868628D02*
X50548571Y-27821009D01*
X50548571Y-27821009D02*
X50453333Y-27773390D01*
X50453333Y-27773390D02*
X50405714Y-27725771D01*
X50405714Y-27725771D02*
X50358095Y-27630533D01*
X50358095Y-27630533D02*
X50358095Y-27535295D01*
X50358095Y-27535295D02*
X50405714Y-27440057D01*
X50405714Y-27440057D02*
X50453333Y-27392438D01*
X50453333Y-27392438D02*
X50548571Y-27344819D01*
X50548571Y-27344819D02*
X50786666Y-27344819D01*
X50786666Y-27344819D02*
X50929523Y-27392438D01*
X51881904Y-28344819D02*
X51310476Y-28344819D01*
X51596190Y-28344819D02*
X51596190Y-27344819D01*
X51596190Y-27344819D02*
X51500952Y-27487676D01*
X51500952Y-27487676D02*
X51405714Y-27582914D01*
X51405714Y-27582914D02*
X51310476Y-27630533D01*
X38767200Y-93333332D02*
X38814819Y-93190475D01*
X38814819Y-93190475D02*
X38814819Y-92952380D01*
X38814819Y-92952380D02*
X38767200Y-92857142D01*
X38767200Y-92857142D02*
X38719580Y-92809523D01*
X38719580Y-92809523D02*
X38624342Y-92761904D01*
X38624342Y-92761904D02*
X38529104Y-92761904D01*
X38529104Y-92761904D02*
X38433866Y-92809523D01*
X38433866Y-92809523D02*
X38386247Y-92857142D01*
X38386247Y-92857142D02*
X38338628Y-92952380D01*
X38338628Y-92952380D02*
X38291009Y-93142856D01*
X38291009Y-93142856D02*
X38243390Y-93238094D01*
X38243390Y-93238094D02*
X38195771Y-93285713D01*
X38195771Y-93285713D02*
X38100533Y-93333332D01*
X38100533Y-93333332D02*
X38005295Y-93333332D01*
X38005295Y-93333332D02*
X37910057Y-93285713D01*
X37910057Y-93285713D02*
X37862438Y-93238094D01*
X37862438Y-93238094D02*
X37814819Y-93142856D01*
X37814819Y-93142856D02*
X37814819Y-92904761D01*
X37814819Y-92904761D02*
X37862438Y-92761904D01*
X37814819Y-92428570D02*
X38814819Y-92190475D01*
X38814819Y-92190475D02*
X38100533Y-91999999D01*
X38100533Y-91999999D02*
X38814819Y-91809523D01*
X38814819Y-91809523D02*
X37814819Y-91571428D01*
X37814819Y-91285713D02*
X37814819Y-90666666D01*
X37814819Y-90666666D02*
X38195771Y-90999999D01*
X38195771Y-90999999D02*
X38195771Y-90857142D01*
X38195771Y-90857142D02*
X38243390Y-90761904D01*
X38243390Y-90761904D02*
X38291009Y-90714285D01*
X38291009Y-90714285D02*
X38386247Y-90666666D01*
X38386247Y-90666666D02*
X38624342Y-90666666D01*
X38624342Y-90666666D02*
X38719580Y-90714285D01*
X38719580Y-90714285D02*
X38767200Y-90761904D01*
X38767200Y-90761904D02*
X38814819Y-90857142D01*
X38814819Y-90857142D02*
X38814819Y-91142856D01*
X38814819Y-91142856D02*
X38767200Y-91238094D01*
X38767200Y-91238094D02*
X38719580Y-91285713D01*
X96714819Y-52571904D02*
X97524342Y-52571904D01*
X97524342Y-52571904D02*
X97619580Y-52524285D01*
X97619580Y-52524285D02*
X97667200Y-52476666D01*
X97667200Y-52476666D02*
X97714819Y-52381428D01*
X97714819Y-52381428D02*
X97714819Y-52190952D01*
X97714819Y-52190952D02*
X97667200Y-52095714D01*
X97667200Y-52095714D02*
X97619580Y-52048095D01*
X97619580Y-52048095D02*
X97524342Y-52000476D01*
X97524342Y-52000476D02*
X96714819Y-52000476D01*
X96810057Y-51571904D02*
X96762438Y-51524285D01*
X96762438Y-51524285D02*
X96714819Y-51429047D01*
X96714819Y-51429047D02*
X96714819Y-51190952D01*
X96714819Y-51190952D02*
X96762438Y-51095714D01*
X96762438Y-51095714D02*
X96810057Y-51048095D01*
X96810057Y-51048095D02*
X96905295Y-51000476D01*
X96905295Y-51000476D02*
X97000533Y-51000476D01*
X97000533Y-51000476D02*
X97143390Y-51048095D01*
X97143390Y-51048095D02*
X97714819Y-51619523D01*
X97714819Y-51619523D02*
X97714819Y-51000476D01*
X80390952Y-107634819D02*
X80390952Y-106634819D01*
X80390952Y-106634819D02*
X80962380Y-107634819D01*
X80962380Y-107634819D02*
X80962380Y-106634819D01*
X81390952Y-107349104D02*
X81867142Y-107349104D01*
X81295714Y-107634819D02*
X81629047Y-106634819D01*
X81629047Y-106634819D02*
X81962380Y-107634819D01*
X82152857Y-106634819D02*
X82486190Y-107634819D01*
X82486190Y-107634819D02*
X82819523Y-106634819D01*
X83676666Y-107634819D02*
X83105238Y-107634819D01*
X83390952Y-107634819D02*
X83390952Y-106634819D01*
X83390952Y-106634819D02*
X83295714Y-106777676D01*
X83295714Y-106777676D02*
X83200476Y-106872914D01*
X83200476Y-106872914D02*
X83105238Y-106920533D01*
X129927143Y-107289104D02*
X130403333Y-107289104D01*
X129831905Y-107574819D02*
X130165238Y-106574819D01*
X130165238Y-106574819D02*
X130498571Y-107574819D01*
X130831905Y-107574819D02*
X130831905Y-106574819D01*
X130831905Y-106574819D02*
X131070000Y-106574819D01*
X131070000Y-106574819D02*
X131212857Y-106622438D01*
X131212857Y-106622438D02*
X131308095Y-106717676D01*
X131308095Y-106717676D02*
X131355714Y-106812914D01*
X131355714Y-106812914D02*
X131403333Y-107003390D01*
X131403333Y-107003390D02*
X131403333Y-107146247D01*
X131403333Y-107146247D02*
X131355714Y-107336723D01*
X131355714Y-107336723D02*
X131308095Y-107431961D01*
X131308095Y-107431961D02*
X131212857Y-107527200D01*
X131212857Y-107527200D02*
X131070000Y-107574819D01*
X131070000Y-107574819D02*
X130831905Y-107574819D01*
X132165238Y-107051009D02*
X131831905Y-107051009D01*
X131831905Y-107574819D02*
X131831905Y-106574819D01*
X131831905Y-106574819D02*
X132308095Y-106574819D01*
X133212857Y-107574819D02*
X132641429Y-107574819D01*
X132927143Y-107574819D02*
X132927143Y-106574819D01*
X132927143Y-106574819D02*
X132831905Y-106717676D01*
X132831905Y-106717676D02*
X132736667Y-106812914D01*
X132736667Y-106812914D02*
X132641429Y-106860533D01*
X112195714Y-28334819D02*
X112195714Y-27334819D01*
X112195714Y-27334819D02*
X112433809Y-27334819D01*
X112433809Y-27334819D02*
X112576666Y-27382438D01*
X112576666Y-27382438D02*
X112671904Y-27477676D01*
X112671904Y-27477676D02*
X112719523Y-27572914D01*
X112719523Y-27572914D02*
X112767142Y-27763390D01*
X112767142Y-27763390D02*
X112767142Y-27906247D01*
X112767142Y-27906247D02*
X112719523Y-28096723D01*
X112719523Y-28096723D02*
X112671904Y-28191961D01*
X112671904Y-28191961D02*
X112576666Y-28287200D01*
X112576666Y-28287200D02*
X112433809Y-28334819D01*
X112433809Y-28334819D02*
X112195714Y-28334819D01*
X113148095Y-28287200D02*
X113290952Y-28334819D01*
X113290952Y-28334819D02*
X113529047Y-28334819D01*
X113529047Y-28334819D02*
X113624285Y-28287200D01*
X113624285Y-28287200D02*
X113671904Y-28239580D01*
X113671904Y-28239580D02*
X113719523Y-28144342D01*
X113719523Y-28144342D02*
X113719523Y-28049104D01*
X113719523Y-28049104D02*
X113671904Y-27953866D01*
X113671904Y-27953866D02*
X113624285Y-27906247D01*
X113624285Y-27906247D02*
X113529047Y-27858628D01*
X113529047Y-27858628D02*
X113338571Y-27811009D01*
X113338571Y-27811009D02*
X113243333Y-27763390D01*
X113243333Y-27763390D02*
X113195714Y-27715771D01*
X113195714Y-27715771D02*
X113148095Y-27620533D01*
X113148095Y-27620533D02*
X113148095Y-27525295D01*
X113148095Y-27525295D02*
X113195714Y-27430057D01*
X113195714Y-27430057D02*
X113243333Y-27382438D01*
X113243333Y-27382438D02*
X113338571Y-27334819D01*
X113338571Y-27334819D02*
X113576666Y-27334819D01*
X113576666Y-27334819D02*
X113719523Y-27382438D01*
X114100476Y-27430057D02*
X114148095Y-27382438D01*
X114148095Y-27382438D02*
X114243333Y-27334819D01*
X114243333Y-27334819D02*
X114481428Y-27334819D01*
X114481428Y-27334819D02*
X114576666Y-27382438D01*
X114576666Y-27382438D02*
X114624285Y-27430057D01*
X114624285Y-27430057D02*
X114671904Y-27525295D01*
X114671904Y-27525295D02*
X114671904Y-27620533D01*
X114671904Y-27620533D02*
X114624285Y-27763390D01*
X114624285Y-27763390D02*
X114052857Y-28334819D01*
X114052857Y-28334819D02*
X114671904Y-28334819D01*
X96384167Y-65154700D02*
X96527024Y-65202319D01*
X96527024Y-65202319D02*
X96765119Y-65202319D01*
X96765119Y-65202319D02*
X96860357Y-65154700D01*
X96860357Y-65154700D02*
X96907976Y-65107080D01*
X96907976Y-65107080D02*
X96955595Y-65011842D01*
X96955595Y-65011842D02*
X96955595Y-64916604D01*
X96955595Y-64916604D02*
X96907976Y-64821366D01*
X96907976Y-64821366D02*
X96860357Y-64773747D01*
X96860357Y-64773747D02*
X96765119Y-64726128D01*
X96765119Y-64726128D02*
X96574643Y-64678509D01*
X96574643Y-64678509D02*
X96479405Y-64630890D01*
X96479405Y-64630890D02*
X96431786Y-64583271D01*
X96431786Y-64583271D02*
X96384167Y-64488033D01*
X96384167Y-64488033D02*
X96384167Y-64392795D01*
X96384167Y-64392795D02*
X96431786Y-64297557D01*
X96431786Y-64297557D02*
X96479405Y-64249938D01*
X96479405Y-64249938D02*
X96574643Y-64202319D01*
X96574643Y-64202319D02*
X96812738Y-64202319D01*
X96812738Y-64202319D02*
X96955595Y-64249938D01*
X97288929Y-64202319D02*
X97527024Y-65202319D01*
X97527024Y-65202319D02*
X97717500Y-64488033D01*
X97717500Y-64488033D02*
X97907976Y-65202319D01*
X97907976Y-65202319D02*
X98146072Y-64202319D01*
X99050833Y-65202319D02*
X98479405Y-65202319D01*
X98765119Y-65202319D02*
X98765119Y-64202319D01*
X98765119Y-64202319D02*
X98669881Y-64345176D01*
X98669881Y-64345176D02*
X98574643Y-64440414D01*
X98574643Y-64440414D02*
X98479405Y-64488033D01*
X55658095Y-107509580D02*
X55610476Y-107557200D01*
X55610476Y-107557200D02*
X55467619Y-107604819D01*
X55467619Y-107604819D02*
X55372381Y-107604819D01*
X55372381Y-107604819D02*
X55229524Y-107557200D01*
X55229524Y-107557200D02*
X55134286Y-107461961D01*
X55134286Y-107461961D02*
X55086667Y-107366723D01*
X55086667Y-107366723D02*
X55039048Y-107176247D01*
X55039048Y-107176247D02*
X55039048Y-107033390D01*
X55039048Y-107033390D02*
X55086667Y-106842914D01*
X55086667Y-106842914D02*
X55134286Y-106747676D01*
X55134286Y-106747676D02*
X55229524Y-106652438D01*
X55229524Y-106652438D02*
X55372381Y-106604819D01*
X55372381Y-106604819D02*
X55467619Y-106604819D01*
X55467619Y-106604819D02*
X55610476Y-106652438D01*
X55610476Y-106652438D02*
X55658095Y-106700057D01*
X56277143Y-106604819D02*
X56467619Y-106604819D01*
X56467619Y-106604819D02*
X56562857Y-106652438D01*
X56562857Y-106652438D02*
X56658095Y-106747676D01*
X56658095Y-106747676D02*
X56705714Y-106938152D01*
X56705714Y-106938152D02*
X56705714Y-107271485D01*
X56705714Y-107271485D02*
X56658095Y-107461961D01*
X56658095Y-107461961D02*
X56562857Y-107557200D01*
X56562857Y-107557200D02*
X56467619Y-107604819D01*
X56467619Y-107604819D02*
X56277143Y-107604819D01*
X56277143Y-107604819D02*
X56181905Y-107557200D01*
X56181905Y-107557200D02*
X56086667Y-107461961D01*
X56086667Y-107461961D02*
X56039048Y-107271485D01*
X56039048Y-107271485D02*
X56039048Y-106938152D01*
X56039048Y-106938152D02*
X56086667Y-106747676D01*
X56086667Y-106747676D02*
X56181905Y-106652438D01*
X56181905Y-106652438D02*
X56277143Y-106604819D01*
X57134286Y-107604819D02*
X57134286Y-106604819D01*
X57134286Y-106604819D02*
X57467619Y-107319104D01*
X57467619Y-107319104D02*
X57800952Y-106604819D01*
X57800952Y-106604819D02*
X57800952Y-107604819D01*
X58229524Y-106700057D02*
X58277143Y-106652438D01*
X58277143Y-106652438D02*
X58372381Y-106604819D01*
X58372381Y-106604819D02*
X58610476Y-106604819D01*
X58610476Y-106604819D02*
X58705714Y-106652438D01*
X58705714Y-106652438D02*
X58753333Y-106700057D01*
X58753333Y-106700057D02*
X58800952Y-106795295D01*
X58800952Y-106795295D02*
X58800952Y-106890533D01*
X58800952Y-106890533D02*
X58753333Y-107033390D01*
X58753333Y-107033390D02*
X58181905Y-107604819D01*
X58181905Y-107604819D02*
X58800952Y-107604819D01*
X31248095Y-107549580D02*
X31200476Y-107597200D01*
X31200476Y-107597200D02*
X31057619Y-107644819D01*
X31057619Y-107644819D02*
X30962381Y-107644819D01*
X30962381Y-107644819D02*
X30819524Y-107597200D01*
X30819524Y-107597200D02*
X30724286Y-107501961D01*
X30724286Y-107501961D02*
X30676667Y-107406723D01*
X30676667Y-107406723D02*
X30629048Y-107216247D01*
X30629048Y-107216247D02*
X30629048Y-107073390D01*
X30629048Y-107073390D02*
X30676667Y-106882914D01*
X30676667Y-106882914D02*
X30724286Y-106787676D01*
X30724286Y-106787676D02*
X30819524Y-106692438D01*
X30819524Y-106692438D02*
X30962381Y-106644819D01*
X30962381Y-106644819D02*
X31057619Y-106644819D01*
X31057619Y-106644819D02*
X31200476Y-106692438D01*
X31200476Y-106692438D02*
X31248095Y-106740057D01*
X31867143Y-106644819D02*
X32057619Y-106644819D01*
X32057619Y-106644819D02*
X32152857Y-106692438D01*
X32152857Y-106692438D02*
X32248095Y-106787676D01*
X32248095Y-106787676D02*
X32295714Y-106978152D01*
X32295714Y-106978152D02*
X32295714Y-107311485D01*
X32295714Y-107311485D02*
X32248095Y-107501961D01*
X32248095Y-107501961D02*
X32152857Y-107597200D01*
X32152857Y-107597200D02*
X32057619Y-107644819D01*
X32057619Y-107644819D02*
X31867143Y-107644819D01*
X31867143Y-107644819D02*
X31771905Y-107597200D01*
X31771905Y-107597200D02*
X31676667Y-107501961D01*
X31676667Y-107501961D02*
X31629048Y-107311485D01*
X31629048Y-107311485D02*
X31629048Y-106978152D01*
X31629048Y-106978152D02*
X31676667Y-106787676D01*
X31676667Y-106787676D02*
X31771905Y-106692438D01*
X31771905Y-106692438D02*
X31867143Y-106644819D01*
X32724286Y-107644819D02*
X32724286Y-106644819D01*
X32724286Y-106644819D02*
X33057619Y-107359104D01*
X33057619Y-107359104D02*
X33390952Y-106644819D01*
X33390952Y-106644819D02*
X33390952Y-107644819D01*
X34390952Y-107644819D02*
X33819524Y-107644819D01*
X34105238Y-107644819D02*
X34105238Y-106644819D01*
X34105238Y-106644819D02*
X34010000Y-106787676D01*
X34010000Y-106787676D02*
X33914762Y-106882914D01*
X33914762Y-106882914D02*
X33819524Y-106930533D01*
X127866667Y-65207200D02*
X128009524Y-65254819D01*
X128009524Y-65254819D02*
X128247619Y-65254819D01*
X128247619Y-65254819D02*
X128342857Y-65207200D01*
X128342857Y-65207200D02*
X128390476Y-65159580D01*
X128390476Y-65159580D02*
X128438095Y-65064342D01*
X128438095Y-65064342D02*
X128438095Y-64969104D01*
X128438095Y-64969104D02*
X128390476Y-64873866D01*
X128390476Y-64873866D02*
X128342857Y-64826247D01*
X128342857Y-64826247D02*
X128247619Y-64778628D01*
X128247619Y-64778628D02*
X128057143Y-64731009D01*
X128057143Y-64731009D02*
X127961905Y-64683390D01*
X127961905Y-64683390D02*
X127914286Y-64635771D01*
X127914286Y-64635771D02*
X127866667Y-64540533D01*
X127866667Y-64540533D02*
X127866667Y-64445295D01*
X127866667Y-64445295D02*
X127914286Y-64350057D01*
X127914286Y-64350057D02*
X127961905Y-64302438D01*
X127961905Y-64302438D02*
X128057143Y-64254819D01*
X128057143Y-64254819D02*
X128295238Y-64254819D01*
X128295238Y-64254819D02*
X128438095Y-64302438D01*
X128771429Y-64254819D02*
X129009524Y-65254819D01*
X129009524Y-65254819D02*
X129200000Y-64540533D01*
X129200000Y-64540533D02*
X129390476Y-65254819D01*
X129390476Y-65254819D02*
X129628572Y-64254819D01*
X129961905Y-64350057D02*
X130009524Y-64302438D01*
X130009524Y-64302438D02*
X130104762Y-64254819D01*
X130104762Y-64254819D02*
X130342857Y-64254819D01*
X130342857Y-64254819D02*
X130438095Y-64302438D01*
X130438095Y-64302438D02*
X130485714Y-64350057D01*
X130485714Y-64350057D02*
X130533333Y-64445295D01*
X130533333Y-64445295D02*
X130533333Y-64540533D01*
X130533333Y-64540533D02*
X130485714Y-64683390D01*
X130485714Y-64683390D02*
X129914286Y-65254819D01*
X129914286Y-65254819D02*
X130533333Y-65254819D01*
%TO.C,NAV2*%
D12*
X100050000Y-108040000D02*
X100050000Y-122240000D01*
X100050000Y-122240000D02*
X114250000Y-122240000D01*
X114250000Y-108040000D02*
X100050000Y-108040000D01*
X114250000Y-122240000D02*
X114250000Y-108040000D01*
%TO.C,Switch1*%
X43720000Y-61710000D02*
X43720000Y-75910000D01*
X43720000Y-75910000D02*
X57920000Y-75910000D01*
X57920000Y-61710000D02*
X43720000Y-61710000D01*
X57920000Y-75910000D02*
X57920000Y-61710000D01*
%TO.C,U3*%
X32850000Y-48845000D02*
X32850000Y-50495000D01*
X32850000Y-52495000D02*
X32850000Y-54145000D01*
X32850000Y-54145000D02*
X63450000Y-54145000D01*
X63450000Y-48845000D02*
X32850000Y-48845000D01*
X63450000Y-54145000D02*
X63450000Y-48845000D01*
X32850000Y-50495000D02*
G75*
G02*
X32850000Y-52495000I0J-1000000D01*
G01*
%TO.C,DS1*%
X27920000Y-29290000D02*
X73320000Y-29290000D01*
X73320000Y-43690000D01*
X27920000Y-43690000D01*
X27920000Y-29290000D01*
D13*
X41325000Y-31410000D02*
G75*
G02*
X40875000Y-31410000I-225000J0D01*
G01*
X40875000Y-31410000D02*
G75*
G02*
X41325000Y-31410000I225000J0D01*
G01*
%TO.C,SW3*%
D14*
X40800000Y-87400000D02*
X49000000Y-87400000D01*
X40800000Y-96600000D02*
X40800000Y-87400000D01*
X40800000Y-96600000D02*
X49000000Y-96600000D01*
X49000000Y-96600000D02*
X49000000Y-87400000D01*
X44080000Y-93360000D02*
G75*
G02*
X44142660Y-90604136I820000J1360000D01*
G01*
X44090000Y-93940000D02*
G75*
G02*
X44012251Y-90094324I809999J1940000D01*
G01*
X44290000Y-92910000D02*
G75*
G02*
X44265456Y-91106941I610000J910000D01*
G01*
X45480000Y-91070000D02*
G75*
G02*
X45537874Y-92891301I-580001J-930000D01*
G01*
X45730000Y-89990000D02*
G75*
G02*
X45661661Y-94036878I-830000J-2010000D01*
G01*
X45750000Y-90660000D02*
G75*
G02*
X45661847Y-93392009I-850000J-1340000D01*
G01*
D15*
X49160000Y-96730000D02*
G75*
G02*
X49100000Y-96730000I-30000J0D01*
G01*
X49100000Y-96730000D02*
G75*
G02*
X49160000Y-96730000I30000J0D01*
G01*
%TO.C,U2*%
D12*
X98260000Y-49160000D02*
X98260000Y-50810000D01*
X98260000Y-52810000D02*
X98260000Y-54460000D01*
X98260000Y-54460000D02*
X128860000Y-54460000D01*
X128860000Y-49160000D02*
X98260000Y-49160000D01*
X128860000Y-54460000D02*
X128860000Y-49160000D01*
X98260000Y-50810000D02*
G75*
G02*
X98260000Y-52810000I0J-1000000D01*
G01*
%TO.C,NAV1*%
X74910000Y-108080000D02*
X74910000Y-122280000D01*
X74910000Y-122280000D02*
X89110000Y-122280000D01*
X89110000Y-108080000D02*
X74910000Y-108080000D01*
X89110000Y-122280000D02*
X89110000Y-108080000D01*
%TO.C,ADF1*%
X124470000Y-108020000D02*
X124470000Y-122220000D01*
X124470000Y-122220000D02*
X138670000Y-122220000D01*
X138670000Y-108020000D02*
X124470000Y-108020000D01*
X138670000Y-122220000D02*
X138670000Y-108020000D01*
%TO.C,DS2*%
X90710000Y-29280000D02*
X136110000Y-29280000D01*
X136110000Y-43680000D01*
X90710000Y-43680000D01*
X90710000Y-29280000D01*
D13*
X104115000Y-31400000D02*
G75*
G02*
X103665000Y-31400000I-225000J0D01*
G01*
X103665000Y-31400000D02*
G75*
G02*
X104115000Y-31400000I225000J0D01*
G01*
%TO.C,SW1*%
D14*
X91117500Y-62147500D02*
X91117500Y-67057500D01*
X91117500Y-62147500D02*
X104317500Y-62147500D01*
X91117500Y-70437500D02*
X91117500Y-75347500D01*
X94497500Y-75347500D02*
X91117500Y-75347500D01*
X95467500Y-67747500D02*
X99967500Y-67747500D01*
X95967500Y-66997500D02*
X99467500Y-66997500D01*
X97037500Y-75347500D02*
X95857500Y-75347500D01*
X99577500Y-75347500D02*
X98397500Y-75347500D01*
X104317500Y-62147500D02*
X104317500Y-67057500D01*
X104317500Y-70437500D02*
X104317500Y-75347500D01*
X104317500Y-75347500D02*
X100937500Y-75347500D01*
X95966472Y-66998692D02*
G75*
G02*
X99467500Y-66997500I1751028J-1508806D01*
G01*
X99968299Y-67749248D02*
G75*
G02*
X95467500Y-67747500I-2250799J-1028252D01*
G01*
D15*
X90497500Y-77147500D02*
G75*
G02*
X90437500Y-77147500I-30000J0D01*
G01*
X90437500Y-77147500D02*
G75*
G02*
X90497500Y-77147500I30000J0D01*
G01*
D14*
X94517500Y-63647500D02*
G75*
G02*
X92717500Y-63647500I-900000J0D01*
G01*
X92717500Y-63647500D02*
G75*
G02*
X94517500Y-63647500I900000J0D01*
G01*
X94517500Y-73847500D02*
G75*
G02*
X92717500Y-73847500I-900000J0D01*
G01*
X92717500Y-73847500D02*
G75*
G02*
X94517500Y-73847500I900000J0D01*
G01*
X102717500Y-63647500D02*
G75*
G02*
X100917500Y-63647500I-900000J0D01*
G01*
X100917500Y-63647500D02*
G75*
G02*
X102717500Y-63647500I900000J0D01*
G01*
X102717500Y-73847500D02*
G75*
G02*
X100917500Y-73847500I-900000J0D01*
G01*
X100917500Y-73847500D02*
G75*
G02*
X102717500Y-73847500I900000J0D01*
G01*
%TO.C,COM2*%
D12*
X49820000Y-108050000D02*
X49820000Y-122250000D01*
X49820000Y-122250000D02*
X64020000Y-122250000D01*
X64020000Y-108050000D02*
X49820000Y-108050000D01*
X64020000Y-122250000D02*
X64020000Y-108050000D01*
%TO.C,COM1*%
X25410000Y-108090000D02*
X25410000Y-122290000D01*
X25410000Y-122290000D02*
X39610000Y-122290000D01*
X39610000Y-108090000D02*
X25410000Y-108090000D01*
X39610000Y-122290000D02*
X39610000Y-108090000D01*
%TO.C,SW2*%
D14*
X122600000Y-62200000D02*
X122600000Y-67110000D01*
X122600000Y-62200000D02*
X135800000Y-62200000D01*
X122600000Y-70490000D02*
X122600000Y-75400000D01*
X125980000Y-75400000D02*
X122600000Y-75400000D01*
X126950000Y-67800000D02*
X131450000Y-67800000D01*
X127450000Y-67050000D02*
X130950000Y-67050000D01*
X128520000Y-75400000D02*
X127340000Y-75400000D01*
X131060000Y-75400000D02*
X129880000Y-75400000D01*
X135800000Y-62200000D02*
X135800000Y-67110000D01*
X135800000Y-70490000D02*
X135800000Y-75400000D01*
X135800000Y-75400000D02*
X132420000Y-75400000D01*
X127448972Y-67051192D02*
G75*
G02*
X130950000Y-67050000I1751028J-1508806D01*
G01*
X131450799Y-67801748D02*
G75*
G02*
X126950000Y-67800000I-2250799J-1028252D01*
G01*
D15*
X121980000Y-77200000D02*
G75*
G02*
X121920000Y-77200000I-30000J0D01*
G01*
X121920000Y-77200000D02*
G75*
G02*
X121980000Y-77200000I30000J0D01*
G01*
D14*
X126000000Y-63700000D02*
G75*
G02*
X124200000Y-63700000I-900000J0D01*
G01*
X124200000Y-63700000D02*
G75*
G02*
X126000000Y-63700000I900000J0D01*
G01*
X126000000Y-73900000D02*
G75*
G02*
X124200000Y-73900000I-900000J0D01*
G01*
X124200000Y-73900000D02*
G75*
G02*
X126000000Y-73900000I900000J0D01*
G01*
X134200000Y-63700000D02*
G75*
G02*
X132400000Y-63700000I-900000J0D01*
G01*
X132400000Y-63700000D02*
G75*
G02*
X134200000Y-63700000I900000J0D01*
G01*
X134200000Y-73900000D02*
G75*
G02*
X132400000Y-73900000I-900000J0D01*
G01*
X132400000Y-73900000D02*
G75*
G02*
X134200000Y-73900000I900000J0D01*
G01*
%TD*%
M02*
