%TF.GenerationSoftware,KiCad,Pcbnew,10.0.5*%
%TF.CreationDate,2026-07-25T17:15:33+02:00*%
%TF.ProjectId,learsim pcbs,6c656172-7369-46d2-9070-6362732e6b69,rev?*%
%TF.SameCoordinates,Original*%
%TF.FileFunction,Copper,L2,Bot*%
%TF.FilePolarity,Positive*%
%FSLAX46Y46*%
G04 Gerber Fmt 4.6, Leading zero omitted, Abs format (unit mm)*
G04 Created by KiCad (PCBNEW 10.0.5) date 2026-07-25 17:15:33*
%MOMM*%
%LPD*%
G01*
G04 APERTURE LIST*
G04 Aperture macros list*
%AMRoundRect*
0 Rectangle with rounded corners*
0 $1 Rounding radius*
0 $2 $3 $4 $5 $6 $7 $8 $9 X,Y pos of 4 corners*
0 Add a 4 corners polygon primitive as box body*
4,1,4,$2,$3,$4,$5,$6,$7,$8,$9,$2,$3,0*
0 Add four circle primitives for the rounded corners*
1,1,$1+$1,$2,$3*
1,1,$1+$1,$4,$5*
1,1,$1+$1,$6,$7*
1,1,$1+$1,$8,$9*
0 Add four rect primitives between the rounded corners*
20,1,$1+$1,$2,$3,$4,$5,0*
20,1,$1+$1,$4,$5,$6,$7,0*
20,1,$1+$1,$6,$7,$8,$9,0*
20,1,$1+$1,$8,$9,$2,$3,0*%
G04 Aperture macros list end*
%TA.AperFunction,ComponentPad*%
%ADD10C,1.600000*%
%TD*%
%TA.AperFunction,ComponentPad*%
%ADD11RoundRect,0.250000X0.550000X-0.550000X0.550000X0.550000X-0.550000X0.550000X-0.550000X-0.550000X0*%
%TD*%
%TA.AperFunction,ComponentPad*%
%ADD12C,2.500000*%
%TD*%
%TA.AperFunction,SMDPad,CuDef*%
%ADD13R,1.600000X3.400000*%
%TD*%
%TA.AperFunction,SMDPad,CuDef*%
%ADD14RoundRect,0.205000X0.470000X0.205000X-0.470000X0.205000X-0.470000X-0.205000X0.470000X-0.205000X0*%
%TD*%
%TA.AperFunction,SMDPad,CuDef*%
%ADD15RoundRect,0.205000X-0.470000X-0.205000X0.470000X-0.205000X0.470000X0.205000X-0.470000X0.205000X0*%
%TD*%
%TA.AperFunction,ComponentPad*%
%ADD16RoundRect,0.250000X-0.550000X-0.550000X0.550000X-0.550000X0.550000X0.550000X-0.550000X0.550000X0*%
%TD*%
%TA.AperFunction,ComponentPad*%
%ADD17R,1.600000X1.600000*%
%TD*%
%TA.AperFunction,ComponentPad*%
%ADD18O,1.300000X2.300000*%
%TD*%
%TA.AperFunction,ComponentPad*%
%ADD19C,1.800000*%
%TD*%
%TA.AperFunction,ComponentPad*%
%ADD20O,3.300000X3.500000*%
%TD*%
%TA.AperFunction,ViaPad*%
%ADD21C,0.600000*%
%TD*%
%TA.AperFunction,Conductor*%
%ADD22C,0.200000*%
%TD*%
G04 APERTURE END LIST*
D10*
%TO.P,U3,24,DOUT_24*%
%TO.N,unconnected-(U3-DOUT-Pad24)*%
X34180000Y-47685000D03*
%TO.P,U3,23,SEG_D_23*%
%TO.N,U3_SEG_D*%
X36720000Y-47685000D03*
%TO.P,U3,22,SEG_DP_22*%
%TO.N,U3_SEG_DP*%
X39260000Y-47685000D03*
%TO.P,U3,21,SEG_E_21*%
%TO.N,U3_SEG_E*%
X41800000Y-47685000D03*
%TO.P,U3,20,SEG_C_20*%
%TO.N,U3_SEG_C*%
X44340000Y-47685000D03*
%TO.P,U3,19,V+_19*%
%TO.N,+5V*%
X46880000Y-47685000D03*
%TO.P,U3,18,ISET_18*%
%TO.N,U3_ISET*%
X49420000Y-47685000D03*
%TO.P,U3,17,SEG_G_17*%
%TO.N,U3_SEG_G*%
X51960000Y-47685000D03*
%TO.P,U3,16,SEG_B_16*%
%TO.N,U3_SEG_B*%
X54500000Y-47685000D03*
%TO.P,U3,15,SEG_F_15*%
%TO.N,U3_SEG_F*%
X57040000Y-47685000D03*
%TO.P,U3,14,SEG_A_14*%
%TO.N,U3_SEG_A*%
X59580000Y-47685000D03*
%TO.P,U3,13,CLK_13*%
%TO.N,SPI_CLK*%
X62120000Y-47685000D03*
%TO.P,U3,12,LOAD_12*%
%TO.N,SPI_LOAD*%
X62120000Y-55305000D03*
%TO.P,U3,11,DIG_1_11*%
%TO.N,U3_DIG1*%
X59580000Y-55305000D03*
%TO.P,U3,10,DIG_5_10*%
%TO.N,U3_DIG5*%
X57040000Y-55305000D03*
%TO.P,U3,9,GND_9*%
%TO.N,GND*%
X54500000Y-55305000D03*
%TO.P,U3,8,DIG_7_8*%
%TO.N,unconnected-(U3-DIG_7-Pad8)*%
X51960000Y-55305000D03*
%TO.P,U3,7,DIG_3_7*%
%TO.N,U3_DIG3*%
X49420000Y-55305000D03*
%TO.P,U3,6,DIG_2_6*%
%TO.N,U3_DIG2*%
X46880000Y-55305000D03*
%TO.P,U3,5,DIG_6_5*%
%TO.N,unconnected-(U3-DIG_6-Pad5)*%
X44340000Y-55305000D03*
%TO.P,U3,4,GND_4*%
%TO.N,GND*%
X41800000Y-55305000D03*
%TO.P,U3,3,DIG_4_3*%
%TO.N,U3_DIG4*%
X39260000Y-55305000D03*
%TO.P,U3,2,DIG_0_2*%
%TO.N,U3_DIG0*%
X36720000Y-55305000D03*
D11*
%TO.P,U3,1,DIN_1*%
%TO.N,MAX_CHAIN*%
X34180000Y-55305000D03*
%TD*%
D12*
%TO.P,ADF1,2,2_2*%
%TO.N,BTN_ADF1*%
X134110000Y-110040000D03*
%TO.P,ADF1,1,1_1*%
%TO.N,GND*%
X127760000Y-112580000D03*
%TD*%
%TO.P,COM1,2,2_2*%
%TO.N,BTN_COM1*%
X35050000Y-110110000D03*
%TO.P,COM1,1,1_1*%
%TO.N,GND*%
X28700000Y-112650000D03*
%TD*%
%TO.P,COM2,2,2_2*%
%TO.N,BTN_COM2*%
X59460000Y-110070000D03*
%TO.P,COM2,1,1_1*%
%TO.N,GND*%
X53110000Y-112610000D03*
%TD*%
%TO.P,NAV1,2,2_2*%
%TO.N,BTN_NAV1*%
X84550000Y-110100000D03*
%TO.P,NAV1,1,1_1*%
%TO.N,GND*%
X78200000Y-112640000D03*
%TD*%
%TO.P,NAV2,2,2_2*%
%TO.N,BTN_NAV2*%
X109690000Y-110060000D03*
%TO.P,NAV2,1,1_1*%
%TO.N,GND*%
X103340000Y-112600000D03*
%TD*%
%TO.P,Switch1,2,2_2*%
%TO.N,BTN_Switch1*%
X53360000Y-63730000D03*
%TO.P,Switch1,1,1_1*%
%TO.N,GND*%
X47010000Y-66270000D03*
%TD*%
D13*
%TO.P,U1,30,EXIO5_30*%
%TO.N,BTN_ADF1*%
X93840000Y-101450000D03*
%TO.P,U1,29,EXIO4_29*%
%TO.N,BTN_NAV2*%
X96380000Y-101450000D03*
%TO.P,U1,28,EXIO3_28*%
%TO.N,BTN_NAV1*%
X98920000Y-101450000D03*
%TO.P,U1,27,EXIO2_27*%
%TO.N,BTN_COM2*%
X101460000Y-101450000D03*
%TO.P,U1,26,EXIO1_26*%
%TO.N,BTN_COM1*%
X104000000Y-101450000D03*
%TO.P,U1,25,RUN_25*%
%TO.N,unconnected-(U1-RUN-Pad25)*%
X106540000Y-101450000D03*
%TO.P,U1,24,GPIO22_SDA_TCA9554_24*%
%TO.N,unconnected-(U1-GPIO22_SDA_TCA9554-Pad24)*%
X109080000Y-101450000D03*
%TO.P,U1,23,GPIO23_SCL_TCA9554_23*%
%TO.N,unconnected-(U1-GPIO23_SCL_TCA9554-Pad23)*%
X111620000Y-101450000D03*
%TO.P,U1,22,GPIO19_22*%
%TO.N,ENC2_B*%
X114160000Y-101450000D03*
%TO.P,U1,21,GPIO9_21*%
%TO.N,SW3_B*%
X116700000Y-101450000D03*
%TO.P,U1,20,GPIO8_20*%
%TO.N,SW3_A*%
X119240000Y-101450000D03*
%TO.P,U1,19,3V3_19*%
%TO.N,+3V3*%
X121780000Y-101450000D03*
%TO.P,U1,18,EN_18*%
%TO.N,unconnected-(U1-EN-Pad18)*%
X124320000Y-101450000D03*
%TO.P,U1,17,Vsys_17*%
%TO.N,+5V*%
X126860000Y-101450000D03*
%TO.P,U1,16,Vbus_16*%
X129400000Y-101450000D03*
%TO.P,U1,15,EXIO7_15*%
%TO.N,SW3_B*%
X93840000Y-81450000D03*
%TO.P,U1,14,EXIO6_14*%
%TO.N,BTN_Switch1*%
X96380000Y-81450000D03*
%TO.P,U1,13,GPIO21_13*%
%TO.N,LED_DIN*%
X98920000Y-81450000D03*
%TO.P,U1,12,GPIO20_12*%
%TO.N,ENC2_SW*%
X101460000Y-81450000D03*
%TO.P,U1,11,GPIO18_11*%
%TO.N,ENC2_A*%
X104000000Y-81450000D03*
%TO.P,U1,10,GPIO16_10*%
%TO.N,ENC1_B*%
X106540000Y-81450000D03*
%TO.P,U1,9,GPIO15_9*%
%TO.N,ENC1_A*%
X109080000Y-81450000D03*
%TO.P,U1,8,GPIO14_8*%
%TO.N,SW3_A*%
X111620000Y-81450000D03*
%TO.P,U1,7,GPIO7_7*%
%TO.N,SPI_CLK*%
X114160000Y-81450000D03*
%TO.P,U1,6,GPIO6_6*%
%TO.N,SPI_DIN*%
X116700000Y-81450000D03*
%TO.P,U1,5,GPIO5_5*%
%TO.N,ENC1_SW*%
X119240000Y-81450000D03*
%TO.P,U1,4,GPIO4_4*%
%TO.N,SPI_LOAD*%
X121780000Y-81450000D03*
%TO.P,U1,3,GND_3*%
%TO.N,GND*%
X124320000Y-81450000D03*
%TO.P,U1,2,RX_2*%
%TO.N,unconnected-(U1-RX-Pad2)*%
X126860000Y-81450000D03*
%TO.P,U1,1,TX_1*%
%TO.N,unconnected-(U1-TX-Pad1)*%
X129400000Y-81450000D03*
%TD*%
D14*
%TO.P,D5,4,DOUT_4*%
%TO.N,LED_12*%
X48025000Y-74750000D03*
%TO.P,D5,3,VDD_3*%
%TO.N,+5V*%
X48025000Y-73250000D03*
%TO.P,D5,2,DIN_2*%
%TO.N,LED_DIN*%
X53475000Y-73250000D03*
%TO.P,D5,1,VSS_1*%
%TO.N,GND*%
X53475000Y-74750000D03*
%TD*%
D15*
%TO.P,D1,4,DOUT_4*%
%TO.N,LED_23*%
X35225000Y-119750000D03*
%TO.P,D1,3,VDD_3*%
%TO.N,+5V*%
X35225000Y-121250000D03*
%TO.P,D1,2,DIN_2*%
%TO.N,LED_12*%
X29775000Y-121250000D03*
%TO.P,D1,1,VSS_1*%
%TO.N,GND*%
X29775000Y-119750000D03*
%TD*%
%TO.P,D2,4,DOUT_4*%
%TO.N,LED_34*%
X59725000Y-119650000D03*
%TO.P,D2,3,VDD_3*%
%TO.N,+5V*%
X59725000Y-121150000D03*
%TO.P,D2,2,DIN_2*%
%TO.N,LED_23*%
X54275000Y-121150000D03*
%TO.P,D2,1,VSS_1*%
%TO.N,GND*%
X54275000Y-119650000D03*
%TD*%
D10*
%TO.P,R15,2,~_2*%
%TO.N,+3V3*%
X55560000Y-98000000D03*
%TO.P,R15,1,~_1*%
%TO.N,SW3_A*%
X47940000Y-98000000D03*
%TD*%
%TO.P,R16,1,~_1*%
%TO.N,SW3_B*%
X41560000Y-98250000D03*
%TO.P,R16,2,~_2*%
%TO.N,+3V3*%
X33940000Y-98250000D03*
%TD*%
D16*
%TO.P,C6,1,~_1*%
%TO.N,+5V*%
X81250000Y-36000000D03*
D10*
%TO.P,C6,2,~_2*%
%TO.N,GND*%
X83750000Y-36000000D03*
%TD*%
D17*
%TO.P,DS1,1,D_1*%
%TO.N,U3_SEG_D*%
X43000000Y-31410000D03*
D10*
%TO.P,DS1,2,DP_2*%
%TO.N,U3_SEG_DP*%
X45540000Y-31410000D03*
%TO.P,DS1,3,E_3*%
%TO.N,U3_SEG_E*%
X48080000Y-31410000D03*
%TO.P,DS1,4,C_4*%
%TO.N,U3_SEG_C*%
X50620000Y-31410000D03*
%TO.P,DS1,5,DIG6_5*%
%TO.N,U3_DIG5*%
X53160000Y-31410000D03*
%TO.P,DS1,6,G_6*%
%TO.N,U3_SEG_G*%
X55700000Y-31410000D03*
%TO.P,DS1,7,B_7*%
%TO.N,U3_SEG_B*%
X58240000Y-31410000D03*
%TO.P,DS1,8,DIG5_8*%
%TO.N,U3_DIG4*%
X58240000Y-41570000D03*
%TO.P,DS1,9,DIG4_9*%
%TO.N,U3_DIG3*%
X55700000Y-41570000D03*
%TO.P,DS1,10,F_10*%
%TO.N,U3_SEG_F*%
X53160000Y-41570000D03*
%TO.P,DS1,11,A_11*%
%TO.N,U3_SEG_A*%
X50620000Y-41570000D03*
%TO.P,DS1,12,DIG3_12*%
%TO.N,U3_DIG2*%
X48080000Y-41570000D03*
%TO.P,DS1,13,DIG2_13*%
%TO.N,U3_DIG1*%
X45540000Y-41570000D03*
%TO.P,DS1,14,DIG1_14*%
%TO.N,U3_DIG0*%
X43000000Y-41570000D03*
%TD*%
D11*
%TO.P,U2,1,DIN_1*%
%TO.N,SPI_DIN*%
X99590000Y-55620000D03*
D10*
%TO.P,U2,2,DIG_0_2*%
%TO.N,U2_DIG0*%
X102130000Y-55620000D03*
%TO.P,U2,3,DIG_4_3*%
%TO.N,U2_DIG4*%
X104670000Y-55620000D03*
%TO.P,U2,4,GND_4*%
%TO.N,GND*%
X107210000Y-55620000D03*
%TO.P,U2,5,DIG_6_5*%
%TO.N,unconnected-(U2-DIG_6-Pad5)*%
X109750000Y-55620000D03*
%TO.P,U2,6,DIG_2_6*%
%TO.N,U2_DIG2*%
X112290000Y-55620000D03*
%TO.P,U2,7,DIG_3_7*%
%TO.N,U2_DIG3*%
X114830000Y-55620000D03*
%TO.P,U2,8,DIG_7_8*%
%TO.N,unconnected-(U2-DIG_7-Pad8)*%
X117370000Y-55620000D03*
%TO.P,U2,9,GND_9*%
%TO.N,GND*%
X119910000Y-55620000D03*
%TO.P,U2,10,DIG_5_10*%
%TO.N,U2_DIG5*%
X122450000Y-55620000D03*
%TO.P,U2,11,DIG_1_11*%
%TO.N,U2_DIG1*%
X124990000Y-55620000D03*
%TO.P,U2,12,LOAD_12*%
%TO.N,SPI_LOAD*%
X127530000Y-55620000D03*
%TO.P,U2,13,CLK_13*%
%TO.N,SPI_CLK*%
X127530000Y-48000000D03*
%TO.P,U2,14,SEG_A_14*%
%TO.N,U2_SEG_A*%
X124990000Y-48000000D03*
%TO.P,U2,15,SEG_F_15*%
%TO.N,U2_SEG_F*%
X122450000Y-48000000D03*
%TO.P,U2,16,SEG_B_16*%
%TO.N,U2_SEG_B*%
X119910000Y-48000000D03*
%TO.P,U2,17,SEG_G_17*%
%TO.N,U2_SEG_G*%
X117370000Y-48000000D03*
%TO.P,U2,18,ISET_18*%
%TO.N,U2_ISET*%
X114830000Y-48000000D03*
%TO.P,U2,19,V+_19*%
%TO.N,+5V*%
X112290000Y-48000000D03*
%TO.P,U2,20,SEG_C_20*%
%TO.N,U2_SEG_C*%
X109750000Y-48000000D03*
%TO.P,U2,21,SEG_E_21*%
%TO.N,U2_SEG_E*%
X107210000Y-48000000D03*
%TO.P,U2,22,SEG_DP_22*%
%TO.N,U2_SEG_DP*%
X104670000Y-48000000D03*
%TO.P,U2,23,SEG_D_23*%
%TO.N,U2_SEG_D*%
X102130000Y-48000000D03*
%TO.P,U2,24,DOUT_24*%
%TO.N,MAX_CHAIN*%
X99590000Y-48000000D03*
%TD*%
D18*
%TO.P,SW3,1,1_1*%
%TO.N,SW3_A*%
X47500000Y-91955000D03*
%TO.P,SW3,2,2_2*%
%TO.N,GND*%
X44960000Y-91955000D03*
%TO.P,SW3,3,3_3*%
%TO.N,SW3_B*%
X42420000Y-91955000D03*
%TD*%
D17*
%TO.P,DS2,1,D_1*%
%TO.N,U2_SEG_D*%
X105790000Y-31400000D03*
D10*
%TO.P,DS2,2,DP_2*%
%TO.N,U2_SEG_DP*%
X108330000Y-31400000D03*
%TO.P,DS2,3,E_3*%
%TO.N,U2_SEG_E*%
X110870000Y-31400000D03*
%TO.P,DS2,4,C_4*%
%TO.N,U2_SEG_C*%
X113410000Y-31400000D03*
%TO.P,DS2,5,DIG6_5*%
%TO.N,U2_DIG5*%
X115950000Y-31400000D03*
%TO.P,DS2,6,G_6*%
%TO.N,U2_SEG_G*%
X118490000Y-31400000D03*
%TO.P,DS2,7,B_7*%
%TO.N,U2_SEG_B*%
X121030000Y-31400000D03*
%TO.P,DS2,8,DIG5_8*%
%TO.N,U2_DIG4*%
X121030000Y-41560000D03*
%TO.P,DS2,9,DIG4_9*%
%TO.N,U2_DIG3*%
X118490000Y-41560000D03*
%TO.P,DS2,10,F_10*%
%TO.N,U2_SEG_F*%
X115950000Y-41560000D03*
%TO.P,DS2,11,A_11*%
%TO.N,U2_SEG_A*%
X113410000Y-41560000D03*
%TO.P,DS2,12,DIG3_12*%
%TO.N,U2_DIG2*%
X110870000Y-41560000D03*
%TO.P,DS2,13,DIG2_13*%
%TO.N,U2_DIG1*%
X108330000Y-41560000D03*
%TO.P,DS2,14,DIG1_14*%
%TO.N,U2_DIG0*%
X105790000Y-41560000D03*
%TD*%
D19*
%TO.P,SW1,A,A_A*%
%TO.N,ENC1_A*%
X95177500Y-76247500D03*
%TO.P,SW1,B,B_B*%
%TO.N,ENC1_B*%
X100257500Y-76247500D03*
%TO.P,SW1,C,C_C*%
%TO.N,GND*%
X97717500Y-76247500D03*
D20*
%TO.P,SW1,D,D_D*%
%TO.N,ENC1_SW*%
X103317500Y-68747500D03*
%TO.P,SW1,E,E_E*%
%TO.N,GND*%
X92117500Y-68747500D03*
%TD*%
D19*
%TO.P,SW2,A,A_A*%
%TO.N,ENC2_A*%
X126660000Y-76300000D03*
%TO.P,SW2,B,B_B*%
%TO.N,ENC2_B*%
X131740000Y-76300000D03*
%TO.P,SW2,C,C_C*%
%TO.N,GND*%
X129200000Y-76300000D03*
D20*
%TO.P,SW2,D,D_D*%
%TO.N,ENC2_SW*%
X134800000Y-68800000D03*
%TO.P,SW2,E,E_E*%
%TO.N,GND*%
X123600000Y-68800000D03*
%TD*%
D15*
%TO.P,D6,1,VSS_1*%
%TO.N,GND*%
X128775000Y-119600000D03*
%TO.P,D6,2,DIN_2*%
%TO.N,LED_56*%
X128775000Y-121100000D03*
%TO.P,D6,3,VDD_3*%
%TO.N,+5V*%
X134225000Y-121100000D03*
%TO.P,D6,4,DOUT_4*%
%TO.N,unconnected-(D6-DOUT-Pad4)*%
X134225000Y-119600000D03*
%TD*%
D10*
%TO.P,R1,1,~_1*%
%TO.N,U2_ISET*%
X112190000Y-59250000D03*
%TO.P,R1,2,~_2*%
%TO.N,+5V*%
X119810000Y-59250000D03*
%TD*%
%TO.P,C12,1,~_1*%
%TO.N,+5V*%
X120000000Y-126000000D03*
%TO.P,C12,2,~_2*%
%TO.N,GND*%
X125000000Y-126000000D03*
%TD*%
%TO.P,C7,1,~_1*%
%TO.N,+5V*%
X24750000Y-49000000D03*
%TO.P,C7,2,~_2*%
%TO.N,GND*%
X29750000Y-49000000D03*
%TD*%
%TO.P,R9,1,~_1*%
%TO.N,+3V3*%
X78190000Y-74000000D03*
%TO.P,R9,2,~_2*%
%TO.N,ENC1_A*%
X85810000Y-74000000D03*
%TD*%
%TO.P,C13,1,~_1*%
%TO.N,ENC1_A*%
X85750000Y-70000000D03*
%TO.P,C13,2,~_2*%
%TO.N,GND*%
X80750000Y-70000000D03*
%TD*%
%TO.P,R10,1,~_1*%
%TO.N,+3V3*%
X78190000Y-65500000D03*
%TO.P,R10,2,~_2*%
%TO.N,ENC1_B*%
X85810000Y-65500000D03*
%TD*%
%TO.P,R3,1,~_1*%
%TO.N,+3V3*%
X37690000Y-126750000D03*
%TO.P,R3,2,~_2*%
%TO.N,BTN_COM1*%
X45310000Y-126750000D03*
%TD*%
%TO.P,C17,1,~_1*%
%TO.N,ENC2_B*%
X117250000Y-64000000D03*
%TO.P,C17,2,~_2*%
%TO.N,GND*%
X112250000Y-64000000D03*
%TD*%
D15*
%TO.P,D3,1,VSS_1*%
%TO.N,GND*%
X79275000Y-119650000D03*
%TO.P,D3,2,DIN_2*%
%TO.N,LED_34*%
X79275000Y-121150000D03*
%TO.P,D3,3,VDD_3*%
%TO.N,+5V*%
X84725000Y-121150000D03*
%TO.P,D3,4,DOUT_4*%
%TO.N,LED_45*%
X84725000Y-119650000D03*
%TD*%
D10*
%TO.P,R8,1,~_1*%
%TO.N,+3V3*%
X62310000Y-80000000D03*
%TO.P,R8,2,~_2*%
%TO.N,BTN_Switch1*%
X54690000Y-80000000D03*
%TD*%
%TO.P,R12,1,~_1*%
%TO.N,+3V3*%
X110940000Y-75750000D03*
%TO.P,R12,2,~_2*%
%TO.N,ENC2_A*%
X118560000Y-75750000D03*
%TD*%
%TO.P,R11,1,~_1*%
%TO.N,+3V3*%
X79130000Y-55250000D03*
%TO.P,R11,2,~_2*%
%TO.N,ENC1_SW*%
X86750000Y-55250000D03*
%TD*%
%TO.P,C10,1,~_1*%
%TO.N,+5V*%
X98250000Y-126000000D03*
%TO.P,C10,2,~_2*%
%TO.N,GND*%
X103250000Y-126000000D03*
%TD*%
%TO.P,C4,1,~_1*%
%TO.N,+5V*%
X137500000Y-103750000D03*
%TO.P,C4,2,~_2*%
%TO.N,GND*%
X137500000Y-98750000D03*
%TD*%
D16*
%TO.P,C1,1,~_1*%
%TO.N,+5V*%
X91750000Y-48000000D03*
D10*
%TO.P,C1,2,~_2*%
%TO.N,GND*%
X94250000Y-48000000D03*
%TD*%
%TO.P,C16,1,~_1*%
%TO.N,ENC2_A*%
X117250000Y-72250000D03*
%TO.P,C16,2,~_2*%
%TO.N,GND*%
X112250000Y-72250000D03*
%TD*%
%TO.P,R6,1,~_1*%
%TO.N,+3V3*%
X106630000Y-126000000D03*
%TO.P,R6,2,~_2*%
%TO.N,BTN_NAV2*%
X114250000Y-126000000D03*
%TD*%
%TO.P,R7,1,~_1*%
%TO.N,+3V3*%
X119500000Y-112940000D03*
%TO.P,R7,2,~_2*%
%TO.N,BTN_ADF1*%
X119500000Y-120560000D03*
%TD*%
%TO.P,R4,1,~_1*%
%TO.N,+3V3*%
X59380000Y-126500000D03*
%TO.P,R4,2,~_2*%
%TO.N,BTN_COM2*%
X67000000Y-126500000D03*
%TD*%
%TO.P,R13,1,~_1*%
%TO.N,+3V3*%
X110190000Y-67750000D03*
%TO.P,R13,2,~_2*%
%TO.N,ENC2_B*%
X117810000Y-67750000D03*
%TD*%
%TO.P,C15,1,~_1*%
%TO.N,ENC1_SW*%
X107750000Y-64500000D03*
%TO.P,C15,2,~_2*%
%TO.N,GND*%
X107750000Y-59500000D03*
%TD*%
%TO.P,C5,1,~_1*%
%TO.N,+3V3*%
X90000000Y-53750000D03*
%TO.P,C5,2,~_2*%
%TO.N,GND*%
X95000000Y-53750000D03*
%TD*%
%TO.P,C18,1,~_1*%
%TO.N,ENC2_SW*%
X137000000Y-58250000D03*
%TO.P,C18,2,~_2*%
%TO.N,GND*%
X137000000Y-53250000D03*
%TD*%
%TO.P,R2,1,~_1*%
%TO.N,U3_ISET*%
X66750000Y-47690000D03*
%TO.P,R2,2,~_2*%
%TO.N,+5V*%
X66750000Y-55310000D03*
%TD*%
%TO.P,R5,1,~_1*%
%TO.N,+3V3*%
X82690000Y-126500000D03*
%TO.P,R5,2,~_2*%
%TO.N,BTN_NAV1*%
X90310000Y-126500000D03*
%TD*%
%TO.P,R14,1,~_1*%
%TO.N,+3V3*%
X132250000Y-48500000D03*
%TO.P,R14,2,~_2*%
%TO.N,ENC2_SW*%
X132250000Y-56120000D03*
%TD*%
%TO.P,C8,1,~_1*%
%TO.N,+5V*%
X43250000Y-80000000D03*
%TO.P,C8,2,~_2*%
%TO.N,GND*%
X48250000Y-80000000D03*
%TD*%
%TO.P,C11,1,~_1*%
%TO.N,+5V*%
X23500000Y-126500000D03*
%TO.P,C11,2,~_2*%
%TO.N,GND*%
X28500000Y-126500000D03*
%TD*%
D15*
%TO.P,D4,1,VSS_1*%
%TO.N,GND*%
X104550000Y-119500000D03*
%TO.P,D4,2,DIN_2*%
%TO.N,LED_45*%
X104550000Y-121000000D03*
%TO.P,D4,3,VDD_3*%
%TO.N,+5V*%
X110000000Y-121000000D03*
%TO.P,D4,4,DOUT_4*%
%TO.N,LED_56*%
X110000000Y-119500000D03*
%TD*%
D10*
%TO.P,C9,1,~_1*%
%TO.N,+5V*%
X72750000Y-126500000D03*
%TO.P,C9,2,~_2*%
%TO.N,GND*%
X77750000Y-126500000D03*
%TD*%
%TO.P,C14,1,~_1*%
%TO.N,ENC1_B*%
X85750000Y-60250000D03*
%TO.P,C14,2,~_2*%
%TO.N,GND*%
X80750000Y-60250000D03*
%TD*%
D16*
%TO.P,C3,1,~_1*%
%TO.N,+5V*%
X26294888Y-55500000D03*
D10*
%TO.P,C3,2,~_2*%
%TO.N,GND*%
X28794888Y-55500000D03*
%TD*%
%TO.P,C2,1,~_1*%
%TO.N,+5V*%
X50750000Y-126500000D03*
%TO.P,C2,2,~_2*%
%TO.N,GND*%
X55750000Y-126500000D03*
%TD*%
D21*
%TO.N,+3V3*%
X74000000Y-80000000D03*
%TO.N,BTN_ADF1*%
X94500000Y-105500000D03*
%TO.N,BTN_NAV2*%
X95500000Y-104250000D03*
%TO.N,GND*%
X126600000Y-119600000D03*
X102750000Y-119500000D03*
X77350000Y-119650000D03*
X52100000Y-119650000D03*
%TO.N,LED_56*%
X112250000Y-119500000D03*
X125375000Y-120625000D03*
%TO.N,+5V*%
X122000000Y-92500000D03*
X70750000Y-51250000D03*
%TO.N,GND*%
X54500000Y-58250000D03*
X41800000Y-58450000D03*
%TO.N,U3_DIG4*%
X62250000Y-44250000D03*
%TO.N,BTN_COM1*%
X48375000Y-110875000D03*
%TO.N,BTN_COM2*%
X66250000Y-118250000D03*
%TO.N,+3V3*%
X100250000Y-131750000D03*
%TO.N,LED_DIN*%
X56500000Y-73250000D03*
X72000000Y-84500000D03*
%TO.N,BTN_COM1*%
X40875000Y-116125000D03*
X44250000Y-121000000D03*
%TO.N,GND*%
X28000000Y-119750000D03*
%TO.N,LED_12*%
X29750000Y-122750000D03*
X47750000Y-76750000D03*
%TO.N,ENC2_A*%
X105250000Y-85250000D03*
%TD*%
%TO.N,+3V3*%
D22*
X62310000Y-80000000D02*
X74000000Y-80000000D01*
%TO.N,+5V*%
X48025000Y-73250000D02*
X44044888Y-73250000D01*
X44044888Y-73250000D02*
X26294888Y-55500000D01*
%TO.N,BTN_Switch1*%
X55480000Y-63730000D02*
X58500000Y-66750000D01*
X53360000Y-63730000D02*
X55480000Y-63730000D01*
X58500000Y-66750000D02*
X58500000Y-76190000D01*
X58500000Y-76190000D02*
X54690000Y-80000000D01*
X54690000Y-80000000D02*
X55790000Y-78900000D01*
X55790000Y-78900000D02*
X94730000Y-78900000D01*
X94730000Y-78900000D02*
X96380000Y-80550000D01*
X96380000Y-80550000D02*
X96380000Y-81450000D01*
%TO.N,BTN_ADF1*%
X93840000Y-104840000D02*
X94500000Y-105500000D01*
X93840000Y-101450000D02*
X93840000Y-104840000D01*
%TO.N,BTN_NAV2*%
X95500000Y-104250000D02*
X96380000Y-103370000D01*
X96380000Y-103370000D02*
X96380000Y-101450000D01*
%TO.N,+5V*%
X136250000Y-107500000D02*
X136250000Y-112250000D01*
X135500000Y-106750000D02*
X136250000Y-107500000D01*
X129400000Y-101450000D02*
X129400000Y-102400000D01*
X133750000Y-106750000D02*
X135500000Y-106750000D01*
X129400000Y-102400000D02*
X133750000Y-106750000D01*
X136250000Y-112250000D02*
X135200000Y-113300000D01*
X135200000Y-113300000D02*
X135200000Y-114837588D01*
X135660000Y-114340000D02*
X135200000Y-114800000D01*
X135200000Y-114800000D02*
X135200000Y-120125000D01*
X135200000Y-120125000D02*
X134225000Y-121100000D01*
X137500000Y-103750000D02*
X131700000Y-103750000D01*
X131700000Y-103750000D02*
X129400000Y-101450000D01*
X135200000Y-120125000D02*
X135200000Y-114837588D01*
X137500000Y-112537588D02*
X137500000Y-103750000D01*
X135200000Y-114837588D02*
X137500000Y-112537588D01*
%TO.N,GND*%
X128775000Y-119600000D02*
X126600000Y-119600000D01*
X104550000Y-119500000D02*
X102750000Y-119500000D01*
%TO.N,LED_45*%
X92650000Y-119650000D02*
X94000000Y-121000000D01*
X84725000Y-119650000D02*
X92650000Y-119650000D01*
X94000000Y-121000000D02*
X104550000Y-121000000D01*
%TO.N,GND*%
X77350000Y-119650000D02*
X77250000Y-119750000D01*
X79275000Y-119650000D02*
X77350000Y-119650000D01*
%TO.N,LED_34*%
X59725000Y-119650000D02*
X67900000Y-119650000D01*
X69400000Y-121150000D02*
X79275000Y-121150000D01*
X67900000Y-119650000D02*
X69400000Y-121150000D01*
%TO.N,GND*%
X54275000Y-119650000D02*
X52100000Y-119650000D01*
%TO.N,LED_23*%
X35225000Y-119750000D02*
X44500000Y-119750000D01*
X44500000Y-119750000D02*
X45900000Y-121150000D01*
X45900000Y-121150000D02*
X54275000Y-121150000D01*
%TO.N,LED_56*%
X112250000Y-119500000D02*
X110000000Y-119500000D01*
X125375000Y-120625000D02*
X125250000Y-120500000D01*
X125850000Y-121100000D02*
X125375000Y-120625000D01*
X128775000Y-121100000D02*
X125850000Y-121100000D01*
%TO.N,+5V*%
X126860000Y-97360000D02*
X122000000Y-92500000D01*
X126860000Y-101450000D02*
X126860000Y-97360000D01*
X81250000Y-40810000D02*
X70780000Y-51280000D01*
X70750000Y-51250000D02*
X70780000Y-51280000D01*
%TO.N,GND*%
X54500000Y-55305000D02*
X54500000Y-58250000D01*
X41800000Y-55305000D02*
X41800000Y-58450000D01*
%TO.N,U3_DIG4*%
X59570000Y-41570000D02*
X62250000Y-44250000D01*
X58240000Y-41570000D02*
X59570000Y-41570000D01*
%TO.N,SPI_CLK*%
X102509784Y-70797500D02*
X108581814Y-70797500D01*
X108581814Y-70797500D02*
X114160000Y-76375686D01*
X92850000Y-47215256D02*
X92850000Y-61137716D01*
X92850000Y-61137716D02*
X102509784Y-70797500D01*
X114160000Y-76375686D02*
X114160000Y-81450000D01*
%TO.N,+5V*%
X81250000Y-36000000D02*
X81250000Y-40750000D01*
X91750000Y-48000000D02*
X88500000Y-48000000D01*
X88500000Y-48000000D02*
X81250000Y-40750000D01*
X70780000Y-51280000D02*
X66750000Y-55310000D01*
X81250000Y-40750000D02*
X81250000Y-40810000D01*
X46880000Y-47685000D02*
X50445000Y-51250000D01*
X62690000Y-51250000D02*
X66750000Y-55310000D01*
X50445000Y-51250000D02*
X62690000Y-51250000D01*
%TO.N,U3_SEG_D*%
X36720000Y-47685000D02*
X36720000Y-37690000D01*
X36720000Y-37690000D02*
X43000000Y-31410000D01*
%TO.N,U3_SEG_DP*%
X39260000Y-47685000D02*
X39260000Y-37690000D01*
X39260000Y-37690000D02*
X45540000Y-31410000D01*
%TO.N,U3_SEG_E*%
X41800000Y-47685000D02*
X41800000Y-37690000D01*
X41800000Y-37690000D02*
X48080000Y-31410000D01*
%TO.N,U3_SEG_C*%
X44340000Y-47685000D02*
X44340000Y-37690000D01*
X44340000Y-37690000D02*
X50620000Y-31410000D01*
%TO.N,+5V*%
X46880000Y-47685000D02*
X45780000Y-48785000D01*
X45780000Y-48785000D02*
X33009888Y-48785000D01*
X33009888Y-48785000D02*
X26294888Y-55500000D01*
%TO.N,U3_ISET*%
X49420000Y-47685000D02*
X51735000Y-50000000D01*
X51735000Y-50000000D02*
X64440000Y-50000000D01*
X64440000Y-50000000D02*
X66750000Y-47690000D01*
%TO.N,BTN_COM1*%
X48375000Y-110875000D02*
X48250000Y-111000000D01*
X62250000Y-97000000D02*
X48375000Y-110875000D01*
X100450000Y-97000000D02*
X62250000Y-97000000D01*
X104000000Y-100550000D02*
X100450000Y-97000000D01*
X104000000Y-101450000D02*
X104000000Y-100550000D01*
%TO.N,BTN_COM2*%
X101460000Y-101450000D02*
X101460000Y-100550000D01*
X101460000Y-100550000D02*
X99460000Y-98550000D01*
X59460000Y-104540000D02*
X59460000Y-110070000D01*
X99460000Y-98550000D02*
X65450000Y-98550000D01*
X65450000Y-98550000D02*
X59460000Y-104540000D01*
%TO.N,BTN_NAV1*%
X98920000Y-101450000D02*
X98920000Y-102350000D01*
X98920000Y-102350000D02*
X91170000Y-110100000D01*
X91170000Y-110100000D02*
X84550000Y-110100000D01*
%TO.N,BTN_COM2*%
X66250000Y-116860000D02*
X66250000Y-118250000D01*
X59460000Y-110070000D02*
X66250000Y-116860000D01*
%TO.N,+5V*%
X23500000Y-131250000D02*
X25500000Y-133250000D01*
X25500000Y-133250000D02*
X44000000Y-133250000D01*
X23500000Y-126500000D02*
X23500000Y-131250000D01*
X44000000Y-133250000D02*
X50750000Y-126500000D01*
X50750000Y-126500000D02*
X53750000Y-129500000D01*
X53750000Y-129500000D02*
X69750000Y-129500000D01*
X69750000Y-129500000D02*
X72750000Y-126500000D01*
X72750000Y-126500000D02*
X76000000Y-129750000D01*
X76000000Y-129750000D02*
X93000000Y-129750000D01*
X93000000Y-129750000D02*
X96750000Y-126000000D01*
X96750000Y-126000000D02*
X98250000Y-126000000D01*
X59725000Y-122975000D02*
X59750000Y-123000000D01*
X59725000Y-121150000D02*
X59725000Y-122975000D01*
X59750000Y-123000000D02*
X54250000Y-123000000D01*
X54250000Y-123000000D02*
X50750000Y-126500000D01*
%TO.N,+3V3*%
X119500000Y-112940000D02*
X121780000Y-110660000D01*
X121780000Y-110660000D02*
X121780000Y-101450000D01*
X100250000Y-131750000D02*
X100880000Y-131750000D01*
X100880000Y-131750000D02*
X106630000Y-126000000D01*
%TO.N,BTN_ADF1*%
X119500000Y-120560000D02*
X122782412Y-120560000D01*
X133302412Y-110040000D02*
X134110000Y-110040000D01*
X122782412Y-120560000D02*
X133302412Y-110040000D01*
%TO.N,+3V3*%
X106630000Y-126000000D02*
X107730000Y-127100000D01*
X114705635Y-127100000D02*
X118400000Y-123405635D01*
X107730000Y-127100000D02*
X114705635Y-127100000D01*
X118400000Y-123405635D02*
X118400000Y-114040000D01*
X118400000Y-114040000D02*
X119500000Y-112940000D01*
%TO.N,BTN_NAV2*%
X114250000Y-126000000D02*
X114250000Y-114620000D01*
X114250000Y-114620000D02*
X109690000Y-110060000D01*
%TO.N,+5V*%
X123250000Y-122750000D02*
X134250000Y-122750000D01*
X120000000Y-126000000D02*
X123250000Y-122750000D01*
X134250000Y-122750000D02*
X134225000Y-122725000D01*
X134225000Y-122725000D02*
X134225000Y-121100000D01*
X101250000Y-123000000D02*
X110250000Y-123000000D01*
X98250000Y-126000000D02*
X101250000Y-123000000D01*
X110000000Y-122250000D02*
X110000000Y-121000000D01*
X110250000Y-123000000D02*
X110250000Y-122500000D01*
X110250000Y-122500000D02*
X110000000Y-122250000D01*
X84725000Y-122725000D02*
X84750000Y-122750000D01*
X84725000Y-121150000D02*
X84725000Y-122725000D01*
X84750000Y-122750000D02*
X76500000Y-122750000D01*
X76500000Y-122750000D02*
X72750000Y-126500000D01*
%TO.N,LED_DIN*%
X56500000Y-73250000D02*
X53475000Y-73250000D01*
X96770000Y-84500000D02*
X72000000Y-84500000D01*
X98920000Y-82350000D02*
X96770000Y-84500000D01*
X98920000Y-81450000D02*
X98920000Y-82350000D01*
%TO.N,BTN_COM1*%
X40875000Y-116125000D02*
X40875000Y-115935000D01*
X40875000Y-115935000D02*
X35050000Y-110110000D01*
X45310000Y-122060000D02*
X44250000Y-121000000D01*
X45310000Y-126750000D02*
X45310000Y-122060000D01*
%TO.N,+5V*%
X35225000Y-125225000D02*
X35250000Y-125250000D01*
X35225000Y-121250000D02*
X35225000Y-125225000D01*
X26500000Y-126500000D02*
X23500000Y-126500000D01*
X35250000Y-125250000D02*
X27750000Y-125250000D01*
X27750000Y-125250000D02*
X26500000Y-126500000D01*
%TO.N,GND*%
X29775000Y-119750000D02*
X28000000Y-119750000D01*
%TO.N,LED_12*%
X29750000Y-122750000D02*
X29750000Y-121275000D01*
X29750000Y-121275000D02*
X29775000Y-121250000D01*
X48025000Y-74750000D02*
X48025000Y-76475000D01*
X48025000Y-76475000D02*
X47750000Y-76750000D01*
%TO.N,+5V*%
X48075000Y-73250000D02*
X43250000Y-78075000D01*
X43250000Y-78075000D02*
X43250000Y-80000000D01*
%TO.N,SW3_A*%
X111620000Y-81450000D02*
X111620000Y-82350000D01*
X102015000Y-91955000D02*
X47500000Y-91955000D01*
X111620000Y-82350000D02*
X102015000Y-91955000D01*
%TO.N,SW3_B*%
X93840000Y-81450000D02*
X52800000Y-81450000D01*
X52800000Y-81450000D02*
X42420000Y-91830000D01*
X42420000Y-91830000D02*
X42420000Y-91955000D01*
%TO.N,ENC2_A*%
X104000000Y-81450000D02*
X104000000Y-84000000D01*
X104000000Y-84000000D02*
X105250000Y-85250000D01*
%TO.N,+3V3*%
X121780000Y-101450000D02*
X121780000Y-100550000D01*
X121780000Y-100550000D02*
X112750000Y-91520000D01*
X112750000Y-91520000D02*
X112750000Y-77560000D01*
X112750000Y-77560000D02*
X110940000Y-75750000D01*
%TO.N,ENC1_SW*%
X119240000Y-81450000D02*
X119240000Y-80890000D01*
X119240000Y-80890000D02*
X107097500Y-68747500D01*
X107097500Y-68747500D02*
X103317500Y-68747500D01*
%TO.N,ENC1_B*%
X106540000Y-81450000D02*
X106540000Y-80550000D01*
X106540000Y-80550000D02*
X102237500Y-76247500D01*
X102237500Y-76247500D02*
X100257500Y-76247500D01*
%TD*%
M02*
