M48
; DRILL file KiCad 10.0.5 date 2026-08-02T16:44:22
; FORMAT={-:-/ absolute / metric / decimal}
; #@! TF.CreationDate,2026-08-02T16:44:22+02:00
; #@! TF.GenerationSoftware,Kicad,Pcbnew,10.0.5
; #@! TF.FileFunction,Plated,1,2,PTH
FMAT,2
METRIC
; #@! TA.AperFunction,Plated,PTH,ViaDrill
T1C0.300
; #@! TA.AperFunction,Plated,PTH,ViaDrill
T2C0.400
; #@! TA.AperFunction,Plated,PTH,ComponentDrill
T3C0.600
; #@! TA.AperFunction,Plated,PTH,ComponentDrill
T4C0.800
; #@! TA.AperFunction,Plated,PTH,ComponentDrill
T5C1.100
; #@! TA.AperFunction,Plated,PTH,ComponentDrill
T6C1.200
%
G90
G05
T1
X175.9Y-93.35
X180.85Y-86.45
T2
X130.9Y-81.2
X130.912Y-102.912
X133.2Y-111.55
X133.4Y-96.1
X139.8Y-79.3
X146.7Y-71.65
X156.75Y-93.55
X161.3Y-82.45
X161.65Y-106.65
X178.1Y-97.15
X193.55Y-93.8
X194.25Y-106.6
X194.85Y-84.8
X224.35Y-98.15
X227.25Y-84.6
T4
X128.4Y-106.75
X128.4Y-111.75
X154.425Y-113.45
X154.5Y-91.4
X159.425Y-113.45
X159.5Y-91.4
X163.74Y-91.2
X168.325Y-98.64
X168.325Y-106.26
X168.575Y-76.79
X168.575Y-84.41
X171.36Y-91.2
X177.85Y-71.59
X177.85Y-79.21
X178.45Y-106.0
X178.45Y-111.0
X186.825Y-113.325
X187.0Y-91.525
X191.825Y-113.325
X192.0Y-91.525
X200.675Y-98.715
X200.675Y-106.335
X200.85Y-76.765
X200.85Y-84.385
X219.35Y-113.625
X219.875Y-91.475
X224.35Y-113.625
X224.875Y-91.475
X233.975Y-98.715
X233.975Y-106.335
X234.1Y-76.79
X234.1Y-84.41
T5
X174.75Y-103.35
X174.75Y-110.97
T6
X156.8Y-74.65
X156.8Y-96.65
X161.8Y-76.75
X161.8Y-98.75
X189.3Y-74.65
X189.3Y-96.65
X194.3Y-76.75
X194.3Y-98.75
X221.8Y-74.65
X221.825Y-96.65
X226.8Y-76.75
X226.825Y-98.75
T3
G00X178.34Y-86.28
M15
G01X177.14Y-86.28
M16
G05
G00X178.34Y-94.92
M15
G01X177.14Y-94.92
M16
G05
G00X178.1Y-87.6
M15
G01X177.9Y-87.6
M16
G05
G00X178.1Y-88.8
M15
G01X177.9Y-88.8
M16
G05
G00X178.1Y-90.0
M15
G01X177.9Y-90.0
M16
G05
G00X178.1Y-91.2
M15
G01X177.9Y-91.2
M16
G05
G00X178.1Y-92.4
M15
G01X177.9Y-92.4
M16
G05
G00X178.1Y-93.6
M15
G01X177.9Y-93.6
M16
G05
M30
