%TF.GenerationSoftware,KiCad,Pcbnew,10.0.5*%
%TF.CreationDate,2026-08-02T16:44:24+02:00*%
%TF.ProjectId,Radio Ident,52616469-6f20-4496-9465-6e742e6b6963,rev?*%
%TF.SameCoordinates,Original*%
%TF.FileFunction,Copper,L2,Bot*%
%TF.FilePolarity,Positive*%
%FSLAX46Y46*%
G04 Gerber Fmt 4.6, Leading zero omitted, Abs format (unit mm)*
G04 Created by KiCad (PCBNEW 10.0.5) date 2026-08-02 16:44:24*
%MOMM*%
%LPD*%
G01*
G04 APERTURE LIST*
G04 Aperture macros list*
%AMRoundRect*
0 Rectangle with rounded corners*
0 $1 Rounding radius*
0 $2 $3 $4 $5 $6 $7 $8 $9 X,Y pos of 4 corners*
0 Add a 4 corners polygon primitive as box body*
4,1,4,$2,$3,$4,$5,$6,$7,$8,$9,$2,$3,0*
0 Add four circle primitives for the rounded corners*
1,1,$1+$1,$2,$3*
1,1,$1+$1,$4,$5*
1,1,$1+$1,$6,$7*
1,1,$1+$1,$8,$9*
0 Add four rect primitives between the rounded corners*
20,1,$1+$1,$2,$3,$4,$5,0*
20,1,$1+$1,$4,$5,$6,$7,0*
20,1,$1+$1,$6,$7,$8,$9,0*
20,1,$1+$1,$8,$9,$2,$3,0*%
G04 Aperture macros list end*
%TA.AperFunction,NonConductor*%
%ADD10C,3.009467*%
%TD*%
%TA.AperFunction,ComponentPad*%
%ADD11C,2.200000*%
%TD*%
%TA.AperFunction,ComponentPad*%
%ADD12C,1.600000*%
%TD*%
%TA.AperFunction,SMDPad,CuDef*%
%ADD13RoundRect,0.205000X0.470000X0.205000X-0.470000X0.205000X-0.470000X-0.205000X0.470000X-0.205000X0*%
%TD*%
%TA.AperFunction,ComponentPad*%
%ADD14RoundRect,0.249999X0.850001X-0.850001X0.850001X0.850001X-0.850001X0.850001X-0.850001X-0.850001X0*%
%TD*%
%TA.AperFunction,ComponentPad*%
%ADD15O,2.200000X1.000000*%
%TD*%
%TA.AperFunction,ComponentPad*%
%ADD16O,1.300000X0.800000*%
%TD*%
%TA.AperFunction,SMDPad,CuDef*%
%ADD17RoundRect,0.500000X-0.500000X0.875000X-0.500000X-0.875000X0.500000X-0.875000X0.500000X0.875000X0*%
%TD*%
%TA.AperFunction,SMDPad,CuDef*%
%ADD18C,1.700000*%
%TD*%
%TA.AperFunction,SMDPad,CuDef*%
%ADD19RoundRect,0.275000X0.275000X-0.975000X0.275000X0.975000X-0.275000X0.975000X-0.275000X-0.975000X0*%
%TD*%
%TA.AperFunction,ViaPad*%
%ADD20C,0.800000*%
%TD*%
%TA.AperFunction,ViaPad*%
%ADD21C,0.600000*%
%TD*%
%TA.AperFunction,Conductor*%
%ADD22C,0.200000*%
%TD*%
%TA.AperFunction,Conductor*%
%ADD23C,0.800000*%
%TD*%
%TA.AperFunction,Conductor*%
%ADD24C,1.200000*%
%TD*%
%TA.AperFunction,Conductor*%
%ADD25C,0.600000*%
%TD*%
G04 APERTURE END LIST*
D10*
X137795266Y-76600000D02*
G75*
G02*
X134785800Y-76600000I-1504733J0D01*
G01*
X134785800Y-76600000D02*
G75*
G02*
X137795266Y-76600000I1504733J0D01*
G01*
X137795266Y-106600000D02*
G75*
G02*
X134785800Y-106600000I-1504733J0D01*
G01*
X134785800Y-106600000D02*
G75*
G02*
X137795266Y-106600000I1504733J0D01*
G01*
X243804733Y-106590533D02*
G75*
G02*
X240795267Y-106590533I-1504733J0D01*
G01*
X240795267Y-106590533D02*
G75*
G02*
X243804733Y-106590533I1504733J0D01*
G01*
X243854733Y-76590533D02*
G75*
G02*
X240845267Y-76590533I-1504733J0D01*
G01*
X240845267Y-76590533D02*
G75*
G02*
X243854733Y-76590533I1504733J0D01*
G01*
D11*
%TO.P,SW1,1,1_1*%
%TO.N,GND*%
X156800000Y-74650000D03*
%TO.P,SW1,2,2_2*%
%TO.N,SW1_COM*%
X161800000Y-76750000D03*
%TD*%
%TO.P,SW4,1,1_1*%
%TO.N,GND*%
X189300000Y-96650000D03*
%TO.P,SW4,2,2_2*%
%TO.N,SW4_COM*%
X194300000Y-98750000D03*
%TD*%
%TO.P,SW2,1,1_1*%
%TO.N,GND*%
X156800000Y-96650000D03*
%TO.P,SW2,2,2_2*%
%TO.N,SW2_COM*%
X161800000Y-98750000D03*
%TD*%
%TO.P,SW3,1,1_1*%
%TO.N,GND*%
X189300000Y-74650000D03*
%TO.P,SW3,2,2_2*%
%TO.N,SW3_COM*%
X194300000Y-76750000D03*
%TD*%
%TO.P,SW5,1,1_1*%
%TO.N,GND*%
X221800000Y-74650000D03*
%TO.P,SW5,2,2_2*%
%TO.N,SW5_COM*%
X226800000Y-76750000D03*
%TD*%
%TO.P,SW6,1,1_1*%
%TO.N,GND*%
X221825000Y-96650000D03*
%TO.P,SW6,2,2_2*%
%TO.N,SW6_COM*%
X226825000Y-98750000D03*
%TD*%
D12*
%TO.P,R7,1*%
%TO.N,GND*%
X163740000Y-91200000D03*
%TO.P,R7,2*%
%TO.N,Net-(U3-CC1)*%
X171360000Y-91200000D03*
%TD*%
D13*
%TO.P,D1,1,VSS_1*%
%TO.N,GND*%
X159550000Y-86225000D03*
%TO.P,D1,2,DIN_2*%
%TO.N,DIN*%
X159550000Y-84725000D03*
%TO.P,D1,3,VDD_3*%
%TO.N,+5V*%
X154100000Y-84725000D03*
%TO.P,D1,4,DOUT_4*%
%TO.N,Net-(D1-DOUT)*%
X154100000Y-86225000D03*
%TD*%
%TO.P,D6,1,VSS_1*%
%TO.N,GND*%
X224575000Y-108125000D03*
%TO.P,D6,2,DIN_2*%
%TO.N,Net-(D5-DOUT)*%
X224575000Y-106625000D03*
%TO.P,D6,3,VDD_3*%
%TO.N,+5V*%
X219125000Y-106625000D03*
%TO.P,D6,4,DOUT_4*%
%TO.N,unconnected-(D6-DOUT-Pad4)*%
X219125000Y-108125000D03*
%TD*%
D12*
%TO.P,C1,1,~_1*%
%TO.N,+5V*%
X154500000Y-91400000D03*
%TO.P,C1,2,~_2*%
%TO.N,GND*%
X159500000Y-91400000D03*
%TD*%
%TO.P,C2,1,~_1*%
%TO.N,+5V*%
X154425000Y-113450000D03*
%TO.P,C2,2,~_2*%
%TO.N,GND*%
X159425000Y-113450000D03*
%TD*%
%TO.P,C4,1,~_1*%
%TO.N,+5V*%
X186825000Y-113325000D03*
%TO.P,C4,2,~_2*%
%TO.N,GND*%
X191825000Y-113325000D03*
%TD*%
%TO.P,R2,1,~_1*%
%TO.N,+3.3V*%
X168325000Y-106260000D03*
%TO.P,R2,2,~_2*%
%TO.N,SW2_COM*%
X168325000Y-98640000D03*
%TD*%
%TO.P,R6,1,~_1*%
%TO.N,+3.3V*%
X233975000Y-106335000D03*
%TO.P,R6,2,~_2*%
%TO.N,SW6_COM*%
X233975000Y-98715000D03*
%TD*%
D13*
%TO.P,D2,1,VSS_1*%
%TO.N,GND*%
X159600000Y-108150000D03*
%TO.P,D2,2,DIN_2*%
%TO.N,Net-(D1-DOUT)*%
X159600000Y-106650000D03*
%TO.P,D2,3,VDD_3*%
%TO.N,+5V*%
X154150000Y-106650000D03*
%TO.P,D2,4,DOUT_4*%
%TO.N,Net-(D2-DOUT)*%
X154150000Y-108150000D03*
%TD*%
D14*
%TO.P,D7,1,K_1*%
%TO.N,+5V*%
X174750000Y-110970000D03*
D11*
%TO.P,D7,2,A_2*%
%TO.N,Net-(D7-A)*%
X174750000Y-103350000D03*
%TD*%
D12*
%TO.P,R5,1,~_1*%
%TO.N,+3.3V*%
X234100000Y-84410000D03*
%TO.P,R5,2,~_2*%
%TO.N,SW5_COM*%
X234100000Y-76790000D03*
%TD*%
%TO.P,C5,1,~_1*%
%TO.N,+5V*%
X219875000Y-91475000D03*
%TO.P,C5,2,~_2*%
%TO.N,GND*%
X224875000Y-91475000D03*
%TD*%
D15*
%TO.P,U3,7,EP_7*%
%TO.N,GND*%
X177740000Y-86280000D03*
X177740000Y-94920000D03*
D16*
%TO.P,U3,A5,CC1_A5*%
%TO.N,Net-(U3-CC1)*%
X178000000Y-90000000D03*
%TO.P,U3,A9,VBUS_A9*%
%TO.N,Net-(D7-A)*%
X178000000Y-92400000D03*
%TO.P,U3,A12,GND_A12*%
%TO.N,GND*%
X178000000Y-93600000D03*
%TO.P,U3,B5,CC2_B5*%
%TO.N,Net-(U3-CC2)*%
X178000000Y-91200000D03*
%TO.P,U3,B9,VBUS_B9*%
%TO.N,Net-(D7-A)*%
X178000000Y-88800000D03*
%TO.P,U3,B12,GND_B12*%
%TO.N,GND*%
X178000000Y-87600000D03*
%TD*%
D13*
%TO.P,D3,1,VSS_1*%
%TO.N,GND*%
X192050000Y-86300000D03*
%TO.P,D3,2,DIN_2*%
%TO.N,Net-(D2-DOUT)*%
X192050000Y-84800000D03*
%TO.P,D3,3,VDD_3*%
%TO.N,+5V*%
X186600000Y-84800000D03*
%TO.P,D3,4,DOUT_4*%
%TO.N,Net-(D3-DOUT)*%
X186600000Y-86300000D03*
%TD*%
D12*
%TO.P,C6,1,~_1*%
%TO.N,+5V*%
X219350000Y-113625000D03*
%TO.P,C6,2,~_2*%
%TO.N,GND*%
X224350000Y-113625000D03*
%TD*%
%TO.P,C8,1,~_1*%
%TO.N,+5V*%
X178450000Y-111000000D03*
%TO.P,C8,2,~_2*%
%TO.N,GND*%
X178450000Y-106000000D03*
%TD*%
D13*
%TO.P,D5,1,VSS_1*%
%TO.N,GND*%
X224600000Y-86175000D03*
%TO.P,D5,2,DIN_2*%
%TO.N,Net-(D4-DOUT)*%
X224600000Y-84675000D03*
%TO.P,D5,3,VDD_3*%
%TO.N,+5V*%
X219150000Y-84675000D03*
%TO.P,D5,4,DOUT_4*%
%TO.N,Net-(D5-DOUT)*%
X219150000Y-86175000D03*
%TD*%
%TO.P,D4,1,VSS_1*%
%TO.N,GND*%
X192050000Y-108125000D03*
%TO.P,D4,2,DIN_2*%
%TO.N,Net-(D3-DOUT)*%
X192050000Y-106625000D03*
%TO.P,D4,3,VDD_3*%
%TO.N,+5V*%
X186600000Y-106625000D03*
%TO.P,D4,4,DOUT_4*%
%TO.N,Net-(D4-DOUT)*%
X186600000Y-108125000D03*
%TD*%
D12*
%TO.P,R3,1,~_1*%
%TO.N,+3.3V*%
X200850000Y-84385000D03*
%TO.P,R3,2,~_2*%
%TO.N,SW3_COM*%
X200850000Y-76765000D03*
%TD*%
%TO.P,C3,1,~_1*%
%TO.N,+5V*%
X187000000Y-91525000D03*
%TO.P,C3,2,~_2*%
%TO.N,GND*%
X192000000Y-91525000D03*
%TD*%
%TO.P,R4,1,~_1*%
%TO.N,+3.3V*%
X200675000Y-106335000D03*
%TO.P,R4,2,~_2*%
%TO.N,SW4_COM*%
X200675000Y-98715000D03*
%TD*%
D17*
%TO.P,U1,1,D0_1*%
%TO.N,DIN*%
X128372000Y-83740000D03*
%TO.P,U1,2,D1_2*%
%TO.N,SW1_COM*%
X130912000Y-83740000D03*
%TO.P,U1,3,D2_3*%
%TO.N,SW2_COM*%
X133452000Y-83740000D03*
%TO.P,U1,4,D3_4*%
%TO.N,SW3_COM*%
X135992000Y-83740000D03*
%TO.P,U1,5,D4_5*%
%TO.N,SW4_COM*%
X138532000Y-83740000D03*
%TO.P,U1,6,D5_6*%
%TO.N,SW5_COM*%
X141072000Y-83740000D03*
%TO.P,U1,7,D6_7*%
%TO.N,SW6_COM*%
X143612000Y-83740000D03*
%TO.P,U1,8,D7_8*%
%TO.N,unconnected-(U1-D7-Pad8)*%
X143612000Y-99905000D03*
%TO.P,U1,9,D8_9*%
%TO.N,unconnected-(U1-D8-Pad9)*%
X141072000Y-99905000D03*
%TO.P,U1,10,D9/BOOT_10*%
%TO.N,unconnected-(U1-D9{slash}BOOT-Pad10)*%
X138532000Y-99905000D03*
%TO.P,U1,11,D10_11*%
%TO.N,unconnected-(U1-D10-Pad11)*%
X135992000Y-99905000D03*
%TO.P,U1,12,3V3_OUT_12*%
%TO.N,+3.3V*%
X133452000Y-99905000D03*
%TO.P,U1,13,GND_13*%
%TO.N,GND*%
X130912000Y-99905000D03*
%TO.P,U1,14,VBUS_14*%
%TO.N,+5V*%
X128372000Y-99905000D03*
D18*
%TO.P,U1,15,D3/MTDI_15*%
%TO.N,unconnected-(U1-D3{slash}MTDI-Pad15)*%
X127360000Y-90525000D03*
%TO.P,U1,16,D5/MTDO_16*%
%TO.N,unconnected-(U1-D5{slash}MTDO-Pad16)*%
X127360000Y-93065000D03*
%TO.P,U1,17,EN_17*%
%TO.N,unconnected-(U1-EN-Pad17)*%
X129900000Y-90525000D03*
%TO.P,U1,18,GND_18*%
%TO.N,unconnected-(U1-GND-Pad18)*%
X129900000Y-93065000D03*
%TO.P,U1,19,D2/MTMS_19*%
%TO.N,unconnected-(U1-D2{slash}MTMS-Pad19)*%
X132440000Y-90525000D03*
%TO.P,U1,20,D4/MTCK_20*%
%TO.N,unconnected-(U1-D4{slash}MTCK-Pad20)*%
X132440000Y-93065000D03*
D19*
%TO.P,U1,21,VBAT_21*%
%TO.N,unconnected-(U1-VBAT-Pad21)*%
X135610000Y-87350000D03*
%TO.P,U1,22,GND_22*%
%TO.N,unconnected-(U1-GND-Pad22)*%
X133705000Y-87350000D03*
%TD*%
D12*
%TO.P,C7,1,~_1*%
%TO.N,+5V*%
X128400000Y-106750000D03*
%TO.P,C7,2,~_2*%
%TO.N,GND*%
X128400000Y-111750000D03*
%TD*%
%TO.P,R1,1,~_1*%
%TO.N,+3.3V*%
X168575000Y-84410000D03*
%TO.P,R1,2,~_2*%
%TO.N,SW1_COM*%
X168575000Y-76790000D03*
%TD*%
%TO.P,R9,1*%
%TO.N,Net-(U3-CC2)*%
X177850000Y-79210000D03*
%TO.P,R9,2*%
%TO.N,GND*%
X177850000Y-71590000D03*
%TD*%
D20*
%TO.N,GND*%
X130912000Y-102912000D03*
%TO.N,SW1_COM*%
X130900000Y-81200000D03*
X139800000Y-79300000D03*
%TO.N,DIN*%
X161300000Y-82450000D03*
X146700000Y-71650000D03*
%TO.N,+5V*%
X133200000Y-111550000D03*
%TO.N,Net-(D1-DOUT)*%
X156750000Y-93550000D03*
X161650000Y-106650000D03*
%TO.N,+3.3V*%
X133400000Y-96100000D03*
%TO.N,Net-(D2-DOUT)*%
X178100000Y-97150000D03*
X194850000Y-84800000D03*
D21*
%TO.N,Net-(D7-A)*%
X175900000Y-93350000D03*
%TO.N,Net-(U3-CC2)*%
X180850000Y-86450000D03*
D20*
%TO.N,Net-(D3-DOUT)*%
X194250000Y-106600000D03*
X193550000Y-93800000D03*
%TO.N,Net-(D4-DOUT)*%
X227250000Y-84600000D03*
X224350000Y-98150000D03*
%TD*%
%TO.N,Net-(U3-CC2)*%
D22*
X178560000Y-84160000D02*
X178560000Y-79920000D01*
X180850000Y-86450000D02*
X178560000Y-84160000D01*
X178560000Y-79920000D02*
X177850000Y-79210000D01*
%TO.N,Net-(D2-DOUT)*%
X178100000Y-102800000D02*
X178100000Y-97150000D01*
X168720101Y-115250000D02*
X171900000Y-112070101D01*
X171900000Y-112070101D02*
X171900000Y-109000000D01*
X157100000Y-115250000D02*
X168720101Y-115250000D01*
X156650000Y-114800000D02*
X157100000Y-115250000D01*
X156650000Y-111950000D02*
X156650000Y-114800000D01*
X154150000Y-109450000D02*
X156650000Y-111950000D01*
X171900000Y-109000000D02*
X178100000Y-102800000D01*
X154150000Y-108150000D02*
X154150000Y-109450000D01*
%TO.N,GND*%
D23*
X159600000Y-108150000D02*
X159600000Y-113275000D01*
X159600000Y-113275000D02*
X159425000Y-113450000D01*
X193225000Y-109300000D02*
X193700000Y-109300000D01*
X192050000Y-108125000D02*
X193225000Y-109300000D01*
X193200000Y-111700000D02*
X193200000Y-111950000D01*
X192600000Y-89700000D02*
X192000000Y-90300000D01*
X224600000Y-91200000D02*
X224875000Y-91475000D01*
X224600000Y-86175000D02*
X224600000Y-91200000D01*
X193200000Y-111950000D02*
X191825000Y-113325000D01*
D24*
X130912000Y-99905000D02*
X130912000Y-102912000D01*
D23*
X193700000Y-109300000D02*
X193700000Y-111200000D01*
X192050000Y-86300000D02*
X192600000Y-86850000D01*
X159550000Y-91350000D02*
X159500000Y-91400000D01*
X224575000Y-108125000D02*
X224575000Y-113400000D01*
X224575000Y-113400000D02*
X224350000Y-113625000D01*
X192000000Y-90300000D02*
X192000000Y-91525000D01*
X159550000Y-86225000D02*
X159550000Y-91350000D01*
X193700000Y-111200000D02*
X193200000Y-111700000D01*
X192600000Y-86850000D02*
X192600000Y-89700000D01*
%TO.N,SW1_COM*%
D22*
X142350000Y-76750000D02*
X139800000Y-79300000D01*
X161800000Y-76750000D02*
X142350000Y-76750000D01*
X130912000Y-83740000D02*
X130912000Y-81088000D01*
%TO.N,SW4_COM*%
X191150000Y-95600000D02*
X191134314Y-95600000D01*
X157379899Y-95250000D02*
X156220101Y-95250000D01*
X190584314Y-95050000D02*
X187715686Y-95050000D01*
X155770101Y-95700000D02*
X148050000Y-95700000D01*
X156220101Y-95250000D02*
X155770101Y-95700000D01*
X194300000Y-98750000D02*
X191150000Y-95600000D01*
X173650000Y-95350000D02*
X157479898Y-95350000D01*
X180400000Y-95350000D02*
X179300000Y-96450000D01*
X148050000Y-95700000D02*
X138532000Y-86182000D01*
X138532000Y-86182000D02*
X138532000Y-83740000D01*
X187415685Y-95350000D02*
X180400000Y-95350000D01*
X179300000Y-96450000D02*
X174750000Y-96450000D01*
X191134314Y-95600000D02*
X190584314Y-95050000D01*
X174750000Y-96450000D02*
X173650000Y-95350000D01*
X187715686Y-95050000D02*
X187415685Y-95350000D01*
X157479898Y-95350000D02*
X157379899Y-95250000D01*
%TO.N,SW2_COM*%
X131900000Y-88500000D02*
X131900000Y-86500000D01*
X133200000Y-89100000D02*
X132500000Y-89100000D01*
X132500000Y-89100000D02*
X131900000Y-88500000D01*
X133500000Y-89400000D02*
X133200000Y-89100000D01*
X136630792Y-89400000D02*
X133500000Y-89400000D01*
X161800000Y-98750000D02*
X145980792Y-98750000D01*
X133452000Y-84948000D02*
X133452000Y-83740000D01*
X145980792Y-98750000D02*
X136630792Y-89400000D01*
X131900000Y-86500000D02*
X133452000Y-84948000D01*
%TO.N,SW3_COM*%
X190400000Y-72850000D02*
X145250000Y-72850000D01*
X135992000Y-82108000D02*
X135992000Y-83740000D01*
X145250000Y-72850000D02*
X135992000Y-82108000D01*
X194300000Y-76750000D02*
X190400000Y-72850000D01*
%TO.N,SW5_COM*%
X200900000Y-78900000D02*
X193000000Y-78900000D01*
X144872000Y-77500000D02*
X141072000Y-81300000D01*
X191300000Y-77200000D02*
X191300000Y-77000000D01*
X179700000Y-74300000D02*
X174579365Y-74300000D01*
X193000000Y-78900000D02*
X191300000Y-77200000D01*
X204850000Y-76750000D02*
X203400000Y-78200000D01*
X201600000Y-79600000D02*
X200900000Y-78900000D01*
X159300000Y-77500000D02*
X144872000Y-77500000D01*
X203400000Y-78200000D02*
X203000000Y-78200000D01*
X174579365Y-74300000D02*
X171100000Y-77779365D01*
X226800000Y-76750000D02*
X204850000Y-76750000D01*
X182400000Y-77000000D02*
X179700000Y-74300000D01*
X203000000Y-78200000D02*
X201600000Y-79600000D01*
X171100000Y-77779365D02*
X171100000Y-79400000D01*
X161200000Y-79400000D02*
X159300000Y-77500000D01*
X191300000Y-77000000D02*
X182400000Y-77000000D01*
X171100000Y-79400000D02*
X161200000Y-79400000D01*
X141072000Y-81300000D02*
X141072000Y-83740000D01*
%TO.N,SW6_COM*%
X180634315Y-94550000D02*
X180234315Y-94950000D01*
X143612000Y-87612000D02*
X151200000Y-95200000D01*
X156054415Y-94850000D02*
X157545584Y-94850000D01*
X155704415Y-95200000D02*
X156054415Y-94850000D01*
X175450000Y-96050000D02*
X179134315Y-96050000D01*
X157645584Y-94950000D02*
X174350000Y-94950000D01*
X223275000Y-95200000D02*
X191300000Y-95200000D01*
X190750000Y-94650000D02*
X187550000Y-94650000D01*
X187450000Y-94550000D02*
X180634315Y-94550000D01*
X179134315Y-96050000D02*
X180234315Y-94950000D01*
X187550000Y-94650000D02*
X187450000Y-94550000D01*
X157545584Y-94850000D02*
X157645584Y-94950000D01*
X191300000Y-95200000D02*
X190750000Y-94650000D01*
X143612000Y-83740000D02*
X143612000Y-87612000D01*
X226825000Y-98750000D02*
X223275000Y-95200000D01*
X151200000Y-95200000D02*
X155704415Y-95200000D01*
X174350000Y-94950000D02*
X175450000Y-96050000D01*
%TO.N,Net-(U3-CC1)*%
X176200000Y-91200000D02*
X177400000Y-90000000D01*
X171360000Y-91200000D02*
X176200000Y-91200000D01*
X177400000Y-90000000D02*
X178000000Y-90000000D01*
%TO.N,DIN*%
X129850000Y-71650000D02*
X128372000Y-73128000D01*
X159550000Y-84725000D02*
X161300000Y-82975000D01*
X146700000Y-71650000D02*
X129850000Y-71650000D01*
X128372000Y-73128000D02*
X128372000Y-83740000D01*
X161300000Y-82975000D02*
X161300000Y-82450000D01*
%TO.N,+5V*%
D25*
X217100000Y-88700000D02*
X219875000Y-91475000D01*
X186212500Y-90737500D02*
X187000000Y-91525000D01*
D24*
X133200000Y-111550000D02*
X133200000Y-111500000D01*
D25*
X186600000Y-106625000D02*
X186422300Y-106625000D01*
X152100000Y-89000000D02*
X154500000Y-91400000D01*
X219125000Y-106625000D02*
X217775000Y-106625000D01*
X185700000Y-84800000D02*
X184700000Y-85800000D01*
D24*
X128372000Y-106672000D02*
X128372000Y-99905000D01*
D25*
X217400000Y-111675000D02*
X219350000Y-113625000D01*
X217100000Y-85600000D02*
X217100000Y-88700000D01*
X152750000Y-106650000D02*
X152750000Y-111775000D01*
X152875000Y-84725000D02*
X152100000Y-85500000D01*
D24*
X133200000Y-111500000D02*
X128372000Y-106672000D01*
D25*
X184700000Y-89225000D02*
X185062500Y-89587500D01*
X186600000Y-84800000D02*
X185700000Y-84800000D01*
X186422300Y-106625000D02*
X184900000Y-108147300D01*
X185062500Y-89587500D02*
X186212500Y-90737500D01*
X218025000Y-84675000D02*
X217100000Y-85600000D01*
X217775000Y-106625000D02*
X217400000Y-107000000D01*
X184700000Y-85800000D02*
X184700000Y-89225000D01*
X152750000Y-111775000D02*
X154425000Y-113450000D01*
X217400000Y-107000000D02*
X217400000Y-111675000D01*
X219150000Y-84675000D02*
X218025000Y-84675000D01*
X184900000Y-111400000D02*
X186825000Y-113325000D01*
X154100000Y-84725000D02*
X152875000Y-84725000D01*
X152750000Y-106650000D02*
X154150000Y-106650000D01*
X152100000Y-85500000D02*
X152100000Y-89000000D01*
X184900000Y-108147300D02*
X184900000Y-111400000D01*
%TO.N,Net-(D1-DOUT)*%
D22*
X154100000Y-86225000D02*
X154100000Y-88450000D01*
X161650000Y-106650000D02*
X159600000Y-106650000D01*
X156750000Y-91100000D02*
X156750000Y-93550000D01*
X154100000Y-88450000D02*
X156750000Y-91100000D01*
%TO.N,Net-(D5-DOUT)*%
X230250000Y-98850000D02*
X230250000Y-102650000D01*
X219150000Y-86175000D02*
X219150000Y-87750000D01*
X219150000Y-87750000D02*
X230250000Y-98850000D01*
X230250000Y-102650000D02*
X226275000Y-106625000D01*
X226275000Y-106625000D02*
X224575000Y-106625000D01*
X224600000Y-106650000D02*
X224575000Y-106625000D01*
%TO.N,+3.3V*%
D24*
X133452000Y-99905000D02*
X133452000Y-96152000D01*
X133452000Y-96152000D02*
X133400000Y-96100000D01*
%TO.N,Net-(D2-DOUT)*%
D22*
X194850000Y-84800000D02*
X192050000Y-84800000D01*
%TO.N,Net-(D7-A)*%
D24*
X178950000Y-88800000D02*
X179250000Y-89100000D01*
X179800000Y-89650000D02*
X179800000Y-91550000D01*
X176850000Y-92400000D02*
X175900000Y-93350000D01*
X178000000Y-88800000D02*
X178950000Y-88800000D01*
X178000000Y-92400000D02*
X176850000Y-92400000D01*
X179250000Y-89100000D02*
X179800000Y-89650000D01*
X179800000Y-91550000D02*
X178950000Y-92400000D01*
X178950000Y-92400000D02*
X178000000Y-92400000D01*
%TO.N,Net-(D3-DOUT)*%
D22*
X194250000Y-106600000D02*
X194225000Y-106625000D01*
X193550000Y-93800000D02*
X192900000Y-93150000D01*
X194225000Y-106625000D02*
X192050000Y-106625000D01*
X186600000Y-88300000D02*
X186600000Y-86300000D01*
X191450000Y-93150000D02*
X186600000Y-88300000D01*
X192900000Y-93150000D02*
X191450000Y-93150000D01*
%TO.N,Net-(D4-DOUT)*%
X204000000Y-115050000D02*
X219700000Y-99350000D01*
X189500000Y-114450000D02*
X190100000Y-115050000D01*
X190100000Y-115050000D02*
X204000000Y-115050000D01*
X223150000Y-99350000D02*
X224350000Y-98150000D01*
X227175000Y-84675000D02*
X224600000Y-84675000D01*
X189500000Y-113600000D02*
X189500000Y-114450000D01*
X227250000Y-84600000D02*
X227175000Y-84675000D01*
X186600000Y-108125000D02*
X186600000Y-110700000D01*
X219700000Y-99350000D02*
X223150000Y-99350000D01*
X186600000Y-110700000D02*
X189500000Y-113600000D01*
%TD*%
M02*
