%TF.GenerationSoftware,KiCad,Pcbnew,10.0.5*%
%TF.CreationDate,2026-08-02T16:44:24+02:00*%
%TF.ProjectId,Radio Ident,52616469-6f20-4496-9465-6e742e6b6963,rev?*%
%TF.SameCoordinates,Original*%
%TF.FileFunction,Legend,Bot*%
%TF.FilePolarity,Positive*%
%FSLAX46Y46*%
G04 Gerber Fmt 4.6, Leading zero omitted, Abs format (unit mm)*
G04 Created by KiCad (PCBNEW 10.0.5) date 2026-08-02 16:44:24*
%MOMM*%
%LPD*%
G01*
G04 APERTURE LIST*
%ADD10C,0.100000*%
%ADD11C,0.150000*%
%ADD12C,0.106680*%
%ADD13C,0.120000*%
%ADD14C,0.250000*%
%ADD15C,0.060000*%
%ADD16C,0.504000*%
G04 APERTURE END LIST*
D10*
X240435752Y-90618646D02*
X241102419Y-90856741D01*
X241102419Y-90856741D02*
X240435752Y-91094836D01*
X241102419Y-91999598D02*
X241102419Y-91428170D01*
X241102419Y-91713884D02*
X240102419Y-91713884D01*
X240102419Y-91713884D02*
X240245276Y-91618646D01*
X240245276Y-91618646D02*
X240340514Y-91523408D01*
X240340514Y-91523408D02*
X240388133Y-91428170D01*
X241007180Y-92428170D02*
X241054800Y-92475789D01*
X241054800Y-92475789D02*
X241102419Y-92428170D01*
X241102419Y-92428170D02*
X241054800Y-92380551D01*
X241054800Y-92380551D02*
X241007180Y-92428170D01*
X241007180Y-92428170D02*
X241102419Y-92428170D01*
X240102419Y-93094836D02*
X240102419Y-93190074D01*
X240102419Y-93190074D02*
X240150038Y-93285312D01*
X240150038Y-93285312D02*
X240197657Y-93332931D01*
X240197657Y-93332931D02*
X240292895Y-93380550D01*
X240292895Y-93380550D02*
X240483371Y-93428169D01*
X240483371Y-93428169D02*
X240721466Y-93428169D01*
X240721466Y-93428169D02*
X240911942Y-93380550D01*
X240911942Y-93380550D02*
X241007180Y-93332931D01*
X241007180Y-93332931D02*
X241054800Y-93285312D01*
X241054800Y-93285312D02*
X241102419Y-93190074D01*
X241102419Y-93190074D02*
X241102419Y-93094836D01*
X241102419Y-93094836D02*
X241054800Y-92999598D01*
X241054800Y-92999598D02*
X241007180Y-92951979D01*
X241007180Y-92951979D02*
X240911942Y-92904360D01*
X240911942Y-92904360D02*
X240721466Y-92856741D01*
X240721466Y-92856741D02*
X240483371Y-92856741D01*
X240483371Y-92856741D02*
X240292895Y-92904360D01*
X240292895Y-92904360D02*
X240197657Y-92951979D01*
X240197657Y-92951979D02*
X240150038Y-92999598D01*
X240150038Y-92999598D02*
X240102419Y-93094836D01*
X242672419Y-87580074D02*
X242672419Y-87103884D01*
X242672419Y-87103884D02*
X241672419Y-87103884D01*
X242624800Y-88294360D02*
X242672419Y-88199122D01*
X242672419Y-88199122D02*
X242672419Y-88008646D01*
X242672419Y-88008646D02*
X242624800Y-87913408D01*
X242624800Y-87913408D02*
X242529561Y-87865789D01*
X242529561Y-87865789D02*
X242148609Y-87865789D01*
X242148609Y-87865789D02*
X242053371Y-87913408D01*
X242053371Y-87913408D02*
X242005752Y-88008646D01*
X242005752Y-88008646D02*
X242005752Y-88199122D01*
X242005752Y-88199122D02*
X242053371Y-88294360D01*
X242053371Y-88294360D02*
X242148609Y-88341979D01*
X242148609Y-88341979D02*
X242243847Y-88341979D01*
X242243847Y-88341979D02*
X242339085Y-87865789D01*
X242672419Y-89199122D02*
X242148609Y-89199122D01*
X242148609Y-89199122D02*
X242053371Y-89151503D01*
X242053371Y-89151503D02*
X242005752Y-89056265D01*
X242005752Y-89056265D02*
X242005752Y-88865789D01*
X242005752Y-88865789D02*
X242053371Y-88770551D01*
X242624800Y-89199122D02*
X242672419Y-89103884D01*
X242672419Y-89103884D02*
X242672419Y-88865789D01*
X242672419Y-88865789D02*
X242624800Y-88770551D01*
X242624800Y-88770551D02*
X242529561Y-88722932D01*
X242529561Y-88722932D02*
X242434323Y-88722932D01*
X242434323Y-88722932D02*
X242339085Y-88770551D01*
X242339085Y-88770551D02*
X242291466Y-88865789D01*
X242291466Y-88865789D02*
X242291466Y-89103884D01*
X242291466Y-89103884D02*
X242243847Y-89199122D01*
X242672419Y-89675313D02*
X242005752Y-89675313D01*
X242196228Y-89675313D02*
X242100990Y-89722932D01*
X242100990Y-89722932D02*
X242053371Y-89770551D01*
X242053371Y-89770551D02*
X242005752Y-89865789D01*
X242005752Y-89865789D02*
X242005752Y-89961027D01*
X242624800Y-90246742D02*
X242672419Y-90341980D01*
X242672419Y-90341980D02*
X242672419Y-90532456D01*
X242672419Y-90532456D02*
X242624800Y-90627694D01*
X242624800Y-90627694D02*
X242529561Y-90675313D01*
X242529561Y-90675313D02*
X242481942Y-90675313D01*
X242481942Y-90675313D02*
X242386704Y-90627694D01*
X242386704Y-90627694D02*
X242339085Y-90532456D01*
X242339085Y-90532456D02*
X242339085Y-90389599D01*
X242339085Y-90389599D02*
X242291466Y-90294361D01*
X242291466Y-90294361D02*
X242196228Y-90246742D01*
X242196228Y-90246742D02*
X242148609Y-90246742D01*
X242148609Y-90246742D02*
X242053371Y-90294361D01*
X242053371Y-90294361D02*
X242005752Y-90389599D01*
X242005752Y-90389599D02*
X242005752Y-90532456D01*
X242005752Y-90532456D02*
X242053371Y-90627694D01*
X242672419Y-91103885D02*
X242005752Y-91103885D01*
X241672419Y-91103885D02*
X241720038Y-91056266D01*
X241720038Y-91056266D02*
X241767657Y-91103885D01*
X241767657Y-91103885D02*
X241720038Y-91151504D01*
X241720038Y-91151504D02*
X241672419Y-91103885D01*
X241672419Y-91103885D02*
X241767657Y-91103885D01*
X242672419Y-91580075D02*
X242005752Y-91580075D01*
X242100990Y-91580075D02*
X242053371Y-91627694D01*
X242053371Y-91627694D02*
X242005752Y-91722932D01*
X242005752Y-91722932D02*
X242005752Y-91865789D01*
X242005752Y-91865789D02*
X242053371Y-91961027D01*
X242053371Y-91961027D02*
X242148609Y-92008646D01*
X242148609Y-92008646D02*
X242672419Y-92008646D01*
X242148609Y-92008646D02*
X242053371Y-92056265D01*
X242053371Y-92056265D02*
X242005752Y-92151503D01*
X242005752Y-92151503D02*
X242005752Y-92294360D01*
X242005752Y-92294360D02*
X242053371Y-92389599D01*
X242053371Y-92389599D02*
X242148609Y-92437218D01*
X242148609Y-92437218D02*
X242672419Y-92437218D01*
X241767657Y-93627694D02*
X241720038Y-93675313D01*
X241720038Y-93675313D02*
X241672419Y-93770551D01*
X241672419Y-93770551D02*
X241672419Y-94008646D01*
X241672419Y-94008646D02*
X241720038Y-94103884D01*
X241720038Y-94103884D02*
X241767657Y-94151503D01*
X241767657Y-94151503D02*
X241862895Y-94199122D01*
X241862895Y-94199122D02*
X241958133Y-94199122D01*
X241958133Y-94199122D02*
X242100990Y-94151503D01*
X242100990Y-94151503D02*
X242672419Y-93580075D01*
X242672419Y-93580075D02*
X242672419Y-94199122D01*
X241672419Y-94818170D02*
X241672419Y-94913408D01*
X241672419Y-94913408D02*
X241720038Y-95008646D01*
X241720038Y-95008646D02*
X241767657Y-95056265D01*
X241767657Y-95056265D02*
X241862895Y-95103884D01*
X241862895Y-95103884D02*
X242053371Y-95151503D01*
X242053371Y-95151503D02*
X242291466Y-95151503D01*
X242291466Y-95151503D02*
X242481942Y-95103884D01*
X242481942Y-95103884D02*
X242577180Y-95056265D01*
X242577180Y-95056265D02*
X242624800Y-95008646D01*
X242624800Y-95008646D02*
X242672419Y-94913408D01*
X242672419Y-94913408D02*
X242672419Y-94818170D01*
X242672419Y-94818170D02*
X242624800Y-94722932D01*
X242624800Y-94722932D02*
X242577180Y-94675313D01*
X242577180Y-94675313D02*
X242481942Y-94627694D01*
X242481942Y-94627694D02*
X242291466Y-94580075D01*
X242291466Y-94580075D02*
X242053371Y-94580075D01*
X242053371Y-94580075D02*
X241862895Y-94627694D01*
X241862895Y-94627694D02*
X241767657Y-94675313D01*
X241767657Y-94675313D02*
X241720038Y-94722932D01*
X241720038Y-94722932D02*
X241672419Y-94818170D01*
X241767657Y-95532456D02*
X241720038Y-95580075D01*
X241720038Y-95580075D02*
X241672419Y-95675313D01*
X241672419Y-95675313D02*
X241672419Y-95913408D01*
X241672419Y-95913408D02*
X241720038Y-96008646D01*
X241720038Y-96008646D02*
X241767657Y-96056265D01*
X241767657Y-96056265D02*
X241862895Y-96103884D01*
X241862895Y-96103884D02*
X241958133Y-96103884D01*
X241958133Y-96103884D02*
X242100990Y-96056265D01*
X242100990Y-96056265D02*
X242672419Y-95484837D01*
X242672419Y-95484837D02*
X242672419Y-96103884D01*
X241672419Y-96961027D02*
X241672419Y-96770551D01*
X241672419Y-96770551D02*
X241720038Y-96675313D01*
X241720038Y-96675313D02*
X241767657Y-96627694D01*
X241767657Y-96627694D02*
X241910514Y-96532456D01*
X241910514Y-96532456D02*
X242100990Y-96484837D01*
X242100990Y-96484837D02*
X242481942Y-96484837D01*
X242481942Y-96484837D02*
X242577180Y-96532456D01*
X242577180Y-96532456D02*
X242624800Y-96580075D01*
X242624800Y-96580075D02*
X242672419Y-96675313D01*
X242672419Y-96675313D02*
X242672419Y-96865789D01*
X242672419Y-96865789D02*
X242624800Y-96961027D01*
X242624800Y-96961027D02*
X242577180Y-97008646D01*
X242577180Y-97008646D02*
X242481942Y-97056265D01*
X242481942Y-97056265D02*
X242243847Y-97056265D01*
X242243847Y-97056265D02*
X242148609Y-97008646D01*
X242148609Y-97008646D02*
X242100990Y-96961027D01*
X242100990Y-96961027D02*
X242053371Y-96865789D01*
X242053371Y-96865789D02*
X242053371Y-96675313D01*
X242053371Y-96675313D02*
X242100990Y-96580075D01*
X242100990Y-96580075D02*
X242148609Y-96532456D01*
X242148609Y-96532456D02*
X242243847Y-96484837D01*
X244422419Y-87675312D02*
X243946228Y-87341979D01*
X244422419Y-87103884D02*
X243422419Y-87103884D01*
X243422419Y-87103884D02*
X243422419Y-87484836D01*
X243422419Y-87484836D02*
X243470038Y-87580074D01*
X243470038Y-87580074D02*
X243517657Y-87627693D01*
X243517657Y-87627693D02*
X243612895Y-87675312D01*
X243612895Y-87675312D02*
X243755752Y-87675312D01*
X243755752Y-87675312D02*
X243850990Y-87627693D01*
X243850990Y-87627693D02*
X243898609Y-87580074D01*
X243898609Y-87580074D02*
X243946228Y-87484836D01*
X243946228Y-87484836D02*
X243946228Y-87103884D01*
X244422419Y-88532455D02*
X243898609Y-88532455D01*
X243898609Y-88532455D02*
X243803371Y-88484836D01*
X243803371Y-88484836D02*
X243755752Y-88389598D01*
X243755752Y-88389598D02*
X243755752Y-88199122D01*
X243755752Y-88199122D02*
X243803371Y-88103884D01*
X244374800Y-88532455D02*
X244422419Y-88437217D01*
X244422419Y-88437217D02*
X244422419Y-88199122D01*
X244422419Y-88199122D02*
X244374800Y-88103884D01*
X244374800Y-88103884D02*
X244279561Y-88056265D01*
X244279561Y-88056265D02*
X244184323Y-88056265D01*
X244184323Y-88056265D02*
X244089085Y-88103884D01*
X244089085Y-88103884D02*
X244041466Y-88199122D01*
X244041466Y-88199122D02*
X244041466Y-88437217D01*
X244041466Y-88437217D02*
X243993847Y-88532455D01*
X244422419Y-89437217D02*
X243422419Y-89437217D01*
X244374800Y-89437217D02*
X244422419Y-89341979D01*
X244422419Y-89341979D02*
X244422419Y-89151503D01*
X244422419Y-89151503D02*
X244374800Y-89056265D01*
X244374800Y-89056265D02*
X244327180Y-89008646D01*
X244327180Y-89008646D02*
X244231942Y-88961027D01*
X244231942Y-88961027D02*
X243946228Y-88961027D01*
X243946228Y-88961027D02*
X243850990Y-89008646D01*
X243850990Y-89008646D02*
X243803371Y-89056265D01*
X243803371Y-89056265D02*
X243755752Y-89151503D01*
X243755752Y-89151503D02*
X243755752Y-89341979D01*
X243755752Y-89341979D02*
X243803371Y-89437217D01*
X244422419Y-89913408D02*
X243755752Y-89913408D01*
X243422419Y-89913408D02*
X243470038Y-89865789D01*
X243470038Y-89865789D02*
X243517657Y-89913408D01*
X243517657Y-89913408D02*
X243470038Y-89961027D01*
X243470038Y-89961027D02*
X243422419Y-89913408D01*
X243422419Y-89913408D02*
X243517657Y-89913408D01*
X244422419Y-90532455D02*
X244374800Y-90437217D01*
X244374800Y-90437217D02*
X244327180Y-90389598D01*
X244327180Y-90389598D02*
X244231942Y-90341979D01*
X244231942Y-90341979D02*
X243946228Y-90341979D01*
X243946228Y-90341979D02*
X243850990Y-90389598D01*
X243850990Y-90389598D02*
X243803371Y-90437217D01*
X243803371Y-90437217D02*
X243755752Y-90532455D01*
X243755752Y-90532455D02*
X243755752Y-90675312D01*
X243755752Y-90675312D02*
X243803371Y-90770550D01*
X243803371Y-90770550D02*
X243850990Y-90818169D01*
X243850990Y-90818169D02*
X243946228Y-90865788D01*
X243946228Y-90865788D02*
X244231942Y-90865788D01*
X244231942Y-90865788D02*
X244327180Y-90818169D01*
X244327180Y-90818169D02*
X244374800Y-90770550D01*
X244374800Y-90770550D02*
X244422419Y-90675312D01*
X244422419Y-90675312D02*
X244422419Y-90532455D01*
X244422419Y-92056265D02*
X243422419Y-92056265D01*
X244422419Y-92961026D02*
X243422419Y-92961026D01*
X244374800Y-92961026D02*
X244422419Y-92865788D01*
X244422419Y-92865788D02*
X244422419Y-92675312D01*
X244422419Y-92675312D02*
X244374800Y-92580074D01*
X244374800Y-92580074D02*
X244327180Y-92532455D01*
X244327180Y-92532455D02*
X244231942Y-92484836D01*
X244231942Y-92484836D02*
X243946228Y-92484836D01*
X243946228Y-92484836D02*
X243850990Y-92532455D01*
X243850990Y-92532455D02*
X243803371Y-92580074D01*
X243803371Y-92580074D02*
X243755752Y-92675312D01*
X243755752Y-92675312D02*
X243755752Y-92865788D01*
X243755752Y-92865788D02*
X243803371Y-92961026D01*
X244374800Y-93818169D02*
X244422419Y-93722931D01*
X244422419Y-93722931D02*
X244422419Y-93532455D01*
X244422419Y-93532455D02*
X244374800Y-93437217D01*
X244374800Y-93437217D02*
X244279561Y-93389598D01*
X244279561Y-93389598D02*
X243898609Y-93389598D01*
X243898609Y-93389598D02*
X243803371Y-93437217D01*
X243803371Y-93437217D02*
X243755752Y-93532455D01*
X243755752Y-93532455D02*
X243755752Y-93722931D01*
X243755752Y-93722931D02*
X243803371Y-93818169D01*
X243803371Y-93818169D02*
X243898609Y-93865788D01*
X243898609Y-93865788D02*
X243993847Y-93865788D01*
X243993847Y-93865788D02*
X244089085Y-93389598D01*
X243755752Y-94294360D02*
X244422419Y-94294360D01*
X243850990Y-94294360D02*
X243803371Y-94341979D01*
X243803371Y-94341979D02*
X243755752Y-94437217D01*
X243755752Y-94437217D02*
X243755752Y-94580074D01*
X243755752Y-94580074D02*
X243803371Y-94675312D01*
X243803371Y-94675312D02*
X243898609Y-94722931D01*
X243898609Y-94722931D02*
X244422419Y-94722931D01*
X243755752Y-95056265D02*
X243755752Y-95437217D01*
X243422419Y-95199122D02*
X244279561Y-95199122D01*
X244279561Y-95199122D02*
X244374800Y-95246741D01*
X244374800Y-95246741D02*
X244422419Y-95341979D01*
X244422419Y-95341979D02*
X244422419Y-95437217D01*
X244327180Y-95770551D02*
X244374800Y-95818170D01*
X244374800Y-95818170D02*
X244422419Y-95770551D01*
X244422419Y-95770551D02*
X244374800Y-95722932D01*
X244374800Y-95722932D02*
X244327180Y-95770551D01*
X244327180Y-95770551D02*
X244422419Y-95770551D01*
X245886704Y-87306265D02*
X245886704Y-87782455D01*
X246172419Y-87211027D02*
X245172419Y-87544360D01*
X245172419Y-87544360D02*
X246172419Y-87877693D01*
X246172419Y-88115789D02*
X245505752Y-88639598D01*
X245505752Y-88115789D02*
X246172419Y-88639598D01*
X246124800Y-89401503D02*
X246172419Y-89306265D01*
X246172419Y-89306265D02*
X246172419Y-89115789D01*
X246172419Y-89115789D02*
X246124800Y-89020551D01*
X246124800Y-89020551D02*
X246029561Y-88972932D01*
X246029561Y-88972932D02*
X245648609Y-88972932D01*
X245648609Y-88972932D02*
X245553371Y-89020551D01*
X245553371Y-89020551D02*
X245505752Y-89115789D01*
X245505752Y-89115789D02*
X245505752Y-89306265D01*
X245505752Y-89306265D02*
X245553371Y-89401503D01*
X245553371Y-89401503D02*
X245648609Y-89449122D01*
X245648609Y-89449122D02*
X245743847Y-89449122D01*
X245743847Y-89449122D02*
X245839085Y-88972932D01*
X246172419Y-90020551D02*
X246124800Y-89925313D01*
X246124800Y-89925313D02*
X246029561Y-89877694D01*
X246029561Y-89877694D02*
X245172419Y-89877694D01*
X246172419Y-91163409D02*
X245172419Y-91163409D01*
X245172419Y-91163409D02*
X245172419Y-91401504D01*
X245172419Y-91401504D02*
X245220038Y-91544361D01*
X245220038Y-91544361D02*
X245315276Y-91639599D01*
X245315276Y-91639599D02*
X245410514Y-91687218D01*
X245410514Y-91687218D02*
X245600990Y-91734837D01*
X245600990Y-91734837D02*
X245743847Y-91734837D01*
X245743847Y-91734837D02*
X245934323Y-91687218D01*
X245934323Y-91687218D02*
X246029561Y-91639599D01*
X246029561Y-91639599D02*
X246124800Y-91544361D01*
X246124800Y-91544361D02*
X246172419Y-91401504D01*
X246172419Y-91401504D02*
X246172419Y-91163409D01*
X246172419Y-92163409D02*
X245505752Y-92163409D01*
X245696228Y-92163409D02*
X245600990Y-92211028D01*
X245600990Y-92211028D02*
X245553371Y-92258647D01*
X245553371Y-92258647D02*
X245505752Y-92353885D01*
X245505752Y-92353885D02*
X245505752Y-92449123D01*
X246172419Y-93211028D02*
X245648609Y-93211028D01*
X245648609Y-93211028D02*
X245553371Y-93163409D01*
X245553371Y-93163409D02*
X245505752Y-93068171D01*
X245505752Y-93068171D02*
X245505752Y-92877695D01*
X245505752Y-92877695D02*
X245553371Y-92782457D01*
X246124800Y-93211028D02*
X246172419Y-93115790D01*
X246172419Y-93115790D02*
X246172419Y-92877695D01*
X246172419Y-92877695D02*
X246124800Y-92782457D01*
X246124800Y-92782457D02*
X246029561Y-92734838D01*
X246029561Y-92734838D02*
X245934323Y-92734838D01*
X245934323Y-92734838D02*
X245839085Y-92782457D01*
X245839085Y-92782457D02*
X245791466Y-92877695D01*
X245791466Y-92877695D02*
X245791466Y-93115790D01*
X245791466Y-93115790D02*
X245743847Y-93211028D01*
X245505752Y-93591981D02*
X246172419Y-93782457D01*
X246172419Y-93782457D02*
X245696228Y-93972933D01*
X245696228Y-93972933D02*
X246172419Y-94163409D01*
X246172419Y-94163409D02*
X245505752Y-94353885D01*
X246124800Y-94687219D02*
X246172419Y-94782457D01*
X246172419Y-94782457D02*
X246172419Y-94972933D01*
X246172419Y-94972933D02*
X246124800Y-95068171D01*
X246124800Y-95068171D02*
X246029561Y-95115790D01*
X246029561Y-95115790D02*
X245981942Y-95115790D01*
X245981942Y-95115790D02*
X245886704Y-95068171D01*
X245886704Y-95068171D02*
X245839085Y-94972933D01*
X245839085Y-94972933D02*
X245839085Y-94830076D01*
X245839085Y-94830076D02*
X245791466Y-94734838D01*
X245791466Y-94734838D02*
X245696228Y-94687219D01*
X245696228Y-94687219D02*
X245648609Y-94687219D01*
X245648609Y-94687219D02*
X245553371Y-94734838D01*
X245553371Y-94734838D02*
X245505752Y-94830076D01*
X245505752Y-94830076D02*
X245505752Y-94972933D01*
X245505752Y-94972933D02*
X245553371Y-95068171D01*
D11*
X167716666Y-94024819D02*
X168049999Y-93548628D01*
X168288094Y-94024819D02*
X168288094Y-93024819D01*
X168288094Y-93024819D02*
X167907142Y-93024819D01*
X167907142Y-93024819D02*
X167811904Y-93072438D01*
X167811904Y-93072438D02*
X167764285Y-93120057D01*
X167764285Y-93120057D02*
X167716666Y-93215295D01*
X167716666Y-93215295D02*
X167716666Y-93358152D01*
X167716666Y-93358152D02*
X167764285Y-93453390D01*
X167764285Y-93453390D02*
X167811904Y-93501009D01*
X167811904Y-93501009D02*
X167907142Y-93548628D01*
X167907142Y-93548628D02*
X168288094Y-93548628D01*
X167383332Y-93024819D02*
X166716666Y-93024819D01*
X166716666Y-93024819D02*
X167145237Y-94024819D01*
X153488094Y-83154819D02*
X153488094Y-82154819D01*
X153488094Y-82154819D02*
X153249999Y-82154819D01*
X153249999Y-82154819D02*
X153107142Y-82202438D01*
X153107142Y-82202438D02*
X153011904Y-82297676D01*
X153011904Y-82297676D02*
X152964285Y-82392914D01*
X152964285Y-82392914D02*
X152916666Y-82583390D01*
X152916666Y-82583390D02*
X152916666Y-82726247D01*
X152916666Y-82726247D02*
X152964285Y-82916723D01*
X152964285Y-82916723D02*
X153011904Y-83011961D01*
X153011904Y-83011961D02*
X153107142Y-83107200D01*
X153107142Y-83107200D02*
X153249999Y-83154819D01*
X153249999Y-83154819D02*
X153488094Y-83154819D01*
X151964285Y-83154819D02*
X152535713Y-83154819D01*
X152249999Y-83154819D02*
X152249999Y-82154819D01*
X152249999Y-82154819D02*
X152345237Y-82297676D01*
X152345237Y-82297676D02*
X152440475Y-82392914D01*
X152440475Y-82392914D02*
X152535713Y-82440533D01*
X227088094Y-105204819D02*
X227088094Y-104204819D01*
X227088094Y-104204819D02*
X226849999Y-104204819D01*
X226849999Y-104204819D02*
X226707142Y-104252438D01*
X226707142Y-104252438D02*
X226611904Y-104347676D01*
X226611904Y-104347676D02*
X226564285Y-104442914D01*
X226564285Y-104442914D02*
X226516666Y-104633390D01*
X226516666Y-104633390D02*
X226516666Y-104776247D01*
X226516666Y-104776247D02*
X226564285Y-104966723D01*
X226564285Y-104966723D02*
X226611904Y-105061961D01*
X226611904Y-105061961D02*
X226707142Y-105157200D01*
X226707142Y-105157200D02*
X226849999Y-105204819D01*
X226849999Y-105204819D02*
X227088094Y-105204819D01*
X225659523Y-104204819D02*
X225849999Y-104204819D01*
X225849999Y-104204819D02*
X225945237Y-104252438D01*
X225945237Y-104252438D02*
X225992856Y-104300057D01*
X225992856Y-104300057D02*
X226088094Y-104442914D01*
X226088094Y-104442914D02*
X226135713Y-104633390D01*
X226135713Y-104633390D02*
X226135713Y-105014342D01*
X226135713Y-105014342D02*
X226088094Y-105109580D01*
X226088094Y-105109580D02*
X226040475Y-105157200D01*
X226040475Y-105157200D02*
X225945237Y-105204819D01*
X225945237Y-105204819D02*
X225754761Y-105204819D01*
X225754761Y-105204819D02*
X225659523Y-105157200D01*
X225659523Y-105157200D02*
X225611904Y-105109580D01*
X225611904Y-105109580D02*
X225564285Y-105014342D01*
X225564285Y-105014342D02*
X225564285Y-104776247D01*
X225564285Y-104776247D02*
X225611904Y-104681009D01*
X225611904Y-104681009D02*
X225659523Y-104633390D01*
X225659523Y-104633390D02*
X225754761Y-104585771D01*
X225754761Y-104585771D02*
X225945237Y-104585771D01*
X225945237Y-104585771D02*
X226040475Y-104633390D01*
X226040475Y-104633390D02*
X226088094Y-104681009D01*
X226088094Y-104681009D02*
X226135713Y-104776247D01*
X157166666Y-91759580D02*
X157214285Y-91807200D01*
X157214285Y-91807200D02*
X157357142Y-91854819D01*
X157357142Y-91854819D02*
X157452380Y-91854819D01*
X157452380Y-91854819D02*
X157595237Y-91807200D01*
X157595237Y-91807200D02*
X157690475Y-91711961D01*
X157690475Y-91711961D02*
X157738094Y-91616723D01*
X157738094Y-91616723D02*
X157785713Y-91426247D01*
X157785713Y-91426247D02*
X157785713Y-91283390D01*
X157785713Y-91283390D02*
X157738094Y-91092914D01*
X157738094Y-91092914D02*
X157690475Y-90997676D01*
X157690475Y-90997676D02*
X157595237Y-90902438D01*
X157595237Y-90902438D02*
X157452380Y-90854819D01*
X157452380Y-90854819D02*
X157357142Y-90854819D01*
X157357142Y-90854819D02*
X157214285Y-90902438D01*
X157214285Y-90902438D02*
X157166666Y-90950057D01*
X156214285Y-91854819D02*
X156785713Y-91854819D01*
X156499999Y-91854819D02*
X156499999Y-90854819D01*
X156499999Y-90854819D02*
X156595237Y-90997676D01*
X156595237Y-90997676D02*
X156690475Y-91092914D01*
X156690475Y-91092914D02*
X156785713Y-91140533D01*
X157091666Y-113809580D02*
X157139285Y-113857200D01*
X157139285Y-113857200D02*
X157282142Y-113904819D01*
X157282142Y-113904819D02*
X157377380Y-113904819D01*
X157377380Y-113904819D02*
X157520237Y-113857200D01*
X157520237Y-113857200D02*
X157615475Y-113761961D01*
X157615475Y-113761961D02*
X157663094Y-113666723D01*
X157663094Y-113666723D02*
X157710713Y-113476247D01*
X157710713Y-113476247D02*
X157710713Y-113333390D01*
X157710713Y-113333390D02*
X157663094Y-113142914D01*
X157663094Y-113142914D02*
X157615475Y-113047676D01*
X157615475Y-113047676D02*
X157520237Y-112952438D01*
X157520237Y-112952438D02*
X157377380Y-112904819D01*
X157377380Y-112904819D02*
X157282142Y-112904819D01*
X157282142Y-112904819D02*
X157139285Y-112952438D01*
X157139285Y-112952438D02*
X157091666Y-113000057D01*
X156710713Y-113000057D02*
X156663094Y-112952438D01*
X156663094Y-112952438D02*
X156567856Y-112904819D01*
X156567856Y-112904819D02*
X156329761Y-112904819D01*
X156329761Y-112904819D02*
X156234523Y-112952438D01*
X156234523Y-112952438D02*
X156186904Y-113000057D01*
X156186904Y-113000057D02*
X156139285Y-113095295D01*
X156139285Y-113095295D02*
X156139285Y-113190533D01*
X156139285Y-113190533D02*
X156186904Y-113333390D01*
X156186904Y-113333390D02*
X156758332Y-113904819D01*
X156758332Y-113904819D02*
X156139285Y-113904819D01*
X189466666Y-113709580D02*
X189514285Y-113757200D01*
X189514285Y-113757200D02*
X189657142Y-113804819D01*
X189657142Y-113804819D02*
X189752380Y-113804819D01*
X189752380Y-113804819D02*
X189895237Y-113757200D01*
X189895237Y-113757200D02*
X189990475Y-113661961D01*
X189990475Y-113661961D02*
X190038094Y-113566723D01*
X190038094Y-113566723D02*
X190085713Y-113376247D01*
X190085713Y-113376247D02*
X190085713Y-113233390D01*
X190085713Y-113233390D02*
X190038094Y-113042914D01*
X190038094Y-113042914D02*
X189990475Y-112947676D01*
X189990475Y-112947676D02*
X189895237Y-112852438D01*
X189895237Y-112852438D02*
X189752380Y-112804819D01*
X189752380Y-112804819D02*
X189657142Y-112804819D01*
X189657142Y-112804819D02*
X189514285Y-112852438D01*
X189514285Y-112852438D02*
X189466666Y-112900057D01*
X188609523Y-113138152D02*
X188609523Y-113804819D01*
X188847618Y-112757200D02*
X189085713Y-113471485D01*
X189085713Y-113471485D02*
X188466666Y-113471485D01*
X168754819Y-102233333D02*
X168278628Y-101900000D01*
X168754819Y-101661905D02*
X167754819Y-101661905D01*
X167754819Y-101661905D02*
X167754819Y-102042857D01*
X167754819Y-102042857D02*
X167802438Y-102138095D01*
X167802438Y-102138095D02*
X167850057Y-102185714D01*
X167850057Y-102185714D02*
X167945295Y-102233333D01*
X167945295Y-102233333D02*
X168088152Y-102233333D01*
X168088152Y-102233333D02*
X168183390Y-102185714D01*
X168183390Y-102185714D02*
X168231009Y-102138095D01*
X168231009Y-102138095D02*
X168278628Y-102042857D01*
X168278628Y-102042857D02*
X168278628Y-101661905D01*
X167850057Y-102614286D02*
X167802438Y-102661905D01*
X167802438Y-102661905D02*
X167754819Y-102757143D01*
X167754819Y-102757143D02*
X167754819Y-102995238D01*
X167754819Y-102995238D02*
X167802438Y-103090476D01*
X167802438Y-103090476D02*
X167850057Y-103138095D01*
X167850057Y-103138095D02*
X167945295Y-103185714D01*
X167945295Y-103185714D02*
X168040533Y-103185714D01*
X168040533Y-103185714D02*
X168183390Y-103138095D01*
X168183390Y-103138095D02*
X168754819Y-102566667D01*
X168754819Y-102566667D02*
X168754819Y-103185714D01*
X234454819Y-102358333D02*
X233978628Y-102025000D01*
X234454819Y-101786905D02*
X233454819Y-101786905D01*
X233454819Y-101786905D02*
X233454819Y-102167857D01*
X233454819Y-102167857D02*
X233502438Y-102263095D01*
X233502438Y-102263095D02*
X233550057Y-102310714D01*
X233550057Y-102310714D02*
X233645295Y-102358333D01*
X233645295Y-102358333D02*
X233788152Y-102358333D01*
X233788152Y-102358333D02*
X233883390Y-102310714D01*
X233883390Y-102310714D02*
X233931009Y-102263095D01*
X233931009Y-102263095D02*
X233978628Y-102167857D01*
X233978628Y-102167857D02*
X233978628Y-101786905D01*
X233454819Y-103215476D02*
X233454819Y-103025000D01*
X233454819Y-103025000D02*
X233502438Y-102929762D01*
X233502438Y-102929762D02*
X233550057Y-102882143D01*
X233550057Y-102882143D02*
X233692914Y-102786905D01*
X233692914Y-102786905D02*
X233883390Y-102739286D01*
X233883390Y-102739286D02*
X234264342Y-102739286D01*
X234264342Y-102739286D02*
X234359580Y-102786905D01*
X234359580Y-102786905D02*
X234407200Y-102834524D01*
X234407200Y-102834524D02*
X234454819Y-102929762D01*
X234454819Y-102929762D02*
X234454819Y-103120238D01*
X234454819Y-103120238D02*
X234407200Y-103215476D01*
X234407200Y-103215476D02*
X234359580Y-103263095D01*
X234359580Y-103263095D02*
X234264342Y-103310714D01*
X234264342Y-103310714D02*
X234026247Y-103310714D01*
X234026247Y-103310714D02*
X233931009Y-103263095D01*
X233931009Y-103263095D02*
X233883390Y-103215476D01*
X233883390Y-103215476D02*
X233835771Y-103120238D01*
X233835771Y-103120238D02*
X233835771Y-102929762D01*
X233835771Y-102929762D02*
X233883390Y-102834524D01*
X233883390Y-102834524D02*
X233931009Y-102786905D01*
X233931009Y-102786905D02*
X234026247Y-102739286D01*
X153438094Y-105204819D02*
X153438094Y-104204819D01*
X153438094Y-104204819D02*
X153199999Y-104204819D01*
X153199999Y-104204819D02*
X153057142Y-104252438D01*
X153057142Y-104252438D02*
X152961904Y-104347676D01*
X152961904Y-104347676D02*
X152914285Y-104442914D01*
X152914285Y-104442914D02*
X152866666Y-104633390D01*
X152866666Y-104633390D02*
X152866666Y-104776247D01*
X152866666Y-104776247D02*
X152914285Y-104966723D01*
X152914285Y-104966723D02*
X152961904Y-105061961D01*
X152961904Y-105061961D02*
X153057142Y-105157200D01*
X153057142Y-105157200D02*
X153199999Y-105204819D01*
X153199999Y-105204819D02*
X153438094Y-105204819D01*
X152485713Y-104300057D02*
X152438094Y-104252438D01*
X152438094Y-104252438D02*
X152342856Y-104204819D01*
X152342856Y-104204819D02*
X152104761Y-104204819D01*
X152104761Y-104204819D02*
X152009523Y-104252438D01*
X152009523Y-104252438D02*
X151961904Y-104300057D01*
X151961904Y-104300057D02*
X151914285Y-104395295D01*
X151914285Y-104395295D02*
X151914285Y-104490533D01*
X151914285Y-104490533D02*
X151961904Y-104633390D01*
X151961904Y-104633390D02*
X152533332Y-105204819D01*
X152533332Y-105204819D02*
X151914285Y-105204819D01*
X175254819Y-105961905D02*
X174254819Y-105961905D01*
X174254819Y-105961905D02*
X174254819Y-106200000D01*
X174254819Y-106200000D02*
X174302438Y-106342857D01*
X174302438Y-106342857D02*
X174397676Y-106438095D01*
X174397676Y-106438095D02*
X174492914Y-106485714D01*
X174492914Y-106485714D02*
X174683390Y-106533333D01*
X174683390Y-106533333D02*
X174826247Y-106533333D01*
X174826247Y-106533333D02*
X175016723Y-106485714D01*
X175016723Y-106485714D02*
X175111961Y-106438095D01*
X175111961Y-106438095D02*
X175207200Y-106342857D01*
X175207200Y-106342857D02*
X175254819Y-106200000D01*
X175254819Y-106200000D02*
X175254819Y-105961905D01*
X174254819Y-106866667D02*
X174254819Y-107533333D01*
X174254819Y-107533333D02*
X175254819Y-107104762D01*
X172454819Y-109138095D02*
X171454819Y-109138095D01*
X172454819Y-109709523D02*
X171883390Y-109280952D01*
X171454819Y-109709523D02*
X172026247Y-109138095D01*
X234504819Y-80433333D02*
X234028628Y-80100000D01*
X234504819Y-79861905D02*
X233504819Y-79861905D01*
X233504819Y-79861905D02*
X233504819Y-80242857D01*
X233504819Y-80242857D02*
X233552438Y-80338095D01*
X233552438Y-80338095D02*
X233600057Y-80385714D01*
X233600057Y-80385714D02*
X233695295Y-80433333D01*
X233695295Y-80433333D02*
X233838152Y-80433333D01*
X233838152Y-80433333D02*
X233933390Y-80385714D01*
X233933390Y-80385714D02*
X233981009Y-80338095D01*
X233981009Y-80338095D02*
X234028628Y-80242857D01*
X234028628Y-80242857D02*
X234028628Y-79861905D01*
X233504819Y-81338095D02*
X233504819Y-80861905D01*
X233504819Y-80861905D02*
X233981009Y-80814286D01*
X233981009Y-80814286D02*
X233933390Y-80861905D01*
X233933390Y-80861905D02*
X233885771Y-80957143D01*
X233885771Y-80957143D02*
X233885771Y-81195238D01*
X233885771Y-81195238D02*
X233933390Y-81290476D01*
X233933390Y-81290476D02*
X233981009Y-81338095D01*
X233981009Y-81338095D02*
X234076247Y-81385714D01*
X234076247Y-81385714D02*
X234314342Y-81385714D01*
X234314342Y-81385714D02*
X234409580Y-81338095D01*
X234409580Y-81338095D02*
X234457200Y-81290476D01*
X234457200Y-81290476D02*
X234504819Y-81195238D01*
X234504819Y-81195238D02*
X234504819Y-80957143D01*
X234504819Y-80957143D02*
X234457200Y-80861905D01*
X234457200Y-80861905D02*
X234409580Y-80814286D01*
X222566666Y-91859580D02*
X222614285Y-91907200D01*
X222614285Y-91907200D02*
X222757142Y-91954819D01*
X222757142Y-91954819D02*
X222852380Y-91954819D01*
X222852380Y-91954819D02*
X222995237Y-91907200D01*
X222995237Y-91907200D02*
X223090475Y-91811961D01*
X223090475Y-91811961D02*
X223138094Y-91716723D01*
X223138094Y-91716723D02*
X223185713Y-91526247D01*
X223185713Y-91526247D02*
X223185713Y-91383390D01*
X223185713Y-91383390D02*
X223138094Y-91192914D01*
X223138094Y-91192914D02*
X223090475Y-91097676D01*
X223090475Y-91097676D02*
X222995237Y-91002438D01*
X222995237Y-91002438D02*
X222852380Y-90954819D01*
X222852380Y-90954819D02*
X222757142Y-90954819D01*
X222757142Y-90954819D02*
X222614285Y-91002438D01*
X222614285Y-91002438D02*
X222566666Y-91050057D01*
X221661904Y-90954819D02*
X222138094Y-90954819D01*
X222138094Y-90954819D02*
X222185713Y-91431009D01*
X222185713Y-91431009D02*
X222138094Y-91383390D01*
X222138094Y-91383390D02*
X222042856Y-91335771D01*
X222042856Y-91335771D02*
X221804761Y-91335771D01*
X221804761Y-91335771D02*
X221709523Y-91383390D01*
X221709523Y-91383390D02*
X221661904Y-91431009D01*
X221661904Y-91431009D02*
X221614285Y-91526247D01*
X221614285Y-91526247D02*
X221614285Y-91764342D01*
X221614285Y-91764342D02*
X221661904Y-91859580D01*
X221661904Y-91859580D02*
X221709523Y-91907200D01*
X221709523Y-91907200D02*
X221804761Y-91954819D01*
X221804761Y-91954819D02*
X222042856Y-91954819D01*
X222042856Y-91954819D02*
X222138094Y-91907200D01*
X222138094Y-91907200D02*
X222185713Y-91859580D01*
X175054819Y-89638095D02*
X175864342Y-89638095D01*
X175864342Y-89638095D02*
X175959580Y-89685714D01*
X175959580Y-89685714D02*
X176007200Y-89733333D01*
X176007200Y-89733333D02*
X176054819Y-89828571D01*
X176054819Y-89828571D02*
X176054819Y-90019047D01*
X176054819Y-90019047D02*
X176007200Y-90114285D01*
X176007200Y-90114285D02*
X175959580Y-90161904D01*
X175959580Y-90161904D02*
X175864342Y-90209523D01*
X175864342Y-90209523D02*
X175054819Y-90209523D01*
X175054819Y-90590476D02*
X175054819Y-91209523D01*
X175054819Y-91209523D02*
X175435771Y-90876190D01*
X175435771Y-90876190D02*
X175435771Y-91019047D01*
X175435771Y-91019047D02*
X175483390Y-91114285D01*
X175483390Y-91114285D02*
X175531009Y-91161904D01*
X175531009Y-91161904D02*
X175626247Y-91209523D01*
X175626247Y-91209523D02*
X175864342Y-91209523D01*
X175864342Y-91209523D02*
X175959580Y-91161904D01*
X175959580Y-91161904D02*
X176007200Y-91114285D01*
X176007200Y-91114285D02*
X176054819Y-91019047D01*
X176054819Y-91019047D02*
X176054819Y-90733333D01*
X176054819Y-90733333D02*
X176007200Y-90638095D01*
X176007200Y-90638095D02*
X175959580Y-90590476D01*
X185638094Y-83304819D02*
X185638094Y-82304819D01*
X185638094Y-82304819D02*
X185399999Y-82304819D01*
X185399999Y-82304819D02*
X185257142Y-82352438D01*
X185257142Y-82352438D02*
X185161904Y-82447676D01*
X185161904Y-82447676D02*
X185114285Y-82542914D01*
X185114285Y-82542914D02*
X185066666Y-82733390D01*
X185066666Y-82733390D02*
X185066666Y-82876247D01*
X185066666Y-82876247D02*
X185114285Y-83066723D01*
X185114285Y-83066723D02*
X185161904Y-83161961D01*
X185161904Y-83161961D02*
X185257142Y-83257200D01*
X185257142Y-83257200D02*
X185399999Y-83304819D01*
X185399999Y-83304819D02*
X185638094Y-83304819D01*
X184733332Y-82304819D02*
X184114285Y-82304819D01*
X184114285Y-82304819D02*
X184447618Y-82685771D01*
X184447618Y-82685771D02*
X184304761Y-82685771D01*
X184304761Y-82685771D02*
X184209523Y-82733390D01*
X184209523Y-82733390D02*
X184161904Y-82781009D01*
X184161904Y-82781009D02*
X184114285Y-82876247D01*
X184114285Y-82876247D02*
X184114285Y-83114342D01*
X184114285Y-83114342D02*
X184161904Y-83209580D01*
X184161904Y-83209580D02*
X184209523Y-83257200D01*
X184209523Y-83257200D02*
X184304761Y-83304819D01*
X184304761Y-83304819D02*
X184590475Y-83304819D01*
X184590475Y-83304819D02*
X184685713Y-83257200D01*
X184685713Y-83257200D02*
X184733332Y-83209580D01*
X222016666Y-113959580D02*
X222064285Y-114007200D01*
X222064285Y-114007200D02*
X222207142Y-114054819D01*
X222207142Y-114054819D02*
X222302380Y-114054819D01*
X222302380Y-114054819D02*
X222445237Y-114007200D01*
X222445237Y-114007200D02*
X222540475Y-113911961D01*
X222540475Y-113911961D02*
X222588094Y-113816723D01*
X222588094Y-113816723D02*
X222635713Y-113626247D01*
X222635713Y-113626247D02*
X222635713Y-113483390D01*
X222635713Y-113483390D02*
X222588094Y-113292914D01*
X222588094Y-113292914D02*
X222540475Y-113197676D01*
X222540475Y-113197676D02*
X222445237Y-113102438D01*
X222445237Y-113102438D02*
X222302380Y-113054819D01*
X222302380Y-113054819D02*
X222207142Y-113054819D01*
X222207142Y-113054819D02*
X222064285Y-113102438D01*
X222064285Y-113102438D02*
X222016666Y-113150057D01*
X221159523Y-113054819D02*
X221349999Y-113054819D01*
X221349999Y-113054819D02*
X221445237Y-113102438D01*
X221445237Y-113102438D02*
X221492856Y-113150057D01*
X221492856Y-113150057D02*
X221588094Y-113292914D01*
X221588094Y-113292914D02*
X221635713Y-113483390D01*
X221635713Y-113483390D02*
X221635713Y-113864342D01*
X221635713Y-113864342D02*
X221588094Y-113959580D01*
X221588094Y-113959580D02*
X221540475Y-114007200D01*
X221540475Y-114007200D02*
X221445237Y-114054819D01*
X221445237Y-114054819D02*
X221254761Y-114054819D01*
X221254761Y-114054819D02*
X221159523Y-114007200D01*
X221159523Y-114007200D02*
X221111904Y-113959580D01*
X221111904Y-113959580D02*
X221064285Y-113864342D01*
X221064285Y-113864342D02*
X221064285Y-113626247D01*
X221064285Y-113626247D02*
X221111904Y-113531009D01*
X221111904Y-113531009D02*
X221159523Y-113483390D01*
X221159523Y-113483390D02*
X221254761Y-113435771D01*
X221254761Y-113435771D02*
X221445237Y-113435771D01*
X221445237Y-113435771D02*
X221540475Y-113483390D01*
X221540475Y-113483390D02*
X221588094Y-113531009D01*
X221588094Y-113531009D02*
X221635713Y-113626247D01*
X217838094Y-83404819D02*
X217838094Y-82404819D01*
X217838094Y-82404819D02*
X217599999Y-82404819D01*
X217599999Y-82404819D02*
X217457142Y-82452438D01*
X217457142Y-82452438D02*
X217361904Y-82547676D01*
X217361904Y-82547676D02*
X217314285Y-82642914D01*
X217314285Y-82642914D02*
X217266666Y-82833390D01*
X217266666Y-82833390D02*
X217266666Y-82976247D01*
X217266666Y-82976247D02*
X217314285Y-83166723D01*
X217314285Y-83166723D02*
X217361904Y-83261961D01*
X217361904Y-83261961D02*
X217457142Y-83357200D01*
X217457142Y-83357200D02*
X217599999Y-83404819D01*
X217599999Y-83404819D02*
X217838094Y-83404819D01*
X216361904Y-82404819D02*
X216838094Y-82404819D01*
X216838094Y-82404819D02*
X216885713Y-82881009D01*
X216885713Y-82881009D02*
X216838094Y-82833390D01*
X216838094Y-82833390D02*
X216742856Y-82785771D01*
X216742856Y-82785771D02*
X216504761Y-82785771D01*
X216504761Y-82785771D02*
X216409523Y-82833390D01*
X216409523Y-82833390D02*
X216361904Y-82881009D01*
X216361904Y-82881009D02*
X216314285Y-82976247D01*
X216314285Y-82976247D02*
X216314285Y-83214342D01*
X216314285Y-83214342D02*
X216361904Y-83309580D01*
X216361904Y-83309580D02*
X216409523Y-83357200D01*
X216409523Y-83357200D02*
X216504761Y-83404819D01*
X216504761Y-83404819D02*
X216742856Y-83404819D01*
X216742856Y-83404819D02*
X216838094Y-83357200D01*
X216838094Y-83357200D02*
X216885713Y-83309580D01*
X193388094Y-105004819D02*
X193388094Y-104004819D01*
X193388094Y-104004819D02*
X193149999Y-104004819D01*
X193149999Y-104004819D02*
X193007142Y-104052438D01*
X193007142Y-104052438D02*
X192911904Y-104147676D01*
X192911904Y-104147676D02*
X192864285Y-104242914D01*
X192864285Y-104242914D02*
X192816666Y-104433390D01*
X192816666Y-104433390D02*
X192816666Y-104576247D01*
X192816666Y-104576247D02*
X192864285Y-104766723D01*
X192864285Y-104766723D02*
X192911904Y-104861961D01*
X192911904Y-104861961D02*
X193007142Y-104957200D01*
X193007142Y-104957200D02*
X193149999Y-105004819D01*
X193149999Y-105004819D02*
X193388094Y-105004819D01*
X191959523Y-104338152D02*
X191959523Y-105004819D01*
X192197618Y-103957200D02*
X192435713Y-104671485D01*
X192435713Y-104671485D02*
X191816666Y-104671485D01*
X201254819Y-80483333D02*
X200778628Y-80150000D01*
X201254819Y-79911905D02*
X200254819Y-79911905D01*
X200254819Y-79911905D02*
X200254819Y-80292857D01*
X200254819Y-80292857D02*
X200302438Y-80388095D01*
X200302438Y-80388095D02*
X200350057Y-80435714D01*
X200350057Y-80435714D02*
X200445295Y-80483333D01*
X200445295Y-80483333D02*
X200588152Y-80483333D01*
X200588152Y-80483333D02*
X200683390Y-80435714D01*
X200683390Y-80435714D02*
X200731009Y-80388095D01*
X200731009Y-80388095D02*
X200778628Y-80292857D01*
X200778628Y-80292857D02*
X200778628Y-79911905D01*
X200254819Y-80816667D02*
X200254819Y-81435714D01*
X200254819Y-81435714D02*
X200635771Y-81102381D01*
X200635771Y-81102381D02*
X200635771Y-81245238D01*
X200635771Y-81245238D02*
X200683390Y-81340476D01*
X200683390Y-81340476D02*
X200731009Y-81388095D01*
X200731009Y-81388095D02*
X200826247Y-81435714D01*
X200826247Y-81435714D02*
X201064342Y-81435714D01*
X201064342Y-81435714D02*
X201159580Y-81388095D01*
X201159580Y-81388095D02*
X201207200Y-81340476D01*
X201207200Y-81340476D02*
X201254819Y-81245238D01*
X201254819Y-81245238D02*
X201254819Y-80959524D01*
X201254819Y-80959524D02*
X201207200Y-80864286D01*
X201207200Y-80864286D02*
X201159580Y-80816667D01*
X189666666Y-91909580D02*
X189714285Y-91957200D01*
X189714285Y-91957200D02*
X189857142Y-92004819D01*
X189857142Y-92004819D02*
X189952380Y-92004819D01*
X189952380Y-92004819D02*
X190095237Y-91957200D01*
X190095237Y-91957200D02*
X190190475Y-91861961D01*
X190190475Y-91861961D02*
X190238094Y-91766723D01*
X190238094Y-91766723D02*
X190285713Y-91576247D01*
X190285713Y-91576247D02*
X190285713Y-91433390D01*
X190285713Y-91433390D02*
X190238094Y-91242914D01*
X190238094Y-91242914D02*
X190190475Y-91147676D01*
X190190475Y-91147676D02*
X190095237Y-91052438D01*
X190095237Y-91052438D02*
X189952380Y-91004819D01*
X189952380Y-91004819D02*
X189857142Y-91004819D01*
X189857142Y-91004819D02*
X189714285Y-91052438D01*
X189714285Y-91052438D02*
X189666666Y-91100057D01*
X189333332Y-91004819D02*
X188714285Y-91004819D01*
X188714285Y-91004819D02*
X189047618Y-91385771D01*
X189047618Y-91385771D02*
X188904761Y-91385771D01*
X188904761Y-91385771D02*
X188809523Y-91433390D01*
X188809523Y-91433390D02*
X188761904Y-91481009D01*
X188761904Y-91481009D02*
X188714285Y-91576247D01*
X188714285Y-91576247D02*
X188714285Y-91814342D01*
X188714285Y-91814342D02*
X188761904Y-91909580D01*
X188761904Y-91909580D02*
X188809523Y-91957200D01*
X188809523Y-91957200D02*
X188904761Y-92004819D01*
X188904761Y-92004819D02*
X189190475Y-92004819D01*
X189190475Y-92004819D02*
X189285713Y-91957200D01*
X189285713Y-91957200D02*
X189333332Y-91909580D01*
X201004819Y-102433333D02*
X200528628Y-102100000D01*
X201004819Y-101861905D02*
X200004819Y-101861905D01*
X200004819Y-101861905D02*
X200004819Y-102242857D01*
X200004819Y-102242857D02*
X200052438Y-102338095D01*
X200052438Y-102338095D02*
X200100057Y-102385714D01*
X200100057Y-102385714D02*
X200195295Y-102433333D01*
X200195295Y-102433333D02*
X200338152Y-102433333D01*
X200338152Y-102433333D02*
X200433390Y-102385714D01*
X200433390Y-102385714D02*
X200481009Y-102338095D01*
X200481009Y-102338095D02*
X200528628Y-102242857D01*
X200528628Y-102242857D02*
X200528628Y-101861905D01*
X200338152Y-103290476D02*
X201004819Y-103290476D01*
X199957200Y-103052381D02*
X200671485Y-102814286D01*
X200671485Y-102814286D02*
X200671485Y-103433333D01*
D12*
X147046547Y-91706450D02*
X147694166Y-91706450D01*
X147694166Y-91706450D02*
X147770356Y-91743704D01*
X147770356Y-91743704D02*
X147808452Y-91780957D01*
X147808452Y-91780957D02*
X147846547Y-91855464D01*
X147846547Y-91855464D02*
X147846547Y-92004477D01*
X147846547Y-92004477D02*
X147808452Y-92078984D01*
X147808452Y-92078984D02*
X147770356Y-92116237D01*
X147770356Y-92116237D02*
X147694166Y-92153490D01*
X147694166Y-92153490D02*
X147046547Y-92153490D01*
X147846547Y-92935810D02*
X147846547Y-92488770D01*
X147846547Y-92712290D02*
X147046547Y-92712290D01*
X147046547Y-92712290D02*
X147160832Y-92637783D01*
X147160832Y-92637783D02*
X147237023Y-92563277D01*
X147237023Y-92563277D02*
X147275118Y-92488770D01*
D11*
X128759580Y-109083333D02*
X128807200Y-109035714D01*
X128807200Y-109035714D02*
X128854819Y-108892857D01*
X128854819Y-108892857D02*
X128854819Y-108797619D01*
X128854819Y-108797619D02*
X128807200Y-108654762D01*
X128807200Y-108654762D02*
X128711961Y-108559524D01*
X128711961Y-108559524D02*
X128616723Y-108511905D01*
X128616723Y-108511905D02*
X128426247Y-108464286D01*
X128426247Y-108464286D02*
X128283390Y-108464286D01*
X128283390Y-108464286D02*
X128092914Y-108511905D01*
X128092914Y-108511905D02*
X127997676Y-108559524D01*
X127997676Y-108559524D02*
X127902438Y-108654762D01*
X127902438Y-108654762D02*
X127854819Y-108797619D01*
X127854819Y-108797619D02*
X127854819Y-108892857D01*
X127854819Y-108892857D02*
X127902438Y-109035714D01*
X127902438Y-109035714D02*
X127950057Y-109083333D01*
X127854819Y-109416667D02*
X127854819Y-110083333D01*
X127854819Y-110083333D02*
X128854819Y-109654762D01*
X168954819Y-80383333D02*
X168478628Y-80050000D01*
X168954819Y-79811905D02*
X167954819Y-79811905D01*
X167954819Y-79811905D02*
X167954819Y-80192857D01*
X167954819Y-80192857D02*
X168002438Y-80288095D01*
X168002438Y-80288095D02*
X168050057Y-80335714D01*
X168050057Y-80335714D02*
X168145295Y-80383333D01*
X168145295Y-80383333D02*
X168288152Y-80383333D01*
X168288152Y-80383333D02*
X168383390Y-80335714D01*
X168383390Y-80335714D02*
X168431009Y-80288095D01*
X168431009Y-80288095D02*
X168478628Y-80192857D01*
X168478628Y-80192857D02*
X168478628Y-79811905D01*
X168954819Y-81335714D02*
X168954819Y-80764286D01*
X168954819Y-81050000D02*
X167954819Y-81050000D01*
X167954819Y-81050000D02*
X168097676Y-80954762D01*
X168097676Y-80954762D02*
X168192914Y-80859524D01*
X168192914Y-80859524D02*
X168240533Y-80764286D01*
X178304819Y-75223333D02*
X177828628Y-74890000D01*
X178304819Y-74651905D02*
X177304819Y-74651905D01*
X177304819Y-74651905D02*
X177304819Y-75032857D01*
X177304819Y-75032857D02*
X177352438Y-75128095D01*
X177352438Y-75128095D02*
X177400057Y-75175714D01*
X177400057Y-75175714D02*
X177495295Y-75223333D01*
X177495295Y-75223333D02*
X177638152Y-75223333D01*
X177638152Y-75223333D02*
X177733390Y-75175714D01*
X177733390Y-75175714D02*
X177781009Y-75128095D01*
X177781009Y-75128095D02*
X177828628Y-75032857D01*
X177828628Y-75032857D02*
X177828628Y-74651905D01*
X178304819Y-75699524D02*
X178304819Y-75890000D01*
X178304819Y-75890000D02*
X178257200Y-75985238D01*
X178257200Y-75985238D02*
X178209580Y-76032857D01*
X178209580Y-76032857D02*
X178066723Y-76128095D01*
X178066723Y-76128095D02*
X177876247Y-76175714D01*
X177876247Y-76175714D02*
X177495295Y-76175714D01*
X177495295Y-76175714D02*
X177400057Y-76128095D01*
X177400057Y-76128095D02*
X177352438Y-76080476D01*
X177352438Y-76080476D02*
X177304819Y-75985238D01*
X177304819Y-75985238D02*
X177304819Y-75794762D01*
X177304819Y-75794762D02*
X177352438Y-75699524D01*
X177352438Y-75699524D02*
X177400057Y-75651905D01*
X177400057Y-75651905D02*
X177495295Y-75604286D01*
X177495295Y-75604286D02*
X177733390Y-75604286D01*
X177733390Y-75604286D02*
X177828628Y-75651905D01*
X177828628Y-75651905D02*
X177876247Y-75699524D01*
X177876247Y-75699524D02*
X177923866Y-75794762D01*
X177923866Y-75794762D02*
X177923866Y-75985238D01*
X177923866Y-75985238D02*
X177876247Y-76080476D01*
X177876247Y-76080476D02*
X177828628Y-76128095D01*
X177828628Y-76128095D02*
X177733390Y-76175714D01*
%TO.C,R7*%
D13*
X164280000Y-89830000D02*
X170820000Y-89830000D01*
X164280000Y-90160000D02*
X164280000Y-89830000D01*
X164280000Y-92240000D02*
X164280000Y-92570000D01*
X164280000Y-92570000D02*
X170820000Y-92570000D01*
X170820000Y-89830000D02*
X170820000Y-90160000D01*
X170820000Y-92570000D02*
X170820000Y-92240000D01*
%TO.C,D1*%
X153175000Y-83600000D02*
X153175000Y-87350000D01*
X153175000Y-87350000D02*
X159750000Y-87350000D01*
X160475000Y-83600000D02*
X153175000Y-83600000D01*
X160475000Y-86625000D02*
X159750000Y-87350000D01*
X160475000Y-86625000D02*
X160475000Y-83600000D01*
X159550000Y-86925000D02*
X159400000Y-87125000D01*
X159700000Y-87125000D01*
X159550000Y-86925000D01*
G36*
X159700000Y-87125000D02*
G01*
X159400000Y-87125000D01*
X159550000Y-86925000D01*
X159700000Y-87125000D01*
G37*
%TO.C,D6*%
X218200000Y-105500000D02*
X218200000Y-109250000D01*
X218200000Y-109250000D02*
X224775000Y-109250000D01*
X225500000Y-105500000D02*
X218200000Y-105500000D01*
X225500000Y-108525000D02*
X224775000Y-109250000D01*
X225500000Y-108525000D02*
X225500000Y-105500000D01*
X224575000Y-108825000D02*
X224425000Y-109025000D01*
X224725000Y-109025000D01*
X224575000Y-108825000D01*
G36*
X224725000Y-109025000D02*
G01*
X224425000Y-109025000D01*
X224575000Y-108825000D01*
X224725000Y-109025000D01*
G37*
%TO.C,C1*%
X154380000Y-90030000D02*
X154380000Y-90367000D01*
X154380000Y-92433000D02*
X154380000Y-92770000D01*
X154380000Y-92770000D02*
X159620000Y-92770000D01*
X159620000Y-90030000D02*
X154380000Y-90030000D01*
X159620000Y-90367000D02*
X159620000Y-90030000D01*
X159620000Y-92770000D02*
X159620000Y-92433000D01*
%TO.C,C2*%
X154305000Y-112080000D02*
X154305000Y-112417000D01*
X154305000Y-114483000D02*
X154305000Y-114820000D01*
X154305000Y-114820000D02*
X159545000Y-114820000D01*
X159545000Y-112080000D02*
X154305000Y-112080000D01*
X159545000Y-112417000D02*
X159545000Y-112080000D01*
X159545000Y-114820000D02*
X159545000Y-114483000D01*
%TO.C,C4*%
X186705000Y-111955000D02*
X186705000Y-112292000D01*
X186705000Y-114358000D02*
X186705000Y-114695000D01*
X186705000Y-114695000D02*
X191945000Y-114695000D01*
X191945000Y-111955000D02*
X186705000Y-111955000D01*
X191945000Y-112292000D02*
X191945000Y-111955000D01*
X191945000Y-114695000D02*
X191945000Y-114358000D01*
%TO.C,R2*%
X166955000Y-99180000D02*
X167285000Y-99180000D01*
X166955000Y-105720000D02*
X166955000Y-99180000D01*
X167285000Y-105720000D02*
X166955000Y-105720000D01*
X169365000Y-105720000D02*
X169695000Y-105720000D01*
X169695000Y-99180000D02*
X169365000Y-99180000D01*
X169695000Y-105720000D02*
X169695000Y-99180000D01*
%TO.C,R6*%
X232605000Y-99255000D02*
X232935000Y-99255000D01*
X232605000Y-105795000D02*
X232605000Y-99255000D01*
X232935000Y-105795000D02*
X232605000Y-105795000D01*
X235015000Y-105795000D02*
X235345000Y-105795000D01*
X235345000Y-99255000D02*
X235015000Y-99255000D01*
X235345000Y-105795000D02*
X235345000Y-99255000D01*
%TO.C,D2*%
X153225000Y-105525000D02*
X153225000Y-109275000D01*
X153225000Y-109275000D02*
X159800000Y-109275000D01*
X160525000Y-105525000D02*
X153225000Y-105525000D01*
X160525000Y-108550000D02*
X159800000Y-109275000D01*
X160525000Y-108550000D02*
X160525000Y-105525000D01*
X159600000Y-108850000D02*
X159450000Y-109050000D01*
X159750000Y-109050000D01*
X159600000Y-108850000D01*
G36*
X159750000Y-109050000D02*
G01*
X159450000Y-109050000D01*
X159600000Y-108850000D01*
X159750000Y-109050000D01*
G37*
%TO.C,D7*%
X173280000Y-104440000D02*
X173410000Y-104440000D01*
X173280000Y-109880000D02*
X173280000Y-104440000D01*
X173410000Y-109880000D02*
X173280000Y-109880000D01*
X176090000Y-109880000D02*
X176220000Y-109880000D01*
X176220000Y-104440000D02*
X176090000Y-104440000D01*
X176220000Y-108860000D02*
X173280000Y-108860000D01*
X176220000Y-108980000D02*
X173280000Y-108980000D01*
X176220000Y-109100000D02*
X173280000Y-109100000D01*
X176220000Y-109880000D02*
X176220000Y-104440000D01*
%TO.C,R5*%
X232730000Y-77330000D02*
X233060000Y-77330000D01*
X232730000Y-83870000D02*
X232730000Y-77330000D01*
X233060000Y-83870000D02*
X232730000Y-83870000D01*
X235140000Y-83870000D02*
X235470000Y-83870000D01*
X235470000Y-77330000D02*
X235140000Y-77330000D01*
X235470000Y-83870000D02*
X235470000Y-77330000D01*
%TO.C,C5*%
X219755000Y-90105000D02*
X219755000Y-90442000D01*
X219755000Y-92508000D02*
X219755000Y-92845000D01*
X219755000Y-92845000D02*
X224995000Y-92845000D01*
X224995000Y-90105000D02*
X219755000Y-90105000D01*
X224995000Y-90442000D02*
X224995000Y-90105000D01*
X224995000Y-92845000D02*
X224995000Y-92508000D01*
%TO.C,U3*%
D14*
X176480000Y-94600000D02*
X176480000Y-86600000D01*
X179590000Y-86280000D02*
X179070000Y-86280000D01*
X179590000Y-86280000D02*
X179590000Y-94920000D01*
X179590000Y-94920000D02*
X179070000Y-94920000D01*
D15*
X176460000Y-86120000D02*
G75*
G02*
X176400000Y-86120000I-30000J0D01*
G01*
X176400000Y-86120000D02*
G75*
G02*
X176460000Y-86120000I30000J0D01*
G01*
%TO.C,D3*%
D13*
X185675000Y-83675000D02*
X185675000Y-87425000D01*
X185675000Y-87425000D02*
X192250000Y-87425000D01*
X192975000Y-83675000D02*
X185675000Y-83675000D01*
X192975000Y-86700000D02*
X192250000Y-87425000D01*
X192975000Y-86700000D02*
X192975000Y-83675000D01*
X192050000Y-87000000D02*
X191900000Y-87200000D01*
X192200000Y-87200000D01*
X192050000Y-87000000D01*
G36*
X192200000Y-87200000D02*
G01*
X191900000Y-87200000D01*
X192050000Y-87000000D01*
X192200000Y-87200000D01*
G37*
%TO.C,C6*%
X219230000Y-112255000D02*
X219230000Y-112592000D01*
X219230000Y-114658000D02*
X219230000Y-114995000D01*
X219230000Y-114995000D02*
X224470000Y-114995000D01*
X224470000Y-112255000D02*
X219230000Y-112255000D01*
X224470000Y-112592000D02*
X224470000Y-112255000D01*
X224470000Y-114995000D02*
X224470000Y-114658000D01*
%TO.C,C8*%
X179820000Y-105880000D02*
X179483000Y-105880000D01*
X177417000Y-105880000D02*
X177080000Y-105880000D01*
X177080000Y-105880000D02*
X177080000Y-111120000D01*
X179820000Y-111120000D02*
X179820000Y-105880000D01*
X179483000Y-111120000D02*
X179820000Y-111120000D01*
X177080000Y-111120000D02*
X177417000Y-111120000D01*
%TO.C,D5*%
X218225000Y-83550000D02*
X218225000Y-87300000D01*
X218225000Y-87300000D02*
X224800000Y-87300000D01*
X225525000Y-83550000D02*
X218225000Y-83550000D01*
X225525000Y-86575000D02*
X224800000Y-87300000D01*
X225525000Y-86575000D02*
X225525000Y-83550000D01*
X224600000Y-86875000D02*
X224450000Y-87075000D01*
X224750000Y-87075000D01*
X224600000Y-86875000D01*
G36*
X224750000Y-87075000D02*
G01*
X224450000Y-87075000D01*
X224600000Y-86875000D01*
X224750000Y-87075000D01*
G37*
%TO.C,D4*%
X185675000Y-105500000D02*
X185675000Y-109250000D01*
X185675000Y-109250000D02*
X192250000Y-109250000D01*
X192975000Y-105500000D02*
X185675000Y-105500000D01*
X192975000Y-108525000D02*
X192250000Y-109250000D01*
X192975000Y-108525000D02*
X192975000Y-105500000D01*
X192050000Y-108825000D02*
X191900000Y-109025000D01*
X192200000Y-109025000D01*
X192050000Y-108825000D01*
G36*
X192200000Y-109025000D02*
G01*
X191900000Y-109025000D01*
X192050000Y-108825000D01*
X192200000Y-109025000D01*
G37*
%TO.C,R3*%
X199480000Y-77305000D02*
X199810000Y-77305000D01*
X199480000Y-83845000D02*
X199480000Y-77305000D01*
X199810000Y-83845000D02*
X199480000Y-83845000D01*
X201890000Y-83845000D02*
X202220000Y-83845000D01*
X202220000Y-77305000D02*
X201890000Y-77305000D01*
X202220000Y-83845000D02*
X202220000Y-77305000D01*
%TO.C,C3*%
X186880000Y-90155000D02*
X186880000Y-90492000D01*
X186880000Y-92558000D02*
X186880000Y-92895000D01*
X186880000Y-92895000D02*
X192120000Y-92895000D01*
X192120000Y-90155000D02*
X186880000Y-90155000D01*
X192120000Y-90492000D02*
X192120000Y-90155000D01*
X192120000Y-92895000D02*
X192120000Y-92558000D01*
%TO.C,R4*%
X199305000Y-99255000D02*
X199635000Y-99255000D01*
X199305000Y-105795000D02*
X199305000Y-99255000D01*
X199635000Y-105795000D02*
X199305000Y-105795000D01*
X201715000Y-105795000D02*
X202045000Y-105795000D01*
X202045000Y-99255000D02*
X201715000Y-99255000D01*
X202045000Y-105795000D02*
X202045000Y-99255000D01*
%TO.C,U1*%
D10*
X146410000Y-84810000D02*
X146410000Y-98780000D01*
X145852038Y-83462962D02*
G75*
G02*
X146409999Y-84810001I-1347038J-1347038D01*
G01*
X146409999Y-98780000D02*
G75*
G02*
X145852038Y-100127038I-1904999J0D01*
G01*
D16*
X126744000Y-81905000D02*
G75*
G02*
X126240000Y-81905000I-252000J0D01*
G01*
X126240000Y-81905000D02*
G75*
G02*
X126744000Y-81905000I252000J0D01*
G01*
X126744000Y-83838000D02*
G75*
G02*
X126240000Y-83838000I-252000J0D01*
G01*
X126240000Y-83838000D02*
G75*
G02*
X126744000Y-83838000I252000J0D01*
G01*
%TO.C,C7*%
D13*
X127030000Y-106630000D02*
X127030000Y-111870000D01*
X127030000Y-111870000D02*
X127367000Y-111870000D01*
X127367000Y-106630000D02*
X127030000Y-106630000D01*
X129433000Y-111870000D02*
X129770000Y-111870000D01*
X129770000Y-106630000D02*
X129433000Y-106630000D01*
X129770000Y-111870000D02*
X129770000Y-106630000D01*
%TO.C,R1*%
X167205000Y-77330000D02*
X167535000Y-77330000D01*
X167205000Y-83870000D02*
X167205000Y-77330000D01*
X167535000Y-83870000D02*
X167205000Y-83870000D01*
X169615000Y-83870000D02*
X169945000Y-83870000D01*
X169945000Y-77330000D02*
X169615000Y-77330000D01*
X169945000Y-83870000D02*
X169945000Y-77330000D01*
%TO.C,R9*%
X176480000Y-72130000D02*
X176810000Y-72130000D01*
X176480000Y-78670000D02*
X176480000Y-72130000D01*
X176810000Y-78670000D02*
X176480000Y-78670000D01*
X178890000Y-78670000D02*
X179220000Y-78670000D01*
X179220000Y-72130000D02*
X178890000Y-72130000D01*
X179220000Y-78670000D02*
X179220000Y-72130000D01*
%TD*%
M02*
