%TF.GenerationSoftware,KiCad,Pcbnew,10.0.5*%
%TF.CreationDate,2026-08-02T16:44:24+02:00*%
%TF.ProjectId,Radio Ident,52616469-6f20-4496-9465-6e742e6b6963,rev?*%
%TF.SameCoordinates,Original*%
%TF.FileFunction,Soldermask,Bot*%
%TF.FilePolarity,Negative*%
%FSLAX46Y46*%
G04 Gerber Fmt 4.6, Leading zero omitted, Abs format (unit mm)*
G04 Created by KiCad (PCBNEW 10.0.5) date 2026-08-02 16:44:24*
%MOMM*%
%LPD*%
G01*
G04 APERTURE LIST*
G04 Aperture macros list*
%AMRoundRect*
0 Rectangle with rounded corners*
0 $1 Rounding radius*
0 $2 $3 $4 $5 $6 $7 $8 $9 X,Y pos of 4 corners*
0 Add a 4 corners polygon primitive as box body*
4,1,4,$2,$3,$4,$5,$6,$7,$8,$9,$2,$3,0*
0 Add four circle primitives for the rounded corners*
1,1,$1+$1,$2,$3*
1,1,$1+$1,$4,$5*
1,1,$1+$1,$6,$7*
1,1,$1+$1,$8,$9*
0 Add four rect primitives between the rounded corners*
20,1,$1+$1,$2,$3,$4,$5,0*
20,1,$1+$1,$4,$5,$6,$7,0*
20,1,$1+$1,$6,$7,$8,$9,0*
20,1,$1+$1,$8,$9,$2,$3,0*%
G04 Aperture macros list end*
%ADD10C,3.009467*%
%ADD11C,5.050000*%
%ADD12C,2.200000*%
%ADD13C,1.600000*%
%ADD14RoundRect,0.205000X0.470000X0.205000X-0.470000X0.205000X-0.470000X-0.205000X0.470000X-0.205000X0*%
%ADD15RoundRect,0.249999X0.850001X-0.850001X0.850001X0.850001X-0.850001X0.850001X-0.850001X-0.850001X0*%
%ADD16O,2.200000X1.000000*%
%ADD17O,1.300000X0.800000*%
%ADD18RoundRect,0.550800X-0.500000X0.875000X-0.500000X-0.875000X0.500000X-0.875000X0.500000X0.875000X0*%
%ADD19C,1.700000*%
%ADD20RoundRect,0.275000X0.275000X-0.975000X0.275000X0.975000X-0.275000X0.975000X-0.275000X-0.975000X0*%
G04 APERTURE END LIST*
D10*
X137795266Y-76600000D02*
G75*
G02*
X134785800Y-76600000I-1504733J0D01*
G01*
X134785800Y-76600000D02*
G75*
G02*
X137795266Y-76600000I1504733J0D01*
G01*
X137795266Y-106600000D02*
G75*
G02*
X134785800Y-106600000I-1504733J0D01*
G01*
X134785800Y-106600000D02*
G75*
G02*
X137795266Y-106600000I1504733J0D01*
G01*
X243804733Y-106590533D02*
G75*
G02*
X240795267Y-106590533I-1504733J0D01*
G01*
X240795267Y-106590533D02*
G75*
G02*
X243804733Y-106590533I1504733J0D01*
G01*
X243854733Y-76590533D02*
G75*
G02*
X240845267Y-76590533I-1504733J0D01*
G01*
X240845267Y-76590533D02*
G75*
G02*
X243854733Y-76590533I1504733J0D01*
G01*
D11*
%TO.C,SW1*%
X156800000Y-80550000D03*
D12*
X156800000Y-74650000D03*
X161800000Y-76750000D03*
%TD*%
D11*
%TO.C,SW4*%
X189300000Y-102550000D03*
D12*
X189300000Y-96650000D03*
X194300000Y-98750000D03*
%TD*%
D11*
%TO.C,SW2*%
X156800000Y-102550000D03*
D12*
X156800000Y-96650000D03*
X161800000Y-98750000D03*
%TD*%
D11*
%TO.C,SW3*%
X189300000Y-80550000D03*
D12*
X189300000Y-74650000D03*
X194300000Y-76750000D03*
%TD*%
D11*
%TO.C,SW5*%
X221800000Y-80550000D03*
D12*
X221800000Y-74650000D03*
X226800000Y-76750000D03*
%TD*%
D11*
%TO.C,SW6*%
X221825000Y-102550000D03*
D12*
X221825000Y-96650000D03*
X226825000Y-98750000D03*
%TD*%
D13*
%TO.C,R7*%
X163740000Y-91200000D03*
X171360000Y-91200000D03*
%TD*%
D14*
%TO.C,D1*%
X159550000Y-86225000D03*
X159550000Y-84725000D03*
X154100000Y-84725000D03*
X154100000Y-86225000D03*
%TD*%
%TO.C,D6*%
X224575000Y-108125000D03*
X224575000Y-106625000D03*
X219125000Y-106625000D03*
X219125000Y-108125000D03*
%TD*%
D13*
%TO.C,C1*%
X154500000Y-91400000D03*
X159500000Y-91400000D03*
%TD*%
%TO.C,C2*%
X154425000Y-113450000D03*
X159425000Y-113450000D03*
%TD*%
%TO.C,C4*%
X186825000Y-113325000D03*
X191825000Y-113325000D03*
%TD*%
%TO.C,R2*%
X168325000Y-106260000D03*
X168325000Y-98640000D03*
%TD*%
%TO.C,R6*%
X233975000Y-106335000D03*
X233975000Y-98715000D03*
%TD*%
D14*
%TO.C,D2*%
X159600000Y-108150000D03*
X159600000Y-106650000D03*
X154150000Y-106650000D03*
X154150000Y-108150000D03*
%TD*%
D15*
%TO.C,D7*%
X174750000Y-110970000D03*
D12*
X174750000Y-103350000D03*
%TD*%
D13*
%TO.C,R5*%
X234100000Y-84410000D03*
X234100000Y-76790000D03*
%TD*%
%TO.C,C5*%
X219875000Y-91475000D03*
X224875000Y-91475000D03*
%TD*%
D16*
%TO.C,U3*%
X177740000Y-86280000D03*
X177740000Y-94920000D03*
D17*
X178000000Y-90000000D03*
X178000000Y-92400000D03*
X178000000Y-93600000D03*
X178000000Y-91200000D03*
X178000000Y-88800000D03*
X178000000Y-87600000D03*
%TD*%
D14*
%TO.C,D3*%
X192050000Y-86300000D03*
X192050000Y-84800000D03*
X186600000Y-84800000D03*
X186600000Y-86300000D03*
%TD*%
D13*
%TO.C,C6*%
X219350000Y-113625000D03*
X224350000Y-113625000D03*
%TD*%
%TO.C,C8*%
X178450000Y-111000000D03*
X178450000Y-106000000D03*
%TD*%
D14*
%TO.C,D5*%
X224600000Y-86175000D03*
X224600000Y-84675000D03*
X219150000Y-84675000D03*
X219150000Y-86175000D03*
%TD*%
%TO.C,D4*%
X192050000Y-108125000D03*
X192050000Y-106625000D03*
X186600000Y-106625000D03*
X186600000Y-108125000D03*
%TD*%
D13*
%TO.C,R3*%
X200850000Y-84385000D03*
X200850000Y-76765000D03*
%TD*%
%TO.C,C3*%
X187000000Y-91525000D03*
X192000000Y-91525000D03*
%TD*%
%TO.C,R4*%
X200675000Y-106335000D03*
X200675000Y-98715000D03*
%TD*%
D18*
%TO.C,U1*%
X128372000Y-83740000D03*
X130912000Y-83740000D03*
X133452000Y-83740000D03*
X135992000Y-83740000D03*
X138532000Y-83740000D03*
X141072000Y-83740000D03*
X143612000Y-83740000D03*
X143612000Y-99905000D03*
X141072000Y-99905000D03*
X138532000Y-99905000D03*
X135992000Y-99905000D03*
X133452000Y-99905000D03*
X130912000Y-99905000D03*
X128372000Y-99905000D03*
D19*
X127360000Y-90525000D03*
X127360000Y-93065000D03*
X129900000Y-90525000D03*
X129900000Y-93065000D03*
X132440000Y-90525000D03*
X132440000Y-93065000D03*
D20*
X135610000Y-87350000D03*
X133705000Y-87350000D03*
%TD*%
D13*
%TO.C,C7*%
X128400000Y-106750000D03*
X128400000Y-111750000D03*
%TD*%
%TO.C,R1*%
X168575000Y-84410000D03*
X168575000Y-76790000D03*
%TD*%
%TO.C,R9*%
X177850000Y-79210000D03*
X177850000Y-71590000D03*
%TD*%
M02*
