%TF.GenerationSoftware,KiCad,Pcbnew,10.0.5*%
%TF.CreationDate,2026-08-02T16:44:24+02:00*%
%TF.ProjectId,Radio Ident,52616469-6f20-4496-9465-6e742e6b6963,rev?*%
%TF.SameCoordinates,Original*%
%TF.FileFunction,Profile,NP*%
%FSLAX46Y46*%
G04 Gerber Fmt 4.6, Leading zero omitted, Abs format (unit mm)*
G04 Created by KiCad (PCBNEW 10.0.5) date 2026-08-02 16:44:24*
%MOMM*%
%LPD*%
G01*
G04 APERTURE LIST*
%TA.AperFunction,Profile*%
%ADD10C,0.050000*%
%TD*%
%TA.AperFunction,Profile*%
%ADD11C,0.120000*%
%TD*%
G04 APERTURE END LIST*
D10*
X125300000Y-69500000D02*
X125300000Y-69500000D01*
G75*
G02*
X127300000Y-67500000I2000000J0D01*
G01*
X246100000Y-67500000D01*
G75*
G02*
X248100000Y-69500000I0J-2000000D01*
G01*
X248100000Y-114350000D01*
G75*
G02*
X246100000Y-116350000I-2000000J0D01*
G01*
X127300000Y-116350000D01*
G75*
G02*
X125300000Y-114350000I0J2000000D01*
G01*
X125300000Y-69500000D01*
X137887648Y-106625000D02*
G75*
G02*
X134712352Y-106625000I-1587648J0D01*
G01*
X134712352Y-106625000D02*
G75*
G02*
X137887648Y-106625000I1587648J0D01*
G01*
X137921087Y-76600000D02*
G75*
G02*
X134728913Y-76600000I-1596087J0D01*
G01*
X134728913Y-76600000D02*
G75*
G02*
X137921087Y-76600000I1596087J0D01*
G01*
X243895306Y-106600000D02*
G75*
G02*
X240704694Y-106600000I-1595306J0D01*
G01*
X240704694Y-106600000D02*
G75*
G02*
X243895306Y-106600000I1595306J0D01*
G01*
X243890248Y-76600000D02*
G75*
G02*
X240759752Y-76600000I-1565248J0D01*
G01*
X240759752Y-76600000D02*
G75*
G02*
X243890248Y-76600000I1565248J0D01*
G01*
%TO.C,D1*%
D11*
X155125000Y-85475000D02*
X155125000Y-84774647D01*
X155125000Y-85475000D02*
X155125000Y-86175353D01*
X156825000Y-83975000D02*
X155924647Y-83975000D01*
X156825000Y-83975000D02*
X157725353Y-83975000D01*
X156825000Y-86975000D02*
X155924647Y-86975000D01*
X156825000Y-86975000D02*
X157725353Y-86975000D01*
X158525000Y-85475000D02*
X158525000Y-84774647D01*
X158525000Y-85475000D02*
X158525000Y-86175353D01*
X155081066Y-84618345D02*
G75*
G02*
X155124976Y-84774647I-256066J-156255D01*
G01*
X155081066Y-84618345D02*
G75*
G02*
X155768345Y-83931066I426774J260505D01*
G01*
X155125000Y-86175353D02*
G75*
G02*
X155081065Y-86331654I-299680J-87D01*
G01*
X155768345Y-87018934D02*
G75*
G02*
X155081066Y-86331655I-260505J426774D01*
G01*
X155768345Y-87018934D02*
G75*
G02*
X155924647Y-86975024I156255J-256066D01*
G01*
X155924647Y-83975000D02*
G75*
G02*
X155768344Y-83931067I3J300020D01*
G01*
X157725353Y-86975000D02*
G75*
G02*
X157881655Y-87018934I3J-299992D01*
G01*
X157881655Y-83931066D02*
G75*
G02*
X157725353Y-83975000I-156299J256058D01*
G01*
X157881655Y-83931066D02*
G75*
G02*
X158568934Y-84618345I260503J-426776D01*
G01*
X158525000Y-84774647D02*
G75*
G02*
X158568934Y-84618345I299992J3D01*
G01*
X158568934Y-86331655D02*
G75*
G02*
X157881655Y-87018934I-426776J-260503D01*
G01*
X158568934Y-86331655D02*
G75*
G02*
X158525000Y-86175353I256058J156299D01*
G01*
%TO.C,D6*%
X220150000Y-107375000D02*
X220150000Y-106674647D01*
X220150000Y-107375000D02*
X220150000Y-108075353D01*
X221850000Y-105875000D02*
X220949647Y-105875000D01*
X221850000Y-105875000D02*
X222750353Y-105875000D01*
X221850000Y-108875000D02*
X220949647Y-108875000D01*
X221850000Y-108875000D02*
X222750353Y-108875000D01*
X223550000Y-107375000D02*
X223550000Y-106674647D01*
X223550000Y-107375000D02*
X223550000Y-108075353D01*
X220106066Y-106518345D02*
G75*
G02*
X220149976Y-106674647I-256066J-156255D01*
G01*
X220106066Y-106518345D02*
G75*
G02*
X220793345Y-105831066I426774J260505D01*
G01*
X220150000Y-108075353D02*
G75*
G02*
X220106065Y-108231654I-299680J-87D01*
G01*
X220793345Y-108918934D02*
G75*
G02*
X220106066Y-108231655I-260505J426774D01*
G01*
X220793345Y-108918934D02*
G75*
G02*
X220949647Y-108875024I156255J-256066D01*
G01*
X220949647Y-105875000D02*
G75*
G02*
X220793344Y-105831067I3J300020D01*
G01*
X222750353Y-108875000D02*
G75*
G02*
X222906655Y-108918934I3J-299992D01*
G01*
X222906655Y-105831066D02*
G75*
G02*
X222750353Y-105875000I-156299J256058D01*
G01*
X222906655Y-105831066D02*
G75*
G02*
X223593934Y-106518345I260503J-426776D01*
G01*
X223550000Y-106674647D02*
G75*
G02*
X223593934Y-106518345I299992J3D01*
G01*
X223593934Y-108231655D02*
G75*
G02*
X222906655Y-108918934I-426776J-260503D01*
G01*
X223593934Y-108231655D02*
G75*
G02*
X223550000Y-108075353I256058J156299D01*
G01*
%TO.C,D2*%
X155175000Y-107400000D02*
X155175000Y-106699647D01*
X155175000Y-107400000D02*
X155175000Y-108100353D01*
X156875000Y-105900000D02*
X155974647Y-105900000D01*
X156875000Y-105900000D02*
X157775353Y-105900000D01*
X156875000Y-108900000D02*
X155974647Y-108900000D01*
X156875000Y-108900000D02*
X157775353Y-108900000D01*
X158575000Y-107400000D02*
X158575000Y-106699647D01*
X158575000Y-107400000D02*
X158575000Y-108100353D01*
X155131066Y-106543345D02*
G75*
G02*
X155174976Y-106699647I-256066J-156255D01*
G01*
X155131066Y-106543345D02*
G75*
G02*
X155818345Y-105856066I426774J260505D01*
G01*
X155175000Y-108100353D02*
G75*
G02*
X155131065Y-108256654I-299680J-87D01*
G01*
X155818345Y-108943934D02*
G75*
G02*
X155131066Y-108256655I-260505J426774D01*
G01*
X155818345Y-108943934D02*
G75*
G02*
X155974647Y-108900024I156255J-256066D01*
G01*
X155974647Y-105900000D02*
G75*
G02*
X155818344Y-105856067I3J300020D01*
G01*
X157775353Y-108900000D02*
G75*
G02*
X157931655Y-108943934I3J-299992D01*
G01*
X157931655Y-105856066D02*
G75*
G02*
X157775353Y-105900000I-156299J256058D01*
G01*
X157931655Y-105856066D02*
G75*
G02*
X158618934Y-106543345I260503J-426776D01*
G01*
X158575000Y-106699647D02*
G75*
G02*
X158618934Y-106543345I299992J3D01*
G01*
X158618934Y-108256655D02*
G75*
G02*
X157931655Y-108943934I-426776J-260503D01*
G01*
X158618934Y-108256655D02*
G75*
G02*
X158575000Y-108100353I256058J156299D01*
G01*
%TO.C,D3*%
X187625000Y-85550000D02*
X187625000Y-84849647D01*
X187625000Y-85550000D02*
X187625000Y-86250353D01*
X189325000Y-84050000D02*
X188424647Y-84050000D01*
X189325000Y-84050000D02*
X190225353Y-84050000D01*
X189325000Y-87050000D02*
X188424647Y-87050000D01*
X189325000Y-87050000D02*
X190225353Y-87050000D01*
X191025000Y-85550000D02*
X191025000Y-84849647D01*
X191025000Y-85550000D02*
X191025000Y-86250353D01*
X187581066Y-84693345D02*
G75*
G02*
X187624976Y-84849647I-256066J-156255D01*
G01*
X187581066Y-84693345D02*
G75*
G02*
X188268345Y-84006066I426774J260505D01*
G01*
X187625000Y-86250353D02*
G75*
G02*
X187581065Y-86406654I-299680J-87D01*
G01*
X188268345Y-87093934D02*
G75*
G02*
X187581066Y-86406655I-260505J426774D01*
G01*
X188268345Y-87093934D02*
G75*
G02*
X188424647Y-87050024I156255J-256066D01*
G01*
X188424647Y-84050000D02*
G75*
G02*
X188268344Y-84006067I3J300020D01*
G01*
X190225353Y-87050000D02*
G75*
G02*
X190381655Y-87093934I3J-299992D01*
G01*
X190381655Y-84006066D02*
G75*
G02*
X190225353Y-84050000I-156299J256058D01*
G01*
X190381655Y-84006066D02*
G75*
G02*
X191068934Y-84693345I260503J-426776D01*
G01*
X191025000Y-84849647D02*
G75*
G02*
X191068934Y-84693345I299992J3D01*
G01*
X191068934Y-86406655D02*
G75*
G02*
X190381655Y-87093934I-426776J-260503D01*
G01*
X191068934Y-86406655D02*
G75*
G02*
X191025000Y-86250353I256058J156299D01*
G01*
%TO.C,D5*%
X220175000Y-85425000D02*
X220175000Y-84724647D01*
X220175000Y-85425000D02*
X220175000Y-86125353D01*
X221875000Y-83925000D02*
X220974647Y-83925000D01*
X221875000Y-83925000D02*
X222775353Y-83925000D01*
X221875000Y-86925000D02*
X220974647Y-86925000D01*
X221875000Y-86925000D02*
X222775353Y-86925000D01*
X223575000Y-85425000D02*
X223575000Y-84724647D01*
X223575000Y-85425000D02*
X223575000Y-86125353D01*
X220131066Y-84568345D02*
G75*
G02*
X220174976Y-84724647I-256066J-156255D01*
G01*
X220131066Y-84568345D02*
G75*
G02*
X220818345Y-83881066I426774J260505D01*
G01*
X220175000Y-86125353D02*
G75*
G02*
X220131065Y-86281654I-299680J-87D01*
G01*
X220818345Y-86968934D02*
G75*
G02*
X220131066Y-86281655I-260505J426774D01*
G01*
X220818345Y-86968934D02*
G75*
G02*
X220974647Y-86925024I156255J-256066D01*
G01*
X220974647Y-83925000D02*
G75*
G02*
X220818344Y-83881067I3J300020D01*
G01*
X222775353Y-86925000D02*
G75*
G02*
X222931655Y-86968934I3J-299992D01*
G01*
X222931655Y-83881066D02*
G75*
G02*
X222775353Y-83925000I-156299J256058D01*
G01*
X222931655Y-83881066D02*
G75*
G02*
X223618934Y-84568345I260503J-426776D01*
G01*
X223575000Y-84724647D02*
G75*
G02*
X223618934Y-84568345I299992J3D01*
G01*
X223618934Y-86281655D02*
G75*
G02*
X222931655Y-86968934I-426776J-260503D01*
G01*
X223618934Y-86281655D02*
G75*
G02*
X223575000Y-86125353I256058J156299D01*
G01*
%TO.C,D4*%
X187625000Y-107375000D02*
X187625000Y-106674647D01*
X187625000Y-107375000D02*
X187625000Y-108075353D01*
X189325000Y-105875000D02*
X188424647Y-105875000D01*
X189325000Y-105875000D02*
X190225353Y-105875000D01*
X189325000Y-108875000D02*
X188424647Y-108875000D01*
X189325000Y-108875000D02*
X190225353Y-108875000D01*
X191025000Y-107375000D02*
X191025000Y-106674647D01*
X191025000Y-107375000D02*
X191025000Y-108075353D01*
X187581066Y-106518345D02*
G75*
G02*
X187624976Y-106674647I-256066J-156255D01*
G01*
X187581066Y-106518345D02*
G75*
G02*
X188268345Y-105831066I426774J260505D01*
G01*
X187625000Y-108075353D02*
G75*
G02*
X187581065Y-108231654I-299680J-87D01*
G01*
X188268345Y-108918934D02*
G75*
G02*
X187581066Y-108231655I-260505J426774D01*
G01*
X188268345Y-108918934D02*
G75*
G02*
X188424647Y-108875024I156255J-256066D01*
G01*
X188424647Y-105875000D02*
G75*
G02*
X188268344Y-105831067I3J300020D01*
G01*
X190225353Y-108875000D02*
G75*
G02*
X190381655Y-108918934I3J-299992D01*
G01*
X190381655Y-105831066D02*
G75*
G02*
X190225353Y-105875000I-156299J256058D01*
G01*
X190381655Y-105831066D02*
G75*
G02*
X191068934Y-106518345I260503J-426776D01*
G01*
X191025000Y-106674647D02*
G75*
G02*
X191068934Y-106518345I299992J3D01*
G01*
X191068934Y-108231655D02*
G75*
G02*
X190381655Y-108918934I-426776J-260503D01*
G01*
X191068934Y-108231655D02*
G75*
G02*
X191025000Y-108075353I256058J156299D01*
G01*
%TD*%
M02*
