%TF.GenerationSoftware,KiCad,Pcbnew,10.0.5*%
%TF.CreationDate,2026-08-02T16:44:24+02:00*%
%TF.ProjectId,Radio Ident,52616469-6f20-4496-9465-6e742e6b6963,rev?*%
%TF.SameCoordinates,Original*%
%TF.FileFunction,Copper,L1,Top*%
%TF.FilePolarity,Positive*%
%FSLAX46Y46*%
G04 Gerber Fmt 4.6, Leading zero omitted, Abs format (unit mm)*
G04 Created by KiCad (PCBNEW 10.0.5) date 2026-08-02 16:44:24*
%MOMM*%
%LPD*%
G01*
G04 APERTURE LIST*
G04 Aperture macros list*
%AMRoundRect*
0 Rectangle with rounded corners*
0 $1 Rounding radius*
0 $2 $3 $4 $5 $6 $7 $8 $9 X,Y pos of 4 corners*
0 Add a 4 corners polygon primitive as box body*
4,1,4,$2,$3,$4,$5,$6,$7,$8,$9,$2,$3,0*
0 Add four circle primitives for the rounded corners*
1,1,$1+$1,$2,$3*
1,1,$1+$1,$4,$5*
1,1,$1+$1,$6,$7*
1,1,$1+$1,$8,$9*
0 Add four rect primitives between the rounded corners*
20,1,$1+$1,$2,$3,$4,$5,0*
20,1,$1+$1,$4,$5,$6,$7,0*
20,1,$1+$1,$6,$7,$8,$9,0*
20,1,$1+$1,$8,$9,$2,$3,0*%
G04 Aperture macros list end*
%TA.AperFunction,ComponentPad*%
%ADD10C,2.200000*%
%TD*%
%TA.AperFunction,ComponentPad*%
%ADD11C,1.600000*%
%TD*%
%TA.AperFunction,ComponentPad*%
%ADD12RoundRect,0.249999X0.850001X-0.850001X0.850001X0.850001X-0.850001X0.850001X-0.850001X-0.850001X0*%
%TD*%
%TA.AperFunction,ComponentPad*%
%ADD13O,2.200000X1.000000*%
%TD*%
%TA.AperFunction,ComponentPad*%
%ADD14O,1.300000X0.800000*%
%TD*%
%TA.AperFunction,ViaPad*%
%ADD15C,0.800000*%
%TD*%
%TA.AperFunction,ViaPad*%
%ADD16C,0.600000*%
%TD*%
%TA.AperFunction,Conductor*%
%ADD17C,1.200000*%
%TD*%
%TA.AperFunction,Conductor*%
%ADD18C,0.200000*%
%TD*%
G04 APERTURE END LIST*
D10*
%TO.P,SW1,1,1_1*%
%TO.N,GND*%
X156800000Y-74650000D03*
%TO.P,SW1,2,2_2*%
%TO.N,SW1_COM*%
X161800000Y-76750000D03*
%TD*%
%TO.P,SW4,1,1_1*%
%TO.N,GND*%
X189300000Y-96650000D03*
%TO.P,SW4,2,2_2*%
%TO.N,SW4_COM*%
X194300000Y-98750000D03*
%TD*%
%TO.P,SW2,1,1_1*%
%TO.N,GND*%
X156800000Y-96650000D03*
%TO.P,SW2,2,2_2*%
%TO.N,SW2_COM*%
X161800000Y-98750000D03*
%TD*%
%TO.P,SW3,1,1_1*%
%TO.N,GND*%
X189300000Y-74650000D03*
%TO.P,SW3,2,2_2*%
%TO.N,SW3_COM*%
X194300000Y-76750000D03*
%TD*%
%TO.P,SW5,1,1_1*%
%TO.N,GND*%
X221800000Y-74650000D03*
%TO.P,SW5,2,2_2*%
%TO.N,SW5_COM*%
X226800000Y-76750000D03*
%TD*%
%TO.P,SW6,1,1_1*%
%TO.N,GND*%
X221825000Y-96650000D03*
%TO.P,SW6,2,2_2*%
%TO.N,SW6_COM*%
X226825000Y-98750000D03*
%TD*%
D11*
%TO.P,R7,1*%
%TO.N,GND*%
X163740000Y-91200000D03*
%TO.P,R7,2*%
%TO.N,Net-(U3-CC1)*%
X171360000Y-91200000D03*
%TD*%
%TO.P,C1,1,~_1*%
%TO.N,+5V*%
X154500000Y-91400000D03*
%TO.P,C1,2,~_2*%
%TO.N,GND*%
X159500000Y-91400000D03*
%TD*%
%TO.P,C2,1,~_1*%
%TO.N,+5V*%
X154425000Y-113450000D03*
%TO.P,C2,2,~_2*%
%TO.N,GND*%
X159425000Y-113450000D03*
%TD*%
%TO.P,C4,1,~_1*%
%TO.N,+5V*%
X186825000Y-113325000D03*
%TO.P,C4,2,~_2*%
%TO.N,GND*%
X191825000Y-113325000D03*
%TD*%
%TO.P,R2,1,~_1*%
%TO.N,+3.3V*%
X168325000Y-106260000D03*
%TO.P,R2,2,~_2*%
%TO.N,SW2_COM*%
X168325000Y-98640000D03*
%TD*%
%TO.P,R6,1,~_1*%
%TO.N,+3.3V*%
X233975000Y-106335000D03*
%TO.P,R6,2,~_2*%
%TO.N,SW6_COM*%
X233975000Y-98715000D03*
%TD*%
D12*
%TO.P,D7,1,K_1*%
%TO.N,+5V*%
X174750000Y-110970000D03*
D10*
%TO.P,D7,2,A_2*%
%TO.N,Net-(D7-A)*%
X174750000Y-103350000D03*
%TD*%
D11*
%TO.P,R5,1,~_1*%
%TO.N,+3.3V*%
X234100000Y-84410000D03*
%TO.P,R5,2,~_2*%
%TO.N,SW5_COM*%
X234100000Y-76790000D03*
%TD*%
%TO.P,C5,1,~_1*%
%TO.N,+5V*%
X219875000Y-91475000D03*
%TO.P,C5,2,~_2*%
%TO.N,GND*%
X224875000Y-91475000D03*
%TD*%
D13*
%TO.P,U3,7,EP_7*%
%TO.N,GND*%
X177740000Y-86280000D03*
X177740000Y-94920000D03*
D14*
%TO.P,U3,A5,CC1_A5*%
%TO.N,Net-(U3-CC1)*%
X178000000Y-90000000D03*
%TO.P,U3,A9,VBUS_A9*%
%TO.N,Net-(D7-A)*%
X178000000Y-92400000D03*
%TO.P,U3,A12,GND_A12*%
%TO.N,GND*%
X178000000Y-93600000D03*
%TO.P,U3,B5,CC2_B5*%
%TO.N,Net-(U3-CC2)*%
X178000000Y-91200000D03*
%TO.P,U3,B9,VBUS_B9*%
%TO.N,Net-(D7-A)*%
X178000000Y-88800000D03*
%TO.P,U3,B12,GND_B12*%
%TO.N,GND*%
X178000000Y-87600000D03*
%TD*%
D11*
%TO.P,C6,1,~_1*%
%TO.N,+5V*%
X219350000Y-113625000D03*
%TO.P,C6,2,~_2*%
%TO.N,GND*%
X224350000Y-113625000D03*
%TD*%
%TO.P,C8,1,~_1*%
%TO.N,+5V*%
X178450000Y-111000000D03*
%TO.P,C8,2,~_2*%
%TO.N,GND*%
X178450000Y-106000000D03*
%TD*%
%TO.P,R3,1,~_1*%
%TO.N,+3.3V*%
X200850000Y-84385000D03*
%TO.P,R3,2,~_2*%
%TO.N,SW3_COM*%
X200850000Y-76765000D03*
%TD*%
%TO.P,C3,1,~_1*%
%TO.N,+5V*%
X187000000Y-91525000D03*
%TO.P,C3,2,~_2*%
%TO.N,GND*%
X192000000Y-91525000D03*
%TD*%
%TO.P,R4,1,~_1*%
%TO.N,+3.3V*%
X200675000Y-106335000D03*
%TO.P,R4,2,~_2*%
%TO.N,SW4_COM*%
X200675000Y-98715000D03*
%TD*%
%TO.P,C7,1,~_1*%
%TO.N,+5V*%
X128400000Y-106750000D03*
%TO.P,C7,2,~_2*%
%TO.N,GND*%
X128400000Y-111750000D03*
%TD*%
%TO.P,R1,1,~_1*%
%TO.N,+3.3V*%
X168575000Y-84410000D03*
%TO.P,R1,2,~_2*%
%TO.N,SW1_COM*%
X168575000Y-76790000D03*
%TD*%
%TO.P,R9,1*%
%TO.N,Net-(U3-CC2)*%
X177850000Y-79210000D03*
%TO.P,R9,2*%
%TO.N,GND*%
X177850000Y-71590000D03*
%TD*%
D15*
%TO.N,GND*%
X130912000Y-102912000D03*
%TO.N,SW1_COM*%
X130900000Y-81200000D03*
X139800000Y-79300000D03*
%TO.N,DIN*%
X161300000Y-82450000D03*
X146700000Y-71650000D03*
%TO.N,+5V*%
X133200000Y-111550000D03*
%TO.N,Net-(D1-DOUT)*%
X156750000Y-93550000D03*
X161650000Y-106650000D03*
%TO.N,+3.3V*%
X133400000Y-96100000D03*
%TO.N,Net-(D2-DOUT)*%
X178100000Y-97150000D03*
X194850000Y-84800000D03*
D16*
%TO.N,Net-(D7-A)*%
X175900000Y-93350000D03*
%TO.N,Net-(U3-CC2)*%
X180850000Y-86450000D03*
D15*
%TO.N,Net-(D3-DOUT)*%
X194250000Y-106600000D03*
X193550000Y-93800000D03*
%TO.N,Net-(D4-DOUT)*%
X227250000Y-84600000D03*
X224350000Y-98150000D03*
%TD*%
%TO.N,Net-(D7-A)*%
D17*
X174750000Y-102850000D02*
X174750000Y-103350000D01*
X175250000Y-102350000D02*
X174750000Y-102850000D01*
X175250000Y-94000000D02*
X175250000Y-102350000D01*
X175900000Y-93350000D02*
X175250000Y-94000000D01*
%TO.N,SW1_COM*%
D18*
X168575000Y-76790000D02*
X161840000Y-76790000D01*
X161840000Y-76790000D02*
X161800000Y-76750000D01*
X131300000Y-80800000D02*
X130900000Y-81200000D01*
X138300000Y-80800000D02*
X131300000Y-80800000D01*
X139800000Y-79300000D02*
X138300000Y-80800000D01*
%TO.N,SW4_COM*%
X194335000Y-98715000D02*
X194300000Y-98750000D01*
X200675000Y-98715000D02*
X194335000Y-98715000D01*
%TO.N,SW2_COM*%
X161910000Y-98640000D02*
X161800000Y-98750000D01*
X168325000Y-98640000D02*
X161910000Y-98640000D01*
%TO.N,SW3_COM*%
X200850000Y-76765000D02*
X194315000Y-76765000D01*
X194315000Y-76765000D02*
X194300000Y-76750000D01*
%TO.N,SW5_COM*%
X234100000Y-76790000D02*
X226840000Y-76790000D01*
X226840000Y-76790000D02*
X226800000Y-76750000D01*
%TO.N,SW6_COM*%
X226860000Y-98715000D02*
X226825000Y-98750000D01*
X233975000Y-98715000D02*
X226860000Y-98715000D01*
%TO.N,DIN*%
X161300000Y-82450000D02*
X161300000Y-79650000D01*
X159000000Y-77350000D02*
X152400000Y-77350000D01*
X152400000Y-77350000D02*
X146700000Y-71650000D01*
X161300000Y-79650000D02*
X159000000Y-77350000D01*
%TO.N,+5V*%
D17*
X154425000Y-113450000D02*
X154425000Y-111875000D01*
X135100000Y-113450000D02*
X154425000Y-113450000D01*
X217012500Y-94337500D02*
X219875000Y-91475000D01*
X184500000Y-111000000D02*
X184500000Y-94025000D01*
X150600000Y-95300000D02*
X154500000Y-91400000D01*
X150600000Y-109300000D02*
X150600000Y-95300000D01*
X184500000Y-94025000D02*
X187000000Y-91525000D01*
X217012500Y-111287500D02*
X217012500Y-94337500D01*
X184500000Y-111000000D02*
X186825000Y-113325000D01*
X216725000Y-111000000D02*
X217012500Y-111287500D01*
X154425000Y-113450000D02*
X154425000Y-113125000D01*
X217012500Y-111287500D02*
X219350000Y-113625000D01*
X154425000Y-111875000D02*
X155300000Y-111000000D01*
X133200000Y-111550000D02*
X135100000Y-113450000D01*
X184500000Y-111000000D02*
X216725000Y-111000000D01*
X155300000Y-111000000D02*
X184500000Y-111000000D01*
X154425000Y-113125000D02*
X150600000Y-109300000D01*
%TO.N,Net-(D1-DOUT)*%
D18*
X161700000Y-102600000D02*
X161700000Y-106650000D01*
X159800000Y-96600000D02*
X159800000Y-100700000D01*
X156750000Y-93550000D02*
X159800000Y-96600000D01*
X159800000Y-100700000D02*
X161700000Y-102600000D01*
%TO.N,+3.3V*%
D17*
X133400000Y-96100000D02*
X142700000Y-86800000D01*
X204800000Y-105700000D02*
X204165000Y-106335000D01*
X234100000Y-84410000D02*
X235610000Y-84410000D01*
X175000000Y-81650000D02*
X175000000Y-69600000D01*
X204165000Y-106335000D02*
X200675000Y-106335000D01*
X237500000Y-69600000D02*
X237500000Y-85100000D01*
X173050000Y-83600000D02*
X175000000Y-81650000D01*
X168575000Y-84410000D02*
X169385000Y-83600000D01*
X142700000Y-86800000D02*
X142700000Y-69600000D01*
X237500000Y-85100000D02*
X236900000Y-85700000D01*
X240100000Y-100210000D02*
X240100000Y-88900000D01*
X204900000Y-88435000D02*
X204900000Y-105700000D01*
X142700000Y-69600000D02*
X175000000Y-69600000D01*
X168960000Y-84410000D02*
X173300000Y-88750000D01*
X240100000Y-88900000D02*
X236900000Y-85700000D01*
X173300000Y-88750000D02*
X173300000Y-101285000D01*
X200850000Y-84385000D02*
X203032500Y-86567500D01*
X203032500Y-86567500D02*
X206700000Y-82900000D01*
X206700000Y-82900000D02*
X206700000Y-69600000D01*
X203032500Y-86567500D02*
X204900000Y-88435000D01*
X235610000Y-84410000D02*
X236900000Y-85700000D01*
X204900000Y-105700000D02*
X204800000Y-105700000D01*
X169385000Y-83600000D02*
X173050000Y-83600000D01*
X233975000Y-106335000D02*
X240100000Y-100210000D01*
X206700000Y-69600000D02*
X237500000Y-69600000D01*
X168575000Y-84410000D02*
X168960000Y-84410000D01*
X173300000Y-101285000D02*
X168325000Y-106260000D01*
X175000000Y-69600000D02*
X206700000Y-69600000D01*
%TO.N,Net-(D2-DOUT)*%
D18*
X186250000Y-89000000D02*
X194250000Y-89000000D01*
X194250000Y-89000000D02*
X195250000Y-88000000D01*
X195250000Y-88000000D02*
X195250000Y-85200000D01*
X195250000Y-85200000D02*
X194850000Y-84800000D01*
X178100000Y-97150000D02*
X186250000Y-89000000D01*
%TO.N,Net-(U3-CC2)*%
X180850000Y-89296026D02*
X178946026Y-91200000D01*
X180850000Y-86450000D02*
X180850000Y-89296028D01*
X180850000Y-86450000D02*
X180850000Y-89296026D01*
X178946026Y-91200000D02*
X178000000Y-91200000D01*
%TO.N,Net-(D3-DOUT)*%
X191800000Y-97550000D02*
X191800000Y-99750000D01*
X194250000Y-102200000D02*
X194250000Y-106600000D01*
X191800000Y-99750000D02*
X194250000Y-102200000D01*
X193550000Y-95800000D02*
X191800000Y-97550000D01*
X193550000Y-93800000D02*
X193550000Y-95800000D01*
%TO.N,Net-(D4-DOUT)*%
X228100000Y-94400000D02*
X228100000Y-85450000D01*
X228100000Y-85450000D02*
X227250000Y-84600000D01*
X224350000Y-98150000D02*
X228100000Y-94400000D01*
%TD*%
%TA.AperFunction,Conductor*%
%TO.N,GND*%
G36*
X246104418Y-68000816D02*
G01*
X246304561Y-68015130D01*
X246322063Y-68017647D01*
X246513795Y-68059355D01*
X246530760Y-68064336D01*
X246714611Y-68132909D01*
X246730694Y-68140253D01*
X246847495Y-68204032D01*
X246902908Y-68234290D01*
X246917791Y-68243855D01*
X247074864Y-68361438D01*
X247088235Y-68373024D01*
X247226975Y-68511764D01*
X247238561Y-68525135D01*
X247356144Y-68682208D01*
X247365709Y-68697091D01*
X247459743Y-68869300D01*
X247467093Y-68885394D01*
X247535661Y-69069234D01*
X247540645Y-69086209D01*
X247582351Y-69277931D01*
X247584869Y-69295442D01*
X247599184Y-69495580D01*
X247599500Y-69504427D01*
X247599500Y-114345572D01*
X247599184Y-114354419D01*
X247584869Y-114554557D01*
X247582351Y-114572068D01*
X247540645Y-114763790D01*
X247535661Y-114780765D01*
X247467093Y-114964605D01*
X247459743Y-114980699D01*
X247365709Y-115152908D01*
X247356144Y-115167791D01*
X247238561Y-115324864D01*
X247226975Y-115338235D01*
X247088235Y-115476975D01*
X247074864Y-115488561D01*
X246917791Y-115606144D01*
X246902908Y-115615709D01*
X246730699Y-115709743D01*
X246714605Y-115717093D01*
X246530765Y-115785661D01*
X246513790Y-115790645D01*
X246322068Y-115832351D01*
X246304557Y-115834869D01*
X246123779Y-115847799D01*
X246104417Y-115849184D01*
X246095572Y-115849500D01*
X127304428Y-115849500D01*
X127295582Y-115849184D01*
X127273622Y-115847613D01*
X127095442Y-115834869D01*
X127077931Y-115832351D01*
X126886209Y-115790645D01*
X126869234Y-115785661D01*
X126685394Y-115717093D01*
X126669300Y-115709743D01*
X126497091Y-115615709D01*
X126482208Y-115606144D01*
X126325135Y-115488561D01*
X126311764Y-115476975D01*
X126173024Y-115338235D01*
X126161438Y-115324864D01*
X126043855Y-115167791D01*
X126034290Y-115152908D01*
X125940256Y-114980699D01*
X125932909Y-114964611D01*
X125864336Y-114780760D01*
X125859354Y-114763790D01*
X125856354Y-114750000D01*
X125817647Y-114572063D01*
X125815130Y-114554556D01*
X125813389Y-114530220D01*
X125800816Y-114354418D01*
X125800500Y-114345572D01*
X125800500Y-111647682D01*
X127100000Y-111647682D01*
X127100000Y-111852317D01*
X127132009Y-112054417D01*
X127195244Y-112249031D01*
X127288141Y-112431350D01*
X127288147Y-112431359D01*
X127320523Y-112475921D01*
X127320524Y-112475922D01*
X128000000Y-111796446D01*
X128000000Y-111802661D01*
X128027259Y-111904394D01*
X128079920Y-111995606D01*
X128154394Y-112070080D01*
X128245606Y-112122741D01*
X128347339Y-112150000D01*
X128353553Y-112150000D01*
X127674076Y-112829474D01*
X127718650Y-112861859D01*
X127900968Y-112954755D01*
X128095582Y-113017990D01*
X128297683Y-113050000D01*
X128502317Y-113050000D01*
X128704417Y-113017990D01*
X128899031Y-112954755D01*
X129081349Y-112861859D01*
X129125921Y-112829474D01*
X128446447Y-112150000D01*
X128452661Y-112150000D01*
X128554394Y-112122741D01*
X128645606Y-112070080D01*
X128720080Y-111995606D01*
X128772741Y-111904394D01*
X128800000Y-111802661D01*
X128800000Y-111796447D01*
X129479474Y-112475921D01*
X129511859Y-112431349D01*
X129604755Y-112249031D01*
X129667990Y-112054417D01*
X129700000Y-111852317D01*
X129700000Y-111647682D01*
X129673111Y-111477915D01*
X129670810Y-111463389D01*
X132099500Y-111463389D01*
X132099500Y-111636611D01*
X132107677Y-111688239D01*
X132125799Y-111802661D01*
X132126598Y-111807701D01*
X132180127Y-111972445D01*
X132258768Y-112126788D01*
X132360586Y-112266928D01*
X134383072Y-114289414D01*
X134523212Y-114391232D01*
X134677555Y-114469873D01*
X134842299Y-114523402D01*
X135013389Y-114550500D01*
X135186611Y-114550500D01*
X153690488Y-114550500D01*
X153746779Y-114564014D01*
X153804604Y-114593477D01*
X153925776Y-114655218D01*
X153925778Y-114655218D01*
X153925781Y-114655220D01*
X154030137Y-114689127D01*
X154120465Y-114718477D01*
X154221557Y-114734488D01*
X154322648Y-114750500D01*
X154322649Y-114750500D01*
X154527351Y-114750500D01*
X154527352Y-114750500D01*
X154729534Y-114718477D01*
X154924219Y-114655220D01*
X155106610Y-114562287D01*
X155230582Y-114472217D01*
X155272213Y-114441971D01*
X155272215Y-114441968D01*
X155272219Y-114441966D01*
X155416966Y-114297219D01*
X155416968Y-114297215D01*
X155416971Y-114297213D01*
X155469732Y-114224590D01*
X155537287Y-114131610D01*
X155630220Y-113949219D01*
X155693477Y-113754534D01*
X155725500Y-113552352D01*
X155725500Y-113347648D01*
X155705702Y-113222648D01*
X155693477Y-113145465D01*
X155652862Y-113020465D01*
X155630220Y-112950781D01*
X155630218Y-112950778D01*
X155630218Y-112950776D01*
X155568411Y-112829474D01*
X155539014Y-112771780D01*
X155525500Y-112715487D01*
X155525500Y-112382204D01*
X155545185Y-112315165D01*
X155561819Y-112294523D01*
X155719523Y-112136819D01*
X155780846Y-112103334D01*
X155807204Y-112100500D01*
X158693549Y-112100500D01*
X158760588Y-112120185D01*
X158806343Y-112172989D01*
X158816287Y-112242147D01*
X158787262Y-112305703D01*
X158749845Y-112334984D01*
X158743648Y-112338141D01*
X158743645Y-112338143D01*
X158699077Y-112370523D01*
X158699077Y-112370524D01*
X159378554Y-113050000D01*
X159372339Y-113050000D01*
X159270606Y-113077259D01*
X159179394Y-113129920D01*
X159104920Y-113204394D01*
X159052259Y-113295606D01*
X159025000Y-113397339D01*
X159025000Y-113403553D01*
X158345524Y-112724077D01*
X158345523Y-112724077D01*
X158313143Y-112768644D01*
X158220244Y-112950968D01*
X158157009Y-113145582D01*
X158125000Y-113347682D01*
X158125000Y-113552317D01*
X158157009Y-113754417D01*
X158220244Y-113949031D01*
X158313141Y-114131350D01*
X158313147Y-114131359D01*
X158345523Y-114175921D01*
X158345524Y-114175922D01*
X159025000Y-113496446D01*
X159025000Y-113502661D01*
X159052259Y-113604394D01*
X159104920Y-113695606D01*
X159179394Y-113770080D01*
X159270606Y-113822741D01*
X159372339Y-113850000D01*
X159378553Y-113850000D01*
X158699076Y-114529474D01*
X158743650Y-114561859D01*
X158925968Y-114654755D01*
X159120582Y-114717990D01*
X159322683Y-114750000D01*
X159527317Y-114750000D01*
X159729417Y-114717990D01*
X159924031Y-114654755D01*
X160106349Y-114561859D01*
X160150921Y-114529474D01*
X159471447Y-113850000D01*
X159477661Y-113850000D01*
X159579394Y-113822741D01*
X159670606Y-113770080D01*
X159745080Y-113695606D01*
X159797741Y-113604394D01*
X159825000Y-113502661D01*
X159825000Y-113496448D01*
X160504474Y-114175922D01*
X160504474Y-114175921D01*
X160536859Y-114131349D01*
X160629755Y-113949031D01*
X160692990Y-113754417D01*
X160725000Y-113552317D01*
X160725000Y-113347682D01*
X160692990Y-113145582D01*
X160629755Y-112950968D01*
X160536859Y-112768650D01*
X160504474Y-112724077D01*
X160504474Y-112724076D01*
X159825000Y-113403551D01*
X159825000Y-113397339D01*
X159797741Y-113295606D01*
X159745080Y-113204394D01*
X159670606Y-113129920D01*
X159579394Y-113077259D01*
X159477661Y-113050000D01*
X159471446Y-113050000D01*
X160150922Y-112370524D01*
X160150921Y-112370523D01*
X160106359Y-112338147D01*
X160106344Y-112338138D01*
X160100155Y-112334984D01*
X160049359Y-112287009D01*
X160032565Y-112219188D01*
X160055103Y-112153053D01*
X160109819Y-112109602D01*
X160156451Y-112100500D01*
X173122026Y-112100500D01*
X173189065Y-112120185D01*
X173227562Y-112159400D01*
X173307288Y-112288656D01*
X173431344Y-112412712D01*
X173580665Y-112504814D01*
X173747202Y-112559999D01*
X173849990Y-112570500D01*
X173849995Y-112570500D01*
X175650005Y-112570500D01*
X175650010Y-112570500D01*
X175752798Y-112559999D01*
X175919335Y-112504814D01*
X176068656Y-112412712D01*
X176192712Y-112288656D01*
X176272437Y-112159401D01*
X176324383Y-112112679D01*
X176377974Y-112100500D01*
X177715488Y-112100500D01*
X177771779Y-112114014D01*
X177819012Y-112138080D01*
X177950776Y-112205218D01*
X177950778Y-112205218D01*
X177950781Y-112205220D01*
X178040062Y-112234229D01*
X178145465Y-112268477D01*
X178246557Y-112284488D01*
X178347648Y-112300500D01*
X178347649Y-112300500D01*
X178552351Y-112300500D01*
X178552352Y-112300500D01*
X178754534Y-112268477D01*
X178949219Y-112205220D01*
X179128220Y-112114014D01*
X179184512Y-112100500D01*
X183992796Y-112100500D01*
X184059835Y-112120185D01*
X184080477Y-112136819D01*
X185527449Y-113583791D01*
X185557699Y-113633154D01*
X185619780Y-113824219D01*
X185712585Y-114006359D01*
X185712715Y-114006613D01*
X185833028Y-114172213D01*
X185977786Y-114316971D01*
X186098226Y-114404474D01*
X186143390Y-114437287D01*
X186259607Y-114496503D01*
X186325776Y-114530218D01*
X186325778Y-114530218D01*
X186325781Y-114530220D01*
X186400683Y-114554557D01*
X186520465Y-114593477D01*
X186621557Y-114609488D01*
X186722648Y-114625500D01*
X186722649Y-114625500D01*
X186927351Y-114625500D01*
X186927352Y-114625500D01*
X187129534Y-114593477D01*
X187324219Y-114530220D01*
X187506610Y-114437287D01*
X187620669Y-114354419D01*
X187672213Y-114316971D01*
X187672215Y-114316968D01*
X187672219Y-114316966D01*
X187816966Y-114172219D01*
X187816968Y-114172215D01*
X187816971Y-114172213D01*
X187869732Y-114099590D01*
X187937287Y-114006610D01*
X188030220Y-113824219D01*
X188093477Y-113629534D01*
X188125500Y-113427352D01*
X188125500Y-113222648D01*
X188105511Y-113096446D01*
X188093477Y-113020465D01*
X188031420Y-112829474D01*
X188030220Y-112825781D01*
X188030218Y-112825778D01*
X188030218Y-112825776D01*
X187978399Y-112724077D01*
X187937287Y-112643390D01*
X187905092Y-112599077D01*
X187816971Y-112477786D01*
X187672217Y-112333032D01*
X187672212Y-112333028D01*
X187660912Y-112324818D01*
X187618246Y-112269488D01*
X187612267Y-112199875D01*
X187644872Y-112138080D01*
X187705711Y-112103723D01*
X187733797Y-112100500D01*
X190976348Y-112100500D01*
X191043387Y-112120185D01*
X191089142Y-112172989D01*
X191099966Y-112234229D01*
X191099077Y-112245524D01*
X191778554Y-112925000D01*
X191772339Y-112925000D01*
X191670606Y-112952259D01*
X191579394Y-113004920D01*
X191504920Y-113079394D01*
X191452259Y-113170606D01*
X191425000Y-113272339D01*
X191425000Y-113278553D01*
X190745524Y-112599077D01*
X190745523Y-112599077D01*
X190713143Y-112643644D01*
X190620244Y-112825968D01*
X190557009Y-113020582D01*
X190525000Y-113222682D01*
X190525000Y-113427317D01*
X190557009Y-113629417D01*
X190620244Y-113824031D01*
X190713141Y-114006350D01*
X190713147Y-114006359D01*
X190745523Y-114050921D01*
X190745524Y-114050922D01*
X191425000Y-113371446D01*
X191425000Y-113377661D01*
X191452259Y-113479394D01*
X191504920Y-113570606D01*
X191579394Y-113645080D01*
X191670606Y-113697741D01*
X191772339Y-113725000D01*
X191778553Y-113725000D01*
X191099076Y-114404474D01*
X191143650Y-114436859D01*
X191325968Y-114529755D01*
X191520582Y-114592990D01*
X191722683Y-114625000D01*
X191927317Y-114625000D01*
X192129417Y-114592990D01*
X192324031Y-114529755D01*
X192506349Y-114436859D01*
X192550921Y-114404474D01*
X191871447Y-113725000D01*
X191877661Y-113725000D01*
X191979394Y-113697741D01*
X192070606Y-113645080D01*
X192145080Y-113570606D01*
X192197741Y-113479394D01*
X192225000Y-113377661D01*
X192225000Y-113371448D01*
X192904474Y-114050922D01*
X192904474Y-114050921D01*
X192936859Y-114006349D01*
X193029755Y-113824031D01*
X193092990Y-113629417D01*
X193125000Y-113427317D01*
X193125000Y-113222682D01*
X193092990Y-113020582D01*
X193029755Y-112825968D01*
X192936859Y-112643650D01*
X192904474Y-112599077D01*
X192904474Y-112599076D01*
X192225000Y-113278551D01*
X192225000Y-113272339D01*
X192197741Y-113170606D01*
X192145080Y-113079394D01*
X192070606Y-113004920D01*
X191979394Y-112952259D01*
X191877661Y-112925000D01*
X191871446Y-112925000D01*
X192550921Y-112245524D01*
X192550033Y-112234229D01*
X192564397Y-112165852D01*
X192613449Y-112116095D01*
X192673651Y-112100500D01*
X216217796Y-112100500D01*
X216284835Y-112120185D01*
X216305477Y-112136819D01*
X218052449Y-113883791D01*
X218082699Y-113933154D01*
X218144780Y-114124219D01*
X218237585Y-114306359D01*
X218237715Y-114306613D01*
X218358028Y-114472213D01*
X218502786Y-114616971D01*
X218623226Y-114704474D01*
X218668390Y-114737287D01*
X218784607Y-114796503D01*
X218850776Y-114830218D01*
X218850778Y-114830218D01*
X218850781Y-114830220D01*
X218955137Y-114864127D01*
X219045465Y-114893477D01*
X219146557Y-114909488D01*
X219247648Y-114925500D01*
X219247649Y-114925500D01*
X219452351Y-114925500D01*
X219452352Y-114925500D01*
X219654534Y-114893477D01*
X219849219Y-114830220D01*
X220031610Y-114737287D01*
X220124590Y-114669732D01*
X220197213Y-114616971D01*
X220197215Y-114616968D01*
X220197219Y-114616966D01*
X220341966Y-114472219D01*
X220341968Y-114472215D01*
X220341971Y-114472213D01*
X220427552Y-114354419D01*
X220462287Y-114306610D01*
X220555220Y-114124219D01*
X220618477Y-113929534D01*
X220650500Y-113727352D01*
X220650500Y-113522682D01*
X223050000Y-113522682D01*
X223050000Y-113727317D01*
X223082009Y-113929417D01*
X223145244Y-114124031D01*
X223238141Y-114306350D01*
X223238147Y-114306359D01*
X223270523Y-114350921D01*
X223270524Y-114350922D01*
X223950000Y-113671446D01*
X223950000Y-113677661D01*
X223977259Y-113779394D01*
X224029920Y-113870606D01*
X224104394Y-113945080D01*
X224195606Y-113997741D01*
X224297339Y-114025000D01*
X224303553Y-114025000D01*
X223624076Y-114704474D01*
X223668650Y-114736859D01*
X223850968Y-114829755D01*
X224045582Y-114892990D01*
X224247683Y-114925000D01*
X224452317Y-114925000D01*
X224654417Y-114892990D01*
X224849031Y-114829755D01*
X225031349Y-114736859D01*
X225075921Y-114704474D01*
X224396447Y-114025000D01*
X224402661Y-114025000D01*
X224504394Y-113997741D01*
X224595606Y-113945080D01*
X224670080Y-113870606D01*
X224722741Y-113779394D01*
X224750000Y-113677661D01*
X224750000Y-113671447D01*
X225429474Y-114350921D01*
X225461859Y-114306349D01*
X225554755Y-114124031D01*
X225617990Y-113929417D01*
X225650000Y-113727317D01*
X225650000Y-113522682D01*
X225617990Y-113320582D01*
X225554755Y-113125968D01*
X225461859Y-112943650D01*
X225429474Y-112899077D01*
X225429474Y-112899076D01*
X224750000Y-113578551D01*
X224750000Y-113572339D01*
X224722741Y-113470606D01*
X224670080Y-113379394D01*
X224595606Y-113304920D01*
X224504394Y-113252259D01*
X224402661Y-113225000D01*
X224396446Y-113225000D01*
X225075922Y-112545524D01*
X225075921Y-112545523D01*
X225031359Y-112513147D01*
X225031350Y-112513141D01*
X224849031Y-112420244D01*
X224654417Y-112357009D01*
X224452317Y-112325000D01*
X224247683Y-112325000D01*
X224045582Y-112357009D01*
X223850968Y-112420244D01*
X223668644Y-112513143D01*
X223624077Y-112545523D01*
X223624077Y-112545524D01*
X224303554Y-113225000D01*
X224297339Y-113225000D01*
X224195606Y-113252259D01*
X224104394Y-113304920D01*
X224029920Y-113379394D01*
X223977259Y-113470606D01*
X223950000Y-113572339D01*
X223950000Y-113578553D01*
X223270524Y-112899077D01*
X223270523Y-112899077D01*
X223238143Y-112943644D01*
X223145244Y-113125968D01*
X223082009Y-113320582D01*
X223050000Y-113522682D01*
X220650500Y-113522682D01*
X220650500Y-113522648D01*
X220630653Y-113397339D01*
X220618477Y-113320465D01*
X220580763Y-113204394D01*
X220555220Y-113125781D01*
X220555218Y-113125778D01*
X220555218Y-113125776D01*
X220501559Y-113020466D01*
X220462287Y-112943390D01*
X220430092Y-112899077D01*
X220341971Y-112777786D01*
X220197213Y-112633028D01*
X220031613Y-112512715D01*
X220031612Y-112512714D01*
X220031610Y-112512713D01*
X219849219Y-112419780D01*
X219697622Y-112370523D01*
X219658154Y-112357699D01*
X219608791Y-112327449D01*
X218149319Y-110867977D01*
X218115834Y-110806654D01*
X218113000Y-110780296D01*
X218113000Y-106252511D01*
X219827929Y-106252511D01*
X219844089Y-106408011D01*
X219844090Y-106408014D01*
X219894129Y-106556129D01*
X219931270Y-106616829D01*
X219949499Y-106681548D01*
X219949499Y-106728952D01*
X219949500Y-106728961D01*
X219949500Y-108023276D01*
X219949484Y-108023439D01*
X219949497Y-108068420D01*
X219931268Y-108133175D01*
X219894131Y-108193867D01*
X219894128Y-108193874D01*
X219844091Y-108341986D01*
X219829364Y-108483705D01*
X219827931Y-108497491D01*
X219828448Y-108501826D01*
X219846442Y-108652732D01*
X219864608Y-108703936D01*
X219885057Y-108761575D01*
X219898716Y-108800073D01*
X219898716Y-108800075D01*
X219982182Y-108932274D01*
X220092725Y-109042817D01*
X220092727Y-109042818D01*
X220092729Y-109042820D01*
X220224926Y-109126284D01*
X220372269Y-109178558D01*
X220527509Y-109197069D01*
X220683012Y-109180909D01*
X220831128Y-109130871D01*
X220891828Y-109093728D01*
X220956548Y-109075500D01*
X220989522Y-109075501D01*
X220989524Y-109075500D01*
X221810118Y-109075500D01*
X222710473Y-109075500D01*
X222743452Y-109075500D01*
X222808172Y-109093730D01*
X222861373Y-109126283D01*
X222868872Y-109130871D01*
X223016988Y-109180909D01*
X223172491Y-109197069D01*
X223327731Y-109178558D01*
X223475074Y-109126284D01*
X223607271Y-109042820D01*
X223717820Y-108932271D01*
X223801284Y-108800074D01*
X223853558Y-108652731D01*
X223872069Y-108497491D01*
X223855909Y-108341988D01*
X223805871Y-108193872D01*
X223805868Y-108193867D01*
X223768729Y-108133170D01*
X223750500Y-108068451D01*
X223750500Y-106681546D01*
X223768730Y-106616826D01*
X223805871Y-106556128D01*
X223855909Y-106408012D01*
X223872069Y-106252509D01*
X223853558Y-106097269D01*
X223801284Y-105949926D01*
X223791740Y-105934810D01*
X223733604Y-105842729D01*
X223717820Y-105817729D01*
X223717818Y-105817727D01*
X223717817Y-105817725D01*
X223607274Y-105707182D01*
X223595027Y-105699450D01*
X223475074Y-105623716D01*
X223327731Y-105571442D01*
X223327733Y-105571442D01*
X223275984Y-105565271D01*
X223172491Y-105552931D01*
X223172488Y-105552931D01*
X223172487Y-105552931D01*
X223016986Y-105569091D01*
X222868871Y-105619129D01*
X222868870Y-105619129D01*
X222808169Y-105656271D01*
X222743451Y-105674500D01*
X220956549Y-105674500D01*
X220891831Y-105656271D01*
X220831128Y-105619129D01*
X220683014Y-105569090D01*
X220683011Y-105569089D01*
X220527511Y-105552929D01*
X220527510Y-105552929D01*
X220527509Y-105552929D01*
X220372268Y-105571440D01*
X220372267Y-105571440D01*
X220224926Y-105623712D01*
X220092723Y-105707180D01*
X219982180Y-105817723D01*
X219898712Y-105949926D01*
X219851185Y-106083892D01*
X219846440Y-106097268D01*
X219831395Y-106223446D01*
X219827929Y-106252511D01*
X218113000Y-106252511D01*
X218113000Y-102394126D01*
X219049500Y-102394126D01*
X219049500Y-102705873D01*
X219084402Y-103015633D01*
X219084404Y-103015649D01*
X219153771Y-103319567D01*
X219153775Y-103319579D01*
X219256733Y-103613814D01*
X219391988Y-103894674D01*
X219391990Y-103894677D01*
X219557844Y-104158633D01*
X219581940Y-104188848D01*
X219744469Y-104392654D01*
X219752209Y-104402359D01*
X219972641Y-104622791D01*
X220216367Y-104817156D01*
X220480323Y-104983010D01*
X220761189Y-105118268D01*
X220982174Y-105195594D01*
X221055420Y-105221224D01*
X221055432Y-105221228D01*
X221359354Y-105290596D01*
X221669126Y-105325499D01*
X221669127Y-105325500D01*
X221669131Y-105325500D01*
X221980873Y-105325500D01*
X221980873Y-105325499D01*
X222290646Y-105290596D01*
X222594568Y-105221228D01*
X222888811Y-105118268D01*
X223169677Y-104983010D01*
X223433633Y-104817156D01*
X223677359Y-104622791D01*
X223897791Y-104402359D01*
X224092156Y-104158633D01*
X224258010Y-103894677D01*
X224393268Y-103613811D01*
X224496228Y-103319568D01*
X224565596Y-103015646D01*
X224600500Y-102705869D01*
X224600500Y-102394131D01*
X224565596Y-102084354D01*
X224496228Y-101780432D01*
X224393268Y-101486189D01*
X224258010Y-101205323D01*
X224092156Y-100941367D01*
X223897791Y-100697641D01*
X223677359Y-100477209D01*
X223665436Y-100467701D01*
X223450896Y-100296611D01*
X223433633Y-100282844D01*
X223169677Y-100116990D01*
X223169674Y-100116988D01*
X222888814Y-99981733D01*
X222594579Y-99878775D01*
X222594567Y-99878771D01*
X222290649Y-99809404D01*
X222290633Y-99809402D01*
X221980873Y-99774500D01*
X221980869Y-99774500D01*
X221669131Y-99774500D01*
X221669127Y-99774500D01*
X221359366Y-99809402D01*
X221359350Y-99809404D01*
X221055432Y-99878771D01*
X221055420Y-99878775D01*
X220761185Y-99981733D01*
X220480325Y-100116988D01*
X220216368Y-100282843D01*
X219972641Y-100477208D01*
X219752208Y-100697641D01*
X219557843Y-100941368D01*
X219391988Y-101205325D01*
X219256733Y-101486185D01*
X219153775Y-101780420D01*
X219153771Y-101780432D01*
X219084404Y-102084350D01*
X219084402Y-102084366D01*
X219049500Y-102394126D01*
X218113000Y-102394126D01*
X218113000Y-96524071D01*
X220225000Y-96524071D01*
X220225000Y-96775928D01*
X220264397Y-97024669D01*
X220342219Y-97264184D01*
X220456557Y-97488583D01*
X220530748Y-97590697D01*
X220530748Y-97590698D01*
X221260387Y-96861059D01*
X221265889Y-96881591D01*
X221344881Y-97018408D01*
X221456592Y-97130119D01*
X221593409Y-97209111D01*
X221613940Y-97214612D01*
X220884300Y-97944250D01*
X220986416Y-98018442D01*
X221210815Y-98132780D01*
X221450330Y-98210602D01*
X221699072Y-98250000D01*
X221950928Y-98250000D01*
X222199669Y-98210602D01*
X222439184Y-98132780D01*
X222579462Y-98061304D01*
X223449500Y-98061304D01*
X223449500Y-98238695D01*
X223484103Y-98412658D01*
X223484106Y-98412667D01*
X223551983Y-98576540D01*
X223551990Y-98576553D01*
X223650535Y-98724034D01*
X223650538Y-98724038D01*
X223775961Y-98849461D01*
X223775965Y-98849464D01*
X223923446Y-98948009D01*
X223923459Y-98948016D01*
X224046363Y-98998923D01*
X224087334Y-99015894D01*
X224087336Y-99015894D01*
X224087341Y-99015896D01*
X224261304Y-99050499D01*
X224261307Y-99050500D01*
X224261309Y-99050500D01*
X224438693Y-99050500D01*
X224438694Y-99050499D01*
X224496682Y-99038964D01*
X224612658Y-99015896D01*
X224612661Y-99015894D01*
X224612666Y-99015894D01*
X224776547Y-98948013D01*
X224924035Y-98849464D01*
X224956148Y-98817351D01*
X225012819Y-98760681D01*
X225074142Y-98727196D01*
X225143834Y-98732180D01*
X225199767Y-98774052D01*
X225224184Y-98839516D01*
X225224500Y-98848362D01*
X225224500Y-98875961D01*
X225263910Y-99124785D01*
X225341760Y-99364383D01*
X225404346Y-99487213D01*
X225442563Y-99562219D01*
X225456132Y-99588848D01*
X225604201Y-99792649D01*
X225604205Y-99792654D01*
X225782345Y-99970794D01*
X225782350Y-99970798D01*
X225960117Y-100099952D01*
X225986155Y-100118870D01*
X226129184Y-100191747D01*
X226210616Y-100233239D01*
X226210618Y-100233239D01*
X226210621Y-100233241D01*
X226450215Y-100311090D01*
X226699038Y-100350500D01*
X226699039Y-100350500D01*
X226950961Y-100350500D01*
X226950962Y-100350500D01*
X227199785Y-100311090D01*
X227439379Y-100233241D01*
X227663845Y-100118870D01*
X227867656Y-99970793D01*
X228045793Y-99792656D01*
X228193870Y-99588845D01*
X228280201Y-99419409D01*
X228298649Y-99383205D01*
X228346624Y-99332409D01*
X228409134Y-99315500D01*
X232745398Y-99315500D01*
X232812437Y-99335185D01*
X232855883Y-99383205D01*
X232862715Y-99396614D01*
X232983028Y-99562213D01*
X233127786Y-99706971D01*
X233242857Y-99790573D01*
X233293390Y-99827287D01*
X233394433Y-99878771D01*
X233475776Y-99920218D01*
X233475778Y-99920218D01*
X233475781Y-99920220D01*
X233580137Y-99954127D01*
X233670465Y-99983477D01*
X233771557Y-99999488D01*
X233872648Y-100015500D01*
X233872649Y-100015500D01*
X234077351Y-100015500D01*
X234077352Y-100015500D01*
X234279534Y-99983477D01*
X234474219Y-99920220D01*
X234656610Y-99827287D01*
X234757264Y-99754158D01*
X234822213Y-99706971D01*
X234822215Y-99706968D01*
X234822219Y-99706966D01*
X234966966Y-99562219D01*
X234966968Y-99562215D01*
X234966971Y-99562213D01*
X235029418Y-99476261D01*
X235087287Y-99396610D01*
X235180220Y-99214219D01*
X235243477Y-99019534D01*
X235275500Y-98817352D01*
X235275500Y-98612648D01*
X235243826Y-98412667D01*
X235243477Y-98410465D01*
X235180218Y-98215776D01*
X235146503Y-98149607D01*
X235087287Y-98033390D01*
X235032794Y-97958386D01*
X234966971Y-97867786D01*
X234822213Y-97723028D01*
X234656613Y-97602715D01*
X234656612Y-97602714D01*
X234656610Y-97602713D01*
X234599653Y-97573691D01*
X234474223Y-97509781D01*
X234279534Y-97446522D01*
X234104995Y-97418878D01*
X234077352Y-97414500D01*
X233872648Y-97414500D01*
X233848329Y-97418351D01*
X233670465Y-97446522D01*
X233475776Y-97509781D01*
X233293386Y-97602715D01*
X233127786Y-97723028D01*
X232983028Y-97867786D01*
X232862715Y-98033385D01*
X232855883Y-98046795D01*
X232807909Y-98097591D01*
X232745398Y-98114500D01*
X228373467Y-98114500D01*
X228306428Y-98094815D01*
X228262982Y-98046795D01*
X228217935Y-97958386D01*
X228193870Y-97911155D01*
X228145913Y-97845148D01*
X228045798Y-97707350D01*
X228045794Y-97707345D01*
X227867654Y-97529205D01*
X227867649Y-97529201D01*
X227663848Y-97381132D01*
X227663847Y-97381131D01*
X227663845Y-97381130D01*
X227593747Y-97345413D01*
X227439383Y-97266760D01*
X227199785Y-97188910D01*
X227101872Y-97173402D01*
X226950962Y-97149500D01*
X226699038Y-97149500D01*
X226648856Y-97157447D01*
X226482702Y-97183764D01*
X226413408Y-97174809D01*
X226359956Y-97129813D01*
X226339317Y-97063061D01*
X226358042Y-96995748D01*
X226375619Y-96973614D01*
X228458506Y-94890728D01*
X228458511Y-94890724D01*
X228468714Y-94880520D01*
X228468716Y-94880520D01*
X228580520Y-94768716D01*
X228584498Y-94761824D01*
X228639884Y-94665895D01*
X228639885Y-94665892D01*
X228659577Y-94631785D01*
X228700501Y-94479057D01*
X228700501Y-94320943D01*
X228700501Y-94313348D01*
X228700500Y-94313330D01*
X228700500Y-85539060D01*
X228700501Y-85539047D01*
X228700501Y-85370944D01*
X228700501Y-85370943D01*
X228659577Y-85218216D01*
X228641330Y-85186611D01*
X228580524Y-85081290D01*
X228580518Y-85081282D01*
X228186819Y-84687583D01*
X228153334Y-84626260D01*
X228150500Y-84599902D01*
X228150500Y-84511306D01*
X228150499Y-84511304D01*
X228115896Y-84337341D01*
X228115893Y-84337332D01*
X228048016Y-84173459D01*
X228048009Y-84173446D01*
X227949464Y-84025965D01*
X227949461Y-84025961D01*
X227824038Y-83900538D01*
X227824034Y-83900535D01*
X227676553Y-83801990D01*
X227676540Y-83801983D01*
X227512667Y-83734106D01*
X227512658Y-83734103D01*
X227338694Y-83699500D01*
X227338691Y-83699500D01*
X227161309Y-83699500D01*
X227161306Y-83699500D01*
X226987341Y-83734103D01*
X226987332Y-83734106D01*
X226823459Y-83801983D01*
X226823446Y-83801990D01*
X226675965Y-83900535D01*
X226675961Y-83900538D01*
X226550538Y-84025961D01*
X226550535Y-84025965D01*
X226451990Y-84173446D01*
X226451983Y-84173459D01*
X226384106Y-84337332D01*
X226384103Y-84337341D01*
X226349500Y-84511304D01*
X226349500Y-84688695D01*
X226384103Y-84862658D01*
X226384106Y-84862667D01*
X226451983Y-85026540D01*
X226451990Y-85026553D01*
X226550535Y-85174034D01*
X226550538Y-85174038D01*
X226675961Y-85299461D01*
X226675965Y-85299464D01*
X226823446Y-85398009D01*
X226823459Y-85398016D01*
X226913033Y-85435118D01*
X226987334Y-85465894D01*
X226987336Y-85465894D01*
X226987341Y-85465896D01*
X227161304Y-85500499D01*
X227161307Y-85500500D01*
X227161309Y-85500500D01*
X227249902Y-85500500D01*
X227316941Y-85520185D01*
X227337578Y-85536814D01*
X227463182Y-85662417D01*
X227496666Y-85723738D01*
X227499500Y-85750097D01*
X227499500Y-94099903D01*
X227479815Y-94166942D01*
X227463181Y-94187584D01*
X224437584Y-97213181D01*
X224376261Y-97246666D01*
X224349903Y-97249500D01*
X224261306Y-97249500D01*
X224087341Y-97284103D01*
X224087332Y-97284106D01*
X223923459Y-97351983D01*
X223923446Y-97351990D01*
X223775965Y-97450535D01*
X223775961Y-97450538D01*
X223650538Y-97575961D01*
X223650535Y-97575965D01*
X223551990Y-97723446D01*
X223551983Y-97723459D01*
X223484106Y-97887332D01*
X223484103Y-97887341D01*
X223449500Y-98061304D01*
X222579462Y-98061304D01*
X222663575Y-98018446D01*
X222663581Y-98018442D01*
X222751042Y-97954899D01*
X222765697Y-97944250D01*
X222765698Y-97944250D01*
X222036059Y-97214612D01*
X222056591Y-97209111D01*
X222193408Y-97130119D01*
X222305119Y-97018408D01*
X222384111Y-96881591D01*
X222389612Y-96861059D01*
X223119250Y-97590698D01*
X223119250Y-97590697D01*
X223193442Y-97488581D01*
X223193446Y-97488575D01*
X223307780Y-97264184D01*
X223385602Y-97024669D01*
X223425000Y-96775928D01*
X223425000Y-96524071D01*
X223385602Y-96275330D01*
X223307780Y-96035815D01*
X223193442Y-95811416D01*
X223119250Y-95709301D01*
X223119250Y-95709300D01*
X222389612Y-96438939D01*
X222384111Y-96418409D01*
X222305119Y-96281592D01*
X222193408Y-96169881D01*
X222056591Y-96090889D01*
X222036058Y-96085387D01*
X222765698Y-95355748D01*
X222663583Y-95281557D01*
X222439184Y-95167219D01*
X222199669Y-95089397D01*
X221950928Y-95050000D01*
X221699072Y-95050000D01*
X221450330Y-95089397D01*
X221210815Y-95167219D01*
X220986413Y-95281559D01*
X220884301Y-95355747D01*
X220884300Y-95355748D01*
X221613940Y-96085387D01*
X221593409Y-96090889D01*
X221456592Y-96169881D01*
X221344881Y-96281592D01*
X221265889Y-96418409D01*
X221260387Y-96438939D01*
X220530748Y-95709300D01*
X220530747Y-95709301D01*
X220456559Y-95811413D01*
X220342219Y-96035815D01*
X220264397Y-96275330D01*
X220225000Y-96524071D01*
X218113000Y-96524071D01*
X218113000Y-94844703D01*
X218132685Y-94777664D01*
X218149314Y-94757027D01*
X220133791Y-92772549D01*
X220183150Y-92742301D01*
X220374219Y-92680220D01*
X220556610Y-92587287D01*
X220649590Y-92519732D01*
X220722213Y-92466971D01*
X220722215Y-92466968D01*
X220722219Y-92466966D01*
X220866966Y-92322219D01*
X220866968Y-92322215D01*
X220866971Y-92322213D01*
X220950960Y-92206610D01*
X220987287Y-92156610D01*
X221080220Y-91974219D01*
X221143477Y-91779534D01*
X221175500Y-91577352D01*
X221175500Y-91372682D01*
X223575000Y-91372682D01*
X223575000Y-91577317D01*
X223607009Y-91779417D01*
X223670244Y-91974031D01*
X223763141Y-92156350D01*
X223763147Y-92156359D01*
X223795523Y-92200921D01*
X223795524Y-92200922D01*
X224475000Y-91521446D01*
X224475000Y-91527661D01*
X224502259Y-91629394D01*
X224554920Y-91720606D01*
X224629394Y-91795080D01*
X224720606Y-91847741D01*
X224822339Y-91875000D01*
X224828553Y-91875000D01*
X224149076Y-92554474D01*
X224193650Y-92586859D01*
X224375968Y-92679755D01*
X224570582Y-92742990D01*
X224772683Y-92775000D01*
X224977317Y-92775000D01*
X225179417Y-92742990D01*
X225374031Y-92679755D01*
X225556349Y-92586859D01*
X225600921Y-92554474D01*
X224921447Y-91875000D01*
X224927661Y-91875000D01*
X225029394Y-91847741D01*
X225120606Y-91795080D01*
X225195080Y-91720606D01*
X225247741Y-91629394D01*
X225275000Y-91527661D01*
X225275000Y-91521448D01*
X225954474Y-92200922D01*
X225954474Y-92200921D01*
X225986859Y-92156349D01*
X226079755Y-91974031D01*
X226142990Y-91779417D01*
X226175000Y-91577317D01*
X226175000Y-91372682D01*
X226142990Y-91170582D01*
X226079755Y-90975968D01*
X225986859Y-90793650D01*
X225954474Y-90749077D01*
X225954474Y-90749076D01*
X225275000Y-91428551D01*
X225275000Y-91422339D01*
X225247741Y-91320606D01*
X225195080Y-91229394D01*
X225120606Y-91154920D01*
X225029394Y-91102259D01*
X224927661Y-91075000D01*
X224921446Y-91075000D01*
X225600922Y-90395524D01*
X225600921Y-90395523D01*
X225556359Y-90363147D01*
X225556350Y-90363141D01*
X225374031Y-90270244D01*
X225179417Y-90207009D01*
X224977317Y-90175000D01*
X224772683Y-90175000D01*
X224570582Y-90207009D01*
X224375968Y-90270244D01*
X224193644Y-90363143D01*
X224149077Y-90395523D01*
X224149077Y-90395524D01*
X224828554Y-91075000D01*
X224822339Y-91075000D01*
X224720606Y-91102259D01*
X224629394Y-91154920D01*
X224554920Y-91229394D01*
X224502259Y-91320606D01*
X224475000Y-91422339D01*
X224475000Y-91428553D01*
X223795524Y-90749077D01*
X223795523Y-90749077D01*
X223763143Y-90793644D01*
X223670244Y-90975968D01*
X223607009Y-91170582D01*
X223575000Y-91372682D01*
X221175500Y-91372682D01*
X221175500Y-91372648D01*
X221164366Y-91302351D01*
X221143477Y-91170465D01*
X221103180Y-91046446D01*
X221080220Y-90975781D01*
X221080218Y-90975778D01*
X221080218Y-90975776D01*
X221042101Y-90900968D01*
X220987287Y-90793390D01*
X220955092Y-90749077D01*
X220866971Y-90627786D01*
X220722213Y-90483028D01*
X220556613Y-90362715D01*
X220556612Y-90362714D01*
X220556610Y-90362713D01*
X220473260Y-90320244D01*
X220374223Y-90269781D01*
X220179534Y-90206522D01*
X220004995Y-90178878D01*
X219977352Y-90174500D01*
X219772648Y-90174500D01*
X219748329Y-90178351D01*
X219570465Y-90206522D01*
X219375776Y-90269781D01*
X219193386Y-90362715D01*
X219027786Y-90483028D01*
X218883028Y-90627786D01*
X218762715Y-90793386D01*
X218669781Y-90975776D01*
X218607699Y-91166845D01*
X218577449Y-91216207D01*
X216295572Y-93498086D01*
X216173088Y-93620569D01*
X216173088Y-93620570D01*
X216173086Y-93620572D01*
X216160726Y-93637584D01*
X216071268Y-93760711D01*
X215992628Y-93915052D01*
X215939097Y-94079802D01*
X215912000Y-94250889D01*
X215912000Y-109775500D01*
X215892315Y-109842539D01*
X215839511Y-109888294D01*
X215788000Y-109899500D01*
X185724500Y-109899500D01*
X185657461Y-109879815D01*
X185611706Y-109827011D01*
X185600500Y-109775500D01*
X185600500Y-106252511D01*
X187302929Y-106252511D01*
X187319089Y-106408011D01*
X187319090Y-106408014D01*
X187369129Y-106556129D01*
X187406270Y-106616829D01*
X187424499Y-106681548D01*
X187424499Y-106728952D01*
X187424500Y-106728961D01*
X187424500Y-108023276D01*
X187424484Y-108023439D01*
X187424497Y-108068420D01*
X187406268Y-108133175D01*
X187369131Y-108193867D01*
X187369128Y-108193874D01*
X187319091Y-108341986D01*
X187304364Y-108483705D01*
X187302931Y-108497491D01*
X187303448Y-108501826D01*
X187321442Y-108652732D01*
X187339608Y-108703936D01*
X187360057Y-108761575D01*
X187373716Y-108800073D01*
X187373716Y-108800075D01*
X187457182Y-108932274D01*
X187567725Y-109042817D01*
X187567727Y-109042818D01*
X187567729Y-109042820D01*
X187699926Y-109126284D01*
X187847269Y-109178558D01*
X188002509Y-109197069D01*
X188158012Y-109180909D01*
X188306128Y-109130871D01*
X188366828Y-109093728D01*
X188431548Y-109075500D01*
X188464522Y-109075501D01*
X188464524Y-109075500D01*
X189285118Y-109075500D01*
X190185473Y-109075500D01*
X190218452Y-109075500D01*
X190283172Y-109093730D01*
X190336373Y-109126283D01*
X190343872Y-109130871D01*
X190491988Y-109180909D01*
X190647491Y-109197069D01*
X190802731Y-109178558D01*
X190950074Y-109126284D01*
X191082271Y-109042820D01*
X191192820Y-108932271D01*
X191276284Y-108800074D01*
X191328558Y-108652731D01*
X191347069Y-108497491D01*
X191330909Y-108341988D01*
X191280871Y-108193872D01*
X191280868Y-108193867D01*
X191243729Y-108133170D01*
X191225500Y-108068451D01*
X191225500Y-106681546D01*
X191243730Y-106616826D01*
X191280871Y-106556128D01*
X191330909Y-106408012D01*
X191347069Y-106252509D01*
X191328558Y-106097269D01*
X191276284Y-105949926D01*
X191266740Y-105934810D01*
X191208604Y-105842729D01*
X191192820Y-105817729D01*
X191192818Y-105817727D01*
X191192817Y-105817725D01*
X191082274Y-105707182D01*
X191070027Y-105699450D01*
X190950074Y-105623716D01*
X190802731Y-105571442D01*
X190802733Y-105571442D01*
X190750984Y-105565271D01*
X190647491Y-105552931D01*
X190647488Y-105552931D01*
X190647487Y-105552931D01*
X190491986Y-105569091D01*
X190343871Y-105619129D01*
X190343870Y-105619129D01*
X190283169Y-105656271D01*
X190218451Y-105674500D01*
X188431549Y-105674500D01*
X188366831Y-105656271D01*
X188306128Y-105619129D01*
X188158014Y-105569090D01*
X188158011Y-105569089D01*
X188002511Y-105552929D01*
X188002510Y-105552929D01*
X188002509Y-105552929D01*
X187847268Y-105571440D01*
X187847267Y-105571440D01*
X187699926Y-105623712D01*
X187567723Y-105707180D01*
X187457180Y-105817723D01*
X187373712Y-105949926D01*
X187326185Y-106083892D01*
X187321440Y-106097268D01*
X187306395Y-106223446D01*
X187302929Y-106252511D01*
X185600500Y-106252511D01*
X185600500Y-102394126D01*
X186524500Y-102394126D01*
X186524500Y-102705873D01*
X186559402Y-103015633D01*
X186559404Y-103015649D01*
X186628771Y-103319567D01*
X186628775Y-103319579D01*
X186731733Y-103613814D01*
X186866988Y-103894674D01*
X186866990Y-103894677D01*
X187032844Y-104158633D01*
X187056940Y-104188848D01*
X187219469Y-104392654D01*
X187227209Y-104402359D01*
X187447641Y-104622791D01*
X187691367Y-104817156D01*
X187955323Y-104983010D01*
X188236189Y-105118268D01*
X188457174Y-105195594D01*
X188530420Y-105221224D01*
X188530432Y-105221228D01*
X188834354Y-105290596D01*
X189144126Y-105325499D01*
X189144127Y-105325500D01*
X189144131Y-105325500D01*
X189455873Y-105325500D01*
X189455873Y-105325499D01*
X189765646Y-105290596D01*
X190069568Y-105221228D01*
X190363811Y-105118268D01*
X190644677Y-104983010D01*
X190908633Y-104817156D01*
X191152359Y-104622791D01*
X191372791Y-104402359D01*
X191567156Y-104158633D01*
X191733010Y-103894677D01*
X191868268Y-103613811D01*
X191971228Y-103319568D01*
X192040596Y-103015646D01*
X192075500Y-102705869D01*
X192075500Y-102394131D01*
X192040596Y-102084354D01*
X191971228Y-101780432D01*
X191868268Y-101486189D01*
X191733010Y-101205323D01*
X191567156Y-100941367D01*
X191372791Y-100697641D01*
X191152359Y-100477209D01*
X191140436Y-100467701D01*
X190925896Y-100296611D01*
X190908633Y-100282844D01*
X190644677Y-100116990D01*
X190644674Y-100116988D01*
X190363814Y-99981733D01*
X190069579Y-99878775D01*
X190069567Y-99878771D01*
X189851742Y-99829054D01*
X191199498Y-99829054D01*
X191240423Y-99981785D01*
X191240424Y-99981788D01*
X191241400Y-99983478D01*
X191241403Y-99983483D01*
X191319477Y-100118712D01*
X191319481Y-100118717D01*
X191438349Y-100237585D01*
X191438355Y-100237590D01*
X193613181Y-102412416D01*
X193646666Y-102473739D01*
X193649500Y-102500097D01*
X193649500Y-105875638D01*
X193629815Y-105942677D01*
X193613181Y-105963319D01*
X193550538Y-106025961D01*
X193550535Y-106025965D01*
X193451990Y-106173446D01*
X193451983Y-106173459D01*
X193384106Y-106337332D01*
X193384103Y-106337341D01*
X193349500Y-106511304D01*
X193349500Y-106688695D01*
X193384103Y-106862658D01*
X193384106Y-106862667D01*
X193451983Y-107026540D01*
X193451990Y-107026553D01*
X193550535Y-107174034D01*
X193550538Y-107174038D01*
X193675961Y-107299461D01*
X193675965Y-107299464D01*
X193823446Y-107398009D01*
X193823459Y-107398016D01*
X193942405Y-107447284D01*
X193987334Y-107465894D01*
X193987336Y-107465894D01*
X193987341Y-107465896D01*
X194161304Y-107500499D01*
X194161307Y-107500500D01*
X194161309Y-107500500D01*
X194338693Y-107500500D01*
X194338694Y-107500499D01*
X194396682Y-107488964D01*
X194512658Y-107465896D01*
X194512661Y-107465894D01*
X194512666Y-107465894D01*
X194676547Y-107398013D01*
X194824035Y-107299464D01*
X194949464Y-107174035D01*
X195048013Y-107026547D01*
X195115894Y-106862666D01*
X195121553Y-106834219D01*
X195140389Y-106739522D01*
X195150500Y-106688691D01*
X195150500Y-106511309D01*
X195150500Y-106511306D01*
X195150499Y-106511304D01*
X195115896Y-106337341D01*
X195115893Y-106337332D01*
X195048016Y-106173459D01*
X195048009Y-106173446D01*
X194949464Y-106025965D01*
X194949461Y-106025961D01*
X194886819Y-105963319D01*
X194853334Y-105901996D01*
X194850500Y-105875638D01*
X194850500Y-102120945D01*
X194850500Y-102120943D01*
X194813038Y-101981130D01*
X194809577Y-101968215D01*
X194748131Y-101861788D01*
X194730520Y-101831284D01*
X194618716Y-101719480D01*
X194618715Y-101719479D01*
X194614385Y-101715149D01*
X194614374Y-101715139D01*
X192436819Y-99537584D01*
X192403334Y-99476261D01*
X192400500Y-99449903D01*
X192400500Y-98624038D01*
X192699500Y-98624038D01*
X192699500Y-98875961D01*
X192738910Y-99124785D01*
X192816760Y-99364383D01*
X192879346Y-99487213D01*
X192917563Y-99562219D01*
X192931132Y-99588848D01*
X193079201Y-99792649D01*
X193079205Y-99792654D01*
X193257345Y-99970794D01*
X193257350Y-99970798D01*
X193435117Y-100099952D01*
X193461155Y-100118870D01*
X193604184Y-100191747D01*
X193685616Y-100233239D01*
X193685618Y-100233239D01*
X193685621Y-100233241D01*
X193925215Y-100311090D01*
X194174038Y-100350500D01*
X194174039Y-100350500D01*
X194425961Y-100350500D01*
X194425962Y-100350500D01*
X194674785Y-100311090D01*
X194914379Y-100233241D01*
X195138845Y-100118870D01*
X195342656Y-99970793D01*
X195520793Y-99792656D01*
X195668870Y-99588845D01*
X195755201Y-99419409D01*
X195773649Y-99383205D01*
X195821624Y-99332409D01*
X195884134Y-99315500D01*
X199445398Y-99315500D01*
X199512437Y-99335185D01*
X199555883Y-99383205D01*
X199562715Y-99396614D01*
X199683028Y-99562213D01*
X199827786Y-99706971D01*
X199942857Y-99790573D01*
X199993390Y-99827287D01*
X200094433Y-99878771D01*
X200175776Y-99920218D01*
X200175778Y-99920218D01*
X200175781Y-99920220D01*
X200280137Y-99954127D01*
X200370465Y-99983477D01*
X200471557Y-99999488D01*
X200572648Y-100015500D01*
X200572649Y-100015500D01*
X200777351Y-100015500D01*
X200777352Y-100015500D01*
X200979534Y-99983477D01*
X201174219Y-99920220D01*
X201356610Y-99827287D01*
X201457264Y-99754158D01*
X201522213Y-99706971D01*
X201522215Y-99706968D01*
X201522219Y-99706966D01*
X201666966Y-99562219D01*
X201666968Y-99562215D01*
X201666971Y-99562213D01*
X201729418Y-99476261D01*
X201787287Y-99396610D01*
X201880220Y-99214219D01*
X201943477Y-99019534D01*
X201975500Y-98817352D01*
X201975500Y-98612648D01*
X201943826Y-98412667D01*
X201943477Y-98410465D01*
X201880218Y-98215776D01*
X201846503Y-98149607D01*
X201787287Y-98033390D01*
X201732794Y-97958386D01*
X201666971Y-97867786D01*
X201522213Y-97723028D01*
X201356613Y-97602715D01*
X201356612Y-97602714D01*
X201356610Y-97602713D01*
X201299653Y-97573691D01*
X201174223Y-97509781D01*
X200979534Y-97446522D01*
X200804995Y-97418878D01*
X200777352Y-97414500D01*
X200572648Y-97414500D01*
X200548329Y-97418351D01*
X200370465Y-97446522D01*
X200175776Y-97509781D01*
X199993386Y-97602715D01*
X199827786Y-97723028D01*
X199683028Y-97867786D01*
X199562715Y-98033385D01*
X199555883Y-98046795D01*
X199507909Y-98097591D01*
X199445398Y-98114500D01*
X195848467Y-98114500D01*
X195781428Y-98094815D01*
X195737982Y-98046795D01*
X195692935Y-97958386D01*
X195668870Y-97911155D01*
X195620913Y-97845148D01*
X195520798Y-97707350D01*
X195520794Y-97707345D01*
X195342654Y-97529205D01*
X195342649Y-97529201D01*
X195138848Y-97381132D01*
X195138847Y-97381131D01*
X195138845Y-97381130D01*
X195068747Y-97345413D01*
X194914383Y-97266760D01*
X194674785Y-97188910D01*
X194576872Y-97173402D01*
X194425962Y-97149500D01*
X194174038Y-97149500D01*
X194049626Y-97169205D01*
X193925214Y-97188910D01*
X193685616Y-97266760D01*
X193461151Y-97381132D01*
X193257350Y-97529201D01*
X193257345Y-97529205D01*
X193079205Y-97707345D01*
X193079201Y-97707350D01*
X192931132Y-97911151D01*
X192816760Y-98135616D01*
X192738910Y-98375214D01*
X192699500Y-98624038D01*
X192400500Y-98624038D01*
X192400500Y-97850097D01*
X192420185Y-97783058D01*
X192436819Y-97762416D01*
X193203487Y-96995748D01*
X194030520Y-96168716D01*
X194109577Y-96031784D01*
X194150501Y-95879057D01*
X194150501Y-95720942D01*
X194150501Y-95713347D01*
X194150500Y-95713329D01*
X194150500Y-94524361D01*
X194170185Y-94457322D01*
X194186814Y-94436684D01*
X194249464Y-94374035D01*
X194348013Y-94226547D01*
X194415894Y-94062666D01*
X194423127Y-94026306D01*
X194450499Y-93888695D01*
X194450500Y-93888693D01*
X194450500Y-93711306D01*
X194450499Y-93711304D01*
X194415896Y-93537341D01*
X194415893Y-93537332D01*
X194348016Y-93373459D01*
X194348009Y-93373446D01*
X194249464Y-93225965D01*
X194249461Y-93225961D01*
X194124038Y-93100538D01*
X194124034Y-93100535D01*
X193976553Y-93001990D01*
X193976540Y-93001983D01*
X193812667Y-92934106D01*
X193812658Y-92934103D01*
X193638694Y-92899500D01*
X193638691Y-92899500D01*
X193461309Y-92899500D01*
X193461306Y-92899500D01*
X193287341Y-92934103D01*
X193287332Y-92934106D01*
X193123459Y-93001983D01*
X193123446Y-93001990D01*
X192975965Y-93100535D01*
X192975961Y-93100538D01*
X192850538Y-93225961D01*
X192850535Y-93225965D01*
X192751990Y-93373446D01*
X192751983Y-93373459D01*
X192684106Y-93537332D01*
X192684103Y-93537341D01*
X192649500Y-93711304D01*
X192649500Y-93888695D01*
X192684103Y-94062658D01*
X192684106Y-94062667D01*
X192751983Y-94226540D01*
X192751990Y-94226553D01*
X192850534Y-94374033D01*
X192850535Y-94374034D01*
X192850536Y-94374035D01*
X192913182Y-94436681D01*
X192946666Y-94498002D01*
X192949500Y-94524361D01*
X192949500Y-95499902D01*
X192929815Y-95566941D01*
X192913181Y-95587583D01*
X191319481Y-97181282D01*
X191319479Y-97181284D01*
X191291797Y-97229232D01*
X191280096Y-97249500D01*
X191240423Y-97318215D01*
X191199499Y-97470943D01*
X191199499Y-97470945D01*
X191199499Y-97639046D01*
X191199500Y-97639059D01*
X191199500Y-99663330D01*
X191199499Y-99663348D01*
X191199499Y-99829054D01*
X191199498Y-99829054D01*
X189851742Y-99829054D01*
X189765649Y-99809404D01*
X189765633Y-99809402D01*
X189455873Y-99774500D01*
X189455869Y-99774500D01*
X189144131Y-99774500D01*
X189144127Y-99774500D01*
X188834366Y-99809402D01*
X188834350Y-99809404D01*
X188530432Y-99878771D01*
X188530420Y-99878775D01*
X188236185Y-99981733D01*
X187955325Y-100116988D01*
X187691368Y-100282843D01*
X187447641Y-100477208D01*
X187227208Y-100697641D01*
X187032843Y-100941368D01*
X186866988Y-101205325D01*
X186731733Y-101486185D01*
X186628775Y-101780420D01*
X186628771Y-101780432D01*
X186559404Y-102084350D01*
X186559402Y-102084366D01*
X186524500Y-102394126D01*
X185600500Y-102394126D01*
X185600500Y-96524071D01*
X187700000Y-96524071D01*
X187700000Y-96775928D01*
X187739397Y-97024669D01*
X187817219Y-97264184D01*
X187931557Y-97488583D01*
X188005748Y-97590697D01*
X188005748Y-97590698D01*
X188735387Y-96861059D01*
X188740889Y-96881591D01*
X188819881Y-97018408D01*
X188931592Y-97130119D01*
X189068409Y-97209111D01*
X189088940Y-97214612D01*
X188359300Y-97944250D01*
X188461416Y-98018442D01*
X188685815Y-98132780D01*
X188925330Y-98210602D01*
X189174072Y-98250000D01*
X189425928Y-98250000D01*
X189674669Y-98210602D01*
X189914184Y-98132780D01*
X190138575Y-98018446D01*
X190138581Y-98018442D01*
X190240697Y-97944250D01*
X190240698Y-97944250D01*
X189511059Y-97214612D01*
X189531591Y-97209111D01*
X189668408Y-97130119D01*
X189780119Y-97018408D01*
X189859111Y-96881591D01*
X189864612Y-96861060D01*
X190594250Y-97590698D01*
X190594250Y-97590697D01*
X190668442Y-97488581D01*
X190668446Y-97488575D01*
X190710256Y-97406520D01*
X190782780Y-97264184D01*
X190860602Y-97024669D01*
X190900000Y-96775928D01*
X190900000Y-96524071D01*
X190860602Y-96275330D01*
X190782780Y-96035815D01*
X190668442Y-95811416D01*
X190594250Y-95709301D01*
X190594250Y-95709300D01*
X189864612Y-96438939D01*
X189859111Y-96418409D01*
X189780119Y-96281592D01*
X189668408Y-96169881D01*
X189531591Y-96090889D01*
X189511058Y-96085387D01*
X190240698Y-95355748D01*
X190138583Y-95281557D01*
X189914184Y-95167219D01*
X189674669Y-95089397D01*
X189425928Y-95050000D01*
X189174072Y-95050000D01*
X188925330Y-95089397D01*
X188685815Y-95167219D01*
X188461413Y-95281559D01*
X188359301Y-95355747D01*
X188359300Y-95355748D01*
X189088940Y-96085387D01*
X189068409Y-96090889D01*
X188931592Y-96169881D01*
X188819881Y-96281592D01*
X188740889Y-96418409D01*
X188735387Y-96438940D01*
X188005748Y-95709300D01*
X188005747Y-95709301D01*
X187931559Y-95811413D01*
X187817219Y-96035815D01*
X187739397Y-96275330D01*
X187700000Y-96524071D01*
X185600500Y-96524071D01*
X185600500Y-94532203D01*
X185620185Y-94465164D01*
X185636814Y-94444527D01*
X187258791Y-92822549D01*
X187308150Y-92792301D01*
X187499219Y-92730220D01*
X187681610Y-92637287D01*
X187792681Y-92556590D01*
X187847213Y-92516971D01*
X187847215Y-92516968D01*
X187847219Y-92516966D01*
X187991966Y-92372219D01*
X187991968Y-92372215D01*
X187991971Y-92372213D01*
X188044732Y-92299590D01*
X188112287Y-92206610D01*
X188205220Y-92024219D01*
X188268477Y-91829534D01*
X188300500Y-91627352D01*
X188300500Y-91422682D01*
X190700000Y-91422682D01*
X190700000Y-91627317D01*
X190732009Y-91829417D01*
X190795244Y-92024031D01*
X190888141Y-92206350D01*
X190888147Y-92206359D01*
X190920523Y-92250921D01*
X190920524Y-92250922D01*
X191600000Y-91571446D01*
X191600000Y-91577661D01*
X191627259Y-91679394D01*
X191679920Y-91770606D01*
X191754394Y-91845080D01*
X191845606Y-91897741D01*
X191947339Y-91925000D01*
X191953553Y-91925000D01*
X191274076Y-92604474D01*
X191318650Y-92636859D01*
X191500968Y-92729755D01*
X191695582Y-92792990D01*
X191897683Y-92825000D01*
X192102317Y-92825000D01*
X192304417Y-92792990D01*
X192499031Y-92729755D01*
X192681349Y-92636859D01*
X192725921Y-92604474D01*
X192046447Y-91925000D01*
X192052661Y-91925000D01*
X192154394Y-91897741D01*
X192245606Y-91845080D01*
X192320080Y-91770606D01*
X192372741Y-91679394D01*
X192400000Y-91577661D01*
X192400000Y-91571447D01*
X193079474Y-92250921D01*
X193111859Y-92206349D01*
X193204755Y-92024031D01*
X193267990Y-91829417D01*
X193300000Y-91627317D01*
X193300000Y-91422682D01*
X193267990Y-91220582D01*
X193204755Y-91025968D01*
X193111859Y-90843650D01*
X193079474Y-90799077D01*
X193079474Y-90799076D01*
X192400000Y-91478551D01*
X192400000Y-91472339D01*
X192372741Y-91370606D01*
X192320080Y-91279394D01*
X192245606Y-91204920D01*
X192154394Y-91152259D01*
X192052661Y-91125000D01*
X192046446Y-91125000D01*
X192725922Y-90445524D01*
X192725921Y-90445523D01*
X192681359Y-90413147D01*
X192681350Y-90413141D01*
X192499031Y-90320244D01*
X192304417Y-90257009D01*
X192102317Y-90225000D01*
X191897683Y-90225000D01*
X191695582Y-90257009D01*
X191500968Y-90320244D01*
X191318644Y-90413143D01*
X191274077Y-90445523D01*
X191274077Y-90445524D01*
X191953554Y-91125000D01*
X191947339Y-91125000D01*
X191845606Y-91152259D01*
X191754394Y-91204920D01*
X191679920Y-91279394D01*
X191627259Y-91370606D01*
X191600000Y-91472339D01*
X191600000Y-91478553D01*
X190920524Y-90799077D01*
X190920523Y-90799077D01*
X190888143Y-90843644D01*
X190795244Y-91025968D01*
X190732009Y-91220582D01*
X190700000Y-91422682D01*
X188300500Y-91422682D01*
X188300500Y-91422648D01*
X188292257Y-91370606D01*
X188268477Y-91220465D01*
X188211934Y-91046446D01*
X188205220Y-91025781D01*
X188205218Y-91025778D01*
X188205218Y-91025776D01*
X188160153Y-90937332D01*
X188112287Y-90843390D01*
X188080092Y-90799077D01*
X187991971Y-90677786D01*
X187847213Y-90533028D01*
X187681613Y-90412715D01*
X187681612Y-90412714D01*
X187681610Y-90412713D01*
X187624653Y-90383691D01*
X187499223Y-90319781D01*
X187304534Y-90256522D01*
X187129995Y-90228878D01*
X187102352Y-90224500D01*
X186897648Y-90224500D01*
X186873329Y-90228351D01*
X186695465Y-90256522D01*
X186500776Y-90319781D01*
X186318386Y-90412715D01*
X186152786Y-90533028D01*
X186008028Y-90677786D01*
X185887715Y-90843386D01*
X185794781Y-91025776D01*
X185732699Y-91216845D01*
X185702449Y-91266207D01*
X183783072Y-93185586D01*
X183660588Y-93308069D01*
X183660588Y-93308070D01*
X183660586Y-93308072D01*
X183622901Y-93359941D01*
X183558768Y-93448211D01*
X183480128Y-93602552D01*
X183426597Y-93767302D01*
X183399500Y-93938389D01*
X183399500Y-109775500D01*
X183379815Y-109842539D01*
X183327011Y-109888294D01*
X183275500Y-109899500D01*
X179184512Y-109899500D01*
X179128220Y-109885985D01*
X179042951Y-109842539D01*
X178949223Y-109794781D01*
X178754534Y-109731522D01*
X178579995Y-109703878D01*
X178552352Y-109699500D01*
X178347648Y-109699500D01*
X178323329Y-109703351D01*
X178145465Y-109731522D01*
X177950776Y-109794781D01*
X177833899Y-109854334D01*
X177771779Y-109885985D01*
X177715488Y-109899500D01*
X176407106Y-109899500D01*
X176340067Y-109879815D01*
X176294312Y-109827011D01*
X176289401Y-109814506D01*
X176284815Y-109800667D01*
X176284814Y-109800665D01*
X176192712Y-109651344D01*
X176068656Y-109527288D01*
X175919335Y-109435186D01*
X175752798Y-109380001D01*
X175752796Y-109380000D01*
X175650017Y-109369500D01*
X175650010Y-109369500D01*
X173849990Y-109369500D01*
X173849982Y-109369500D01*
X173747203Y-109380000D01*
X173747202Y-109380001D01*
X173664669Y-109407349D01*
X173580667Y-109435185D01*
X173580662Y-109435187D01*
X173431342Y-109527289D01*
X173307289Y-109651342D01*
X173215184Y-109800667D01*
X173210599Y-109814506D01*
X173170826Y-109871950D01*
X173106310Y-109898772D01*
X173092894Y-109899500D01*
X155386611Y-109899500D01*
X155213389Y-109899500D01*
X155173728Y-109905781D01*
X155042302Y-109926597D01*
X154877552Y-109980128D01*
X154723211Y-110058768D01*
X154643256Y-110116859D01*
X154583072Y-110160586D01*
X154583070Y-110160588D01*
X154583069Y-110160588D01*
X153887681Y-110855977D01*
X153826358Y-110889462D01*
X153756666Y-110884478D01*
X153712319Y-110855977D01*
X151736819Y-108880477D01*
X151703334Y-108819154D01*
X151700500Y-108792796D01*
X151700500Y-106277511D01*
X154852929Y-106277511D01*
X154869089Y-106433011D01*
X154869090Y-106433014D01*
X154919129Y-106581129D01*
X154956270Y-106641829D01*
X154974499Y-106706548D01*
X154974499Y-106753952D01*
X154974500Y-106753961D01*
X154974500Y-108048276D01*
X154974484Y-108048439D01*
X154974497Y-108093420D01*
X154956268Y-108158175D01*
X154919131Y-108218867D01*
X154919128Y-108218874D01*
X154869091Y-108366986D01*
X154855079Y-108501826D01*
X154852931Y-108522491D01*
X154867739Y-108646683D01*
X154871442Y-108677732D01*
X154879147Y-108699450D01*
X154912264Y-108792796D01*
X154923716Y-108825073D01*
X154923716Y-108825075D01*
X155007182Y-108957274D01*
X155117725Y-109067817D01*
X155117727Y-109067818D01*
X155117729Y-109067820D01*
X155249926Y-109151284D01*
X155397269Y-109203558D01*
X155552509Y-109222069D01*
X155708012Y-109205909D01*
X155856128Y-109155871D01*
X155916828Y-109118728D01*
X155981548Y-109100500D01*
X156014522Y-109100501D01*
X156014524Y-109100500D01*
X156835118Y-109100500D01*
X157735473Y-109100500D01*
X157768452Y-109100500D01*
X157833172Y-109118730D01*
X157886373Y-109151283D01*
X157893872Y-109155871D01*
X158041988Y-109205909D01*
X158197491Y-109222069D01*
X158352731Y-109203558D01*
X158500074Y-109151284D01*
X158632271Y-109067820D01*
X158742820Y-108957271D01*
X158826284Y-108825074D01*
X158878558Y-108677731D01*
X158897069Y-108522491D01*
X158880909Y-108366988D01*
X158830871Y-108218872D01*
X158826281Y-108211371D01*
X158793729Y-108158170D01*
X158775500Y-108093451D01*
X158775500Y-106706546D01*
X158793730Y-106641826D01*
X158830871Y-106581128D01*
X158880909Y-106433012D01*
X158897069Y-106277509D01*
X158878558Y-106122269D01*
X158826284Y-105974926D01*
X158820153Y-105965216D01*
X158790945Y-105918954D01*
X158742820Y-105842729D01*
X158742818Y-105842727D01*
X158742817Y-105842725D01*
X158632274Y-105732182D01*
X158580430Y-105699450D01*
X158500074Y-105648716D01*
X158352731Y-105596442D01*
X158352733Y-105596442D01*
X158286386Y-105588531D01*
X158197491Y-105577931D01*
X158197488Y-105577931D01*
X158197487Y-105577931D01*
X158041986Y-105594091D01*
X157893871Y-105644129D01*
X157893870Y-105644129D01*
X157833169Y-105681271D01*
X157768451Y-105699500D01*
X155981549Y-105699500D01*
X155916831Y-105681271D01*
X155856128Y-105644129D01*
X155708014Y-105594090D01*
X155708011Y-105594089D01*
X155552511Y-105577929D01*
X155552510Y-105577929D01*
X155552509Y-105577929D01*
X155397268Y-105596440D01*
X155397267Y-105596440D01*
X155249926Y-105648712D01*
X155117723Y-105732180D01*
X155007180Y-105842723D01*
X154923712Y-105974926D01*
X154879145Y-106100549D01*
X154871440Y-106122268D01*
X154859376Y-106223446D01*
X154852929Y-106277511D01*
X151700500Y-106277511D01*
X151700500Y-102394126D01*
X154024500Y-102394126D01*
X154024500Y-102705873D01*
X154059402Y-103015633D01*
X154059404Y-103015649D01*
X154128771Y-103319567D01*
X154128775Y-103319579D01*
X154231733Y-103613814D01*
X154366988Y-103894674D01*
X154366990Y-103894677D01*
X154532844Y-104158633D01*
X154556940Y-104188848D01*
X154719469Y-104392654D01*
X154727209Y-104402359D01*
X154947641Y-104622791D01*
X155191367Y-104817156D01*
X155455323Y-104983010D01*
X155736189Y-105118268D01*
X155957174Y-105195594D01*
X156030420Y-105221224D01*
X156030432Y-105221228D01*
X156334354Y-105290596D01*
X156644126Y-105325499D01*
X156644127Y-105325500D01*
X156644131Y-105325500D01*
X156955873Y-105325500D01*
X156955873Y-105325499D01*
X157265646Y-105290596D01*
X157569568Y-105221228D01*
X157863811Y-105118268D01*
X158144677Y-104983010D01*
X158408633Y-104817156D01*
X158652359Y-104622791D01*
X158872791Y-104402359D01*
X159067156Y-104158633D01*
X159233010Y-103894677D01*
X159368268Y-103613811D01*
X159471228Y-103319568D01*
X159540596Y-103015646D01*
X159575500Y-102705869D01*
X159575500Y-102394131D01*
X159540596Y-102084354D01*
X159471228Y-101780432D01*
X159368268Y-101486189D01*
X159342441Y-101432560D01*
X159331090Y-101363620D01*
X159358812Y-101299485D01*
X159416807Y-101260519D01*
X159486662Y-101259094D01*
X159541843Y-101291078D01*
X161063181Y-102812416D01*
X161096666Y-102873739D01*
X161099500Y-102900097D01*
X161099500Y-105875638D01*
X161079815Y-105942677D01*
X161063181Y-105963319D01*
X160950538Y-106075961D01*
X160950535Y-106075965D01*
X160851990Y-106223446D01*
X160851983Y-106223459D01*
X160784106Y-106387332D01*
X160784103Y-106387341D01*
X160749500Y-106561304D01*
X160749500Y-106738695D01*
X160784103Y-106912658D01*
X160784106Y-106912667D01*
X160851983Y-107076540D01*
X160851990Y-107076553D01*
X160950535Y-107224034D01*
X160950538Y-107224038D01*
X161075961Y-107349461D01*
X161075965Y-107349464D01*
X161223446Y-107448009D01*
X161223459Y-107448016D01*
X161346363Y-107498923D01*
X161387334Y-107515894D01*
X161387336Y-107515894D01*
X161387341Y-107515896D01*
X161561304Y-107550499D01*
X161561307Y-107550500D01*
X161561309Y-107550500D01*
X161738693Y-107550500D01*
X161738694Y-107550499D01*
X161847045Y-107528947D01*
X161912658Y-107515896D01*
X161912661Y-107515894D01*
X161912666Y-107515894D01*
X162052535Y-107457958D01*
X162076540Y-107448016D01*
X162076540Y-107448015D01*
X162076547Y-107448013D01*
X162224035Y-107349464D01*
X162349464Y-107224035D01*
X162448013Y-107076547D01*
X162515894Y-106912666D01*
X162522633Y-106878790D01*
X162545889Y-106761873D01*
X162550500Y-106738691D01*
X162550500Y-106561309D01*
X162550500Y-106561306D01*
X162550499Y-106561304D01*
X162515896Y-106387341D01*
X162515893Y-106387332D01*
X162448016Y-106223459D01*
X162448009Y-106223446D01*
X162349464Y-106075965D01*
X162349461Y-106075961D01*
X162336819Y-106063319D01*
X162303334Y-106001996D01*
X162300500Y-105975638D01*
X162300500Y-102689060D01*
X162300501Y-102689047D01*
X162300501Y-102520944D01*
X162281152Y-102448735D01*
X162259577Y-102368216D01*
X162199056Y-102263389D01*
X162180524Y-102231290D01*
X162180518Y-102231282D01*
X160436819Y-100487583D01*
X160403334Y-100426260D01*
X160400500Y-100399902D01*
X160400500Y-99913311D01*
X160420185Y-99846272D01*
X160472989Y-99800517D01*
X160542147Y-99790573D01*
X160605703Y-99819598D01*
X160612181Y-99825630D01*
X160757345Y-99970794D01*
X160757350Y-99970798D01*
X160935117Y-100099952D01*
X160961155Y-100118870D01*
X161104184Y-100191747D01*
X161185616Y-100233239D01*
X161185618Y-100233239D01*
X161185621Y-100233241D01*
X161425215Y-100311090D01*
X161674038Y-100350500D01*
X161674039Y-100350500D01*
X161925961Y-100350500D01*
X161925962Y-100350500D01*
X162174785Y-100311090D01*
X162414379Y-100233241D01*
X162638845Y-100118870D01*
X162842656Y-99970793D01*
X163020793Y-99792656D01*
X163168870Y-99588845D01*
X163283241Y-99364379D01*
X163295652Y-99326179D01*
X163335090Y-99268506D01*
X163399449Y-99241308D01*
X163413583Y-99240500D01*
X167095398Y-99240500D01*
X167162437Y-99260185D01*
X167205883Y-99308205D01*
X167212715Y-99321614D01*
X167333028Y-99487213D01*
X167477786Y-99631971D01*
X167581010Y-99706966D01*
X167643390Y-99752287D01*
X167722605Y-99792649D01*
X167825776Y-99845218D01*
X167825778Y-99845218D01*
X167825781Y-99845220D01*
X167929040Y-99878771D01*
X168020465Y-99908477D01*
X168094607Y-99920220D01*
X168222648Y-99940500D01*
X168222649Y-99940500D01*
X168427351Y-99940500D01*
X168427352Y-99940500D01*
X168629534Y-99908477D01*
X168824219Y-99845220D01*
X169006610Y-99752287D01*
X169099590Y-99684732D01*
X169172213Y-99631971D01*
X169172215Y-99631968D01*
X169172219Y-99631966D01*
X169316966Y-99487219D01*
X169316968Y-99487215D01*
X169316971Y-99487213D01*
X169382794Y-99396614D01*
X169437287Y-99321610D01*
X169530220Y-99139219D01*
X169593477Y-98944534D01*
X169625500Y-98742352D01*
X169625500Y-98537648D01*
X169605705Y-98412667D01*
X169593477Y-98335465D01*
X169530218Y-98140776D01*
X169484219Y-98050499D01*
X169437287Y-97958390D01*
X169402966Y-97911151D01*
X169316971Y-97792786D01*
X169172213Y-97648028D01*
X169006613Y-97527715D01*
X169006612Y-97527714D01*
X169006610Y-97527713D01*
X168929813Y-97488583D01*
X168824223Y-97434781D01*
X168629534Y-97371522D01*
X168454995Y-97343878D01*
X168427352Y-97339500D01*
X168222648Y-97339500D01*
X168198329Y-97343351D01*
X168020465Y-97371522D01*
X167825776Y-97434781D01*
X167643386Y-97527715D01*
X167477786Y-97648028D01*
X167333028Y-97792786D01*
X167212715Y-97958385D01*
X167205883Y-97971795D01*
X167157909Y-98022591D01*
X167095398Y-98039500D01*
X163310253Y-98039500D01*
X163243214Y-98019815D01*
X163199769Y-97971796D01*
X163168869Y-97911153D01*
X163020798Y-97707350D01*
X163020794Y-97707345D01*
X162842654Y-97529205D01*
X162842649Y-97529201D01*
X162638848Y-97381132D01*
X162638847Y-97381131D01*
X162638845Y-97381130D01*
X162568747Y-97345413D01*
X162414383Y-97266760D01*
X162174785Y-97188910D01*
X162076872Y-97173402D01*
X161925962Y-97149500D01*
X161674038Y-97149500D01*
X161549626Y-97169205D01*
X161425214Y-97188910D01*
X161185616Y-97266760D01*
X160961151Y-97381132D01*
X160757350Y-97529201D01*
X160757345Y-97529205D01*
X160612181Y-97674370D01*
X160550858Y-97707855D01*
X160481166Y-97702871D01*
X160425233Y-97660999D01*
X160400816Y-97595535D01*
X160400500Y-97586689D01*
X160400500Y-96520945D01*
X160400500Y-96520943D01*
X160359577Y-96368216D01*
X160289401Y-96246666D01*
X160280524Y-96231290D01*
X160280521Y-96231286D01*
X160280520Y-96231284D01*
X160168716Y-96119480D01*
X160168715Y-96119479D01*
X160164385Y-96115149D01*
X160164374Y-96115139D01*
X157686819Y-93637584D01*
X157653334Y-93576261D01*
X157650500Y-93549903D01*
X157650500Y-93461306D01*
X157650499Y-93461304D01*
X157615896Y-93287341D01*
X157615893Y-93287332D01*
X157614128Y-93283072D01*
X157590473Y-93225961D01*
X157548016Y-93123459D01*
X157548009Y-93123446D01*
X157449464Y-92975965D01*
X157449461Y-92975961D01*
X157324038Y-92850538D01*
X157324034Y-92850535D01*
X157176553Y-92751990D01*
X157176540Y-92751983D01*
X157012667Y-92684106D01*
X157012658Y-92684103D01*
X156838694Y-92649500D01*
X156838691Y-92649500D01*
X156661309Y-92649500D01*
X156661306Y-92649500D01*
X156487341Y-92684103D01*
X156487332Y-92684106D01*
X156323459Y-92751983D01*
X156323446Y-92751990D01*
X156175965Y-92850535D01*
X156175961Y-92850538D01*
X156050538Y-92975961D01*
X156050535Y-92975965D01*
X155951990Y-93123446D01*
X155951983Y-93123459D01*
X155884106Y-93287332D01*
X155884103Y-93287341D01*
X155849500Y-93461304D01*
X155849500Y-93638695D01*
X155884103Y-93812658D01*
X155884106Y-93812667D01*
X155951983Y-93976540D01*
X155951990Y-93976553D01*
X156050535Y-94124034D01*
X156050538Y-94124038D01*
X156175961Y-94249461D01*
X156175965Y-94249464D01*
X156323446Y-94348009D01*
X156323459Y-94348016D01*
X156386276Y-94374035D01*
X156487334Y-94415894D01*
X156487336Y-94415894D01*
X156487341Y-94415896D01*
X156661304Y-94450499D01*
X156661307Y-94450500D01*
X156661309Y-94450500D01*
X156749903Y-94450500D01*
X156816942Y-94470185D01*
X156837584Y-94486819D01*
X157220270Y-94869505D01*
X157253755Y-94930828D01*
X157248771Y-95000520D01*
X157206899Y-95056453D01*
X157141435Y-95080870D01*
X157113191Y-95079659D01*
X156925928Y-95050000D01*
X156674072Y-95050000D01*
X156425330Y-95089397D01*
X156185815Y-95167219D01*
X155961413Y-95281559D01*
X155859301Y-95355747D01*
X155859300Y-95355748D01*
X156588940Y-96085387D01*
X156568409Y-96090889D01*
X156431592Y-96169881D01*
X156319881Y-96281592D01*
X156240889Y-96418409D01*
X156235387Y-96438940D01*
X155505748Y-95709300D01*
X155505747Y-95709301D01*
X155431559Y-95811413D01*
X155317219Y-96035815D01*
X155239397Y-96275330D01*
X155200000Y-96524071D01*
X155200000Y-96775928D01*
X155239397Y-97024669D01*
X155317219Y-97264184D01*
X155431557Y-97488583D01*
X155505748Y-97590697D01*
X155505748Y-97590698D01*
X156235387Y-96861059D01*
X156240889Y-96881591D01*
X156319881Y-97018408D01*
X156431592Y-97130119D01*
X156568409Y-97209111D01*
X156588940Y-97214612D01*
X155859300Y-97944250D01*
X155961416Y-98018442D01*
X156185815Y-98132780D01*
X156425330Y-98210602D01*
X156674072Y-98250000D01*
X156925928Y-98250000D01*
X157174669Y-98210602D01*
X157414184Y-98132780D01*
X157638575Y-98018446D01*
X157638581Y-98018442D01*
X157740697Y-97944250D01*
X157740698Y-97944250D01*
X157011059Y-97214612D01*
X157031591Y-97209111D01*
X157168408Y-97130119D01*
X157280119Y-97018408D01*
X157359111Y-96881591D01*
X157364612Y-96861059D01*
X158094250Y-97590698D01*
X158094250Y-97590697D01*
X158168442Y-97488581D01*
X158168446Y-97488575D01*
X158282780Y-97264184D01*
X158360602Y-97024669D01*
X158400000Y-96775928D01*
X158400000Y-96524071D01*
X158370340Y-96336808D01*
X158379294Y-96267515D01*
X158424291Y-96214063D01*
X158491042Y-96193423D01*
X158558356Y-96212148D01*
X158580494Y-96229729D01*
X159163181Y-96812416D01*
X159196666Y-96873739D01*
X159199500Y-96900097D01*
X159199500Y-100613330D01*
X159199499Y-100613348D01*
X159199499Y-100752948D01*
X159179814Y-100819987D01*
X159127010Y-100865742D01*
X159057852Y-100875686D01*
X158994296Y-100846661D01*
X158978552Y-100830261D01*
X158872791Y-100697641D01*
X158652358Y-100477208D01*
X158425896Y-100296611D01*
X158408633Y-100282844D01*
X158144677Y-100116990D01*
X158144674Y-100116988D01*
X157863814Y-99981733D01*
X157569579Y-99878775D01*
X157569567Y-99878771D01*
X157265649Y-99809404D01*
X157265633Y-99809402D01*
X156955873Y-99774500D01*
X156955869Y-99774500D01*
X156644131Y-99774500D01*
X156644127Y-99774500D01*
X156334366Y-99809402D01*
X156334350Y-99809404D01*
X156030432Y-99878771D01*
X156030420Y-99878775D01*
X155736185Y-99981733D01*
X155455325Y-100116988D01*
X155191368Y-100282843D01*
X154947641Y-100477208D01*
X154727208Y-100697641D01*
X154532843Y-100941368D01*
X154366988Y-101205325D01*
X154231733Y-101486185D01*
X154128775Y-101780420D01*
X154128771Y-101780432D01*
X154059404Y-102084350D01*
X154059402Y-102084366D01*
X154024500Y-102394126D01*
X151700500Y-102394126D01*
X151700500Y-95807203D01*
X151720185Y-95740164D01*
X151736814Y-95719527D01*
X154758791Y-92697549D01*
X154808150Y-92667301D01*
X154999219Y-92605220D01*
X155181610Y-92512287D01*
X155324093Y-92408768D01*
X155347213Y-92391971D01*
X155347215Y-92391968D01*
X155347219Y-92391966D01*
X155491966Y-92247219D01*
X155491968Y-92247215D01*
X155491971Y-92247213D01*
X155544732Y-92174590D01*
X155612287Y-92081610D01*
X155705220Y-91899219D01*
X155768477Y-91704534D01*
X155800500Y-91502352D01*
X155800500Y-91297682D01*
X158200000Y-91297682D01*
X158200000Y-91502317D01*
X158232009Y-91704417D01*
X158295244Y-91899031D01*
X158388141Y-92081350D01*
X158388147Y-92081359D01*
X158420523Y-92125921D01*
X158420524Y-92125922D01*
X159100000Y-91446446D01*
X159100000Y-91452661D01*
X159127259Y-91554394D01*
X159179920Y-91645606D01*
X159254394Y-91720080D01*
X159345606Y-91772741D01*
X159447339Y-91800000D01*
X159453553Y-91800000D01*
X158774076Y-92479474D01*
X158818650Y-92511859D01*
X159000968Y-92604755D01*
X159195582Y-92667990D01*
X159397683Y-92700000D01*
X159602317Y-92700000D01*
X159804417Y-92667990D01*
X159999031Y-92604755D01*
X160181349Y-92511859D01*
X160225921Y-92479474D01*
X159546447Y-91800000D01*
X159552661Y-91800000D01*
X159654394Y-91772741D01*
X159745606Y-91720080D01*
X159820080Y-91645606D01*
X159872741Y-91554394D01*
X159900000Y-91452661D01*
X159900000Y-91446447D01*
X160579474Y-92125921D01*
X160611859Y-92081349D01*
X160704755Y-91899031D01*
X160767990Y-91704417D01*
X160800000Y-91502317D01*
X160800000Y-91297682D01*
X160770624Y-91112218D01*
X160770623Y-91112213D01*
X160768322Y-91097682D01*
X162440000Y-91097682D01*
X162440000Y-91302317D01*
X162472009Y-91504417D01*
X162535244Y-91699031D01*
X162628141Y-91881350D01*
X162628147Y-91881359D01*
X162660523Y-91925921D01*
X162660524Y-91925922D01*
X163340000Y-91246446D01*
X163340000Y-91252661D01*
X163367259Y-91354394D01*
X163419920Y-91445606D01*
X163494394Y-91520080D01*
X163585606Y-91572741D01*
X163687339Y-91600000D01*
X163693553Y-91600000D01*
X163014076Y-92279474D01*
X163058650Y-92311859D01*
X163240968Y-92404755D01*
X163435582Y-92467990D01*
X163637683Y-92500000D01*
X163842317Y-92500000D01*
X164044417Y-92467990D01*
X164239031Y-92404755D01*
X164421349Y-92311859D01*
X164465921Y-92279474D01*
X163786447Y-91600000D01*
X163792661Y-91600000D01*
X163894394Y-91572741D01*
X163985606Y-91520080D01*
X164060080Y-91445606D01*
X164112741Y-91354394D01*
X164140000Y-91252661D01*
X164140000Y-91246448D01*
X164819474Y-91925922D01*
X164819474Y-91925921D01*
X164851859Y-91881349D01*
X164944755Y-91699031D01*
X165007990Y-91504417D01*
X165040000Y-91302317D01*
X165040000Y-91097682D01*
X165007990Y-90895582D01*
X164944755Y-90700968D01*
X164851859Y-90518650D01*
X164819474Y-90474077D01*
X164819474Y-90474076D01*
X164140000Y-91153551D01*
X164140000Y-91147339D01*
X164112741Y-91045606D01*
X164060080Y-90954394D01*
X163985606Y-90879920D01*
X163894394Y-90827259D01*
X163792661Y-90800000D01*
X163786446Y-90800000D01*
X164465922Y-90120524D01*
X164465921Y-90120523D01*
X164421359Y-90088147D01*
X164421350Y-90088141D01*
X164239031Y-89995244D01*
X164044417Y-89932009D01*
X163842317Y-89900000D01*
X163637683Y-89900000D01*
X163435582Y-89932009D01*
X163240968Y-89995244D01*
X163058644Y-90088143D01*
X163014077Y-90120523D01*
X163014077Y-90120524D01*
X163693554Y-90800000D01*
X163687339Y-90800000D01*
X163585606Y-90827259D01*
X163494394Y-90879920D01*
X163419920Y-90954394D01*
X163367259Y-91045606D01*
X163340000Y-91147339D01*
X163340000Y-91153553D01*
X162660524Y-90474077D01*
X162660523Y-90474077D01*
X162628143Y-90518644D01*
X162535244Y-90700968D01*
X162472009Y-90895582D01*
X162440000Y-91097682D01*
X160768322Y-91097682D01*
X160767988Y-91095576D01*
X160704755Y-90900968D01*
X160611859Y-90718650D01*
X160579474Y-90674077D01*
X160579474Y-90674076D01*
X159900000Y-91353551D01*
X159900000Y-91347339D01*
X159872741Y-91245606D01*
X159820080Y-91154394D01*
X159745606Y-91079920D01*
X159654394Y-91027259D01*
X159552661Y-91000000D01*
X159546446Y-91000000D01*
X160225922Y-90320524D01*
X160225921Y-90320523D01*
X160181359Y-90288147D01*
X160181350Y-90288141D01*
X160161973Y-90278268D01*
X159999031Y-90195244D01*
X159804417Y-90132009D01*
X159602317Y-90100000D01*
X159397683Y-90100000D01*
X159195582Y-90132009D01*
X159000968Y-90195244D01*
X158818644Y-90288143D01*
X158774077Y-90320523D01*
X158774077Y-90320524D01*
X159453554Y-91000000D01*
X159447339Y-91000000D01*
X159345606Y-91027259D01*
X159254394Y-91079920D01*
X159179920Y-91154394D01*
X159127259Y-91245606D01*
X159100000Y-91347339D01*
X159100000Y-91353553D01*
X158420524Y-90674077D01*
X158420523Y-90674077D01*
X158388143Y-90718644D01*
X158295244Y-90900968D01*
X158232009Y-91095582D01*
X158200000Y-91297682D01*
X155800500Y-91297682D01*
X155800500Y-91297648D01*
X155791412Y-91240272D01*
X155768477Y-91095465D01*
X155717096Y-90937332D01*
X155705220Y-90900781D01*
X155705218Y-90900778D01*
X155705218Y-90900776D01*
X155653399Y-90799077D01*
X155612287Y-90718390D01*
X155580092Y-90674077D01*
X155491971Y-90552786D01*
X155347213Y-90408028D01*
X155181613Y-90287715D01*
X155181612Y-90287714D01*
X155181610Y-90287713D01*
X155120394Y-90256522D01*
X154999223Y-90194781D01*
X154804534Y-90131522D01*
X154629995Y-90103878D01*
X154602352Y-90099500D01*
X154397648Y-90099500D01*
X154373329Y-90103351D01*
X154195465Y-90131522D01*
X154000776Y-90194781D01*
X153818386Y-90287715D01*
X153652786Y-90408028D01*
X153508028Y-90552786D01*
X153387715Y-90718386D01*
X153294781Y-90900776D01*
X153232699Y-91091845D01*
X153202449Y-91141207D01*
X149883072Y-94460586D01*
X149760588Y-94583069D01*
X149760588Y-94583070D01*
X149760586Y-94583072D01*
X149727719Y-94628310D01*
X149658768Y-94723211D01*
X149580128Y-94877552D01*
X149580127Y-94877554D01*
X149580127Y-94877555D01*
X149566336Y-94920000D01*
X149526597Y-95042302D01*
X149501691Y-95199555D01*
X149499500Y-95213389D01*
X149499500Y-109213389D01*
X149499500Y-109386611D01*
X149526598Y-109557701D01*
X149580127Y-109722445D01*
X149658768Y-109876788D01*
X149760586Y-110016928D01*
X149760588Y-110016930D01*
X151881477Y-112137819D01*
X151914962Y-112199142D01*
X151909978Y-112268834D01*
X151868106Y-112324767D01*
X151802642Y-112349184D01*
X151793796Y-112349500D01*
X135607204Y-112349500D01*
X135540165Y-112329815D01*
X135519523Y-112313181D01*
X133916930Y-110710588D01*
X133916928Y-110710586D01*
X133776788Y-110608768D01*
X133622445Y-110530127D01*
X133457701Y-110476598D01*
X133457699Y-110476597D01*
X133457698Y-110476597D01*
X133326271Y-110455781D01*
X133286611Y-110449500D01*
X133113389Y-110449500D01*
X133073728Y-110455781D01*
X132942302Y-110476597D01*
X132777552Y-110530128D01*
X132623211Y-110608768D01*
X132582775Y-110638147D01*
X132483072Y-110710586D01*
X132483070Y-110710588D01*
X132483069Y-110710588D01*
X132360588Y-110833069D01*
X132360588Y-110833070D01*
X132360586Y-110833072D01*
X132335226Y-110867977D01*
X132258768Y-110973211D01*
X132180128Y-111127552D01*
X132126597Y-111292302D01*
X132110103Y-111396446D01*
X132099500Y-111463389D01*
X129670810Y-111463389D01*
X129667989Y-111445582D01*
X129604755Y-111250968D01*
X129511859Y-111068650D01*
X129479474Y-111024077D01*
X129479474Y-111024076D01*
X128800000Y-111703551D01*
X128800000Y-111697339D01*
X128772741Y-111595606D01*
X128720080Y-111504394D01*
X128645606Y-111429920D01*
X128554394Y-111377259D01*
X128452661Y-111350000D01*
X128446446Y-111350000D01*
X129125922Y-110670524D01*
X129125921Y-110670523D01*
X129081359Y-110638147D01*
X129081350Y-110638141D01*
X128899031Y-110545244D01*
X128704417Y-110482009D01*
X128502317Y-110450000D01*
X128297683Y-110450000D01*
X128095582Y-110482009D01*
X127900968Y-110545244D01*
X127718644Y-110638143D01*
X127674077Y-110670523D01*
X127674077Y-110670524D01*
X128353554Y-111350000D01*
X128347339Y-111350000D01*
X128245606Y-111377259D01*
X128154394Y-111429920D01*
X128079920Y-111504394D01*
X128027259Y-111595606D01*
X128000000Y-111697339D01*
X128000000Y-111703553D01*
X127320524Y-111024077D01*
X127320523Y-111024077D01*
X127288143Y-111068644D01*
X127195244Y-111250968D01*
X127132009Y-111445582D01*
X127100000Y-111647682D01*
X125800500Y-111647682D01*
X125800500Y-106647648D01*
X127099500Y-106647648D01*
X127099500Y-106852351D01*
X127131522Y-107054534D01*
X127194781Y-107249223D01*
X127245856Y-107349461D01*
X127270594Y-107398013D01*
X127287715Y-107431613D01*
X127408028Y-107597213D01*
X127552786Y-107741971D01*
X127707749Y-107854556D01*
X127718390Y-107862287D01*
X127834607Y-107921503D01*
X127900776Y-107955218D01*
X127900778Y-107955218D01*
X127900781Y-107955220D01*
X127991893Y-107984824D01*
X128095465Y-108018477D01*
X128125765Y-108023276D01*
X128297648Y-108050500D01*
X128297649Y-108050500D01*
X128502351Y-108050500D01*
X128502352Y-108050500D01*
X128704534Y-108018477D01*
X128899219Y-107955220D01*
X129081610Y-107862287D01*
X129212958Y-107766858D01*
X129247213Y-107741971D01*
X129247215Y-107741968D01*
X129247219Y-107741966D01*
X129391966Y-107597219D01*
X129391968Y-107597215D01*
X129391971Y-107597213D01*
X129462236Y-107500500D01*
X129512287Y-107431610D01*
X129605220Y-107249219D01*
X129668477Y-107054534D01*
X129700500Y-106852352D01*
X129700500Y-106647648D01*
X129686005Y-106556129D01*
X129677665Y-106503475D01*
X129675236Y-106488142D01*
X134211852Y-106488142D01*
X134211852Y-106761857D01*
X134211853Y-106761873D01*
X134247579Y-107033240D01*
X134247580Y-107033245D01*
X134247581Y-107033251D01*
X134267399Y-107107212D01*
X134318426Y-107297651D01*
X134423173Y-107550534D01*
X134423180Y-107550549D01*
X134560042Y-107787601D01*
X134726677Y-108004764D01*
X134726683Y-108004771D01*
X134920228Y-108198316D01*
X134920235Y-108198322D01*
X135137398Y-108364957D01*
X135374450Y-108501819D01*
X135374465Y-108501826D01*
X135436738Y-108527620D01*
X135627347Y-108606573D01*
X135891749Y-108677419D01*
X136163136Y-108713148D01*
X136163143Y-108713148D01*
X136436857Y-108713148D01*
X136436864Y-108713148D01*
X136708251Y-108677419D01*
X136972653Y-108606573D01*
X137225546Y-108501821D01*
X137462602Y-108364957D01*
X137679766Y-108198321D01*
X137873321Y-108004766D01*
X138039957Y-107787602D01*
X138176821Y-107550546D01*
X138281573Y-107297653D01*
X138352419Y-107033251D01*
X138388148Y-106761864D01*
X138388148Y-106488136D01*
X138352419Y-106216749D01*
X138281573Y-105952347D01*
X138202224Y-105760781D01*
X138176826Y-105699465D01*
X138176819Y-105699450D01*
X138039957Y-105462398D01*
X137873322Y-105245235D01*
X137873316Y-105245228D01*
X137679771Y-105051683D01*
X137679764Y-105051677D01*
X137462601Y-104885042D01*
X137225549Y-104748180D01*
X137225534Y-104748173D01*
X136972651Y-104643426D01*
X136840452Y-104608004D01*
X136708251Y-104572581D01*
X136708245Y-104572580D01*
X136708240Y-104572579D01*
X136436873Y-104536853D01*
X136436870Y-104536852D01*
X136436864Y-104536852D01*
X136163136Y-104536852D01*
X136163130Y-104536852D01*
X136163126Y-104536853D01*
X135891759Y-104572579D01*
X135891752Y-104572580D01*
X135891749Y-104572581D01*
X135835871Y-104587553D01*
X135627348Y-104643426D01*
X135374465Y-104748173D01*
X135374450Y-104748180D01*
X135137398Y-104885042D01*
X134920235Y-105051677D01*
X134920228Y-105051683D01*
X134726683Y-105245228D01*
X134726677Y-105245235D01*
X134560042Y-105462398D01*
X134423180Y-105699450D01*
X134423173Y-105699465D01*
X134318426Y-105952348D01*
X134272849Y-106122447D01*
X134249667Y-106208966D01*
X134247582Y-106216746D01*
X134247579Y-106216759D01*
X134211853Y-106488126D01*
X134211852Y-106488142D01*
X129675236Y-106488142D01*
X129668477Y-106445465D01*
X129628244Y-106321643D01*
X129605220Y-106250781D01*
X129605218Y-106250778D01*
X129605218Y-106250776D01*
X129556108Y-106154394D01*
X129512287Y-106068390D01*
X129482917Y-106027965D01*
X129391971Y-105902786D01*
X129247213Y-105758028D01*
X129081613Y-105637715D01*
X129081612Y-105637714D01*
X129081610Y-105637713D01*
X129007594Y-105600000D01*
X128899223Y-105544781D01*
X128704534Y-105481522D01*
X128529995Y-105453878D01*
X128502352Y-105449500D01*
X128297648Y-105449500D01*
X128273329Y-105453351D01*
X128095465Y-105481522D01*
X127900776Y-105544781D01*
X127718386Y-105637715D01*
X127552786Y-105758028D01*
X127408028Y-105902786D01*
X127287715Y-106068386D01*
X127194781Y-106250776D01*
X127131522Y-106445465D01*
X127099500Y-106647648D01*
X125800500Y-106647648D01*
X125800500Y-96013389D01*
X132299500Y-96013389D01*
X132299500Y-96186610D01*
X132314543Y-96281592D01*
X132326598Y-96357701D01*
X132380127Y-96522445D01*
X132458768Y-96676788D01*
X132560586Y-96816928D01*
X132683072Y-96939414D01*
X132823212Y-97041232D01*
X132977555Y-97119873D01*
X133142299Y-97173402D01*
X133313389Y-97200500D01*
X133313390Y-97200500D01*
X133486610Y-97200500D01*
X133486611Y-97200500D01*
X133657701Y-97173402D01*
X133822445Y-97119873D01*
X133976788Y-97041232D01*
X134116928Y-96939414D01*
X143539414Y-87516928D01*
X143641232Y-87376788D01*
X143719873Y-87222445D01*
X143773402Y-87057701D01*
X143800500Y-86886611D01*
X143800500Y-86713389D01*
X143800500Y-84352511D01*
X154802929Y-84352511D01*
X154819089Y-84508011D01*
X154819090Y-84508014D01*
X154869129Y-84656129D01*
X154906270Y-84716829D01*
X154924499Y-84781548D01*
X154924499Y-84828952D01*
X154924500Y-84828961D01*
X154924500Y-86123276D01*
X154924484Y-86123439D01*
X154924497Y-86168420D01*
X154906268Y-86233175D01*
X154869131Y-86293867D01*
X154869128Y-86293874D01*
X154819091Y-86441986D01*
X154803309Y-86593858D01*
X154802931Y-86597491D01*
X154813187Y-86683501D01*
X154821442Y-86752732D01*
X154846680Y-86823869D01*
X154873288Y-86898869D01*
X154873716Y-86900073D01*
X154873716Y-86900075D01*
X154957182Y-87032274D01*
X155067725Y-87142817D01*
X155067727Y-87142818D01*
X155067729Y-87142820D01*
X155199926Y-87226284D01*
X155347269Y-87278558D01*
X155502509Y-87297069D01*
X155658012Y-87280909D01*
X155806128Y-87230871D01*
X155866828Y-87193728D01*
X155931548Y-87175500D01*
X155964522Y-87175501D01*
X155964524Y-87175500D01*
X156785118Y-87175500D01*
X157685473Y-87175500D01*
X157718452Y-87175500D01*
X157783172Y-87193730D01*
X157840091Y-87228558D01*
X157843872Y-87230871D01*
X157991988Y-87280909D01*
X158147491Y-87297069D01*
X158302731Y-87278558D01*
X158450074Y-87226284D01*
X158582271Y-87142820D01*
X158692820Y-87032271D01*
X158776284Y-86900074D01*
X158828558Y-86752731D01*
X158847069Y-86597491D01*
X158830909Y-86441988D01*
X158780871Y-86293872D01*
X158760984Y-86261371D01*
X158743729Y-86233170D01*
X158725500Y-86168451D01*
X158725500Y-84781546D01*
X158743730Y-84716826D01*
X158780871Y-84656128D01*
X158830909Y-84508012D01*
X158847069Y-84352509D01*
X158828558Y-84197269D01*
X158776284Y-84049926D01*
X158769021Y-84038423D01*
X158740171Y-83992727D01*
X158692820Y-83917729D01*
X158692818Y-83917727D01*
X158692817Y-83917725D01*
X158582274Y-83807182D01*
X158574039Y-83801983D01*
X158450074Y-83723716D01*
X158302731Y-83671442D01*
X158302733Y-83671442D01*
X158250984Y-83665271D01*
X158147491Y-83652931D01*
X158147488Y-83652931D01*
X158147487Y-83652931D01*
X157991986Y-83669091D01*
X157843871Y-83719129D01*
X157843870Y-83719129D01*
X157783169Y-83756271D01*
X157718451Y-83774500D01*
X155931549Y-83774500D01*
X155866831Y-83756271D01*
X155806128Y-83719129D01*
X155658014Y-83669090D01*
X155658011Y-83669089D01*
X155502511Y-83652929D01*
X155502510Y-83652929D01*
X155502509Y-83652929D01*
X155347268Y-83671440D01*
X155347267Y-83671440D01*
X155199926Y-83723712D01*
X155067723Y-83807180D01*
X154957180Y-83917723D01*
X154873712Y-84049926D01*
X154829145Y-84175549D01*
X154821440Y-84197268D01*
X154804739Y-84337334D01*
X154802929Y-84352511D01*
X143800500Y-84352511D01*
X143800500Y-70824500D01*
X143820185Y-70757461D01*
X143872989Y-70711706D01*
X143924500Y-70700500D01*
X146091396Y-70700500D01*
X146158435Y-70720185D01*
X146204190Y-70772989D01*
X146214134Y-70842147D01*
X146185109Y-70905703D01*
X146160288Y-70927602D01*
X146125961Y-70950538D01*
X146000538Y-71075961D01*
X146000535Y-71075965D01*
X145901990Y-71223446D01*
X145901983Y-71223459D01*
X145834106Y-71387332D01*
X145834103Y-71387341D01*
X145799500Y-71561304D01*
X145799500Y-71738695D01*
X145834103Y-71912658D01*
X145834106Y-71912667D01*
X145901983Y-72076540D01*
X145901990Y-72076553D01*
X146000535Y-72224034D01*
X146000538Y-72224038D01*
X146125961Y-72349461D01*
X146125965Y-72349464D01*
X146273446Y-72448009D01*
X146273459Y-72448016D01*
X146396363Y-72498923D01*
X146437334Y-72515894D01*
X146437336Y-72515894D01*
X146437341Y-72515896D01*
X146611304Y-72550499D01*
X146611307Y-72550500D01*
X146611309Y-72550500D01*
X146699903Y-72550500D01*
X146766942Y-72570185D01*
X146787584Y-72586819D01*
X151915139Y-77714374D01*
X151915149Y-77714385D01*
X151919479Y-77718715D01*
X151919480Y-77718716D01*
X152031284Y-77830520D01*
X152112288Y-77877287D01*
X152168215Y-77909577D01*
X152320942Y-77950500D01*
X152320943Y-77950500D01*
X155289876Y-77950500D01*
X155356915Y-77970185D01*
X155402670Y-78022989D01*
X155412614Y-78092147D01*
X155383589Y-78155703D01*
X155355848Y-78179494D01*
X155191368Y-78282843D01*
X154947641Y-78477208D01*
X154727208Y-78697641D01*
X154532843Y-78941368D01*
X154366988Y-79205325D01*
X154231733Y-79486185D01*
X154128775Y-79780420D01*
X154128771Y-79780432D01*
X154059404Y-80084350D01*
X154059402Y-80084366D01*
X154024500Y-80394126D01*
X154024500Y-80705873D01*
X154059402Y-81015633D01*
X154059404Y-81015649D01*
X154128771Y-81319565D01*
X154128775Y-81319579D01*
X154231733Y-81613814D01*
X154366988Y-81894674D01*
X154366990Y-81894677D01*
X154532844Y-82158633D01*
X154555738Y-82187341D01*
X154698954Y-82366929D01*
X154727209Y-82402359D01*
X154947641Y-82622791D01*
X155191367Y-82817156D01*
X155455323Y-82983010D01*
X155455325Y-82983011D01*
X155540510Y-83024034D01*
X155736189Y-83118268D01*
X155957174Y-83195594D01*
X156030420Y-83221224D01*
X156030432Y-83221228D01*
X156334354Y-83290596D01*
X156644126Y-83325499D01*
X156644127Y-83325500D01*
X156644131Y-83325500D01*
X156955873Y-83325500D01*
X156955873Y-83325499D01*
X157265646Y-83290596D01*
X157569568Y-83221228D01*
X157863811Y-83118268D01*
X158144677Y-82983010D01*
X158408633Y-82817156D01*
X158652359Y-82622791D01*
X158872791Y-82402359D01*
X159067156Y-82158633D01*
X159233010Y-81894677D01*
X159368268Y-81613811D01*
X159471228Y-81319568D01*
X159478276Y-81288691D01*
X159511575Y-81142796D01*
X159540596Y-81015646D01*
X159575500Y-80705869D01*
X159575500Y-80394131D01*
X159540596Y-80084354D01*
X159471228Y-79780432D01*
X159368268Y-79486189D01*
X159233010Y-79205323D01*
X159067156Y-78941367D01*
X158872791Y-78697641D01*
X158652359Y-78477209D01*
X158626626Y-78456688D01*
X158508877Y-78362786D01*
X158408633Y-78282844D01*
X158253037Y-78185077D01*
X158244152Y-78179494D01*
X158197861Y-78127159D01*
X158187213Y-78058106D01*
X158215588Y-77994257D01*
X158273977Y-77955885D01*
X158310124Y-77950500D01*
X158699903Y-77950500D01*
X158766942Y-77970185D01*
X158787584Y-77986819D01*
X160663181Y-79862416D01*
X160696666Y-79923739D01*
X160699500Y-79950097D01*
X160699500Y-81725638D01*
X160679815Y-81792677D01*
X160663181Y-81813319D01*
X160600538Y-81875961D01*
X160600535Y-81875965D01*
X160501990Y-82023446D01*
X160501983Y-82023459D01*
X160434106Y-82187332D01*
X160434103Y-82187341D01*
X160399500Y-82361304D01*
X160399500Y-82538695D01*
X160434103Y-82712658D01*
X160434106Y-82712667D01*
X160501983Y-82876540D01*
X160501990Y-82876553D01*
X160600535Y-83024034D01*
X160600538Y-83024038D01*
X160725961Y-83149461D01*
X160725965Y-83149464D01*
X160873446Y-83248009D01*
X160873459Y-83248016D01*
X160976261Y-83290597D01*
X161037334Y-83315894D01*
X161037336Y-83315894D01*
X161037341Y-83315896D01*
X161211304Y-83350499D01*
X161211307Y-83350500D01*
X161211309Y-83350500D01*
X161388693Y-83350500D01*
X161388694Y-83350499D01*
X161458586Y-83336597D01*
X161562658Y-83315896D01*
X161562661Y-83315894D01*
X161562666Y-83315894D01*
X161726547Y-83248013D01*
X161874035Y-83149464D01*
X161999464Y-83024035D01*
X162098013Y-82876547D01*
X162165894Y-82712666D01*
X162200500Y-82538691D01*
X162200500Y-82361309D01*
X162200500Y-82361306D01*
X162200499Y-82361304D01*
X162165896Y-82187341D01*
X162165893Y-82187332D01*
X162098016Y-82023459D01*
X162098009Y-82023446D01*
X161999464Y-81875965D01*
X161999461Y-81875961D01*
X161936819Y-81813319D01*
X161903334Y-81751996D01*
X161900500Y-81725638D01*
X161900500Y-79570943D01*
X161900499Y-79570939D01*
X161885386Y-79514535D01*
X161885386Y-79514534D01*
X161859577Y-79418215D01*
X161830639Y-79368095D01*
X161780520Y-79281284D01*
X161668716Y-79169480D01*
X161668715Y-79169479D01*
X161664385Y-79165149D01*
X161664374Y-79165139D01*
X160815327Y-78316092D01*
X160781842Y-78254769D01*
X160786826Y-78185077D01*
X160828698Y-78129144D01*
X160894162Y-78104727D01*
X160959303Y-78117926D01*
X160961153Y-78118868D01*
X160961155Y-78118870D01*
X161034898Y-78156444D01*
X161185616Y-78233239D01*
X161185618Y-78233239D01*
X161185621Y-78233241D01*
X161425215Y-78311090D01*
X161674038Y-78350500D01*
X161674039Y-78350500D01*
X161925961Y-78350500D01*
X161925962Y-78350500D01*
X162174785Y-78311090D01*
X162414379Y-78233241D01*
X162638845Y-78118870D01*
X162842656Y-77970793D01*
X163020793Y-77792656D01*
X163168870Y-77588845D01*
X163235435Y-77458203D01*
X163283408Y-77407409D01*
X163345919Y-77390500D01*
X167345398Y-77390500D01*
X167412437Y-77410185D01*
X167455883Y-77458205D01*
X167462715Y-77471614D01*
X167583028Y-77637213D01*
X167727786Y-77781971D01*
X167861024Y-77878772D01*
X167893390Y-77902287D01*
X167998582Y-77955885D01*
X168075776Y-77995218D01*
X168075778Y-77995218D01*
X168075781Y-77995220D01*
X168161245Y-78022989D01*
X168270465Y-78058477D01*
X168371557Y-78074488D01*
X168472648Y-78090500D01*
X168472649Y-78090500D01*
X168677351Y-78090500D01*
X168677352Y-78090500D01*
X168879534Y-78058477D01*
X169074219Y-77995220D01*
X169256610Y-77902287D01*
X169384454Y-77809404D01*
X169422213Y-77781971D01*
X169422215Y-77781968D01*
X169422219Y-77781966D01*
X169566966Y-77637219D01*
X169566968Y-77637215D01*
X169566971Y-77637213D01*
X169645377Y-77529294D01*
X169687287Y-77471610D01*
X169780220Y-77289219D01*
X169843477Y-77094534D01*
X169875500Y-76892352D01*
X169875500Y-76687648D01*
X169843477Y-76485466D01*
X169836700Y-76464610D01*
X169780218Y-76290776D01*
X169728918Y-76190095D01*
X169687287Y-76108390D01*
X169628559Y-76027557D01*
X169566971Y-75942786D01*
X169422213Y-75798028D01*
X169256613Y-75677715D01*
X169256612Y-75677714D01*
X169256610Y-75677713D01*
X169199653Y-75648691D01*
X169074223Y-75584781D01*
X168879534Y-75521522D01*
X168704995Y-75493878D01*
X168677352Y-75489500D01*
X168472648Y-75489500D01*
X168448329Y-75493351D01*
X168270465Y-75521522D01*
X168075776Y-75584781D01*
X167893386Y-75677715D01*
X167727786Y-75798028D01*
X167583028Y-75942786D01*
X167462715Y-76108385D01*
X167455883Y-76121795D01*
X167407909Y-76172591D01*
X167345398Y-76189500D01*
X163386681Y-76189500D01*
X163319642Y-76169815D01*
X163276196Y-76121795D01*
X163269364Y-76108386D01*
X163168870Y-75911155D01*
X163071357Y-75776939D01*
X163020798Y-75707350D01*
X163020794Y-75707345D01*
X162842654Y-75529205D01*
X162842649Y-75529201D01*
X162638848Y-75381132D01*
X162638847Y-75381131D01*
X162638845Y-75381130D01*
X162568747Y-75345413D01*
X162414383Y-75266760D01*
X162174785Y-75188910D01*
X161925962Y-75149500D01*
X161674038Y-75149500D01*
X161549626Y-75169205D01*
X161425214Y-75188910D01*
X161185616Y-75266760D01*
X160961151Y-75381132D01*
X160757350Y-75529201D01*
X160757345Y-75529205D01*
X160579205Y-75707345D01*
X160579201Y-75707350D01*
X160431132Y-75911151D01*
X160316760Y-76135616D01*
X160274469Y-76265776D01*
X160238910Y-76375215D01*
X160199500Y-76624038D01*
X160199500Y-76875962D01*
X160222197Y-77019263D01*
X160238910Y-77124785D01*
X160316760Y-77364383D01*
X160432073Y-77590696D01*
X160444969Y-77659365D01*
X160418693Y-77724106D01*
X160361586Y-77764363D01*
X160291781Y-77767355D01*
X160233907Y-77734672D01*
X159487590Y-76988355D01*
X159487588Y-76988352D01*
X159368717Y-76869481D01*
X159368716Y-76869480D01*
X159281904Y-76819360D01*
X159281904Y-76819359D01*
X159281900Y-76819358D01*
X159231785Y-76790423D01*
X159079057Y-76749499D01*
X158920943Y-76749499D01*
X158913347Y-76749499D01*
X158913331Y-76749500D01*
X152700097Y-76749500D01*
X152633058Y-76729815D01*
X152612416Y-76713181D01*
X150423306Y-74524071D01*
X155200000Y-74524071D01*
X155200000Y-74775928D01*
X155239397Y-75024669D01*
X155317219Y-75264184D01*
X155431557Y-75488583D01*
X155505748Y-75590697D01*
X155505748Y-75590698D01*
X156235387Y-74861059D01*
X156240889Y-74881591D01*
X156319881Y-75018408D01*
X156431592Y-75130119D01*
X156568409Y-75209111D01*
X156588940Y-75214612D01*
X155859300Y-75944250D01*
X155961416Y-76018442D01*
X156185815Y-76132780D01*
X156425330Y-76210602D01*
X156674072Y-76250000D01*
X156925928Y-76250000D01*
X157174669Y-76210602D01*
X157414184Y-76132780D01*
X157638575Y-76018446D01*
X157638581Y-76018442D01*
X157740697Y-75944250D01*
X157740698Y-75944250D01*
X157011059Y-75214612D01*
X157031591Y-75209111D01*
X157168408Y-75130119D01*
X157280119Y-75018408D01*
X157359111Y-74881591D01*
X157364612Y-74861059D01*
X158094250Y-75590698D01*
X158094250Y-75590697D01*
X158168442Y-75488581D01*
X158168446Y-75488575D01*
X158282780Y-75264184D01*
X158360602Y-75024669D01*
X158400000Y-74775928D01*
X158400000Y-74524071D01*
X158360602Y-74275330D01*
X158282780Y-74035815D01*
X158168442Y-73811416D01*
X158094250Y-73709301D01*
X158094250Y-73709300D01*
X157364612Y-74438939D01*
X157359111Y-74418409D01*
X157280119Y-74281592D01*
X157168408Y-74169881D01*
X157031591Y-74090889D01*
X157011058Y-74085387D01*
X157740698Y-73355748D01*
X157638583Y-73281557D01*
X157414184Y-73167219D01*
X157174669Y-73089397D01*
X156925928Y-73050000D01*
X156674072Y-73050000D01*
X156425330Y-73089397D01*
X156185815Y-73167219D01*
X155961413Y-73281559D01*
X155859301Y-73355747D01*
X155859300Y-73355748D01*
X156588940Y-74085387D01*
X156568409Y-74090889D01*
X156431592Y-74169881D01*
X156319881Y-74281592D01*
X156240889Y-74418409D01*
X156235387Y-74438940D01*
X155505748Y-73709300D01*
X155505747Y-73709301D01*
X155431559Y-73811413D01*
X155317219Y-74035815D01*
X155239397Y-74275330D01*
X155200000Y-74524071D01*
X150423306Y-74524071D01*
X147636819Y-71737584D01*
X147603334Y-71676261D01*
X147600500Y-71649903D01*
X147600500Y-71561306D01*
X147600499Y-71561304D01*
X147565896Y-71387341D01*
X147565893Y-71387332D01*
X147498016Y-71223459D01*
X147498009Y-71223446D01*
X147399464Y-71075965D01*
X147399461Y-71075961D01*
X147274038Y-70950538D01*
X147239712Y-70927602D01*
X147194908Y-70873989D01*
X147186201Y-70804664D01*
X147216356Y-70741637D01*
X147275799Y-70704918D01*
X147308604Y-70700500D01*
X173775500Y-70700500D01*
X173842539Y-70720185D01*
X173888294Y-70772989D01*
X173899500Y-70824500D01*
X173899500Y-81142796D01*
X173879815Y-81209835D01*
X173863181Y-81230477D01*
X172630477Y-82463181D01*
X172569154Y-82496666D01*
X172542796Y-82499500D01*
X169471611Y-82499500D01*
X169298389Y-82499500D01*
X169258728Y-82505781D01*
X169127302Y-82526597D01*
X168962552Y-82580128D01*
X168808211Y-82658768D01*
X168734039Y-82712658D01*
X168668072Y-82760586D01*
X168668070Y-82760588D01*
X168668068Y-82760589D01*
X168316207Y-83112449D01*
X168266845Y-83142699D01*
X168075776Y-83204781D01*
X167893386Y-83297715D01*
X167727786Y-83418028D01*
X167583028Y-83562786D01*
X167462715Y-83728386D01*
X167369781Y-83910776D01*
X167306522Y-84105465D01*
X167274500Y-84307648D01*
X167274500Y-84512351D01*
X167306522Y-84714534D01*
X167369781Y-84909223D01*
X167422857Y-85013389D01*
X167459072Y-85084465D01*
X167462715Y-85091613D01*
X167583028Y-85257213D01*
X167727786Y-85401971D01*
X167867185Y-85503248D01*
X167893390Y-85522287D01*
X168009607Y-85581503D01*
X168075776Y-85615218D01*
X168075778Y-85615218D01*
X168075781Y-85615220D01*
X168159842Y-85642533D01*
X168270465Y-85678477D01*
X168308720Y-85684536D01*
X168472648Y-85710500D01*
X168472649Y-85710500D01*
X168652796Y-85710500D01*
X168719835Y-85730185D01*
X168740477Y-85746819D01*
X172163181Y-89169523D01*
X172196666Y-89230846D01*
X172199500Y-89257204D01*
X172199500Y-89965812D01*
X172179815Y-90032851D01*
X172127011Y-90078606D01*
X172057853Y-90088550D01*
X172019205Y-90076297D01*
X171859223Y-89994781D01*
X171664534Y-89931522D01*
X171489995Y-89903878D01*
X171462352Y-89899500D01*
X171257648Y-89899500D01*
X171233329Y-89903351D01*
X171055465Y-89931522D01*
X170860776Y-89994781D01*
X170678386Y-90087715D01*
X170512786Y-90208028D01*
X170368028Y-90352786D01*
X170247715Y-90518386D01*
X170154781Y-90700776D01*
X170091522Y-90895465D01*
X170059500Y-91097648D01*
X170059500Y-91302351D01*
X170091522Y-91504534D01*
X170154781Y-91699223D01*
X170206386Y-91800501D01*
X170247585Y-91881359D01*
X170247715Y-91881613D01*
X170368028Y-92047213D01*
X170512786Y-92191971D01*
X170633226Y-92279474D01*
X170678390Y-92312287D01*
X170794607Y-92371503D01*
X170860776Y-92405218D01*
X170860778Y-92405218D01*
X170860781Y-92405220D01*
X170949932Y-92434187D01*
X171055465Y-92468477D01*
X171124897Y-92479474D01*
X171257648Y-92500500D01*
X171257649Y-92500500D01*
X171462351Y-92500500D01*
X171462352Y-92500500D01*
X171664534Y-92468477D01*
X171859219Y-92405220D01*
X171859224Y-92405217D01*
X171859228Y-92405216D01*
X172019205Y-92323703D01*
X172087874Y-92310806D01*
X172152614Y-92337082D01*
X172192872Y-92394188D01*
X172199500Y-92434187D01*
X172199500Y-100777795D01*
X172179815Y-100844834D01*
X172163181Y-100865476D01*
X168066207Y-104962449D01*
X168016845Y-104992699D01*
X167825776Y-105054781D01*
X167643386Y-105147715D01*
X167477786Y-105268028D01*
X167333028Y-105412786D01*
X167212715Y-105578386D01*
X167119781Y-105760776D01*
X167056522Y-105955465D01*
X167030075Y-106122447D01*
X167024500Y-106157648D01*
X167024500Y-106362352D01*
X167028457Y-106387332D01*
X167056522Y-106564534D01*
X167119781Y-106759223D01*
X167168877Y-106855577D01*
X167197965Y-106912666D01*
X167212715Y-106941613D01*
X167333028Y-107107213D01*
X167477786Y-107251971D01*
X167619419Y-107354871D01*
X167643390Y-107372287D01*
X167714270Y-107408402D01*
X167825776Y-107465218D01*
X167825778Y-107465218D01*
X167825781Y-107465220D01*
X167930137Y-107499127D01*
X168020465Y-107528477D01*
X168094607Y-107540220D01*
X168222648Y-107560500D01*
X168222649Y-107560500D01*
X168427351Y-107560500D01*
X168427352Y-107560500D01*
X168629534Y-107528477D01*
X168824219Y-107465220D01*
X169006610Y-107372287D01*
X169109336Y-107297653D01*
X169172213Y-107251971D01*
X169172215Y-107251968D01*
X169172219Y-107251966D01*
X169316966Y-107107219D01*
X169370705Y-107033253D01*
X169424411Y-106959333D01*
X169424412Y-106959332D01*
X169428900Y-106953153D01*
X169437287Y-106941610D01*
X169530220Y-106759219D01*
X169592301Y-106568150D01*
X169622549Y-106518791D01*
X170243658Y-105897682D01*
X177150000Y-105897682D01*
X177150000Y-106102317D01*
X177182009Y-106304417D01*
X177245244Y-106499031D01*
X177338141Y-106681350D01*
X177338147Y-106681359D01*
X177370523Y-106725921D01*
X177370524Y-106725922D01*
X178050000Y-106046446D01*
X178050000Y-106052661D01*
X178077259Y-106154394D01*
X178129920Y-106245606D01*
X178204394Y-106320080D01*
X178295606Y-106372741D01*
X178397339Y-106400000D01*
X178403553Y-106400000D01*
X177724076Y-107079474D01*
X177768650Y-107111859D01*
X177950968Y-107204755D01*
X178145582Y-107267990D01*
X178347683Y-107300000D01*
X178552317Y-107300000D01*
X178754417Y-107267990D01*
X178949031Y-107204755D01*
X179131349Y-107111859D01*
X179175921Y-107079474D01*
X178496447Y-106400000D01*
X178502661Y-106400000D01*
X178604394Y-106372741D01*
X178695606Y-106320080D01*
X178770080Y-106245606D01*
X178822741Y-106154394D01*
X178850000Y-106052661D01*
X178850000Y-106046447D01*
X179529474Y-106725921D01*
X179561859Y-106681349D01*
X179654755Y-106499031D01*
X179717990Y-106304417D01*
X179750000Y-106102317D01*
X179750000Y-105897682D01*
X179717990Y-105695582D01*
X179654755Y-105500968D01*
X179561859Y-105318650D01*
X179529474Y-105274077D01*
X179529474Y-105274076D01*
X178850000Y-105953551D01*
X178850000Y-105947339D01*
X178822741Y-105845606D01*
X178770080Y-105754394D01*
X178695606Y-105679920D01*
X178604394Y-105627259D01*
X178502661Y-105600000D01*
X178496446Y-105600000D01*
X179175922Y-104920524D01*
X179175921Y-104920523D01*
X179131359Y-104888147D01*
X179131350Y-104888141D01*
X178949031Y-104795244D01*
X178754417Y-104732009D01*
X178552317Y-104700000D01*
X178347683Y-104700000D01*
X178145582Y-104732009D01*
X177950968Y-104795244D01*
X177768644Y-104888143D01*
X177724077Y-104920523D01*
X177724077Y-104920524D01*
X178403554Y-105600000D01*
X178397339Y-105600000D01*
X178295606Y-105627259D01*
X178204394Y-105679920D01*
X178129920Y-105754394D01*
X178077259Y-105845606D01*
X178050000Y-105947339D01*
X178050000Y-105953553D01*
X177370524Y-105274077D01*
X177370523Y-105274077D01*
X177338143Y-105318644D01*
X177245244Y-105500968D01*
X177182009Y-105695582D01*
X177150000Y-105897682D01*
X170243658Y-105897682D01*
X172937819Y-103203522D01*
X172999142Y-103170037D01*
X173068834Y-103175021D01*
X173124767Y-103216893D01*
X173149184Y-103282357D01*
X173149500Y-103291203D01*
X173149500Y-103475961D01*
X173188910Y-103724785D01*
X173266760Y-103964383D01*
X173345413Y-104118747D01*
X173365736Y-104158633D01*
X173381132Y-104188848D01*
X173529201Y-104392649D01*
X173529205Y-104392654D01*
X173707345Y-104570794D01*
X173707350Y-104570798D01*
X173778913Y-104622791D01*
X173911155Y-104718870D01*
X174054184Y-104791747D01*
X174135616Y-104833239D01*
X174135618Y-104833239D01*
X174135621Y-104833241D01*
X174375215Y-104911090D01*
X174624038Y-104950500D01*
X174624039Y-104950500D01*
X174875961Y-104950500D01*
X174875962Y-104950500D01*
X175124785Y-104911090D01*
X175364379Y-104833241D01*
X175588845Y-104718870D01*
X175792656Y-104570793D01*
X175970793Y-104392656D01*
X176118870Y-104188845D01*
X176233241Y-103964379D01*
X176311090Y-103724785D01*
X176350500Y-103475962D01*
X176350500Y-103224038D01*
X176311090Y-102975215D01*
X176269988Y-102848721D01*
X176267994Y-102778881D01*
X176269979Y-102772115D01*
X176323402Y-102607701D01*
X176350500Y-102436611D01*
X176350500Y-102263389D01*
X176350500Y-95827151D01*
X176370185Y-95760112D01*
X176422989Y-95714357D01*
X176492147Y-95704413D01*
X176543391Y-95724049D01*
X176666315Y-95806185D01*
X176666328Y-95806192D01*
X176848306Y-95881569D01*
X176848318Y-95881572D01*
X177041504Y-95919999D01*
X177041508Y-95920000D01*
X177490000Y-95920000D01*
X177490000Y-95219999D01*
X177990000Y-95219999D01*
X177990000Y-95920000D01*
X178181403Y-95920000D01*
X178248442Y-95939685D01*
X178294197Y-95992489D01*
X178304141Y-96061647D01*
X178275116Y-96125203D01*
X178269084Y-96131681D01*
X178187584Y-96213181D01*
X178126261Y-96246666D01*
X178099903Y-96249500D01*
X178011306Y-96249500D01*
X177837341Y-96284103D01*
X177837332Y-96284106D01*
X177673459Y-96351983D01*
X177673446Y-96351990D01*
X177525965Y-96450535D01*
X177525961Y-96450538D01*
X177400538Y-96575961D01*
X177400535Y-96575965D01*
X177301990Y-96723446D01*
X177301983Y-96723459D01*
X177234106Y-96887332D01*
X177234103Y-96887341D01*
X177199500Y-97061304D01*
X177199500Y-97238695D01*
X177234103Y-97412658D01*
X177234106Y-97412667D01*
X177301983Y-97576540D01*
X177301990Y-97576553D01*
X177400535Y-97724034D01*
X177400538Y-97724038D01*
X177525961Y-97849461D01*
X177525965Y-97849464D01*
X177673446Y-97948009D01*
X177673459Y-97948016D01*
X177796363Y-97998923D01*
X177837334Y-98015894D01*
X177837336Y-98015894D01*
X177837341Y-98015896D01*
X178011304Y-98050499D01*
X178011307Y-98050500D01*
X178011309Y-98050500D01*
X178188693Y-98050500D01*
X178188694Y-98050499D01*
X178246682Y-98038964D01*
X178362658Y-98015896D01*
X178362661Y-98015894D01*
X178362666Y-98015894D01*
X178526547Y-97948013D01*
X178674035Y-97849464D01*
X178799464Y-97724035D01*
X178898013Y-97576547D01*
X178965894Y-97412666D01*
X179000500Y-97238691D01*
X179000500Y-97150097D01*
X179020185Y-97083058D01*
X179036819Y-97062416D01*
X186462417Y-89636819D01*
X186523740Y-89603334D01*
X186550098Y-89600500D01*
X194163331Y-89600500D01*
X194163347Y-89600501D01*
X194170943Y-89600501D01*
X194329054Y-89600501D01*
X194329057Y-89600501D01*
X194481785Y-89559577D01*
X194536805Y-89527811D01*
X194618716Y-89480520D01*
X194730520Y-89368716D01*
X194730520Y-89368714D01*
X194740724Y-89358511D01*
X194740727Y-89358506D01*
X195730520Y-88368716D01*
X195809577Y-88231784D01*
X195850501Y-88079057D01*
X195850501Y-87920942D01*
X195850501Y-87913347D01*
X195850500Y-87913329D01*
X195850500Y-85120944D01*
X195850500Y-85120943D01*
X195840725Y-85084464D01*
X195839534Y-85080019D01*
X195809577Y-84968216D01*
X195767112Y-84894663D01*
X195750500Y-84832664D01*
X195750500Y-84711306D01*
X195750499Y-84711304D01*
X195715896Y-84537341D01*
X195715893Y-84537332D01*
X195648016Y-84373459D01*
X195648009Y-84373446D01*
X195549464Y-84225965D01*
X195549461Y-84225961D01*
X195424038Y-84100538D01*
X195424034Y-84100535D01*
X195276553Y-84001990D01*
X195276540Y-84001983D01*
X195112667Y-83934106D01*
X195112658Y-83934103D01*
X194938694Y-83899500D01*
X194938691Y-83899500D01*
X194761309Y-83899500D01*
X194761306Y-83899500D01*
X194587341Y-83934103D01*
X194587332Y-83934106D01*
X194423459Y-84001983D01*
X194423446Y-84001990D01*
X194275965Y-84100535D01*
X194275961Y-84100538D01*
X194150538Y-84225961D01*
X194150535Y-84225965D01*
X194051990Y-84373446D01*
X194051983Y-84373459D01*
X193984106Y-84537332D01*
X193984103Y-84537341D01*
X193949500Y-84711304D01*
X193949500Y-84888695D01*
X193984103Y-85062658D01*
X193984106Y-85062667D01*
X194051983Y-85226540D01*
X194051990Y-85226553D01*
X194150535Y-85374034D01*
X194150538Y-85374038D01*
X194275961Y-85499461D01*
X194275965Y-85499464D01*
X194423446Y-85598009D01*
X194423453Y-85598013D01*
X194572954Y-85659937D01*
X194627355Y-85703776D01*
X194649421Y-85770070D01*
X194649500Y-85774497D01*
X194649500Y-87699902D01*
X194629815Y-87766941D01*
X194613181Y-87787583D01*
X194037584Y-88363181D01*
X193976261Y-88396666D01*
X193949903Y-88399500D01*
X186336670Y-88399500D01*
X186336654Y-88399499D01*
X186329058Y-88399499D01*
X186170943Y-88399499D01*
X186094579Y-88419961D01*
X186018214Y-88440423D01*
X186018209Y-88440426D01*
X185881290Y-88519475D01*
X185881282Y-88519481D01*
X179543734Y-94857029D01*
X179482411Y-94890514D01*
X179412719Y-94885530D01*
X179356786Y-94843658D01*
X179334435Y-94793538D01*
X179301570Y-94628310D01*
X179301569Y-94628306D01*
X179226192Y-94446328D01*
X179226185Y-94446315D01*
X179116751Y-94282537D01*
X179116748Y-94282533D01*
X179044608Y-94210393D01*
X179011123Y-94149070D01*
X179016107Y-94079378D01*
X179029189Y-94053818D01*
X179047567Y-94026314D01*
X179047571Y-94026306D01*
X179115412Y-93862523D01*
X179115415Y-93862516D01*
X179117904Y-93850000D01*
X178266986Y-93850000D01*
X178284204Y-93840059D01*
X178340059Y-93784204D01*
X178379555Y-93715795D01*
X178399999Y-93639496D01*
X178399999Y-93560504D01*
X178379555Y-93484205D01*
X178340059Y-93415796D01*
X178284204Y-93359941D01*
X178266986Y-93350000D01*
X179117904Y-93350000D01*
X179115415Y-93337483D01*
X179115412Y-93337476D01*
X179047571Y-93173693D01*
X179047566Y-93173683D01*
X178977846Y-93069340D01*
X178956968Y-93002662D01*
X178975452Y-92935282D01*
X178977818Y-92931599D01*
X179048013Y-92826547D01*
X179115894Y-92662666D01*
X179120943Y-92637287D01*
X179144875Y-92516971D01*
X179150500Y-92488691D01*
X179150500Y-92311309D01*
X179150500Y-92311306D01*
X179150499Y-92311304D01*
X179115896Y-92137341D01*
X179115893Y-92137332D01*
X179048016Y-91973459D01*
X179048010Y-91973448D01*
X179042655Y-91965434D01*
X179021775Y-91898757D01*
X179040258Y-91831376D01*
X179092235Y-91784685D01*
X179113652Y-91776768D01*
X179177811Y-91759577D01*
X179227930Y-91730639D01*
X179314742Y-91680520D01*
X179426546Y-91568716D01*
X179426546Y-91568714D01*
X179436754Y-91558507D01*
X179436756Y-91558504D01*
X181211639Y-89783620D01*
X181211660Y-89783603D01*
X181218714Y-89776549D01*
X181218716Y-89776548D01*
X181330520Y-89664744D01*
X181409577Y-89527812D01*
X181437986Y-89421788D01*
X181450501Y-89375083D01*
X181450501Y-89216969D01*
X181450501Y-89209374D01*
X181450500Y-89209356D01*
X181450500Y-87029765D01*
X181470185Y-86962726D01*
X181471398Y-86960874D01*
X181559390Y-86829185D01*
X181559390Y-86829184D01*
X181559394Y-86829179D01*
X181561594Y-86823869D01*
X181582063Y-86774450D01*
X181619737Y-86683497D01*
X181650500Y-86528842D01*
X181650500Y-86371158D01*
X181650500Y-86371155D01*
X181650499Y-86371153D01*
X181640224Y-86319496D01*
X181619737Y-86216503D01*
X181605930Y-86183170D01*
X181559397Y-86070827D01*
X181559390Y-86070814D01*
X181471789Y-85939711D01*
X181471786Y-85939707D01*
X181360292Y-85828213D01*
X181360288Y-85828210D01*
X181229185Y-85740609D01*
X181229172Y-85740602D01*
X181083501Y-85680264D01*
X181083489Y-85680261D01*
X180928845Y-85649500D01*
X180928842Y-85649500D01*
X180771158Y-85649500D01*
X180771155Y-85649500D01*
X180616510Y-85680261D01*
X180616498Y-85680264D01*
X180470827Y-85740602D01*
X180470814Y-85740609D01*
X180339711Y-85828210D01*
X180339707Y-85828213D01*
X180228213Y-85939707D01*
X180228210Y-85939711D01*
X180140609Y-86070814D01*
X180140602Y-86070827D01*
X180080264Y-86216498D01*
X180080261Y-86216510D01*
X180049500Y-86371153D01*
X180049500Y-86528846D01*
X180080261Y-86683489D01*
X180080264Y-86683501D01*
X180140602Y-86829172D01*
X180140609Y-86829185D01*
X180228602Y-86960874D01*
X180249480Y-87027551D01*
X180249500Y-87029765D01*
X180249500Y-88995928D01*
X180229815Y-89062967D01*
X180213181Y-89083609D01*
X179353525Y-89943264D01*
X179292202Y-89976749D01*
X179222510Y-89971765D01*
X179166577Y-89929893D01*
X179144227Y-89879774D01*
X179125102Y-89783626D01*
X179115894Y-89737334D01*
X179059217Y-89600501D01*
X179048016Y-89573459D01*
X179048012Y-89573452D01*
X179017516Y-89527812D01*
X178978145Y-89468888D01*
X178957268Y-89402215D01*
X178975752Y-89334834D01*
X178978118Y-89331150D01*
X179048013Y-89226547D01*
X179115894Y-89062666D01*
X179118953Y-89047291D01*
X179139856Y-88942204D01*
X179150500Y-88888691D01*
X179150500Y-88711309D01*
X179150500Y-88711306D01*
X179150499Y-88711304D01*
X179115896Y-88537341D01*
X179115893Y-88537332D01*
X179048016Y-88373459D01*
X179048014Y-88373455D01*
X179048013Y-88373453D01*
X179048008Y-88373446D01*
X178977846Y-88268441D01*
X178956968Y-88201764D01*
X178975452Y-88134384D01*
X178977846Y-88130659D01*
X179047566Y-88026315D01*
X179047571Y-88026306D01*
X179115412Y-87862523D01*
X179115415Y-87862516D01*
X179117904Y-87850000D01*
X178266986Y-87850000D01*
X178284204Y-87840059D01*
X178340059Y-87784204D01*
X178379555Y-87715795D01*
X178399999Y-87639496D01*
X178399999Y-87560504D01*
X178379555Y-87484205D01*
X178340059Y-87415796D01*
X178284204Y-87359941D01*
X178266986Y-87350000D01*
X179117904Y-87350000D01*
X179115415Y-87337483D01*
X179115412Y-87337476D01*
X179047570Y-87173690D01*
X179029187Y-87146178D01*
X179008309Y-87079500D01*
X179026793Y-87012120D01*
X179044608Y-86989605D01*
X179116752Y-86917461D01*
X179226185Y-86753684D01*
X179226192Y-86753671D01*
X179301569Y-86571692D01*
X179301569Y-86571690D01*
X179309862Y-86530000D01*
X178506985Y-86530000D01*
X178524203Y-86520059D01*
X178580058Y-86464204D01*
X178619554Y-86395795D01*
X178639998Y-86319496D01*
X178639998Y-86240504D01*
X178619554Y-86164205D01*
X178580058Y-86095796D01*
X178524203Y-86039941D01*
X178506985Y-86030000D01*
X179309862Y-86030000D01*
X179301569Y-85988309D01*
X179301569Y-85988307D01*
X179226192Y-85806328D01*
X179226185Y-85806315D01*
X179116751Y-85642537D01*
X179116748Y-85642533D01*
X178977466Y-85503251D01*
X178977462Y-85503248D01*
X178813684Y-85393814D01*
X178813671Y-85393807D01*
X178631693Y-85318430D01*
X178631681Y-85318427D01*
X178438495Y-85280000D01*
X177990000Y-85280000D01*
X177990000Y-85980001D01*
X177490000Y-85980001D01*
X177490000Y-85280000D01*
X177041504Y-85280000D01*
X176848318Y-85318427D01*
X176848306Y-85318430D01*
X176666328Y-85393807D01*
X176666315Y-85393814D01*
X176502537Y-85503248D01*
X176502533Y-85503251D01*
X176363251Y-85642533D01*
X176363248Y-85642537D01*
X176253814Y-85806315D01*
X176253807Y-85806328D01*
X176178430Y-85988307D01*
X176178430Y-85988309D01*
X176170138Y-86030000D01*
X176973015Y-86030000D01*
X176955797Y-86039941D01*
X176899942Y-86095796D01*
X176860446Y-86164205D01*
X176840002Y-86240504D01*
X176840002Y-86319496D01*
X176860446Y-86395795D01*
X176899942Y-86464204D01*
X176955797Y-86520059D01*
X176973015Y-86530000D01*
X176170138Y-86530000D01*
X176178430Y-86571690D01*
X176178430Y-86571692D01*
X176253807Y-86753671D01*
X176253814Y-86753684D01*
X176363248Y-86917462D01*
X176363251Y-86917466D01*
X176502533Y-87056748D01*
X176502537Y-87056751D01*
X176666315Y-87166185D01*
X176666327Y-87166192D01*
X176805431Y-87223809D01*
X176859835Y-87267649D01*
X176881900Y-87333943D01*
X176880740Y-87348349D01*
X176882095Y-87350000D01*
X177733014Y-87350000D01*
X177715796Y-87359941D01*
X177659941Y-87415796D01*
X177620445Y-87484205D01*
X177600001Y-87560504D01*
X177600001Y-87639496D01*
X177620445Y-87715795D01*
X177659941Y-87784204D01*
X177715796Y-87840059D01*
X177733014Y-87850000D01*
X176882096Y-87850000D01*
X176884584Y-87862516D01*
X176884587Y-87862523D01*
X176952428Y-88026306D01*
X176952433Y-88026316D01*
X177022153Y-88130659D01*
X177043031Y-88197337D01*
X177024546Y-88264717D01*
X177022153Y-88268441D01*
X176951990Y-88373446D01*
X176951983Y-88373459D01*
X176884106Y-88537332D01*
X176884103Y-88537341D01*
X176849500Y-88711304D01*
X176849500Y-88888695D01*
X176884103Y-89062658D01*
X176884106Y-89062667D01*
X176951983Y-89226540D01*
X176951990Y-89226553D01*
X177021853Y-89331109D01*
X177042731Y-89397786D01*
X177024247Y-89465166D01*
X177021853Y-89468891D01*
X176951990Y-89573446D01*
X176951983Y-89573459D01*
X176884106Y-89737332D01*
X176884103Y-89737341D01*
X176849500Y-89911304D01*
X176849500Y-90088695D01*
X176884103Y-90262658D01*
X176884106Y-90262667D01*
X176951983Y-90426540D01*
X176951990Y-90426553D01*
X177021853Y-90531109D01*
X177042731Y-90597786D01*
X177024247Y-90665166D01*
X177021853Y-90668891D01*
X176951990Y-90773446D01*
X176951983Y-90773459D01*
X176884106Y-90937332D01*
X176884103Y-90937341D01*
X176849500Y-91111304D01*
X176849500Y-91288695D01*
X176884103Y-91462658D01*
X176884106Y-91462667D01*
X176951983Y-91626540D01*
X176951990Y-91626553D01*
X177021853Y-91731109D01*
X177042731Y-91797786D01*
X177024247Y-91865166D01*
X177021853Y-91868891D01*
X176951990Y-91973446D01*
X176951983Y-91973459D01*
X176884106Y-92137332D01*
X176884103Y-92137341D01*
X176849500Y-92311304D01*
X176849500Y-92443796D01*
X176829815Y-92510835D01*
X176777011Y-92556590D01*
X176707853Y-92566534D01*
X176644297Y-92537509D01*
X176637819Y-92531477D01*
X176616930Y-92510588D01*
X176616928Y-92510586D01*
X176476788Y-92408768D01*
X176443822Y-92391971D01*
X176322450Y-92330128D01*
X176157701Y-92276598D01*
X176157695Y-92276597D01*
X175986611Y-92249500D01*
X175813389Y-92249500D01*
X175773728Y-92255781D01*
X175642302Y-92276597D01*
X175477552Y-92330128D01*
X175323211Y-92408768D01*
X175275000Y-92443796D01*
X175183072Y-92510586D01*
X175183070Y-92510588D01*
X175183069Y-92510588D01*
X174612181Y-93081477D01*
X174550858Y-93114962D01*
X174481166Y-93109978D01*
X174425233Y-93068106D01*
X174400816Y-93002642D01*
X174400500Y-92993796D01*
X174400500Y-88663389D01*
X174397160Y-88642299D01*
X174373402Y-88492299D01*
X174319873Y-88327555D01*
X174241232Y-88173212D01*
X174139414Y-88033072D01*
X174016928Y-87910586D01*
X171018523Y-84912181D01*
X170985038Y-84850858D01*
X170990022Y-84781166D01*
X171031894Y-84725233D01*
X171097358Y-84700816D01*
X171106204Y-84700500D01*
X173136610Y-84700500D01*
X173136611Y-84700500D01*
X173307701Y-84673402D01*
X173472445Y-84619873D01*
X173626788Y-84541232D01*
X173766928Y-84439414D01*
X173778831Y-84427511D01*
X187302929Y-84427511D01*
X187319089Y-84583011D01*
X187319090Y-84583014D01*
X187369129Y-84731129D01*
X187406270Y-84791829D01*
X187424499Y-84856548D01*
X187424499Y-84903952D01*
X187424500Y-84903961D01*
X187424500Y-86198276D01*
X187424484Y-86198439D01*
X187424497Y-86243420D01*
X187406268Y-86308175D01*
X187369131Y-86368867D01*
X187369128Y-86368874D01*
X187319091Y-86516986D01*
X187304730Y-86655181D01*
X187302931Y-86672491D01*
X187315020Y-86773870D01*
X187321442Y-86827732D01*
X187323944Y-86834783D01*
X187369335Y-86962726D01*
X187373716Y-86975073D01*
X187373716Y-86975075D01*
X187457182Y-87107274D01*
X187567725Y-87217817D01*
X187567727Y-87217818D01*
X187567729Y-87217820D01*
X187699926Y-87301284D01*
X187847269Y-87353558D01*
X188002509Y-87372069D01*
X188158012Y-87355909D01*
X188306128Y-87305871D01*
X188366828Y-87268728D01*
X188431548Y-87250500D01*
X188464522Y-87250501D01*
X188464524Y-87250500D01*
X189285118Y-87250500D01*
X190185473Y-87250500D01*
X190218452Y-87250500D01*
X190283172Y-87268730D01*
X190336373Y-87301283D01*
X190343872Y-87305871D01*
X190491988Y-87355909D01*
X190647491Y-87372069D01*
X190802731Y-87353558D01*
X190950074Y-87301284D01*
X191082271Y-87217820D01*
X191192820Y-87107271D01*
X191276284Y-86975074D01*
X191328558Y-86827731D01*
X191347069Y-86672491D01*
X191330909Y-86516988D01*
X191280871Y-86368872D01*
X191280868Y-86368867D01*
X191243729Y-86308170D01*
X191225500Y-86243451D01*
X191225500Y-84856546D01*
X191243730Y-84791826D01*
X191250019Y-84781548D01*
X191280871Y-84731128D01*
X191330909Y-84583012D01*
X191347069Y-84427509D01*
X191328558Y-84272269D01*
X191276284Y-84124926D01*
X191261939Y-84102206D01*
X191230371Y-84052206D01*
X191192820Y-83992729D01*
X191192818Y-83992727D01*
X191192817Y-83992725D01*
X191082274Y-83882182D01*
X190950074Y-83798716D01*
X190802731Y-83746442D01*
X190802733Y-83746442D01*
X190750984Y-83740271D01*
X190647491Y-83727931D01*
X190647488Y-83727931D01*
X190647487Y-83727931D01*
X190491986Y-83744091D01*
X190343871Y-83794129D01*
X190343870Y-83794129D01*
X190283169Y-83831271D01*
X190218451Y-83849500D01*
X188431549Y-83849500D01*
X188366831Y-83831271D01*
X188306128Y-83794129D01*
X188158014Y-83744090D01*
X188158011Y-83744089D01*
X188002511Y-83727929D01*
X188002510Y-83727929D01*
X188002509Y-83727929D01*
X187847268Y-83746440D01*
X187847267Y-83746440D01*
X187699926Y-83798712D01*
X187567723Y-83882180D01*
X187457180Y-83992723D01*
X187373712Y-84124926D01*
X187329145Y-84250549D01*
X187321440Y-84272268D01*
X187303629Y-84421644D01*
X187302929Y-84427511D01*
X173778831Y-84427511D01*
X175839414Y-82366928D01*
X175941232Y-82226788D01*
X176019873Y-82072446D01*
X176073402Y-81907701D01*
X176100500Y-81736611D01*
X176100500Y-81563390D01*
X176100500Y-79107648D01*
X176549500Y-79107648D01*
X176549500Y-79312352D01*
X176561592Y-79388695D01*
X176581523Y-79514534D01*
X176581522Y-79514534D01*
X176644781Y-79709223D01*
X176737715Y-79891613D01*
X176858028Y-80057213D01*
X177002786Y-80201971D01*
X177114160Y-80282887D01*
X177168390Y-80322287D01*
X177284607Y-80381503D01*
X177350776Y-80415218D01*
X177350778Y-80415218D01*
X177350781Y-80415220D01*
X177455137Y-80449127D01*
X177545465Y-80478477D01*
X177646557Y-80494488D01*
X177747648Y-80510500D01*
X177747649Y-80510500D01*
X177952351Y-80510500D01*
X177952352Y-80510500D01*
X178154534Y-80478477D01*
X178349219Y-80415220D01*
X178390618Y-80394126D01*
X186524500Y-80394126D01*
X186524500Y-80705873D01*
X186559402Y-81015633D01*
X186559404Y-81015649D01*
X186628771Y-81319565D01*
X186628775Y-81319579D01*
X186731733Y-81613814D01*
X186866988Y-81894674D01*
X186866990Y-81894677D01*
X187032844Y-82158633D01*
X187055738Y-82187341D01*
X187198954Y-82366929D01*
X187227209Y-82402359D01*
X187447641Y-82622791D01*
X187691367Y-82817156D01*
X187955323Y-82983010D01*
X187955325Y-82983011D01*
X188040510Y-83024034D01*
X188236189Y-83118268D01*
X188457174Y-83195594D01*
X188530420Y-83221224D01*
X188530432Y-83221228D01*
X188834354Y-83290596D01*
X189144126Y-83325499D01*
X189144127Y-83325500D01*
X189144131Y-83325500D01*
X189455873Y-83325500D01*
X189455873Y-83325499D01*
X189765646Y-83290596D01*
X190069568Y-83221228D01*
X190363811Y-83118268D01*
X190644677Y-82983010D01*
X190908633Y-82817156D01*
X191152359Y-82622791D01*
X191372791Y-82402359D01*
X191567156Y-82158633D01*
X191733010Y-81894677D01*
X191868268Y-81613811D01*
X191971228Y-81319568D01*
X191978276Y-81288691D01*
X192011575Y-81142796D01*
X192040596Y-81015646D01*
X192075500Y-80705869D01*
X192075500Y-80394131D01*
X192040596Y-80084354D01*
X191971228Y-79780432D01*
X191868268Y-79486189D01*
X191733010Y-79205323D01*
X191567156Y-78941367D01*
X191372791Y-78697641D01*
X191152359Y-78477209D01*
X191126626Y-78456688D01*
X191008877Y-78362786D01*
X190908633Y-78282844D01*
X190726334Y-78168298D01*
X190644674Y-78116988D01*
X190363814Y-77981733D01*
X190069579Y-77878775D01*
X190069567Y-77878771D01*
X189765649Y-77809404D01*
X189765633Y-77809402D01*
X189455873Y-77774500D01*
X189455869Y-77774500D01*
X189144131Y-77774500D01*
X189144127Y-77774500D01*
X188834366Y-77809402D01*
X188834350Y-77809404D01*
X188530432Y-77878771D01*
X188530420Y-77878775D01*
X188236185Y-77981733D01*
X187955325Y-78116988D01*
X187691368Y-78282843D01*
X187447641Y-78477208D01*
X187227208Y-78697641D01*
X187032843Y-78941368D01*
X186866988Y-79205325D01*
X186731733Y-79486185D01*
X186628775Y-79780420D01*
X186628771Y-79780432D01*
X186559404Y-80084350D01*
X186559402Y-80084366D01*
X186524500Y-80394126D01*
X178390618Y-80394126D01*
X178531610Y-80322287D01*
X178562974Y-80299500D01*
X178575591Y-80290334D01*
X178697213Y-80201971D01*
X178697215Y-80201968D01*
X178697219Y-80201966D01*
X178841966Y-80057219D01*
X178841968Y-80057215D01*
X178841971Y-80057213D01*
X178957110Y-79898735D01*
X178962287Y-79891610D01*
X179055220Y-79709219D01*
X179118477Y-79514534D01*
X179150500Y-79312352D01*
X179150500Y-79107648D01*
X179139363Y-79037332D01*
X179118477Y-78905465D01*
X179089127Y-78815137D01*
X179055220Y-78710781D01*
X179055218Y-78710778D01*
X179055218Y-78710776D01*
X178999047Y-78600536D01*
X178962287Y-78528390D01*
X178954556Y-78517749D01*
X178841971Y-78362786D01*
X178697213Y-78218028D01*
X178531613Y-78097715D01*
X178531612Y-78097714D01*
X178531610Y-78097713D01*
X178453877Y-78058106D01*
X178349223Y-78004781D01*
X178154534Y-77941522D01*
X177979995Y-77913878D01*
X177952352Y-77909500D01*
X177747648Y-77909500D01*
X177723329Y-77913351D01*
X177545465Y-77941522D01*
X177350776Y-78004781D01*
X177168386Y-78097715D01*
X177002786Y-78218028D01*
X176858028Y-78362786D01*
X176737715Y-78528386D01*
X176644781Y-78710776D01*
X176581522Y-78905465D01*
X176549500Y-79107648D01*
X176100500Y-79107648D01*
X176100500Y-76624038D01*
X192699500Y-76624038D01*
X192699500Y-76875962D01*
X192722197Y-77019263D01*
X192738910Y-77124785D01*
X192816760Y-77364383D01*
X192931132Y-77588848D01*
X193079201Y-77792649D01*
X193079205Y-77792654D01*
X193257345Y-77970794D01*
X193257350Y-77970798D01*
X193343621Y-78033477D01*
X193461155Y-78118870D01*
X193591094Y-78185077D01*
X193685616Y-78233239D01*
X193685618Y-78233239D01*
X193685621Y-78233241D01*
X193925215Y-78311090D01*
X194174038Y-78350500D01*
X194174039Y-78350500D01*
X194425961Y-78350500D01*
X194425962Y-78350500D01*
X194674785Y-78311090D01*
X194914379Y-78233241D01*
X195138845Y-78118870D01*
X195342656Y-77970793D01*
X195520793Y-77792656D01*
X195668870Y-77588845D01*
X195730166Y-77468543D01*
X195748173Y-77433205D01*
X195796148Y-77382409D01*
X195858658Y-77365500D01*
X199620398Y-77365500D01*
X199687437Y-77385185D01*
X199730883Y-77433205D01*
X199737715Y-77446614D01*
X199858028Y-77612213D01*
X200002786Y-77756971D01*
X200104020Y-77830520D01*
X200168390Y-77877287D01*
X200231761Y-77909576D01*
X200350776Y-77970218D01*
X200350778Y-77970218D01*
X200350781Y-77970220D01*
X200427717Y-77995218D01*
X200545465Y-78033477D01*
X200646557Y-78049488D01*
X200747648Y-78065500D01*
X200747649Y-78065500D01*
X200952351Y-78065500D01*
X200952352Y-78065500D01*
X201154534Y-78033477D01*
X201349219Y-77970220D01*
X201531610Y-77877287D01*
X201648096Y-77792656D01*
X201697213Y-77756971D01*
X201697215Y-77756968D01*
X201697219Y-77756966D01*
X201841966Y-77612219D01*
X201841968Y-77612215D01*
X201841971Y-77612213D01*
X201895145Y-77539024D01*
X201962287Y-77446610D01*
X202055220Y-77264219D01*
X202118477Y-77069534D01*
X202150500Y-76867352D01*
X202150500Y-76662648D01*
X202126963Y-76514041D01*
X202118477Y-76460465D01*
X202055218Y-76265776D01*
X202016663Y-76190108D01*
X201962287Y-76083390D01*
X201954556Y-76072749D01*
X201841971Y-75917786D01*
X201697213Y-75773028D01*
X201531613Y-75652715D01*
X201531612Y-75652714D01*
X201531610Y-75652713D01*
X201474653Y-75623691D01*
X201349223Y-75559781D01*
X201154534Y-75496522D01*
X200979995Y-75468878D01*
X200952352Y-75464500D01*
X200747648Y-75464500D01*
X200723329Y-75468351D01*
X200545465Y-75496522D01*
X200350776Y-75559781D01*
X200168386Y-75652715D01*
X200002786Y-75773028D01*
X199858028Y-75917786D01*
X199737715Y-76083385D01*
X199730883Y-76096795D01*
X199682909Y-76147591D01*
X199620398Y-76164500D01*
X195873943Y-76164500D01*
X195806904Y-76144815D01*
X195763458Y-76096795D01*
X195756625Y-76083385D01*
X195668870Y-75911155D01*
X195571357Y-75776939D01*
X195520798Y-75707350D01*
X195520794Y-75707345D01*
X195342654Y-75529205D01*
X195342649Y-75529201D01*
X195138848Y-75381132D01*
X195138847Y-75381131D01*
X195138845Y-75381130D01*
X195068747Y-75345413D01*
X194914383Y-75266760D01*
X194674785Y-75188910D01*
X194425962Y-75149500D01*
X194174038Y-75149500D01*
X194049626Y-75169205D01*
X193925214Y-75188910D01*
X193685616Y-75266760D01*
X193461151Y-75381132D01*
X193257350Y-75529201D01*
X193257345Y-75529205D01*
X193079205Y-75707345D01*
X193079201Y-75707350D01*
X192931132Y-75911151D01*
X192816760Y-76135616D01*
X192774469Y-76265776D01*
X192738910Y-76375215D01*
X192699500Y-76624038D01*
X176100500Y-76624038D01*
X176100500Y-74524071D01*
X187700000Y-74524071D01*
X187700000Y-74775928D01*
X187739397Y-75024669D01*
X187817219Y-75264184D01*
X187931557Y-75488583D01*
X188005748Y-75590697D01*
X188005748Y-75590698D01*
X188735387Y-74861059D01*
X188740889Y-74881591D01*
X188819881Y-75018408D01*
X188931592Y-75130119D01*
X189068409Y-75209111D01*
X189088940Y-75214612D01*
X188359300Y-75944250D01*
X188461416Y-76018442D01*
X188685815Y-76132780D01*
X188925330Y-76210602D01*
X189174072Y-76250000D01*
X189425928Y-76250000D01*
X189674669Y-76210602D01*
X189914184Y-76132780D01*
X190138575Y-76018446D01*
X190138581Y-76018442D01*
X190240697Y-75944250D01*
X190240698Y-75944250D01*
X189511059Y-75214612D01*
X189531591Y-75209111D01*
X189668408Y-75130119D01*
X189780119Y-75018408D01*
X189859111Y-74881591D01*
X189864612Y-74861060D01*
X190594250Y-75590698D01*
X190594250Y-75590697D01*
X190668442Y-75488581D01*
X190668446Y-75488575D01*
X190782780Y-75264184D01*
X190860602Y-75024669D01*
X190900000Y-74775928D01*
X190900000Y-74524071D01*
X190860602Y-74275330D01*
X190782780Y-74035815D01*
X190668442Y-73811416D01*
X190594250Y-73709301D01*
X190594250Y-73709300D01*
X189864612Y-74438939D01*
X189859111Y-74418409D01*
X189780119Y-74281592D01*
X189668408Y-74169881D01*
X189531591Y-74090889D01*
X189511058Y-74085387D01*
X190240698Y-73355748D01*
X190138583Y-73281557D01*
X189914184Y-73167219D01*
X189674669Y-73089397D01*
X189425928Y-73050000D01*
X189174072Y-73050000D01*
X188925330Y-73089397D01*
X188685815Y-73167219D01*
X188461413Y-73281559D01*
X188359301Y-73355747D01*
X188359300Y-73355748D01*
X189088940Y-74085387D01*
X189068409Y-74090889D01*
X188931592Y-74169881D01*
X188819881Y-74281592D01*
X188740889Y-74418409D01*
X188735387Y-74438940D01*
X188005748Y-73709300D01*
X188005747Y-73709301D01*
X187931559Y-73811413D01*
X187817219Y-74035815D01*
X187739397Y-74275330D01*
X187700000Y-74524071D01*
X176100500Y-74524071D01*
X176100500Y-70824500D01*
X176120185Y-70757461D01*
X176172989Y-70711706D01*
X176224500Y-70700500D01*
X176646007Y-70700500D01*
X176713046Y-70720185D01*
X176758801Y-70772989D01*
X176768745Y-70842147D01*
X176746324Y-70897387D01*
X176738140Y-70908649D01*
X176645244Y-71090968D01*
X176582009Y-71285582D01*
X176550000Y-71487682D01*
X176550000Y-71692317D01*
X176582009Y-71894417D01*
X176645244Y-72089031D01*
X176738141Y-72271350D01*
X176738147Y-72271359D01*
X176770523Y-72315921D01*
X176770524Y-72315922D01*
X177450000Y-71636446D01*
X177450000Y-71642661D01*
X177477259Y-71744394D01*
X177529920Y-71835606D01*
X177604394Y-71910080D01*
X177695606Y-71962741D01*
X177797339Y-71990000D01*
X177803553Y-71990000D01*
X177124076Y-72669474D01*
X177168650Y-72701859D01*
X177350968Y-72794755D01*
X177545582Y-72857990D01*
X177747683Y-72890000D01*
X177952317Y-72890000D01*
X178154417Y-72857990D01*
X178349031Y-72794755D01*
X178531349Y-72701859D01*
X178575921Y-72669474D01*
X177896447Y-71990000D01*
X177902661Y-71990000D01*
X178004394Y-71962741D01*
X178095606Y-71910080D01*
X178170080Y-71835606D01*
X178222741Y-71744394D01*
X178250000Y-71642661D01*
X178250000Y-71636447D01*
X178929474Y-72315921D01*
X178961859Y-72271349D01*
X179054755Y-72089031D01*
X179117990Y-71894417D01*
X179150000Y-71692317D01*
X179150000Y-71487682D01*
X179117990Y-71285582D01*
X179054755Y-71090968D01*
X178961859Y-70908649D01*
X178953676Y-70897387D01*
X178930195Y-70831582D01*
X178946019Y-70763527D01*
X178996124Y-70714831D01*
X179053993Y-70700500D01*
X205475500Y-70700500D01*
X205542539Y-70720185D01*
X205588294Y-70772989D01*
X205599500Y-70824500D01*
X205599500Y-82392796D01*
X205579815Y-82459835D01*
X205563181Y-82480477D01*
X203120181Y-84923477D01*
X203058858Y-84956962D01*
X202989166Y-84951978D01*
X202944819Y-84923477D01*
X202147551Y-84126209D01*
X202117301Y-84076846D01*
X202104816Y-84038423D01*
X202055220Y-83885781D01*
X201962287Y-83703390D01*
X201925627Y-83652931D01*
X201841971Y-83537786D01*
X201697213Y-83393028D01*
X201531613Y-83272715D01*
X201531612Y-83272714D01*
X201531610Y-83272713D01*
X201474653Y-83243691D01*
X201349223Y-83179781D01*
X201154534Y-83116522D01*
X200979995Y-83088878D01*
X200952352Y-83084500D01*
X200747648Y-83084500D01*
X200723329Y-83088351D01*
X200545465Y-83116522D01*
X200350776Y-83179781D01*
X200168386Y-83272715D01*
X200002786Y-83393028D01*
X199858028Y-83537786D01*
X199737715Y-83703386D01*
X199644781Y-83885776D01*
X199581522Y-84080465D01*
X199549500Y-84282648D01*
X199549500Y-84487351D01*
X199581522Y-84689534D01*
X199644781Y-84884223D01*
X199708691Y-85009653D01*
X199735703Y-85062666D01*
X199737715Y-85066613D01*
X199858028Y-85232213D01*
X200002786Y-85376971D01*
X200157749Y-85489556D01*
X200168390Y-85497287D01*
X200350781Y-85590220D01*
X200509431Y-85641768D01*
X200541846Y-85652301D01*
X200591209Y-85682551D01*
X203763181Y-88854523D01*
X203796666Y-88915846D01*
X203799500Y-88942204D01*
X203799500Y-105092795D01*
X203779815Y-105159834D01*
X203763181Y-105180476D01*
X203745476Y-105198181D01*
X203684153Y-105231666D01*
X203657795Y-105234500D01*
X201409512Y-105234500D01*
X201353220Y-105220985D01*
X201273715Y-105180476D01*
X201174223Y-105129781D01*
X200979534Y-105066522D01*
X200795971Y-105037449D01*
X200777352Y-105034500D01*
X200572648Y-105034500D01*
X200554029Y-105037449D01*
X200370465Y-105066522D01*
X200175776Y-105129781D01*
X199993386Y-105222715D01*
X199827786Y-105343028D01*
X199683028Y-105487786D01*
X199562715Y-105653386D01*
X199469781Y-105835776D01*
X199406522Y-106030465D01*
X199374500Y-106232648D01*
X199374500Y-106437351D01*
X199406522Y-106639534D01*
X199469781Y-106834223D01*
X199524499Y-106941611D01*
X199559217Y-107009749D01*
X199562715Y-107016613D01*
X199683028Y-107182213D01*
X199827786Y-107326971D01*
X199971812Y-107431610D01*
X199993390Y-107447287D01*
X200097824Y-107500499D01*
X200175776Y-107540218D01*
X200175778Y-107540218D01*
X200175781Y-107540220D01*
X200280137Y-107574127D01*
X200370465Y-107603477D01*
X200471557Y-107619488D01*
X200572648Y-107635500D01*
X200572649Y-107635500D01*
X200777351Y-107635500D01*
X200777352Y-107635500D01*
X200979534Y-107603477D01*
X201174219Y-107540220D01*
X201353220Y-107449014D01*
X201409512Y-107435500D01*
X204251610Y-107435500D01*
X204251611Y-107435500D01*
X204422701Y-107408402D01*
X204587445Y-107354873D01*
X204741788Y-107276232D01*
X204881928Y-107174414D01*
X205337152Y-106719188D01*
X205368532Y-106696389D01*
X205476788Y-106641232D01*
X205616928Y-106539414D01*
X205739414Y-106416928D01*
X205841232Y-106276788D01*
X205919873Y-106122445D01*
X205973402Y-105957701D01*
X206000500Y-105786611D01*
X206000500Y-88348389D01*
X205973402Y-88177299D01*
X205919873Y-88012555D01*
X205841232Y-87858212D01*
X205739414Y-87718072D01*
X205616928Y-87595586D01*
X204676523Y-86655181D01*
X204643038Y-86593858D01*
X204648022Y-86524166D01*
X204676523Y-86479819D01*
X206853831Y-84302511D01*
X219852929Y-84302511D01*
X219869089Y-84458011D01*
X219869090Y-84458014D01*
X219919129Y-84606129D01*
X219956270Y-84666829D01*
X219974499Y-84731548D01*
X219974499Y-84778952D01*
X219974500Y-84778961D01*
X219974500Y-86073276D01*
X219974484Y-86073439D01*
X219974497Y-86118420D01*
X219956268Y-86183175D01*
X219919131Y-86243867D01*
X219919128Y-86243874D01*
X219869091Y-86391986D01*
X219854749Y-86530000D01*
X219852931Y-86547491D01*
X219862486Y-86627620D01*
X219869148Y-86683497D01*
X219871442Y-86702731D01*
X219923512Y-86849500D01*
X219923716Y-86850073D01*
X219923716Y-86850075D01*
X219969630Y-86922797D01*
X220006742Y-86981578D01*
X220007182Y-86982274D01*
X220117725Y-87092817D01*
X220117727Y-87092818D01*
X220117729Y-87092820D01*
X220249926Y-87176284D01*
X220397269Y-87228558D01*
X220552509Y-87247069D01*
X220708012Y-87230909D01*
X220856128Y-87180871D01*
X220916828Y-87143728D01*
X220981548Y-87125500D01*
X221014522Y-87125501D01*
X221014524Y-87125500D01*
X221835118Y-87125500D01*
X222735473Y-87125500D01*
X222768452Y-87125500D01*
X222833172Y-87143730D01*
X222887798Y-87177155D01*
X222893872Y-87180871D01*
X223041988Y-87230909D01*
X223197491Y-87247069D01*
X223352731Y-87228558D01*
X223500074Y-87176284D01*
X223632271Y-87092820D01*
X223742820Y-86982271D01*
X223826284Y-86850074D01*
X223878558Y-86702731D01*
X223897069Y-86547491D01*
X223880909Y-86391988D01*
X223830871Y-86243872D01*
X223820918Y-86227606D01*
X223793729Y-86183170D01*
X223775500Y-86118451D01*
X223775500Y-84731546D01*
X223793730Y-84666826D01*
X223800275Y-84656130D01*
X223830871Y-84606128D01*
X223880909Y-84458012D01*
X223897069Y-84302509D01*
X223878558Y-84147269D01*
X223826284Y-83999926D01*
X223821736Y-83992723D01*
X223774387Y-83917727D01*
X223742820Y-83867729D01*
X223742818Y-83867727D01*
X223742817Y-83867725D01*
X223632274Y-83757182D01*
X223611539Y-83744091D01*
X223500074Y-83673716D01*
X223352731Y-83621442D01*
X223352733Y-83621442D01*
X223300984Y-83615271D01*
X223197491Y-83602931D01*
X223197488Y-83602931D01*
X223197487Y-83602931D01*
X223041986Y-83619091D01*
X222893871Y-83669129D01*
X222893870Y-83669129D01*
X222833169Y-83706271D01*
X222768451Y-83724500D01*
X220981549Y-83724500D01*
X220916831Y-83706271D01*
X220863618Y-83673712D01*
X220856130Y-83669130D01*
X220856129Y-83669129D01*
X220856128Y-83669129D01*
X220708014Y-83619090D01*
X220708011Y-83619089D01*
X220552511Y-83602929D01*
X220552510Y-83602929D01*
X220552509Y-83602929D01*
X220397268Y-83621440D01*
X220397267Y-83621440D01*
X220249926Y-83673712D01*
X220117723Y-83757180D01*
X220007180Y-83867723D01*
X219923712Y-83999926D01*
X219871867Y-84146064D01*
X219871440Y-84147268D01*
X219852988Y-84302020D01*
X219852929Y-84302511D01*
X206853831Y-84302511D01*
X206935556Y-84220786D01*
X207222239Y-83934103D01*
X207539414Y-83616928D01*
X207641232Y-83476788D01*
X207719873Y-83322446D01*
X207773402Y-83157701D01*
X207800500Y-82986611D01*
X207800500Y-82813389D01*
X207800500Y-80394126D01*
X219024500Y-80394126D01*
X219024500Y-80705873D01*
X219059402Y-81015633D01*
X219059404Y-81015649D01*
X219128771Y-81319565D01*
X219128775Y-81319579D01*
X219231733Y-81613814D01*
X219366988Y-81894674D01*
X219366990Y-81894677D01*
X219532844Y-82158633D01*
X219555738Y-82187341D01*
X219698954Y-82366929D01*
X219727209Y-82402359D01*
X219947641Y-82622791D01*
X220191367Y-82817156D01*
X220455323Y-82983010D01*
X220455325Y-82983011D01*
X220540510Y-83024034D01*
X220736189Y-83118268D01*
X220957174Y-83195594D01*
X221030420Y-83221224D01*
X221030432Y-83221228D01*
X221334354Y-83290596D01*
X221644126Y-83325499D01*
X221644127Y-83325500D01*
X221644131Y-83325500D01*
X221955873Y-83325500D01*
X221955873Y-83325499D01*
X222265646Y-83290596D01*
X222569568Y-83221228D01*
X222863811Y-83118268D01*
X223144677Y-82983010D01*
X223408633Y-82817156D01*
X223652359Y-82622791D01*
X223872791Y-82402359D01*
X224067156Y-82158633D01*
X224233010Y-81894677D01*
X224368268Y-81613811D01*
X224471228Y-81319568D01*
X224478276Y-81288691D01*
X224511575Y-81142796D01*
X224540596Y-81015646D01*
X224575500Y-80705869D01*
X224575500Y-80394131D01*
X224540596Y-80084354D01*
X224471228Y-79780432D01*
X224368268Y-79486189D01*
X224233010Y-79205323D01*
X224067156Y-78941367D01*
X223872791Y-78697641D01*
X223652359Y-78477209D01*
X223626626Y-78456688D01*
X223508877Y-78362786D01*
X223408633Y-78282844D01*
X223226334Y-78168298D01*
X223144674Y-78116988D01*
X222863814Y-77981733D01*
X222569579Y-77878775D01*
X222569567Y-77878771D01*
X222265649Y-77809404D01*
X222265633Y-77809402D01*
X221955873Y-77774500D01*
X221955869Y-77774500D01*
X221644131Y-77774500D01*
X221644127Y-77774500D01*
X221334366Y-77809402D01*
X221334350Y-77809404D01*
X221030432Y-77878771D01*
X221030420Y-77878775D01*
X220736185Y-77981733D01*
X220455325Y-78116988D01*
X220191368Y-78282843D01*
X219947641Y-78477208D01*
X219727208Y-78697641D01*
X219532843Y-78941368D01*
X219366988Y-79205325D01*
X219231733Y-79486185D01*
X219128775Y-79780420D01*
X219128771Y-79780432D01*
X219059404Y-80084350D01*
X219059402Y-80084366D01*
X219024500Y-80394126D01*
X207800500Y-80394126D01*
X207800500Y-76624038D01*
X225199500Y-76624038D01*
X225199500Y-76875962D01*
X225222197Y-77019263D01*
X225238910Y-77124785D01*
X225316760Y-77364383D01*
X225431132Y-77588848D01*
X225579201Y-77792649D01*
X225579205Y-77792654D01*
X225757345Y-77970794D01*
X225757350Y-77970798D01*
X225843621Y-78033477D01*
X225961155Y-78118870D01*
X226091094Y-78185077D01*
X226185616Y-78233239D01*
X226185618Y-78233239D01*
X226185621Y-78233241D01*
X226425215Y-78311090D01*
X226674038Y-78350500D01*
X226674039Y-78350500D01*
X226925961Y-78350500D01*
X226925962Y-78350500D01*
X227174785Y-78311090D01*
X227414379Y-78233241D01*
X227638845Y-78118870D01*
X227842656Y-77970793D01*
X228020793Y-77792656D01*
X228168870Y-77588845D01*
X228235435Y-77458203D01*
X228283408Y-77407409D01*
X228345919Y-77390500D01*
X232870398Y-77390500D01*
X232937437Y-77410185D01*
X232980883Y-77458205D01*
X232987715Y-77471614D01*
X233108028Y-77637213D01*
X233252786Y-77781971D01*
X233386024Y-77878772D01*
X233418390Y-77902287D01*
X233523582Y-77955885D01*
X233600776Y-77995218D01*
X233600778Y-77995218D01*
X233600781Y-77995220D01*
X233686245Y-78022989D01*
X233795465Y-78058477D01*
X233896557Y-78074488D01*
X233997648Y-78090500D01*
X233997649Y-78090500D01*
X234202351Y-78090500D01*
X234202352Y-78090500D01*
X234404534Y-78058477D01*
X234599219Y-77995220D01*
X234781610Y-77902287D01*
X234909454Y-77809404D01*
X234947213Y-77781971D01*
X234947215Y-77781968D01*
X234947219Y-77781966D01*
X235091966Y-77637219D01*
X235091968Y-77637215D01*
X235091971Y-77637213D01*
X235170377Y-77529294D01*
X235212287Y-77471610D01*
X235305220Y-77289219D01*
X235368477Y-77094534D01*
X235400500Y-76892352D01*
X235400500Y-76687648D01*
X235368477Y-76485466D01*
X235361700Y-76464610D01*
X235305218Y-76290776D01*
X235253918Y-76190095D01*
X235212287Y-76108390D01*
X235153559Y-76027557D01*
X235091971Y-75942786D01*
X234947213Y-75798028D01*
X234781613Y-75677715D01*
X234781612Y-75677714D01*
X234781610Y-75677713D01*
X234724653Y-75648691D01*
X234599223Y-75584781D01*
X234404534Y-75521522D01*
X234229995Y-75493878D01*
X234202352Y-75489500D01*
X233997648Y-75489500D01*
X233973329Y-75493351D01*
X233795465Y-75521522D01*
X233600776Y-75584781D01*
X233418386Y-75677715D01*
X233252786Y-75798028D01*
X233108028Y-75942786D01*
X232987715Y-76108385D01*
X232980883Y-76121795D01*
X232932909Y-76172591D01*
X232870398Y-76189500D01*
X228386681Y-76189500D01*
X228319642Y-76169815D01*
X228276196Y-76121795D01*
X228269364Y-76108386D01*
X228168870Y-75911155D01*
X228071357Y-75776939D01*
X228020798Y-75707350D01*
X228020794Y-75707345D01*
X227842654Y-75529205D01*
X227842649Y-75529201D01*
X227638848Y-75381132D01*
X227638847Y-75381131D01*
X227638845Y-75381130D01*
X227568747Y-75345413D01*
X227414383Y-75266760D01*
X227174785Y-75188910D01*
X226925962Y-75149500D01*
X226674038Y-75149500D01*
X226549626Y-75169205D01*
X226425214Y-75188910D01*
X226185616Y-75266760D01*
X225961151Y-75381132D01*
X225757350Y-75529201D01*
X225757345Y-75529205D01*
X225579205Y-75707345D01*
X225579201Y-75707350D01*
X225431132Y-75911151D01*
X225316760Y-76135616D01*
X225274469Y-76265776D01*
X225238910Y-76375215D01*
X225199500Y-76624038D01*
X207800500Y-76624038D01*
X207800500Y-74524071D01*
X220200000Y-74524071D01*
X220200000Y-74775928D01*
X220239397Y-75024669D01*
X220317219Y-75264184D01*
X220431557Y-75488583D01*
X220505748Y-75590697D01*
X220505748Y-75590698D01*
X221235387Y-74861059D01*
X221240889Y-74881591D01*
X221319881Y-75018408D01*
X221431592Y-75130119D01*
X221568409Y-75209111D01*
X221588940Y-75214612D01*
X220859300Y-75944250D01*
X220961416Y-76018442D01*
X221185815Y-76132780D01*
X221425330Y-76210602D01*
X221674072Y-76250000D01*
X221925928Y-76250000D01*
X222174669Y-76210602D01*
X222414184Y-76132780D01*
X222638575Y-76018446D01*
X222638581Y-76018442D01*
X222740697Y-75944250D01*
X222740698Y-75944250D01*
X222011059Y-75214612D01*
X222031591Y-75209111D01*
X222168408Y-75130119D01*
X222280119Y-75018408D01*
X222359111Y-74881591D01*
X222364612Y-74861059D01*
X223094250Y-75590698D01*
X223094250Y-75590697D01*
X223168442Y-75488581D01*
X223168446Y-75488575D01*
X223282780Y-75264184D01*
X223360602Y-75024669D01*
X223400000Y-74775928D01*
X223400000Y-74524071D01*
X223360602Y-74275330D01*
X223282780Y-74035815D01*
X223168442Y-73811416D01*
X223094250Y-73709301D01*
X223094250Y-73709300D01*
X222364612Y-74438939D01*
X222359111Y-74418409D01*
X222280119Y-74281592D01*
X222168408Y-74169881D01*
X222031591Y-74090889D01*
X222011058Y-74085387D01*
X222740698Y-73355748D01*
X222638583Y-73281557D01*
X222414184Y-73167219D01*
X222174669Y-73089397D01*
X221925928Y-73050000D01*
X221674072Y-73050000D01*
X221425330Y-73089397D01*
X221185815Y-73167219D01*
X220961413Y-73281559D01*
X220859301Y-73355747D01*
X220859300Y-73355748D01*
X221588940Y-74085387D01*
X221568409Y-74090889D01*
X221431592Y-74169881D01*
X221319881Y-74281592D01*
X221240889Y-74418409D01*
X221235387Y-74438940D01*
X220505748Y-73709300D01*
X220505747Y-73709301D01*
X220431559Y-73811413D01*
X220317219Y-74035815D01*
X220239397Y-74275330D01*
X220200000Y-74524071D01*
X207800500Y-74524071D01*
X207800500Y-70824500D01*
X207820185Y-70757461D01*
X207872989Y-70711706D01*
X207924500Y-70700500D01*
X236275500Y-70700500D01*
X236342539Y-70720185D01*
X236388294Y-70772989D01*
X236399500Y-70824500D01*
X236399500Y-83379948D01*
X236379815Y-83446987D01*
X236327011Y-83492742D01*
X236257853Y-83502686D01*
X236202616Y-83480267D01*
X236186790Y-83468769D01*
X236032447Y-83390128D01*
X236032446Y-83390127D01*
X236032445Y-83390127D01*
X235867701Y-83336598D01*
X235867699Y-83336597D01*
X235867698Y-83336597D01*
X235736271Y-83315781D01*
X235696611Y-83309500D01*
X235696610Y-83309500D01*
X234834512Y-83309500D01*
X234778220Y-83295985D01*
X234699089Y-83255666D01*
X234599223Y-83204781D01*
X234404534Y-83141522D01*
X234220971Y-83112449D01*
X234202352Y-83109500D01*
X233997648Y-83109500D01*
X233979029Y-83112449D01*
X233795465Y-83141522D01*
X233600776Y-83204781D01*
X233418386Y-83297715D01*
X233252786Y-83418028D01*
X233108028Y-83562786D01*
X232987715Y-83728386D01*
X232894781Y-83910776D01*
X232831522Y-84105465D01*
X232799500Y-84307648D01*
X232799500Y-84512351D01*
X232831522Y-84714534D01*
X232894781Y-84909223D01*
X232947857Y-85013389D01*
X232984072Y-85084465D01*
X232987715Y-85091613D01*
X233108028Y-85257213D01*
X233252786Y-85401971D01*
X233392185Y-85503248D01*
X233418390Y-85522287D01*
X233534607Y-85581503D01*
X233600776Y-85615218D01*
X233600778Y-85615218D01*
X233600781Y-85615220D01*
X233684842Y-85642533D01*
X233795465Y-85678477D01*
X233833720Y-85684536D01*
X233997648Y-85710500D01*
X233997649Y-85710500D01*
X234202351Y-85710500D01*
X234202352Y-85710500D01*
X234404534Y-85678477D01*
X234599219Y-85615220D01*
X234778220Y-85524014D01*
X234834512Y-85510500D01*
X235102796Y-85510500D01*
X235169835Y-85530185D01*
X235190477Y-85546819D01*
X238963181Y-89319523D01*
X238996666Y-89380846D01*
X238999500Y-89407204D01*
X238999500Y-99702795D01*
X238979815Y-99769834D01*
X238963181Y-99790476D01*
X233716207Y-105037449D01*
X233666845Y-105067699D01*
X233475776Y-105129781D01*
X233293386Y-105222715D01*
X233127786Y-105343028D01*
X232983028Y-105487786D01*
X232862715Y-105653386D01*
X232769781Y-105835776D01*
X232706522Y-106030465D01*
X232674500Y-106232648D01*
X232674500Y-106437351D01*
X232706522Y-106639534D01*
X232769781Y-106834223D01*
X232824499Y-106941611D01*
X232859217Y-107009749D01*
X232862715Y-107016613D01*
X232983028Y-107182213D01*
X233127786Y-107326971D01*
X233271812Y-107431610D01*
X233293390Y-107447287D01*
X233397824Y-107500499D01*
X233475776Y-107540218D01*
X233475778Y-107540218D01*
X233475781Y-107540220D01*
X233580137Y-107574127D01*
X233670465Y-107603477D01*
X233771557Y-107619488D01*
X233872648Y-107635500D01*
X233872649Y-107635500D01*
X234077351Y-107635500D01*
X234077352Y-107635500D01*
X234279534Y-107603477D01*
X234474219Y-107540220D01*
X234656610Y-107447287D01*
X234749590Y-107379732D01*
X234822213Y-107326971D01*
X234822215Y-107326968D01*
X234822219Y-107326966D01*
X234966966Y-107182219D01*
X234966968Y-107182215D01*
X234966971Y-107182213D01*
X235043736Y-107076553D01*
X235087287Y-107016610D01*
X235180220Y-106834219D01*
X235242301Y-106643150D01*
X235272549Y-106593791D01*
X235403700Y-106462640D01*
X240204194Y-106462640D01*
X240204194Y-106737359D01*
X240204195Y-106737375D01*
X240240053Y-107009747D01*
X240311161Y-107275125D01*
X240416290Y-107528930D01*
X240416298Y-107528947D01*
X240553657Y-107766858D01*
X240553668Y-107766874D01*
X240720907Y-107984824D01*
X240720913Y-107984831D01*
X240915168Y-108179086D01*
X240915175Y-108179092D01*
X241068849Y-108297010D01*
X241133134Y-108346338D01*
X241133141Y-108346342D01*
X241371052Y-108483701D01*
X241371057Y-108483703D01*
X241371060Y-108483705D01*
X241371064Y-108483706D01*
X241371069Y-108483709D01*
X241624875Y-108588838D01*
X241624873Y-108588838D01*
X241624879Y-108588839D01*
X241624880Y-108588840D01*
X241890251Y-108659946D01*
X242162634Y-108695806D01*
X242162641Y-108695806D01*
X242437359Y-108695806D01*
X242437366Y-108695806D01*
X242709749Y-108659946D01*
X242975120Y-108588840D01*
X243228940Y-108483705D01*
X243466866Y-108346338D01*
X243684826Y-108179091D01*
X243879091Y-107984826D01*
X244046338Y-107766866D01*
X244183705Y-107528940D01*
X244278534Y-107300000D01*
X244288838Y-107275125D01*
X244288838Y-107275124D01*
X244288840Y-107275120D01*
X244359946Y-107009749D01*
X244395806Y-106737366D01*
X244395806Y-106462634D01*
X244359946Y-106190251D01*
X244288840Y-105924880D01*
X244286385Y-105918954D01*
X244183709Y-105671069D01*
X244183701Y-105671052D01*
X244046342Y-105433141D01*
X244046338Y-105433134D01*
X243936965Y-105290597D01*
X243879092Y-105215175D01*
X243879086Y-105215168D01*
X243684831Y-105020913D01*
X243684824Y-105020907D01*
X243466874Y-104853668D01*
X243466872Y-104853666D01*
X243466866Y-104853662D01*
X243466861Y-104853659D01*
X243466858Y-104853657D01*
X243228947Y-104716298D01*
X243228930Y-104716290D01*
X242975124Y-104611161D01*
X242975126Y-104611161D01*
X242709747Y-104540053D01*
X242437375Y-104504195D01*
X242437372Y-104504194D01*
X242437366Y-104504194D01*
X242162634Y-104504194D01*
X242162628Y-104504194D01*
X242162624Y-104504195D01*
X241890252Y-104540053D01*
X241624874Y-104611161D01*
X241371069Y-104716290D01*
X241371052Y-104716298D01*
X241133141Y-104853657D01*
X241133125Y-104853668D01*
X240915175Y-105020907D01*
X240915168Y-105020913D01*
X240720913Y-105215168D01*
X240720907Y-105215175D01*
X240553668Y-105433125D01*
X240553657Y-105433141D01*
X240416298Y-105671052D01*
X240416290Y-105671069D01*
X240311161Y-105924874D01*
X240240053Y-106190252D01*
X240204195Y-106462624D01*
X240204194Y-106462640D01*
X235403700Y-106462640D01*
X240939414Y-100926928D01*
X241041232Y-100786788D01*
X241119873Y-100632445D01*
X241173402Y-100467701D01*
X241200500Y-100296611D01*
X241200500Y-100123389D01*
X241200500Y-88813389D01*
X241173402Y-88642299D01*
X241134188Y-88521611D01*
X241119873Y-88477554D01*
X241119871Y-88477551D01*
X241119871Y-88477549D01*
X241054060Y-88348389D01*
X241041232Y-88323212D01*
X240939414Y-88183072D01*
X238502201Y-85745859D01*
X238468716Y-85684536D01*
X238473700Y-85614844D01*
X238479392Y-85601892D01*
X238519873Y-85522445D01*
X238573402Y-85357701D01*
X238600500Y-85186611D01*
X238600500Y-85013389D01*
X238600500Y-76464596D01*
X240259252Y-76464596D01*
X240259252Y-76735403D01*
X240277758Y-76875961D01*
X240294598Y-77003872D01*
X240326996Y-77124785D01*
X240364683Y-77265436D01*
X240468310Y-77515613D01*
X240468315Y-77515624D01*
X240603707Y-77750129D01*
X240768554Y-77964963D01*
X240768560Y-77964970D01*
X240960029Y-78156439D01*
X240960036Y-78156445D01*
X241174870Y-78321292D01*
X241409375Y-78456684D01*
X241409380Y-78456686D01*
X241409383Y-78456688D01*
X241659562Y-78560316D01*
X241921128Y-78630402D01*
X242189604Y-78665748D01*
X242189611Y-78665748D01*
X242460389Y-78665748D01*
X242460396Y-78665748D01*
X242728872Y-78630402D01*
X242990438Y-78560316D01*
X243240617Y-78456688D01*
X243475130Y-78321292D01*
X243689965Y-78156444D01*
X243881444Y-77964965D01*
X244046292Y-77750130D01*
X244181688Y-77515617D01*
X244285316Y-77265438D01*
X244355402Y-77003872D01*
X244390748Y-76735396D01*
X244390748Y-76464604D01*
X244355402Y-76196128D01*
X244285316Y-75934562D01*
X244181688Y-75684383D01*
X244181686Y-75684380D01*
X244181684Y-75684375D01*
X244046292Y-75449870D01*
X243881445Y-75235036D01*
X243881439Y-75235029D01*
X243689970Y-75043560D01*
X243689963Y-75043554D01*
X243475129Y-74878707D01*
X243240624Y-74743315D01*
X243240613Y-74743310D01*
X242990436Y-74639683D01*
X242859655Y-74604641D01*
X242728872Y-74569598D01*
X242684003Y-74563690D01*
X242460403Y-74534252D01*
X242460396Y-74534252D01*
X242189604Y-74534252D01*
X242189596Y-74534252D01*
X241934052Y-74567896D01*
X241921128Y-74569598D01*
X241865849Y-74584409D01*
X241659563Y-74639683D01*
X241409386Y-74743310D01*
X241409375Y-74743315D01*
X241174870Y-74878707D01*
X240960036Y-75043554D01*
X240960029Y-75043560D01*
X240768560Y-75235029D01*
X240768554Y-75235036D01*
X240603707Y-75449870D01*
X240468315Y-75684375D01*
X240468310Y-75684386D01*
X240364683Y-75934563D01*
X240294599Y-76196125D01*
X240294597Y-76196136D01*
X240259252Y-76464596D01*
X238600500Y-76464596D01*
X238600500Y-69513389D01*
X238573402Y-69342299D01*
X238519873Y-69177555D01*
X238441232Y-69023212D01*
X238339414Y-68883072D01*
X238216928Y-68760586D01*
X238076788Y-68658768D01*
X237922445Y-68580127D01*
X237757701Y-68526598D01*
X237757699Y-68526597D01*
X237757698Y-68526597D01*
X237626271Y-68505781D01*
X237586611Y-68499500D01*
X206786611Y-68499500D01*
X175086611Y-68499500D01*
X142786611Y-68499500D01*
X142613389Y-68499500D01*
X142573728Y-68505781D01*
X142442302Y-68526597D01*
X142277552Y-68580128D01*
X142123211Y-68658768D01*
X142081176Y-68689309D01*
X141983072Y-68760586D01*
X141983070Y-68760588D01*
X141983069Y-68760588D01*
X141860588Y-68883069D01*
X141860588Y-68883070D01*
X141860586Y-68883072D01*
X141858899Y-68885394D01*
X141758768Y-69023211D01*
X141680128Y-69177552D01*
X141626597Y-69342302D01*
X141599500Y-69513389D01*
X141599500Y-86292796D01*
X141579815Y-86359835D01*
X141563181Y-86380477D01*
X132560588Y-95383069D01*
X132560588Y-95383070D01*
X132560586Y-95383072D01*
X132516859Y-95443256D01*
X132458768Y-95523211D01*
X132380128Y-95677552D01*
X132326597Y-95842302D01*
X132299500Y-96013389D01*
X125800500Y-96013389D01*
X125800500Y-81111304D01*
X129999500Y-81111304D01*
X129999500Y-81288695D01*
X130034103Y-81462658D01*
X130034106Y-81462667D01*
X130101983Y-81626540D01*
X130101990Y-81626553D01*
X130200535Y-81774034D01*
X130200538Y-81774038D01*
X130325961Y-81899461D01*
X130325965Y-81899464D01*
X130473446Y-81998009D01*
X130473459Y-81998016D01*
X130596363Y-82048923D01*
X130637334Y-82065894D01*
X130637336Y-82065894D01*
X130637341Y-82065896D01*
X130811304Y-82100499D01*
X130811307Y-82100500D01*
X130811309Y-82100500D01*
X130988693Y-82100500D01*
X130988694Y-82100499D01*
X131046682Y-82088964D01*
X131162658Y-82065896D01*
X131162661Y-82065894D01*
X131162666Y-82065894D01*
X131326547Y-81998013D01*
X131474035Y-81899464D01*
X131599464Y-81774035D01*
X131698013Y-81626547D01*
X131759937Y-81477048D01*
X131803777Y-81422644D01*
X131870071Y-81400579D01*
X131874498Y-81400500D01*
X138213331Y-81400500D01*
X138213347Y-81400501D01*
X138220943Y-81400501D01*
X138379054Y-81400501D01*
X138379057Y-81400501D01*
X138531785Y-81359577D01*
X138601082Y-81319568D01*
X138668716Y-81280520D01*
X138780520Y-81168716D01*
X138780520Y-81168714D01*
X138790724Y-81158511D01*
X138790727Y-81158506D01*
X139712416Y-80236819D01*
X139773739Y-80203334D01*
X139800097Y-80200500D01*
X139888693Y-80200500D01*
X139888694Y-80200499D01*
X139946682Y-80188964D01*
X140062658Y-80165896D01*
X140062661Y-80165894D01*
X140062666Y-80165894D01*
X140226547Y-80098013D01*
X140374035Y-79999464D01*
X140499464Y-79874035D01*
X140598013Y-79726547D01*
X140665894Y-79562666D01*
X140700500Y-79388691D01*
X140700500Y-79211309D01*
X140700500Y-79211306D01*
X140700499Y-79211304D01*
X140665896Y-79037341D01*
X140665893Y-79037332D01*
X140598016Y-78873459D01*
X140598009Y-78873446D01*
X140499464Y-78725965D01*
X140499461Y-78725961D01*
X140374038Y-78600538D01*
X140374034Y-78600535D01*
X140226553Y-78501990D01*
X140226540Y-78501983D01*
X140062667Y-78434106D01*
X140062658Y-78434103D01*
X139888694Y-78399500D01*
X139888691Y-78399500D01*
X139711309Y-78399500D01*
X139711306Y-78399500D01*
X139537341Y-78434103D01*
X139537332Y-78434106D01*
X139373459Y-78501983D01*
X139373446Y-78501990D01*
X139225965Y-78600535D01*
X139225961Y-78600538D01*
X139100538Y-78725961D01*
X139100535Y-78725965D01*
X139001990Y-78873446D01*
X139001983Y-78873459D01*
X138934106Y-79037332D01*
X138934103Y-79037341D01*
X138899500Y-79211304D01*
X138899500Y-79299903D01*
X138879815Y-79366942D01*
X138863181Y-79387584D01*
X138087584Y-80163181D01*
X138026261Y-80196666D01*
X137999903Y-80199500D01*
X131220941Y-80199500D01*
X131183334Y-80209576D01*
X131183335Y-80209577D01*
X131068214Y-80240423D01*
X131068213Y-80240424D01*
X130994666Y-80282887D01*
X130932666Y-80299500D01*
X130811306Y-80299500D01*
X130637341Y-80334103D01*
X130637332Y-80334106D01*
X130473459Y-80401983D01*
X130473446Y-80401990D01*
X130325965Y-80500535D01*
X130325961Y-80500538D01*
X130200538Y-80625961D01*
X130200535Y-80625965D01*
X130101990Y-80773446D01*
X130101983Y-80773459D01*
X130034106Y-80937332D01*
X130034103Y-80937341D01*
X129999500Y-81111304D01*
X125800500Y-81111304D01*
X125800500Y-76462588D01*
X134228413Y-76462588D01*
X134228413Y-76737411D01*
X134228414Y-76737428D01*
X134264284Y-77009891D01*
X134264285Y-77009896D01*
X134264286Y-77009902D01*
X134332430Y-77264219D01*
X134335418Y-77275371D01*
X134335421Y-77275381D01*
X134440591Y-77529283D01*
X134440596Y-77529294D01*
X134578006Y-77767293D01*
X134578017Y-77767309D01*
X134745318Y-77985340D01*
X134745324Y-77985347D01*
X134939652Y-78179675D01*
X134939658Y-78179680D01*
X135157699Y-78346989D01*
X135157706Y-78346993D01*
X135395705Y-78484403D01*
X135395710Y-78484405D01*
X135395713Y-78484407D01*
X135649628Y-78589582D01*
X135915098Y-78660714D01*
X136187582Y-78696587D01*
X136187589Y-78696587D01*
X136462411Y-78696587D01*
X136462418Y-78696587D01*
X136734902Y-78660714D01*
X137000372Y-78589582D01*
X137254287Y-78484407D01*
X137492301Y-78346989D01*
X137710342Y-78179680D01*
X137904680Y-77985342D01*
X138071989Y-77767301D01*
X138209407Y-77529287D01*
X138314582Y-77275372D01*
X138385714Y-77009902D01*
X138421587Y-76737418D01*
X138421587Y-76462582D01*
X138385714Y-76190098D01*
X138314582Y-75924628D01*
X138209407Y-75670713D01*
X138209405Y-75670710D01*
X138209403Y-75670705D01*
X138071993Y-75432706D01*
X138071989Y-75432699D01*
X137904680Y-75214658D01*
X137904675Y-75214652D01*
X137710347Y-75020324D01*
X137710340Y-75020318D01*
X137492309Y-74853017D01*
X137492307Y-74853015D01*
X137492301Y-74853011D01*
X137492296Y-74853008D01*
X137492293Y-74853006D01*
X137254294Y-74715596D01*
X137254283Y-74715591D01*
X137000381Y-74610421D01*
X137000374Y-74610419D01*
X137000372Y-74610418D01*
X136734902Y-74539286D01*
X136734896Y-74539285D01*
X136734891Y-74539284D01*
X136462428Y-74503414D01*
X136462423Y-74503413D01*
X136462418Y-74503413D01*
X136187582Y-74503413D01*
X136187576Y-74503413D01*
X136187571Y-74503414D01*
X135915108Y-74539284D01*
X135915101Y-74539285D01*
X135915098Y-74539286D01*
X135649628Y-74610418D01*
X135649618Y-74610421D01*
X135395716Y-74715591D01*
X135395705Y-74715596D01*
X135157706Y-74853006D01*
X135157690Y-74853017D01*
X134939659Y-75020318D01*
X134939652Y-75020324D01*
X134745324Y-75214652D01*
X134745318Y-75214659D01*
X134578017Y-75432690D01*
X134578006Y-75432706D01*
X134440596Y-75670705D01*
X134440591Y-75670716D01*
X134335421Y-75924618D01*
X134335418Y-75924628D01*
X134276420Y-76144815D01*
X134264287Y-76190095D01*
X134264284Y-76190108D01*
X134228414Y-76462571D01*
X134228413Y-76462588D01*
X125800500Y-76462588D01*
X125800500Y-69504427D01*
X125800816Y-69495581D01*
X125815130Y-69295443D01*
X125815131Y-69295442D01*
X125815130Y-69295436D01*
X125817646Y-69277938D01*
X125859356Y-69086200D01*
X125864335Y-69069242D01*
X125932911Y-68885382D01*
X125940251Y-68869310D01*
X126034294Y-68697083D01*
X126043850Y-68682214D01*
X126161443Y-68525128D01*
X126173017Y-68511771D01*
X126311771Y-68373017D01*
X126325128Y-68361443D01*
X126482214Y-68243850D01*
X126497083Y-68234294D01*
X126669310Y-68140251D01*
X126685382Y-68132911D01*
X126869242Y-68064335D01*
X126886200Y-68059356D01*
X127077938Y-68017646D01*
X127095436Y-68015130D01*
X127295582Y-68000816D01*
X127304428Y-68000500D01*
X127365892Y-68000500D01*
X246034108Y-68000500D01*
X246095572Y-68000500D01*
X246104418Y-68000816D01*
G37*
%TD.AperFunction*%
%TD*%
M02*
