%TF.GenerationSoftware,KiCad,Pcbnew,10.0.5*%
%TF.CreationDate,2026-07-28T13:44:46+02:00*%
%TF.ProjectId,learsim pcbs,6c656172-7369-46d2-9070-6362732e6b69,rev?*%
%TF.SameCoordinates,Original*%
%TF.FileFunction,Legend,Bot*%
%TF.FilePolarity,Positive*%
%FSLAX46Y46*%
G04 Gerber Fmt 4.6, Leading zero omitted, Abs format (unit mm)*
G04 Created by KiCad (PCBNEW 10.0.5) date 2026-07-28 13:44:46*
%MOMM*%
%LPD*%
G01*
G04 APERTURE LIST*
%ADD10C,0.100000*%
%ADD11C,0.150000*%
%ADD12C,0.120000*%
%ADD13C,0.550000*%
G04 APERTURE END LIST*
D10*
X22795752Y-74148646D02*
X23462419Y-74386741D01*
X23462419Y-74386741D02*
X22795752Y-74624836D01*
X23462419Y-75529598D02*
X23462419Y-74958170D01*
X23462419Y-75243884D02*
X22462419Y-75243884D01*
X22462419Y-75243884D02*
X22605276Y-75148646D01*
X22605276Y-75148646D02*
X22700514Y-75053408D01*
X22700514Y-75053408D02*
X22748133Y-74958170D01*
X23367180Y-75958170D02*
X23414800Y-76005789D01*
X23414800Y-76005789D02*
X23462419Y-75958170D01*
X23462419Y-75958170D02*
X23414800Y-75910551D01*
X23414800Y-75910551D02*
X23367180Y-75958170D01*
X23367180Y-75958170D02*
X23462419Y-75958170D01*
X22462419Y-76624836D02*
X22462419Y-76720074D01*
X22462419Y-76720074D02*
X22510038Y-76815312D01*
X22510038Y-76815312D02*
X22557657Y-76862931D01*
X22557657Y-76862931D02*
X22652895Y-76910550D01*
X22652895Y-76910550D02*
X22843371Y-76958169D01*
X22843371Y-76958169D02*
X23081466Y-76958169D01*
X23081466Y-76958169D02*
X23271942Y-76910550D01*
X23271942Y-76910550D02*
X23367180Y-76862931D01*
X23367180Y-76862931D02*
X23414800Y-76815312D01*
X23414800Y-76815312D02*
X23462419Y-76720074D01*
X23462419Y-76720074D02*
X23462419Y-76624836D01*
X23462419Y-76624836D02*
X23414800Y-76529598D01*
X23414800Y-76529598D02*
X23367180Y-76481979D01*
X23367180Y-76481979D02*
X23271942Y-76434360D01*
X23271942Y-76434360D02*
X23081466Y-76386741D01*
X23081466Y-76386741D02*
X22843371Y-76386741D01*
X22843371Y-76386741D02*
X22652895Y-76434360D01*
X22652895Y-76434360D02*
X22557657Y-76481979D01*
X22557657Y-76481979D02*
X22510038Y-76529598D01*
X22510038Y-76529598D02*
X22462419Y-76624836D01*
X25032419Y-71110074D02*
X25032419Y-70633884D01*
X25032419Y-70633884D02*
X24032419Y-70633884D01*
X24984800Y-71824360D02*
X25032419Y-71729122D01*
X25032419Y-71729122D02*
X25032419Y-71538646D01*
X25032419Y-71538646D02*
X24984800Y-71443408D01*
X24984800Y-71443408D02*
X24889561Y-71395789D01*
X24889561Y-71395789D02*
X24508609Y-71395789D01*
X24508609Y-71395789D02*
X24413371Y-71443408D01*
X24413371Y-71443408D02*
X24365752Y-71538646D01*
X24365752Y-71538646D02*
X24365752Y-71729122D01*
X24365752Y-71729122D02*
X24413371Y-71824360D01*
X24413371Y-71824360D02*
X24508609Y-71871979D01*
X24508609Y-71871979D02*
X24603847Y-71871979D01*
X24603847Y-71871979D02*
X24699085Y-71395789D01*
X25032419Y-72729122D02*
X24508609Y-72729122D01*
X24508609Y-72729122D02*
X24413371Y-72681503D01*
X24413371Y-72681503D02*
X24365752Y-72586265D01*
X24365752Y-72586265D02*
X24365752Y-72395789D01*
X24365752Y-72395789D02*
X24413371Y-72300551D01*
X24984800Y-72729122D02*
X25032419Y-72633884D01*
X25032419Y-72633884D02*
X25032419Y-72395789D01*
X25032419Y-72395789D02*
X24984800Y-72300551D01*
X24984800Y-72300551D02*
X24889561Y-72252932D01*
X24889561Y-72252932D02*
X24794323Y-72252932D01*
X24794323Y-72252932D02*
X24699085Y-72300551D01*
X24699085Y-72300551D02*
X24651466Y-72395789D01*
X24651466Y-72395789D02*
X24651466Y-72633884D01*
X24651466Y-72633884D02*
X24603847Y-72729122D01*
X25032419Y-73205313D02*
X24365752Y-73205313D01*
X24556228Y-73205313D02*
X24460990Y-73252932D01*
X24460990Y-73252932D02*
X24413371Y-73300551D01*
X24413371Y-73300551D02*
X24365752Y-73395789D01*
X24365752Y-73395789D02*
X24365752Y-73491027D01*
X24984800Y-73776742D02*
X25032419Y-73871980D01*
X25032419Y-73871980D02*
X25032419Y-74062456D01*
X25032419Y-74062456D02*
X24984800Y-74157694D01*
X24984800Y-74157694D02*
X24889561Y-74205313D01*
X24889561Y-74205313D02*
X24841942Y-74205313D01*
X24841942Y-74205313D02*
X24746704Y-74157694D01*
X24746704Y-74157694D02*
X24699085Y-74062456D01*
X24699085Y-74062456D02*
X24699085Y-73919599D01*
X24699085Y-73919599D02*
X24651466Y-73824361D01*
X24651466Y-73824361D02*
X24556228Y-73776742D01*
X24556228Y-73776742D02*
X24508609Y-73776742D01*
X24508609Y-73776742D02*
X24413371Y-73824361D01*
X24413371Y-73824361D02*
X24365752Y-73919599D01*
X24365752Y-73919599D02*
X24365752Y-74062456D01*
X24365752Y-74062456D02*
X24413371Y-74157694D01*
X25032419Y-74633885D02*
X24365752Y-74633885D01*
X24032419Y-74633885D02*
X24080038Y-74586266D01*
X24080038Y-74586266D02*
X24127657Y-74633885D01*
X24127657Y-74633885D02*
X24080038Y-74681504D01*
X24080038Y-74681504D02*
X24032419Y-74633885D01*
X24032419Y-74633885D02*
X24127657Y-74633885D01*
X25032419Y-75110075D02*
X24365752Y-75110075D01*
X24460990Y-75110075D02*
X24413371Y-75157694D01*
X24413371Y-75157694D02*
X24365752Y-75252932D01*
X24365752Y-75252932D02*
X24365752Y-75395789D01*
X24365752Y-75395789D02*
X24413371Y-75491027D01*
X24413371Y-75491027D02*
X24508609Y-75538646D01*
X24508609Y-75538646D02*
X25032419Y-75538646D01*
X24508609Y-75538646D02*
X24413371Y-75586265D01*
X24413371Y-75586265D02*
X24365752Y-75681503D01*
X24365752Y-75681503D02*
X24365752Y-75824360D01*
X24365752Y-75824360D02*
X24413371Y-75919599D01*
X24413371Y-75919599D02*
X24508609Y-75967218D01*
X24508609Y-75967218D02*
X25032419Y-75967218D01*
X24127657Y-77157694D02*
X24080038Y-77205313D01*
X24080038Y-77205313D02*
X24032419Y-77300551D01*
X24032419Y-77300551D02*
X24032419Y-77538646D01*
X24032419Y-77538646D02*
X24080038Y-77633884D01*
X24080038Y-77633884D02*
X24127657Y-77681503D01*
X24127657Y-77681503D02*
X24222895Y-77729122D01*
X24222895Y-77729122D02*
X24318133Y-77729122D01*
X24318133Y-77729122D02*
X24460990Y-77681503D01*
X24460990Y-77681503D02*
X25032419Y-77110075D01*
X25032419Y-77110075D02*
X25032419Y-77729122D01*
X24032419Y-78348170D02*
X24032419Y-78443408D01*
X24032419Y-78443408D02*
X24080038Y-78538646D01*
X24080038Y-78538646D02*
X24127657Y-78586265D01*
X24127657Y-78586265D02*
X24222895Y-78633884D01*
X24222895Y-78633884D02*
X24413371Y-78681503D01*
X24413371Y-78681503D02*
X24651466Y-78681503D01*
X24651466Y-78681503D02*
X24841942Y-78633884D01*
X24841942Y-78633884D02*
X24937180Y-78586265D01*
X24937180Y-78586265D02*
X24984800Y-78538646D01*
X24984800Y-78538646D02*
X25032419Y-78443408D01*
X25032419Y-78443408D02*
X25032419Y-78348170D01*
X25032419Y-78348170D02*
X24984800Y-78252932D01*
X24984800Y-78252932D02*
X24937180Y-78205313D01*
X24937180Y-78205313D02*
X24841942Y-78157694D01*
X24841942Y-78157694D02*
X24651466Y-78110075D01*
X24651466Y-78110075D02*
X24413371Y-78110075D01*
X24413371Y-78110075D02*
X24222895Y-78157694D01*
X24222895Y-78157694D02*
X24127657Y-78205313D01*
X24127657Y-78205313D02*
X24080038Y-78252932D01*
X24080038Y-78252932D02*
X24032419Y-78348170D01*
X24127657Y-79062456D02*
X24080038Y-79110075D01*
X24080038Y-79110075D02*
X24032419Y-79205313D01*
X24032419Y-79205313D02*
X24032419Y-79443408D01*
X24032419Y-79443408D02*
X24080038Y-79538646D01*
X24080038Y-79538646D02*
X24127657Y-79586265D01*
X24127657Y-79586265D02*
X24222895Y-79633884D01*
X24222895Y-79633884D02*
X24318133Y-79633884D01*
X24318133Y-79633884D02*
X24460990Y-79586265D01*
X24460990Y-79586265D02*
X25032419Y-79014837D01*
X25032419Y-79014837D02*
X25032419Y-79633884D01*
X24032419Y-80491027D02*
X24032419Y-80300551D01*
X24032419Y-80300551D02*
X24080038Y-80205313D01*
X24080038Y-80205313D02*
X24127657Y-80157694D01*
X24127657Y-80157694D02*
X24270514Y-80062456D01*
X24270514Y-80062456D02*
X24460990Y-80014837D01*
X24460990Y-80014837D02*
X24841942Y-80014837D01*
X24841942Y-80014837D02*
X24937180Y-80062456D01*
X24937180Y-80062456D02*
X24984800Y-80110075D01*
X24984800Y-80110075D02*
X25032419Y-80205313D01*
X25032419Y-80205313D02*
X25032419Y-80395789D01*
X25032419Y-80395789D02*
X24984800Y-80491027D01*
X24984800Y-80491027D02*
X24937180Y-80538646D01*
X24937180Y-80538646D02*
X24841942Y-80586265D01*
X24841942Y-80586265D02*
X24603847Y-80586265D01*
X24603847Y-80586265D02*
X24508609Y-80538646D01*
X24508609Y-80538646D02*
X24460990Y-80491027D01*
X24460990Y-80491027D02*
X24413371Y-80395789D01*
X24413371Y-80395789D02*
X24413371Y-80205313D01*
X24413371Y-80205313D02*
X24460990Y-80110075D01*
X24460990Y-80110075D02*
X24508609Y-80062456D01*
X24508609Y-80062456D02*
X24603847Y-80014837D01*
X26782419Y-71205312D02*
X26306228Y-70871979D01*
X26782419Y-70633884D02*
X25782419Y-70633884D01*
X25782419Y-70633884D02*
X25782419Y-71014836D01*
X25782419Y-71014836D02*
X25830038Y-71110074D01*
X25830038Y-71110074D02*
X25877657Y-71157693D01*
X25877657Y-71157693D02*
X25972895Y-71205312D01*
X25972895Y-71205312D02*
X26115752Y-71205312D01*
X26115752Y-71205312D02*
X26210990Y-71157693D01*
X26210990Y-71157693D02*
X26258609Y-71110074D01*
X26258609Y-71110074D02*
X26306228Y-71014836D01*
X26306228Y-71014836D02*
X26306228Y-70633884D01*
X26782419Y-72062455D02*
X26258609Y-72062455D01*
X26258609Y-72062455D02*
X26163371Y-72014836D01*
X26163371Y-72014836D02*
X26115752Y-71919598D01*
X26115752Y-71919598D02*
X26115752Y-71729122D01*
X26115752Y-71729122D02*
X26163371Y-71633884D01*
X26734800Y-72062455D02*
X26782419Y-71967217D01*
X26782419Y-71967217D02*
X26782419Y-71729122D01*
X26782419Y-71729122D02*
X26734800Y-71633884D01*
X26734800Y-71633884D02*
X26639561Y-71586265D01*
X26639561Y-71586265D02*
X26544323Y-71586265D01*
X26544323Y-71586265D02*
X26449085Y-71633884D01*
X26449085Y-71633884D02*
X26401466Y-71729122D01*
X26401466Y-71729122D02*
X26401466Y-71967217D01*
X26401466Y-71967217D02*
X26353847Y-72062455D01*
X26782419Y-72967217D02*
X25782419Y-72967217D01*
X26734800Y-72967217D02*
X26782419Y-72871979D01*
X26782419Y-72871979D02*
X26782419Y-72681503D01*
X26782419Y-72681503D02*
X26734800Y-72586265D01*
X26734800Y-72586265D02*
X26687180Y-72538646D01*
X26687180Y-72538646D02*
X26591942Y-72491027D01*
X26591942Y-72491027D02*
X26306228Y-72491027D01*
X26306228Y-72491027D02*
X26210990Y-72538646D01*
X26210990Y-72538646D02*
X26163371Y-72586265D01*
X26163371Y-72586265D02*
X26115752Y-72681503D01*
X26115752Y-72681503D02*
X26115752Y-72871979D01*
X26115752Y-72871979D02*
X26163371Y-72967217D01*
X26782419Y-73443408D02*
X26115752Y-73443408D01*
X25782419Y-73443408D02*
X25830038Y-73395789D01*
X25830038Y-73395789D02*
X25877657Y-73443408D01*
X25877657Y-73443408D02*
X25830038Y-73491027D01*
X25830038Y-73491027D02*
X25782419Y-73443408D01*
X25782419Y-73443408D02*
X25877657Y-73443408D01*
X26782419Y-74062455D02*
X26734800Y-73967217D01*
X26734800Y-73967217D02*
X26687180Y-73919598D01*
X26687180Y-73919598D02*
X26591942Y-73871979D01*
X26591942Y-73871979D02*
X26306228Y-73871979D01*
X26306228Y-73871979D02*
X26210990Y-73919598D01*
X26210990Y-73919598D02*
X26163371Y-73967217D01*
X26163371Y-73967217D02*
X26115752Y-74062455D01*
X26115752Y-74062455D02*
X26115752Y-74205312D01*
X26115752Y-74205312D02*
X26163371Y-74300550D01*
X26163371Y-74300550D02*
X26210990Y-74348169D01*
X26210990Y-74348169D02*
X26306228Y-74395788D01*
X26306228Y-74395788D02*
X26591942Y-74395788D01*
X26591942Y-74395788D02*
X26687180Y-74348169D01*
X26687180Y-74348169D02*
X26734800Y-74300550D01*
X26734800Y-74300550D02*
X26782419Y-74205312D01*
X26782419Y-74205312D02*
X26782419Y-74062455D01*
X26782419Y-75586265D02*
X25782419Y-75586265D01*
X25782419Y-75586265D02*
X25782419Y-75967217D01*
X25782419Y-75967217D02*
X25830038Y-76062455D01*
X25830038Y-76062455D02*
X25877657Y-76110074D01*
X25877657Y-76110074D02*
X25972895Y-76157693D01*
X25972895Y-76157693D02*
X26115752Y-76157693D01*
X26115752Y-76157693D02*
X26210990Y-76110074D01*
X26210990Y-76110074D02*
X26258609Y-76062455D01*
X26258609Y-76062455D02*
X26306228Y-75967217D01*
X26306228Y-75967217D02*
X26306228Y-75586265D01*
X26782419Y-77014836D02*
X26258609Y-77014836D01*
X26258609Y-77014836D02*
X26163371Y-76967217D01*
X26163371Y-76967217D02*
X26115752Y-76871979D01*
X26115752Y-76871979D02*
X26115752Y-76681503D01*
X26115752Y-76681503D02*
X26163371Y-76586265D01*
X26734800Y-77014836D02*
X26782419Y-76919598D01*
X26782419Y-76919598D02*
X26782419Y-76681503D01*
X26782419Y-76681503D02*
X26734800Y-76586265D01*
X26734800Y-76586265D02*
X26639561Y-76538646D01*
X26639561Y-76538646D02*
X26544323Y-76538646D01*
X26544323Y-76538646D02*
X26449085Y-76586265D01*
X26449085Y-76586265D02*
X26401466Y-76681503D01*
X26401466Y-76681503D02*
X26401466Y-76919598D01*
X26401466Y-76919598D02*
X26353847Y-77014836D01*
X26115752Y-77491027D02*
X26782419Y-77491027D01*
X26210990Y-77491027D02*
X26163371Y-77538646D01*
X26163371Y-77538646D02*
X26115752Y-77633884D01*
X26115752Y-77633884D02*
X26115752Y-77776741D01*
X26115752Y-77776741D02*
X26163371Y-77871979D01*
X26163371Y-77871979D02*
X26258609Y-77919598D01*
X26258609Y-77919598D02*
X26782419Y-77919598D01*
X26734800Y-78776741D02*
X26782419Y-78681503D01*
X26782419Y-78681503D02*
X26782419Y-78491027D01*
X26782419Y-78491027D02*
X26734800Y-78395789D01*
X26734800Y-78395789D02*
X26639561Y-78348170D01*
X26639561Y-78348170D02*
X26258609Y-78348170D01*
X26258609Y-78348170D02*
X26163371Y-78395789D01*
X26163371Y-78395789D02*
X26115752Y-78491027D01*
X26115752Y-78491027D02*
X26115752Y-78681503D01*
X26115752Y-78681503D02*
X26163371Y-78776741D01*
X26163371Y-78776741D02*
X26258609Y-78824360D01*
X26258609Y-78824360D02*
X26353847Y-78824360D01*
X26353847Y-78824360D02*
X26449085Y-78348170D01*
X26782419Y-79395789D02*
X26734800Y-79300551D01*
X26734800Y-79300551D02*
X26639561Y-79252932D01*
X26639561Y-79252932D02*
X25782419Y-79252932D01*
X28246704Y-70836265D02*
X28246704Y-71312455D01*
X28532419Y-70741027D02*
X27532419Y-71074360D01*
X27532419Y-71074360D02*
X28532419Y-71407693D01*
X28532419Y-71645789D02*
X27865752Y-72169598D01*
X27865752Y-71645789D02*
X28532419Y-72169598D01*
X28484800Y-72931503D02*
X28532419Y-72836265D01*
X28532419Y-72836265D02*
X28532419Y-72645789D01*
X28532419Y-72645789D02*
X28484800Y-72550551D01*
X28484800Y-72550551D02*
X28389561Y-72502932D01*
X28389561Y-72502932D02*
X28008609Y-72502932D01*
X28008609Y-72502932D02*
X27913371Y-72550551D01*
X27913371Y-72550551D02*
X27865752Y-72645789D01*
X27865752Y-72645789D02*
X27865752Y-72836265D01*
X27865752Y-72836265D02*
X27913371Y-72931503D01*
X27913371Y-72931503D02*
X28008609Y-72979122D01*
X28008609Y-72979122D02*
X28103847Y-72979122D01*
X28103847Y-72979122D02*
X28199085Y-72502932D01*
X28532419Y-73550551D02*
X28484800Y-73455313D01*
X28484800Y-73455313D02*
X28389561Y-73407694D01*
X28389561Y-73407694D02*
X27532419Y-73407694D01*
X28532419Y-74693409D02*
X27532419Y-74693409D01*
X27532419Y-74693409D02*
X27532419Y-74931504D01*
X27532419Y-74931504D02*
X27580038Y-75074361D01*
X27580038Y-75074361D02*
X27675276Y-75169599D01*
X27675276Y-75169599D02*
X27770514Y-75217218D01*
X27770514Y-75217218D02*
X27960990Y-75264837D01*
X27960990Y-75264837D02*
X28103847Y-75264837D01*
X28103847Y-75264837D02*
X28294323Y-75217218D01*
X28294323Y-75217218D02*
X28389561Y-75169599D01*
X28389561Y-75169599D02*
X28484800Y-75074361D01*
X28484800Y-75074361D02*
X28532419Y-74931504D01*
X28532419Y-74931504D02*
X28532419Y-74693409D01*
X28532419Y-75693409D02*
X27865752Y-75693409D01*
X28056228Y-75693409D02*
X27960990Y-75741028D01*
X27960990Y-75741028D02*
X27913371Y-75788647D01*
X27913371Y-75788647D02*
X27865752Y-75883885D01*
X27865752Y-75883885D02*
X27865752Y-75979123D01*
X28532419Y-76741028D02*
X28008609Y-76741028D01*
X28008609Y-76741028D02*
X27913371Y-76693409D01*
X27913371Y-76693409D02*
X27865752Y-76598171D01*
X27865752Y-76598171D02*
X27865752Y-76407695D01*
X27865752Y-76407695D02*
X27913371Y-76312457D01*
X28484800Y-76741028D02*
X28532419Y-76645790D01*
X28532419Y-76645790D02*
X28532419Y-76407695D01*
X28532419Y-76407695D02*
X28484800Y-76312457D01*
X28484800Y-76312457D02*
X28389561Y-76264838D01*
X28389561Y-76264838D02*
X28294323Y-76264838D01*
X28294323Y-76264838D02*
X28199085Y-76312457D01*
X28199085Y-76312457D02*
X28151466Y-76407695D01*
X28151466Y-76407695D02*
X28151466Y-76645790D01*
X28151466Y-76645790D02*
X28103847Y-76741028D01*
X27865752Y-77121981D02*
X28532419Y-77312457D01*
X28532419Y-77312457D02*
X28056228Y-77502933D01*
X28056228Y-77502933D02*
X28532419Y-77693409D01*
X28532419Y-77693409D02*
X27865752Y-77883885D01*
X28484800Y-78217219D02*
X28532419Y-78312457D01*
X28532419Y-78312457D02*
X28532419Y-78502933D01*
X28532419Y-78502933D02*
X28484800Y-78598171D01*
X28484800Y-78598171D02*
X28389561Y-78645790D01*
X28389561Y-78645790D02*
X28341942Y-78645790D01*
X28341942Y-78645790D02*
X28246704Y-78598171D01*
X28246704Y-78598171D02*
X28199085Y-78502933D01*
X28199085Y-78502933D02*
X28199085Y-78360076D01*
X28199085Y-78360076D02*
X28151466Y-78264838D01*
X28151466Y-78264838D02*
X28056228Y-78217219D01*
X28056228Y-78217219D02*
X28008609Y-78217219D01*
X28008609Y-78217219D02*
X27913371Y-78264838D01*
X27913371Y-78264838D02*
X27865752Y-78360076D01*
X27865752Y-78360076D02*
X27865752Y-78502933D01*
X27865752Y-78502933D02*
X27913371Y-78598171D01*
D11*
X130761905Y-122495180D02*
X130761905Y-123495180D01*
X130761905Y-123495180D02*
X131000000Y-123495180D01*
X131000000Y-123495180D02*
X131142857Y-123447561D01*
X131142857Y-123447561D02*
X131238095Y-123352323D01*
X131238095Y-123352323D02*
X131285714Y-123257085D01*
X131285714Y-123257085D02*
X131333333Y-123066609D01*
X131333333Y-123066609D02*
X131333333Y-122923752D01*
X131333333Y-122923752D02*
X131285714Y-122733276D01*
X131285714Y-122733276D02*
X131238095Y-122638038D01*
X131238095Y-122638038D02*
X131142857Y-122542800D01*
X131142857Y-122542800D02*
X131000000Y-122495180D01*
X131000000Y-122495180D02*
X130761905Y-122495180D01*
X132190476Y-123495180D02*
X132000000Y-123495180D01*
X132000000Y-123495180D02*
X131904762Y-123447561D01*
X131904762Y-123447561D02*
X131857143Y-123399942D01*
X131857143Y-123399942D02*
X131761905Y-123257085D01*
X131761905Y-123257085D02*
X131714286Y-123066609D01*
X131714286Y-123066609D02*
X131714286Y-122685657D01*
X131714286Y-122685657D02*
X131761905Y-122590419D01*
X131761905Y-122590419D02*
X131809524Y-122542800D01*
X131809524Y-122542800D02*
X131904762Y-122495180D01*
X131904762Y-122495180D02*
X132095238Y-122495180D01*
X132095238Y-122495180D02*
X132190476Y-122542800D01*
X132190476Y-122542800D02*
X132238095Y-122590419D01*
X132238095Y-122590419D02*
X132285714Y-122685657D01*
X132285714Y-122685657D02*
X132285714Y-122923752D01*
X132285714Y-122923752D02*
X132238095Y-123018990D01*
X132238095Y-123018990D02*
X132190476Y-123066609D01*
X132190476Y-123066609D02*
X132095238Y-123114228D01*
X132095238Y-123114228D02*
X131904762Y-123114228D01*
X131904762Y-123114228D02*
X131809524Y-123066609D01*
X131809524Y-123066609D02*
X131761905Y-123018990D01*
X131761905Y-123018990D02*
X131714286Y-122923752D01*
X116416666Y-59704819D02*
X116749999Y-59228628D01*
X116988094Y-59704819D02*
X116988094Y-58704819D01*
X116988094Y-58704819D02*
X116607142Y-58704819D01*
X116607142Y-58704819D02*
X116511904Y-58752438D01*
X116511904Y-58752438D02*
X116464285Y-58800057D01*
X116464285Y-58800057D02*
X116416666Y-58895295D01*
X116416666Y-58895295D02*
X116416666Y-59038152D01*
X116416666Y-59038152D02*
X116464285Y-59133390D01*
X116464285Y-59133390D02*
X116511904Y-59181009D01*
X116511904Y-59181009D02*
X116607142Y-59228628D01*
X116607142Y-59228628D02*
X116988094Y-59228628D01*
X115464285Y-59704819D02*
X116035713Y-59704819D01*
X115749999Y-59704819D02*
X115749999Y-58704819D01*
X115749999Y-58704819D02*
X115845237Y-58847676D01*
X115845237Y-58847676D02*
X115940475Y-58942914D01*
X115940475Y-58942914D02*
X116035713Y-58990533D01*
X123142857Y-126359580D02*
X123190476Y-126407200D01*
X123190476Y-126407200D02*
X123333333Y-126454819D01*
X123333333Y-126454819D02*
X123428571Y-126454819D01*
X123428571Y-126454819D02*
X123571428Y-126407200D01*
X123571428Y-126407200D02*
X123666666Y-126311961D01*
X123666666Y-126311961D02*
X123714285Y-126216723D01*
X123714285Y-126216723D02*
X123761904Y-126026247D01*
X123761904Y-126026247D02*
X123761904Y-125883390D01*
X123761904Y-125883390D02*
X123714285Y-125692914D01*
X123714285Y-125692914D02*
X123666666Y-125597676D01*
X123666666Y-125597676D02*
X123571428Y-125502438D01*
X123571428Y-125502438D02*
X123428571Y-125454819D01*
X123428571Y-125454819D02*
X123333333Y-125454819D01*
X123333333Y-125454819D02*
X123190476Y-125502438D01*
X123190476Y-125502438D02*
X123142857Y-125550057D01*
X122190476Y-126454819D02*
X122761904Y-126454819D01*
X122476190Y-126454819D02*
X122476190Y-125454819D01*
X122476190Y-125454819D02*
X122571428Y-125597676D01*
X122571428Y-125597676D02*
X122666666Y-125692914D01*
X122666666Y-125692914D02*
X122761904Y-125740533D01*
X121809523Y-125550057D02*
X121761904Y-125502438D01*
X121761904Y-125502438D02*
X121666666Y-125454819D01*
X121666666Y-125454819D02*
X121428571Y-125454819D01*
X121428571Y-125454819D02*
X121333333Y-125502438D01*
X121333333Y-125502438D02*
X121285714Y-125550057D01*
X121285714Y-125550057D02*
X121238095Y-125645295D01*
X121238095Y-125645295D02*
X121238095Y-125740533D01*
X121238095Y-125740533D02*
X121285714Y-125883390D01*
X121285714Y-125883390D02*
X121857142Y-126454819D01*
X121857142Y-126454819D02*
X121238095Y-126454819D01*
X26196666Y-127009580D02*
X26244285Y-127057200D01*
X26244285Y-127057200D02*
X26387142Y-127104819D01*
X26387142Y-127104819D02*
X26482380Y-127104819D01*
X26482380Y-127104819D02*
X26625237Y-127057200D01*
X26625237Y-127057200D02*
X26720475Y-126961961D01*
X26720475Y-126961961D02*
X26768094Y-126866723D01*
X26768094Y-126866723D02*
X26815713Y-126676247D01*
X26815713Y-126676247D02*
X26815713Y-126533390D01*
X26815713Y-126533390D02*
X26768094Y-126342914D01*
X26768094Y-126342914D02*
X26720475Y-126247676D01*
X26720475Y-126247676D02*
X26625237Y-126152438D01*
X26625237Y-126152438D02*
X26482380Y-126104819D01*
X26482380Y-126104819D02*
X26387142Y-126104819D01*
X26387142Y-126104819D02*
X26244285Y-126152438D01*
X26244285Y-126152438D02*
X26196666Y-126200057D01*
X25863332Y-126104819D02*
X25196666Y-126104819D01*
X25196666Y-126104819D02*
X25625237Y-127104819D01*
X82166666Y-74454819D02*
X82499999Y-73978628D01*
X82738094Y-74454819D02*
X82738094Y-73454819D01*
X82738094Y-73454819D02*
X82357142Y-73454819D01*
X82357142Y-73454819D02*
X82261904Y-73502438D01*
X82261904Y-73502438D02*
X82214285Y-73550057D01*
X82214285Y-73550057D02*
X82166666Y-73645295D01*
X82166666Y-73645295D02*
X82166666Y-73788152D01*
X82166666Y-73788152D02*
X82214285Y-73883390D01*
X82214285Y-73883390D02*
X82261904Y-73931009D01*
X82261904Y-73931009D02*
X82357142Y-73978628D01*
X82357142Y-73978628D02*
X82738094Y-73978628D01*
X81690475Y-74454819D02*
X81499999Y-74454819D01*
X81499999Y-74454819D02*
X81404761Y-74407200D01*
X81404761Y-74407200D02*
X81357142Y-74359580D01*
X81357142Y-74359580D02*
X81261904Y-74216723D01*
X81261904Y-74216723D02*
X81214285Y-74026247D01*
X81214285Y-74026247D02*
X81214285Y-73645295D01*
X81214285Y-73645295D02*
X81261904Y-73550057D01*
X81261904Y-73550057D02*
X81309523Y-73502438D01*
X81309523Y-73502438D02*
X81404761Y-73454819D01*
X81404761Y-73454819D02*
X81595237Y-73454819D01*
X81595237Y-73454819D02*
X81690475Y-73502438D01*
X81690475Y-73502438D02*
X81738094Y-73550057D01*
X81738094Y-73550057D02*
X81785713Y-73645295D01*
X81785713Y-73645295D02*
X81785713Y-73883390D01*
X81785713Y-73883390D02*
X81738094Y-73978628D01*
X81738094Y-73978628D02*
X81690475Y-74026247D01*
X81690475Y-74026247D02*
X81595237Y-74073866D01*
X81595237Y-74073866D02*
X81404761Y-74073866D01*
X81404761Y-74073866D02*
X81309523Y-74026247D01*
X81309523Y-74026247D02*
X81261904Y-73978628D01*
X81261904Y-73978628D02*
X81214285Y-73883390D01*
X51488094Y-77704819D02*
X51488094Y-76704819D01*
X51488094Y-76704819D02*
X51249999Y-76704819D01*
X51249999Y-76704819D02*
X51107142Y-76752438D01*
X51107142Y-76752438D02*
X51011904Y-76847676D01*
X51011904Y-76847676D02*
X50964285Y-76942914D01*
X50964285Y-76942914D02*
X50916666Y-77133390D01*
X50916666Y-77133390D02*
X50916666Y-77276247D01*
X50916666Y-77276247D02*
X50964285Y-77466723D01*
X50964285Y-77466723D02*
X51011904Y-77561961D01*
X51011904Y-77561961D02*
X51107142Y-77657200D01*
X51107142Y-77657200D02*
X51249999Y-77704819D01*
X51249999Y-77704819D02*
X51488094Y-77704819D01*
X50011904Y-76704819D02*
X50488094Y-76704819D01*
X50488094Y-76704819D02*
X50535713Y-77181009D01*
X50535713Y-77181009D02*
X50488094Y-77133390D01*
X50488094Y-77133390D02*
X50392856Y-77085771D01*
X50392856Y-77085771D02*
X50154761Y-77085771D01*
X50154761Y-77085771D02*
X50059523Y-77133390D01*
X50059523Y-77133390D02*
X50011904Y-77181009D01*
X50011904Y-77181009D02*
X49964285Y-77276247D01*
X49964285Y-77276247D02*
X49964285Y-77514342D01*
X49964285Y-77514342D02*
X50011904Y-77609580D01*
X50011904Y-77609580D02*
X50059523Y-77657200D01*
X50059523Y-77657200D02*
X50154761Y-77704819D01*
X50154761Y-77704819D02*
X50392856Y-77704819D01*
X50392856Y-77704819D02*
X50488094Y-77657200D01*
X50488094Y-77657200D02*
X50535713Y-77609580D01*
X83892857Y-70359580D02*
X83940476Y-70407200D01*
X83940476Y-70407200D02*
X84083333Y-70454819D01*
X84083333Y-70454819D02*
X84178571Y-70454819D01*
X84178571Y-70454819D02*
X84321428Y-70407200D01*
X84321428Y-70407200D02*
X84416666Y-70311961D01*
X84416666Y-70311961D02*
X84464285Y-70216723D01*
X84464285Y-70216723D02*
X84511904Y-70026247D01*
X84511904Y-70026247D02*
X84511904Y-69883390D01*
X84511904Y-69883390D02*
X84464285Y-69692914D01*
X84464285Y-69692914D02*
X84416666Y-69597676D01*
X84416666Y-69597676D02*
X84321428Y-69502438D01*
X84321428Y-69502438D02*
X84178571Y-69454819D01*
X84178571Y-69454819D02*
X84083333Y-69454819D01*
X84083333Y-69454819D02*
X83940476Y-69502438D01*
X83940476Y-69502438D02*
X83892857Y-69550057D01*
X82940476Y-70454819D02*
X83511904Y-70454819D01*
X83226190Y-70454819D02*
X83226190Y-69454819D01*
X83226190Y-69454819D02*
X83321428Y-69597676D01*
X83321428Y-69597676D02*
X83416666Y-69692914D01*
X83416666Y-69692914D02*
X83511904Y-69740533D01*
X82607142Y-69454819D02*
X81988095Y-69454819D01*
X81988095Y-69454819D02*
X82321428Y-69835771D01*
X82321428Y-69835771D02*
X82178571Y-69835771D01*
X82178571Y-69835771D02*
X82083333Y-69883390D01*
X82083333Y-69883390D02*
X82035714Y-69931009D01*
X82035714Y-69931009D02*
X81988095Y-70026247D01*
X81988095Y-70026247D02*
X81988095Y-70264342D01*
X81988095Y-70264342D02*
X82035714Y-70359580D01*
X82035714Y-70359580D02*
X82083333Y-70407200D01*
X82083333Y-70407200D02*
X82178571Y-70454819D01*
X82178571Y-70454819D02*
X82464285Y-70454819D01*
X82464285Y-70454819D02*
X82559523Y-70407200D01*
X82559523Y-70407200D02*
X82607142Y-70359580D01*
X82642857Y-65954819D02*
X82976190Y-65478628D01*
X83214285Y-65954819D02*
X83214285Y-64954819D01*
X83214285Y-64954819D02*
X82833333Y-64954819D01*
X82833333Y-64954819D02*
X82738095Y-65002438D01*
X82738095Y-65002438D02*
X82690476Y-65050057D01*
X82690476Y-65050057D02*
X82642857Y-65145295D01*
X82642857Y-65145295D02*
X82642857Y-65288152D01*
X82642857Y-65288152D02*
X82690476Y-65383390D01*
X82690476Y-65383390D02*
X82738095Y-65431009D01*
X82738095Y-65431009D02*
X82833333Y-65478628D01*
X82833333Y-65478628D02*
X83214285Y-65478628D01*
X81690476Y-65954819D02*
X82261904Y-65954819D01*
X81976190Y-65954819D02*
X81976190Y-64954819D01*
X81976190Y-64954819D02*
X82071428Y-65097676D01*
X82071428Y-65097676D02*
X82166666Y-65192914D01*
X82166666Y-65192914D02*
X82261904Y-65240533D01*
X81071428Y-64954819D02*
X80976190Y-64954819D01*
X80976190Y-64954819D02*
X80880952Y-65002438D01*
X80880952Y-65002438D02*
X80833333Y-65050057D01*
X80833333Y-65050057D02*
X80785714Y-65145295D01*
X80785714Y-65145295D02*
X80738095Y-65335771D01*
X80738095Y-65335771D02*
X80738095Y-65573866D01*
X80738095Y-65573866D02*
X80785714Y-65764342D01*
X80785714Y-65764342D02*
X80833333Y-65859580D01*
X80833333Y-65859580D02*
X80880952Y-65907200D01*
X80880952Y-65907200D02*
X80976190Y-65954819D01*
X80976190Y-65954819D02*
X81071428Y-65954819D01*
X81071428Y-65954819D02*
X81166666Y-65907200D01*
X81166666Y-65907200D02*
X81214285Y-65859580D01*
X81214285Y-65859580D02*
X81261904Y-65764342D01*
X81261904Y-65764342D02*
X81309523Y-65573866D01*
X81309523Y-65573866D02*
X81309523Y-65335771D01*
X81309523Y-65335771D02*
X81261904Y-65145295D01*
X81261904Y-65145295D02*
X81214285Y-65050057D01*
X81214285Y-65050057D02*
X81166666Y-65002438D01*
X81166666Y-65002438D02*
X81071428Y-64954819D01*
X41666666Y-127204819D02*
X41999999Y-126728628D01*
X42238094Y-127204819D02*
X42238094Y-126204819D01*
X42238094Y-126204819D02*
X41857142Y-126204819D01*
X41857142Y-126204819D02*
X41761904Y-126252438D01*
X41761904Y-126252438D02*
X41714285Y-126300057D01*
X41714285Y-126300057D02*
X41666666Y-126395295D01*
X41666666Y-126395295D02*
X41666666Y-126538152D01*
X41666666Y-126538152D02*
X41714285Y-126633390D01*
X41714285Y-126633390D02*
X41761904Y-126681009D01*
X41761904Y-126681009D02*
X41857142Y-126728628D01*
X41857142Y-126728628D02*
X42238094Y-126728628D01*
X41333332Y-126204819D02*
X40714285Y-126204819D01*
X40714285Y-126204819D02*
X41047618Y-126585771D01*
X41047618Y-126585771D02*
X40904761Y-126585771D01*
X40904761Y-126585771D02*
X40809523Y-126633390D01*
X40809523Y-126633390D02*
X40761904Y-126681009D01*
X40761904Y-126681009D02*
X40714285Y-126776247D01*
X40714285Y-126776247D02*
X40714285Y-127014342D01*
X40714285Y-127014342D02*
X40761904Y-127109580D01*
X40761904Y-127109580D02*
X40809523Y-127157200D01*
X40809523Y-127157200D02*
X40904761Y-127204819D01*
X40904761Y-127204819D02*
X41190475Y-127204819D01*
X41190475Y-127204819D02*
X41285713Y-127157200D01*
X41285713Y-127157200D02*
X41333332Y-127109580D01*
X31761905Y-123545180D02*
X31761905Y-124545180D01*
X31761905Y-124545180D02*
X32000000Y-124545180D01*
X32000000Y-124545180D02*
X32142857Y-124497561D01*
X32142857Y-124497561D02*
X32238095Y-124402323D01*
X32238095Y-124402323D02*
X32285714Y-124307085D01*
X32285714Y-124307085D02*
X32333333Y-124116609D01*
X32333333Y-124116609D02*
X32333333Y-123973752D01*
X32333333Y-123973752D02*
X32285714Y-123783276D01*
X32285714Y-123783276D02*
X32238095Y-123688038D01*
X32238095Y-123688038D02*
X32142857Y-123592800D01*
X32142857Y-123592800D02*
X32000000Y-123545180D01*
X32000000Y-123545180D02*
X31761905Y-123545180D01*
X33285714Y-123545180D02*
X32714286Y-123545180D01*
X33000000Y-123545180D02*
X33000000Y-124545180D01*
X33000000Y-124545180D02*
X32904762Y-124402323D01*
X32904762Y-124402323D02*
X32809524Y-124307085D01*
X32809524Y-124307085D02*
X32714286Y-124259466D01*
X115392857Y-64359580D02*
X115440476Y-64407200D01*
X115440476Y-64407200D02*
X115583333Y-64454819D01*
X115583333Y-64454819D02*
X115678571Y-64454819D01*
X115678571Y-64454819D02*
X115821428Y-64407200D01*
X115821428Y-64407200D02*
X115916666Y-64311961D01*
X115916666Y-64311961D02*
X115964285Y-64216723D01*
X115964285Y-64216723D02*
X116011904Y-64026247D01*
X116011904Y-64026247D02*
X116011904Y-63883390D01*
X116011904Y-63883390D02*
X115964285Y-63692914D01*
X115964285Y-63692914D02*
X115916666Y-63597676D01*
X115916666Y-63597676D02*
X115821428Y-63502438D01*
X115821428Y-63502438D02*
X115678571Y-63454819D01*
X115678571Y-63454819D02*
X115583333Y-63454819D01*
X115583333Y-63454819D02*
X115440476Y-63502438D01*
X115440476Y-63502438D02*
X115392857Y-63550057D01*
X114440476Y-64454819D02*
X115011904Y-64454819D01*
X114726190Y-64454819D02*
X114726190Y-63454819D01*
X114726190Y-63454819D02*
X114821428Y-63597676D01*
X114821428Y-63597676D02*
X114916666Y-63692914D01*
X114916666Y-63692914D02*
X115011904Y-63740533D01*
X114107142Y-63454819D02*
X113440476Y-63454819D01*
X113440476Y-63454819D02*
X113869047Y-64454819D01*
X81261905Y-122545180D02*
X81261905Y-123545180D01*
X81261905Y-123545180D02*
X81500000Y-123545180D01*
X81500000Y-123545180D02*
X81642857Y-123497561D01*
X81642857Y-123497561D02*
X81738095Y-123402323D01*
X81738095Y-123402323D02*
X81785714Y-123307085D01*
X81785714Y-123307085D02*
X81833333Y-123116609D01*
X81833333Y-123116609D02*
X81833333Y-122973752D01*
X81833333Y-122973752D02*
X81785714Y-122783276D01*
X81785714Y-122783276D02*
X81738095Y-122688038D01*
X81738095Y-122688038D02*
X81642857Y-122592800D01*
X81642857Y-122592800D02*
X81500000Y-122545180D01*
X81500000Y-122545180D02*
X81261905Y-122545180D01*
X82166667Y-123545180D02*
X82785714Y-123545180D01*
X82785714Y-123545180D02*
X82452381Y-123164228D01*
X82452381Y-123164228D02*
X82595238Y-123164228D01*
X82595238Y-123164228D02*
X82690476Y-123116609D01*
X82690476Y-123116609D02*
X82738095Y-123068990D01*
X82738095Y-123068990D02*
X82785714Y-122973752D01*
X82785714Y-122973752D02*
X82785714Y-122735657D01*
X82785714Y-122735657D02*
X82738095Y-122640419D01*
X82738095Y-122640419D02*
X82690476Y-122592800D01*
X82690476Y-122592800D02*
X82595238Y-122545180D01*
X82595238Y-122545180D02*
X82309524Y-122545180D01*
X82309524Y-122545180D02*
X82214286Y-122592800D01*
X82214286Y-122592800D02*
X82166667Y-122640419D01*
X58666666Y-80704819D02*
X58999999Y-80228628D01*
X59238094Y-80704819D02*
X59238094Y-79704819D01*
X59238094Y-79704819D02*
X58857142Y-79704819D01*
X58857142Y-79704819D02*
X58761904Y-79752438D01*
X58761904Y-79752438D02*
X58714285Y-79800057D01*
X58714285Y-79800057D02*
X58666666Y-79895295D01*
X58666666Y-79895295D02*
X58666666Y-80038152D01*
X58666666Y-80038152D02*
X58714285Y-80133390D01*
X58714285Y-80133390D02*
X58761904Y-80181009D01*
X58761904Y-80181009D02*
X58857142Y-80228628D01*
X58857142Y-80228628D02*
X59238094Y-80228628D01*
X58095237Y-80133390D02*
X58190475Y-80085771D01*
X58190475Y-80085771D02*
X58238094Y-80038152D01*
X58238094Y-80038152D02*
X58285713Y-79942914D01*
X58285713Y-79942914D02*
X58285713Y-79895295D01*
X58285713Y-79895295D02*
X58238094Y-79800057D01*
X58238094Y-79800057D02*
X58190475Y-79752438D01*
X58190475Y-79752438D02*
X58095237Y-79704819D01*
X58095237Y-79704819D02*
X57904761Y-79704819D01*
X57904761Y-79704819D02*
X57809523Y-79752438D01*
X57809523Y-79752438D02*
X57761904Y-79800057D01*
X57761904Y-79800057D02*
X57714285Y-79895295D01*
X57714285Y-79895295D02*
X57714285Y-79942914D01*
X57714285Y-79942914D02*
X57761904Y-80038152D01*
X57761904Y-80038152D02*
X57809523Y-80085771D01*
X57809523Y-80085771D02*
X57904761Y-80133390D01*
X57904761Y-80133390D02*
X58095237Y-80133390D01*
X58095237Y-80133390D02*
X58190475Y-80181009D01*
X58190475Y-80181009D02*
X58238094Y-80228628D01*
X58238094Y-80228628D02*
X58285713Y-80323866D01*
X58285713Y-80323866D02*
X58285713Y-80514342D01*
X58285713Y-80514342D02*
X58238094Y-80609580D01*
X58238094Y-80609580D02*
X58190475Y-80657200D01*
X58190475Y-80657200D02*
X58095237Y-80704819D01*
X58095237Y-80704819D02*
X57904761Y-80704819D01*
X57904761Y-80704819D02*
X57809523Y-80657200D01*
X57809523Y-80657200D02*
X57761904Y-80609580D01*
X57761904Y-80609580D02*
X57714285Y-80514342D01*
X57714285Y-80514342D02*
X57714285Y-80323866D01*
X57714285Y-80323866D02*
X57761904Y-80228628D01*
X57761904Y-80228628D02*
X57809523Y-80181009D01*
X57809523Y-80181009D02*
X57904761Y-80133390D01*
X115392857Y-76204819D02*
X115726190Y-75728628D01*
X115964285Y-76204819D02*
X115964285Y-75204819D01*
X115964285Y-75204819D02*
X115583333Y-75204819D01*
X115583333Y-75204819D02*
X115488095Y-75252438D01*
X115488095Y-75252438D02*
X115440476Y-75300057D01*
X115440476Y-75300057D02*
X115392857Y-75395295D01*
X115392857Y-75395295D02*
X115392857Y-75538152D01*
X115392857Y-75538152D02*
X115440476Y-75633390D01*
X115440476Y-75633390D02*
X115488095Y-75681009D01*
X115488095Y-75681009D02*
X115583333Y-75728628D01*
X115583333Y-75728628D02*
X115964285Y-75728628D01*
X114440476Y-76204819D02*
X115011904Y-76204819D01*
X114726190Y-76204819D02*
X114726190Y-75204819D01*
X114726190Y-75204819D02*
X114821428Y-75347676D01*
X114821428Y-75347676D02*
X114916666Y-75442914D01*
X114916666Y-75442914D02*
X115011904Y-75490533D01*
X114059523Y-75300057D02*
X114011904Y-75252438D01*
X114011904Y-75252438D02*
X113916666Y-75204819D01*
X113916666Y-75204819D02*
X113678571Y-75204819D01*
X113678571Y-75204819D02*
X113583333Y-75252438D01*
X113583333Y-75252438D02*
X113535714Y-75300057D01*
X113535714Y-75300057D02*
X113488095Y-75395295D01*
X113488095Y-75395295D02*
X113488095Y-75490533D01*
X113488095Y-75490533D02*
X113535714Y-75633390D01*
X113535714Y-75633390D02*
X114107142Y-76204819D01*
X114107142Y-76204819D02*
X113488095Y-76204819D01*
X83582857Y-55704819D02*
X83916190Y-55228628D01*
X84154285Y-55704819D02*
X84154285Y-54704819D01*
X84154285Y-54704819D02*
X83773333Y-54704819D01*
X83773333Y-54704819D02*
X83678095Y-54752438D01*
X83678095Y-54752438D02*
X83630476Y-54800057D01*
X83630476Y-54800057D02*
X83582857Y-54895295D01*
X83582857Y-54895295D02*
X83582857Y-55038152D01*
X83582857Y-55038152D02*
X83630476Y-55133390D01*
X83630476Y-55133390D02*
X83678095Y-55181009D01*
X83678095Y-55181009D02*
X83773333Y-55228628D01*
X83773333Y-55228628D02*
X84154285Y-55228628D01*
X82630476Y-55704819D02*
X83201904Y-55704819D01*
X82916190Y-55704819D02*
X82916190Y-54704819D01*
X82916190Y-54704819D02*
X83011428Y-54847676D01*
X83011428Y-54847676D02*
X83106666Y-54942914D01*
X83106666Y-54942914D02*
X83201904Y-54990533D01*
X81678095Y-55704819D02*
X82249523Y-55704819D01*
X81963809Y-55704819D02*
X81963809Y-54704819D01*
X81963809Y-54704819D02*
X82059047Y-54847676D01*
X82059047Y-54847676D02*
X82154285Y-54942914D01*
X82154285Y-54942914D02*
X82249523Y-54990533D01*
X31062857Y-84744819D02*
X31396190Y-84268628D01*
X31634285Y-84744819D02*
X31634285Y-83744819D01*
X31634285Y-83744819D02*
X31253333Y-83744819D01*
X31253333Y-83744819D02*
X31158095Y-83792438D01*
X31158095Y-83792438D02*
X31110476Y-83840057D01*
X31110476Y-83840057D02*
X31062857Y-83935295D01*
X31062857Y-83935295D02*
X31062857Y-84078152D01*
X31062857Y-84078152D02*
X31110476Y-84173390D01*
X31110476Y-84173390D02*
X31158095Y-84221009D01*
X31158095Y-84221009D02*
X31253333Y-84268628D01*
X31253333Y-84268628D02*
X31634285Y-84268628D01*
X30110476Y-84744819D02*
X30681904Y-84744819D01*
X30396190Y-84744819D02*
X30396190Y-83744819D01*
X30396190Y-83744819D02*
X30491428Y-83887676D01*
X30491428Y-83887676D02*
X30586666Y-83982914D01*
X30586666Y-83982914D02*
X30681904Y-84030533D01*
X29777142Y-83744819D02*
X29110476Y-83744819D01*
X29110476Y-83744819D02*
X29539047Y-84744819D01*
X101842857Y-126389580D02*
X101890476Y-126437200D01*
X101890476Y-126437200D02*
X102033333Y-126484819D01*
X102033333Y-126484819D02*
X102128571Y-126484819D01*
X102128571Y-126484819D02*
X102271428Y-126437200D01*
X102271428Y-126437200D02*
X102366666Y-126341961D01*
X102366666Y-126341961D02*
X102414285Y-126246723D01*
X102414285Y-126246723D02*
X102461904Y-126056247D01*
X102461904Y-126056247D02*
X102461904Y-125913390D01*
X102461904Y-125913390D02*
X102414285Y-125722914D01*
X102414285Y-125722914D02*
X102366666Y-125627676D01*
X102366666Y-125627676D02*
X102271428Y-125532438D01*
X102271428Y-125532438D02*
X102128571Y-125484819D01*
X102128571Y-125484819D02*
X102033333Y-125484819D01*
X102033333Y-125484819D02*
X101890476Y-125532438D01*
X101890476Y-125532438D02*
X101842857Y-125580057D01*
X100890476Y-126484819D02*
X101461904Y-126484819D01*
X101176190Y-126484819D02*
X101176190Y-125484819D01*
X101176190Y-125484819D02*
X101271428Y-125627676D01*
X101271428Y-125627676D02*
X101366666Y-125722914D01*
X101366666Y-125722914D02*
X101461904Y-125770533D01*
X100271428Y-125484819D02*
X100176190Y-125484819D01*
X100176190Y-125484819D02*
X100080952Y-125532438D01*
X100080952Y-125532438D02*
X100033333Y-125580057D01*
X100033333Y-125580057D02*
X99985714Y-125675295D01*
X99985714Y-125675295D02*
X99938095Y-125865771D01*
X99938095Y-125865771D02*
X99938095Y-126103866D01*
X99938095Y-126103866D02*
X99985714Y-126294342D01*
X99985714Y-126294342D02*
X100033333Y-126389580D01*
X100033333Y-126389580D02*
X100080952Y-126437200D01*
X100080952Y-126437200D02*
X100176190Y-126484819D01*
X100176190Y-126484819D02*
X100271428Y-126484819D01*
X100271428Y-126484819D02*
X100366666Y-126437200D01*
X100366666Y-126437200D02*
X100414285Y-126389580D01*
X100414285Y-126389580D02*
X100461904Y-126294342D01*
X100461904Y-126294342D02*
X100509523Y-126103866D01*
X100509523Y-126103866D02*
X100509523Y-125865771D01*
X100509523Y-125865771D02*
X100461904Y-125675295D01*
X100461904Y-125675295D02*
X100414285Y-125580057D01*
X100414285Y-125580057D02*
X100366666Y-125532438D01*
X100366666Y-125532438D02*
X100271428Y-125484819D01*
X28916666Y-57219580D02*
X28964285Y-57267200D01*
X28964285Y-57267200D02*
X29107142Y-57314819D01*
X29107142Y-57314819D02*
X29202380Y-57314819D01*
X29202380Y-57314819D02*
X29345237Y-57267200D01*
X29345237Y-57267200D02*
X29440475Y-57171961D01*
X29440475Y-57171961D02*
X29488094Y-57076723D01*
X29488094Y-57076723D02*
X29535713Y-56886247D01*
X29535713Y-56886247D02*
X29535713Y-56743390D01*
X29535713Y-56743390D02*
X29488094Y-56552914D01*
X29488094Y-56552914D02*
X29440475Y-56457676D01*
X29440475Y-56457676D02*
X29345237Y-56362438D01*
X29345237Y-56362438D02*
X29202380Y-56314819D01*
X29202380Y-56314819D02*
X29107142Y-56314819D01*
X29107142Y-56314819D02*
X28964285Y-56362438D01*
X28964285Y-56362438D02*
X28916666Y-56410057D01*
X28059523Y-56648152D02*
X28059523Y-57314819D01*
X28297618Y-56267200D02*
X28535713Y-56981485D01*
X28535713Y-56981485D02*
X27916666Y-56981485D01*
X56261905Y-122545180D02*
X56261905Y-123545180D01*
X56261905Y-123545180D02*
X56500000Y-123545180D01*
X56500000Y-123545180D02*
X56642857Y-123497561D01*
X56642857Y-123497561D02*
X56738095Y-123402323D01*
X56738095Y-123402323D02*
X56785714Y-123307085D01*
X56785714Y-123307085D02*
X56833333Y-123116609D01*
X56833333Y-123116609D02*
X56833333Y-122973752D01*
X56833333Y-122973752D02*
X56785714Y-122783276D01*
X56785714Y-122783276D02*
X56738095Y-122688038D01*
X56738095Y-122688038D02*
X56642857Y-122592800D01*
X56642857Y-122592800D02*
X56500000Y-122545180D01*
X56500000Y-122545180D02*
X56261905Y-122545180D01*
X57214286Y-123449942D02*
X57261905Y-123497561D01*
X57261905Y-123497561D02*
X57357143Y-123545180D01*
X57357143Y-123545180D02*
X57595238Y-123545180D01*
X57595238Y-123545180D02*
X57690476Y-123497561D01*
X57690476Y-123497561D02*
X57738095Y-123449942D01*
X57738095Y-123449942D02*
X57785714Y-123354704D01*
X57785714Y-123354704D02*
X57785714Y-123259466D01*
X57785714Y-123259466D02*
X57738095Y-123116609D01*
X57738095Y-123116609D02*
X57166667Y-122545180D01*
X57166667Y-122545180D02*
X57785714Y-122545180D01*
X94676666Y-45039580D02*
X94724285Y-45087200D01*
X94724285Y-45087200D02*
X94867142Y-45134819D01*
X94867142Y-45134819D02*
X94962380Y-45134819D01*
X94962380Y-45134819D02*
X95105237Y-45087200D01*
X95105237Y-45087200D02*
X95200475Y-44991961D01*
X95200475Y-44991961D02*
X95248094Y-44896723D01*
X95248094Y-44896723D02*
X95295713Y-44706247D01*
X95295713Y-44706247D02*
X95295713Y-44563390D01*
X95295713Y-44563390D02*
X95248094Y-44372914D01*
X95248094Y-44372914D02*
X95200475Y-44277676D01*
X95200475Y-44277676D02*
X95105237Y-44182438D01*
X95105237Y-44182438D02*
X94962380Y-44134819D01*
X94962380Y-44134819D02*
X94867142Y-44134819D01*
X94867142Y-44134819D02*
X94724285Y-44182438D01*
X94724285Y-44182438D02*
X94676666Y-44230057D01*
X93724285Y-45134819D02*
X94295713Y-45134819D01*
X94009999Y-45134819D02*
X94009999Y-44134819D01*
X94009999Y-44134819D02*
X94105237Y-44277676D01*
X94105237Y-44277676D02*
X94200475Y-44372914D01*
X94200475Y-44372914D02*
X94295713Y-44420533D01*
X52392857Y-98454819D02*
X52726190Y-97978628D01*
X52964285Y-98454819D02*
X52964285Y-97454819D01*
X52964285Y-97454819D02*
X52583333Y-97454819D01*
X52583333Y-97454819D02*
X52488095Y-97502438D01*
X52488095Y-97502438D02*
X52440476Y-97550057D01*
X52440476Y-97550057D02*
X52392857Y-97645295D01*
X52392857Y-97645295D02*
X52392857Y-97788152D01*
X52392857Y-97788152D02*
X52440476Y-97883390D01*
X52440476Y-97883390D02*
X52488095Y-97931009D01*
X52488095Y-97931009D02*
X52583333Y-97978628D01*
X52583333Y-97978628D02*
X52964285Y-97978628D01*
X51440476Y-98454819D02*
X52011904Y-98454819D01*
X51726190Y-98454819D02*
X51726190Y-97454819D01*
X51726190Y-97454819D02*
X51821428Y-97597676D01*
X51821428Y-97597676D02*
X51916666Y-97692914D01*
X51916666Y-97692914D02*
X52011904Y-97740533D01*
X50535714Y-97454819D02*
X51011904Y-97454819D01*
X51011904Y-97454819D02*
X51059523Y-97931009D01*
X51059523Y-97931009D02*
X51011904Y-97883390D01*
X51011904Y-97883390D02*
X50916666Y-97835771D01*
X50916666Y-97835771D02*
X50678571Y-97835771D01*
X50678571Y-97835771D02*
X50583333Y-97883390D01*
X50583333Y-97883390D02*
X50535714Y-97931009D01*
X50535714Y-97931009D02*
X50488095Y-98026247D01*
X50488095Y-98026247D02*
X50488095Y-98264342D01*
X50488095Y-98264342D02*
X50535714Y-98359580D01*
X50535714Y-98359580D02*
X50583333Y-98407200D01*
X50583333Y-98407200D02*
X50678571Y-98454819D01*
X50678571Y-98454819D02*
X50916666Y-98454819D01*
X50916666Y-98454819D02*
X51011904Y-98407200D01*
X51011904Y-98407200D02*
X51059523Y-98359580D01*
X115392857Y-72609580D02*
X115440476Y-72657200D01*
X115440476Y-72657200D02*
X115583333Y-72704819D01*
X115583333Y-72704819D02*
X115678571Y-72704819D01*
X115678571Y-72704819D02*
X115821428Y-72657200D01*
X115821428Y-72657200D02*
X115916666Y-72561961D01*
X115916666Y-72561961D02*
X115964285Y-72466723D01*
X115964285Y-72466723D02*
X116011904Y-72276247D01*
X116011904Y-72276247D02*
X116011904Y-72133390D01*
X116011904Y-72133390D02*
X115964285Y-71942914D01*
X115964285Y-71942914D02*
X115916666Y-71847676D01*
X115916666Y-71847676D02*
X115821428Y-71752438D01*
X115821428Y-71752438D02*
X115678571Y-71704819D01*
X115678571Y-71704819D02*
X115583333Y-71704819D01*
X115583333Y-71704819D02*
X115440476Y-71752438D01*
X115440476Y-71752438D02*
X115392857Y-71800057D01*
X114440476Y-72704819D02*
X115011904Y-72704819D01*
X114726190Y-72704819D02*
X114726190Y-71704819D01*
X114726190Y-71704819D02*
X114821428Y-71847676D01*
X114821428Y-71847676D02*
X114916666Y-71942914D01*
X114916666Y-71942914D02*
X115011904Y-71990533D01*
X113583333Y-71704819D02*
X113773809Y-71704819D01*
X113773809Y-71704819D02*
X113869047Y-71752438D01*
X113869047Y-71752438D02*
X113916666Y-71800057D01*
X113916666Y-71800057D02*
X114011904Y-71942914D01*
X114011904Y-71942914D02*
X114059523Y-72133390D01*
X114059523Y-72133390D02*
X114059523Y-72514342D01*
X114059523Y-72514342D02*
X114011904Y-72609580D01*
X114011904Y-72609580D02*
X113964285Y-72657200D01*
X113964285Y-72657200D02*
X113869047Y-72704819D01*
X113869047Y-72704819D02*
X113678571Y-72704819D01*
X113678571Y-72704819D02*
X113583333Y-72657200D01*
X113583333Y-72657200D02*
X113535714Y-72609580D01*
X113535714Y-72609580D02*
X113488095Y-72514342D01*
X113488095Y-72514342D02*
X113488095Y-72276247D01*
X113488095Y-72276247D02*
X113535714Y-72181009D01*
X113535714Y-72181009D02*
X113583333Y-72133390D01*
X113583333Y-72133390D02*
X113678571Y-72085771D01*
X113678571Y-72085771D02*
X113869047Y-72085771D01*
X113869047Y-72085771D02*
X113964285Y-72133390D01*
X113964285Y-72133390D02*
X114011904Y-72181009D01*
X114011904Y-72181009D02*
X114059523Y-72276247D01*
X110416666Y-126704819D02*
X110749999Y-126228628D01*
X110988094Y-126704819D02*
X110988094Y-125704819D01*
X110988094Y-125704819D02*
X110607142Y-125704819D01*
X110607142Y-125704819D02*
X110511904Y-125752438D01*
X110511904Y-125752438D02*
X110464285Y-125800057D01*
X110464285Y-125800057D02*
X110416666Y-125895295D01*
X110416666Y-125895295D02*
X110416666Y-126038152D01*
X110416666Y-126038152D02*
X110464285Y-126133390D01*
X110464285Y-126133390D02*
X110511904Y-126181009D01*
X110511904Y-126181009D02*
X110607142Y-126228628D01*
X110607142Y-126228628D02*
X110988094Y-126228628D01*
X109559523Y-125704819D02*
X109749999Y-125704819D01*
X109749999Y-125704819D02*
X109845237Y-125752438D01*
X109845237Y-125752438D02*
X109892856Y-125800057D01*
X109892856Y-125800057D02*
X109988094Y-125942914D01*
X109988094Y-125942914D02*
X110035713Y-126133390D01*
X110035713Y-126133390D02*
X110035713Y-126514342D01*
X110035713Y-126514342D02*
X109988094Y-126609580D01*
X109988094Y-126609580D02*
X109940475Y-126657200D01*
X109940475Y-126657200D02*
X109845237Y-126704819D01*
X109845237Y-126704819D02*
X109654761Y-126704819D01*
X109654761Y-126704819D02*
X109559523Y-126657200D01*
X109559523Y-126657200D02*
X109511904Y-126609580D01*
X109511904Y-126609580D02*
X109464285Y-126514342D01*
X109464285Y-126514342D02*
X109464285Y-126276247D01*
X109464285Y-126276247D02*
X109511904Y-126181009D01*
X109511904Y-126181009D02*
X109559523Y-126133390D01*
X109559523Y-126133390D02*
X109654761Y-126085771D01*
X109654761Y-126085771D02*
X109845237Y-126085771D01*
X109845237Y-126085771D02*
X109940475Y-126133390D01*
X109940475Y-126133390D02*
X109988094Y-126181009D01*
X109988094Y-126181009D02*
X110035713Y-126276247D01*
X124516666Y-102469580D02*
X124564285Y-102517200D01*
X124564285Y-102517200D02*
X124707142Y-102564819D01*
X124707142Y-102564819D02*
X124802380Y-102564819D01*
X124802380Y-102564819D02*
X124945237Y-102517200D01*
X124945237Y-102517200D02*
X125040475Y-102421961D01*
X125040475Y-102421961D02*
X125088094Y-102326723D01*
X125088094Y-102326723D02*
X125135713Y-102136247D01*
X125135713Y-102136247D02*
X125135713Y-101993390D01*
X125135713Y-101993390D02*
X125088094Y-101802914D01*
X125088094Y-101802914D02*
X125040475Y-101707676D01*
X125040475Y-101707676D02*
X124945237Y-101612438D01*
X124945237Y-101612438D02*
X124802380Y-101564819D01*
X124802380Y-101564819D02*
X124707142Y-101564819D01*
X124707142Y-101564819D02*
X124564285Y-101612438D01*
X124564285Y-101612438D02*
X124516666Y-101660057D01*
X123659523Y-101564819D02*
X123849999Y-101564819D01*
X123849999Y-101564819D02*
X123945237Y-101612438D01*
X123945237Y-101612438D02*
X123992856Y-101660057D01*
X123992856Y-101660057D02*
X124088094Y-101802914D01*
X124088094Y-101802914D02*
X124135713Y-101993390D01*
X124135713Y-101993390D02*
X124135713Y-102374342D01*
X124135713Y-102374342D02*
X124088094Y-102469580D01*
X124088094Y-102469580D02*
X124040475Y-102517200D01*
X124040475Y-102517200D02*
X123945237Y-102564819D01*
X123945237Y-102564819D02*
X123754761Y-102564819D01*
X123754761Y-102564819D02*
X123659523Y-102517200D01*
X123659523Y-102517200D02*
X123611904Y-102469580D01*
X123611904Y-102469580D02*
X123564285Y-102374342D01*
X123564285Y-102374342D02*
X123564285Y-102136247D01*
X123564285Y-102136247D02*
X123611904Y-102041009D01*
X123611904Y-102041009D02*
X123659523Y-101993390D01*
X123659523Y-101993390D02*
X123754761Y-101945771D01*
X123754761Y-101945771D02*
X123945237Y-101945771D01*
X123945237Y-101945771D02*
X124040475Y-101993390D01*
X124040475Y-101993390D02*
X124088094Y-102041009D01*
X124088094Y-102041009D02*
X124135713Y-102136247D01*
X119954819Y-116583333D02*
X119478628Y-116250000D01*
X119954819Y-116011905D02*
X118954819Y-116011905D01*
X118954819Y-116011905D02*
X118954819Y-116392857D01*
X118954819Y-116392857D02*
X119002438Y-116488095D01*
X119002438Y-116488095D02*
X119050057Y-116535714D01*
X119050057Y-116535714D02*
X119145295Y-116583333D01*
X119145295Y-116583333D02*
X119288152Y-116583333D01*
X119288152Y-116583333D02*
X119383390Y-116535714D01*
X119383390Y-116535714D02*
X119431009Y-116488095D01*
X119431009Y-116488095D02*
X119478628Y-116392857D01*
X119478628Y-116392857D02*
X119478628Y-116011905D01*
X118954819Y-116916667D02*
X118954819Y-117583333D01*
X118954819Y-117583333D02*
X119954819Y-117154762D01*
X63356666Y-127204819D02*
X63689999Y-126728628D01*
X63928094Y-127204819D02*
X63928094Y-126204819D01*
X63928094Y-126204819D02*
X63547142Y-126204819D01*
X63547142Y-126204819D02*
X63451904Y-126252438D01*
X63451904Y-126252438D02*
X63404285Y-126300057D01*
X63404285Y-126300057D02*
X63356666Y-126395295D01*
X63356666Y-126395295D02*
X63356666Y-126538152D01*
X63356666Y-126538152D02*
X63404285Y-126633390D01*
X63404285Y-126633390D02*
X63451904Y-126681009D01*
X63451904Y-126681009D02*
X63547142Y-126728628D01*
X63547142Y-126728628D02*
X63928094Y-126728628D01*
X62499523Y-126538152D02*
X62499523Y-127204819D01*
X62737618Y-126157200D02*
X62975713Y-126871485D01*
X62975713Y-126871485D02*
X62356666Y-126871485D01*
X69392857Y-97844819D02*
X69726190Y-97368628D01*
X69964285Y-97844819D02*
X69964285Y-96844819D01*
X69964285Y-96844819D02*
X69583333Y-96844819D01*
X69583333Y-96844819D02*
X69488095Y-96892438D01*
X69488095Y-96892438D02*
X69440476Y-96940057D01*
X69440476Y-96940057D02*
X69392857Y-97035295D01*
X69392857Y-97035295D02*
X69392857Y-97178152D01*
X69392857Y-97178152D02*
X69440476Y-97273390D01*
X69440476Y-97273390D02*
X69488095Y-97321009D01*
X69488095Y-97321009D02*
X69583333Y-97368628D01*
X69583333Y-97368628D02*
X69964285Y-97368628D01*
X68440476Y-97844819D02*
X69011904Y-97844819D01*
X68726190Y-97844819D02*
X68726190Y-96844819D01*
X68726190Y-96844819D02*
X68821428Y-96987676D01*
X68821428Y-96987676D02*
X68916666Y-97082914D01*
X68916666Y-97082914D02*
X69011904Y-97130533D01*
X67869047Y-97273390D02*
X67964285Y-97225771D01*
X67964285Y-97225771D02*
X68011904Y-97178152D01*
X68011904Y-97178152D02*
X68059523Y-97082914D01*
X68059523Y-97082914D02*
X68059523Y-97035295D01*
X68059523Y-97035295D02*
X68011904Y-96940057D01*
X68011904Y-96940057D02*
X67964285Y-96892438D01*
X67964285Y-96892438D02*
X67869047Y-96844819D01*
X67869047Y-96844819D02*
X67678571Y-96844819D01*
X67678571Y-96844819D02*
X67583333Y-96892438D01*
X67583333Y-96892438D02*
X67535714Y-96940057D01*
X67535714Y-96940057D02*
X67488095Y-97035295D01*
X67488095Y-97035295D02*
X67488095Y-97082914D01*
X67488095Y-97082914D02*
X67535714Y-97178152D01*
X67535714Y-97178152D02*
X67583333Y-97225771D01*
X67583333Y-97225771D02*
X67678571Y-97273390D01*
X67678571Y-97273390D02*
X67869047Y-97273390D01*
X67869047Y-97273390D02*
X67964285Y-97321009D01*
X67964285Y-97321009D02*
X68011904Y-97368628D01*
X68011904Y-97368628D02*
X68059523Y-97463866D01*
X68059523Y-97463866D02*
X68059523Y-97654342D01*
X68059523Y-97654342D02*
X68011904Y-97749580D01*
X68011904Y-97749580D02*
X67964285Y-97797200D01*
X67964285Y-97797200D02*
X67869047Y-97844819D01*
X67869047Y-97844819D02*
X67678571Y-97844819D01*
X67678571Y-97844819D02*
X67583333Y-97797200D01*
X67583333Y-97797200D02*
X67535714Y-97749580D01*
X67535714Y-97749580D02*
X67488095Y-97654342D01*
X67488095Y-97654342D02*
X67488095Y-97463866D01*
X67488095Y-97463866D02*
X67535714Y-97368628D01*
X67535714Y-97368628D02*
X67583333Y-97321009D01*
X67583333Y-97321009D02*
X67678571Y-97273390D01*
X114892857Y-68204819D02*
X115226190Y-67728628D01*
X115464285Y-68204819D02*
X115464285Y-67204819D01*
X115464285Y-67204819D02*
X115083333Y-67204819D01*
X115083333Y-67204819D02*
X114988095Y-67252438D01*
X114988095Y-67252438D02*
X114940476Y-67300057D01*
X114940476Y-67300057D02*
X114892857Y-67395295D01*
X114892857Y-67395295D02*
X114892857Y-67538152D01*
X114892857Y-67538152D02*
X114940476Y-67633390D01*
X114940476Y-67633390D02*
X114988095Y-67681009D01*
X114988095Y-67681009D02*
X115083333Y-67728628D01*
X115083333Y-67728628D02*
X115464285Y-67728628D01*
X113940476Y-68204819D02*
X114511904Y-68204819D01*
X114226190Y-68204819D02*
X114226190Y-67204819D01*
X114226190Y-67204819D02*
X114321428Y-67347676D01*
X114321428Y-67347676D02*
X114416666Y-67442914D01*
X114416666Y-67442914D02*
X114511904Y-67490533D01*
X113607142Y-67204819D02*
X112988095Y-67204819D01*
X112988095Y-67204819D02*
X113321428Y-67585771D01*
X113321428Y-67585771D02*
X113178571Y-67585771D01*
X113178571Y-67585771D02*
X113083333Y-67633390D01*
X113083333Y-67633390D02*
X113035714Y-67681009D01*
X113035714Y-67681009D02*
X112988095Y-67776247D01*
X112988095Y-67776247D02*
X112988095Y-68014342D01*
X112988095Y-68014342D02*
X113035714Y-68109580D01*
X113035714Y-68109580D02*
X113083333Y-68157200D01*
X113083333Y-68157200D02*
X113178571Y-68204819D01*
X113178571Y-68204819D02*
X113464285Y-68204819D01*
X113464285Y-68204819D02*
X113559523Y-68157200D01*
X113559523Y-68157200D02*
X113607142Y-68109580D01*
X73279819Y-90213095D02*
X74089342Y-90213095D01*
X74089342Y-90213095D02*
X74184580Y-90260714D01*
X74184580Y-90260714D02*
X74232200Y-90308333D01*
X74232200Y-90308333D02*
X74279819Y-90403571D01*
X74279819Y-90403571D02*
X74279819Y-90594047D01*
X74279819Y-90594047D02*
X74232200Y-90689285D01*
X74232200Y-90689285D02*
X74184580Y-90736904D01*
X74184580Y-90736904D02*
X74089342Y-90784523D01*
X74089342Y-90784523D02*
X73279819Y-90784523D01*
X74279819Y-91784523D02*
X74279819Y-91213095D01*
X74279819Y-91498809D02*
X73279819Y-91498809D01*
X73279819Y-91498809D02*
X73422676Y-91403571D01*
X73422676Y-91403571D02*
X73517914Y-91308333D01*
X73517914Y-91308333D02*
X73565533Y-91213095D01*
X108109580Y-61357142D02*
X108157200Y-61309523D01*
X108157200Y-61309523D02*
X108204819Y-61166666D01*
X108204819Y-61166666D02*
X108204819Y-61071428D01*
X108204819Y-61071428D02*
X108157200Y-60928571D01*
X108157200Y-60928571D02*
X108061961Y-60833333D01*
X108061961Y-60833333D02*
X107966723Y-60785714D01*
X107966723Y-60785714D02*
X107776247Y-60738095D01*
X107776247Y-60738095D02*
X107633390Y-60738095D01*
X107633390Y-60738095D02*
X107442914Y-60785714D01*
X107442914Y-60785714D02*
X107347676Y-60833333D01*
X107347676Y-60833333D02*
X107252438Y-60928571D01*
X107252438Y-60928571D02*
X107204819Y-61071428D01*
X107204819Y-61071428D02*
X107204819Y-61166666D01*
X107204819Y-61166666D02*
X107252438Y-61309523D01*
X107252438Y-61309523D02*
X107300057Y-61357142D01*
X108204819Y-62309523D02*
X108204819Y-61738095D01*
X108204819Y-62023809D02*
X107204819Y-62023809D01*
X107204819Y-62023809D02*
X107347676Y-61928571D01*
X107347676Y-61928571D02*
X107442914Y-61833333D01*
X107442914Y-61833333D02*
X107490533Y-61738095D01*
X107204819Y-63214285D02*
X107204819Y-62738095D01*
X107204819Y-62738095D02*
X107681009Y-62690476D01*
X107681009Y-62690476D02*
X107633390Y-62738095D01*
X107633390Y-62738095D02*
X107585771Y-62833333D01*
X107585771Y-62833333D02*
X107585771Y-63071428D01*
X107585771Y-63071428D02*
X107633390Y-63166666D01*
X107633390Y-63166666D02*
X107681009Y-63214285D01*
X107681009Y-63214285D02*
X107776247Y-63261904D01*
X107776247Y-63261904D02*
X108014342Y-63261904D01*
X108014342Y-63261904D02*
X108109580Y-63214285D01*
X108109580Y-63214285D02*
X108157200Y-63166666D01*
X108157200Y-63166666D02*
X108204819Y-63071428D01*
X108204819Y-63071428D02*
X108204819Y-62833333D01*
X108204819Y-62833333D02*
X108157200Y-62738095D01*
X108157200Y-62738095D02*
X108109580Y-62690476D01*
X136929580Y-96993333D02*
X136977200Y-96945714D01*
X136977200Y-96945714D02*
X137024819Y-96802857D01*
X137024819Y-96802857D02*
X137024819Y-96707619D01*
X137024819Y-96707619D02*
X136977200Y-96564762D01*
X136977200Y-96564762D02*
X136881961Y-96469524D01*
X136881961Y-96469524D02*
X136786723Y-96421905D01*
X136786723Y-96421905D02*
X136596247Y-96374286D01*
X136596247Y-96374286D02*
X136453390Y-96374286D01*
X136453390Y-96374286D02*
X136262914Y-96421905D01*
X136262914Y-96421905D02*
X136167676Y-96469524D01*
X136167676Y-96469524D02*
X136072438Y-96564762D01*
X136072438Y-96564762D02*
X136024819Y-96707619D01*
X136024819Y-96707619D02*
X136024819Y-96802857D01*
X136024819Y-96802857D02*
X136072438Y-96945714D01*
X136072438Y-96945714D02*
X136120057Y-96993333D01*
X136024819Y-97898095D02*
X136024819Y-97421905D01*
X136024819Y-97421905D02*
X136501009Y-97374286D01*
X136501009Y-97374286D02*
X136453390Y-97421905D01*
X136453390Y-97421905D02*
X136405771Y-97517143D01*
X136405771Y-97517143D02*
X136405771Y-97755238D01*
X136405771Y-97755238D02*
X136453390Y-97850476D01*
X136453390Y-97850476D02*
X136501009Y-97898095D01*
X136501009Y-97898095D02*
X136596247Y-97945714D01*
X136596247Y-97945714D02*
X136834342Y-97945714D01*
X136834342Y-97945714D02*
X136929580Y-97898095D01*
X136929580Y-97898095D02*
X136977200Y-97850476D01*
X136977200Y-97850476D02*
X137024819Y-97755238D01*
X137024819Y-97755238D02*
X137024819Y-97517143D01*
X137024819Y-97517143D02*
X136977200Y-97421905D01*
X136977200Y-97421905D02*
X136929580Y-97374286D01*
X137609580Y-55107142D02*
X137657200Y-55059523D01*
X137657200Y-55059523D02*
X137704819Y-54916666D01*
X137704819Y-54916666D02*
X137704819Y-54821428D01*
X137704819Y-54821428D02*
X137657200Y-54678571D01*
X137657200Y-54678571D02*
X137561961Y-54583333D01*
X137561961Y-54583333D02*
X137466723Y-54535714D01*
X137466723Y-54535714D02*
X137276247Y-54488095D01*
X137276247Y-54488095D02*
X137133390Y-54488095D01*
X137133390Y-54488095D02*
X136942914Y-54535714D01*
X136942914Y-54535714D02*
X136847676Y-54583333D01*
X136847676Y-54583333D02*
X136752438Y-54678571D01*
X136752438Y-54678571D02*
X136704819Y-54821428D01*
X136704819Y-54821428D02*
X136704819Y-54916666D01*
X136704819Y-54916666D02*
X136752438Y-55059523D01*
X136752438Y-55059523D02*
X136800057Y-55107142D01*
X137704819Y-56059523D02*
X137704819Y-55488095D01*
X137704819Y-55773809D02*
X136704819Y-55773809D01*
X136704819Y-55773809D02*
X136847676Y-55678571D01*
X136847676Y-55678571D02*
X136942914Y-55583333D01*
X136942914Y-55583333D02*
X136990533Y-55488095D01*
X137133390Y-56630952D02*
X137085771Y-56535714D01*
X137085771Y-56535714D02*
X137038152Y-56488095D01*
X137038152Y-56488095D02*
X136942914Y-56440476D01*
X136942914Y-56440476D02*
X136895295Y-56440476D01*
X136895295Y-56440476D02*
X136800057Y-56488095D01*
X136800057Y-56488095D02*
X136752438Y-56535714D01*
X136752438Y-56535714D02*
X136704819Y-56630952D01*
X136704819Y-56630952D02*
X136704819Y-56821428D01*
X136704819Y-56821428D02*
X136752438Y-56916666D01*
X136752438Y-56916666D02*
X136800057Y-56964285D01*
X136800057Y-56964285D02*
X136895295Y-57011904D01*
X136895295Y-57011904D02*
X136942914Y-57011904D01*
X136942914Y-57011904D02*
X137038152Y-56964285D01*
X137038152Y-56964285D02*
X137085771Y-56916666D01*
X137085771Y-56916666D02*
X137133390Y-56821428D01*
X137133390Y-56821428D02*
X137133390Y-56630952D01*
X137133390Y-56630952D02*
X137181009Y-56535714D01*
X137181009Y-56535714D02*
X137228628Y-56488095D01*
X137228628Y-56488095D02*
X137323866Y-56440476D01*
X137323866Y-56440476D02*
X137514342Y-56440476D01*
X137514342Y-56440476D02*
X137609580Y-56488095D01*
X137609580Y-56488095D02*
X137657200Y-56535714D01*
X137657200Y-56535714D02*
X137704819Y-56630952D01*
X137704819Y-56630952D02*
X137704819Y-56821428D01*
X137704819Y-56821428D02*
X137657200Y-56916666D01*
X137657200Y-56916666D02*
X137609580Y-56964285D01*
X137609580Y-56964285D02*
X137514342Y-57011904D01*
X137514342Y-57011904D02*
X137323866Y-57011904D01*
X137323866Y-57011904D02*
X137228628Y-56964285D01*
X137228628Y-56964285D02*
X137181009Y-56916666D01*
X137181009Y-56916666D02*
X137133390Y-56821428D01*
X67204819Y-51333333D02*
X66728628Y-51000000D01*
X67204819Y-50761905D02*
X66204819Y-50761905D01*
X66204819Y-50761905D02*
X66204819Y-51142857D01*
X66204819Y-51142857D02*
X66252438Y-51238095D01*
X66252438Y-51238095D02*
X66300057Y-51285714D01*
X66300057Y-51285714D02*
X66395295Y-51333333D01*
X66395295Y-51333333D02*
X66538152Y-51333333D01*
X66538152Y-51333333D02*
X66633390Y-51285714D01*
X66633390Y-51285714D02*
X66681009Y-51238095D01*
X66681009Y-51238095D02*
X66728628Y-51142857D01*
X66728628Y-51142857D02*
X66728628Y-50761905D01*
X66300057Y-51714286D02*
X66252438Y-51761905D01*
X66252438Y-51761905D02*
X66204819Y-51857143D01*
X66204819Y-51857143D02*
X66204819Y-52095238D01*
X66204819Y-52095238D02*
X66252438Y-52190476D01*
X66252438Y-52190476D02*
X66300057Y-52238095D01*
X66300057Y-52238095D02*
X66395295Y-52285714D01*
X66395295Y-52285714D02*
X66490533Y-52285714D01*
X66490533Y-52285714D02*
X66633390Y-52238095D01*
X66633390Y-52238095D02*
X67204819Y-51666667D01*
X67204819Y-51666667D02*
X67204819Y-52285714D01*
X86666666Y-127204819D02*
X86999999Y-126728628D01*
X87238094Y-127204819D02*
X87238094Y-126204819D01*
X87238094Y-126204819D02*
X86857142Y-126204819D01*
X86857142Y-126204819D02*
X86761904Y-126252438D01*
X86761904Y-126252438D02*
X86714285Y-126300057D01*
X86714285Y-126300057D02*
X86666666Y-126395295D01*
X86666666Y-126395295D02*
X86666666Y-126538152D01*
X86666666Y-126538152D02*
X86714285Y-126633390D01*
X86714285Y-126633390D02*
X86761904Y-126681009D01*
X86761904Y-126681009D02*
X86857142Y-126728628D01*
X86857142Y-126728628D02*
X87238094Y-126728628D01*
X85761904Y-126204819D02*
X86238094Y-126204819D01*
X86238094Y-126204819D02*
X86285713Y-126681009D01*
X86285713Y-126681009D02*
X86238094Y-126633390D01*
X86238094Y-126633390D02*
X86142856Y-126585771D01*
X86142856Y-126585771D02*
X85904761Y-126585771D01*
X85904761Y-126585771D02*
X85809523Y-126633390D01*
X85809523Y-126633390D02*
X85761904Y-126681009D01*
X85761904Y-126681009D02*
X85714285Y-126776247D01*
X85714285Y-126776247D02*
X85714285Y-127014342D01*
X85714285Y-127014342D02*
X85761904Y-127109580D01*
X85761904Y-127109580D02*
X85809523Y-127157200D01*
X85809523Y-127157200D02*
X85904761Y-127204819D01*
X85904761Y-127204819D02*
X86142856Y-127204819D01*
X86142856Y-127204819D02*
X86238094Y-127157200D01*
X86238094Y-127157200D02*
X86285713Y-127109580D01*
X132454819Y-51667142D02*
X131978628Y-51333809D01*
X132454819Y-51095714D02*
X131454819Y-51095714D01*
X131454819Y-51095714D02*
X131454819Y-51476666D01*
X131454819Y-51476666D02*
X131502438Y-51571904D01*
X131502438Y-51571904D02*
X131550057Y-51619523D01*
X131550057Y-51619523D02*
X131645295Y-51667142D01*
X131645295Y-51667142D02*
X131788152Y-51667142D01*
X131788152Y-51667142D02*
X131883390Y-51619523D01*
X131883390Y-51619523D02*
X131931009Y-51571904D01*
X131931009Y-51571904D02*
X131978628Y-51476666D01*
X131978628Y-51476666D02*
X131978628Y-51095714D01*
X132454819Y-52619523D02*
X132454819Y-52048095D01*
X132454819Y-52333809D02*
X131454819Y-52333809D01*
X131454819Y-52333809D02*
X131597676Y-52238571D01*
X131597676Y-52238571D02*
X131692914Y-52143333D01*
X131692914Y-52143333D02*
X131740533Y-52048095D01*
X131788152Y-53476666D02*
X132454819Y-53476666D01*
X131407200Y-53238571D02*
X132121485Y-53000476D01*
X132121485Y-53000476D02*
X132121485Y-53619523D01*
X53796666Y-127209580D02*
X53844285Y-127257200D01*
X53844285Y-127257200D02*
X53987142Y-127304819D01*
X53987142Y-127304819D02*
X54082380Y-127304819D01*
X54082380Y-127304819D02*
X54225237Y-127257200D01*
X54225237Y-127257200D02*
X54320475Y-127161961D01*
X54320475Y-127161961D02*
X54368094Y-127066723D01*
X54368094Y-127066723D02*
X54415713Y-126876247D01*
X54415713Y-126876247D02*
X54415713Y-126733390D01*
X54415713Y-126733390D02*
X54368094Y-126542914D01*
X54368094Y-126542914D02*
X54320475Y-126447676D01*
X54320475Y-126447676D02*
X54225237Y-126352438D01*
X54225237Y-126352438D02*
X54082380Y-126304819D01*
X54082380Y-126304819D02*
X53987142Y-126304819D01*
X53987142Y-126304819D02*
X53844285Y-126352438D01*
X53844285Y-126352438D02*
X53796666Y-126400057D01*
X53225237Y-126733390D02*
X53320475Y-126685771D01*
X53320475Y-126685771D02*
X53368094Y-126638152D01*
X53368094Y-126638152D02*
X53415713Y-126542914D01*
X53415713Y-126542914D02*
X53415713Y-126495295D01*
X53415713Y-126495295D02*
X53368094Y-126400057D01*
X53368094Y-126400057D02*
X53320475Y-126352438D01*
X53320475Y-126352438D02*
X53225237Y-126304819D01*
X53225237Y-126304819D02*
X53034761Y-126304819D01*
X53034761Y-126304819D02*
X52939523Y-126352438D01*
X52939523Y-126352438D02*
X52891904Y-126400057D01*
X52891904Y-126400057D02*
X52844285Y-126495295D01*
X52844285Y-126495295D02*
X52844285Y-126542914D01*
X52844285Y-126542914D02*
X52891904Y-126638152D01*
X52891904Y-126638152D02*
X52939523Y-126685771D01*
X52939523Y-126685771D02*
X53034761Y-126733390D01*
X53034761Y-126733390D02*
X53225237Y-126733390D01*
X53225237Y-126733390D02*
X53320475Y-126781009D01*
X53320475Y-126781009D02*
X53368094Y-126828628D01*
X53368094Y-126828628D02*
X53415713Y-126923866D01*
X53415713Y-126923866D02*
X53415713Y-127114342D01*
X53415713Y-127114342D02*
X53368094Y-127209580D01*
X53368094Y-127209580D02*
X53320475Y-127257200D01*
X53320475Y-127257200D02*
X53225237Y-127304819D01*
X53225237Y-127304819D02*
X53034761Y-127304819D01*
X53034761Y-127304819D02*
X52939523Y-127257200D01*
X52939523Y-127257200D02*
X52891904Y-127209580D01*
X52891904Y-127209580D02*
X52844285Y-127114342D01*
X52844285Y-127114342D02*
X52844285Y-126923866D01*
X52844285Y-126923866D02*
X52891904Y-126828628D01*
X52891904Y-126828628D02*
X52939523Y-126781009D01*
X52939523Y-126781009D02*
X53034761Y-126733390D01*
X46372857Y-80189580D02*
X46420476Y-80237200D01*
X46420476Y-80237200D02*
X46563333Y-80284819D01*
X46563333Y-80284819D02*
X46658571Y-80284819D01*
X46658571Y-80284819D02*
X46801428Y-80237200D01*
X46801428Y-80237200D02*
X46896666Y-80141961D01*
X46896666Y-80141961D02*
X46944285Y-80046723D01*
X46944285Y-80046723D02*
X46991904Y-79856247D01*
X46991904Y-79856247D02*
X46991904Y-79713390D01*
X46991904Y-79713390D02*
X46944285Y-79522914D01*
X46944285Y-79522914D02*
X46896666Y-79427676D01*
X46896666Y-79427676D02*
X46801428Y-79332438D01*
X46801428Y-79332438D02*
X46658571Y-79284819D01*
X46658571Y-79284819D02*
X46563333Y-79284819D01*
X46563333Y-79284819D02*
X46420476Y-79332438D01*
X46420476Y-79332438D02*
X46372857Y-79380057D01*
X45420476Y-80284819D02*
X45991904Y-80284819D01*
X45706190Y-80284819D02*
X45706190Y-79284819D01*
X45706190Y-79284819D02*
X45801428Y-79427676D01*
X45801428Y-79427676D02*
X45896666Y-79522914D01*
X45896666Y-79522914D02*
X45991904Y-79570533D01*
X44468095Y-80284819D02*
X45039523Y-80284819D01*
X44753809Y-80284819D02*
X44753809Y-79284819D01*
X44753809Y-79284819D02*
X44849047Y-79427676D01*
X44849047Y-79427676D02*
X44944285Y-79522914D01*
X44944285Y-79522914D02*
X45039523Y-79570533D01*
X38392857Y-98954819D02*
X38726190Y-98478628D01*
X38964285Y-98954819D02*
X38964285Y-97954819D01*
X38964285Y-97954819D02*
X38583333Y-97954819D01*
X38583333Y-97954819D02*
X38488095Y-98002438D01*
X38488095Y-98002438D02*
X38440476Y-98050057D01*
X38440476Y-98050057D02*
X38392857Y-98145295D01*
X38392857Y-98145295D02*
X38392857Y-98288152D01*
X38392857Y-98288152D02*
X38440476Y-98383390D01*
X38440476Y-98383390D02*
X38488095Y-98431009D01*
X38488095Y-98431009D02*
X38583333Y-98478628D01*
X38583333Y-98478628D02*
X38964285Y-98478628D01*
X37440476Y-98954819D02*
X38011904Y-98954819D01*
X37726190Y-98954819D02*
X37726190Y-97954819D01*
X37726190Y-97954819D02*
X37821428Y-98097676D01*
X37821428Y-98097676D02*
X37916666Y-98192914D01*
X37916666Y-98192914D02*
X38011904Y-98240533D01*
X36583333Y-97954819D02*
X36773809Y-97954819D01*
X36773809Y-97954819D02*
X36869047Y-98002438D01*
X36869047Y-98002438D02*
X36916666Y-98050057D01*
X36916666Y-98050057D02*
X37011904Y-98192914D01*
X37011904Y-98192914D02*
X37059523Y-98383390D01*
X37059523Y-98383390D02*
X37059523Y-98764342D01*
X37059523Y-98764342D02*
X37011904Y-98859580D01*
X37011904Y-98859580D02*
X36964285Y-98907200D01*
X36964285Y-98907200D02*
X36869047Y-98954819D01*
X36869047Y-98954819D02*
X36678571Y-98954819D01*
X36678571Y-98954819D02*
X36583333Y-98907200D01*
X36583333Y-98907200D02*
X36535714Y-98859580D01*
X36535714Y-98859580D02*
X36488095Y-98764342D01*
X36488095Y-98764342D02*
X36488095Y-98526247D01*
X36488095Y-98526247D02*
X36535714Y-98431009D01*
X36535714Y-98431009D02*
X36583333Y-98383390D01*
X36583333Y-98383390D02*
X36678571Y-98335771D01*
X36678571Y-98335771D02*
X36869047Y-98335771D01*
X36869047Y-98335771D02*
X36964285Y-98383390D01*
X36964285Y-98383390D02*
X37011904Y-98431009D01*
X37011904Y-98431009D02*
X37059523Y-98526247D01*
X106536905Y-122395180D02*
X106536905Y-123395180D01*
X106536905Y-123395180D02*
X106775000Y-123395180D01*
X106775000Y-123395180D02*
X106917857Y-123347561D01*
X106917857Y-123347561D02*
X107013095Y-123252323D01*
X107013095Y-123252323D02*
X107060714Y-123157085D01*
X107060714Y-123157085D02*
X107108333Y-122966609D01*
X107108333Y-122966609D02*
X107108333Y-122823752D01*
X107108333Y-122823752D02*
X107060714Y-122633276D01*
X107060714Y-122633276D02*
X107013095Y-122538038D01*
X107013095Y-122538038D02*
X106917857Y-122442800D01*
X106917857Y-122442800D02*
X106775000Y-122395180D01*
X106775000Y-122395180D02*
X106536905Y-122395180D01*
X107965476Y-123061847D02*
X107965476Y-122395180D01*
X107727381Y-123442800D02*
X107489286Y-122728514D01*
X107489286Y-122728514D02*
X108108333Y-122728514D01*
X75446666Y-127029580D02*
X75494285Y-127077200D01*
X75494285Y-127077200D02*
X75637142Y-127124819D01*
X75637142Y-127124819D02*
X75732380Y-127124819D01*
X75732380Y-127124819D02*
X75875237Y-127077200D01*
X75875237Y-127077200D02*
X75970475Y-126981961D01*
X75970475Y-126981961D02*
X76018094Y-126886723D01*
X76018094Y-126886723D02*
X76065713Y-126696247D01*
X76065713Y-126696247D02*
X76065713Y-126553390D01*
X76065713Y-126553390D02*
X76018094Y-126362914D01*
X76018094Y-126362914D02*
X75970475Y-126267676D01*
X75970475Y-126267676D02*
X75875237Y-126172438D01*
X75875237Y-126172438D02*
X75732380Y-126124819D01*
X75732380Y-126124819D02*
X75637142Y-126124819D01*
X75637142Y-126124819D02*
X75494285Y-126172438D01*
X75494285Y-126172438D02*
X75446666Y-126220057D01*
X74970475Y-127124819D02*
X74779999Y-127124819D01*
X74779999Y-127124819D02*
X74684761Y-127077200D01*
X74684761Y-127077200D02*
X74637142Y-127029580D01*
X74637142Y-127029580D02*
X74541904Y-126886723D01*
X74541904Y-126886723D02*
X74494285Y-126696247D01*
X74494285Y-126696247D02*
X74494285Y-126315295D01*
X74494285Y-126315295D02*
X74541904Y-126220057D01*
X74541904Y-126220057D02*
X74589523Y-126172438D01*
X74589523Y-126172438D02*
X74684761Y-126124819D01*
X74684761Y-126124819D02*
X74875237Y-126124819D01*
X74875237Y-126124819D02*
X74970475Y-126172438D01*
X74970475Y-126172438D02*
X75018094Y-126220057D01*
X75018094Y-126220057D02*
X75065713Y-126315295D01*
X75065713Y-126315295D02*
X75065713Y-126553390D01*
X75065713Y-126553390D02*
X75018094Y-126648628D01*
X75018094Y-126648628D02*
X74970475Y-126696247D01*
X74970475Y-126696247D02*
X74875237Y-126743866D01*
X74875237Y-126743866D02*
X74684761Y-126743866D01*
X74684761Y-126743866D02*
X74589523Y-126696247D01*
X74589523Y-126696247D02*
X74541904Y-126648628D01*
X74541904Y-126648628D02*
X74494285Y-126553390D01*
X83892857Y-60609580D02*
X83940476Y-60657200D01*
X83940476Y-60657200D02*
X84083333Y-60704819D01*
X84083333Y-60704819D02*
X84178571Y-60704819D01*
X84178571Y-60704819D02*
X84321428Y-60657200D01*
X84321428Y-60657200D02*
X84416666Y-60561961D01*
X84416666Y-60561961D02*
X84464285Y-60466723D01*
X84464285Y-60466723D02*
X84511904Y-60276247D01*
X84511904Y-60276247D02*
X84511904Y-60133390D01*
X84511904Y-60133390D02*
X84464285Y-59942914D01*
X84464285Y-59942914D02*
X84416666Y-59847676D01*
X84416666Y-59847676D02*
X84321428Y-59752438D01*
X84321428Y-59752438D02*
X84178571Y-59704819D01*
X84178571Y-59704819D02*
X84083333Y-59704819D01*
X84083333Y-59704819D02*
X83940476Y-59752438D01*
X83940476Y-59752438D02*
X83892857Y-59800057D01*
X82940476Y-60704819D02*
X83511904Y-60704819D01*
X83226190Y-60704819D02*
X83226190Y-59704819D01*
X83226190Y-59704819D02*
X83321428Y-59847676D01*
X83321428Y-59847676D02*
X83416666Y-59942914D01*
X83416666Y-59942914D02*
X83511904Y-59990533D01*
X82083333Y-60038152D02*
X82083333Y-60704819D01*
X82321428Y-59657200D02*
X82559523Y-60371485D01*
X82559523Y-60371485D02*
X81940476Y-60371485D01*
X33769580Y-50213333D02*
X33817200Y-50165714D01*
X33817200Y-50165714D02*
X33864819Y-50022857D01*
X33864819Y-50022857D02*
X33864819Y-49927619D01*
X33864819Y-49927619D02*
X33817200Y-49784762D01*
X33817200Y-49784762D02*
X33721961Y-49689524D01*
X33721961Y-49689524D02*
X33626723Y-49641905D01*
X33626723Y-49641905D02*
X33436247Y-49594286D01*
X33436247Y-49594286D02*
X33293390Y-49594286D01*
X33293390Y-49594286D02*
X33102914Y-49641905D01*
X33102914Y-49641905D02*
X33007676Y-49689524D01*
X33007676Y-49689524D02*
X32912438Y-49784762D01*
X32912438Y-49784762D02*
X32864819Y-49927619D01*
X32864819Y-49927619D02*
X32864819Y-50022857D01*
X32864819Y-50022857D02*
X32912438Y-50165714D01*
X32912438Y-50165714D02*
X32960057Y-50213333D01*
X32864819Y-50546667D02*
X32864819Y-51165714D01*
X32864819Y-51165714D02*
X33245771Y-50832381D01*
X33245771Y-50832381D02*
X33245771Y-50975238D01*
X33245771Y-50975238D02*
X33293390Y-51070476D01*
X33293390Y-51070476D02*
X33341009Y-51118095D01*
X33341009Y-51118095D02*
X33436247Y-51165714D01*
X33436247Y-51165714D02*
X33674342Y-51165714D01*
X33674342Y-51165714D02*
X33769580Y-51118095D01*
X33769580Y-51118095D02*
X33817200Y-51070476D01*
X33817200Y-51070476D02*
X33864819Y-50975238D01*
X33864819Y-50975238D02*
X33864819Y-50689524D01*
X33864819Y-50689524D02*
X33817200Y-50594286D01*
X33817200Y-50594286D02*
X33769580Y-50546667D01*
X87436666Y-48279580D02*
X87484285Y-48327200D01*
X87484285Y-48327200D02*
X87627142Y-48374819D01*
X87627142Y-48374819D02*
X87722380Y-48374819D01*
X87722380Y-48374819D02*
X87865237Y-48327200D01*
X87865237Y-48327200D02*
X87960475Y-48231961D01*
X87960475Y-48231961D02*
X88008094Y-48136723D01*
X88008094Y-48136723D02*
X88055713Y-47946247D01*
X88055713Y-47946247D02*
X88055713Y-47803390D01*
X88055713Y-47803390D02*
X88008094Y-47612914D01*
X88008094Y-47612914D02*
X87960475Y-47517676D01*
X87960475Y-47517676D02*
X87865237Y-47422438D01*
X87865237Y-47422438D02*
X87722380Y-47374819D01*
X87722380Y-47374819D02*
X87627142Y-47374819D01*
X87627142Y-47374819D02*
X87484285Y-47422438D01*
X87484285Y-47422438D02*
X87436666Y-47470057D01*
X87055713Y-47470057D02*
X87008094Y-47422438D01*
X87008094Y-47422438D02*
X86912856Y-47374819D01*
X86912856Y-47374819D02*
X86674761Y-47374819D01*
X86674761Y-47374819D02*
X86579523Y-47422438D01*
X86579523Y-47422438D02*
X86531904Y-47470057D01*
X86531904Y-47470057D02*
X86484285Y-47565295D01*
X86484285Y-47565295D02*
X86484285Y-47660533D01*
X86484285Y-47660533D02*
X86531904Y-47803390D01*
X86531904Y-47803390D02*
X87103332Y-48374819D01*
X87103332Y-48374819D02*
X86484285Y-48374819D01*
%TO.C,D6*%
D12*
X127850000Y-119200000D02*
X127850000Y-122225000D01*
X127850000Y-119200000D02*
X128575000Y-118475000D01*
X127850000Y-122225000D02*
X135150000Y-122225000D01*
X135150000Y-118475000D02*
X128575000Y-118475000D01*
X135150000Y-122225000D02*
X135150000Y-118475000D01*
X128775000Y-118900000D02*
X128925000Y-118700000D01*
X128625000Y-118700000D01*
X128775000Y-118900000D01*
G36*
X128775000Y-118900000D02*
G01*
X128625000Y-118700000D01*
X128925000Y-118700000D01*
X128775000Y-118900000D01*
G37*
%TO.C,R1*%
X112730000Y-57880000D02*
X119270000Y-57880000D01*
X112730000Y-58210000D02*
X112730000Y-57880000D01*
X112730000Y-60290000D02*
X112730000Y-60620000D01*
X112730000Y-60620000D02*
X119270000Y-60620000D01*
X119270000Y-57880000D02*
X119270000Y-58210000D01*
X119270000Y-60620000D02*
X119270000Y-60290000D01*
%TO.C,C12*%
X119880000Y-124630000D02*
X119880000Y-124967000D01*
X119880000Y-127033000D02*
X119880000Y-127370000D01*
X119880000Y-127370000D02*
X125120000Y-127370000D01*
X125120000Y-124630000D02*
X119880000Y-124630000D01*
X125120000Y-124967000D02*
X125120000Y-124630000D01*
X125120000Y-127370000D02*
X125120000Y-127033000D01*
%TO.C,C7*%
X23410000Y-125280000D02*
X23410000Y-125617000D01*
X23410000Y-127683000D02*
X23410000Y-128020000D01*
X23410000Y-128020000D02*
X28650000Y-128020000D01*
X28650000Y-125280000D02*
X23410000Y-125280000D01*
X28650000Y-125617000D02*
X28650000Y-125280000D01*
X28650000Y-128020000D02*
X28650000Y-127683000D01*
%TO.C,R9*%
X78730000Y-72630000D02*
X85270000Y-72630000D01*
X78730000Y-72960000D02*
X78730000Y-72630000D01*
X78730000Y-75040000D02*
X78730000Y-75370000D01*
X78730000Y-75370000D02*
X85270000Y-75370000D01*
X85270000Y-72630000D02*
X85270000Y-72960000D01*
X85270000Y-75370000D02*
X85270000Y-75040000D01*
%TO.C,D5*%
X47100000Y-72125000D02*
X47100000Y-75875000D01*
X47100000Y-75875000D02*
X53675000Y-75875000D01*
X54400000Y-72125000D02*
X47100000Y-72125000D01*
X54400000Y-75150000D02*
X53675000Y-75875000D01*
X54400000Y-75150000D02*
X54400000Y-72125000D01*
X53475000Y-75450000D02*
X53325000Y-75650000D01*
X53625000Y-75650000D01*
X53475000Y-75450000D01*
G36*
X53625000Y-75650000D02*
G01*
X53325000Y-75650000D01*
X53475000Y-75450000D01*
X53625000Y-75650000D01*
G37*
%TO.C,C13*%
X80630000Y-68630000D02*
X80630000Y-68967000D01*
X80630000Y-71033000D02*
X80630000Y-71370000D01*
X80630000Y-71370000D02*
X85870000Y-71370000D01*
X85870000Y-68630000D02*
X80630000Y-68630000D01*
X85870000Y-68967000D02*
X85870000Y-68630000D01*
X85870000Y-71370000D02*
X85870000Y-71033000D01*
%TO.C,R10*%
X78730000Y-64130000D02*
X85270000Y-64130000D01*
X78730000Y-64460000D02*
X78730000Y-64130000D01*
X78730000Y-66540000D02*
X78730000Y-66870000D01*
X78730000Y-66870000D02*
X85270000Y-66870000D01*
X85270000Y-64130000D02*
X85270000Y-64460000D01*
X85270000Y-66870000D02*
X85270000Y-66540000D01*
%TO.C,R3*%
X38230000Y-125380000D02*
X44770000Y-125380000D01*
X38230000Y-125710000D02*
X38230000Y-125380000D01*
X38230000Y-127790000D02*
X38230000Y-128120000D01*
X38230000Y-128120000D02*
X44770000Y-128120000D01*
X44770000Y-125380000D02*
X44770000Y-125710000D01*
X44770000Y-128120000D02*
X44770000Y-127790000D01*
%TO.C,D1*%
X28850000Y-119350000D02*
X28850000Y-122375000D01*
X28850000Y-119350000D02*
X29575000Y-118625000D01*
X28850000Y-122375000D02*
X36150000Y-122375000D01*
X36150000Y-118625000D02*
X29575000Y-118625000D01*
X36150000Y-122375000D02*
X36150000Y-118625000D01*
X29775000Y-119050000D02*
X29925000Y-118850000D01*
X29625000Y-118850000D01*
X29775000Y-119050000D01*
G36*
X29775000Y-119050000D02*
G01*
X29625000Y-118850000D01*
X29925000Y-118850000D01*
X29775000Y-119050000D01*
G37*
%TO.C,C17*%
X112130000Y-62630000D02*
X112130000Y-62967000D01*
X112130000Y-65033000D02*
X112130000Y-65370000D01*
X112130000Y-65370000D02*
X117370000Y-65370000D01*
X117370000Y-62630000D02*
X112130000Y-62630000D01*
X117370000Y-62967000D02*
X117370000Y-62630000D01*
X117370000Y-65370000D02*
X117370000Y-65033000D01*
%TO.C,D3*%
X78350000Y-119250000D02*
X78350000Y-122275000D01*
X78350000Y-119250000D02*
X79075000Y-118525000D01*
X78350000Y-122275000D02*
X85650000Y-122275000D01*
X85650000Y-118525000D02*
X79075000Y-118525000D01*
X85650000Y-122275000D02*
X85650000Y-118525000D01*
X79275000Y-118950000D02*
X79425000Y-118750000D01*
X79125000Y-118750000D01*
X79275000Y-118950000D01*
G36*
X79275000Y-118950000D02*
G01*
X79125000Y-118750000D01*
X79425000Y-118750000D01*
X79275000Y-118950000D01*
G37*
%TO.C,R8*%
X55230000Y-78630000D02*
X55230000Y-78960000D01*
X55230000Y-81370000D02*
X55230000Y-81040000D01*
X61770000Y-78630000D02*
X55230000Y-78630000D01*
X61770000Y-78960000D02*
X61770000Y-78630000D01*
X61770000Y-81040000D02*
X61770000Y-81370000D01*
X61770000Y-81370000D02*
X55230000Y-81370000D01*
%TO.C,R12*%
X111480000Y-74380000D02*
X118020000Y-74380000D01*
X111480000Y-74710000D02*
X111480000Y-74380000D01*
X111480000Y-76790000D02*
X111480000Y-77120000D01*
X111480000Y-77120000D02*
X118020000Y-77120000D01*
X118020000Y-74380000D02*
X118020000Y-74710000D01*
X118020000Y-77120000D02*
X118020000Y-76790000D01*
%TO.C,R11*%
X79670000Y-53880000D02*
X86210000Y-53880000D01*
X79670000Y-54210000D02*
X79670000Y-53880000D01*
X79670000Y-56290000D02*
X79670000Y-56620000D01*
X79670000Y-56620000D02*
X86210000Y-56620000D01*
X86210000Y-53880000D02*
X86210000Y-54210000D01*
X86210000Y-56620000D02*
X86210000Y-56290000D01*
%TO.C,R17*%
X27150000Y-82900000D02*
X33690000Y-82900000D01*
X27150000Y-83230000D02*
X27150000Y-82900000D01*
X27150000Y-85310000D02*
X27150000Y-85640000D01*
X27150000Y-85640000D02*
X33690000Y-85640000D01*
X33690000Y-82900000D02*
X33690000Y-83230000D01*
X33690000Y-85640000D02*
X33690000Y-85310000D01*
%TO.C,C10*%
X98330000Y-124660000D02*
X98330000Y-124997000D01*
X98330000Y-127063000D02*
X98330000Y-127400000D01*
X98330000Y-127400000D02*
X103570000Y-127400000D01*
X103570000Y-124660000D02*
X98330000Y-124660000D01*
X103570000Y-124997000D02*
X103570000Y-124660000D01*
X103570000Y-127400000D02*
X103570000Y-127063000D01*
%TO.C,C4*%
X26130000Y-55490000D02*
X26130000Y-55827000D01*
X26130000Y-57893000D02*
X26130000Y-58230000D01*
X26130000Y-58230000D02*
X31370000Y-58230000D01*
X31370000Y-55490000D02*
X26130000Y-55490000D01*
X31370000Y-55827000D02*
X31370000Y-55490000D01*
X31370000Y-58230000D02*
X31370000Y-57893000D01*
%TO.C,D2*%
X53350000Y-119250000D02*
X53350000Y-122275000D01*
X53350000Y-119250000D02*
X54075000Y-118525000D01*
X53350000Y-122275000D02*
X60650000Y-122275000D01*
X60650000Y-118525000D02*
X54075000Y-118525000D01*
X60650000Y-122275000D02*
X60650000Y-118525000D01*
X54275000Y-118950000D02*
X54425000Y-118750000D01*
X54125000Y-118750000D01*
X54275000Y-118950000D01*
G36*
X54275000Y-118950000D02*
G01*
X54125000Y-118750000D01*
X54425000Y-118750000D01*
X54275000Y-118950000D01*
G37*
%TO.C,C1*%
X91705225Y-50155000D02*
X92205225Y-50155000D01*
X91955225Y-50405000D02*
X91955225Y-49905000D01*
X94510000Y-51260000D02*
X94510000Y-46100000D01*
X94550000Y-51260000D02*
X94550000Y-46100000D01*
X94590000Y-51259000D02*
X94590000Y-46101000D01*
X94630000Y-51257000D02*
X94630000Y-46103000D01*
X94670000Y-51255000D02*
X94670000Y-46105000D01*
X94710000Y-51252000D02*
X94710000Y-46108000D01*
X94750000Y-47640000D02*
X94750000Y-46111000D01*
X94750000Y-51249000D02*
X94750000Y-49720000D01*
X94790000Y-47640000D02*
X94790000Y-46115000D01*
X94790000Y-51245000D02*
X94790000Y-49720000D01*
X94830000Y-47640000D02*
X94830000Y-46120000D01*
X94830000Y-51240000D02*
X94830000Y-49720000D01*
X94870000Y-47640000D02*
X94870000Y-46125000D01*
X94870000Y-51235000D02*
X94870000Y-49720000D01*
X94910000Y-47640000D02*
X94910000Y-46131000D01*
X94910000Y-51229000D02*
X94910000Y-49720000D01*
X94950000Y-47640000D02*
X94950000Y-46137000D01*
X94950000Y-51223000D02*
X94950000Y-49720000D01*
X94990000Y-47640000D02*
X94990000Y-46144000D01*
X94990000Y-51216000D02*
X94990000Y-49720000D01*
X95030000Y-47640000D02*
X95030000Y-46152000D01*
X95030000Y-51208000D02*
X95030000Y-49720000D01*
X95070000Y-47640000D02*
X95070000Y-46161000D01*
X95070000Y-51199000D02*
X95070000Y-49720000D01*
X95110000Y-47640000D02*
X95110000Y-46170000D01*
X95110000Y-51190000D02*
X95110000Y-49720000D01*
X95150000Y-47640000D02*
X95150000Y-46179000D01*
X95150000Y-51181000D02*
X95150000Y-49720000D01*
X95190000Y-47640000D02*
X95190000Y-46190000D01*
X95190000Y-51170000D02*
X95190000Y-49720000D01*
X95230000Y-47640000D02*
X95230000Y-46201000D01*
X95230000Y-51159000D02*
X95230000Y-49720000D01*
X95270000Y-47640000D02*
X95270000Y-46213000D01*
X95270000Y-51147000D02*
X95270000Y-49720000D01*
X95310000Y-47640000D02*
X95310000Y-46225000D01*
X95310000Y-51135000D02*
X95310000Y-49720000D01*
X95350000Y-47640000D02*
X95350000Y-46238000D01*
X95350000Y-51122000D02*
X95350000Y-49720000D01*
X95390000Y-47640000D02*
X95390000Y-46252000D01*
X95390000Y-51108000D02*
X95390000Y-49720000D01*
X95430000Y-47640000D02*
X95430000Y-46267000D01*
X95430000Y-51093000D02*
X95430000Y-49720000D01*
X95470000Y-47640000D02*
X95470000Y-46282000D01*
X95470000Y-51078000D02*
X95470000Y-49720000D01*
X95510000Y-47640000D02*
X95510000Y-46298000D01*
X95510000Y-51062000D02*
X95510000Y-49720000D01*
X95550000Y-47640000D02*
X95550000Y-46315000D01*
X95550000Y-51045000D02*
X95550000Y-49720000D01*
X95590000Y-47640000D02*
X95590000Y-46333000D01*
X95590000Y-51027000D02*
X95590000Y-49720000D01*
X95630000Y-47640000D02*
X95630000Y-46351000D01*
X95630000Y-51009000D02*
X95630000Y-49720000D01*
X95670000Y-47640000D02*
X95670000Y-46371000D01*
X95670000Y-50989000D02*
X95670000Y-49720000D01*
X95710000Y-47640000D02*
X95710000Y-46391000D01*
X95710000Y-50969000D02*
X95710000Y-49720000D01*
X95750000Y-47640000D02*
X95750000Y-46412000D01*
X95750000Y-50948000D02*
X95750000Y-49720000D01*
X95790000Y-47640000D02*
X95790000Y-46434000D01*
X95790000Y-50926000D02*
X95790000Y-49720000D01*
X95830000Y-47640000D02*
X95830000Y-46457000D01*
X95830000Y-50903000D02*
X95830000Y-49720000D01*
X95870000Y-47640000D02*
X95870000Y-46481000D01*
X95870000Y-50879000D02*
X95870000Y-49720000D01*
X95910000Y-47640000D02*
X95910000Y-46505000D01*
X95910000Y-50855000D02*
X95910000Y-49720000D01*
X95950000Y-47640000D02*
X95950000Y-46531000D01*
X95950000Y-50829000D02*
X95950000Y-49720000D01*
X95990000Y-47640000D02*
X95990000Y-46558000D01*
X95990000Y-50802000D02*
X95990000Y-49720000D01*
X96030000Y-47640000D02*
X96030000Y-46586000D01*
X96030000Y-50774000D02*
X96030000Y-49720000D01*
X96070000Y-47640000D02*
X96070000Y-46615000D01*
X96070000Y-50745000D02*
X96070000Y-49720000D01*
X96110000Y-47640000D02*
X96110000Y-46645000D01*
X96110000Y-50715000D02*
X96110000Y-49720000D01*
X96150000Y-47640000D02*
X96150000Y-46677000D01*
X96150000Y-50683000D02*
X96150000Y-49720000D01*
X96190000Y-47640000D02*
X96190000Y-46710000D01*
X96190000Y-50650000D02*
X96190000Y-49720000D01*
X96230000Y-47640000D02*
X96230000Y-46744000D01*
X96230000Y-50616000D02*
X96230000Y-49720000D01*
X96270000Y-47640000D02*
X96270000Y-46779000D01*
X96270000Y-50581000D02*
X96270000Y-49720000D01*
X96310000Y-47640000D02*
X96310000Y-46816000D01*
X96310000Y-50544000D02*
X96310000Y-49720000D01*
X96350000Y-47640000D02*
X96350000Y-46855000D01*
X96350000Y-50505000D02*
X96350000Y-49720000D01*
X96390000Y-47640000D02*
X96390000Y-46895000D01*
X96390000Y-50465000D02*
X96390000Y-49720000D01*
X96430000Y-47640000D02*
X96430000Y-46937000D01*
X96430000Y-50423000D02*
X96430000Y-49720000D01*
X96470000Y-47640000D02*
X96470000Y-46981000D01*
X96470000Y-50379000D02*
X96470000Y-49720000D01*
X96510000Y-47640000D02*
X96510000Y-47028000D01*
X96510000Y-50332000D02*
X96510000Y-49720000D01*
X96550000Y-47640000D02*
X96550000Y-47076000D01*
X96550000Y-50284000D02*
X96550000Y-49720000D01*
X96590000Y-47640000D02*
X96590000Y-47127000D01*
X96590000Y-50233000D02*
X96590000Y-49720000D01*
X96630000Y-47640000D02*
X96630000Y-47181000D01*
X96630000Y-50179000D02*
X96630000Y-49720000D01*
X96670000Y-47640000D02*
X96670000Y-47237000D01*
X96670000Y-50123000D02*
X96670000Y-49720000D01*
X96710000Y-47640000D02*
X96710000Y-47297000D01*
X96710000Y-50063000D02*
X96710000Y-49720000D01*
X96750000Y-47640000D02*
X96750000Y-47361000D01*
X96750000Y-49999000D02*
X96750000Y-49720000D01*
X96790000Y-47640000D02*
X96790000Y-47429000D01*
X96790000Y-49931000D02*
X96790000Y-49720000D01*
X96830000Y-49857000D02*
X96830000Y-47503000D01*
X96870000Y-49778000D02*
X96870000Y-47582000D01*
X96910000Y-49691000D02*
X96910000Y-47669000D01*
X96950000Y-49594000D02*
X96950000Y-47766000D01*
X96990000Y-49485000D02*
X96990000Y-47875000D01*
X97030000Y-49357000D02*
X97030000Y-48003000D01*
X97070000Y-49197000D02*
X97070000Y-48163000D01*
X97110000Y-48963000D02*
X97110000Y-48397000D01*
X97130000Y-48680000D02*
G75*
G02*
X91890000Y-48680000I-2620000J0D01*
G01*
X91890000Y-48680000D02*
G75*
G02*
X97130000Y-48680000I2620000J0D01*
G01*
%TO.C,R15*%
X48480000Y-96630000D02*
X55020000Y-96630000D01*
X48480000Y-96960000D02*
X48480000Y-96630000D01*
X48480000Y-99040000D02*
X48480000Y-99370000D01*
X48480000Y-99370000D02*
X55020000Y-99370000D01*
X55020000Y-96630000D02*
X55020000Y-96960000D01*
X55020000Y-99370000D02*
X55020000Y-99040000D01*
%TO.C,C16*%
X112130000Y-70880000D02*
X112130000Y-71217000D01*
X112130000Y-73283000D02*
X112130000Y-73620000D01*
X112130000Y-73620000D02*
X117370000Y-73620000D01*
X117370000Y-70880000D02*
X112130000Y-70880000D01*
X117370000Y-71217000D02*
X117370000Y-70880000D01*
X117370000Y-73620000D02*
X117370000Y-73283000D01*
%TO.C,R6*%
X107170000Y-124630000D02*
X113710000Y-124630000D01*
X107170000Y-124960000D02*
X107170000Y-124630000D01*
X107170000Y-127040000D02*
X107170000Y-127370000D01*
X107170000Y-127370000D02*
X113710000Y-127370000D01*
X113710000Y-124630000D02*
X113710000Y-124960000D01*
X113710000Y-127370000D02*
X113710000Y-127040000D01*
%TO.C,C6*%
X120599759Y-108699000D02*
X121229759Y-108699000D01*
X120914759Y-109014000D02*
X120914759Y-108384000D01*
X124100000Y-110090000D02*
X124100000Y-103630000D01*
X124140000Y-110090000D02*
X124140000Y-103630000D01*
X124180000Y-110089000D02*
X124180000Y-103631000D01*
X124220000Y-110088000D02*
X124220000Y-103632000D01*
X124260000Y-110086000D02*
X124260000Y-103634000D01*
X124300000Y-110084000D02*
X124300000Y-103636000D01*
X124340000Y-105820000D02*
X124340000Y-103639000D01*
X124340000Y-110081000D02*
X124340000Y-107900000D01*
X124380000Y-105820000D02*
X124380000Y-103642000D01*
X124380000Y-110078000D02*
X124380000Y-107900000D01*
X124420000Y-105820000D02*
X124420000Y-103646000D01*
X124420000Y-110074000D02*
X124420000Y-107900000D01*
X124460000Y-105820000D02*
X124460000Y-103650000D01*
X124460000Y-110070000D02*
X124460000Y-107900000D01*
X124500000Y-105820000D02*
X124500000Y-103655000D01*
X124500000Y-110065000D02*
X124500000Y-107900000D01*
X124540000Y-105820000D02*
X124540000Y-103660000D01*
X124540000Y-110060000D02*
X124540000Y-107900000D01*
X124580000Y-105820000D02*
X124580000Y-103665000D01*
X124580000Y-110055000D02*
X124580000Y-107900000D01*
X124620000Y-105820000D02*
X124620000Y-103672000D01*
X124620000Y-110048000D02*
X124620000Y-107900000D01*
X124660000Y-105820000D02*
X124660000Y-103678000D01*
X124660000Y-110042000D02*
X124660000Y-107900000D01*
X124700000Y-105820000D02*
X124700000Y-103686000D01*
X124700000Y-110034000D02*
X124700000Y-107900000D01*
X124740000Y-105820000D02*
X124740000Y-103693000D01*
X124740000Y-110027000D02*
X124740000Y-107900000D01*
X124780000Y-105820000D02*
X124780000Y-103701000D01*
X124780000Y-110019000D02*
X124780000Y-107900000D01*
X124820000Y-105820000D02*
X124820000Y-103710000D01*
X124820000Y-110010000D02*
X124820000Y-107900000D01*
X124860000Y-105820000D02*
X124860000Y-103720000D01*
X124860000Y-110000000D02*
X124860000Y-107900000D01*
X124900000Y-105820000D02*
X124900000Y-103729000D01*
X124900000Y-109991000D02*
X124900000Y-107900000D01*
X124940000Y-105820000D02*
X124940000Y-103740000D01*
X124940000Y-109980000D02*
X124940000Y-107900000D01*
X124980000Y-105820000D02*
X124980000Y-103751000D01*
X124980000Y-109969000D02*
X124980000Y-107900000D01*
X125020000Y-105820000D02*
X125020000Y-103762000D01*
X125020000Y-109958000D02*
X125020000Y-107900000D01*
X125060000Y-105820000D02*
X125060000Y-103774000D01*
X125060000Y-109946000D02*
X125060000Y-107900000D01*
X125100000Y-105820000D02*
X125100000Y-103787000D01*
X125100000Y-109933000D02*
X125100000Y-107900000D01*
X125140000Y-105820000D02*
X125140000Y-103800000D01*
X125140000Y-109920000D02*
X125140000Y-107900000D01*
X125180000Y-105820000D02*
X125180000Y-103813000D01*
X125180000Y-109907000D02*
X125180000Y-107900000D01*
X125220000Y-105820000D02*
X125220000Y-103828000D01*
X125220000Y-109892000D02*
X125220000Y-107900000D01*
X125260000Y-105820000D02*
X125260000Y-103843000D01*
X125260000Y-109877000D02*
X125260000Y-107900000D01*
X125300000Y-105820000D02*
X125300000Y-103858000D01*
X125300000Y-109862000D02*
X125300000Y-107900000D01*
X125340000Y-105820000D02*
X125340000Y-103874000D01*
X125340000Y-109846000D02*
X125340000Y-107900000D01*
X125380000Y-105820000D02*
X125380000Y-103891000D01*
X125380000Y-109829000D02*
X125380000Y-107900000D01*
X125420000Y-105820000D02*
X125420000Y-103908000D01*
X125420000Y-109812000D02*
X125420000Y-107900000D01*
X125460000Y-105820000D02*
X125460000Y-103926000D01*
X125460000Y-109794000D02*
X125460000Y-107900000D01*
X125500000Y-105820000D02*
X125500000Y-103945000D01*
X125500000Y-109775000D02*
X125500000Y-107900000D01*
X125540000Y-105820000D02*
X125540000Y-103964000D01*
X125540000Y-109756000D02*
X125540000Y-107900000D01*
X125580000Y-105820000D02*
X125580000Y-103984000D01*
X125580000Y-109736000D02*
X125580000Y-107900000D01*
X125620000Y-105820000D02*
X125620000Y-104005000D01*
X125620000Y-109715000D02*
X125620000Y-107900000D01*
X125660000Y-105820000D02*
X125660000Y-104026000D01*
X125660000Y-109694000D02*
X125660000Y-107900000D01*
X125700000Y-105820000D02*
X125700000Y-104048000D01*
X125700000Y-109672000D02*
X125700000Y-107900000D01*
X125740000Y-105820000D02*
X125740000Y-104071000D01*
X125740000Y-109649000D02*
X125740000Y-107900000D01*
X125780000Y-105820000D02*
X125780000Y-104095000D01*
X125780000Y-109625000D02*
X125780000Y-107900000D01*
X125820000Y-105820000D02*
X125820000Y-104119000D01*
X125820000Y-109601000D02*
X125820000Y-107900000D01*
X125860000Y-105820000D02*
X125860000Y-104144000D01*
X125860000Y-109576000D02*
X125860000Y-107900000D01*
X125900000Y-105820000D02*
X125900000Y-104170000D01*
X125900000Y-109550000D02*
X125900000Y-107900000D01*
X125940000Y-105820000D02*
X125940000Y-104197000D01*
X125940000Y-109523000D02*
X125940000Y-107900000D01*
X125980000Y-105820000D02*
X125980000Y-104224000D01*
X125980000Y-109496000D02*
X125980000Y-107900000D01*
X126020000Y-105820000D02*
X126020000Y-104253000D01*
X126020000Y-109467000D02*
X126020000Y-107900000D01*
X126060000Y-105820000D02*
X126060000Y-104283000D01*
X126060000Y-109437000D02*
X126060000Y-107900000D01*
X126100000Y-105820000D02*
X126100000Y-104313000D01*
X126100000Y-109407000D02*
X126100000Y-107900000D01*
X126140000Y-105820000D02*
X126140000Y-104344000D01*
X126140000Y-109376000D02*
X126140000Y-107900000D01*
X126180000Y-105820000D02*
X126180000Y-104377000D01*
X126180000Y-109343000D02*
X126180000Y-107900000D01*
X126220000Y-105820000D02*
X126220000Y-104410000D01*
X126220000Y-109310000D02*
X126220000Y-107900000D01*
X126260000Y-105820000D02*
X126260000Y-104445000D01*
X126260000Y-109275000D02*
X126260000Y-107900000D01*
X126300000Y-105820000D02*
X126300000Y-104481000D01*
X126300000Y-109239000D02*
X126300000Y-107900000D01*
X126340000Y-105820000D02*
X126340000Y-104518000D01*
X126340000Y-109202000D02*
X126340000Y-107900000D01*
X126380000Y-105820000D02*
X126380000Y-104556000D01*
X126380000Y-109164000D02*
X126380000Y-107900000D01*
X126420000Y-109124000D02*
X126420000Y-104596000D01*
X126460000Y-109083000D02*
X126460000Y-104637000D01*
X126500000Y-109041000D02*
X126500000Y-104679000D01*
X126540000Y-108997000D02*
X126540000Y-104723000D01*
X126580000Y-108951000D02*
X126580000Y-104769000D01*
X126620000Y-108904000D02*
X126620000Y-104816000D01*
X126660000Y-108855000D02*
X126660000Y-104865000D01*
X126700000Y-108803000D02*
X126700000Y-104917000D01*
X126740000Y-108750000D02*
X126740000Y-104970000D01*
X126780000Y-108694000D02*
X126780000Y-105026000D01*
X126820000Y-108635000D02*
X126820000Y-105085000D01*
X126860000Y-108574000D02*
X126860000Y-105146000D01*
X126900000Y-108509000D02*
X126900000Y-105211000D01*
X126940000Y-108441000D02*
X126940000Y-105279000D01*
X126980000Y-108369000D02*
X126980000Y-105351000D01*
X127020000Y-108292000D02*
X127020000Y-105428000D01*
X127060000Y-108210000D02*
X127060000Y-105510000D01*
X127100000Y-108121000D02*
X127100000Y-105599000D01*
X127140000Y-108025000D02*
X127140000Y-105695000D01*
X127180000Y-107918000D02*
X127180000Y-105802000D01*
X127220000Y-107799000D02*
X127220000Y-105921000D01*
X127260000Y-107661000D02*
X127260000Y-106059000D01*
X127300000Y-107493000D02*
X127300000Y-106227000D01*
X127340000Y-107262000D02*
X127340000Y-106458000D01*
X127370000Y-106860000D02*
G75*
G02*
X120830000Y-106860000I-3270000J0D01*
G01*
X120830000Y-106860000D02*
G75*
G02*
X127370000Y-106860000I3270000J0D01*
G01*
%TO.C,R7*%
X118130000Y-113480000D02*
X118130000Y-120020000D01*
X118130000Y-120020000D02*
X118460000Y-120020000D01*
X118460000Y-113480000D02*
X118130000Y-113480000D01*
X120540000Y-113480000D02*
X120870000Y-113480000D01*
X120870000Y-113480000D02*
X120870000Y-120020000D01*
X120870000Y-120020000D02*
X120540000Y-120020000D01*
%TO.C,R4*%
X59920000Y-125130000D02*
X66460000Y-125130000D01*
X59920000Y-125460000D02*
X59920000Y-125130000D01*
X59920000Y-127540000D02*
X59920000Y-127870000D01*
X59920000Y-127870000D02*
X66460000Y-127870000D01*
X66460000Y-125130000D02*
X66460000Y-125460000D01*
X66460000Y-127870000D02*
X66460000Y-127540000D01*
%TO.C,R18*%
X65530000Y-96130000D02*
X72070000Y-96130000D01*
X65530000Y-96460000D02*
X65530000Y-96130000D01*
X65530000Y-98540000D02*
X65530000Y-98870000D01*
X65530000Y-98870000D02*
X72070000Y-98870000D01*
X72070000Y-96130000D02*
X72070000Y-96460000D01*
X72070000Y-98870000D02*
X72070000Y-98540000D01*
%TO.C,R13*%
X110730000Y-66380000D02*
X117270000Y-66380000D01*
X110730000Y-66710000D02*
X110730000Y-66380000D01*
X110730000Y-68790000D02*
X110730000Y-69120000D01*
X110730000Y-69120000D02*
X117270000Y-69120000D01*
X117270000Y-66380000D02*
X117270000Y-66710000D01*
X117270000Y-69120000D02*
X117270000Y-68790000D01*
%TO.C,U1*%
D11*
X76475000Y-80275000D02*
X76475000Y-101675000D01*
X134175000Y-80275000D02*
X134175000Y-101675000D01*
D13*
X129730000Y-79975000D02*
G75*
G02*
X129180000Y-79975000I-275000J0D01*
G01*
X129180000Y-79975000D02*
G75*
G02*
X129730000Y-79975000I275000J0D01*
G01*
%TO.C,C15*%
D12*
X106380000Y-59380000D02*
X106380000Y-64620000D01*
X106380000Y-64620000D02*
X106717000Y-64620000D01*
X106717000Y-59380000D02*
X106380000Y-59380000D01*
X108783000Y-64620000D02*
X109120000Y-64620000D01*
X109120000Y-59380000D02*
X108783000Y-59380000D01*
X109120000Y-64620000D02*
X109120000Y-59380000D01*
%TO.C,C5*%
X135200000Y-94540000D02*
X135200000Y-99780000D01*
X135200000Y-99780000D02*
X135537000Y-99780000D01*
X135537000Y-94540000D02*
X135200000Y-94540000D01*
X137603000Y-99780000D02*
X137940000Y-99780000D01*
X137940000Y-94540000D02*
X137603000Y-94540000D01*
X137940000Y-99780000D02*
X137940000Y-94540000D01*
%TO.C,C18*%
X135630000Y-53130000D02*
X135630000Y-58370000D01*
X135630000Y-58370000D02*
X135967000Y-58370000D01*
X135967000Y-53130000D02*
X135630000Y-53130000D01*
X138033000Y-58370000D02*
X138370000Y-58370000D01*
X138370000Y-53130000D02*
X138033000Y-53130000D01*
X138370000Y-58370000D02*
X138370000Y-53130000D01*
%TO.C,R2*%
X65380000Y-48230000D02*
X65380000Y-54770000D01*
X65380000Y-54770000D02*
X65710000Y-54770000D01*
X65710000Y-48230000D02*
X65380000Y-48230000D01*
X67790000Y-48230000D02*
X68120000Y-48230000D01*
X68120000Y-48230000D02*
X68120000Y-54770000D01*
X68120000Y-54770000D02*
X67790000Y-54770000D01*
%TO.C,R5*%
X83230000Y-125130000D02*
X89770000Y-125130000D01*
X83230000Y-125460000D02*
X83230000Y-125130000D01*
X83230000Y-127540000D02*
X83230000Y-127870000D01*
X83230000Y-127870000D02*
X89770000Y-127870000D01*
X89770000Y-125130000D02*
X89770000Y-125460000D01*
X89770000Y-127870000D02*
X89770000Y-127540000D01*
%TO.C,R14*%
X130880000Y-49040000D02*
X130880000Y-55580000D01*
X130880000Y-55580000D02*
X131210000Y-55580000D01*
X131210000Y-49040000D02*
X130880000Y-49040000D01*
X133290000Y-49040000D02*
X133620000Y-49040000D01*
X133620000Y-49040000D02*
X133620000Y-55580000D01*
X133620000Y-55580000D02*
X133290000Y-55580000D01*
%TO.C,C8*%
X50760000Y-125230000D02*
X50760000Y-125567000D01*
X50760000Y-127633000D02*
X50760000Y-127970000D01*
X50760000Y-127970000D02*
X56000000Y-127970000D01*
X56000000Y-125230000D02*
X50760000Y-125230000D01*
X56000000Y-125567000D02*
X56000000Y-125230000D01*
X56000000Y-127970000D02*
X56000000Y-127633000D01*
%TO.C,C11*%
X43110000Y-78710000D02*
X43110000Y-79047000D01*
X43110000Y-81113000D02*
X43110000Y-81450000D01*
X43110000Y-81450000D02*
X48350000Y-81450000D01*
X48350000Y-78710000D02*
X43110000Y-78710000D01*
X48350000Y-79047000D02*
X48350000Y-78710000D01*
X48350000Y-81450000D02*
X48350000Y-81113000D01*
%TO.C,R16*%
X34480000Y-96880000D02*
X34480000Y-97210000D01*
X34480000Y-99620000D02*
X34480000Y-99290000D01*
X41020000Y-96880000D02*
X34480000Y-96880000D01*
X41020000Y-97210000D02*
X41020000Y-96880000D01*
X41020000Y-99290000D02*
X41020000Y-99620000D01*
X41020000Y-99620000D02*
X34480000Y-99620000D01*
%TO.C,D4*%
X103625000Y-119100000D02*
X103625000Y-122125000D01*
X103625000Y-119100000D02*
X104350000Y-118375000D01*
X103625000Y-122125000D02*
X110925000Y-122125000D01*
X110925000Y-118375000D02*
X104350000Y-118375000D01*
X110925000Y-122125000D02*
X110925000Y-118375000D01*
X104550000Y-118800000D02*
X104700000Y-118600000D01*
X104400000Y-118600000D01*
X104550000Y-118800000D01*
G36*
X104550000Y-118800000D02*
G01*
X104400000Y-118600000D01*
X104700000Y-118600000D01*
X104550000Y-118800000D01*
G37*
%TO.C,C9*%
X72660000Y-125300000D02*
X72660000Y-125637000D01*
X72660000Y-127703000D02*
X72660000Y-128040000D01*
X72660000Y-128040000D02*
X77900000Y-128040000D01*
X77900000Y-125300000D02*
X72660000Y-125300000D01*
X77900000Y-125637000D02*
X77900000Y-125300000D01*
X77900000Y-128040000D02*
X77900000Y-127703000D01*
%TO.C,C14*%
X80630000Y-58880000D02*
X80630000Y-59217000D01*
X80630000Y-61283000D02*
X80630000Y-61620000D01*
X80630000Y-61620000D02*
X85870000Y-61620000D01*
X85870000Y-58880000D02*
X80630000Y-58880000D01*
X85870000Y-59217000D02*
X85870000Y-58880000D01*
X85870000Y-61620000D02*
X85870000Y-61283000D01*
%TO.C,C3*%
X28620000Y-48100000D02*
X28409000Y-48100000D01*
X28620000Y-48140000D02*
X28341000Y-48140000D01*
X28620000Y-48180000D02*
X28277000Y-48180000D01*
X28620000Y-48220000D02*
X28217000Y-48220000D01*
X28620000Y-48260000D02*
X28161000Y-48260000D01*
X28620000Y-48300000D02*
X28107000Y-48300000D01*
X28620000Y-48340000D02*
X28056000Y-48340000D01*
X28620000Y-48380000D02*
X28008000Y-48380000D01*
X28620000Y-48420000D02*
X27961000Y-48420000D01*
X28620000Y-48460000D02*
X27917000Y-48460000D01*
X28620000Y-48500000D02*
X27875000Y-48500000D01*
X28620000Y-48540000D02*
X27835000Y-48540000D01*
X28620000Y-48580000D02*
X27796000Y-48580000D01*
X28620000Y-48620000D02*
X27759000Y-48620000D01*
X28620000Y-48660000D02*
X27724000Y-48660000D01*
X28620000Y-48700000D02*
X27690000Y-48700000D01*
X28620000Y-48740000D02*
X27657000Y-48740000D01*
X28620000Y-48780000D02*
X27625000Y-48780000D01*
X28620000Y-48820000D02*
X27595000Y-48820000D01*
X28620000Y-48860000D02*
X27566000Y-48860000D01*
X28620000Y-48900000D02*
X27538000Y-48900000D01*
X28620000Y-48940000D02*
X27511000Y-48940000D01*
X28620000Y-48980000D02*
X27485000Y-48980000D01*
X28620000Y-49020000D02*
X27461000Y-49020000D01*
X28620000Y-49060000D02*
X27437000Y-49060000D01*
X28620000Y-49100000D02*
X27414000Y-49100000D01*
X28620000Y-49140000D02*
X27392000Y-49140000D01*
X28620000Y-49180000D02*
X27371000Y-49180000D01*
X28620000Y-49220000D02*
X27351000Y-49220000D01*
X28620000Y-49260000D02*
X27331000Y-49260000D01*
X28620000Y-49300000D02*
X27313000Y-49300000D01*
X28620000Y-49340000D02*
X27295000Y-49340000D01*
X28620000Y-49380000D02*
X27278000Y-49380000D01*
X28620000Y-49420000D02*
X27262000Y-49420000D01*
X28620000Y-49460000D02*
X27247000Y-49460000D01*
X28620000Y-49500000D02*
X27232000Y-49500000D01*
X28620000Y-49540000D02*
X27218000Y-49540000D01*
X28620000Y-49580000D02*
X27205000Y-49580000D01*
X28620000Y-49620000D02*
X27193000Y-49620000D01*
X28620000Y-49660000D02*
X27181000Y-49660000D01*
X28620000Y-49700000D02*
X27170000Y-49700000D01*
X28620000Y-49740000D02*
X27159000Y-49740000D01*
X28620000Y-49780000D02*
X27150000Y-49780000D01*
X28620000Y-49820000D02*
X27141000Y-49820000D01*
X28620000Y-49860000D02*
X27132000Y-49860000D01*
X28620000Y-49900000D02*
X27124000Y-49900000D01*
X28620000Y-49940000D02*
X27117000Y-49940000D01*
X28620000Y-49980000D02*
X27111000Y-49980000D01*
X28620000Y-50020000D02*
X27105000Y-50020000D01*
X28620000Y-50060000D02*
X27100000Y-50060000D01*
X28620000Y-50100000D02*
X27095000Y-50100000D01*
X28620000Y-50140000D02*
X27091000Y-50140000D01*
X29943000Y-47780000D02*
X29377000Y-47780000D01*
X30177000Y-47820000D02*
X29143000Y-47820000D01*
X30337000Y-47860000D02*
X28983000Y-47860000D01*
X30465000Y-47900000D02*
X28855000Y-47900000D01*
X30574000Y-47940000D02*
X28746000Y-47940000D01*
X30671000Y-47980000D02*
X28649000Y-47980000D01*
X30758000Y-48020000D02*
X28562000Y-48020000D01*
X30837000Y-48060000D02*
X28483000Y-48060000D01*
X30911000Y-48100000D02*
X30700000Y-48100000D01*
X30979000Y-48140000D02*
X30700000Y-48140000D01*
X31043000Y-48180000D02*
X30700000Y-48180000D01*
X31103000Y-48220000D02*
X30700000Y-48220000D01*
X31135000Y-53184775D02*
X31135000Y-52684775D01*
X31159000Y-48260000D02*
X30700000Y-48260000D01*
X31213000Y-48300000D02*
X30700000Y-48300000D01*
X31264000Y-48340000D02*
X30700000Y-48340000D01*
X31312000Y-48380000D02*
X30700000Y-48380000D01*
X31359000Y-48420000D02*
X30700000Y-48420000D01*
X31385000Y-52934775D02*
X30885000Y-52934775D01*
X31403000Y-48460000D02*
X30700000Y-48460000D01*
X31445000Y-48500000D02*
X30700000Y-48500000D01*
X31485000Y-48540000D02*
X30700000Y-48540000D01*
X31524000Y-48580000D02*
X30700000Y-48580000D01*
X31561000Y-48620000D02*
X30700000Y-48620000D01*
X31596000Y-48660000D02*
X30700000Y-48660000D01*
X31630000Y-48700000D02*
X30700000Y-48700000D01*
X31663000Y-48740000D02*
X30700000Y-48740000D01*
X31695000Y-48780000D02*
X30700000Y-48780000D01*
X31725000Y-48820000D02*
X30700000Y-48820000D01*
X31754000Y-48860000D02*
X30700000Y-48860000D01*
X31782000Y-48900000D02*
X30700000Y-48900000D01*
X31809000Y-48940000D02*
X30700000Y-48940000D01*
X31835000Y-48980000D02*
X30700000Y-48980000D01*
X31859000Y-49020000D02*
X30700000Y-49020000D01*
X31883000Y-49060000D02*
X30700000Y-49060000D01*
X31906000Y-49100000D02*
X30700000Y-49100000D01*
X31928000Y-49140000D02*
X30700000Y-49140000D01*
X31949000Y-49180000D02*
X30700000Y-49180000D01*
X31969000Y-49220000D02*
X30700000Y-49220000D01*
X31989000Y-49260000D02*
X30700000Y-49260000D01*
X32007000Y-49300000D02*
X30700000Y-49300000D01*
X32025000Y-49340000D02*
X30700000Y-49340000D01*
X32042000Y-49380000D02*
X30700000Y-49380000D01*
X32058000Y-49420000D02*
X30700000Y-49420000D01*
X32073000Y-49460000D02*
X30700000Y-49460000D01*
X32088000Y-49500000D02*
X30700000Y-49500000D01*
X32102000Y-49540000D02*
X30700000Y-49540000D01*
X32115000Y-49580000D02*
X30700000Y-49580000D01*
X32127000Y-49620000D02*
X30700000Y-49620000D01*
X32139000Y-49660000D02*
X30700000Y-49660000D01*
X32150000Y-49700000D02*
X30700000Y-49700000D01*
X32161000Y-49740000D02*
X30700000Y-49740000D01*
X32170000Y-49780000D02*
X30700000Y-49780000D01*
X32179000Y-49820000D02*
X30700000Y-49820000D01*
X32188000Y-49860000D02*
X30700000Y-49860000D01*
X32196000Y-49900000D02*
X30700000Y-49900000D01*
X32203000Y-49940000D02*
X30700000Y-49940000D01*
X32209000Y-49980000D02*
X30700000Y-49980000D01*
X32215000Y-50020000D02*
X30700000Y-50020000D01*
X32220000Y-50060000D02*
X30700000Y-50060000D01*
X32225000Y-50100000D02*
X30700000Y-50100000D01*
X32229000Y-50140000D02*
X30700000Y-50140000D01*
X32232000Y-50180000D02*
X27088000Y-50180000D01*
X32235000Y-50220000D02*
X27085000Y-50220000D01*
X32237000Y-50260000D02*
X27083000Y-50260000D01*
X32239000Y-50300000D02*
X27081000Y-50300000D01*
X32240000Y-50340000D02*
X27080000Y-50340000D01*
X32240000Y-50380000D02*
X27080000Y-50380000D01*
X32280000Y-50380000D02*
G75*
G02*
X27040000Y-50380000I-2620000J0D01*
G01*
X27040000Y-50380000D02*
G75*
G02*
X32280000Y-50380000I2620000J0D01*
G01*
%TO.C,C2*%
X84650000Y-46550000D02*
X84650000Y-46887000D01*
X84650000Y-48953000D02*
X84650000Y-49290000D01*
X84650000Y-49290000D02*
X89890000Y-49290000D01*
X89890000Y-46550000D02*
X84650000Y-46550000D01*
X89890000Y-46887000D02*
X89890000Y-46550000D01*
X89890000Y-49290000D02*
X89890000Y-48953000D01*
%TD*%
M02*
