%TF.GenerationSoftware,KiCad,Pcbnew,10.0.5*%
%TF.CreationDate,2026-08-13T21:25:51+02:00*%
%TF.ProjectId,learsim pcbs,6c656172-7369-46d2-9070-6362732e6b69,rev?*%
%TF.SameCoordinates,Original*%
%TF.FileFunction,Soldermask,Bot*%
%TF.FilePolarity,Negative*%
%FSLAX46Y46*%
G04 Gerber Fmt 4.6, Leading zero omitted, Abs format (unit mm)*
G04 Created by KiCad (PCBNEW 10.0.5) date 2026-08-13 21:25:51*
%MOMM*%
%LPD*%
G01*
G04 APERTURE LIST*
G04 Aperture macros list*
%AMRoundRect*
0 Rectangle with rounded corners*
0 $1 Rounding radius*
0 $2 $3 $4 $5 $6 $7 $8 $9 X,Y pos of 4 corners*
0 Add a 4 corners polygon primitive as box body*
4,1,4,$2,$3,$4,$5,$6,$7,$8,$9,$2,$3,0*
0 Add four circle primitives for the rounded corners*
1,1,$1+$1,$2,$3*
1,1,$1+$1,$4,$5*
1,1,$1+$1,$6,$7*
1,1,$1+$1,$8,$9*
0 Add four rect primitives between the rounded corners*
20,1,$1+$1,$2,$3,$4,$5,0*
20,1,$1+$1,$4,$5,$6,$7,0*
20,1,$1+$1,$6,$7,$8,$9,0*
20,1,$1+$1,$8,$9,$2,$3,0*%
G04 Aperture macros list end*
%ADD10C,5.050000*%
%ADD11C,2.200000*%
%ADD12C,1.600000*%
%ADD13RoundRect,0.250000X0.550000X-0.550000X0.550000X0.550000X-0.550000X0.550000X-0.550000X-0.550000X0*%
%ADD14R,1.600000X1.600000*%
%ADD15O,1.200000X2.200000*%
%ADD16R,1.800000X1.800000*%
%ADD17C,1.800000*%
%ADD18RoundRect,0.249999X0.850001X-0.850001X0.850001X0.850001X-0.850001X0.850001X-0.850001X-0.850001X0*%
%ADD19O,3.300000X3.500000*%
%ADD20RoundRect,0.205000X-0.470000X-0.205000X0.470000X-0.205000X0.470000X0.205000X-0.470000X0.205000X0*%
%ADD21RoundRect,0.205000X0.470000X0.205000X-0.470000X0.205000X-0.470000X-0.205000X0.470000X-0.205000X0*%
%ADD22O,1.000000X2.200000*%
%ADD23O,0.800000X1.300000*%
%ADD24RoundRect,0.250000X-0.550000X-0.550000X0.550000X-0.550000X0.550000X0.550000X-0.550000X0.550000X0*%
%ADD25C,2.100000*%
%ADD26R,1.600000X3.400000*%
G04 APERTURE END LIST*
D10*
%TO.C,NAV2*%
X107150000Y-115140000D03*
D11*
X107150000Y-109240000D03*
X112150000Y-111340000D03*
%TD*%
D12*
%TO.C,C20*%
X84100000Y-44850000D03*
X84100000Y-39850000D03*
%TD*%
D10*
%TO.C,Switch1*%
X50820000Y-68810000D03*
D11*
X50820000Y-62910000D03*
X55820000Y-65010000D03*
%TD*%
D13*
%TO.C,U3*%
X34180000Y-55305000D03*
D12*
X36720000Y-55305000D03*
X39260000Y-55305000D03*
X41800000Y-55305000D03*
X44340000Y-55305000D03*
X46880000Y-55305000D03*
X49420000Y-55305000D03*
X51960000Y-55305000D03*
X54500000Y-55305000D03*
X57040000Y-55305000D03*
X59580000Y-55305000D03*
X62120000Y-55305000D03*
X62120000Y-47685000D03*
X59580000Y-47685000D03*
X57040000Y-47685000D03*
X54500000Y-47685000D03*
X51960000Y-47685000D03*
X49420000Y-47685000D03*
X46880000Y-47685000D03*
X44340000Y-47685000D03*
X41800000Y-47685000D03*
X39260000Y-47685000D03*
X36720000Y-47685000D03*
X34180000Y-47685000D03*
%TD*%
D14*
%TO.C,DS1*%
X43000000Y-31410000D03*
D12*
X45540000Y-31410000D03*
X48080000Y-31410000D03*
X50620000Y-31410000D03*
X53160000Y-31410000D03*
X55700000Y-31410000D03*
X58240000Y-31410000D03*
X58240000Y-41570000D03*
X55700000Y-41570000D03*
X53160000Y-41570000D03*
X50620000Y-41570000D03*
X48080000Y-41570000D03*
X45540000Y-41570000D03*
X43000000Y-41570000D03*
%TD*%
D15*
%TO.C,SW3*%
X47440000Y-94540000D03*
X44900000Y-94540000D03*
X42360000Y-94540000D03*
X47440000Y-89460000D03*
X44900000Y-89460000D03*
X42360000Y-89460000D03*
%TD*%
D10*
%TO.C,NAV1*%
X82010000Y-115180000D03*
D11*
X82010000Y-109280000D03*
X87010000Y-111380000D03*
%TD*%
D16*
%TO.C,D8*%
X62380000Y-91990000D03*
D17*
X64920000Y-91990000D03*
%TD*%
D10*
%TO.C,ADF1*%
X131570000Y-115120000D03*
D11*
X131570000Y-109220000D03*
X136570000Y-111320000D03*
%TD*%
D18*
%TO.C,D9*%
X79600000Y-44860000D03*
D11*
X79600000Y-37240000D03*
%TD*%
D14*
%TO.C,DS2*%
X105790000Y-31400000D03*
D12*
X108330000Y-31400000D03*
X110870000Y-31400000D03*
X113410000Y-31400000D03*
X115950000Y-31400000D03*
X118490000Y-31400000D03*
X121030000Y-31400000D03*
X121030000Y-41560000D03*
X118490000Y-41560000D03*
X115950000Y-41560000D03*
X113410000Y-41560000D03*
X110870000Y-41560000D03*
X108330000Y-41560000D03*
X105790000Y-41560000D03*
%TD*%
D17*
%TO.C,SW1*%
X95177500Y-76247500D03*
X100257500Y-76247500D03*
X97717500Y-76247500D03*
D19*
X103317500Y-68747500D03*
X92117500Y-68747500D03*
%TD*%
D16*
%TO.C,D7*%
X25580000Y-91930000D03*
D17*
X28120000Y-91930000D03*
%TD*%
D10*
%TO.C,COM2*%
X56920000Y-115150000D03*
D11*
X56920000Y-109250000D03*
X61920000Y-111350000D03*
%TD*%
D10*
%TO.C,COM1*%
X32510000Y-115190000D03*
D11*
X32510000Y-109290000D03*
X37510000Y-111390000D03*
%TD*%
D17*
%TO.C,SW2*%
X126660000Y-76300000D03*
X131740000Y-76300000D03*
X129200000Y-76300000D03*
D19*
X134800000Y-68800000D03*
X123600000Y-68800000D03*
%TD*%
D20*
%TO.C,D6*%
X128775000Y-119600000D03*
X128775000Y-121100000D03*
X134225000Y-121100000D03*
X134225000Y-119600000D03*
%TD*%
D12*
%TO.C,R1*%
X112190000Y-59250000D03*
X119810000Y-59250000D03*
%TD*%
%TO.C,C12*%
X120000000Y-126000000D03*
X125000000Y-126000000D03*
%TD*%
%TO.C,C19*%
X136800000Y-104050000D03*
X136800000Y-99050000D03*
%TD*%
%TO.C,C7*%
X23530000Y-126650000D03*
X28530000Y-126650000D03*
%TD*%
%TO.C,R9*%
X78190000Y-74000000D03*
X85810000Y-74000000D03*
%TD*%
D21*
%TO.C,D5*%
X53475000Y-74750000D03*
X53475000Y-73250000D03*
X48025000Y-73250000D03*
X48025000Y-74750000D03*
%TD*%
D22*
%TO.C,U4*%
X86770000Y-31820000D03*
X78130000Y-31820000D03*
D23*
X83050000Y-32080000D03*
X80650000Y-32080000D03*
X79450000Y-32080000D03*
X81850000Y-32080000D03*
X84250000Y-32080000D03*
X85450000Y-32080000D03*
%TD*%
D12*
%TO.C,C13*%
X85750000Y-70000000D03*
X80750000Y-70000000D03*
%TD*%
%TO.C,R19*%
X88750000Y-41760000D03*
X88750000Y-34140000D03*
%TD*%
%TO.C,R10*%
X78190000Y-65500000D03*
X85810000Y-65500000D03*
%TD*%
%TO.C,R3*%
X37690000Y-126750000D03*
X45310000Y-126750000D03*
%TD*%
D20*
%TO.C,D1*%
X29775000Y-119750000D03*
X29775000Y-121250000D03*
X35225000Y-121250000D03*
X35225000Y-119750000D03*
%TD*%
D12*
%TO.C,C17*%
X117250000Y-64000000D03*
X112250000Y-64000000D03*
%TD*%
D20*
%TO.C,D3*%
X79275000Y-119650000D03*
X79275000Y-121150000D03*
X84725000Y-121150000D03*
X84725000Y-119650000D03*
%TD*%
D12*
%TO.C,R8*%
X62310000Y-80000000D03*
X54690000Y-80000000D03*
%TD*%
%TO.C,R12*%
X110940000Y-75750000D03*
X118560000Y-75750000D03*
%TD*%
%TO.C,R11*%
X79130000Y-55250000D03*
X86750000Y-55250000D03*
%TD*%
%TO.C,R17*%
X26610000Y-84270000D03*
X34230000Y-84270000D03*
%TD*%
%TO.C,C10*%
X98450000Y-126030000D03*
X103450000Y-126030000D03*
%TD*%
%TO.C,C4*%
X26250000Y-56860000D03*
X31250000Y-56860000D03*
%TD*%
D20*
%TO.C,D2*%
X54275000Y-119650000D03*
X54275000Y-121150000D03*
X59725000Y-121150000D03*
X59725000Y-119650000D03*
%TD*%
D24*
%TO.C,C1*%
X93260000Y-48680000D03*
D12*
X95760000Y-48680000D03*
%TD*%
%TO.C,R15*%
X47940000Y-98000000D03*
X55560000Y-98000000D03*
%TD*%
%TO.C,C16*%
X117250000Y-72250000D03*
X112250000Y-72250000D03*
%TD*%
%TO.C,R6*%
X106630000Y-126000000D03*
X114250000Y-126000000D03*
%TD*%
D24*
%TO.C,C6*%
X122400000Y-106600000D03*
D12*
X124900000Y-106600000D03*
%TD*%
%TO.C,R7*%
X119500000Y-112940000D03*
X119500000Y-120560000D03*
%TD*%
%TO.C,R4*%
X59380000Y-126500000D03*
X67000000Y-126500000D03*
%TD*%
%TO.C,R18*%
X64990000Y-97500000D03*
X72610000Y-97500000D03*
%TD*%
%TO.C,R13*%
X110190000Y-67750000D03*
X117810000Y-67750000D03*
%TD*%
D25*
%TO.C,U1*%
X131625000Y-82085000D03*
X79025000Y-82085000D03*
X131625000Y-99865000D03*
X79025000Y-99865000D03*
D26*
X129455000Y-82275000D03*
X126915000Y-82275000D03*
X124375000Y-82275000D03*
X121835000Y-82275000D03*
X119295000Y-82275000D03*
X116755000Y-82275000D03*
X114215000Y-82275000D03*
X111675000Y-82275000D03*
X109135000Y-82275000D03*
X106595000Y-82275000D03*
X104055000Y-82275000D03*
X101515000Y-82275000D03*
X98975000Y-82275000D03*
X96435000Y-82275000D03*
X93895000Y-82275000D03*
X91355000Y-82275000D03*
X88815000Y-82275000D03*
X86275000Y-82275000D03*
X83735000Y-82275000D03*
X81195000Y-82275000D03*
X129455000Y-99675000D03*
X126915000Y-99675000D03*
X124375000Y-99675000D03*
X121835000Y-99675000D03*
X119295000Y-99675000D03*
X116755000Y-99675000D03*
X114215000Y-99675000D03*
X111675000Y-99675000D03*
X109135000Y-99675000D03*
X106595000Y-99675000D03*
X104055000Y-99675000D03*
X101515000Y-99675000D03*
X98975000Y-99675000D03*
X96435000Y-99675000D03*
X93895000Y-99675000D03*
X91355000Y-99675000D03*
X88815000Y-99675000D03*
X86275000Y-99675000D03*
X83735000Y-99675000D03*
X81195000Y-99675000D03*
%TD*%
D12*
%TO.C,C15*%
X107750000Y-64500000D03*
X107750000Y-59500000D03*
%TD*%
%TO.C,C5*%
X136550000Y-90250000D03*
X136550000Y-95250000D03*
%TD*%
%TO.C,C18*%
X137000000Y-58250000D03*
X137000000Y-53250000D03*
%TD*%
%TO.C,R2*%
X66750000Y-47690000D03*
X66750000Y-55310000D03*
%TD*%
%TO.C,R5*%
X82690000Y-126500000D03*
X90310000Y-126500000D03*
%TD*%
%TO.C,R14*%
X132250000Y-48500000D03*
X132250000Y-56120000D03*
%TD*%
%TO.C,C8*%
X50880000Y-126600000D03*
X55880000Y-126600000D03*
%TD*%
%TO.C,C11*%
X43230000Y-80080000D03*
X48230000Y-80080000D03*
%TD*%
%TO.C,R16*%
X41560000Y-98250000D03*
X33940000Y-98250000D03*
%TD*%
D20*
%TO.C,D4*%
X104550000Y-119500000D03*
X104550000Y-121000000D03*
X110000000Y-121000000D03*
X110000000Y-119500000D03*
%TD*%
D12*
%TO.C,R20*%
X75550000Y-34040000D03*
X75550000Y-41660000D03*
%TD*%
%TO.C,C9*%
X72780000Y-126670000D03*
X77780000Y-126670000D03*
%TD*%
%TO.C,C14*%
X85750000Y-60250000D03*
X80750000Y-60250000D03*
%TD*%
D13*
%TO.C,C3*%
X29660000Y-51630000D03*
D12*
X29660000Y-49130000D03*
%TD*%
%TO.C,C2*%
X89770000Y-47920000D03*
X84770000Y-47920000D03*
%TD*%
D13*
%TO.C,U2*%
X99590000Y-55620000D03*
D12*
X102130000Y-55620000D03*
X104670000Y-55620000D03*
X107210000Y-55620000D03*
X109750000Y-55620000D03*
X112290000Y-55620000D03*
X114830000Y-55620000D03*
X117370000Y-55620000D03*
X119910000Y-55620000D03*
X122450000Y-55620000D03*
X124990000Y-55620000D03*
X127530000Y-55620000D03*
X127530000Y-48000000D03*
X124990000Y-48000000D03*
X122450000Y-48000000D03*
X119910000Y-48000000D03*
X117370000Y-48000000D03*
X114830000Y-48000000D03*
X112290000Y-48000000D03*
X109750000Y-48000000D03*
X107210000Y-48000000D03*
X104670000Y-48000000D03*
X102130000Y-48000000D03*
X99590000Y-48000000D03*
%TD*%
M02*
